<svg id="Layer_1" data-name="Layer 1" xmlns="http://www.w3.org/2000/svg" viewBox="0 0 127.1 153.1"><defs><style>.cls-1{fill:#ededf4;}.cls-2{fill:none;}.cls-3{fill:#7b7a88;}.cls-4{fill:#43434b;}.cls-5{fill:#b5b5c1;}.cls-6{fill:#d9d9df;}.cls-7{fill:#9399a8;}.cls-8{fill:#5e5c6a;}.cls-9{fill:#9491a4;}.cls-10{fill:#605e73;}.cls-11{fill:#6d5c46;}.cls-12{fill:#4b3a2d;}.cls-13{fill:#54d9ff;opacity:0.5;}</style></defs><rect class="cls-1" x="-337" y="-395.6" width="1000" height="800"/><polygon class="cls-2" points="113.1 62.7 113.1 62.6 112.9 62.4 113.1 62.7"/><polygon class="cls-2" points="17.4 60.2 17.4 60.1 17.4 60.1 17.4 60.2"/><polygon class="cls-2" points="1 68.6 1 68.5 1 68.5 1 68.6"/><polygon class="cls-2" points="7.5 59.9 7.5 59.9 7.5 59.9 7.5 59.9"/><polygon class="cls-2" points="21.7 30.7 21.7 30.7 21.6 30.7 21.7 30.7"/><polygon class="cls-2" points="99.6 50.7 99.7 50.2 99.6 50.7 99.6 51.3 99.6 50.7"/><polygon class="cls-2" points="6.3 90.2 6.3 92.5 6.3 90.2 6.3 90.2"/><path class="cls-2" d="M43.9,95.5v29.6h3.5v-1.7h0l-.3-.3h-.2V105.7l.2-1.3.4-1.2.8-1,.9-.7,1.1-.5,1.2-.2H63.7l1.2.2,1.1.5.9.7.8,1,.4,1.2.2,1.3v17.2h-.2l-.3.3h0v1.7h3.5V95.5L66,96.6h-.3l-8.1.5-8.1-.5h-.3Z"/><polygon class="cls-2" points="110.7 58.1 110.8 58.1 110.8 58.1 110.7 58.1"/><polygon class="cls-2" points="120.1 61.1 120 61.2 120.1 61.1 120.3 60.4 120.1 61.1"/><path class="cls-3" d="M38.7,128.3h5.2V121H38.7Z"/><polygon class="cls-4" points="37.2 39 38.9 39.2 39.4 39.2 40 39.2 42.8 39.4 43.3 39.4 46.7 39.7 47.2 39.7 48.8 39.8 50.3 39.8 52.2 39.9 53.9 39.9 57.6 40 61.3 39.9 63 39.9 64.9 39.8 66.4 39.8 68 39.7 68.5 39.7 71.9 39.4 72.4 39.4 75.2 39.2 75.8 39.2 76.3 39.2 78 39 78.3 39 78.8 38.9 79.3 37.8 80 35 80.4 32.1 80.2 29.2 79.6 26.4 78.6 23.7 77.2 21.4 76.4 20.5 75.8 20.5 73.9 20.5 70.9 20.5 67 20.5 62.5 20.5 57.6 20.5 52.7 20.5 48.2 20.5 44.3 20.5 41.3 20.5 39.5 20.5 38.8 20.5 38 21.4 36.6 23.7 35.6 26.4 35 29.2 34.8 32.1 35.2 35 35.9 37.8 36.4 38.9 36.9 39 37.2 39"/><polygon class="cls-5" points="41.3 20.5 44.3 20.5 48.2 20.5 52.7 20.5 57.6 20.5 62.5 20.5 67 20.5 70.9 20.5 73.9 20.5 75.8 20.5 76.4 20.5 75.5 19.4 74.1 18.4 73.5 18.4 71.9 18.4 69.3 18.4 65.9 18.4 61.9 18.4 57.6 18.4 53.3 18.4 49.4 18.4 45.9 18.4 43.3 18.4 41.7 18.4 41.1 18.4 39.7 19.4 38.8 20.5 39.5 20.5 41.3 20.5"/><polygon class="cls-6" points="43.3 18.4 45.9 18.4 49.4 18.4 53.3 18.4 57.6 18.4 61.9 18.4 65.9 18.4 69.3 18.4 71.9 18.4 73.5 18.4 74.1 18.4 73.5 17.9 71.3 16.9 68.8 16.4 67.9 16.3 64.4 16.1 63.5 16.1 61 16.1 57.6 16.1 54.2 16.1 51.7 16.1 50.8 16.1 47.3 16.3 46.4 16.4 43.9 16.9 41.7 17.9 41.1 18.4 41.7 18.4 43.3 18.4"/><polygon class="cls-3" points="103.5 57.6 103.7 57.3 104 56.9 104.3 56.3 104.3 56.3 104.3 56.1 104.6 55.6 105 54.8 105.3 54 105.6 53.2 105.9 52.4 106.2 51.6 106.4 50.9 106.6 50.3 106.6 50 106.7 49.9 106.7 49.6 106.6 49.4 106.2 49.4 104.3 49.3 102.3 49.2 100.2 49.2 99.4 49.2 99.4 49.4 99.5 49.6 99.5 49.7 99.5 50.2 99.5 50.4 99.6 50.7 99.7 50.2 99.6 50.7 99.6 51.3 99.6 51.4 99.7 52.2 99.7 52.3 99.8 53 99.8 53.3 99.8 53.9 99.9 54.3 99.9 54.7 100 55.3 100 55.5 100 56.2 100 56.2 100.1 56.8 100.1 57 100.1 57.3 100.1 57.6 100.2 57.7 100.2 57.7 100.3 57.7 102.1 57.8 102.2 57.8 103.2 57.8 103.3 57.8 103.9 57.8 104 57.8 104.1 57.7 103.5 57.6"/><polygon class="cls-7" points="110.2 58.3 110.7 58.1 110.8 58.1 110.8 58.1 111.6 57.7 112.3 57.2 112.9 56.6 113.6 56 114.1 55.2 114.6 54.5 114.6 54.4 114.9 53.8 115 53.1 115.1 52.5 114.9 51.9 114.7 51.5 114.5 51.4 114.2 51.2 113 50.7 112.4 50.4 111.1 50.1 109.6 49.8 108 49.5 106.6 49.4 106.7 49.6 106.7 49.9 106.6 50 106.6 50.3 106.4 50.9 106.2 51.6 105.9 52.4 105.6 53.2 105.3 54 105 54.8 104.6 55.6 104.3 56.1 104.3 56.3 104.3 56.3 104 56.9 103.7 57.3 103.5 57.6 104.1 57.7 104 57.8 105.6 57.9 105.4 57.9 106.7 58 108 58.2 109 58.4 109.5 58.4 110.2 58.3"/><polygon class="cls-3" points="112 60 112.7 60.2 113.4 60.3 114.2 60.3 115 60.1 115.7 59.8 116.5 59.4 117.2 58.9 117.8 58.3 118.2 57.7 118.6 57 118.8 56.4 118.8 56.4 118.8 56.2 118.8 55.7 118.6 55.1 118.4 54.6 118.1 54.3 117.3 53.4 116.8 52.9 115.9 52.2 115.3 51.8 114.3 51.2 114.5 51.4 114.7 51.5 114.9 51.9 115.1 52.5 115 53.1 114.9 53.8 114.6 54.4 114.6 54.5 114.1 55.2 113.6 56 112.9 56.6 112.3 57.2 111.6 57.7 110.8 58.1 110.7 58.1 110.2 58.3 109.5 58.4 109 58.4 109.1 58.4 109.9 58.6 110.3 58.8 110.8 59.1 111.2 59.3 111.3 59.5 111.5 59.7 112 60"/><polygon class="cls-7" points="100.1 57.6 100.1 57.3 100.1 57 100.1 56.8 100 56.2 100 56.2 100 55.5 100 55.3 99.9 54.7 99.9 54.3 99.8 53.9 99.8 53.3 99.2 53.3 99.2 53.3 99 53.3 98.7 53.4 98.3 53.4 97.8 53.4 97.3 53.5 96.8 53.5 96.9 54.8 96.9 55.1 97.1 56.6 97.3 57.9 97.5 59.1 97.8 60.1 97.9 60.3 97.9 60.7 98 60.8 98.1 61.2 98.1 61.4 98.5 61.3 98.9 61.1 99.3 60.7 99.6 60.3 99.7 59.8 99.8 59.3 99.7 59.2 99.7 58.9 99.7 58.6 100.2 58.5 100.2 58.4 100.2 58.1 100.2 57.7 100.2 57.7 100.1 57.6"/><polygon class="cls-3" points="112.9 69.9 113.3 70.4 113.8 70.9 114.4 71.4 115.2 71.7 116 71.9 116.8 72 117.6 71.9 118.4 71.8 119.2 71.5 119.9 71.1 120.4 70.7 120.8 70.1 121.1 69.5 121.2 68.9 121.2 68.1 121.2 66.1 121.2 65.1 121.1 65.7 120.8 66.3 120.4 66.8 119.8 67.3 119.1 67.7 118.4 68 117.6 68.2 116.7 68.2 115.9 68.2 115.1 68 114.4 67.7 113.8 67.3 113.3 66.9 112.9 66.3 112.7 65.7 112.6 65.1 112.7 65.9 112.7 67.9 112.6 68.6 112.7 69.3 112.9 69.9"/><polygon class="cls-7" points="112.6 72.3 112.7 72.9 112.9 73.5 113.2 74.1 113.8 74.6 114.4 75 115.1 75.3 115.9 75.6 116.7 75.6 117.6 75.6 118.4 75.5 119.1 75.2 119.8 74.8 120.4 74.3 120.8 73.8 121.1 73.2 121.2 72.6 121.2 70.4 121.2 68.9 121.1 69.5 120.8 70.1 120.4 70.7 119.9 71.1 119.2 71.5 118.4 71.8 117.6 71.9 116.8 72 116 71.9 115.2 71.7 114.4 71.4 113.8 70.9 113.3 70.4 112.9 69.9 112.7 69.3 112.6 68.6 112.6 70.1 112.6 70.3 112.6 72.3"/><polygon class="cls-8" points="121.1 73.2 120.8 73.8 120.4 74.3 119.8 74.8 119.1 75.2 118.4 75.5 117.6 75.6 116.7 75.6 115.9 75.6 115.1 75.3 114.4 75 113.8 74.6 113.2 74.1 112.9 73.5 112.7 72.9 112.6 72.3 112.6 70.3 112.2 70.8 111.9 71.5 111.7 72.3 111.8 73 112.1 73.8 112.5 74.4 113.1 75 113.9 75.6 114.8 75.9 115.7 76.2 116.7 76.3 117.7 76.2 118.7 76.1 119.6 75.7 120.4 75.3 121.1 74.7 121.6 74.1 121.9 73.3 122 72.6 122 71.8 121.7 71.1 121.6 71 121.4 70.6 121.3 70.4 121.2 70.4 121.2 72.6 121.1 73.2"/><polygon class="cls-7" points="112.9 66.3 113.3 66.9 113.8 67.3 114.4 67.7 115.1 68 115.9 68.2 116.7 68.2 117.6 68.2 118.4 68 119.1 67.7 119.8 67.3 120.4 66.8 120.8 66.3 121.1 65.7 121.2 65.1 121.1 64.2 121 62.5 120.9 61.8 120.9 61.5 120.9 62.1 120.8 62.8 120.5 63.4 120.1 63.9 119.5 64.4 118.9 64.8 118.1 65.2 117.3 65.4 116.5 65.5 115.6 65.4 114.8 65.3 114.1 65 113.5 64.6 113 64.1 112.6 63.6 112.4 63 112.5 63.3 112.6 64.4 112.6 65.1 112.7 65.7 112.9 66.3"/><polygon class="cls-7" points="12.7 79.4 12.5 79.8 12.1 80.2 11.6 80.6 10.9 81 10.2 81.4 9.5 81.6 8.6 81.9 7.8 82 7.1 82.1 6.3 82.1 5.7 82.1 5.2 81.9 4.8 81.7 4.6 81.4 5.6 84.9 6 86.2 6.2 86.5 6.6 86.7 7.1 86.9 7.8 87 8.5 87 9.3 86.9 10.1 86.7 10.9 86.5 11.7 86.2 12.4 85.8 13 85.5 13.5 85 13.9 84.6 14.1 84.2 14.2 83.8 14.1 83.5 13.8 82.5 12.7 78.7 12.8 79 12.7 79.4"/><polygon class="cls-3" points="11.3 74.6 11 75 10.7 75.4 10.1 75.8 9.5 76.1 8.8 76.5 8 76.7 7.2 76.9 6.4 77 5.6 77.1 4.8 77 4.2 76.9 3.7 76.7 3.3 76.5 3 76.2 3.5 77.7 4.3 80.4 4.6 81.4 4.8 81.7 5.2 81.9 5.7 82.1 6.3 82.1 7.1 82.1 7.8 82 8.6 81.9 9.5 81.6 10.2 81.4 10.9 81 11.6 80.6 12.1 80.2 12.5 79.8 12.7 79.4 12.8 79 12.7 78.7 12.4 77.7 11.6 75 11.3 73.9 11.4 74.3 11.3 74.6"/><polygon class="cls-7" points="8.4 63.1 8.2 63.3 8 63.4 7.5 63.7 6.9 64 6.2 64.1 5.4 64.2 4.6 64.3 3.8 64.2 3 64.1 2.2 63.9 1.5 63.6 0.9 63.3 0.5 62.9 0.2 62.5 0 62.1 0 62.4 0.2 64.1 0.4 66 0.8 68 1 68.5 1 68.6 1.3 68.9 1.7 69.2 2.2 69.4 2.9 69.6 3.6 69.7 4.4 69.7 5.3 69.7 6.1 69.6 6.9 69.4 7.6 69.1 7.9 69 8.3 68.8 8.8 68.5 9.2 68.1 9.4 67.7 9.5 67.4 9.3 66.6 8.9 64.8 8.7 63.2 8.6 62.3 8.6 62.7 8.4 63.1"/><polygon class="cls-3" points="8.5 59.7 8.1 59.8 7.5 59.9 7.5 59.9 7.4 59.9 6.9 59.9 6.2 59.8 5.4 59.6 4.7 59.4 4.6 59.3 4.6 59.3 3.8 59 3.1 58.5 2.4 58.1 1.9 57.6 1.4 57.1 1.1 56.6 1.1 56.5 1.1 56.1 1.1 55.7 0.7 56.6 0.6 57.2 0.2 58.6 0 60.1 0 60.8 0 62.1 0.2 62.5 0.5 62.9 0.9 63.3 1.5 63.6 2.2 63.9 3 64.1 3.8 64.2 4.6 64.3 5.4 64.2 6.2 64.1 6.9 64 7.5 63.7 8 63.4 8.2 63.3 8.4 63.1 8.6 62.7 8.6 62.3 8.5 61.7 8.5 61 8.6 60 8.7 59.7 8.9 59.3 8.8 59.4 8.5 59.7"/><polygon class="cls-3" points="9.2 68.1 8.8 68.5 8.3 68.8 7.9 69 7.6 69.1 6.9 69.4 6.1 69.6 5.3 69.7 4.4 69.7 3.6 69.7 2.9 69.6 2.2 69.4 1.7 69.2 1.3 68.9 1 68.6 1 68.5 1 68.5 0.9 68.2 1.4 70.1 1.5 70.5 1.5 70.6 1.8 71.7 1.9 72 2.1 72.3 2.5 72.6 3 72.8 3.7 72.9 4.4 73 5.2 73 6.1 72.9 6.9 72.7 7.7 72.5 8.4 72.2 9 71.9 9.6 71.5 9.9 71.2 10.2 70.8 10.3 70.4 10.2 70.2 10.2 70 9.8 68.5 9.5 67.4 9.4 67.7 9.2 68.1"/><polygon class="cls-8" points="14.2 83.8 14.1 84.2 13.9 84.6 13.5 85 13 85.5 12.4 85.8 11.7 86.2 10.9 86.5 10.1 86.7 9.3 86.9 8.5 87 7.8 87 7.1 86.9 6.6 86.7 6.2 86.5 6 86.2 5.6 84.9 5.4 85.1 5.2 85.6 5.1 86.1 5.2 86.5 5.5 86.8 5.9 87.1 6.6 87.3 7.3 87.4 8.2 87.4 9.1 87.3 10.1 87.1 11.1 86.8 12 86.4 12.8 86 13.6 85.6 14.2 85.1 14.7 84.6 14.9 84.1 15 83.6 14.9 83.2 14.6 82.9 14.2 82.6 13.8 82.5 14.1 83.5 14.2 83.8"/><polygon class="cls-7" points="10.2 70.8 9.9 71.2 9.6 71.5 9 71.9 8.4 72.2 7.7 72.5 6.9 72.7 6.1 72.9 5.2 73 4.4 73 3.7 72.9 3 72.8 2.5 72.6 2.1 72.3 1.9 72 2 72.4 2.1 72.8 2.7 75.2 3 76.2 3.3 76.5 3.7 76.7 4.2 76.9 4.8 77 5.6 77.1 6.4 77 7.2 76.9 8 76.7 8.8 76.5 9.5 76.1 10.1 75.8 10.7 75.4 11 75 11.3 74.6 11.4 74.3 11.3 73.9 10.9 72.5 10.2 70.2 10.3 70.4 10.2 70.8"/><polygon class="cls-7" points="11.2 57.6 10.7 57.2 10.3 56.6 9.8 56 9.3 55.3 9.2 55.3 9.2 55.2 8.8 54.6 8.4 53.8 8 53.1 7.7 52.4 7.5 51.7 7.4 51.2 7.3 50.7 7.4 50.4 7.5 50.3 7.6 50.3 6 50.9 5.5 51.2 4.1 52 3 53.1 2.5 53.5 1.7 54.7 1.3 55.3 1.1 55.7 1.1 56.1 1.1 56.5 1.1 56.6 1.4 57.1 1.9 57.6 2.4 58.1 3.1 58.5 3.8 59 4.6 59.3 4.6 59.3 4.7 59.4 5.4 59.6 6.2 59.8 6.9 59.9 7.4 59.9 7.5 59.9 7.5 59.9 7.5 59.9 8.1 59.8 8.5 59.7 8.8 59.4 8.9 59.3 9.1 59.1 9.3 58.9 9.6 58.7 10.5 58.3 11.6 58 11.2 58.1 11.6 58 11.9 58 11.6 57.9 11.2 57.6"/><path class="cls-5" d="M98,60.8h-.1v-.6l-.3-1-.2-1.2-.2-1.3-.2-1.5V52h0V45.7h.1L96,44h0v-1l-.2-.8-.2-1-.2-1.1L95,38.6l-.2-1.3L94.4,36l-.3-1.2-.2-1.2-.3-1-.3-.8-.2-.6v-.4h-.1v1.8l.2,1,.2,1.2.3,1.2.3,1.3h.3l.8,3.3H93.6l-1.2.2-1.5.2-1.9.2H86.8l-2.4.3-2.7.2-3,.3-2,.3H75.5l-3.3.2-3.5.2-1.5.2H48l-1.5-.2L43,42.7l-3.3-.2H38.5l-2-.3-3-.3-2.7-.2-2.4-.3H26.2L24.3,41l-1.5-.2-1.2-.2H20l.7-3.3h.4l.2-1.3.3-1.2.2-1.2.2-1,.2-.8v-1h-.2v.4l-.2.6-.2.8-.3,1L21,34.8,20.7,36l-.3,1.3-.3,1.3-.3,1.3L19.6,41l-.2,1v2h0l-.4,1.6h.1v6.2h0v3.1l-.2,1.5-.2,1.3-.2,1.2-.3,1h-.1v.5l-.2.4v.6l1.4,8.7,2.3,6.9H94.5l2.3-6.9,1.4-8.7v-1ZM50.1,73.5l-.4.2-1.2.4H46l-1.1-.3h-.1l-1.1-.6-.9-.7h0l-.8-.9-.5-.9v-.2L41,69.1V50.4l.3-1v-.2l.6-1.1.6-.7.2-.2.9-.8,1.1-.6,1.2-.4h2.5l1.2.4.3.2.8.4.9.8.8.9.6,1.1v.2l.3,1V69.1l-.4,1.2v.2l-.5.9-.8.9-.9.8Zm22.1-1.2-1,.8-1,.6h-.1l-1.2.4H66.5l-1.2-.4h-.2l-.9-.5-1-.8-.8-.9-.4-.9-.2-.2-.3-1.2h0V50.4h0l.3-1v-.2l.6-1.1.8-.9,1-.8,1-.6h.1l1.2-.4h2.4l1.2.4,1.1.6,1,.8.4.5.4.4.6,1.1v.2l.3,1,.2,1.3V67.9l-.2,1.2-.3,1.2-.2.2-.4.9-.6.7Z"/><path class="cls-3" d="M20.7,77.4,26,79.2l-.8,2.9H90l-.8-2.9,5.3-1.8Z"/><polygon class="cls-3" points="15.1 57.5 15.2 57.2 15.2 57 15.2 56.8 15.2 56.2 15.2 56.2 15.3 55.5 15.3 55.3 15.4 54.7 15.4 54.3 15.4 53.9 15.5 53.3 15.5 53 15.6 52.3 15.6 52.2 15.6 51.4 15.7 51.3 15.7 50.7 15.7 50.4 15.8 50.1 15.8 49.6 15.8 49.6 15.8 49.3 15.8 49.1 15.8 49.1 14.1 49.1 14 49.2 11.6 49.4 9.5 49.7 7.6 50.2 7.6 50.3 7.5 50.3 7.4 50.4 7.3 50.7 7.4 51.2 7.5 51.7 7.7 52.4 8 53.1 8.4 53.8 8.8 54.6 9.2 55.2 9.2 55.3 9.3 55.3 9.8 56 10.3 56.6 10.7 57.2 11.2 57.6 11.6 57.9 11.9 58 12.1 57.9 12.7 57.8 12.8 57.8 14.5 57.7 15.1 57.7 15.1 57.7 15.1 57.5"/><polygon class="cls-3" points="20.7 37.3 20 40.6 20.2 40.5 20.7 40.5 21.6 40.6 22.8 40.8 24.3 41 26.2 41.2 26.8 41.3 28.4 41.4 30.8 41.7 33.5 41.9 36.5 42.2 38.5 42.5 39.7 42.5 43 42.7 46.5 42.9 48 43.1 48.7 43.1 50.1 43.1 53.9 43.1 57.6 43.1 61.3 43.1 65.1 43.1 66.5 43.1 67.2 43.1 68.7 42.9 72.2 42.7 75.5 42.5 76.7 42.5 78.7 42.2 81.7 41.9 84.4 41.7 86.8 41.4 88.4 41.3 89 41.2 90.9 41 92.4 40.8 93.6 40.6 94.5 40.5 95 40.5 95.2 40.6 94.4 37.3 94.3 37.3 94.2 37.3 94.1 37.3 93.8 37.3 92.9 37.4 91.7 37.5 90.2 37.7 88.4 38 87.8 38.1 86.3 38.2 83.9 38.4 81.2 38.6 78.8 38.9 78.3 39 78 39 76.3 39.2 75.8 39.2 75.2 39.2 72.4 39.4 71.9 39.4 68.5 39.7 68 39.7 66.4 39.8 64.9 39.8 63 39.9 61.3 39.9 57.6 40 53.9 39.9 52.2 39.9 50.3 39.8 48.8 39.8 47.2 39.7 46.7 39.7 43.3 39.4 42.8 39.4 40 39.2 39.4 39.2 38.9 39.2 37.2 39 36.9 39 36.4 38.9 34 38.6 31.4 38.4 28.9 38.2 27.4 38.1 26.8 38 25 37.7 23.5 37.5 22.3 37.4 21.4 37.3 21.1 37.3 20.9 37.3 20.7 37.3"/><path class="cls-3" d="M73.4,70.5l.2-.2.3-1.2.2-1.2V51.7l-.2-1.3-.3-1v-.2L73,48.1l-.4-.4-.4-.5-1-.8-1.1-.6-1.2-.4H66.5l-1.2.4h-.1l-1,.6-1,.8-.8.9-.6,1.1v.2l-.3,1h0V69h0l.3,1.2.2.2.4.9.8.9,1,.8.9.5h.2l1.2.4h2.4l1.2-.4h.1l1-.6,1-.8.2-.2.6-.7Zm-2.8.3-.6.5-.6.3H66.9l-.8-.2-.7-.4h-.2l-.4-.4-.2-.3-.3-.3-.4-.8-.3-.7V50.8l.3-.7.3-.7h.1l.5-.7.5-.4h.1l.7-.4.8-.2h2.4l.7.4.6.5.6.7h0l.3.7.3.7V68.7l-.3.7-.3.8-.4.3Z"/><path class="cls-7" d="M68.1,123h.2V105.7l-.2-1.3-.4-1.2-.8-1v21.6l.6-.4h.3l.3-.3Z"/><polygon class="cls-6" points="15.8 49.3 15.8 49.6 15.8 49.6 15.8 50.1 15.7 50.4 15.7 50.7 15.7 51.3 15.6 51.4 15.6 52.2 15.6 52.3 15.5 53 15.5 53.3 16 53.3 16.1 53.3 16.3 53.3 16.6 53.4 17 53.4 17.5 53.4 17.9 53.5 18.4 53.5 18.5 52 18.5 51.9 18.6 50.5 18.6 49.4 18.6 49.1 18.7 47.9 18.8 46.9 18.8 46.6 18.8 46.2 18.9 45.7 18.8 45.6 18.6 45.6 18.1 45.6 17.6 45.7 17.2 46 16.9 46.4 16.6 46.8 16.5 47.3 16.5 47.4 16.5 47.8 16.5 48.1 15.9 48 15.9 48.1 15.9 48.4 15.9 48.9 15.8 49.1 15.8 49.1 15.8 49.3"/><path class="cls-5" d="M66.9,102.8v-.6l-.9-.7-1.1-.5-1.2-.2H51.5l-1.2.2-1.1.5-.9.7v21.6h.1l.2.2h.8l.9.4h0l.6.2h.6l.8.2.9.3h.1l2.1.4h4.4l2-.4H62l.9-.3.8-.2h.6l.6-.2h0l.9-.4h.8l.2-.2h.1Z"/><polygon class="cls-7" points="17.3 60.8 17.3 60.3 17.4 60.2 17.4 60.1 17.4 60.1 17.7 59.1 17.9 57.9 18.1 56.6 18.3 55.1 18.3 54.8 18.4 53.5 17.9 53.5 17.5 53.4 17 53.4 16.6 53.4 16.3 53.3 16.1 53.3 16 53.3 15.5 53.3 15.4 53.9 15.4 54.3 15.4 54.7 15.3 55.3 15.3 55.5 15.2 56.2 15.2 56.2 15.2 56.8 15.2 57 15.2 57.2 15.1 57.5 15.1 57.7 15.1 57.7 15.1 58.1 15 58.4 15 58.5 15.6 58.6 15.6 58.9 15.5 59.2 15.5 59.3 15.5 59.8 15.7 60.3 16 60.7 16.3 61.1 16.8 61.3 17.1 61.4 17.1 61.2 17.3 60.8"/><polygon class="cls-6" points="96.4 46.2 96.4 46.6 96.4 46.9 96.5 47.9 96.6 49.1 96.6 49.4 96.6 50.5 96.7 51.9 96.7 52 96.8 53.5 97.3 53.5 97.8 53.4 98.3 53.4 98.7 53.4 99 53.3 99.2 53.3 99.2 53.3 99.8 53.3 99.8 53 99.7 52.3 99.7 52.2 99.6 51.4 99.6 51.3 99.6 50.7 99.5 50.4 99.5 50.2 99.5 49.7 99.5 49.6 99.4 49.4 99.4 49.2 99.4 48.9 99.4 48.4 99.3 48.1 99.3 48 98.8 48.1 98.8 47.8 98.7 47.4 98.7 47.3 98.6 46.8 98.4 46.4 98 46 97.6 45.7 97.1 45.6 96.6 45.6 96.4 45.6 96.3 45.7 96.4 46.2"/><path class="cls-3" d="M51.7,72.3l.8-.9.5-.9v-.2l.4-1.2V50.4l-.3-1v-.2l-.6-1.1-.8-.9-.9-.8L50,46l-.3-.2-1.2-.4H46l-1.2.4-1.1.6-.9.8-.2.2-.6.7-.6,1.1v.2l-.3,1V69.1l.4,1.2v.2l.5.9.8.9h0l.9.7,1.1.6h.1l1.1.3h2.5l1.2-.4.4-.2.7-.4Zm-1.5-1.5L50,71l-.4.3-.8.4-.7.2H46.4l-.6-.2h-.1l-.8-.4-.6-.5-.2-.3-.3-.3-.4-.8-.2-.7V50.8l.2-.7.4-.7h0l.5-.7.6-.5.8-.4h2.4l.7.2.8.4.3.3.3.2.5.7h0l.4.7.2.7V68.7l-.2.7-.4.8-.3.3Z"/><polygon class="cls-3" points="113 64.1 113.5 64.6 114.1 65 114.8 65.3 115.6 65.4 116.5 65.5 117.3 65.4 118.1 65.2 118.9 64.8 119.5 64.4 120.1 63.9 120.5 63.4 120.8 62.8 120.9 62.1 120.9 61.5 120.7 60.3 120.4 59.3 120.5 59.9 120.3 60.5 120.1 61.1 120 61.2 119.6 61.7 119 62.2 118.4 62.7 117.6 63 116.8 63.3 116 63.4 115.2 63.4 114.4 63.2 113.7 63 113.1 62.6 113.1 62.7 112.9 62.4 112.6 62.2 112.3 61.6 112.1 61 112.3 62 112.4 63 112.6 63.6 113 64.1"/><polygon class="cls-7" points="112.6 62.2 112.9 62.4 113.1 62.6 113.7 63 114.4 63.2 115.2 63.4 116 63.4 116.8 63.3 117.6 63 118.4 62.7 119 62.2 119.6 61.7 120 61.2 120.1 61.1 120.3 60.4 120.1 61.1 120.3 60.5 120.5 59.9 120.4 59.3 120.3 58.9 120.1 58.2 119.7 57 119.1 55.9 118.8 55.2 118.4 54.6 118.6 55.1 118.8 55.7 118.8 56.2 118.8 56.4 118.8 56.4 118.6 57 118.2 57.7 117.8 58.3 117.2 58.9 116.5 59.4 115.7 59.8 115 60.1 114.2 60.3 113.4 60.3 112.7 60.2 112 60 111.5 59.7 111.3 59.5 111.6 59.9 111.8 60.4 112 61 112.1 61 112.3 61.6 112.6 62.2"/><path class="cls-4" d="M71.5,69.4l.3-.7V50.8l-.3-.7-.3-.7h0l-.6-.7-.6-.5-.7-.4H66.9l-.8.2-.7.4h-.1l-.5.4-.5.7h-.1l-.3.7-.3.7V68.7l.3.7.4.8.3.3.2.3.4.4h.2l.7.4.8.2h2.5l.6-.3.6-.5.2-.3.4-.3Z"/><path class="cls-4" d="M51.1,69.4l.2-.7V50.8l-.2-.7-.4-.7h0l-.5-.7-.3-.2-.3-.3-.8-.4-.7-.2H45.7l-.8.4-.6.5-.5.7h0l-.4.7-.2.7V68.7l.2.7.4.8.3.3.2.3.6.5.8.4h.1l.6.2h1.7l.7-.2.8-.4L50,71l.2-.2.2-.3.3-.3Z"/><polygon class="cls-5" points="87.5 4.7 87.5 4.6 87.5 4.5 87.9 4.5 88.2 4.5 88.5 4.4 88.8 4.2 88.9 4.3 88.9 4.4 88.9 4.4 89.3 4.1 89.7 3.6 89.9 3.1 90 2.4 90 1.8 89.8 1.3 89.4 0.8 88.9 0.4 88.4 0.1 87.8 0 87.7 0 88.3 0.1 87.7 0 87.6 0 87.6 0 87.6 0 87.1 0.1 86.6 0.3 86.6 0.3 86.1 0.6 85.7 1.1 85.4 1.7 85.3 2.3 85.4 2.9 85.6 3.5 85.9 4 86.4 4.4 87 4.6 87.5 4.7 87.5 4.7 87.5 4.7"/><polygon class="cls-4" points="126.4 74.9 125.6 73.7 124.5 72.6 123.2 71.6 121.7 70.7 121.4 70.6 121.6 71 121.7 71.1 122 71.8 122 72.6 121.9 73.3 121.6 74.1 121.1 74.7 120.4 75.3 119.6 75.7 118.7 76.1 117.7 76.2 116.7 76.3 115.7 76.2 114.8 75.9 113.9 75.6 113.1 75 112.5 74.4 112.1 73.8 111.8 73 111.7 72.3 111.9 71.5 112.2 70.8 112.6 70.3 112.6 70.1 112 70.3 110.9 71 110.1 71.9 109.6 72.9 106.7 82.1 106.5 83.3 106.7 84.5 107.2 85.7 108 86.9 110.8 86.1 112.3 81.3 112.3 81.3 113.3 81.1 114.3 81.1 115.4 81.2 116.5 81.4 117.5 81.8 118.4 82.4 119.2 83 119.9 83.6 118.3 88.5 120.2 90.8 121.5 90.3 122.6 89.6 123.5 88.7 124 87.6 126.9 78.4 127.1 77.3 126.9 76.1 126.4 74.9"/><polygon class="cls-4" points="22.3 30.8 21.7 30.7 21.7 30.7 21.6 30.7 21.7 30.7 27.7 4.7 27.6 4.7 27.6 4.7 27.6 4.6 27.6 4.5 27.3 4.5 26.9 4.5 26.6 4.4 26.3 4.2 26.3 4.3 26.3 4.4 26.3 4.4 20.3 30.4 19.9 30.3 19.8 30.3 22.1 30.8 22.3 30.8"/><polygon class="cls-7" points="19.2 43.5 19.3 42.8 19.4 42 19.6 41 19.8 39.9 20.1 38.6 17.7 38.1 17.4 39.3 17.2 40.5 17 41.5 16.9 42.3 16.8 42.9 16.8 43.3 16.8 43.4 19.2 44 19.2 43.8 19.2 43.5"/><polygon class="cls-6" points="20.4 37.3 20.7 36 21 34.8 21.3 33.6 21.6 32.6 21.8 31.8 22 31.2 22.1 30.8 19.8 30.3 19.6 30.7 19.4 31.3 19.2 32.1 18.9 33.1 18.6 34.2 18.3 35.5 18 36.8 17.7 38.1 20.1 38.6 20.4 37.3"/><path class="cls-9" d="M43.9,125.1v3.2h3.5v-3.2Z"/><path class="cls-10" d="M67.8,128.3v-4.9h-.3l-.6.4h0v13.3h.9v-5.6h3.5v1.8h5.2v-1.8h1.9v-3.2Z"/><path class="cls-3" d="M71.3,128.3h5.2V121H71.3Z"/><path class="cls-9" d="M76.5,128.3h1.9v-3.2H76.5Z"/><path class="cls-9" d="M67.8,125.1v3.2h3.5v-3.2Z"/><polygon class="cls-5" points="26.3 4.3 26.3 4.2 26.6 4.4 26.9 4.5 27.3 4.5 27.6 4.5 27.6 4.6 27.6 4.7 27.6 4.7 27.7 4.7 28.2 4.6 28.7 4.4 29.2 4 29.5 3.5 29.8 2.9 29.8 2.3 29.7 1.7 29.5 1.1 29.1 0.6 28.6 0.3 28.5 0.3 28 0.1 27.6 0 27.6 0 27.5 0 27.4 0 27.4 0 27.4 0 26.8 0.1 26.2 0.4 25.7 0.8 25.4 1.3 25.2 1.8 25.1 2.4 25.2 3.1 25.5 3.6 25.9 4.1 26.3 4.4 26.3 4.4 26.3 4.3"/><polygon class="cls-10" points="76.5 93 71.3 94.6 71.3 95.1 71.3 95.3 71.3 95.5 71.3 121 76.5 121 76.5 94.1 76.5 93.6 76.5 93"/><polygon class="cls-10" points="43.9 95.5 43.9 95.3 43.9 95.1 43.9 94.6 38.7 93 38.7 93.6 38.7 94.1 38.7 121 43.9 121 43.9 95.5"/><polygon class="cls-4" points="38.7 93 43.9 94.6 43.9 95.1 43.9 95.3 43.9 95.5 49.2 96.6 49.5 96.6 49.5 96.5 49.6 96 49.6 95.9 49.5 95.8 49.2 95.6 48.8 95.5 48.2 95.3 47.5 95.2 46.8 95.1 46.1 95.1 38.2 92.7 35.5 91.3 34.7 90.9 34 90.7 33.4 90.5 33.1 90.5 33 90.5 32.7 90.4 32.6 90.4 32.6 91.5 34.7 92.7 38.7 94.1 38.7 93.6 38.7 93"/><path class="cls-9" d="M38.7,125.1H36.8v3.2h1.9Z"/><path class="cls-7" d="M25.2,82.1,26.3,86l3.2,3.6,3.1,1.9V90.4h.8l.6.2.7.2.8.4,2.7,1.4,7.9,2.4h2.1l.6.2h.4l.3.2h.1v.5h0l8.1.5,8.1-.5h0V96h.1l.3-.2h.4l.6-.2h2.1L77,92.7l2.7-1.4.8-.4.7-.2.6-.2h.8v1.1l3.1-1.9L88.9,86,90,82.1Z"/><polygon class="cls-4" points="82.5 90.4 82.2 90.5 82.1 90.5 81.8 90.5 81.2 90.7 80.5 90.9 79.7 91.3 77 92.7 69.1 95.1 68.4 95.1 67.7 95.2 67 95.3 66.4 95.5 66 95.6 65.7 95.8 65.6 95.9 65.6 96 65.7 96.5 65.7 96.6 66 96.6 71.3 95.5 71.3 95.3 71.3 95.1 71.3 94.6 76.5 93 76.5 93.6 76.5 94.1 80.5 92.7 82.6 91.5 82.6 90.4 82.5 90.4"/><path class="cls-4" d="M14.9,84.1l-.2.5-.5.5-.6.5-.8.4-.8.4-.9.4-1,.3-1,.2H6.6l-.7-.2-.4-.3-.3-.3.4,1.4-.4.5-.7,1.4-.4,1.6v7.1l.3,1.5.6,1.5,1,1.4,1.2,1.2,1.4.9,1.6.7,1.2-3V97.2l-1-.4-.9-.6-.8-.7-.2-.3.5-.6.8-.7,1-.5,1-.4h2.2l1.1.2,1,.4.9.6.7.7.6.9.2.5v3.3l3.3,1,.4-1.6v-7l-.3-1.6-.6-1.5-.9-1.4-1.2-1.1-1.5-1L16,84.7l-.7-.2-.4-1.3v.9ZM6.3,90.2h0v0Z"/><path class="cls-7" d="M48.3,102.8v-.6l-.8,1-.4,1.2-.2,1.3v17.2h.2l.3.3h.3l.6.4Z"/><polygon class="cls-4" points="95.4 30.3 95.3 30.3 94.8 30.4 88.9 4.4 88.9 4.4 88.9 4.3 88.8 4.2 88.5 4.4 88.2 4.5 87.9 4.5 87.5 4.5 87.5 4.6 87.5 4.7 87.5 4.7 87.5 4.7 93.4 30.7 92.9 30.8 93 30.8 95.4 30.3"/><polygon class="cls-7" points="95.3 39.9 95.5 41 95.7 42 95.9 42.8 95.9 43.5 96 43.8 96 43.9 96 43.9 96 44 96 44 98.3 43.4 98.4 43.3 98.3 42.9 98.3 42.3 98.1 41.5 97.9 40.5 97.7 39.3 97.4 38.1 95 38.6 95.3 39.9"/><polygon class="cls-6" points="93.1 31.2 93.3 31.8 93.6 32.6 93.9 33.6 94.1 34.8 94.4 36 94.8 37.3 95 38.6 97.4 38.1 97.1 36.8 96.8 35.5 96.5 34.2 96.2 33.1 96 32.1 95.7 31.3 95.5 30.7 95.4 30.3 93 30.8 93.1 31.2"/><path class="cls-10" d="M48.3,124.2v-.4h0l-.6-.4h-.3v4.9H36.8v3.2h1.9v1.8h5.2v-1.8h3.5v5.6h.9Z"/><path class="cls-11" d="M66.9,124.2v-.4h-.1l-.2.2h-.8l-.9.4h0l-.6.2h-.6l-.8.2v27.6H64l.9-.4.9-.7.6-.8.4-1V124.2Z"/><path class="cls-11" d="M52.3,125.5l-.8-.2h-.6l-.6-.2h0l-.9-.4h-.8l-.2-.2h-.1v26.3l.4,1,.6.8.9.7.9.4h1.1Z"/><path class="cls-12" d="M53.3,125.8h-.1l-.9-.3v27.6h1Z"/><path class="cls-12" d="M62.9,125.5l-.9.3h-.2v27.3h1.1Z"/><path class="cls-11" d="M61.8,125.8l-2,.4h-.5v26.9h2.5Z"/><path class="cls-11" d="M56,126.2h-.6l-2.1-.4v27.3H56Z"/><path class="cls-12" d="M59.3,126.2H56v26.9h3.3Z"/><polygon class="cls-13" points="20.7 37.3 20.9 37.3 21.4 37.3 22.3 37.4 23.5 37.5 25 37.7 26.8 38 27.4 38.1 28.9 38.2 31.4 38.4 34 38.6 36.9 39 38.9 39.2 40 39.2 43.3 39.4 46.7 39.7 48.8 39.8 50.3 39.8 53.9 39.9 57.6 40 61.3 39.9 64.9 39.8 66.4 39.8 68.5 39.7 71.9 39.4 75.2 39.2 76.3 39.2 78.3 39 81.2 38.6 83.9 38.4 86.3 38.2 87.8 38.1 88.4 38 90.2 37.7 91.7 37.5 92.9 37.4 93.8 37.3 94.3 37.3 94.4 37.3 94.2 36.1 94.1 35.8 93.4 34.4 89.2 24.6 83.3 15.9 77.5 11.1 72.2 8.7 67.5 7.5 67.4 7.5 67.3 7.5 64.3 7.2 67.1 7.5 63.2 7.1 64.3 7.2 67.4 7.5 66.2 7.4 63.4 7.1 57.6 6.9 51.8 7.1 49 7.4 47.8 7.5 50.9 7.2 52 7.1 48.2 7.5 50.9 7.2 47.9 7.5 47.8 7.5 47.7 7.5 43 8.7 37.7 11.1 31.9 15.9 26 24.6 21.6 34.6 21 36.1 20.7 37.3"/></svg>