<svg id="Layer_1" data-name="Layer 1" xmlns="http://www.w3.org/2000/svg" viewBox="0 0 92.9 153.1"><defs><style>.cls-1{fill:#ededf4;}.cls-2{fill:none;}.cls-3{fill:#b5b5c1;}.cls-4{fill:#7b7a88;}.cls-5{fill:#9399a8;}.cls-6{fill:#43434b;}.cls-7{fill:#5e5c6a;}.cls-8{fill:#d9d9df;}.cls-9{fill:#4b3a2d;}.cls-10{fill:#6d5c46;}.cls-11{fill:#2affff;}.cls-12{fill:#46bbed;}.cls-13{fill:#54d9ff;opacity:0.5;}</style></defs><rect class="cls-1" x="-203.1" y="-395.6" width="1000" height="800"/><polygon class="cls-2" points="57.5 54.3 57.5 54.3 57.6 53.3 57.6 53.3 57.5 54.3"/><polygon class="cls-2" points="15.4 87.4 15.4 87.4 15.4 87.4 15.3 87.6 15.4 87.4"/><polygon class="cls-2" points="21 79.3 21.5 79.4 21.5 79.4 21 79.3"/><polygon class="cls-2" points="14.6 75.2 14.6 75.2 14.6 75.2 14.6 75.2"/><polygon class="cls-2" points="49.9 59.3 49.9 59.4 50 59.3 49.9 59.3"/><polygon class="cls-2" points="54.3 57.2 54.4 57.2 55.1 56.8 55 56.8 54.3 57.2"/><polygon class="cls-2" points="56.7 60.1 57.9 59.1 57.9 59.1 56.7 60.1"/><polygon class="cls-2" points="60.1 55.1 60.1 54.8 60.2 53.5 60.2 53.5 60.1 55 60.1 55.1"/><polygon class="cls-2" points="55.3 55.3 55.3 55.3 55.3 55.2 55.3 55.3"/><polygon class="cls-3" points="57.5 52.3 57.2 51.3 56.7 50.4 56 49.6 55.2 48.9 54.3 48.4 53.3 48.1 52.3 48 51.2 48.1 50.3 48.4 49.3 48.9 48.5 49.6 47.9 50.4 47.5 51.1 47.7 51 48.3 50.7 48.7 50.5 49.5 50.1 50 49.8 50.4 49.6 50.5 49.6 51.3 49.3 52.1 49.1 52 49.1 52.8 49.2 52.9 49.1 53.8 49.3 54.5 49.6 55.2 50.1 55.8 50.7 56.2 51.4 56.5 52.2 56.7 53 56.7 53.9 56.5 54.7 56.2 55.5 55.7 56.2 55.1 56.8 54.4 57.2 54.3 57.2 54 57.4 53.6 57.6 53.4 57.7 52.6 58.1 51.9 58.5 52.3 58.5 53.3 58.4 54.3 58.1 55.2 57.7 56 57 56.7 56.2 57.2 55.3 57.5 54.3 57.6 53.3 57.5 52.3"/><polygon class="cls-4" points="54.3 57.2 55 56.8 55.1 56.8 55.7 56.2 56.2 55.5 56.5 54.7 56.7 53.9 56.7 53 56.5 52.2 56.2 51.4 55.8 50.7 55.2 50.1 54.5 49.6 53.8 49.3 52.9 49.1 52.8 49.2 52 49.1 52.1 49.1 51.3 49.3 50.5 49.6 50.4 49.6 50 49.8 49.5 50.1 48.7 50.5 48.3 50.7 49 50.4 49.8 50.3 50.7 50.3 51 50.3 51.5 50.4 52.3 50.7 53.1 51.2 53.8 51.7 54.4 52.4 54.8 53.1 55.1 53.8 55.3 54.6 55.3 55.2 55.3 55.3 55.1 56 54.7 56.6 54.2 57.2 53.6 57.6 54 57.4 54.3 57.2"/><polygon class="cls-4" points="35.7 60.3 36.2 60.5 36.8 60.7 37.5 61 38.3 61.4 38.9 61.7 39 61.8 39.1 61.7 39.9 62.1 40.7 62.5 41.5 62.9 42.1 63.3 42.7 63.6 43.1 63.9 43.4 64.1 43.5 64.2 43.5 64.3 43.8 63.9 44.4 63.5 45.4 62.7 46.6 61.8 46.8 61.7 48.2 60.7 48.3 60.6 48.6 60.5 48.7 60.4 48.9 60.3 49.2 60.1 49.5 59.9 49.6 59.8 49.6 59.8 49.8 59.6 49.9 59.4 49.9 59.3 49.9 59 49.6 58.5 49.2 58.1 48.6 57.6 48 57.1 47.2 56.6 47.1 56.5 46.4 56.1 45.5 55.7 44.6 55.4 43.8 55.2 43 55 42.7 55 42.3 54.9 41.8 55 41.3 55.1 40.6 55.6 40.2 55.9 38.5 57.3 36.9 58.7 36.6 58.9 35.1 60.2 35.3 60.2 35.7 60.3"/><polygon class="cls-5" points="30.1 66.2 30.5 66.4 31 66.7 31.6 67.1 32.3 67.4 33.1 67.8 33.8 68.2 34.6 68.5 34.6 68.5 34.7 68.6 35.4 68.9 36.1 69.2 36.7 69.4 37.2 69.6 37.5 69.7 37.8 69.7 37.8 69.7 39.1 68.3 40.7 66.7 40.7 66.7 42.3 65.3 43.5 64.3 43.5 64.2 43.4 64.1 43.1 63.9 42.7 63.6 42.1 63.3 41.5 62.9 40.7 62.5 39.9 62.1 39.1 61.7 39 61.8 38.9 61.7 38.3 61.4 37.5 61 36.8 60.7 36.2 60.5 35.7 60.3 35.3 60.2 35.1 60.2 34.7 60.6 33.5 61.8 33.2 62.1 32.9 62.5 31 64.5 30.1 65.6 29.8 65.9 29.9 66 30.1 66.2"/><polygon class="cls-5" points="24.9 73.7 25.2 74 25.6 74.3 26.2 74.7 26.8 75.1 27.5 75.5 28.3 75.9 29 76.2 29.8 76.5 30.5 76.7 31.1 76.9 31.6 77 32.1 77.1 32.3 77 32.5 76.9 32.9 76.1 34.4 74 34.4 74 35.2 72.9 35.1 73 34.8 73 34.4 72.9 33.9 72.8 33.3 72.6 32.6 72.3 31.8 72 31.1 71.7 30.3 71.3 29.6 70.9 28.9 70.5 28.3 70.1 27.9 69.8 27.5 69.5 27.4 69.4 27.4 69.3 27.3 69.2 27.3 69.2 26.4 70.5 25.7 71.6 25.1 72.6 24.7 73.2 24.7 73.4 24.9 73.7"/><path class="cls-3" d="M13.3,67.3h1.3v-.9L15,65l.2-.2.4-.2.9.4.5.7.7.7L19,68.6l.6,1.5.3.4.8,1.1,1.1,1.8,1.3,1.8.3.4h0l.7-1.3v-.2l.5-.9.4-.6.6-1,.7-1.1.9-1.3h.1l1.8-2.4.6-.8.3-.3.9-1.1,1.9-2,.3-.4.3-.3,1.2-1.2.4-.4,1.5-1.3.2-.2,1.7-1.4,1.7-1.4.4-.3.7-.5.7-.5,1.6-1.1.8-.5V51.9h0l.4-1.3.6-1.1.2-.3,1-1.2,1.2-1,.6-.3.7-.4,1.5-.5h3.1l1.5.5.8.4.6.3,1.2,1,1,1.2.2.3.5,1.1.5,1.4h0v1.6h0v1.6l-.5,1.5-.7,1.3-1,1.2-1.2,1h-.4l-1,.5-1.5.4-1.5.2h0l-1.6-.2-1.5-.4-.6-.3h-.4l-1.4,1h-.2l-1.2.9-1,.8-.6.4-.3.4-1.2,1-1.6,1.4h0l-1.6,1.6-1.3,1.4-.3.4-.2.2-.2.2-1.2,1.4-.6.9h-.1L34.4,74h0l-1.5,2.1-.4.8-.3.5h57l2.3-6.9,1.4-8.7-1-12.4-1.4-6.3H89.2l-.4-.2-1.3-.2-1.6-.2h-.8l-1.2-.3-2.3-.3-2.5-.2-2.8-.3h-3L70.1,41l-3.4-.2-3.5-.2h-5l-.3.5L57,42l-1,.8h0l-1.2.7-1.3.3-1.2.2h-.1l-1.3-.2-1.3-.3-1.1-.6h-.1l-1-.8-.8-1-.3-.5H41.4l-3.5.2-3.4.2-3.2.2h-3l-2.8.3-2.5.2-2.3.3-1.3.3h-.7l-1.6.2-1.3.2-.4.2H14.1l-1.5,6.3-.9,12.4.9,5.5h.7ZM88.5,47.2v-.8l.3-.6.3-.4h.7l.4.4V46l.2.4.3.8.4.9.3,1.1v2.5l.8,10.1-1,6.1-.2,1.2-.2,1.2v.2l-.4.9-.4.9-.4.8-.2.4-.2.2-.4.4h-.8l-.2-.3h0l-.2-.6v-.7h0V69.1l.2-1.2,1-6.1-.8-10.1V47.2Z"/><polygon class="cls-4" points="14.8 43.1 15.2 43.1 15.4 43.1 15.8 42.9 17.1 42.7 18.7 42.5 19.4 42.5 20.7 42.2 23 41.9 25.5 41.7 28.3 41.4 30.4 41.3 31.3 41.2 34.5 41 37.9 40.8 41.4 40.6 44.9 40.5 46.3 40.5 46 39.9 45.6 38.6 45.5 38.1 45.4 37.3 45.1 37.3 41.6 37.4 41.4 37.4 38.2 37.5 36.9 37.6 34.9 37.7 34 37.8 33.5 37.8 31.7 38 31.4 38 30.8 38.1 30.7 38.1 28.8 38.2 26 38.4 23.5 38.6 21.3 39 20.1 39.2 19.4 39.2 17.8 39.4 16.5 39.7 15.9 39.8 15.6 39.8 15 39.9 14.8 40 14.1 43.1 14.3 43.1 14.8 43.1"/><polygon class="cls-6" points="19.3 72.5 19.3 73.1 19.3 73.3 19.3 73.7 19.2 74.2 19 74.5 19 74.5 18.7 74.7 18.7 74.7 18.3 74.8 18 74.8 17.4 74.8 16.9 74.8 16.2 74.8 15.7 74.8 15.8 75.2 16.5 77.4 17.2 77.4 18.2 77.4 19.9 77.4 21.6 77.4 22.4 77.4 22.6 77.2 23.4 75.6 23.1 75.2 21.8 73.4 20.7 71.6 19.9 70.5 19.6 70.1 19 68.6 17.7 66.4 17 65.7 16.5 65 15.6 64.6 15.2 64.8 15 65 14.6 66.4 14.6 67.3 15.6 67.3 16.1 67.3 16.5 67.3 16.9 67.5 17.2 67.9 17.4 68.1 17.6 68.4 18 68.9 18.3 69.6 18.6 70.3 18.6 70.5 18.9 71 19.1 71.8 19.3 72.5"/><polygon class="cls-4" points="27.4 69.4 27.5 69.5 27.9 69.8 28.3 70.1 28.9 70.5 29.6 70.9 30.3 71.3 31.1 71.7 31.8 72 32.6 72.3 33.3 72.6 33.9 72.8 34.4 72.9 34.8 73 35.1 73 35.2 72.9 35.3 72.8 35.9 71.9 37.1 70.5 37.3 70.3 37.5 70.1 37.8 69.7 37.8 69.7 37.5 69.7 37.2 69.6 36.7 69.4 36.1 69.2 35.4 68.9 34.7 68.6 34.6 68.5 34.6 68.5 33.8 68.2 33.1 67.8 32.3 67.4 31.6 67.1 31 66.7 30.5 66.4 30.1 66.2 29.9 66 29.8 65.9 29.2 66.7 27.4 69.1 27.3 69.2 27.4 69.3 27.4 69.4"/><polygon class="cls-5" points="42.3 54.9 42.7 55 43 55 43.8 55.2 44.6 55.4 45.5 55.7 46.4 56.1 47.1 56.5 47.2 56.6 48 57.1 48.6 57.6 49.2 58.1 49.6 58.5 49.9 59 49.9 59.3 50 59.3 49.9 59.4 49.8 59.6 49.6 59.8 49.6 59.8 49.5 59.9 49.2 60.1 48.9 60.3 48.7 60.4 48.6 60.5 49.2 60.8 50.7 61.2 52.3 61.4 52.3 61.4 53.8 61.2 55.3 60.8 56.3 60.3 56.5 60.2 56.7 60.1 57.9 59.1 57.9 59.1 58.9 57.9 59.6 56.6 60.1 55.1 60.1 55 60.2 53.5 60.2 53.4 60 53.4 59.7 53.4 59.3 53.3 58.8 53.3 58.3 53.3 57.6 53.3 57.5 54.3 57.5 54.3 57.2 55.3 56.7 56.2 56 57 55.2 57.7 54.3 58.1 53.3 58.4 52.3 58.5 51.9 58.5 52.6 58.1 53.4 57.7 53.6 57.6 54.2 57.2 54.7 56.6 55.1 56 55.3 55.3 55.3 55.3 55.3 55.2 55.3 54.6 55.1 53.8 54.8 53.1 54.4 52.4 53.8 51.7 53.1 51.2 52.3 50.7 51.5 50.4 51 50.3 50.7 50.3 49.8 50.3 49 50.4 48.3 50.7 47.7 51 47.5 51.1 46.5 51.7 46.5 51.7 45.9 52.1 45.4 52.4 45.1 52.5 45 52.6 44.6 52.8 44.4 53 44.4 53 43.6 53.5 42 54.6 41.3 55.1 41.8 55 42.3 54.9"/><polygon class="cls-7" points="19.1 83.3 19.5 83.7 20 84.1 20.6 84.6 21.3 85.1 22.2 85.6 23.1 86.1 24 86.5 24.9 86.8 25.8 87.1 26.5 87.3 27.2 87.4 27.7 87.4 28.1 87.3 28.3 87.1 28.3 86.8 28.1 86.4 27.8 86.1 27.5 86.7 27.3 86.9 27 87 26.6 87 26 86.9 25.4 86.7 24.7 86.5 23.9 86.2 23.2 85.9 22.4 85.5 21.7 85.1 21.1 84.7 20.6 84.3 20.2 83.9 19.9 83.5 19.7 83.2 19.8 83 20.1 82.3 20.1 82.3 19.9 82.3 19.5 82.3 19.2 82.4 19 82.6 19 82.9 19.1 83.3"/><polygon class="cls-8" points="44.6 52.8 45 52.6 45.1 52.5 45.4 52.4 45.9 52.1 46.5 51.7 46.5 51.7 47.5 51.1 47.9 50.4 48.5 49.6 49.3 48.9 50.3 48.4 51.2 48.1 52.3 48 53.3 48.1 54.3 48.4 55.2 48.9 56 49.6 56.7 50.4 57.2 51.3 57.5 52.3 57.6 53.3 57.6 53.3 58.3 53.3 58.8 53.3 59.3 53.3 59.7 53.4 60 53.4 60.2 53.4 60.2 53.5 60.1 51.9 60.1 51.9 59.6 50.5 59.1 49.4 58.9 49.1 57.9 47.9 56.7 46.9 56.1 46.6 55.3 46.2 53.8 45.7 52.3 45.6 52.3 45.6 50.7 45.7 49.2 46.2 48.5 46.6 47.9 46.9 46.7 47.9 45.7 49.1 45.5 49.4 44.9 50.5 44.5 51.8 44.5 51.9 44.4 53 44.4 53 44.6 52.8"/><polygon class="cls-3" points="16.1 77.4 16.5 77.4 15.8 75.2 15.7 74.8 15.6 74.8 15.2 74.8 15 74.8 14.8 74.8 14.6 74.8 14.5 74.8 14.6 75.1 14.6 75.2 14.6 75.2 15.4 77.4 15.8 77.4 16.1 77.4"/><polygon class="cls-5" points="14.8 74.8 15 74.8 15.2 74.8 15.6 74.8 15.7 74.8 16.2 74.8 16.9 74.8 17.4 74.8 18 74.8 18.3 74.8 18.7 74.7 18.7 74.7 19 74.5 19 74.5 19.2 74.2 19.3 73.7 19.3 73.3 19.3 73.1 19.3 72.5 19.1 71.8 18.9 71 12.4 71 12.4 71.5 12.4 71.7 12.4 71.8 12.4 72.5 12.4 72.7 12.4 73.1 12.4 73.7 12.4 74.2 12.4 74.3 12.4 74.5 12.4 74.7 12.4 74.8 12.8 74.8 14.2 74.8 14.5 74.8 14.6 74.8 14.8 74.8"/><polygon class="cls-8" points="12.4 70.9 12.4 71 18.9 71 18.6 70.5 18.6 70.3 18.3 69.6 18 68.9 17.6 68.4 17.4 68.1 17.2 67.9 16.9 67.5 16.5 67.3 16.1 67.3 15.6 67.3 14.6 67.3 14.3 67.3 13.3 67.3 12.8 67.3 12.6 67.3 12.4 67.3 12.4 67.3 12.4 67.5 12.4 67.9 12.4 68.4 12.4 68.9 12.4 69.6 12.4 70.3 12.4 70.4 12.4 70.5 12.4 70.9"/><path class="cls-4" d="M32.2,77.4l.3-.5H31.1l-.6-.2-.7-.2-.8-.3-.7-.3-.8-.4-.7-.4-.6-.4-.6-.4-.4-.3-.3-.3-.2-.3v-.2l-.5.9v.2l-.7,1.3h0l-.8,1.6-.2.2h-7l1.8.6,1.5.6h.4l.8.3.8.2-.8,2.9h.3l1.3-2.7h.1v-.3h.1l.2-.4v.3l.3.4.4.4.5.4.6.4.7.4.8.4.8.3.7.3.7.2.7.2h1.4v.2h55l-.8-2.9,5.3-1.8Z"/><path class="cls-4" d="M88.4,49.2v2.5l.8,10.1-1,6.1L88,69.1v3.2h0v.7l.2.6h0l.2.3h.8l.4-.4.2-.2.2-.4.4-.8.4-.9.4-.9v-.2l.2-1.2.2-1.2,1-6.1-.8-10.1V49.2l-.3-1.1-.4-.9-.3-.8-.2-.4v-.2l-.4-.4h-.7l-.3.4-.3.6v2.8Zm1.5-1.6h.4l.2.2.3.4.2.3v.2l.2.7h0v2.4l.7,10-.9,5.9-.2,1v.7l-.2.8V71l-.2.3-.3.4-.3.2h-.5v-.2h0v-3l.2-1,.9-5.9-.8-10V49.4h0V48.2l.2-.4h.2Z"/><polygon class="cls-4" points="73.1 38 72.9 38 71.1 37.8 70.6 37.8 69.7 37.7 67.7 37.6 66.4 37.5 63.2 37.4 63 37.4 59.5 37.3 59.1 37.3 59.1 37.3 58.9 38.6 58.5 39.9 58.2 40.5 59.6 40.5 63.2 40.6 66.7 40.8 70.1 41 73.3 41.2 74.2 41.3 76.3 41.4 79.1 41.7 81.6 41.9 83.9 42.2 85.1 42.5 85.9 42.5 87.5 42.7 88.8 42.9 89.2 43.1 89.4 43.1 89.7 43.1 90.3 43.1 90.5 43.1 89.8 40 89.6 39.9 89 39.8 88.6 39.8 88.1 39.7 86.8 39.4 85.2 39.2 84.5 39.2 83.3 39 81 38.6 78.5 38.4 75.8 38.2 73.9 38.1 73.7 38.1 73.1 38"/><polygon class="cls-6" points="89.5 48.2 89.4 48.7 89.4 49.4 89.4 49.4 89.3 50.1 89.3 50.8 89.3 51.8 90.1 61.8 89.2 67.7 89 68.7 89 69.4 89 70.2 89.1 70.5 89 70.8 89.1 71.3 89.2 71.7 89.2 71.7 89.3 71.9 89.4 71.9 89.5 72 89.6 72 89.8 71.9 90.1 71.7 90.4 71.3 90.6 71 90.7 70.8 90.8 70.5 90.9 70.2 91.1 69.4 91.2 68.7 91.4 67.7 92.3 61.8 91.6 51.8 91.5 50.8 91.4 50.1 91.3 49.4 91.3 49.4 91.1 48.7 91 48.5 90.8 48.2 90.5 47.8 90.3 47.6 90.1 47.5 89.9 47.6 89.8 47.7 89.7 47.8 89.5 48.2"/><path class="cls-6" d="M31.4,38h.3l1.8-.2H45.4V35.5l.2-.5.2-.8.5-.9.2-.2.8-1h0l1.1-.8,1.1-.6,1.3-.4h2.7l1.2.4,1.2.6,1,.8h.1l.8,1,.2.5.4.6.2.8.2.5v1.8h12l1.8.2h1v-.3l.7-2.8.3-2.9V29.2l-.6-2.8-1-2.7-1.4-2.3-.8-.9H53.2V16.3h0V4.5h0V4.2H51.8l-.2,11.5h0v.3h0v4H33.5l-.8.9-1.4,2.3-1,2.7-.6,2.8-.2,2.9.3,2.9.8,2.8v.3h.7Zm-.9-6.6V29.2h0L31,28l.5-1,.3-.6.2-.2.7-.8.6-.5.5-.3H34l.9-.2.8.2.7.3.5.5H37l.5.7v.2l.5.6.4,1v1.1h0v1.1l-.3,1.1-.3.7v.4l-1.6.3-3.6.9-1.3.7-.4-.9-.4-1V31.4Z"/><polygon class="cls-3" points="51.8 4.4 51.8 4.3 51.8 4.3 52.2 4.4 52.5 4.4 52.8 4.4 53.2 4.3 53.4 4.2 53.4 4.4 53.4 4.5 53.4 4.5 53.7 4.5 54.1 4.1 54.5 3.7 54.6 3.5 54.9 3 54.9 2.4 54.9 1.8 54.6 1.2 54.3 0.7 54.1 0.6 53.7 0.3 53.2 0.1 53 0 52.8 0 52.6 0 52.3 0 52.2 0 51.7 0.2 51.5 0.3 51 0.6 50.7 1 50.5 1.2 50.3 1.8 50.2 2.4 50.3 3 50.5 3.5 50.9 4 51.1 4.1 51.5 4.5 51.8 4.6 51.8 4.5 51.8 4.4"/><polygon class="cls-8" points="53.3 16.2 53.3 16.3 53.3 16.5 53.3 16.9 53.3 17.9 53.3 18.4 56.6 18.4 60.5 18.4 63.9 18.4 66.6 18.4 68.2 18.4 68.8 18.4 68.1 17.9 65.9 16.9 63.5 16.4 62.6 16.3 59.1 16.1 58.2 16.1 55.7 16.1 53.3 16.1 53.3 16.1 53.3 16.2"/><polygon class="cls-3" points="66.6 18.4 63.9 18.4 60.5 18.4 56.6 18.4 53.3 18.4 53.2 19.4 53.2 20.5 57.2 20.5 61.7 20.5 65.6 20.5 68.6 20.5 70.4 20.5 71.1 20.5 70.2 19.4 68.8 18.4 68.2 18.4 66.6 18.4"/><polygon class="cls-7" points="10 98.6 10.6 97.4 11.3 96.1 12 94.6 12.8 93 13.5 91.4 14.3 89.8 15 88.4 15.6 87.1 16.1 86 16.5 85.1 16.8 84.5 16.9 84.3 16.8 84.3 16.7 84.7 16.3 85.3 15.9 86.3 15.3 87.4 14.6 88.8 13.9 90.3 12.4 93.5 11.6 95 12.1 94 12.6 93.1 13.1 92.1 13.6 91.1 14 90.2 14.4 89.3 14.8 88.6 15 88 15.2 87.6 15.4 87.4 15.4 87.4 15.4 87.4 15.3 87.6 15.3 87.6 15.1 87.9 15.1 88.1 14.9 88.4 14.8 88.6 14.6 89.1 14.5 89.4 14.2 89.9 14.1 90.2 13.8 90.8 13.6 91.1 13.2 92.1 12.7 93.1 12.2 94.1 11.9 94.7 11.7 95.1 11.5 95.5 11.2 96.2 10.9 96.8 10.7 97.2 9.3 100.2 9.6 99.5 10 98.6"/><polygon class="cls-4" points="62.3 95.6 62.4 95.4 62.4 95.1 62.8 93 60.1 93.6 52.3 94.1 44.5 93.6 41.7 93 42.1 95.1 42.2 95.4 42.3 95.7 42.3 96.1 42.4 96.3 43.6 102.4 43.6 102.6 43.7 103 43.9 103.8 44.1 104.8 44.3 105.9 44.5 107.1 47.3 121 47.3 128.3 47.4 129.3 47.6 130.2 48.1 131.1 48.7 131.9 49.5 132.5 50.1 132.8 49.1 132.6 47.6 132 46.1 131.2 44.8 130.2 43.6 129.1 43.5 128.9 43.6 130 44.1 131.7 45 133.2 46 134.5 47.4 135.6 48.9 136.4 50.6 136.9 52.3 137.1 54 136.9 55.7 136.4 57.2 135.6 58.5 134.5 59.6 133.2 60.4 131.7 60.9 130 61 128.9 60.9 129.1 59.8 130.2 58.4 131.2 57 132 55.5 132.6 54.5 132.8 55.1 132.5 55.8 131.9 56.5 131.1 56.9 130.2 57.2 129.3 57.3 128.3 57.3 121 60 107.1 60.3 105.9 60.5 104.8 60.7 103.8 60.9 103 61 102.6 61 102.4 62.2 96.3 62.2 96.1 62.3 95.6"/><polygon class="cls-5" points="42.3 95.7 38.5 95.1 33.6 93.6 32.4 93.2 30.9 92.7 27.8 90.8 27.5 91.4 27.5 91.5 29.4 92.7 36.1 95.1 42.4 96.3 42.3 96.1 42.3 95.7"/><polygon class="cls-9" points="39.2 125.7 38.9 128.3 39.2 130.9 39.9 133.4 41.2 135.7 42.8 137.7 44.9 139.4 47.2 140.6 49.7 141.4 52.3 141.7 54.9 141.4 57.4 140.6 59.7 139.4 61.7 137.7 63.4 135.7 64.6 133.4 65.4 130.9 65.7 128.3 65.4 125.7 64.8 123.8 61 128.9 60.9 130 60.4 131.7 59.6 133.2 58.5 134.5 57.2 135.6 55.7 136.4 54 136.9 52.3 137.1 50.6 136.9 48.9 136.4 47.4 135.6 46 134.5 45 133.2 44.1 131.7 43.6 130 43.5 128.9 39.7 123.8 39.2 125.7"/><polygon class="cls-3" points="60.9 103 60.7 103.8 62.6 104.4 67.3 107.1 71.4 110.6 74.8 115 77.3 119.9 78.4 123.8 79.1 124.2 79.3 124.3 79.9 124.8 80 125 80.1 125.1 80.1 125.3 80.1 125 78.5 119.4 75.9 114.2 72.4 109.6 68.1 105.9 63.1 103.1 61 102.4 61 102.6 60.9 103"/><polygon class="cls-5" points="28.5 123 28.7 123 28.7 123 29.3 123 29.8 122.9 30.2 122.9 31.2 122.9 32.3 122.9 39 122.9 39.7 123.8 43.5 128.9 43.6 129.1 44.8 130.2 46.1 131.2 47.6 132 49.1 132.6 50.1 132.8 49.5 132.5 48.7 131.9 48.1 131.1 47.6 130.2 47.4 129.3 47.3 128.3 47.3 121 44.5 107.1 44.3 105.9 44.1 104.8 43.9 103.8 41.9 104.4 37.3 107.1 33.2 110.6 29.8 115 27.3 119.9 26.2 123.8 27.3 123.3 28.1 123.1 28.2 123.1 28.5 123"/><polygon class="cls-3" points="29.8 115 33.2 110.6 37.3 107.1 41.9 104.4 43.9 103.8 43.7 103 43.6 102.6 43.6 102.4 41.4 103.1 36.5 105.9 32.2 109.6 28.7 114.2 26.1 119.4 24.5 125 24.4 125.3 24.5 125.1 24.5 125 24.7 124.8 25.3 124.3 25.5 124.2 26.2 123.8 27.3 119.9 29.8 115"/><polygon class="cls-5" points="74.8 115 71.4 110.6 67.3 107.1 62.6 104.4 60.7 103.8 60.5 104.8 60.3 105.9 60 107.1 57.3 121 57.3 128.3 57.2 129.3 56.9 130.2 56.5 131.1 55.8 131.9 55.1 132.5 54.5 132.8 55.5 132.6 57 132 58.4 131.2 59.8 130.2 60.9 129.1 61 128.9 64.8 123.8 65.5 122.9 72.3 122.9 73.4 122.9 74.4 122.9 74.8 122.9 75.2 123 75.9 123 75.9 123 76 123 76.4 123.1 76.5 123.1 77.3 123.3 78.4 123.8 77.3 119.9 74.8 115"/><path class="cls-3" d="M46.5,40.5l.8,1,1,.8,1.2.6,1.3.4h2.6l1.3-.4,1.2-.6,1-.8.9-1,.6-1.2.4-1.2.2-1.3V35.5l-.2-.5-.2-.8-.4-.6-.2-.5-.8-1H57l-1-.8-1.2-.6-1.2-.4H50.9l-1.3.4-1.1.6-1.1.8h0l-.8,1-.2.2-.5.9-.2.8-.2.5v2.6l.4,1.2Zm1.3-4.6.3-.8.4-.7.6-.7.7-.5.7-.4.9-.2h1.7l.8.2.8.4.6.5.6.7.4.7.2.8v1.7l-.3.8-.4.8-.5.6-.7.6-.8.4L53,41H51.3l-.9-.2-.7-.4-.7-.6-.5-.6-.4-.8-.3-.8V35.9Z"/><polygon class="cls-10" points="76 123 75.9 123 75.9 123 75.2 123 74.8 122.9 74.4 122.9 73.4 122.9 72.3 122.9 65.5 122.9 64.8 123.8 65.4 125.7 65.7 128.3 65.4 130.9 64.6 133.4 63.4 135.7 61.7 137.7 59.7 139.4 57.4 140.6 54.9 141.4 52.3 141.7 49.7 141.4 47.2 140.6 44.9 139.4 42.8 137.7 41.2 135.7 39.9 133.4 39.2 130.9 38.9 128.3 39.2 125.7 39.7 123.8 39 122.9 32.3 122.9 31.2 122.9 30.2 122.9 29.8 122.9 29.3 123 28.7 123 28.7 123 28.5 123 28.2 123.1 28.1 123.1 28 123.5 27.5 128.3 28 133.1 29.4 137.8 31.7 142.1 34.8 145.8 38.5 148.9 42.8 151.2 47.4 152.6 52.3 153.1 57.1 152.6 61.8 151.2 66.1 148.9 69.8 145.8 72.9 142.1 75.2 137.8 76.6 133.1 77.1 128.3 76.6 123.5 76.5 123.1 76.4 123.1 76 123"/><polygon class="cls-6" points="8.2 90.8 9.2 90.3 10.4 89.6 11.7 88.7 13.1 87.6 14.4 86.5 15.7 85.3 16.9 84.1 18 82.9 18.8 81.8 19.5 80.8 19.9 80 20 79.3 19.9 79 19.1 78.7 18.7 78.6 17.2 78 15.4 77.4 14.6 75.2 14.6 75.2 14.6 75.2 14.6 75.1 14.5 74.8 14.2 74.8 12.8 74.8 12.4 74.8 12.4 74.7 12.4 74.5 12.4 74.3 12.4 74.2 12.4 73.7 12.4 73.1 12.4 72.7 12.4 72.5 12.4 71.8 12.4 71.7 12.4 71.5 12.4 71 12.4 70.9 12.4 70.5 12.4 70.4 11.7 69.7 11.3 69.5 10.7 69.5 9.8 69.8 8.8 70.3 7.6 71 6.3 71.9 4.9 72.9 3.6 74.1 2.3 75.3 1.1 76.5 0 77.7 1.7 79.5 0 81.6 8.2 90.8"/><polygon class="cls-5" points="58.9 38.6 58.8 38.1 58.4 39.3 57.8 40.5 56.9 41.5 55.9 42.3 54.7 42.9 53.4 43.3 52.1 43.4 50.8 43.3 49.5 42.9 48.3 42.3 47.3 41.5 46.5 40.5 45.9 39.3 45.5 38.1 45.6 38.6 46 39.9 46.3 40.5 46.6 41 47.4 42 48.4 42.8 48.5 42.9 49.6 43.5 50.9 43.8 52.2 44 52.3 44 53.5 43.8 54.8 43.5 56 42.8 56 42.8 57 42 57.9 41 58.2 40.5 58.5 39.9 58.9 38.6"/><polygon class="cls-8" points="58.8 38.1 58.9 38.6 59.1 37.3 59.1 37.3 59 36 58.9 35.5 59 36.8 58.8 38.1"/><polygon class="cls-11" points="31.4 32.9 32.6 32.3 33.2 32.1 36.2 31.4 36.5 31.3 36.6 31.1 36.8 30.3 36.8 29.4 36.7 29.2 36.7 28.6 36.5 28 36.4 27.8 36.2 27.1 35.8 26.6 35.6 26.4 35.4 26.1 34.9 25.9 34.2 25.8 33.5 25.9 33.4 25.9 33 26.1 32.7 26.4 32.5 26.6 32.1 27.1 31.8 27.8 31.4 28.6 31.2 29.2 31.2 29.4 31.1 30.3 31.1 31.1 31.1 32 31.2 32.1 31.4 32.7 31.4 32.9"/><path class="cls-5" d="M32,82.1l1.2,1.8L34.4,86l4.2,2.6,1.6,1,1.7.6,10.4,1.3,8.6-1.1h2l.5.2.3.2v4.2h-.4l-.5.2h-.6v.7l6.3-1.2,6.7-2.4,5.2-3.1L83.6,86l1.1-3.9Z"/><polygon class="cls-3" points="36 20.5 39 20.5 42.9 20.5 47.4 20.5 51.6 20.5 51.6 19.4 51.6 18.4 48 18.4 44 18.4 40.6 18.4 38 18.4 36.4 18.4 35.8 18.4 34.4 19.4 33.5 20.5 34.1 20.5 36 20.5"/><polygon class="cls-8" points="38 18.4 40.6 18.4 44 18.4 48 18.4 51.6 18.4 51.6 17.9 51.6 16.9 51.6 16.5 51.6 16.4 51.6 16.1 51.6 16.1 51.6 16.1 48.9 16.1 46.4 16.1 45.5 16.1 42 16.3 41.1 16.4 38.6 16.9 36.4 17.9 35.8 18.4 36.4 18.4 38 18.4"/><path class="cls-12" d="M31,33.5l.4.9,1.3-.7,3.6-.9,1.6-.3v-.4l.3-.7.3-1.1V29.2h0V28l-.4-1-.5-.6v-.2l-.5-.7h-.1l-.5-.5-.7-.3-.8-.2-.9.2h-.2l-.5.3-.6.5-.7.8-.2.2-.3.6L31,28l-.4,1.1h0v3.3Zm.1-1.5V29.2l.2-.6.4-.8.3-.7.4-.5.2-.2.3-.3.4-.2h1.5l.5.2.2.3.2.2.4.5.2.7V28l.2.6v1.7l-.2.8v.2h-.3l-3,.7-.6.2-1.2.6v-.2l-.2-.6Z"/><polygon class="cls-6" points="27.8 90.8 30.9 92.7 32.4 93.2 33.6 93.6 38.5 95.1 42.3 95.7 42.2 95.4 42.1 95.1 41.7 93 44.5 93.6 52.3 94.1 60.1 93.6 62.8 93 62.4 95.1 62.4 95.4 62.3 95.6 62.9 95.5 63.4 95.3 63.7 95.2 63.8 95.1 63.8 95.1 63.8 92.7 63.8 91.3 63.7 90.9 63.4 90.7 62.9 90.5 62.4 90.5 62.3 90.5 61.6 90.4 60.9 90.4 52.3 91.5 41.9 90.2 40.2 89.6 38.6 88.6 34.4 86 33.2 83.9 32 82.1 29.7 82.1 29.5 82.6 27.8 86 27.8 86.1 28.1 86.4 28.3 86.8 28.3 87.1 28.1 87.3 27.7 87.4 27.2 87.4 26.5 87.3 25.8 87.1 24.9 86.8 24 86.5 23.1 86.1 22.2 85.6 21.3 85.1 20.6 84.6 20 84.1 19.5 83.7 19.1 83.3 19 82.9 19 82.6 18 84.8 16.9 84.3 16.8 84.5 16.5 85.1 16.1 86 15.6 87.1 15 88.4 14.3 89.8 13.5 91.4 12.8 93 12 94.6 11.3 96.1 10.6 97.4 10 98.6 9.6 99.5 9.3 100.2 20.7 105.7 21 105 21.5 104.1 22 102.9 22.7 101.5 23.4 100 24.2 98.5 24.9 96.9 25.7 95.3 26.4 93.8 27 92.5 27.5 91.5 27.5 91.4 27.8 90.8"/><polygon class="cls-5" points="20.1 82.3 19.8 83 19.7 83.2 19.9 83.5 20.2 83.9 20.6 84.3 21.1 84.7 21.7 85.1 22.4 85.5 23.2 85.9 23.9 86.2 24.7 86.5 25.4 86.7 26 86.9 26.6 87 27 87 27.3 86.9 27.5 86.7 27.8 86.1 27.8 86 29.5 82.6 29.7 82.1 29.8 81.9 29.7 82 29.3 82.1 28.9 82.1 28.4 82.1 27.7 81.9 27 81.7 26.3 81.4 25.5 81.1 24.7 80.7 24 80.3 23.4 79.9 22.9 79.5 22.5 79.1 22.2 78.7 22.1 78.4 22.1 78.2 22 78.4 21.8 78.8 21.7 78.9 21.6 79.2 21.5 79.3 21.5 79.4 21.5 79.4 21.5 79.4 20.2 82.1 19.9 82.1 19.9 82.3 20.1 82.3 20.1 82.3"/><polygon class="cls-6" points="12.2 94.1 12.7 93.1 13.2 92.1 13.6 91.1 13.8 90.8 14.1 90.2 14.2 89.9 14.5 89.4 14.6 89.1 14.8 88.6 14.9 88.4 15.1 88.1 15.1 87.9 15.3 87.6 15.3 87.6 15.4 87.4 15.2 87.6 15 88 14.8 88.6 14.4 89.3 14 90.2 13.6 91.1 13.1 92.1 12.6 93.1 12.1 94 11.6 95 11.7 95.1 11.9 94.7 12.2 94.1"/><polygon class="cls-11" points="48.1 38.4 48.5 39.2 49 39.8 49.7 40.4 50.4 40.8 51.3 41 52.1 41.1 53 41 53.8 40.8 54.6 40.4 55.3 39.8 55.8 39.2 56.2 38.4 56.5 37.6 56.6 36.8 56.5 35.9 56.3 35.1 55.9 34.4 55.3 33.7 54.7 33.2 53.9 32.8 53.1 32.6 52.2 32.5 51.4 32.6 50.5 32.8 49.8 33.2 49.1 33.7 48.5 34.4 48.1 35.1 47.8 35.9 47.7 36.8 47.8 37.6 48.1 38.4"/><polygon class="cls-13" points="15.6 39.8 15.9 39.8 16.5 39.7 17.8 39.4 19.4 39.2 20.1 39.2 21.3 39 23.5 38.6 26 38.4 28.8 38.2 30.8 38.1 31.7 38 34.9 37.7 38.2 37.5 41.6 37.4 45.1 37.3 45.4 37.3 45.4 36.8 45.4 36.1 45.5 35.5 45.9 34.2 46.6 33.1 47.4 32.1 48.5 31.3 48.9 31 49.6 30.7 50.9 30.3 51.5 30.3 51.5 24.6 51.6 15.9 51.7 11.1 51.7 8.7 51.7 7.5 51.7 7.4 51.7 7.1 51.7 7.1 51.7 7 51.7 7 51.7 6.9 49.5 7.1 51.7 6.9 48.6 7.1 51.7 6.9 46.5 7.1 43.7 7.4 42.5 7.5 45.6 7.2 46.7 7.1 42.8 7.5 45.6 7.2 42.6 7.5 42.5 7.5 42.4 7.5 37.7 8.7 32.4 11.1 26.6 15.9 20.7 24.6 15.7 36.1 14.8 40 15 39.9 15.6 39.8"/><polygon class="cls-13" points="53.4 6.9 57.5 7.1 53.4 6.9 53.4 6.9 53.4 6.9 56.8 7.1 53.4 7 53.4 7 53.4 7 53.4 7.1 53.6 7.2 53.4 7.2 53.4 7.2 53.4 7.4 53.4 7.5 53.4 7.9 53.4 8.7 53.3 11.1 53.3 15.9 53.2 24.6 53.1 30.3 53.6 30.3 54.8 30.7 55.7 31.1 56 31.3 57 32.1 57.9 33.1 58.5 34.2 58.9 35.5 59 36 59 36.1 59.1 37.3 59.5 37.3 63 37.4 66.4 37.5 69.7 37.7 72.9 38 73.7 38.1 75.8 38.2 78.5 38.4 81 38.6 83.3 39 84.5 39.2 85.2 39.2 86.8 39.4 88.1 39.7 88.6 39.8 89 39.8 89.6 39.9 89.8 40 88.9 36.1 83.9 24.6 77.9 15.9 72.2 11.1 66.9 8.7 62.2 7.5 62.1 7.5 62 7.5 59 7.2 61.7 7.5 57.9 7.1 59 7.2 62.1 7.5 60.9 7.4 58.1 7.1 53.4 6.9 53.4 6.9 53.4 6.9"/></svg>