<svg id="Layer_1" data-name="Layer 1" xmlns="http://www.w3.org/2000/svg" viewBox="0 0 103.6 138.1"><defs><style>.cls-1{fill:#ededf4;}.cls-2{fill:none;}.cls-3{fill:#d9d9df;}.cls-4{fill:#43434b;}.cls-5{fill:#b5b5c1;}.cls-6{fill:#9399a8;}.cls-7{fill:#7b7a88;}.cls-8{fill:#46bbed;}.cls-9{fill:#605e73;}.cls-10{fill:#4b3a2d;}.cls-11{fill:#5e5c6a;}.cls-12{fill:#6d5c46;}.cls-13{fill:#9491a4;}.cls-14{fill:#2affff;}.cls-15{fill:#54d9ff;opacity:0.5;}</style></defs><rect class="cls-1" x="-471.1" y="-59.5" width="1000" height="800"/><polygon class="cls-2" points="95.8 28 95.6 27.4 95.8 28 95.9 28.3 95.8 28 95.8 28"/><polygon class="cls-2" points="35.7 76.7 35.8 76.8 35.9 76.9 36.4 77.1 37 77.3 36.7 77.2 35.7 76.7"/><polygon class="cls-2" points="32.7 68 32.8 67.9 33.8 67.3 33.4 67.6 32.7 68"/><polygon class="cls-2" points="13.4 81.9 13.3 81.9 12.7 81.3 13.3 81.9 13.4 81.9"/><polygon class="cls-3" points="81.8 25.1 83.9 27.9 84.8 29.9 85 30.6 85.4 32 86.1 35.3 86.3 37.6 86 39.9 85.9 40.2 85.5 41.9 85.2 43.2 84.5 45.3 83.5 47.1 83.4 47.1 81.5 49.9 81.4 50 81 50.2 78.2 52.4 74.5 54 74.1 54.2 69.4 55.3 69.3 55.3 66.6 55.4 64.2 55.6 60.9 55.3 59 55.1 54.2 53.9 50.1 52.1 46.9 49.7 44.9 47 44.3 46 43.9 45.3 43.2 43.2 42.7 40.8 42.5 39.9 42.4 39.2 42.1 40.7 41.1 46.1 41 46.4 40.2 50.8 40.9 51.2 39.2 51.6 39.9 52.5 40.6 53.5 41.1 54.7 41.5 55.9 41.7 57.2 41.8 58.4 41.6 59.6 41.4 60.7 43.1 60.2 43.4 59.2 43.4 58.5 44.4 58.9 47.4 60 50.5 61 53.8 61.9 57.2 62.6 58.3 62.8 60.7 63.1 64.2 63.4 67.8 63.5 71.3 63.5 73.4 63.4 74.7 63.2 78.1 62.7 81.3 62.1 83.1 61.6 84.4 61.2 87.3 60 89.9 58.7 92.3 57.1 94.4 55.4 95.2 54.6 96.2 53.5 97.7 51.4 98.8 49.3 99.2 48.5 99.6 47.1 100.1 44.8 100.2 42.6 100 40.4 99.6 38.9 99.5 38.3 99.4 38.2 99.2 37.7 99 37.1 98.7 36.4 98.5 36.1 98.3 35.7 97.9 35 97.5 34.3 97.3 34 97.1 33.7 96.6 33.1 96.4 32.9 96.3 32.7 95.9 32.3 95.8 32.1 95.7 32 95.7 32 95.5 31.8 95.5 31.8 95.4 31.7 95.3 31.6 95.2 31.5 95 31.3 94.9 31.2 94.9 31.2 94.7 31 94.4 30.7 93.9 30.3 91.9 28.6 89.9 27.4 89.5 27.2 86.4 25.5 84.6 24.8 84.1 24.6 81.1 23.6 80.4 23.4 80.7 23.6 81.8 25.1"/><path class="cls-4" d="M46,25.9h0v.4l-.2.5-.2.3h0l-.2.4-.5.3H43l-.4-.2-.2-.2h0l-.6,3.1-.9,4.8-.8,4.4-.8,4.2L39,46.1l-.7,3.8v.4l-.8.2,1.8,1.1,1.7-.4-.7-.4.8-4.4v-.3l1-5.4.3-1.5v.7l.2.9.5,2.4.7,2.1.4.7.6,1,2,2.7,3.2,2.4,4.1,1.8L59,55.1l1.9.2,3.3.3,2.4-.2h2.8l4.7-1.1.4-.2,3.7-1.6L81,50.2l.4-.2h.1l1.9-2.8h.1l1-1.8.7-2.1.3-1.3.4-1.7v-.3l.3-2.3-.2-2.3L85.4,32,85,30.6l-.2-.7-.9-2-2.1-2.8-1.1-1.5-.3-.2-2.7-2-.6-.4L80,23.1l1.8,2.6.6,2.7-.6,2.7L80,33.7l-2.9,2.1-3.8,1.7-4.4,1.1-4.7.3-4.7-.3-4.4-1.1-3.8-1.7-2.9-2.1-1.8-2.6L46,28.4l.6-2.7,1.8-2.6L51.3,21l-.5.4-3,2.2-1.2,1.5-.2.3-.4.5Zm-3.6,13h0l.2-.9v1Z"/><polygon class="cls-5" points="42.3 27.9 42.4 27.9 42.6 28.1 43 28.3 43.4 28.4 43.5 28.4 43.8 28.4 44.2 28.3 44.4 28.3 44.5 28.3 44.6 28.2 44.9 28.1 45.4 27.8 45.6 27.4 45.6 27.3 45.8 27 46 26.5 46 26.1 46 26 46 25.9 46 25.9 45.9 25.6 45.9 25.4 45.8 25.1 45.5 24.6 45.1 24.3 44.9 24.1 44.6 24 44.1 23.9 43.7 23.8 43.3 23.9 42.9 24 42.6 24.2 42.2 24.5 41.9 24.9 41.7 25.2 41.5 25.7 41.5 26.3 41.6 26.8 41.7 27.1 41.8 27.3 42 27.6 42.3 27.9"/><polygon class="cls-6" points="80.9 99.2 83.7 103.6 86 108.4 87.8 113.3 87.6 113 86 108.2 83.8 103.6 81.2 99.5 81.1 99.4 80.9 99.2"/><polygon class="cls-7" points="26.3 79.2 25.7 79.2 25 79.1 24.3 78.8 23.5 78.4 22.8 77.9 22 77.3 21.9 77.2 21.4 76.7 20.8 76 20.4 75.3 20.1 74.6 19.9 74 19.8 73.7 19.8 73.4 19.9 72.9 20.2 72.6 20.5 72.3 19.8 72.6 18.5 73 17.3 73.5 16.3 74 15.7 74.3 15.3 74.7 15 75.2 14.8 75.8 14.8 76.5 15 77.2 15.3 77.9 15.6 78.5 15.6 78.6 15.7 78.6 16.2 79.3 16.9 79.9 17.6 80.3 18.4 80.7 19.2 80.9 19.9 81.1 20.7 81 21.3 80.8 21.5 80.7 22.7 80.3 24 79.9 25.3 79.5 26.6 79.1 26.3 79.2 26.3 79.2 26.3 79.2"/><polygon class="cls-7" points="16.1 85.2 15.4 85.6 14.7 85.8 13.9 85.9 13.1 85.8 12.3 85.7 11.5 85.3 10.9 84.9 10.3 84.4 9.8 83.7 9.5 83.1 9.3 82.3 9.3 81.6 9.4 80.9 9.2 81.5 8.7 82.8 8.7 82.9 8.6 83.3 8.5 84 8.5 84.7 8.7 85.5 9 86.2 9.4 86.8 10 87.3 10.7 87.7 11.4 88 12.2 88.2 13.1 88.2 13.8 88.1 14.6 87.9 15.3 87.5 15.8 87 16.3 86.4 16.6 85.7 16.6 85.5 16.7 85.3 16.7 85.3 17 84.2 17.1 84.1 16.6 84.7 16.1 85.2"/><polygon class="cls-6" points="8 85.6 7.9 86.3 7.9 87.1 8 87.8 8.4 88.5 8.8 89.1 9.4 89.6 10.1 90.1 10.8 90.4 11.6 90.6 12.4 90.6 13.2 90.5 14 90.2 14.6 89.8 15.2 89.3 15.6 88.7 15.9 88.1 16.6 85.7 16.3 86.4 15.8 87 15.3 87.5 14.6 87.9 13.8 88.1 13.1 88.2 12.2 88.2 11.4 88 10.7 87.7 10 87.3 9.4 86.8 9 86.2 8.7 85.5 8.5 84.7 8.5 84 8.6 83.3 8.6 83.4 8 85.6"/><polygon class="cls-6" points="16.5 83.9 15.8 84.1 15 84.2 14.2 84.1 13.4 83.9 12.7 83.6 12 83.2 11.4 82.6 10.9 82 10.6 81.3 10.4 80.6 10.3 79.9 10.5 79.2 10.7 78.5 10.7 78.5 10 79.6 9.7 80.3 9.4 80.9 9.3 81.6 9.3 82.3 9.5 83.1 9.8 83.7 10.3 84.4 10.9 84.9 11.5 85.3 12.3 85.7 13.1 85.8 13.9 85.9 14.7 85.8 15.4 85.6 16.1 85.2 16.6 84.7 17.1 84.1 17.2 83.8 17.6 83.2 17.7 83.1 17.2 83.5 16.5 83.9"/><polygon class="cls-6" points="19.9 81.1 19.2 80.9 18.4 80.7 17.6 80.3 16.9 79.9 16.2 79.3 15.7 78.6 15.6 78.6 15.6 78.5 15.3 77.9 15 77.2 14.8 76.5 14.8 75.8 15 75.2 15.3 74.7 15.7 74.3 16.3 74 16.1 74.1 15.5 74.4 14.4 75 13.4 75.7 12.9 76.2 12.3 76.7 11.9 77.2 11.7 77.9 11.6 78.6 11.6 79.3 11.9 80 12.2 80.7 12.7 81.3 13.3 81.9 13.4 81.9 14 82.3 14.8 82.7 15.6 82.9 16.3 83 17.1 82.9 17.8 82.7 18.4 82.3 19.1 81.9 19.6 81.6 20.4 81.2 21.3 80.8 20.7 81 19.9 81.1"/><polygon class="cls-6" points="89.5 88.1 87.7 89 86.5 90 76.3 94 64.2 95.3 52.2 94 42 90 40.8 89 38.9 88.1 36.7 86.5 35.8 85.9 36.2 87 42.7 92.6 44.8 94.1 45 94.2 53.8 97.6 58.4 98.2 61.5 98.5 62.1 98.6 62.4 98.6 64.2 98.8 64.2 98.8 65.5 98.7 72 97.9 74.6 97.6 76.8 96.8 77.6 96.5 78.2 96.3 78.5 96.2 78.7 96.1 82.1 94.8 83.5 94.2 85.7 92.6 92.3 87 92.7 85.9 91.7 86.5 89.5 88.1"/><polygon class="cls-5" points="33.1 76.3 33.1 76.3 33.1 76.2 33.1 76.3"/><polygon class="cls-7" points="28.1 70.4 28.4 70.7 28.8 71.1 29 71.3 29.3 71.7 29.8 72.3 30.4 72.9 30.9 73.6 31.5 74.2 32 74.8 32.4 75.4 32.8 75.9 33.1 76.2 33.1 76.3 33.3 76.6 33.4 76.7 33.4 76.8 34 76.5 34.6 76.3 34.8 76.2 34.8 76.1 34.9 76.1 35.1 76 35.4 75.9 35.4 75.8 35.7 75.7 36.3 75.4 36.6 75.2 37.5 74.8 37.9 74.4 38.2 73.9 38.3 73.3 38.4 72.6 38.3 71.8 38.2 71.1 37.9 70.3 37.5 69.6 37.1 68.9 36.6 68.3 36 67.9 35.5 67.5 34.9 67.3 34.3 67.3 33.8 67.3 32.8 67.9 32.7 68 31.8 68.4 31.6 68.5 31.6 68.5 31.3 68.6 31.3 68.6 31.1 68.7 31 68.7 29.8 69.3 29.7 69.3 28.4 69.8 28 70 27.9 70 27.7 70.1 27.9 70.2 28.1 70.4"/><polygon class="cls-3" points="28.2 42.6 28.4 44.5 28.8 45.8 29 46.3 29.9 48.1 31.1 49.8 32.7 51.5 33.4 52.2 33.5 52 34.1 51.2 34.9 50.7 35.7 50.4 36.5 50.3 37.4 50.5 38.2 50.3 38.3 49.9 39 46.1 39.3 44.5 40.1 40.3 40.9 35.9 41.8 31.1 42.4 28 42.4 27.9 42.3 27.9 42 27.6 41.8 27.3 41.2 27.6 38.5 29 36.1 30.5 34 32.1 33.3 32.8 32.2 33.7 30.8 35.4 29.6 37.2 29.3 37.9 28.8 39 28.3 40.7 28.2 42.6"/><polygon class="cls-6" points="25 62.6 25 62.2 24.9 61.6 23.1 60.6 23.1 61.1 23.3 61.6 23.5 62 23.8 62.3 25 63 25 62.9 25 62.6"/><polygon class="cls-3" points="24.9 61.1 24.9 61 25 60.3 25 59.5 25.1 58.9 25.1 58.8 25.2 58 25.2 57.2 25.3 56.5 25.3 56.4 25.2 56.5 24.7 56.9 24.2 57.4 23.8 58 23.5 58.7 23.3 59.3 23.1 60 23.1 60.6 24.9 61.6 24.9 61.1"/><polygon class="cls-7" points="52.2 94 64.2 95.3 76.3 94 86.5 90 87.7 89 86.8 89.4 86.4 89.6 84.1 90.7 81 91.6 77.9 92.6 76.1 92.9 74.6 93.2 71.2 93.7 67.7 93.9 64.2 94.1 60.7 93.9 57.2 93.7 53.9 93.2 52.3 92.9 50.5 92.6 47.4 91.6 44.4 90.7 42.1 89.6 41.6 89.4 40.8 89 42 90 52.2 94"/><polygon class="cls-7" points="27.5 45.2 27.7 47.1 28.1 48.4 28.3 49 29.2 50.8 30.5 52.5 32 54.3 32.7 54.9 32.8 54 33.1 52.9 33.4 52.2 32.7 51.5 31.1 49.8 29.9 48.1 29 46.3 28.8 45.8 28.4 44.5 28.2 42.6 28.3 40.7 28.8 39 28.1 41.5 27.6 43.3 27.5 45.2"/><polygon class="cls-6" points="29.6 78.2 29.6 78.2 29.8 78.1 30.3 77.9 30.6 77.8 31.2 77.6 32.1 77.3 32.9 77 33.4 76.8 33.4 76.7 33.3 76.6 33.1 76.3 33.1 76.3 33.1 76.2 32.8 75.9 32.4 75.4 32 74.8 31.5 74.2 30.9 73.6 30.4 72.9 29.8 72.3 29.3 71.7 29 71.3 28.8 71.1 28.4 70.7 28.1 70.4 27.9 70.2 27.7 70.1 27.1 70.3 26.9 70.4 26.6 70.5 26.5 70.5 25.4 70.8 24 71.3 22.6 71.7 21.2 72.1 20.5 72.3 20.2 72.6 19.9 72.9 19.8 73.4 19.8 73.7 19.9 74 20.1 74.6 20.4 75.3 20.8 76 21.4 76.7 21.9 77.2 22 77.3 22.8 77.9 23.5 78.4 24.3 78.8 25 79.1 25.7 79.2 26.3 79.2 26.3 79.2 26.3 79.2 26.7 79.1 28.1 78.7 29.5 78.2 29.6 78.2 29.6 78.2"/><path class="cls-5" d="M102.5,49.1l-.6-2.1-1.8-6.3.6,2.2.2,2.3v2.3l-.4,2.3-.5,1.4-.4.8-1.1,2.2-1.5,2.1-.8.8-.3.3-.8.8-2.1,1.7-2.5,1.6-2.7,1.3-2.9,1.3-1.3.4-.6.2-1.2.3-3.3.7-3.5.5-1.3.2H64.2l-3.6-.3-2.5-.3-1-.2-3.5-.8L50.2,64,47,62.9l-3-1.1-1.4-.6-.6.7-.7.6-.5.2h-.3l-1.7.4.8-.3.7-.5.6-.8.5-.9.3-1.1V57.2l-.2-1.3-.4-1.2-.5-1.2-.7-1-.7-.9-1.8-1.1-.9-.2h-.8l-.8.3-.8.5-.6.8v.2l-.3.7L32.8,54v.9l-.7-.6-1.5-1.8-1.3-1.7L28.3,49l-.2-.6-.4-1.3-.2-1.9V43.3l.5-1.8L26.5,47,26,49.1l-.7,7.3h0v2.3h0V61h0v1.8h0v.4l1.3,6.8v.3h.6l.6-.2H28l.4-.2,1.3-.5h.1l1.2-.6v-1l.2-1.1v-.3l.4-1,.2-.3.3-.4h0l.3-.3.2-.2.5-.4.3-.2h.2l.9-.4h1l1,.2,1,.5h0l1.1.7,1,1,.5.7.4.4.8,1.3.6,1.4v.3l.4,1.1.3,1.4h0v1.3l-.2,1v.2l-.4,1.1-.7.9-.8.6h-.1l-.9.3H38l-1-.2-.6-.2-.5-.2h-.2l-.5-.3-.4-.3h-.2l-.6.2-.6.3-.5.2-.8.3-.9.3-.6.2h-.3l-.5.2h-.3l.7,1.3,1,1.9,1.6,1.8L34.5,85l1.3.9.9.6,2.2,1.6,1.9.9.8.4.5.2,2.3,1.1,3,.9,3.1,1,1.8.3,1.6.3,3.3.5,3.5.2,3.5.2,3.5-.2,3.5-.2,3.4-.5,1.5-.3,1.8-.3,3.1-1,3.1-.9,2.3-1.1.4-.2.9-.4,1.8-.9,2.2-1.6,1-.6L94,85l1.6-1.8,1.7-1.8,1-1.9,1-2,2.2-5.2.6-2.1,1.3-6.8.2-2.3-.2-2.2ZM34.3,55l.2-.7.3-.6.4-.5.5-.4.5-.2h1.2l.5.3.6.5.5.5.4.7.4.7.2.8.2.9v1.5l-.2.7-.3.7-.4.4-.4.4-.6.2H37.1l-.6-.3-.5-.4-.5-.6-.5-.7-.3-.7-.3-.8V55ZM84.4,88.4l-1.1.6h-.1l-1.1.4H79.2l-.7-.2h0l-.6-.4-.2-.5h-.1l-.2-.8v-.9l.7-4.3L77.5,74V72.9l.2-.8v-.2l.5-1.1.5-.9v-.2l.7-.9,1-.8,1-.6.3-.2.8-.3,1.1-.3h2l.9.3.8.6.6.8v.2l.3.7v.9l.6,8.4-.7,4.4-.2.9-.4,1-.2.3-.5.7-.9.9-.9.8-.6.5ZM98.7,77.8l-.6,1.1-.6.9h0l-.7.9-.2.2-.4.5-.4.4h-.2l-.5.4h-.9l-.2-.2v-.4h0v-.7h0V80l.7-4.4L94,67.3V66.2h0V65.1l.2-1.3.3-1.2.4-1.1.5-.9h.1l.5-.9.6-.8.6-.4h.1L98,58h.6l.5.2.3.2.2.2.4.7h.1v1.6l.6,8.4-.7,4.3-.2,1-.3,1.1v.2l-.4.9-.4.8Z"/><polygon class="cls-5" points="89.5 27.2 89.9 27.4 91.9 28.6 93.9 30.3 94.4 30.7 94.5 30.6 94.4 29.7 94.1 28.8 93.6 27.8 93 26.7 92.2 25.7 91.4 24.8 90.4 23.9 89.4 23.1 87.5 22.1 86.7 21.9 85.9 21.9 85.3 22.1 84.8 22.5 84.6 23 84.5 23.8 84.6 24.6 84.6 24.8 86.4 25.5 89.5 27.2"/><polygon class="cls-3" points="46.4 25.4 45.9 25.6 46 25.9 46.4 25.4"/><polygon class="cls-7" points="99.6 38.8 99.7 38.6 100 37.9 100.2 37 100.3 36.2 100.2 35.3 100 34.5 99.7 33.7 99.4 33.3 99.2 33 98.7 32.5 98 32 97.4 31.7 96.7 31.6 96 31.6 95.5 31.8 95.7 32 95.7 32 95.8 32.1 95.9 32.3 96.3 32.7 96.4 32.9 96.6 33.1 97.1 33.7 97.3 34 97.5 34.3 97.9 35 98.3 35.7 98.5 36.1 98.7 36.4 99 37.1 99.2 37.7 99.4 38.2 99.5 38.3 99.6 38.9 100 40.4 100.2 42.6 100.1 44.8 99.6 47.1 99.2 48.5 98.8 49.3 97.7 51.4 96.2 53.5 95.2 54.6 94.4 55.4 92.3 57.1 89.9 58.7 87.3 60 84.4 61.2 83.1 61.6 81.3 62.1 78.1 62.7 74.7 63.2 73.4 63.4 71.3 63.5 67.8 63.5 64.2 63.4 60.7 63.1 58.3 62.8 57.2 62.6 53.8 61.9 50.5 61 47.4 60 44.4 58.9 43.4 58.5 43.4 59.2 43.1 60.2 42.6 61.2 42.6 61.2 44 61.8 47 62.9 50.2 64 53.6 64.8 57.1 65.6 58.1 65.8 60.6 66.1 64.2 66.4 67.8 66.5 71.4 66.5 73.6 66.4 74.9 66.2 78.4 65.7 81.7 65 82.9 64.7 83.5 64.5 84.8 64.1 87.7 62.8 90.4 61.5 92.9 59.9 95 58.2 95.8 57.4 96.1 57.1 96.9 56.3 98.4 54.2 99.5 52 99.9 51.2 100.4 49.8 100.8 47.5 100.9 45.2 100.7 42.9 100.1 40.7 99.7 39 99.6 39 99.6 38.8"/><path class="cls-7" d="M86.3,86.9l.9-.9.5-.7.2-.3.4-1,.2-.9.7-4.4-.6-8.4v-.9l-.3-.7v-.2l-.6-.8-.8-.6-.9-.3h-2l-1.1.3-.8.3-.3.2-1,.6-1,.8-.7.9v.2l-.5.9-.5,1.1v.2l-.2.8V74l.6,8.4-.7,4.3v.9l.2.8h.1l.2.5.6.4h0l.7.2h2.9l1.1-.4h.1l1.1-.6.4-.2.6-.5Zm-1.5,0-.7.5-.7.4-.7.2H80.8l-.5-.2h-.1l-.3-.2-.2-.4-.2-.5v-.6l.6-4.4-.5-8.2v-.8l.2-.7.3-.6h0l.4-.7.5-.6.6-.5.5-.3h.2l.6-.4h2.7l.5.4h.1l.3.4.2.5v.8l.5,8.2-.6,4.4-.2.7-.2.6-.4.7-.3.3-.2.3-.2.2Z"/><polygon class="cls-4" points="85.7 86.1 86 85.8 86.4 85.1 86.6 84.5 86.8 83.8 87.4 79.4 86.9 71.2 86.8 70.5 86.6 69.9 86.3 69.5 86.2 69.4 85.7 69 85.5 68.9 85.1 68.8 84.4 68.7 83.7 68.7 83 68.8 82.4 69.2 82.2 69.3 81.7 69.6 81.1 70.1 80.6 70.7 80.2 71.4 80.2 71.5 79.9 72.1 79.7 72.8 79.7 73.6 80.2 81.8 79.6 86.2 79.5 86.8 79.7 87.3 79.9 87.7 80.2 87.9 80.3 88 80.8 88.2 81.3 88.3 81.4 88.3 81.9 88.2 82 88.2 82.6 88.1 82.7 88 83.4 87.8 84.1 87.4 84.8 86.9 85.3 86.6 85.5 86.4 85.7 86.1"/><path class="cls-7" d="M99.7,75.9v-.2l.3-1.1.2-1,.7-4.3-.6-8.4V59.3H100l-.4-.7-.2-.2-.3-.2-.5-.2H98l-.6.3h-.1l-.6.4-.6.8-.5.9h-.1l-.5.9-.4,1.1-.3,1.2-.2,1.3v1.1h0v1.1l.5,8.3L93.8,80v.8h0v.7h0v.4l.2.2h.9l.5-.4h.2l.4-.4.4-.5.2-.2.7-.9h0l.6-.9.6-1.1.2-.2.4-.8Zm-1.3,1.8-.4.6-.3.6h-.1l-.2.3-.2.2-.2.2-.3.3-.3.3-.4.3h-.7l-.2-.3V79l.7-4.4-.5-8.2V64.2h0l.2-.8.3-.6v-.2l.3-.7.4-.6.4-.4.4-.4h1.2l.3.3h0l.2.3.2.5v.7l.5,8.3-.7,4.3v.7l-.2.7-.2.7-.2.5Z"/><polygon class="cls-4" points="99 76.2 99.2 75.5 99.3 74.8 100 70.5 99.5 62.2 99.4 61.5 99.2 61 99 60.7 99 60.6 98.7 60.3 98.3 60.2 97.9 60.3 97.8 60.3 97.5 60.4 97.1 60.8 96.7 61.3 96.3 61.8 96 62.5 96 62.7 95.7 63.3 95.5 64.1 95.5 64.2 95.4 64.8 95.3 65.6 95.3 66.4 95.8 74.6 95.1 79 95.1 79.6 95.1 80.1 95.3 80.4 95.4 80.5 95.5 80.6 95.7 80.6 95.7 80.7 96 80.6 96.4 80.3 96.7 80 97 79.7 97.2 79.5 97.4 79.3 97.6 79 97.7 78.9 98 78.3 98.4 77.7 98.6 77.4 98.8 76.9 99 76.2"/><polygon class="cls-6" points="94.9 25.8 94.9 26 95.5 25.9 96.3 26 95.9 25.9 94.7 25.6 94.8 25.7 94.9 25.8"/><polygon class="cls-7" points="94.9 26 95 26.1 95.2 26.3 95.2 26.4 95.4 26.8 95.5 27.2 95.6 27.4 95.8 28 95.8 28 95.9 28.3 95.9 28.4 96.1 28.3 96.8 28 97.7 27.9 98.5 27.9 99.4 28.1 99.8 28.4 100.2 28.5 100.9 29.1 101.5 29.8 102 30.6 101.7 30 101.3 29.4 100.7 28.7 100.2 28.1 99.3 27.5 98.7 27.1 97.7 26.6 97 26.3 96.3 26 95.5 25.9 94.9 26"/><polygon class="cls-6" points="100.9 29.1 100.2 28.5 99.8 28.4 99.4 28.1 98.5 27.9 97.7 27.9 96.8 28 96.1 28.3 95.9 28.4 96 28.8 96 29.2 94.5 30.6 94.4 30.7 94.7 31 94.9 31.2 94.9 31.2 95 31.3 95.2 31.5 95.3 31.6 95.4 31.7 95.5 31.8 95.5 31.8 96 31.6 96.7 31.6 97.4 31.7 98 32 98.7 32.5 99.2 33 99.4 33.3 99.7 33.7 100 34.5 100.2 35.3 100.3 36.2 100.2 37 100 37.9 99.7 38.6 99.6 38.8 99.6 39 99.7 39 100 38.8 100.5 38.3 101.3 37.3 101.7 36.7 102.2 35.7 102.4 35 102.6 34 102.6 33.3 102.5 32.5 102.4 31.6 102.1 30.9 102 30.6 101.5 29.8 100.9 29.1"/><polygon class="cls-3" points="50.4 22.1 48.8 24.3 48.2 26.7 48.8 29.1 50.4 31.4 52.9 33.3 56.2 34.7 60.1 35.7 64.2 36 68.4 35.7 72.2 34.7 75.5 33.3 78.1 31.4 79.7 29.1 80.2 26.7 79.7 24.3 78.1 22.1 75.5 20.2 72.2 18.7 71.9 18.7 68.2 17.8 64.2 17.5 60.2 17.8 56.5 18.7 56.2 18.7 52.9 20.2 50.4 22.1"/><polygon class="cls-5" points="46.6 25.7 46 28.4 46.6 31.1 48.4 33.7 51.3 35.8 55.1 37.5 59.5 38.6 64.2 38.9 68.9 38.6 73.3 37.5 77.1 35.8 80 33.7 81.8 31.1 82.4 28.4 81.8 25.7 80 23.1 77.1 21 76.5 20.5 72.9 18.9 72.2 18.7 75.5 20.2 78.1 22.1 79.7 24.3 80.2 26.7 79.7 29.1 78.1 31.4 75.5 33.3 72.2 34.7 68.4 35.7 64.2 36 60.1 35.7 56.2 34.7 52.9 33.3 50.4 31.4 48.8 29.1 48.2 26.7 48.8 24.3 50.4 22.1 52.9 20.2 56.2 18.7 55.6 18.9 52 20.5 51.3 21 48.4 23.1 46.6 25.7"/><polygon class="cls-8" points="42.5 38.5 42.6 37.9 42.4 38.8 42.4 38.9 42.5 39.1 42.5 38.9 42.5 38.5"/><path class="cls-7" d="M45,95v1.8l.2,1.1.2,1.2L47,108l.8,5.5V120h0v1.2l.2.5.2.5.2.6.4.5.3.4.4.4.5.3.4.2h.2l.7.5.7.3.6.2h.6l.5-.2.5-.3.3-.5.2-.6v-.8l3.5-2v-.5h0v-5.3l-3.5,2,3.7-19.2-4.6-.6L45,94.2h-.2v.8Zm8.4,27.9v.4l-.2.4-.3.2-1.3.7.3-.2.2-.3v-1.9l-.2-.6-.3-.5-.3-.5-.4-.4-.4-.4-.4-.3-.5-.2H48.4l1.4-.7h1.1l.4.2.4.3.4.4.4.4.3.5.3.6.2.5v1.5Z"/><polygon class="cls-9" points="58.2 115.4 60.6 102.8 60.8 101.8 61.1 100.6 61.2 99.7 61.3 99.3 61.5 98.5 58.4 98.2 54.7 117.4 58.2 115.4"/><polygon class="cls-10" points="63.9 121 63.8 122.2 63.4 123.3 62.9 124.2 62.1 124.9 61.5 125.2 60.6 125.5 59.6 125.6 58.4 125.3 57.3 124.8 56.2 124 54.3 125.1 54.3 125.2 56 126.8 57.8 128 59.6 128.9 61.3 129.3 62.9 129.2 64.3 128.7 65.4 127.7 66.3 126.4 66.8 124.7 67 122.7 66.8 120.6 66.5 119.3 66 119 63.9 121"/><polygon class="cls-7" points="57.7 123.1 57.2 123.4 56.2 124 57.3 124.8 58.4 125.3 59.6 125.6 60.6 125.5 61.5 125.2 62.3 124.6 62.8 123.7 63.2 122.6 63.3 121.6 62.8 122 62 122.5 61.1 122.7 60.1 122.8 59.1 122.6 58.1 122.3 58 122.6 57.7 123.1"/><polygon class="cls-6" points="42.1 73.5 41.6 73.6 41.2 73.6 40.7 73.5 40.2 73.4 39.8 73.2 39.3 72.9 39 73.1 38.8 73.9 38.6 74.6 38.2 75.2 37.7 75.6 37.1 75.8 36.4 75.8 35.7 75.7 35.7 75.7 35.4 75.8 35.4 75.9 35.1 76 34.9 76.1 34.8 76.1 35.2 76.4 35.7 76.7 36.7 77.2 37 77.3 38 77.5 38.3 77.6 39.3 77.5 39.3 77.5 39.7 77.4 40.6 77.1 40.7 77 41.5 76.4 42.2 75.5 42.6 74.4 42.6 74.2 42.8 73.2 42.5 73.4 42.1 73.5"/><polygon class="cls-5" points="36.4 75.8 37.1 75.8 37.7 75.6 38.2 75.2 38.6 74.6 38.8 73.9 39 73.1 39 72.2 38.8 71.3 38.5 70.4 38.1 69.4 37.6 68.6 37 67.8 36.4 67.2 35.7 66.7 34.9 66.4 34.2 66.2 33.6 66.3 33 66.5 32.5 66.9 32.1 67.4 31.9 68.1 31.8 68.4 32.7 68 33.4 67.6 33.8 67.3 34.3 67.3 34.9 67.3 35.5 67.5 36 67.9 36.6 68.3 37.1 68.9 37.5 69.6 37.9 70.3 38.2 71.1 38.3 71.8 38.4 72.6 38.3 73.3 38.2 73.9 37.9 74.4 37.5 74.8 36.6 75.2 36.3 75.4 35.7 75.7 35.7 75.7 36.4 75.8"/><polygon class="cls-3" points="31.3 68.3 31.6 68.5 31.6 68.5 31.8 68.4 31.9 68.1 32.1 67.4 32.5 66.9 33 66.5 33.6 66.3 34.2 66.2 34.9 66.4 35.7 66.7 36.4 67.2 37 67.8 37.6 68.6 38.1 69.4 38.5 70.4 38.8 71.3 39 72.2 39 73.1 39.3 72.9 39.8 73.2 40.2 73.4 40.7 73.5 41.2 73.6 41.6 73.6 42.1 73.5 42.5 73.4 42.8 73.2 42.8 71.9 42.8 71.9 42.5 70.5 42.1 69.4 42 69.1 41.4 67.7 40.6 66.4 40.2 66 39.7 65.3 38.7 64.3 37.6 63.6 37.6 63.6 36.6 63.1 35.6 62.9 35 62.9 34.6 62.9 33.7 63.3 33.5 63.4 33.2 63.6 32.7 64 32.5 64.2 32.2 64.5 32.2 64.5 32.2 64.6 31.9 65 31.7 65.3 31.3 66.3 31.2 66.6 31 67.7 31.1 68 31.3 68.3"/><polygon class="cls-6" points="31.3 68.6 31.3 68.6 31.6 68.5 31.6 68.5 31.6 68.5 31.3 68.3 31.1 68 31 67.7 31 68.7 31.1 68.7 31.3 68.6"/><polygon class="cls-6" points="43.1 60.2 41.4 60.7 40.9 61.6 40.3 62.4 39.6 62.9 38.8 63.2 40.5 62.8 40.8 62.7 41.3 62.5 42 61.9 42.6 61.2 42.6 61.2 43.1 60.2"/><polygon class="cls-3" points="85.9 21.9 86.7 21.9 87.5 22.1 88.2 21.6 88 20.7 87.9 20.5 87.5 20.5 86.9 20.7 86.4 21.1 84.8 22.5 85.3 22.1 85.9 21.9"/><polygon class="cls-4" points="88.2 21.6 87.5 22.1 89.4 23.1 91 21.7 90.2 21.3 86.5 4 86 4.4 85.5 4.5 85.4 4.5 84.8 4.5 84.5 4.5 87.9 20.5 88 20.7 88.2 21.6"/><polygon class="cls-3" points="90.4 23.9 91.4 24.8 92.2 25.7 93 26.7 93.6 27.8 94.1 28.8 94.4 29.7 94.5 30.6 96 29.2 96 28.8 95.9 28.4 95.9 28.3 95.8 28 95.6 27.4 95.5 27.2 95.4 26.8 95.2 26.4 95.2 26.3 95 26.1 94.9 26 94.9 25.8 94.8 25.7 94.7 25.6 94.5 25.3 93.8 24.3 92.9 23.3 92 22.5 91 21.7 89.4 23.1 90.4 23.9"/><polygon class="cls-5" points="85.4 4.5 85.5 4.5 86 4.4 86.5 4 86.5 4 86.7 3.8 87.1 3.3 87.2 3 87.3 2.4 87.3 1.9 87.1 1.5 86.9 1 86.6 0.7 86.2 0.3 85.9 0.2 85.3 0 84.7 0 84.1 0.2 83.6 0.5 83.4 0.7 83 1.2 82.9 1.6 82.8 2.2 82.8 2.6 83 3.2 83.2 3.6 83.5 3.9 83.9 4.3 84.2 4.4 84.5 4.5 84.8 4.5 85.4 4.5"/><polygon class="cls-9" points="78.6 96.4 80.9 99.2 81.1 99.4 81.2 99.5 82.1 94.8 78.7 96.1 78.6 96.4"/><polygon class="cls-6" points="61.1 100.6 60.8 101.8 60.6 102.8 58.2 115.4 58.2 116.8 58.4 117.1 58.7 117.6 58.9 118.2 59 118.7 59.1 119.2 59 119.7 58.9 120.1 58.7 120.4 58.4 120.6 58.2 120.7 58.2 121.2 58.2 121.9 58.1 122.3 59.1 122.6 60.1 122.8 61.1 122.7 62 122.5 62.8 122 63.3 121.6 63.9 121 66 119 66.5 119.3 71.8 122.3 72.3 122.6 72.6 122.8 73.2 123.1 73.3 123.2 73.6 123.3 74.4 123.7 74.6 123.7 75.7 124.2 75.7 124.2 74.9 120.7 73.2 115.8 70.9 111 68.1 106.6 64.9 102.6 61.4 99.3 61.3 99.3 61.2 99.7 61.1 100.6"/><polygon class="cls-5" points="42.4 98 44.7 95.9 45.1 95.7 45 95 45 94.9 44.9 94.6 43.1 96.3 42.6 97 40.9 100.1 40 103.2 40 103.3 39.9 103.5 40.7 100.9 42.4 98"/><polygon class="cls-5" points="83.7 103.6 80.9 99.2 78.6 96.4 78.5 96.2 78.2 96.3 77.6 96.5 76.8 96.8 74.6 97.6 72 97.9 65.5 98.7 64.2 98.8 64.2 98.8 62.4 98.6 62.1 98.6 61.5 98.5 61.3 99.3 61.4 99.3 64.9 102.6 68.1 106.6 70.9 111 73.2 115.8 74.9 120.7 75.7 124.2 76.6 124.5 76.7 124.5 77 124.6 77.5 124.7 78.1 124.8 78.2 124.8 78.6 124.8 78.8 124.8 79.1 124.8 79.1 124.8 80.1 124.6 80.3 124.6 81.2 124.3 81.9 124 82.3 123.8 83.4 123.3 84 122.9 84.8 122.3 84.9 122.3 85.4 121.9 85.8 121.6 85.9 121.5 86.4 121.1 87.5 120 87.8 119.6 87.9 119.5 88.2 119 88.5 117.9 88.5 117.7 88.5 116.8 87.8 113.3 86 108.4 83.7 103.6"/><polygon class="cls-6" points="43.2 105.8 43.8 106.2 47 108 45.6 99.1 45.4 97.9 45.2 96.8 45.1 95.7 44.7 95.9 42.4 98 40.7 100.9 39.9 103.5 40.2 103.9 40.7 104.4 40.8 104.4 41.5 104.8 42.6 105.5 42.8 105.6 43.2 105.8"/><polygon class="cls-7" points="78.7 96.1 78.5 96.2 78.6 96.4 78.7 96.1"/><polygon class="cls-4" points="16.6 85.6 16.7 85.7 16.9 86.6 16.9 86.7 16.9 87.5 16.8 87.8 16.7 88.3 16.4 89.1 15.9 89.8 15.2 90.4 14.4 90.9 13.5 91.2 12.5 91.3 11.6 91.3 10.6 91.1 9.7 90.7 8.9 90.2 8.2 89.6 7.6 88.8 7.3 88 7 87.1 7 86.2 7.2 85.4 7.6 84.6 8 83.9 8.1 83.9 8.6 83.4 8.6 83.3 8.7 82.9 7.7 83.6 6.4 84.6 5.1 85.7 3.9 86.9 2.7 88.1 1.7 89.3 1 90.4 0.4 91.4 0.1 92.2 0 92.9 0.2 93.3 8.1 102.1 8.5 102.3 9.2 102.3 10.1 102.1 11.8 99.8 10.7 98.6 11 98.1 11.5 97.4 12.1 96.7 12.8 95.9 13.6 95.2 14.4 94.5 15.2 93.9 16 93.3 16.1 93.3 17.7 95.1 19.6 94.4 20.4 93.3 21 92.3 21.3 91.5 21.4 90.8 21.2 90.4 16.7 85.3 16.6 85.5 16.6 85.6"/><polygon class="cls-11" points="15.6 88.7 15.2 89.3 14.6 89.8 14 90.2 13.2 90.5 12.4 90.6 11.6 90.6 10.8 90.4 10.1 90.1 9.4 89.6 8.8 89.1 8.4 88.5 8 87.8 7.9 87.1 7.9 86.3 8 85.6 8.6 83.4 8.1 83.9 8 83.9 7.6 84.6 7.2 85.4 7 86.2 7 87.1 7.3 88 7.6 88.8 8.2 89.6 8.9 90.2 9.7 90.7 10.6 91.1 11.6 91.3 12.5 91.3 13.5 91.2 14.4 90.9 15.2 90.4 15.9 89.8 16.4 89.1 16.7 88.3 16.8 87.8 16.9 87.5 16.9 86.7 16.9 86.6 16.7 85.7 16.6 85.6 16.6 85.5 16.6 85.7 15.9 88.1 15.6 88.7"/><polygon class="cls-12" points="85.4 121.9 84.9 122.3 84.8 122.3 84.6 125.1 83.6 128.2 82 130.7 82.7 130.2 83.1 129.5 84.2 127.7 84.2 127.7 84.2 127.7 84.6 127.1 85.6 124 85.7 123.3 85.9 121.5 85.8 121.6 85.4 121.9"/><polygon class="cls-9" points="57.2 123.4 57.7 123.1 58 122.6 58.1 122.3 58.2 121.9 58.2 121.2 54.7 123.2 54.7 124 54.5 124.6 54.2 125.1 53.7 125.4 54.3 125.1 56.2 124 57.2 123.4"/><polygon class="cls-9" points="58.7 120.4 58.9 120.1 59 119.7 59.1 119.2 58.2 119.7 58.2 120.1 58.2 120.5 58.2 120.7 58.2 120.7 58.4 120.6 58.7 120.4"/><polygon class="cls-13" points="59 118.7 58.9 118.2 58.7 117.6 58.4 117.1 58.2 116.8 58.2 117.2 58.2 117.9 58.2 118.6 58.2 119.2 58.2 119.7 59.1 119.2 59 118.7"/><polygon class="cls-9" points="52.1 123.7 52 124.1 51.8 124.4 51.5 124.6 52.8 123.9 53.1 123.7 53.3 123.3 53.4 122.9 53.5 122.5 52.1 123.2 52.1 123.7"/><polygon class="cls-13" points="53.3 121.4 53.1 120.9 52.8 120.3 52.5 119.8 52.1 119.4 51.7 119 51.3 118.7 50.9 118.5 50.5 118.4 50.1 118.5 49.8 118.6 48.4 119.3 48.8 119.2 49.1 119.2 49.5 119.3 50 119.5 50.4 119.8 50.8 120.2 51.2 120.6 51.5 121.1 51.8 121.6 52 122.2 52.1 122.7 52.1 123.2 53.5 122.5 53.4 122 53.3 121.4"/><polygon class="cls-12" points="76.3 132.5 77.2 129.3 77.6 125.7 77.5 124.7 77 124.6 76.7 124.5 76.6 124.5 75.7 124.2 75.7 124.2 74.6 123.7 74.4 123.7 73.6 123.3 73.3 123.2 73.2 123.1 72.6 122.8 72.3 122.6 71.8 122.3 66.5 119.3 66.8 120.6 67 122.7 66.8 124.7 66.3 126.4 65.4 127.7 64.3 128.7 62.9 129.2 61.3 129.3 59.6 128.9 57.8 128 56 126.8 54.3 125.2 54.3 125.1 53.7 125.4 53.2 125.6 52.6 125.7 52 125.5 51.3 125.2 50.6 124.7 50.6 124.7 50.4 124.7 50 124.5 49.5 124.2 49.1 123.8 48.8 123.4 48.4 122.9 48.2 122.3 48 121.8 47.8 121.3 47.8 120.7 47.8 120.3 47.9 120.1 47.9 120 47.8 119.2 47.8 113.5 47 108 43.8 106.2 43.2 105.8 42.8 105.6 42.6 105.5 42.4 107.6 42.7 111.5 43.7 115.5 43.8 115.8 45.2 119.8 47.1 123.6 49.5 127.2 52.2 130.5 52.4 130.7 55.5 133.5 58.6 135.7 61.8 137.2 62.4 137.4 65.6 138.1 68.4 138 69.2 137.9 71.8 137 72.6 136.7 74.7 134.9 76.3 132.5"/><polygon class="cls-10" points="77 132 77.9 128.9 78.3 125.3 78.2 124.8 78.1 124.8 77.5 124.7 77.6 125.7 77.2 129.3 76.3 132.5 74.7 134.9 72.6 136.7 73.3 136.3 75.4 134.5 77 132"/><polygon class="cls-10" points="84.6 125.1 84.8 122.3 84 122.9 83.8 125.5 82.8 128.7 81.2 131.2 79.1 132.9 79.9 132.5 82 130.7 83.6 128.2 84.6 125.1"/><polygon class="cls-10" points="81.1 129.7 82.1 126.5 82.3 123.8 81.9 124 81.2 124.3 80.3 124.6 80.1 124.6 79.8 127.9 78.8 131 77.2 133.5 75.1 135.2 76.2 134.6 77.4 133.9 79.5 132.2 81.1 129.7"/><polygon class="cls-12" points="78.8 131 79.8 127.9 80.1 124.6 79.1 124.8 79.1 124.8 78.8 124.8 78.6 124.8 78.2 124.8 78.3 125.3 77.9 128.9 77 132 75.4 134.5 73.3 136.3 75.1 135.2 77.2 133.5 78.8 131"/><polygon class="cls-12" points="82.8 128.7 83.8 125.5 84 122.9 83.4 123.3 82.3 123.8 82.1 126.5 81.1 129.7 79.5 132.2 77.4 133.9 79.1 132.9 81.2 131.2 82.8 128.7"/><polygon class="cls-9" points="62.8 123.7 62.3 124.6 61.5 125.2 62.1 124.9 62.9 124.2 63.4 123.3 63.8 122.2 63.9 121 63.3 121.6 63.2 122.6 62.8 123.7"/><polygon class="cls-7" points="17.1 82.9 16.3 83 15.6 82.9 14.8 82.7 14 82.3 13.4 81.9 13.3 81.9 12.7 81.3 12.2 80.7 11.9 80 11.6 79.3 11.6 78.6 11.7 77.9 11.9 77.2 12.3 76.7 12 77 11.2 77.9 11.2 78 11 78.2 10.7 78.5 10.5 79.2 10.3 79.9 10.4 80.6 10.6 81.3 10.9 82 11.4 82.6 12 83.2 12.7 83.6 13.4 83.9 14.2 84.1 15 84.2 15.8 84.1 16.5 83.9 17.2 83.5 17.7 83.1 18 82.7 17.5 83.2 18.3 82.5 18.3 82.4 18.4 82.3 17.8 82.7 17.1 82.9"/><polygon class="cls-14" points="34.4 57.4 34.7 58.2 35 58.9 35.5 59.6 36 60.2 36.5 60.6 37.1 60.9 37.7 61 38.2 61 38.8 60.8 39.2 60.4 39.6 60 39.9 59.3 40.1 58.6 40.2 57.9 40.2 57.1 40 56.2 39.8 55.4 39.4 54.7 39 54 38.5 53.5 37.9 53 37.4 52.7 36.8 52.6 36.2 52.6 35.7 52.8 35.2 53.2 34.8 53.7 34.5 54.3 34.3 55 34.3 55.7 34.3 56.6 34.4 57.4"/><polygon class="cls-15" points="28.2 42.6 28.4 44.5 28.8 45.8 29 46.3 29.9 48.1 31.1 49.8 32.7 51.5 33.4 52.2 33.5 52 34 51.4 34.1 51.2 34.9 50.7 35.3 50.5 35.7 50.4 37.4 49.9 38.1 49.9 38.3 49.9 38.3 49.9 38.5 48.8 39.7 42.2 40.5 38.4 41.5 32.9 41.8 31 42.1 29.4 42.4 27.9 42.3 27.9 42 27.6 42 27.5 41.7 27.1 41.6 26.8 41.5 26.3 41.5 26.2 41.5 25.7 41.7 25.2 41.9 24.9 42.2 24.5 42.6 24.2 42.9 24 43.3 23.9 43.7 23.8 44.1 23.9 44.3 23.9 44.6 24 44.9 24.1 45.2 24.4 45.4 24.5 45.5 24.6 45.8 25.1 45.9 25.4 46 25.6 46 25.9 46 26.5 45.8 27 45.6 27.3 45.4 27.8 44.9 28.1 44.6 28.2 44.4 28.3 44.2 29.5 43.6 32.7 43.6 32.8 42.4 39.2 41.6 43.5 40.2 50.8 40.5 50.9 40.9 51.2 41.6 52 42.3 53.1 42.5 53.6 42.8 54.2 43.2 55.5 43.5 56.7 43.5 57.4 43.5 58 43.4 58.5 44.4 58.9 47.4 60 50.5 61 53.8 61.9 57.2 62.6 58.3 62.8 60.7 63.1 64.2 63.4 67.8 63.5 71.3 63.5 73.4 63.4 74.7 63.2 78.1 62.7 81.3 62.1 83.1 61.6 84.4 61.2 87.3 60 89.9 58.7 92.3 57.1 94.4 55.4 95.2 54.6 96.2 53.5 97.7 51.4 98.8 49.3 99.2 48.5 99.6 47.1 100.1 44.8 100.2 42.6 100 40.4 99.5 38.3 99.3 37.7 99.1 37 99 36.8 98.8 36.3 98.5 35.6 98.2 34.8 98.2 34.8 97.8 34.1 97.4 33.5 97.4 33.5 97.1 32.8 96.8 32.3 96.5 31.9 96.5 31.8 96.4 31.6 96.2 31.4 96.2 31.3 96 30.9 96 30.9 95.8 30.5 95.7 30.4 95.6 30.2 95.3 29.8 95 29.2 94.5 28.3 94 27.4 93.5 26.5 93.4 26.3 92.7 25.3 92.5 24.9 91.9 24.2 91.2 23.3 91.1 23.2 90.3 22.4 90 22.1 89.1 21.1 87.8 19.7 86.2 18 84.9 16.8 83.5 15.7 81.8 14.6 80 13.7 78 12.8 75 11.7 73.3 11.1 71.6 10.6 69.8 10.3 68 10 66.1 9.9 64.2 9.8 62.3 9.9 60.5 10 58.6 10.3 56.8 10.6 55.1 11.1 53.5 11.7 50.4 12.8 48.4 13.7 46.6 14.6 45 15.7 43.5 16.8 42.3 18 37.2 23.3 35.9 24.9 34.9 26.5 30.3 34.8 29.4 36.8 28.8 39 28.3 40.7 28.2 42.6"/></svg>