<svg id="Layer_1" data-name="Layer 1" xmlns="http://www.w3.org/2000/svg" viewBox="0 0 124.1 153.1"><defs><style>.cls-1{fill:#ededf4;}.cls-2{fill:none;}.cls-3{fill:#b5b5c1;}.cls-4{fill:#d9d9df;}.cls-5{fill:#9399a8;}.cls-6{fill:#46bbed;}.cls-7{fill:#7b7a88;}.cls-8{fill:#605e73;}.cls-9{fill:#43434b;}.cls-10{fill:#9491a4;}.cls-11{fill:#4b3a2d;}.cls-12{fill:#6d5c46;}.cls-13{fill:#5e5c6a;}.cls-14{fill:#2affff;}.cls-15{fill:#54d9ff;opacity:0.5;}</style></defs><rect class="cls-1" x="-494.8" y="-575.5" width="1000" height="800"/><polygon class="cls-2" points="41 97 37.4 99.5 37.4 99.5 37.5 100.2 37.3 100.3 37.2 100.8 43.9 100.8 43.4 96.9 41 97"/><polygon class="cls-2" points="9.5 37.3 7.8 36.8 9.5 37.3 9.5 37.3"/><polygon class="cls-2" points="71.6 60.7 71.9 60.5 72.5 60 72.8 59.8 71.9 60.5 71.6 60.7"/><polygon class="cls-2" points="68.2 45.6 68 45.6 67.7 43.9 68 45.6 66.9 45.7 67.1 45.7 68.2 45.6"/><polygon class="cls-2" points="73.7 49.3 73.7 49.3 73.7 49.3 73.7 49.3"/><polygon class="cls-2" points="77.2 49.4 75.5 49.4 75.5 49.4 75.5 49.4 77.2 49.4"/><polygon class="cls-2" points="70.5 49.2 71 49.2 71.6 49.2 72.2 49.2 71 49.2 70.5 49.2"/><polygon class="cls-2" points="68.4 50.2 67.9 50.7 67.9 50.7 68.4 50.2"/><polygon class="cls-2" points="69.7 48.1 69 48.2 69.4 48.1 70.1 48 69.7 48.1"/><polygon class="cls-2" points="101.1 59.6 100.8 59.3 101 59.5 101.1 59.6"/><polygon class="cls-3" points="70.2 57.7 69.7 57.6 69.1 57.3 68.6 56.8 68.1 56.2 67.7 55.5 67.5 54.7 67.3 53.9 67.3 53 67.4 52.2 67.5 51.4 67.8 50.7 67.8 50.7 67.9 50.7 67.9 50.7 68.3 50.2 68.8 49.7 69.3 49.4 69.9 49.2 70.3 49.2 70.5 49.2 71 49.2 72.2 49.2 72.5 49.3 72.2 48.9 71.5 48.4 70.8 48.1 70.1 48 69.4 48.1 68.7 48.4 68.1 48.9 67.5 49.6 67.1 50.4 66.8 51.3 66.7 52.3 66.7 53.3 66.8 54.3 67.1 55.3 67.5 56.2 68 57 68.6 57.7 69.3 58.1 70 58.4 70.7 58.5 71.5 58.4 72.1 58.1 72.5 57.8 72.3 57.8 71.4 57.8 70.2 57.7"/><polygon class="cls-4" points="63.4 53.4 63.9 53.4 64.4 53.4 64.9 53.3 65.4 53.3 65.8 53.3 66.3 53.3 66.7 53.3 66.7 52.3 66.8 51.3 67.1 50.4 67.5 49.6 68.1 48.9 68.7 48.4 69.4 48.1 69 48.2 69.7 48.1 70.1 48 70.8 48.1 71.5 48.4 72.2 48.9 72.5 49.3 72.9 49.3 73.3 49.3 73.5 49.3 73.6 49.3 73.7 49.3 73.7 49.3 73.4 48.8 73 48.2 72.9 48 72 47 71 46.3 70.7 46.2 70.6 46.2 69.6 45.7 68.5 45.6 68.2 45.6 67.1 45.7 66.9 45.7 65.8 46.2 65.3 46.6 64.9 46.9 64.1 47.9 63.5 49.1 63.4 49.4 63 50.5 62.7 51.9 62.7 52 62.6 53.5 63 53.5 63.4 53.4"/><polygon class="cls-5" points="68.6 43.8 70.2 43.4 70.4 43.3 69.5 43.4 68.6 43.3 67.7 42.9 66.8 42.3 65.9 41.5 65.2 40.5 64.6 39.3 64.1 38.1 62.3 38.6 62.8 39.9 63.2 40.5 63.4 41 64.2 42 64.7 42.6 65 42.8 65.9 43.5 66.8 43.8 67.2 43.9 67.7 43.9 67.8 44 68.6 43.8"/><path class="cls-3" d="M65.6,30.7l-.7.6-.5.8-.4,1-.3,1.1v2.6l.3,1.3.5,1.2.6,1.2.7,1,.9.8.9.6.9.4h1.6l-1.6.4-.8.2h-.1l.3,1.7h1.6l1,.5H71l1,.7.9,1v.2l.4.6.3.5h6.6v-.6l-1.8-7.7-.2-.3h-.6l-.9-.2-1.3-.2-1.6-.2h-1l.2-1.2V36.8l-.4-1.3-.4-1.3-.6-1.1-.8-1-.8-.8-.9-.6-.9-.4H66.4Zm1.5,1.9h1.1l.6.2.6.4.6.5.4.7.4.7.4.8.2.9v2.4l-.3.6-.4.6-.4.4-.5.2H68.5l-.6-.2-.6-.4-.5-.6-.5-.6-.4-.8-.3-.8-.2-.8V34.4l.3-.7.3-.5.5-.4Z"/><polygon class="cls-3" points="18.8 126.1 19.2 126.2 19.4 126.2 20.1 126.3 20.8 126.3 22 126.2 22.4 126.2 23.2 126 24 125.8 24.4 125.6 25.2 125.3 25.6 125.1 25.7 125 26.2 124.8 26.3 124.8 27.1 124.4 27.4 124.3 27.7 124.2 27.9 124.1 28.7 123.8 29.5 119.9 31.3 115 33.7 110.6 36.6 107.1 39.9 104.4 43.5 102.8 44.2 102.7 44.1 101.8 44 101.2 43.9 100.9 43.9 100.8 37.2 100.8 36.2 100.8 32.3 101.4 31.5 101.5 27.8 103.3 27.1 103.7 25.1 105.3 23.7 106.4 22 108.6 20.8 110.1 18.3 114.5 18.1 115 16.3 119.9 15.5 123.8 15.5 124.2 15.6 124.3 15.9 124.8 16.2 125 16.3 125.1 16.6 125.3 17.7 125.8 18.3 125.9 18.4 126 18.8 126.1"/><polygon class="cls-3" points="60.9 4.5 61.2 4.5 61.4 4.5 61.7 4.4 61.9 4.2 62 4.3 62.3 4.4 62.5 4.4 62.7 4.4 62.9 4.3 63 4.3 63 4.3 63 4.3 63.1 4.2 63.6 3.7 63.8 3.2 64 2.6 64 2 63.8 1.4 63.5 0.9 63 0.5 62.9 0.4 62.4 0.1 61.8 0 61.7 0 61.5 0 61.3 0 61 0.1 60.8 0.1 60.7 0.2 60.2 0.5 60.1 0.6 59.7 1 59.4 1.5 59.3 2.1 59.3 2.7 59.5 3.3 59.8 3.8 60.3 4.3 60.4 4.3 60.9 4.6 60.9 4.6 60.9 4.6 60.9 4.5"/><polygon class="cls-5" points="103.7 75.3 104.2 75.6 104.7 75.6 105.3 75.6 106 75.5 106.7 75.2 107.4 74.8 108.1 74.3 108.8 73.8 109.3 73.2 109.8 72.6 110.2 71.9 110.4 71.3 110.5 70.8 110.4 70.3 110.2 69.8 109.2 68.6 107.3 66.2 107.5 66.6 107.6 67.1 107.5 67.7 107.3 68.3 106.9 68.9 106.4 69.5 105.9 70.1 105.2 70.7 104.5 71.1 103.8 71.5 103.1 71.8 102.4 71.9 101.8 72 101.3 71.9 100.8 71.7 100.5 71.4 102.5 73.9 103.4 75 103.7 75.3"/><polygon class="cls-6" points="62.5 26.4 62.5 27 62.6 28 62.8 29.1 62.8 29.2 62.9 30.3 63 31.4 63 32 63.1 31.8 63.3 31.7 63.3 31.4 63.2 31.3 63.2 31.1 63.2 30.3 63.1 29.4 63.1 29.2 63 28.6 63 28.3 62.6 26.4 62.3 25.6 62.4 26.1 62.5 26.4"/><polygon class="cls-7" points="73.6 49.3 73.5 49.3 73.3 49.3 72.9 49.3 72.5 49.3 72.2 49.2 71.6 49.2 71 49.2 70.5 49.2 70.3 49.2 69.9 49.2 69.3 49.4 68.8 49.7 68.3 50.2 67.9 50.7 68.4 50.2 67.9 50.7 67.8 50.7 67.8 50.7 67.5 51.4 67.4 52.2 67.3 53 67.3 53.9 67.5 54.7 67.7 55.5 68.1 56.2 68.6 56.8 69.1 57.3 69.7 57.6 70.2 57.7 71.4 57.8 72.3 57.8 71.8 57.6 71.4 57.3 71.1 56.9 70.9 56.3 70.9 56.1 70.9 55.6 70.9 54.8 71.1 54 71.4 53.2 71.8 52.4 72.2 51.6 72.7 50.9 73.3 50.3 73.7 50 73.9 49.9 74.5 49.6 75.1 49.4 75.1 49.4 75.6 49.4 75.5 49.4 75.5 49.4 75 49.4 73.7 49.3 73.7 49.3 73.6 49.3"/><polygon class="cls-7" points="73 39.3 72.8 40.5 72.8 40.6 73.8 40.6 75.4 40.8 76.7 41 77.6 41.2 77.8 41.3 78.2 41.4 78.4 41.7 77.7 38.4 77.5 38.2 77.1 38.1 76.9 38 76 37.7 74.7 37.5 73.1 37.4 73 37.4 73.1 38.1 73 39.3"/><polygon class="cls-8" points="43.3 96.6 43.4 96.8 43.4 96.9 43.4 96.9 43.9 100.8 43.9 100.9 44 101.2 44.1 101.8 44.2 102.7 44.3 103.7 44.5 104.6 44.5 104.9 44.7 106.2 46.7 121 50.4 121 46.5 93 43.1 94.6 43.1 95.1 43.3 96.4 43.3 96.6 43.3 96.6"/><polygon class="cls-7" points="37.4 99.5 37.4 99.5 37.7 97.6 37.8 96.9 32.2 96.6 29.2 96 24.4 95.1 23.6 94.8 25.1 105.3 27.1 103.7 27.8 103.3 31.5 101.5 32.3 101.4 36.2 100.8 37.2 100.8 37.3 100.3 37.4 99.5"/><polygon class="cls-9" points="37.5 100.2 37.4 99.5 37.3 100.3 37.5 100.2"/><polygon class="cls-5" points="44.5 104.9 44.5 104.6 44.3 103.7 44.2 102.7 43.5 102.8 39.9 104.4 36.6 107.1 33.7 110.6 31.3 115 29.5 119.9 28.7 123.8 28.9 123.7 29.2 123.6 30 123.3 31.2 123.1 31.2 123 31.4 123 32.2 122.9 32.2 122.9 33 122.9 38.5 122.9 38.8 122.9 41 127.2 41.5 128.2 41.6 128.3 42 129.1 42.8 130.2 43.8 131.2 44.8 132 45.9 132.6 47 132.9 48.1 133 49 133 48.9 132.9 48.3 132.5 47.8 131.9 47.5 131.3 47.3 131.2 46.9 130.9 46.5 130.5 46.3 130.1 46.1 129.5 45.9 128.9 45.9 128.3 45.9 127.7 46.1 127.1 46.3 126.5 46.5 126.1 46.7 125.8 46.7 121 44.7 106.2 44.5 104.9"/><polygon class="cls-8" points="45.9 128.9 46.1 129.5 46.3 130.1 46.5 130.5 46.9 130.9 47.3 131.2 47.5 131.3 47.8 131.9 48.3 132.5 48.9 132.9 49 133 49.6 133.2 50.3 133.3 52.9 133.3 53.9 133.3 53.2 133.2 52.6 132.9 51.9 132.5 51.4 131.9 51 131.1 50.6 130.2 50.4 129.3 50.4 128.3 46.7 128.3 45.9 128.3 45.9 128.9"/><polygon class="cls-10" points="46.3 126.5 46.1 127.1 45.9 127.7 45.9 128.3 46.7 128.3 46.7 127.7 46.7 127.1 46.7 126.5 46.7 126.1 46.7 125.8 46.5 126.1 46.3 126.5"/><path class="cls-7" d="M59.4,93.6l-5.5.5-5.5-.5L46.5,93l3.9,28H46.7v7.3h3.7v1l.2.9.4.9.4.8.5.6.7.4.6.3h1.4l.7-.3.6-.4.3-.4.2-.2.5-.8.3-.9.2-.9h0V121l1.3-9.5.2-1.2v-1.7l2.1-15.1V93Zm-5.5,37.9h-.4l-.4-.2-.4-.3-.4-.4-.2-.5-.2-.5-.2-.6v-1.2l.2-.6.2-.6.2-.4.4-.4.4-.3.4-.2h1.3l-.4.2-.4.3-.3.4-.3.4-.2.6v2.4l.2.5.3.5.3.4.4.3.4.2h-.9Z"/><polygon class="cls-11" points="52.2 134.5 51.2 135.6 50.1 136.4 49 136.9 47.8 137.1 47.2 137.1 46 136.9 44.8 136.4 43.7 135.6 42.8 134.5 42 133.2 41.4 131.7 41.1 130 40.9 128.3 41 127.2 38.8 122.9 38.5 122.9 38.4 123.2 37.9 125.7 37.7 128.3 37.9 130.9 38.4 133.4 39.3 135.7 40.5 137.7 41.9 139.4 43.6 140.6 45.3 141.4 47.2 141.7 49 141.4 50.8 140.6 52.4 139.4 53.9 137.7 55 135.7 55.9 133.4 56.2 132.1 55.9 132.5 55.3 132.9 54.6 133.2 53.9 133.3 52.9 133.3 52.2 134.5"/><polygon class="cls-9" points="37.4 99.5 41 97 40.6 97.1 38.6 96.9 37.8 96.9 37.7 97.6 37.4 99.5"/><polygon class="cls-9" points="71.7 83.9 70.9 86 68 88.5 66.8 89.6 65.6 90.2 58.2 91.5 52.2 90.4 51.6 90.4 50.9 90.5 50.7 90.5 50.1 90.5 49.4 90.7 48.7 90.9 48.1 91.3 46.2 92.7 40.6 95.1 40.1 95.1 39.6 95.2 39.4 95.3 39.3 95.5 39.4 95.6 39.7 95.8 40.1 95.9 40.6 96 43.3 96.4 43.1 95.1 43.1 94.6 46.5 93 48.4 93.6 53.9 94.1 59.4 93.6 61.4 93 61.3 93.5 63.5 92.7 68.7 89.6 71.9 86 73 82.1 72.4 82.1 71.7 83.9"/><polygon class="cls-3" points="60.7 110.6 60.4 110.1 59.2 108.6 59.2 108.8 60.7 110.6"/><polygon class="cls-5" points="59.1 109.3 59 110.3 58.8 111.5 57.5 121 57.5 123 57.5 122.9 61.3 122.9 62 122.9 62.4 122.9 62.6 122.9 64 122.9 64.2 122.9 64.7 123 64.8 123 64.9 123.1 65.3 123.3 65.4 123.4 65.6 123.8 64.8 119.9 63.1 115 60.7 110.6 59.2 108.8 59.1 109.3"/><polygon class="cls-8" points="25.1 105.3 23.6 94.8 19.8 93.5 22 108.6 23.7 106.4 25.1 105.3"/><path class="cls-5" d="M24.4,95.1h1.7l.7.2h.8l.6.2h1l3,.6,5.6.3h.8l2,.2h2.8v-.2h0v-.2L40.6,96h-.9l-.3-.2h-.1v-.2h1.2l5.6-2.4,1.9-1.4.6-.4.7-.2.7-.2h2.1l6,1.1,7.4-1.3,1.2-.6,1.2-1L70.9,86l.8-2.1.7-1.8H8.1L9.3,86l3.2,3.6,5.1,3.1,2.2.8,3.8,1.3Z"/><polygon class="cls-5" points="79.4 71.8 79.1 72.5 78.9 73.1 78.7 73.7 78.6 74.2 78.5 74.5 78.4 74.7 78.4 74.8 80.3 74.8 80.8 74.7 81.3 74.5 81.8 74.2 82.2 73.7 82.5 73.1 82.8 72.5 82.9 71.8 83 71 79.6 71 79.4 71.8"/><polygon class="cls-4" points="80.3 67.5 80.2 67.9 80.1 68.4 80 68.9 79.9 69.6 79.8 70.3 79.8 70.5 79.6 71 83 71 82.9 70.3 82.8 69.6 82.5 68.9 82.2 68.4 81.8 67.9 81.3 67.5 80.8 67.3 80.3 67.3 80.3 67.3 80.3 67.3 80.3 67.5"/><polygon class="cls-9" points="66.4 30.3 67.4 30.3 63 4.3 63 4.3 62.9 4.3 62.7 4.4 62.5 4.4 62.3 4.4 62 4.3 61.9 4.2 61.7 4.4 61.4 4.5 61.2 4.5 60.9 4.5 60.9 4.6 60.9 4.6 65.3 30.6 66.3 30.3 66.4 30.3"/><polygon class="cls-4" points="63 32 62.9 32.1 62.6 32.6 62.5 32.9 62.2 33.6 62 34.8 61.9 35 61.9 36 61.9 36.3 62 37.3 62 37.3 62.3 38.6 64.1 38.1 63.8 36.8 63.7 35.5 63.7 34.2 64 33.1 64.4 32.1 64.9 31.3 65.6 30.7 66.4 30.3 66.3 30.3 65.3 30.6 64.6 30.8 63.8 31.2 63.3 31.7 63.1 31.8 63 32"/><polygon class="cls-3" points="65.3 123.3 64.9 123.1 64.8 123 64.7 123 64.2 122.9 64 122.9 62.6 122.9 62.7 123.7 62.8 125 62.9 125.9 63.4 125.8 64.6 125.3 64.9 125.1 65 125 65.3 124.8 65.6 124.3 65.6 124.2 65.6 123.8 65.4 123.4 65.3 123.3"/><polygon class="cls-12" points="62.7 123.7 62.6 122.9 62.4 122.9 62 122.9 61.3 122.9 57.5 122.9 57.5 123 57.5 127.7 57.5 128.3 57.5 128.9 57.4 129.2 57.4 129.3 57.2 130.2 56.9 131.1 56.4 131.9 56.2 132.1 55.9 133.4 55 135.7 53.9 137.7 52.4 139.4 50.8 140.6 49 141.4 47.2 141.7 45.3 141.4 43.6 140.6 41.9 139.4 40.5 137.7 39.3 135.7 38.4 133.4 37.9 130.9 37.7 128.3 37.9 125.7 38.4 123.2 38.5 122.9 33 122.9 32.2 122.9 32.2 122.9 31.4 123 31.2 123 31.2 123.1 30 123.3 29.2 123.6 28.9 123.7 28.7 123.8 27.9 124.1 27.7 124.2 27.4 124.3 27.1 124.4 26.8 128.3 27.2 133.1 28.2 137.8 29.8 142.1 32 145.8 34.6 148.9 37.6 151.2 40.9 152.6 44.4 153.1 47.8 152.6 48.5 152.5 51.8 151.1 52.3 150.7 55.3 148.5 57.9 145.5 58.2 145 60.2 141.4 61.8 137.3 62.7 132.9 63.1 128.3 62.9 125.9 62.8 125 62.7 123.7"/><polygon class="cls-8" points="41.1 130 41.4 131.7 42 133.2 42.8 134.5 43.7 135.6 44.8 136.4 46 136.9 47.2 137.1 47.8 137.1 46.5 136.9 45.4 136.4 44.3 135.6 43.3 134.5 42.6 133.2 42 131.7 41.6 130 41.5 128.3 41.6 128.3 41.5 128.2 41 127.2 40.9 128.3 41.1 130"/><polygon class="cls-11" points="37.6 151.2 34.6 148.9 32 145.8 29.8 142.1 28.2 137.8 27.2 133.1 26.8 128.3 27.1 124.4 26.3 124.8 26 128.3 26.3 133.1 27.3 137.8 29 142.1 31.1 145.8 33.8 148.9 36.8 151.2 40.1 152.6 43.5 153.1 44.4 153.1 40.9 152.6 37.6 151.2"/><polygon class="cls-7" points="41.6 130 42 131.7 42.6 133.2 43.3 134.5 44.3 135.6 45.4 136.4 46.5 136.9 47.8 137.1 49 136.9 50.1 136.4 51.2 135.6 52.2 134.5 52.9 133.3 50.3 133.3 49.6 133.2 49 133 48.1 133 47 132.9 45.9 132.6 44.8 132 43.8 131.2 42.8 130.2 42 129.1 41.6 128.3 41.5 128.3 41.6 130"/><polygon class="cls-3" points="18.1 4.5 18.3 4.5 18.6 4.5 18.7 4.6 19 4.7 19.2 4.7 19.4 4.7 19.7 4.6 19.8 4.6 20.3 4.3 20.5 4.3 20.9 3.8 21.2 3.3 21.4 2.7 21.4 2.1 21.3 1.5 21 1 20.9 0.9 20.5 0.5 20 0.2 19.9 0.1 19.7 0.1 19.4 0 19.2 0 19 0 18.9 0 18.3 0.1 18.2 0.2 17.7 0.5 17.2 0.9 16.9 1.4 16.7 2 16.7 2.6 16.9 3.2 17.2 3.7 17.2 3.8 17.6 4.3 17.7 4.3 17.9 4.4 18.1 4.5"/><polygon class="cls-8" points="54.4 131.2 54 130.9 53.7 130.5 53.4 130.1 53.2 129.5 53.1 128.9 53.1 128.3 51.7 128.3 51.7 128.9 51.9 129.5 52.1 130.1 52.3 130.5 52.7 130.9 53.1 131.2 53.5 131.4 53.9 131.5 55.3 131.5 54.8 131.4 54.4 131.2"/><polygon class="cls-10" points="53.1 127.7 53.2 127.1 53.4 126.5 53.7 126.1 54 125.7 54.4 125.4 54.8 125.2 55.3 125.1 53.9 125.1 53.5 125.2 53.1 125.4 52.7 125.7 52.3 126.1 52.1 126.5 51.9 127.1 51.7 127.7 51.7 128.3 53.1 128.3 53.1 127.7"/><polygon class="cls-12" points="27.1 148.9 24.4 145.8 22.2 142.1 20.6 137.8 19.6 133.1 19.3 128.3 19.4 126.2 19.2 126.2 18.8 126.1 18.4 126 18.3 125.9 18.1 128.3 18.4 132.9 19.4 137.3 20.9 141.4 21.1 141.8 23.3 145.5 25.9 148.5 28.8 150.7 29.4 151.1 32.7 152.5 33.4 152.6 30.1 151.2 27.1 148.9"/><polygon class="cls-11" points="30.8 151.2 27.8 148.9 25.1 145.8 23 142.1 21.3 137.8 20.3 133.1 20 128.3 20.1 126.3 19.4 126.2 19.3 128.3 19.6 133.1 20.6 137.8 22.2 142.1 24.4 145.8 27.1 148.9 30.1 151.2 33.4 152.6 36.8 153.1 37.5 153.1 34.1 152.6 30.8 151.2"/><polygon class="cls-12" points="36.8 151.2 33.8 148.9 31.1 145.8 29 142.1 27.3 137.8 26.3 133.1 26 128.3 26.3 124.8 26.2 124.8 25.7 125 25.6 125.1 25.2 125.3 24.4 125.6 24.2 128.3 24.6 133.1 25.6 137.8 27.2 142.1 29.4 145.8 32 148.9 35.1 151.2 38.3 152.6 41.8 153.1 43.5 153.1 40.1 152.6 36.8 151.2"/><polygon class="cls-12" points="32.7 151.2 29.7 148.9 27 145.8 24.8 142.1 23.2 137.8 22.2 133.1 21.9 128.3 22 126.2 20.8 126.3 20.1 126.3 20 128.3 20.3 133.1 21.3 137.8 23 142.1 25.1 145.8 27.8 148.9 30.8 151.2 34.1 152.6 37.5 153.1 39.4 153.1 36 152.6 32.7 151.2"/><polygon class="cls-11" points="35.1 151.2 32 148.9 29.4 145.8 27.2 142.1 25.6 137.8 24.6 133.1 24.2 128.3 24.4 125.6 24 125.8 23.2 126 22.4 126.2 22 126.2 21.9 128.3 22.2 133.1 23.2 137.8 24.8 142.1 27 145.8 29.7 148.9 32.7 151.2 36 152.6 39.4 153.1 40.6 153.1 41.8 153.1 38.3 152.6 35.1 151.2"/><polygon class="cls-9" points="123.7 79.5 123.1 78.4 122.3 77.3 121.2 76.1 120 74.9 118.7 73.7 117.3 72.6 115.9 71.6 114.6 70.7 113.3 70.1 112.2 69.7 111.2 69.5 111 69.5 110.9 69.3 111.1 69.8 111.2 70.4 111.1 71.1 110.8 71.8 110.4 72.6 109.8 73.3 109.2 74.1 108.4 74.7 107.6 75.3 106.7 75.7 105.9 76.1 105 76.2 104.3 76.3 103.6 76.2 103.1 75.9 102.7 75.6 103.9 77 102.2 79 102 79.5 102.1 80.2 102.4 81.1 103 82.1 103.8 83.3 104.8 84.5 106 85.7 107.3 86.9 108 86.1 110.2 83.6 110.2 83.7 111 84.4 111.8 85.1 112.4 85.9 112.9 86.6 113.3 87.2 113.5 87.8 113.5 88.2 113.4 88.5 116 90.8 123.8 81.6 124.1 81.1 124 80.3 123.7 79.5"/><polygon class="cls-13" points="103.6 76.2 104.3 76.3 105 76.2 105.9 76.1 106.7 75.7 107.6 75.3 108.4 74.7 109.2 74.1 109.8 73.3 110.4 72.6 110.8 71.8 111.1 71.1 111.2 70.4 111.1 69.8 110.9 69.3 110.5 68.9 110 68.7 109.4 68.6 109.2 68.6 110.2 69.8 110.4 70.3 110.5 70.8 110.4 71.3 110.2 71.9 109.8 72.6 109.3 73.2 108.8 73.8 108.1 74.3 107.4 74.8 106.7 75.2 106 75.5 105.3 75.6 104.7 75.6 104.2 75.6 103.7 75.3 103.4 75 102.5 73.9 102.4 74.4 102.5 75 102.7 75.6 103.1 75.9 103.6 76.2"/><polygon class="cls-9" points="16.5 30.8 15.7 30.6 19.7 4.6 19.4 4.7 19.2 4.7 19 4.7 18.7 4.6 18.6 4.5 18.3 4.5 18.1 4.5 17.9 4.4 17.7 4.3 13.7 30.3 12.9 30.3 14.5 30.8 16.5 30.8"/><polygon class="cls-3" points="13.5 31.2 12.5 31.8 11.7 32.6 10.9 33.6 10.2 34.8 9.8 36 9.5 37.3 9.9 37.3 12.1 37.3 14.5 37.3 17.2 37.3 18.8 37.3 18.1 35 17.8 32.1 17.9 31.6 17.4 31.2 16.5 30.8 14.5 30.8 13.5 31.2"/><polygon class="cls-9" points="18.1 35 18.8 37.3 18.9 37.8 19.2 38.5 19.8 39.8 20.5 39.8 21.1 39.8 22.5 39.7 22.9 39.7 25.8 39.5 26.3 39.4 29.7 39.2 30.1 39.2 31.1 39.2 33.3 39 35.1 38.8 36.9 38.6 40.6 38.4 44.2 38.2 46.2 38.1 46.7 38.1 47.8 38 50.3 37.8 51.3 37.7 51.4 37.7 54.7 37.5 56 37.5 58 37.4 59.5 37.4 61.1 37.3 61.7 37.3 62 37.3 61.9 36.3 61.9 36 61.9 35 62 34.8 62.2 33.6 62.5 32.9 62.6 32.6 62.9 32.1 63 32 63 31.4 62.9 30.3 62.8 29.2 62.8 29.1 62.6 28 62.5 27 62.5 26.4 62.4 26.1 62.3 25.6 61.6 23.7 60.2 21.4 59.4 20.5 58.7 20.5 56.8 20.5 53.9 20.5 50 20.5 45.4 20.5 40.6 20.5 35.7 20.5 31.2 20.5 27.3 20.5 24.3 20.5 22.4 20.5 21.8 20.5 21 21.4 19.6 23.7 18.6 26.4 18 29.2 17.9 31.6 17.8 32.1 18.1 35"/><polygon class="cls-4" points="4 39 4.6 39.2 4.9 39.2 6.1 39.4 7.6 39.7 8.7 39.8 9.4 39.8 9.6 39.8 11.6 39.9 14.1 40 15.8 39.9 16.8 39.9 19.8 39.8 19.8 39.8 19.2 38.5 18.9 37.8 18.8 37.3 17.2 37.3 14.5 37.3 12.1 37.3 9.9 37.3 9.5 37.3 9.8 36 10.2 34.8 10.9 33.6 11.7 32.6 12.5 31.8 13.5 31.2 14.5 30.8 12.9 30.3 11.9 30.7 10.9 31.3 10 32.1 9.3 33.1 8.6 34.2 8.1 35.5 7.8 36.8 9.5 37.3 9.5 37.3 7.8 36.8 7.8 37.4 6.5 37.5 5.2 37.7 4.3 38 4.1 38.1 3.7 38.2 3.5 38.4 3.6 38.6 4 39"/><polygon class="cls-7" points="101.3 71.9 101.8 72 102.4 71.9 103.1 71.8 103.8 71.5 104.5 71.1 105.2 70.7 105.9 70.1 106.4 69.5 106.9 68.9 107.3 68.3 107.5 67.7 107.6 67.1 107.5 66.6 107.3 66.2 106.7 65.4 104.9 63.3 104.1 62.4 104.3 62.8 104.3 63.3 104.2 63.8 103.9 64.4 103.6 65.1 103.1 65.7 102.5 66.3 101.9 66.8 101.2 67.3 100.5 67.7 99.8 68 99.1 68.2 98.6 68.2 98 68.2 97.6 68 98.7 69.1 98.4 68.8 100 70.7 100.5 71.4 100.8 71.7 101.3 71.9"/><polygon class="cls-5" points="98.6 68.2 99.1 68.2 99.8 68 100.5 67.7 101.2 67.3 101.9 66.8 102.5 66.3 103.1 65.7 103.6 65.1 103.9 64.4 104.2 63.8 104.3 63.3 104.3 62.8 104.1 62.4 103 61.3 102.7 61 100.8 59.2 100.8 59.3 101.1 59.6 101 59.5 101.1 59.9 101.1 60.4 101 60.9 100.7 61.5 100.3 62.1 99.9 62.8 99.3 63.4 98.7 63.9 98 64.4 97.3 64.8 96.6 65.2 96 65.4 95.4 65.5 94.9 65.4 94.6 65.3 95.4 65.9 97 67.4 97.1 67.4 97.6 68 98 68.2 98.6 68.2"/><polygon class="cls-7" points="86.5 60.1 87 59.8 87.6 59.4 88.2 58.9 88.8 58.3 89.5 57.7 90.1 57 90.7 56.4 90.7 56.4 90.8 56.2 91.1 55.7 91.5 55.1 91.8 54.6 92 54.2 92 53.9 91.9 53.7 90.4 53 90.1 52.8 88 52 86 51.4 84.7 51 84.7 51 84.5 51.2 84.3 51.4 84.2 51.5 83.8 51.9 83.4 52.5 82.8 53.1 82.3 53.8 81.7 54.4 81.7 54.5 81 55.2 80.5 56 79.9 56.6 79.4 57.2 79.1 57.7 78.8 58.1 78.8 58.1 78.7 58.1 78.6 58.3 78.5 58.4 78.7 58.4 79.2 58.5 80.1 58.7 80.3 58.8 80.7 58.8 80.9 58.9 82 59.1 83.7 59.6 85.4 60.2 85.8 60.3 86.1 60.3 86.5 60.1"/><path class="cls-3" d="M80.3,58.8h-.2l-.9-.2H74l-.5.9-.7,1-.3.2-.6.5-.3.2-1,.4h-.3l-1,.2h-.1l-1.1-.2L67,60.8h-.2l-.6-.4-.3-.2-1.1-1L64,57.9l-.7-1.3-.4-1.5V52h0l.3-1.4.4-1.1v-.3l.6-1.2.8-1,.4-.3.5-.4,1.1-.5H68l-.3-1.7h-.9l-.9-.3-.9-.7-.3-.2-.5-.6-.8-1-.2-.5H58.3l-3.3.2-3.5.2-3.6.2H44.3l-3.7.3-3.7.2-3.7.3-2.3.3H29.5l-3.5.2-3.4.2-1.3.2H7.7l-.8-.2-1.5-.2-1.3-.2H3.8l-.5-.3-.5-.3v-.2L.9,49.4,0,61.8l1.4,8.7,2.3,6.9H77.5l.9-2.6h0v-.2l.2-.3v-.5l.2-.6.2-.6.3-.7.2-.8.2-.5V67.3h0l.9-5.5-.3-2.9h-.6ZM8.6,73.7l-.5.4H6.8l-.6-.3h0l-.7-.6-.6-.7h0l-.6-.9-.4-.9v-.2l-.3-1.2-.2-1.2-.7-6.1.5-10.1.2-1.3V49.2L4,48.1l.4-.7v-.2l.6-.8.6-.6.6-.4H7.5l.6.4.2.2.4.4.4.8.3.9.2,1.1v2.5L9.2,61.8l.7,6.1v3.5l-.2.9-.4.8-.3.4Zm17-1.4-.7.8-.8.6H24l-1,.4H20.7l-1.1-.4h-.2l-.9-.5-.9-.8-.9-.9-.6-.9v-.2l-.4-1.2h-.1l-.2-1.1-.6-6.1.5-10.1.2-1.3h0l.3-1v-.2l.7-1.1.8-.9.9-.8.9-.6h.1l1.1-.4h2.2l1.1.4.9.6.8.8.4.5.3.4.4,1.1v.2l.3,1v1.3L26,61.8l.8,6.1v1.2l-.3,1.2v.2l-.2.9-.4.7Z"/><polygon class="cls-5" points="92.4 63.4 93 63.3 93.6 63 94.2 62.7 94.9 62.2 95.6 61.7 96.1 61.2 96.2 61.1 96.2 61.1 96.8 60.5 97.3 59.9 97.7 59.3 98 58.7 98.1 58.1 98.2 57.7 98.1 57.3 97.9 57.1 96.7 56.3 94.6 55 92.5 53.9 91.9 53.7 92 53.9 92 54.2 91.8 54.6 91.5 55.1 91.1 55.7 90.8 56.2 90.7 56.4 90.7 56.4 90.1 57 89.5 57.7 88.8 58.3 88.2 58.9 87.6 59.4 87 59.8 86.5 60.1 86.1 60.3 85.8 60.3 87 60.8 87.1 60.8 88.9 61.6 88.5 61.5 90.3 62.4 91.7 63.2 92 63.4 92.4 63.4"/><polygon class="cls-14" points="63.1 29.2 63.1 29.4 63.2 30.3 63.2 31.1 63.2 31.3 63.3 31.4 63.2 29.2 63 28.3 63 28.6 63.1 29.2"/><polygon class="cls-9" points="28.8 95.9 28.2 95.8 27.6 95.6 26.8 95.5 26.1 95.3 25.4 95.2 24.8 95.1 24.4 95.1 29.2 96 28.8 95.9"/><path class="cls-7" d="M4,77.4H3.7L9,79.2l-.9,2.9H73l-.8-2.9,5.3-1.8Z"/><polygon class="cls-7" points="3.3 42.2 3.8 42.5 4.2 42.5 5.4 42.7 6.9 42.9 7.7 43.1 8 43.1 8.8 43.1 11 43.1 13.6 43.1 16.3 43.1 19.4 43.1 20.7 43.1 21.3 43.1 22.6 42.9 26 42.7 29.5 42.5 30.9 42.5 33.2 42.2 36.9 41.9 40.6 41.7 44.3 41.4 46.9 41.3 47.9 41.2 51.5 41 55 40.8 58.3 40.6 61.5 40.5 63.2 40.5 62.8 39.9 62.3 38.6 62 37.3 62 37.3 61.7 37.3 61.1 37.3 59.5 37.4 58 37.4 56 37.5 54.7 37.5 51.4 37.7 51.3 37.7 50.3 37.8 47.8 38 46.7 38.1 46.2 38.1 44.2 38.2 40.6 38.4 36.9 38.6 35.1 38.8 33.3 39 31.1 39.2 30.1 39.2 29.7 39.2 26.3 39.4 25.8 39.5 22.9 39.7 22.5 39.7 21.1 39.8 20.5 39.8 19.8 39.8 19.8 39.8 16.8 39.9 15.8 39.9 14.1 40 11.6 39.9 9.6 39.8 9.4 39.8 8.7 39.8 7.6 39.7 6.1 39.4 4.9 39.2 4.6 39.2 4 39 3.6 38.6 3.5 38.4 2.7 41.7 2.8 41.9 3.3 42.2"/><polygon class="cls-4" points="26.3 18.4 28.9 18.4 32.3 18.4 36.3 18.4 40.6 18.4 44.8 18.4 48.8 18.4 52.2 18.4 54.9 18.4 56.5 18.4 57.1 18.4 56.4 17.9 54.2 16.9 51.2 16.3 47.2 16.1 45.4 16.1 42.3 16.1 40.6 16.1 38.8 16.1 35.7 16.1 34 16.1 29.9 16.3 26.9 16.9 24.7 17.9 24.1 18.4 24.6 18.4 26.3 18.4"/><polygon class="cls-3" points="24.3 20.5 27.3 20.5 31.2 20.5 35.7 20.5 40.6 20.5 45.4 20.5 50 20.5 53.9 20.5 56.8 20.5 58.7 20.5 59.4 20.5 58.4 19.4 57.1 18.4 56.5 18.4 54.9 18.4 52.2 18.4 48.8 18.4 44.8 18.4 40.6 18.4 36.3 18.4 32.3 18.4 28.9 18.4 26.3 18.4 24.6 18.4 24.1 18.4 22.7 19.4 21.8 20.5 22.4 20.5 24.3 20.5"/><polygon class="cls-3" points="71 56.3 70.9 56.1 70.9 56.3 71 56.3"/><polygon class="cls-5" points="80.1 50 79.5 49.9 78.5 49.8 78.3 49.7 77.2 49.6 76.6 49.5 75.6 49.4 75.1 49.4 75.1 49.4 74.5 49.6 73.9 49.9 73.7 50 73.3 50.3 72.7 50.9 72.2 51.6 71.8 52.4 71.4 53.2 71.1 54 70.9 54.8 70.9 55.6 70.9 56.1 71 56.3 70.9 56.3 71.1 56.9 71.4 57.3 71.8 57.6 72.3 57.8 72.5 57.8 72.1 58.1 71.5 58.4 70.7 58.5 70 58.4 69.3 58.1 68.6 57.7 68 57 67.5 56.2 67.1 55.3 66.8 54.3 66.7 53.3 66.3 53.3 65.8 53.3 65.4 53.3 64.9 53.3 64.4 53.4 63.9 53.4 63.4 53.4 63 53.5 62.6 53.5 62.8 54.8 62.9 55.1 63.3 56.6 64 57.9 64.8 59.1 65.9 60.1 66.2 60.3 66.8 60.7 67 60.8 68.1 61.2 69.2 61.4 69.3 61.4 69.3 61.4 70.3 61.2 70.6 61.1 71.6 60.7 71.9 60.5 72.8 59.8 73.5 58.8 74 57.9 74.1 57.9 74.2 57.9 75.6 58 76.1 58.1 77.1 58.2 77.8 58.3 78.5 58.4 78.6 58.3 78.7 58.1 78.8 58.1 78.8 58.1 79.1 57.7 79.4 57.2 79.9 56.6 80.5 56 81 55.2 81.7 54.5 81.7 54.4 82.3 53.8 82.8 53.1 83.4 52.5 83.8 51.9 84.2 51.5 84.3 51.4 84.5 51.2 84.7 51 84.7 51 84 50.8 82 50.4 80.3 50 80.1 50 80.1 50"/><path class="cls-7" d="M9.5,72.3l.2-.9V67.9l-.7-6.1.5-10.1V49.2l-.2-1.1-.3-.9-.4-.8L8.3,46l-.2-.2-.6-.4H6.3l-.6.4-.6.6-.6.8v.2l-.4.7-.4,1.1v1.2l-.2,1.3L2.7,61.8l.7,6.1.2,1.2.3,1.2v.2l.4.9.6.9h0l.6.7.7.6h0l.6.3H8.1l.5-.4.2-.2.3-.4ZM8,71.3l-.3.4-.4.2H6.4l-.3-.2H6l-.4-.4-.4-.5L5,70.5v-.3l-.3-.8-.2-.7-.2-1-.6-5.9.5-10v-1l.2-.7v-.7h.1l.3-.7.4-.5.4-.4H7l.3.2.3.4.2.3v.2l.2.7h0l.2.7v1.7l-.5,10,.6,5.9v2.5l-.2.3v.8Z"/><polygon class="cls-9" points="8.2 70.5 8.4 70.2 8.5 69.4 8.6 68.7 8.5 67.7 7.9 61.8 8.4 51.8 8.4 50.8 8.3 50.1 8.1 49.4 8.1 49.4 7.9 48.7 7.8 48.5 7.6 48.2 7.3 47.8 7 47.6 6.5 47.5 6.1 47.6 6 47.7 5.7 47.8 5.3 48.2 4.9 48.7 4.6 49.4 4.5 49.4 4.4 50.1 4.2 50.8 4.1 51.8 3.6 61.8 4.2 67.7 4.4 68.7 4.6 69.4 4.8 70.2 5 70.5 5.2 70.8 5.6 71.3 6 71.7 6.1 71.7 6.4 71.9 6.5 71.9 6.8 72 6.9 72 7.3 71.9 7.7 71.7 8 71.3 8.1 71 8.2 70.8 8.2 70.5"/><polygon class="cls-7" points="95.4 65.5 96 65.4 96.6 65.2 97.3 64.8 98 64.4 98.7 63.9 99.3 63.4 99.9 62.8 100.3 62.1 100.7 61.5 101 60.9 101.1 60.4 101.1 59.9 101 59.5 100.8 59.3 100.8 59.2 100.7 59.2 98.7 57.7 97.9 57.1 98.1 57.3 98.2 57.7 98.1 58.1 98 58.7 97.7 59.3 97.3 59.9 96.8 60.5 96.2 61.1 96.2 61.1 96.1 61.2 95.6 61.7 94.9 62.2 94.2 62.7 93.6 63 93 63.3 92.4 63.4 92 63.4 91.7 63.2 92 63.4 93.7 64.6 94.6 65.3 94.9 65.4 95.4 65.5"/><polygon class="cls-9" points="23.7 70.8 23.9 70.5 24.1 70.2 24.4 69.4 24.6 68.7 24.5 67.7 23.8 61.8 24.4 51.8 24.4 50.8 24.2 50.1 23.9 49.4 23.9 49.4 23.5 48.7 23 48.2 22.3 47.8 22.1 47.7 21.7 47.6 21 47.5 20.2 47.6 19.5 47.8 18.8 48.2 18.7 48.3 18.2 48.7 17.7 49.4 17.6 49.4 17.3 50.1 17.1 50.8 17 51.8 16.4 61.8 17.1 67.7 17.3 68.7 17.5 69.4 17.9 70.2 18.2 70.5 18.5 70.8 18.9 71.2 19.1 71.3 19.8 71.7 20.6 71.9 21.3 72 21.7 72 22 71.9 22.3 71.8 22.7 71.7 22.8 71.6 23.3 71.3 23.7 70.8"/><path class="cls-7" d="M26.4,70.5v-.2l.3-1.2V67.9L26,61.8l.6-10.1V50.4l-.3-1v-.2l-.4-1.1-.3-.4-.4-.5-.8-.8-.9-.6-1.1-.4H20.2l-1.1.4H19l-.9.6-.9.8-.8.9-.7,1.1v.2l-.3,1h0l-.2,1.3-.5,10.1.6,6.1.2,1.1h.1l.4,1.2v.2l.6.9.9.9.9.8.9.5h.2l1.1.4H23l1-.4h.1l.8-.6.7-.8.2-.2.4-.7Zm-3.7,1.2H20.6l-.8-.2-.7-.4h-.2l-.4-.4-.3-.3-.3-.3-.4-.8-.2-.7-.2-1-.7-5.9.6-10v-1l.2-.7.3-.7h.1l.5-.7.5-.4h.1l.7-.4.7-.2h2.1l.7.4.5.5.4.7h0l.3.7.2.7v1l-.6,10,.7,5.9v1l-.2.7-.3.8-.2.3-.2.3-.4.5-.5.3Z"/><polygon class="cls-14" points="65.8 33.7 65.5 34.4 65.4 35.1 65.3 35.9 65.4 36.8 65.6 37.6 65.9 38.4 66.3 39.2 66.8 39.8 67.3 40.4 67.9 40.8 68.5 41 69.1 41.1 69.7 41 70.2 40.8 70.6 40.4 71 39.8 71.3 39.2 71.4 38.4 71.4 37.6 71.4 36.8 71.2 35.9 70.8 35.1 70.4 34.4 70 33.7 69.4 33.2 68.8 32.8 68.2 32.6 67.6 32.5 67.1 32.6 66.6 32.8 66.1 33.2 65.8 33.7"/><polygon class="cls-15" points="4 39 4.6 39.2 4.9 39.2 6.1 39.4 7.6 39.7 8.7 39.8 9.4 39.8 11.6 39.9 14.1 40 16.8 39.9 19.8 39.8 21.1 39.8 22.9 39.7 26.3 39.4 29.7 39.2 31.1 39.2 33.3 39 36.9 38.6 40.6 38.4 44.2 38.2 46.7 38.1 47.8 38 51.3 37.7 54.7 37.5 58 37.4 61.1 37.3 62 37.3 61.9 36.1 61.9 36 62 34.8 62.2 33.6 62.6 32.6 62.8 32.4 63.1 31.8 63.8 31.2 64.6 30.8 64.8 30.8 65.3 30.6 64.3 24.6 64 22.8 63.3 18.3 62.9 15.9 62.8 15.5 62.6 14.4 62.5 13.6 62.4 13 62.3 12.7 62.3 12.6 60.5 11.1 55.2 8.7 50.5 7.5 50.4 7.5 50.3 7.5 47.2 7.2 50 7.5 46.2 7.1 47.2 7.2 50.4 7.5 49.2 7.4 46.4 7.1 40.6 6.9 34.7 7.1 32 7.4 30.7 7.5 33.9 7.2 35 7.1 31.1 7.5 33.9 7.2 30.9 7.5 30.7 7.5 30.7 7.5 26 8.7 20.6 11.1 18.5 12.9 17.1 14 16 15 14.9 15.9 9 24.6 4 36.1 3.5 38.4 3.6 38.6 4 39"/><polygon class="cls-15" points="64.8 15.1 64.9 15.7 65 15.9 65.2 17.4 65.6 20 66.3 23.6 66.4 24.6 67.4 30.3 68.2 30.3 69 30.6 69.1 30.7 70 31.3 70.8 32.1 71.6 33.1 72 34 72.2 34.2 72.6 35.5 72.7 35.7 72.8 36.1 73 36.8 73 37.4 73.1 37.4 74.7 37.5 76 37.7 76.9 38 77.1 38.1 77.5 38.2 77.7 38.4 77.2 36.1 72.1 24.6 66.2 15.9 64.7 14.7 64.8 14.8 64.8 15.1"/></svg>