<svg id="Layer_1" data-name="Layer 1" xmlns="http://www.w3.org/2000/svg" viewBox="0 0 123.2 128"><defs><style>.cls-1{fill:#ededf4;}.cls-2{fill:none;}.cls-3{fill:#5e5c6a;}.cls-4{fill:#43434b;}.cls-5{fill:#b5b5c1;}.cls-6{fill:#9399a8;}.cls-7{fill:#d9d9df;}.cls-8{fill:#46bbed;}.cls-9{fill:#2affff;}.cls-10{fill:#7b7a88;}.cls-11{fill:#605e73;}.cls-12{fill:#9491a4;}.cls-13{fill:#6d5c46;}.cls-14{fill:#4b3a2d;}.cls-15{fill:#54d9ff;opacity:0.5;}</style></defs><rect class="cls-1" x="-326.9" y="-240.9" width="1000" height="800"/><polygon class="cls-2" points="115.9 96.9 115.9 96.8 115.9 97.9 115.9 96.9"/><polygon class="cls-2" points="118.3 71.2 118.2 71.2 117.4 71.1 118.2 71.2 118.3 71.2"/><polygon class="cls-2" points="28.1 37.9 28.1 38.1 28.1 37.9 28 37.7 28.1 37.9"/><polygon class="cls-2" points="29.5 38.5 29.8 38.5 29.8 38.3 29.8 38.5 29.5 38.5"/><polygon class="cls-2" points="22.7 48.3 22.7 48.3 22.7 48.3 22.7 48.3"/><polygon class="cls-2" points="17.7 49.5 17.7 49.6 17.7 49.6 17.7 49.5"/><path class="cls-2" d="M54,86.7v14.2h3V87.8h-.1Z"/><path class="cls-2" d="M77.7,100.9h3V86.7l-2.9,1.1h-.1Z"/><polygon class="cls-2" points="28.4 52.3 28.3 52.4 28.2 53.6 28.3 52.4 28.4 52.3"/><polygon class="cls-3" points="118.1 93.2 117.1 91.9 115.9 90.7 114.4 89.8 112.8 89.2 111.1 88.9 109.4 89 107.7 89.4 106.1 90.1 104.7 91.1 103.5 92.3 102.6 93.8 102 95.3 101.7 97 101.8 98.7 102.2 100.4 105.4 99.3 105.1 98.3 105.1 97.2 105.2 96.8 105.3 96.2 105.6 95.2 106.2 94.3 106.9 93.6 107.8 92.9 108.8 92.5 109.8 92.3 110.9 92.2 111.9 92.4 112.9 92.8 113.8 93.3 114.6 94 115.2 94.9 115.7 95.9 115.8 96.3 115.9 96.8 115.9 96.9 115.9 97.9 115.8 99 115.4 99.9 114.8 100.8 114.1 101.6 113.2 102.2 112.3 102.7 113.3 105.8 114.9 105.1 116.3 104.1 117.5 102.8 118.4 101.4 119 99.8 119.3 98.1 119.2 96.4 118.8 94.8 118.1 93.2"/><path class="cls-4" d="M49.4,15.7l-1.7,2.5-1,1.9-.5,2.1-.6,2.6-.2.7v2.3l.3,2.3.7,3.3h.1l.2.6.4,1.4,1,1.6L50,40l1.2.9,2.1,1.5,1.9.9,2.2,1h0l4.8,1.2h.5l4.7.3,4.6-.3h.5l4.8-1.2h0l2.2-1,1.9-.9,2.1-1.5,1.2-.9,2-2.9,1-1.6.4-1.4.2-.6h.1l.7-3.3.3-2.3V25.5l-.2-.7-.6-2.6L88,20.1l-1-1.9-1.7-2.5-.3-.4h-.1l-1.1-1.4-.7-.5,1.8,2.6.7,2.7-.7,2.7-1.8,2.6L80.2,26l-3.7,1.7-4.4,1.1-4.7.3-4.8-.3-4.4-1.1L54.5,26l-2.9-2.1-1.8-2.6-.7-2.7.7-2.7,1.8-2.6-.7.5-1.1,1.4h-.1Zm.9,19.4V33.3h0l.3-.8.6-.6.5-.3h1l1-.2,1,.2,1.1.3,1.2.6h0l1,.5,1,.8.8,1,.2.3.5.7.6,1,.3,1.1h0v1.8l-.2.5v.3l-.6.6-.7.4L56.4,40l-4.6-2.7-1.2-1.1v-.3Zm33.9,1.1-1.3,1.1L78.3,40,75,41.3l-.7-.5-.6-.6V40l-.2-.6V37.6h0l.3-1.1.6-1.1.5-.7.2-.3.8-.9,1-.8.9-.5h.1l1.1-.6,1.1-.4h2.9l.2.2.5.2.6.6.3.9h0v1.9l-.2.7Z"/><polygon class="cls-4" points="56.9 87.8 57 87.8 57.2 87.9 57.3 87.9 57.6 87.9 58.3 88 59.2 88.1 60 88.2 60 87.9 59.9 87.1 59.9 85.8 59.7 84.7 55.3 84.2 53.5 83.5 52.9 83.7 52.3 83.9 51.5 83.9 50.8 83.9 50.1 83.7 49.5 83.4 49 83.1 48.5 82.6 48.2 82.1 48 81.5 47.9 81.3 45.1 80.2 43.9 79.2 43.4 78.9 43.2 79.5 43.1 80.5 45.9 82.8 48.1 84.4 49.1 84.8 54 86.7 56.9 87.8"/><polygon class="cls-4" points="103.9 27.1 104 25.6 103.4 25.7 103.3 25.4 103.3 25.2 97.9 5.9 97.8 6 97.7 6.1 97.4 6.2 97 6.3 96.9 6.3 96.4 6.4 101.8 25.8 101.8 26 101.7 26 101.7 26.3 101.6 27.5 103.9 27.1"/><path class="cls-5" d="M28.1,37.9l.2.2h.2l.3-.3.3-.6.3-.8.3-.9.2-1.1.3-1.2.2-1.3.2-1.3V25.2h-.5l-.2.4-.3.5-.3.8-.3,1-.3,1.1-.2,1.2-.2,1.3-.2,1.2-.2,1.3v3.6h0Zm.3-4.1V31.4l.2-.8v-.8l.2-.7.2-.6.2-.5.2-.4.2-.2h.2v3.5l-.2.8v.8l-.2.8-.2.8v.6l-.2.5-.2.3-.2.3h-.3V33.8Z"/><path class="cls-6" d="M77.7,87.8H76.4v27l.7-1,.5-.9h0V87.8Z"/><polygon class="cls-5" points="37.1 6.1 37.4 6.2 37.8 6.3 37.9 6.3 38.4 6.4 38.5 6.4 39 6.2 39.4 6 39.8 5.7 40.1 5.4 40.3 4.9 40.4 4.5 40.5 4 40.4 3.5 40.2 3 40 2.7 39.6 2.3 39.4 2.2 39 2 38.6 1.8 38.2 1.8 37.9 1.8 37.4 2 37 2.2 36.6 2.5 36.3 2.8 36.1 3.3 36 3.7 35.9 4.2 36 4.7 36.2 5.2 36.4 5.5 36.8 5.9 36.8 5.9 37 6 37.1 6.1"/><polygon class="cls-4" points="31.3 25.7 30.7 25.6 30.8 27.1 33.2 27.5 33 26.2 33 26 32.9 26 33 25.8 38.4 6.4 37.9 6.3 37.8 6.3 37.4 6.2 37.1 6.1 37 6 36.8 5.9 31.5 25.2 31.4 25.4 31.3 25.7"/><polygon class="cls-6" points="28.4 52.3 28.3 52.4 28.4 52.4 28.6 52.3 28.9 52 29.1 51.3 29.2 50.4 29.2 50.3 29.4 49.2 28.8 49.2 28.4 49.1 27.9 49 27.5 48.8 27.2 48.5 27 48.3 27 48 27 47.6 26.5 47.5 26.4 48.3 26.3 48.9 26.2 49.3 26.1 49.6 26.1 49.7 26.5 49.7 26.5 49.9 26.5 50.3 26.5 50.8 26.6 50.9 26.7 51.4 27 51.8 27.4 52.1 27.8 52.3 28.1 52.4 28.3 52.4 28.4 52.3"/><polygon class="cls-7" points="53.5 12.3 51.9 14.6 51.4 16.9 51.9 19.3 53.5 21.6 56 23.5 59.4 24.9 63.2 25.9 67.4 26.2 71.5 25.9 75.3 24.9 78.7 23.5 81.2 21.6 82.8 19.3 83.3 16.9 82.8 14.6 81.2 12.3 78.7 10.4 75.3 8.9 75 8.9 71.3 8 67.4 7.7 63.4 8 59.7 8.9 59.4 8.9 56 10.4 53.5 12.3"/><path class="cls-8" d="M51.8,37.3,56.4,40l3.4,1.3.7-.4.6-.6V40l.2-.5V37.7h0l-.3-1.1-.6-1-.5-.7-.2-.3-.8-1-1-.8-1-.5h0l-1.2-.6-1.1-.3-1-.2-1,.2h-1l-.5.3-.6.6-.3.8h0v1.8l.2.8v.3Zm.1-3.5v-.2l.3-.3.5-.4.6-.2H55l.8.3.9.4h.1l.7.4.4.4.4.2.6.6.5.8.4.8.2.6v1.6l-.3.7h0l-.4.4h-.1l-3-1.1-.7-.5-3.8-2.3h-.1V34.4h.1Z"/><polygon class="cls-9" points="51.5 35.1 51.6 35.9 51.7 36.1 51.8 36.2 55.6 38.5 56.3 39 59.3 40.1 59.4 40 59.8 39.7 59.8 39.6 60.1 38.9 60.2 38.2 60.1 37.5 60 37.3 59.8 36.7 59.4 35.9 58.9 35.1 58.3 34.5 57.9 34.3 57.5 33.9 56.8 33.5 56.7 33.4 55.8 33 55 32.7 54.2 32.6 53.8 32.7 53.4 32.7 52.8 32.9 52.3 33.3 52 33.6 51.9 33.8 51.7 34.3 51.6 34.4 51.5 35.1"/><path class="cls-8" d="M84.6,34v-.8h0l-.3-.9-.6-.6-.5-.2-.2-.2H80l-1.1.4-1.1.6h-.1l-.9.5-1,.8-.8.9-.2.3-.5.7-.6,1.1-.3,1.1h0v1.8l.2.6v.2l.6.6.7.5L78.3,40l4.6-2.7,1.3-1.1v-.4l.2-.7Zm-6.2,5-2.9,1.1h-.1l-.4-.3v-.2l-.3-.6V37.3l.2-.6.4-.8.5-.8.6-.6.4-.3.4-.3.6-.4h.2l.8-.5.9-.3h1.6l.6.3.5.4h.2l.2.3.2.5V36l-.2.2-3.7,2.3Z"/><polygon class="cls-9" points="83.1 36 83.2 35.8 83.3 35 83.2 34.4 83.1 34.2 82.9 33.7 82.7 33.4 82.5 33.3 82 32.9 81.4 32.6 81 32.6 80.6 32.5 79.8 32.6 78.9 32.9 78.1 33.4 77.9 33.5 77.3 33.9 76.9 34.2 76.5 34.5 75.9 35.1 75.3 35.9 75 36.7 74.8 37.3 74.7 37.5 74.6 38.2 74.7 38.9 75 39.5 75 39.7 75.3 40 75.5 40.1 78.4 39 79.2 38.5 82.9 36.2 83.1 36"/><polygon class="cls-5" points="49.1 18.6 49.8 21.3 51.6 23.9 54.5 26 58.2 27.7 62.6 28.8 67.4 29.1 72.1 28.8 76.5 27.7 80.2 26 83.1 23.9 85 21.3 85.6 18.6 85 15.9 83.1 13.3 82.4 12.8 79.6 10.7 76 9.1 75.3 8.9 78.7 10.4 81.2 12.3 82.8 14.6 83.3 16.9 82.8 19.3 81.2 21.6 78.7 23.5 75.3 24.9 71.5 25.9 67.4 26.2 63.2 25.9 59.4 24.9 56 23.5 53.5 21.6 51.9 19.3 51.4 16.9 51.9 14.6 53.5 12.3 56 10.4 59.4 8.9 58.7 9.1 55.1 10.7 52.3 12.8 51.6 13.3 49.8 15.9 49.1 18.6"/><polygon class="cls-6" points="43.4 78.9 42.1 78.3 39.8 76.7 38.9 76.1 39.3 77.2 43.1 80.5 43.2 79.5 43.4 78.9"/><path class="cls-5" d="M54.1,83.1l.2-.2.3-.3.3-.5.2-.6V80.4l-.2-.6-.3-.5-.5-.5-.5-.3-.7-.3-.6-.2H50.8l-.7.2-.6.3-.5.3-.5.5-.3.5-.2.6V81h0v.5l.2.6.3.5.5.5.5.3.6.3.7.2h1.5l.6-.2.6-.2h.1Zm-.8-.7-.4.3h-.4L52,83h-.9l-.5-.2h-.5l-.3-.3-.3-.3-.3-.4V80.2l.3-.4.3-.3.3-.3h.5l.5-.2H52l.5.2h.4l.4.3.3.3.3.4v1.5l-.3.4Z"/><polygon class="cls-10" points="47.9 81.3 47.9 81 47.5 80.9 45.2 79.8 44.8 79.6 44.1 79.2 43.9 79.2 45.1 80.2 47.9 81.3"/><polygon class="cls-4" points="45.2 79.8 47.5 80.9 47.9 81 47.9 81 47.9 80.2 47.9 77.3 47.9 77.1 48 76.9 48.2 76.5 48.5 76.2 49 75.9 49.3 75.9 49.5 75.8 50.1 75.7 50.8 75.7 51.5 75.9 52.3 76.1 52.6 76.3 52.9 76.4 53.6 76.8 54.1 77.3 54.6 77.8 54.9 78.3 55.1 78.8 55.2 79 55.2 79.3 55.2 80.7 55.2 81 55.1 81.5 54.9 82.1 54.6 82.6 54.3 82.9 55.4 83.1 57 83.4 59 83.7 58.6 82.4 58.1 81.4 57.5 80 57.1 79.4 56.3 77.9 56.2 77.8 54.8 76 53.2 74.7 52.5 74.5 51.5 74 49.9 73.9 49.1 74.1 48.3 74.3 46.8 75.4 46.2 76.2 46 76.4 45.5 76.8 45 77.6 44.5 78.3 44.4 78.5 44.1 79.2 44.8 79.6 45.2 79.8"/><polygon class="cls-10" points="55.4 83.1 54.3 82.9 54.1 83.1 53.6 83.4 53.5 83.5 55.3 84.2 59.7 84.7 67.4 85.5 75 84.7 79.4 84.2 81.2 83.5 81.2 83.4 80.6 83.1 80.4 82.9 79.3 83.1 77.7 83.4 75.7 83.7 74.3 83.9 70.8 84.1 67.4 84.3 63.9 84.1 60.4 83.9 59 83.7 57 83.4 55.4 83.1"/><polygon class="cls-6" points="59.7 84.7 59.9 85.8 59.9 87.1 60 87.9 60 88.2 60.3 88.2 61.4 88.3 67.4 89 73.3 88.3 74.4 88.2 74.7 88.2 74.7 87.9 74.8 87.1 74.8 85.8 75 84.7 67.4 85.5 59.7 84.7"/><polygon class="cls-4" points="79.3 83.1 80.4 82.9 80.1 82.6 79.8 82.1 79.6 81.5 79.5 81 79.5 80.8 79.5 79.3 79.6 79 79.6 78.8 79.8 78.3 80.1 77.8 80.6 77.3 81.2 76.8 81.8 76.4 82.1 76.3 82.5 76.1 83.2 75.9 83.9 75.7 84.6 75.7 85.2 75.8 85.5 75.8 85.8 75.9 86.2 76.2 86.6 76.5 86.8 76.9 86.8 77.1 86.8 77.3 86.8 80.2 86.8 81 86.8 81 87.2 80.9 89.5 79.8 89.9 79.6 90.6 79.2 90.3 78.5 90.2 78.3 89.7 77.6 89.2 76.8 88.7 76.4 88.5 76.2 87.9 75.4 86.4 74.3 85.6 74.1 84.8 73.9 83.2 74 82.2 74.5 81.5 74.7 79.9 76 78.5 77.8 78.4 77.9 77.6 79.4 77.2 80 76.6 81.4 76.1 82.4 75.7 83.7 77.7 83.4 79.3 83.1"/><path class="cls-5" d="M86.8,81v-.6l-.2-.6-.4-.5-.4-.5-.6-.3-.6-.3-.7-.2H82.5l-.7.2-.6.3-.6.3-.5.5-.3.5-.2.6v1.1l.2.6.3.5.3.3.2.2.6.3h0l.6.2.7.2h1.4l.7-.2.6-.3.6-.3.4-.5.4-.5.2-.6V81Zm-1.1.4-.2.3-.2.4-.3.3-.4.3h-.4l-.5.2h-1l-.5-.2h-.4l-.4-.3-.3-.3-.2-.4-.2-.3v-.8l.2-.4.2-.4.3-.3.4-.3h.4l.5-.2h1l.5.2h.4l.4.3.3.3.2.4.2.4v.8Z"/><polygon class="cls-10" points="89.5 79.8 87.2 80.9 86.8 81 86.8 81.3 89.6 80.2 90.8 79.2 90.6 79.2 89.9 79.6 89.5 79.8"/><path class="cls-11" d="M80.7,101h4.9V84.8l-4.9,1.9Z"/><polygon class="cls-4" points="91.3 78.9 90.8 79.2 89.6 80.2 86.8 81.3 86.8 81.5 86.6 82.1 86.2 82.6 85.8 83.1 85.2 83.4 84.6 83.7 83.9 83.9 83.2 83.9 82.5 83.9 81.8 83.7 81.2 83.5 79.4 84.2 75 84.7 74.8 85.8 74.8 87.1 74.7 87.9 74.7 88.2 75.5 88.1 76.4 88 77.1 87.9 77.4 87.9 77.6 87.9 77.7 87.8 77.8 87.8 80.7 86.7 85.6 84.8 86.6 84.4 88.8 82.8 91.6 80.5 91.5 79.5 91.3 78.9"/><polygon class="cls-6" points="92.6 78.3 91.3 78.9 91.5 79.5 91.6 80.5 95.4 77.2 95.8 76.1 94.9 76.7 92.6 78.3"/><polygon class="cls-6" points="108.4 49.3 108.3 48.9 108.3 48.3 108.2 47.5 107.7 47.6 107.7 48 107.6 48.3 107.4 48.5 107.1 48.8 106.7 49 106.3 49.1 105.8 49.2 105.3 49.2 105.5 50.3 105.5 50.4 105.6 51.3 105.8 51.9 106.1 52.3 106.3 52.4 106.3 52.4 106.4 52.4 106.6 52.4 106.8 52.3 107.3 52.1 107.6 51.8 107.9 51.4 107.9 51.2 108 50.9 108 50.8 108 50.9 108.1 50.8 108.1 50.3 108.1 49.9 108.2 49.7 108.5 49.7 108.5 49.6 108.4 49.3"/><polygon class="cls-5" points="108.4 48.6 108.4 48.3 108.3 47.8 108.2 47.3 108.2 46.6 108.1 45.8 108 45 108 44.2 107.9 43.4 107.9 42.6 107.8 42 107.8 41.4 107.8 40.9 107.9 40.6 107.9 40.4 107.9 40.4 108 40.4 108 40.3 107.9 39.8 107.9 39.5 107.8 39.5 107.8 39.6 107.8 39.9 107.7 40.4 107.8 41.1 107.8 41.9 107.8 42.8 107.9 43.7 107.9 44.7 108 45.7 108.1 46.7 108.2 47.5 108.3 48.3 108.3 48.9 108.4 49.3 108.5 49.6 108.5 49.7 108.6 49.6 108.6 49.2 108.6 48.7 108.5 48.7 108.4 48.6"/><path class="cls-5" d="M104,25.6v3.7l.2,1.2v1.3l.3,1.3.2,1.2.3,1.1.3.9.3.8.3.6.2.3h.5V32.6l-.2-1.2-.2-1.3-.3-1.2-.2-1.1-.3-1-.3-.8-.3-.5-.3-.4h-.4Zm.5,2.5v-.7h.3l.2.2.2.4v.5l.2.6.2.7.2.8v.8l.2.9v3.4H106l-.2-.3-.2-.3-.2-.5-.2-.6-.2-.8v-.8l-.2-.8V28.1Z"/><polygon class="cls-7" points="106.7 37.9 106.5 38 106.5 38.1 106.5 38.1 106.1 38.2 105.6 38.2 105.1 38.3 104.9 38.3 104.9 38.5 104.9 39.5 104.9 40.7 105 41.4 105 42 105 43.5 105.1 45 105.2 45.3 105.2 46.5 105.2 47.8 105.2 47.9 105.3 49.2 105.8 49.2 106.3 49.1 106.7 49 107.1 48.8 107.4 48.5 107.6 48.3 107.7 48 107.7 47.6 108.2 47.5 108.1 46.7 108 45.7 107.9 44.7 107.9 43.7 107.8 42.8 107.8 41.9 107.8 41.1 107.7 40.4 107.8 39.9 107.8 39.6 107.8 39.5 107.4 39.5 107.4 39.2 107.3 38.7 107.2 38.4 107 38 106.9 37.9 106.7 37.7 106.7 37.8 106.7 37.9"/><polygon class="cls-5" points="106.3 52.4 106.3 52.4 106.1 52.3 105.8 51.9 105.6 51.3 105.5 50.4 105.5 50.3 105.3 49.2 105.2 47.9 105.2 47.8 105.2 46.5 105.2 45.3 105.1 45 105 43.5 105 42 105 41.4 104.9 40.7 104.9 39.5 104.9 38.5 104.9 38.3 104.9 38.3 104.2 38.5 104.2 38.5 103.9 38.4 103.7 38.1 103.4 37.5 103.1 38.6 102.3 40.7 101.1 42.7 99.6 44.8 97.8 46.8 97.2 47.4 95.7 48.6 93.3 50.4 90.7 52 87.8 53.5 85.9 54.4 84.7 54.8 81.5 55.9 78.1 56.8 76.7 57.1 76 57.2 74.6 57.5 71 57.8 67.4 57.9 63.7 57.8 60.1 57.5 58.7 57.2 58 57.1 56.6 56.8 53.2 55.9 50 54.8 48.8 54.4 46.9 53.5 44 52 41.4 50.4 39 48.6 37.5 47.4 36.9 46.8 35.1 44.8 33.6 42.7 32.4 40.7 31.6 38.6 31.3 37.6 31.1 38.1 30.8 38.4 30.7 38.4 30.6 38.5 30.5 38.5 29.8 38.3 29.8 38.5 29.8 39.5 29.8 40.7 29.7 41.4 29.7 42 29.7 43.5 29.6 45 29.5 45.3 29.5 46.5 29.5 47.8 29.5 47.9 29.4 49.2 29.2 50.3 29.2 50.4 29.1 51.3 28.9 52 28.6 52.3 28.4 52.4 28.3 52.4 28.2 53.6 29.5 60.4 30.1 62.5 32.3 67.7 33.3 69.7 34.3 71.6 36 73.4 37.6 75.2 38.9 76.1 39.8 76.7 42.1 78.3 43.4 78.9 43.9 79.2 44.1 79.2 44.4 78.5 44.5 78.3 45 77.6 45.5 76.8 46 76.4 46.2 76.2 46.8 75.4 48.3 74.3 49.1 74.1 49.9 73.9 51.5 74 52.5 74.5 53.2 74.7 54.8 76 56.2 77.8 56.3 77.9 57.1 79.4 57.5 80 58.1 81.4 58.6 82.4 59 83.7 60.4 83.9 63.9 84.1 67.4 84.3 70.8 84.1 74.3 83.9 75.7 83.7 76.1 82.4 76.6 81.4 77.2 80 77.6 79.4 78.4 77.9 78.5 77.8 79.9 76 81.5 74.7 82.2 74.5 83.2 74 84.8 73.9 85.6 74.1 86.4 74.3 87.9 75.4 88.5 76.2 88.7 76.4 89.2 76.8 89.7 77.6 90.2 78.3 90.3 78.5 90.6 79.2 90.8 79.2 91.3 78.9 92.6 78.3 94.9 76.7 95.8 76.1 97.1 75.2 98.7 73.4 100.4 71.6 101.4 69.7 102.4 67.7 104.6 62.5 105.2 60.4 106.5 53.6 106.6 52.4 106.4 52.4 106.3 52.4"/><polygon class="cls-7" points="48.2 79.8 48.5 79.3 49 78.8 49.5 78.5 50.1 78.2 50.8 78 51.5 78 52.3 78 52.9 78.2 53.6 78.5 54.1 78.8 54.6 79.3 54.9 79.8 55.1 80.4 55.2 81 55.2 80.7 55.2 79.3 55.2 79 55.1 78.8 54.9 78.3 54.6 77.8 54.1 77.3 53.6 76.8 52.9 76.4 52.6 76.3 52.3 76.1 51.5 75.9 50.8 75.7 50.1 75.7 49.5 75.8 49.3 75.9 49 75.9 48.5 76.2 48.2 76.5 48 76.9 47.9 77.1 47.9 77.3 47.9 80.2 47.9 81 48 80.4 48.2 79.8"/><polygon class="cls-7" points="79.8 79.8 80.1 79.3 80.6 78.8 81.2 78.5 81.8 78.2 82.5 78 83.2 78 83.9 78 84.6 78.2 85.2 78.5 85.8 78.8 86.2 79.3 86.6 79.8 86.8 80.4 86.8 81 86.8 80.2 86.8 77.3 86.8 77.1 86.8 76.9 86.6 76.5 86.2 76.2 85.8 75.9 85.5 75.8 85.2 75.8 84.6 75.7 83.9 75.7 83.2 75.9 82.5 76.1 82.1 76.3 81.8 76.4 81.2 76.8 80.6 77.3 80.1 77.8 79.8 78.3 79.6 78.8 79.6 79 79.5 79.3 79.5 80.8 79.5 81 79.6 80.4 79.8 79.8"/><polygon class="cls-10" points="103.1 36.7 102.8 35.8 102.6 35.1 102.4 36 101.6 38 100.4 40 99 42 97.2 44 96.6 44.6 95.1 45.8 92.8 47.5 90.2 49.1 87.4 50.6 85.5 51.4 84.4 51.9 81.2 52.9 77.9 53.8 75.9 54.3 74.4 54.5 70.9 54.9 67.4 55.1 63.8 54.9 60.3 54.5 58.8 54.3 56.8 53.8 53.5 52.9 50.3 51.9 49.2 51.4 47.3 50.6 44.5 49.1 41.9 47.5 39.6 45.8 38.1 44.6 37.5 44 35.7 42 34.3 40 33.1 38 32.3 36 32.1 35.3 32 35.8 31.7 36.7 31.4 37.5 31.3 37.6 31.6 38.6 32.4 40.7 33.6 42.7 35.1 44.8 36.9 46.8 37.5 47.4 39 48.6 41.4 50.4 44 52 46.9 53.5 48.8 54.4 50 54.8 53.2 55.9 56.6 56.8 58 57.1 58.7 57.2 60.1 57.5 63.7 57.8 67.4 57.9 71 57.8 74.6 57.5 76 57.2 76.7 57.1 78.1 56.8 81.5 55.9 84.7 54.8 85.9 54.4 87.8 53.5 90.7 52 93.3 50.4 95.7 48.6 97.2 47.4 97.8 46.8 99.6 44.8 101.1 42.7 102.3 40.7 103.1 38.6 103.4 37.5 103.4 37.5 103.1 36.7"/><polygon class="cls-6" points="105.6 38.2 106.1 38.2 106.5 38.1 106.5 38.1 106.2 38 106 37.7 105.7 37.1 105.4 36.3 103.1 36.7 103.4 37.5 103.4 37.5 103.7 38.1 103.9 38.4 104.2 38.5 104.2 38.5 104.9 38.3 104.9 38.3 105.1 38.3 105.6 38.2"/><polygon class="cls-7" points="103.4 25.7 104 25.6 104.2 25.2 104.4 25.1 103.3 25.2 103.3 25.4 103.4 25.7"/><polygon class="cls-7" points="101.8 25.8 101.7 26 101.8 26 101.8 25.8"/><polygon class="cls-5" points="97 6.3 97.4 6.2 97.7 6.1 97.8 6 97.9 5.9 98 5.9 98.4 5.5 98.6 5.2 98.8 4.7 98.9 4.2 98.8 3.7 98.7 3.3 98.5 2.8 98.1 2.5 97.8 2.2 97.4 2 96.9 1.8 96.6 1.8 96.2 1.8 95.8 2 95.4 2.2 95.2 2.3 94.8 2.7 94.6 3 94.4 3.5 94.3 4 94.3 4.5 94.5 4.9 94.7 5.4 95 5.7 95.4 6 95.8 6.2 96.3 6.4 96.4 6.4 96.9 6.3 97 6.3"/><polygon class="cls-6" points="31.7 36.7 29.4 36.3 29.1 37.1 28.8 37.7 28.5 38 28.3 38.1 28.5 38.1 29 38.2 29.5 38.3 29.8 38.3 29.8 38.3 30.5 38.5 30.6 38.5 30.7 38.4 30.8 38.4 31.1 38.1 31.3 37.6 31.4 37.5 31.7 36.7"/><polygon class="cls-7" points="30.8 27.1 30.8 28.1 30.7 29.3 30.6 30.5 30.4 31.8 30.2 33.1 29.9 34.3 29.7 35.4 29.4 36.3 31.7 36.7 32 35.8 32.1 35.3 32.3 36 33.1 38 34.3 40 35.7 42 37.5 44 38.1 44.6 39.6 45.8 41.9 47.5 44.5 49.1 47.3 50.6 49.2 51.4 50.3 51.9 53.5 52.9 56.8 53.8 58.8 54.3 60.3 54.5 63.8 54.9 67.4 55.1 70.9 54.9 74.4 54.5 75.9 54.3 77.9 53.8 81.2 52.9 84.4 51.9 85.5 51.4 87.4 50.6 90.2 49.1 92.8 47.5 95.1 45.8 96.6 44.6 97.2 44 99 42 100.4 40 101.6 38 102.4 36 102.6 35.1 102.8 35.8 103.1 36.7 105.4 36.3 105.1 35.4 104.8 34.3 104.6 33.1 104.3 31.8 104.2 30.5 104 29.3 103.9 28.1 103.9 27.1 101.6 27.5 101.7 26.3 101.6 26 100.4 24.2 99 22.5 97.2 21 96.6 20.5 95.1 19.5 92.8 18.1 90.2 16.9 87.4 15.9 85.5 15.4 84.9 15.2 85 15.3 85.3 15.7 87 18.1 88 20.1 88.5 22.2 89.1 24.8 89.3 25.5 89.4 27.8 89.1 30.1 88.4 33.4 88.3 33.5 88.1 34.1 87.7 35.5 86.7 37.1 84.7 40 83.5 40.9 81.4 42.4 79.5 43.3 77.3 44.3 77.3 44.3 72.5 45.5 72 45.6 67.4 45.9 62.7 45.6 62.2 45.5 57.4 44.3 57.4 44.3 55.2 43.3 53.3 42.4 51.2 40.9 50 40 48 37.1 47 35.5 46.6 34.1 46.4 33.5 46.3 33.4 45.6 30.1 45.3 27.8 45.4 25.5 45.6 24.8 46.2 22.2 46.7 20.1 47.7 18.1 49.4 15.7 49.7 15.3 49.8 15.2 49.2 15.4 47.3 15.9 44.5 16.9 41.9 18.1 39.6 19.5 38.1 20.5 37.5 21 35.7 22.5 34.3 24.2 33.1 26 33 26.2 33.2 27.5 30.8 27.1"/><polygon class="cls-7" points="30.7 25.6 31.3 25.7 31.4 25.4 31.5 25.2 30.4 25.1 30.6 25.2 30.7 25.6"/><polygon class="cls-7" points="33 26 33 25.8 32.9 26 33 26"/><polygon class="cls-7" points="26.9 39.9 26.9 40.4 26.9 41.1 26.9 41.9 26.8 42.8 26.8 43.7 26.7 44.7 26.6 45.7 26.5 46.7 26.5 47.5 27 47.6 27 48 27 48.3 27.2 48.5 27.5 48.8 27.9 49 28.4 49.1 28.8 49.2 29.4 49.2 29.5 47.9 29.5 47.8 29.5 46.5 29.5 45.3 29.6 45 29.7 43.5 29.7 42 29.7 41.4 29.8 40.7 29.8 39.5 29.8 38.5 29.5 38.5 29.8 38.5 29.8 38.3 29.5 38.3 29 38.2 28.5 38.1 28.3 38.1 28.3 38.1 28.1 37.9 28.1 38.1 28.1 37.9 28 37.7 28 37.6 27.7 37.9 27.6 38 27.4 38.4 27.3 38.7 27.3 39.2 27.2 39.5 26.8 39.5 26.9 39.6 26.9 39.9"/><polygon class="cls-5" points="26.2 49.3 26.3 48.9 26.4 48.3 26.5 47.5 26.5 46.7 26.6 45.7 26.7 44.7 26.8 43.7 26.8 42.8 26.9 41.9 26.9 41.1 26.9 40.4 26.9 39.9 26.9 39.6 26.8 39.5 26.8 39.5 26.7 39.8 26.6 40.3 26.6 40.5 26.7 40.6 26.8 40.6 26.8 40.8 26.8 41.2 26.8 41.7 26.8 42.3 26.8 43 26.7 43.7 26.7 44.6 26.6 45.4 26.5 46.2 26.5 46.9 26.4 47.5 26.3 48.1 26.3 48.5 26.2 48.8 26.2 48.9 26 48.9 26 49.2 26.1 49.6 26.1 49.7 26.1 49.6 26.2 49.3"/><polygon class="cls-10" points="26.2 48.8 26.3 48.5 26.3 48.1 26.4 47.5 26.5 46.9 26.5 46.2 26.6 45.4 26.7 44.6 26.7 43.7 26.8 43 26.8 42.3 26.8 41.7 26.8 41.2 26.8 40.8 26.8 40.6 26.7 40.6 26.6 40.5 26.5 40.5 24.2 40.4 21.9 40.4 19.9 40.7 19.8 40.8 19.8 40.8 19.8 41 19.8 41.4 19.9 41.9 20.1 42.4 20.3 43.1 20.6 43.8 20.9 44.6 21.2 45.3 21.5 46.1 21.7 46.5 21.8 46.7 22.2 47.4 22.4 47.9 22.7 48.3 22.7 48.3 22.7 48.3 22.9 48.5 23.1 48.7 24 48.7 25.5 48.8 26 48.9 26.2 48.9 26.2 48.8"/><polygon class="cls-5" points="28.1 52.4 28.2 53.6 28.3 52.4 28.1 52.4"/><path class="cls-12" d="M77.7,105.7h3v-4.8h-3Z"/><path class="cls-12" d="M54,105.7h3v-4.8H54Z"/><path class="cls-5" d="M76.4,88H73.3l-5.9.7-6-.7H58.3v27h.1l.4.4.2.2.2.2.2.2.8.5h.1l.5.3h.6l.8.2.9.3h.2l1.3.2h5.5l1.4-.2h.1l.9-.3.8-.2h.6l.5-.3h.1l.8-.5.2-.2.2-.2.2-.2.4-.4h.1Z"/><path class="cls-6" d="M58.3,88H57V113h.1l.4.9.7,1Z"/><path class="cls-13" d="M75.9,115.5l-.2.2-.2.2-.2.2-.8.5h-.1l-.5.3h-.6l-.8.2V128h1l1-.4.8-.6.6-.8.4-1V115h-.1Z"/><path class="cls-13" d="M62.2,117.3l-.8-.2h-.6l-.5-.3h-.1l-.8-.5-.2-.2-.2-.2-.2-.2-.4-.4h-.1v10.1l.4,1,.6.8.8.6,1,.4h1Z"/><path class="cls-14" d="M72.5,117.3l-.9.3h-.1V128h1Z"/><path class="cls-14" d="M63.3,117.8v-.2h-.2l-.9-.3V128h1.1Z"/><path class="cls-12" d="M49.1,100.9H47.2v4.8h1.9Z"/><path class="cls-10" d="M54,101H49.1v5.8H54Z"/><path class="cls-10" d="M80.7,106.8h4.9V101H80.7Z"/><path class="cls-11" d="M85.6,106.8H80.7v-1.1h-3V107h3v1.8h4.9V107h1.9v-1.3H85.6Z"/><path class="cls-14" d="M68.9,118H65.7v10h3.2Z"/><path class="cls-13" d="M71.5,117.8v-.2l-1.4.2H68.9v10h2.6Z"/><path class="cls-13" d="M65.7,118H64.6l-1.3-.2V128h2.4Z"/><path class="cls-12" d="M85.6,105.7h1.9v-4.8H85.6Z"/><path class="cls-11" d="M49.1,101H54V86.7l-4.9-1.9Z"/><path class="cls-11" d="M57,105.7H54v1.1H49.1v-1.1H47.2V107h1.9v1.8H54V107h3Z"/><polygon class="cls-3" points="16.5 91.6 17 90 17.1 88.3 16.9 86.6 16.4 85.1 15.6 83.6 14.6 82.4 14.4 82.3 14 81.9 13.3 81.4 13.3 81.4 12.5 81.1 11.8 80.7 11.6 80.7 10.7 80.4 10.2 80.3 9.7 80.3 8.8 80.3 8.5 80.3 7.8 80.4 7 80.5 6.8 80.5 6.2 80.7 5.7 81 5.2 81.1 5 81.3 4.9 81.3 3.7 82 2.5 83.1 1.4 84.5 0.6 86 0.1 87.7 0 89.3 0.2 91 0.7 92.6 1.5 94 2.6 95.2 3.9 96.2 5.7 93.4 5.4 93.2 4.9 92.8 4.2 92 3.7 91.1 3.4 90.2 3.3 89.1 3.4 88.1 3.7 87.1 4.1 86.1 4.8 85.3 5.6 84.6 6.5 84.1 7.5 83.7 8.5 83.5 9.6 83.6 10.5 83.8 11.5 84.2 12.3 84.8 12.9 85.6 13 85.7 13.4 86.5 13.5 86.6 13.7 87.5 13.9 88.5 13.8 89.5 13.5 90.5 13 91.5 15.7 93.1 16.5 91.6"/><polygon class="cls-4" points="13 85.7 12.9 85.6 12.3 84.8 11.5 84.2 10.5 83.8 9.6 83.6 8.5 83.5 7.5 83.7 6.5 84.1 5.6 84.6 4.8 85.3 4.1 86.1 3.7 87.1 3.4 88.1 3.3 89.1 3.4 90.2 3.7 91.1 4.2 92 4.9 92.8 5.4 93.2 5.7 93.4 3.9 96.2 2.6 95.2 5.4 98 6.7 98.9 8.5 96.1 6.9 94.6 6.5 93.9 6.2 92.9 6.1 91.9 6.2 90.8 6.5 89.8 6.9 88.9 7.6 88 8.4 87.3 9.3 86.8 10.3 86.4 11.3 86.2 12.4 86.3 13.4 86.5 13.5 86.6 13.4 86.5 13 85.7"/><polygon class="cls-4" points="13.9 78.3 13.7 78.2 13.3 78.1 13.2 78.1 12.7 78 12.5 78 12.1 78 11.6 77.9 11.3 77.9 10.7 77.9 10.5 77.9 9.7 77.9 9.7 77.9 8.9 77.9 8.7 77.9 8.2 77.9 7.8 78 7.4 78 7 78.1 6.8 78.1 6.3 78.2 6.2 78.2 6 78.3 5.8 78.4 5.7 78.4 5.6 78.4 5.2 78.6 4.9 78.9 4.9 79.1 4.9 81.3 5 81.3 5.2 81.1 5.7 81 6.2 80.7 6.8 80.5 7 80.5 7.8 80.4 8.5 80.3 8.8 80.3 9.7 80.3 10.2 80.3 10.7 80.4 11.6 80.7 11.8 80.7 12.5 81.1 13.3 81.4 13.3 81.4 14 81.9 14.4 82.3 14.6 82.4 15.6 83.6 16.4 85.1 16.9 86.6 17.1 88.3 17 90 16.5 91.6 15.7 93.1 13 91.5 15.8 94.2 18.5 95.8 19.3 94.3 19.8 92.7 19.9 91 19.8 89.3 19.3 87.8 18.4 86.3 17.4 85.1 14.9 82.7 14.9 78.9 14.7 78.7 14.4 78.5 14 78.3 13.9 78.3 13.9 78.3"/><polygon class="cls-6" points="13.6 73.4 13.2 73.2 12.7 73.1 12 73 11.3 72.9 10.5 72.9 9.7 72.9 8.9 72.9 8.1 72.9 7.4 73 6.8 73.2 6.3 73.3 5.9 73.5 5.7 73.7 5.7 73.8 5.7 78.4 5.8 78.4 6 78.3 6.2 78.2 6.3 78.2 6.8 78.1 7 78.1 7.4 78 7.8 78 8.2 77.9 8.7 77.9 8.9 77.9 9.7 77.9 9.7 77.9 10.5 77.9 10.7 77.9 11.3 77.9 11.6 77.9 12.1 78 12.5 78 12.7 78 13.2 78.1 13.3 78.1 13.7 78.2 13.9 78.3 13.9 78.3 14 78.3 14 73.7 13.9 73.5 13.6 73.4"/><polygon class="cls-5" points="29.8 38.5 29.8 38.3 29.8 38.3 29.8 38.5"/><polygon class="cls-6" points="13.8 63.8 13.4 63.6 13.1 63.5 12.9 63.4 12.2 63.3 11.5 63.1 10.7 63 9.9 62.9 9.1 62.9 8.3 62.9 8.1 62.9 7.6 62.9 7 62.9 6.6 63 6.2 63.1 6 63.3 6 63.5 5.9 64.2 5.7 66.9 5.7 68.2 5.8 68 6 67.8 6.3 67.7 6.8 67.6 7.4 67.5 8.1 67.4 8.9 67.4 9.7 67.4 10.5 67.5 11.3 67.6 12 67.7 12.7 67.8 13.2 68 13.6 68.1 13.9 68.3 14 68.5 14 67.1 14.2 64.6 14.2 64.2 14.1 64 13.8 63.8"/><polygon class="cls-6" points="15.7 54.7 15.4 54.5 15 54.2 14.4 53.9 13.8 53.7 13 53.4 12.3 53.1 11.5 52.8 10.7 52.6 10 52.4 9.4 52.3 8.9 52.2 8.4 52.2 8.2 52.2 8 52.3 7.5 54.1 6.9 56.4 6.5 58.7 6.5 59.1 6.4 59.5 6.4 59.3 6.6 59.2 7 59.1 7.4 59.1 8 59.1 8.7 59.1 9.5 59.2 10.3 59.3 11.1 59.4 11.9 59.6 12.6 59.8 13.2 59.9 13.8 60.2 14.2 60.4 14.5 60.5 14.6 60.7 14.7 60 15 58.4 15.4 56.5 15.9 55 15.9 54.9 15.7 54.7"/><polygon class="cls-10" points="18.5 50.3 18.4 50.1 18.1 49.9 17.7 49.6 17.7 49.6 17.2 49.2 16.7 48.8 16.1 48.3 15.4 47.9 14.7 47.4 14.1 47 13.4 46.6 12.9 46.2 12.4 46 12.2 45.8 12 45.8 11.8 45.7 11.7 45.7 11.1 46.3 10 48 9.8 48.3 8.9 50.1 8.1 52.1 8 52.3 8.2 52.2 8.4 52.2 8.9 52.2 9.4 52.3 10 52.4 10.7 52.6 11.5 52.8 12.3 53.1 13 53.4 13.8 53.7 14.4 53.9 15 54.2 15.4 54.5 15.7 54.7 15.9 54.9 15.9 55 15.9 54.9 16.5 53.4 17.1 52.3 17.6 51.5 18.4 50.6 18.6 50.4 18.5 50.3 18.5 50.3"/><polygon class="cls-10" points="14.2 60.4 13.8 60.2 13.2 59.9 12.6 59.8 11.9 59.6 11.1 59.4 10.3 59.3 9.5 59.2 8.7 59.1 8 59.1 7.4 59.1 7 59.1 6.6 59.2 6.4 59.3 6.4 59.5 6.1 61.5 6 63.5 6 63.3 6.2 63.1 6.6 63 7 62.9 7.6 62.9 8.1 62.9 8.3 62.9 9.1 62.9 9.9 62.9 10.7 63 11.5 63.1 12.2 63.3 12.9 63.4 13.1 63.5 13.4 63.6 13.8 63.8 14.1 64 14.2 64.2 14.4 62.2 14.6 60.7 14.5 60.5 14.2 60.4"/><polygon class="cls-10" points="13.6 68.1 13.2 68 12.7 67.8 12 67.7 11.3 67.6 10.5 67.5 9.7 67.4 8.9 67.4 8.1 67.4 7.4 67.5 6.8 67.6 6.3 67.7 6 67.8 5.8 68 5.7 68.2 5.7 69.8 5.7 72.8 5.7 73.8 5.7 73.7 5.9 73.5 6.3 73.3 6.8 73.2 7.4 73 8.1 72.9 8.9 72.9 9.7 72.9 10.5 72.9 11.3 72.9 12 73 12.7 73.1 13.2 73.2 13.6 73.4 13.9 73.5 14 73.7 14 72.7 14 69.8 14 68.5 13.9 68.3 13.6 68.1"/><polygon class="cls-6" points="22.7 48.3 22.7 48.3 22.4 47.9 22.2 47.4 21.8 46.7 21.7 46.5 21.5 46.1 21.2 45.3 20.9 44.6 20.6 43.8 20.3 43.1 20.1 42.4 19.9 41.9 19.8 41.4 19.8 41 19.8 40.8 19.8 40.8 19.9 40.7 19.7 40.8 17.6 41.4 15.8 42.2 14.1 43.3 13.8 43.5 12.4 44.8 11.7 45.7 11.8 45.7 12 45.8 12.2 45.8 12.4 46 12.9 46.2 13.4 46.6 14.1 47 14.7 47.4 15.4 47.9 16.1 48.3 16.7 48.8 17.2 49.2 17.7 49.6 17.7 49.5 17.7 49.6 18.1 49.9 18.4 50.1 18.5 50.3 18.5 50.3 18.6 50.4 19 50 19.7 49.6 20.6 49.1 21.6 48.9 22.7 48.7 23.1 48.7 22.9 48.5 22.7 48.3"/><polygon class="cls-4" points="105.1 98.3 105.4 99.3 105.3 97.2 105.2 96.8 105.1 97.2 105.1 98.3"/><polygon class="cls-4" points="114.1 101.6 114.8 100.8 115.4 99.9 115.8 99 115.9 97.9 115.9 96.8 115.8 96.3 115.7 96.9 115.3 97.9 114.8 98.8 114 99.5 113.2 100.2 112.2 100.6 112.3 102.7 113.2 102.2 114.1 101.6"/><polygon class="cls-4" points="117.9 87.1 117.5 87.1 116.9 87.1 116.2 87 115.3 86.9 114.4 86.7 113.5 86.5 112.5 86.2 111.6 85.9 110.8 85.6 110.1 85.3 109.5 85 109 84.8 108.7 84.5 108.6 84.3 107.8 87.3 107.6 87.3 106 88 104.6 89 103.5 90.2 102.6 91.7 101.9 93.3 101.7 95 101.7 96.7 101.7 96.7 101.8 98.7 101.7 97 102 95.3 102.6 93.8 103.5 92.3 104.7 91.1 106.1 90.1 107.7 89.4 109.4 89 111.1 88.9 112.8 89.2 114.4 89.8 115.9 90.7 117.1 91.9 118.1 93.2 118.8 94.8 119.2 96.4 119.2 94.4 118.8 92.7 118.1 91.2 117.4 90.2 118.3 86.9 118.2 87 117.9 87.1"/><polygon class="cls-3" points="117.4 86.8 117.2 86.9 116.8 86.9 116.3 86.9 115.7 86.8 115 86.7 114.3 86.5 113.5 86.3 112.7 86.1 111.9 85.9 111.2 85.6 110.6 85.4 110.1 85.1 109.8 84.9 109.5 84.7 109.4 84.6 109.6 84.1 109.4 84.1 109 84.1 108.7 84.2 108.6 84.3 108.7 84.5 109 84.8 109.5 85 110.1 85.3 110.8 85.6 111.6 85.9 112.5 86.2 113.5 86.5 114.4 86.7 115.3 86.9 116.2 87 116.9 87.1 117.5 87.1 117.9 87.1 118.2 87 118.3 86.9 118.2 86.7 117.9 86.5 117.6 86.3 117.5 86.7 117.4 86.8"/><polygon class="cls-6" points="118.6 81.8 118.2 81.8 117.7 81.8 117.1 81.7 116.4 81.6 115.6 81.4 114.9 81.2 114.1 81 113.3 80.8 112.6 80.5 112 80.3 111.5 80 111.1 79.8 110.9 79.6 110.8 79.5 109.6 84.1 109.4 84.6 109.5 84.7 109.8 84.9 110.1 85.1 110.6 85.4 111.2 85.6 111.9 85.9 112.7 86.1 113.5 86.3 114.3 86.5 115 86.7 115.7 86.8 116.3 86.9 116.8 86.9 117.2 86.9 117.4 86.8 117.5 86.7 117.6 86.3 118.9 81.6 118.8 81.7 118.6 81.8"/><polygon class="cls-6" points="121.2 71.2 120.8 71.3 120.3 71.3 119.7 71.3 119 71.3 118.5 71.2 118.3 71.2 118.2 71.2 117.4 71.1 116.6 71 115.8 70.8 115.1 70.7 114.5 70.5 114 70.3 113.8 70.2 113.6 70.1 113.4 69.9 113.3 69.8 113.2 70.1 112.6 72.8 112.2 74.3 112.3 74.4 112.5 74.6 112.9 74.8 113.4 75 114 75.2 114.7 75.4 115.5 75.6 116.3 75.8 117.1 75.9 117.8 76.1 118.6 76.1 119.2 76.2 119.7 76.2 120 76.1 120.3 76 120.3 75.9 120.6 74.7 121.3 71.9 121.5 71 121.4 71.1 121.2 71.2"/><polygon class="cls-10" points="123 54.1 122.7 51.9 122.2 50.2 122.1 50.3 121.9 50.6 121.6 50.8 121.1 51.1 120.8 51.3 120.5 51.5 119.8 51.8 119 52.1 118.3 52.4 117.5 52.7 116.8 52.9 116.1 53.1 115.5 53.3 115 53.3 114.7 53.3 114.7 53.3 114.7 53.3 114.5 53.2 114.4 53.1 114.6 53.8 114.8 55.2 114.9 56.7 114.9 58.5 114.9 59.4 115 59.5 115.3 59.6 115.7 59.7 116.3 59.8 116.9 59.8 117.7 59.8 118.5 59.7 119.3 59.7 120.1 59.6 120.9 59.5 121.6 59.3 122.2 59.2 122.6 59 123 58.8 123.1 58.7 123.2 58.7 123.2 58.7 123.2 58.5 123.2 56.6 123.2 56.4 123 54.1"/><polygon class="cls-6" points="123.2 58.7 123.1 58.7 123 58.8 122.6 59 122.2 59.2 121.6 59.3 120.9 59.5 120.1 59.6 119.3 59.7 118.5 59.7 117.7 59.8 116.9 59.8 116.3 59.8 115.7 59.7 115.3 59.6 115 59.5 114.9 59.4 114.8 60.5 114.5 62.7 114.2 65 114 66.1 114.1 66.2 114.4 66.4 114.8 66.5 115.3 66.7 115.9 66.8 116.6 66.9 117.4 67 118.2 67.1 119.1 67.2 119.8 67.2 120.5 67.2 121.2 67.1 121.7 67 122 66.9 122.3 66.8 122.3 66.7 122.4 66.5 122.8 63.9 123 61.4 123.2 58.9 123.2 58.5 123.2 58.7 123.2 58.7"/><polygon class="cls-10" points="122 66.9 121.7 67 121.2 67.1 120.5 67.2 119.8 67.2 119.1 67.2 118.2 67.1 117.4 67 116.6 66.9 115.9 66.8 115.3 66.7 114.8 66.5 114.4 66.4 114.1 66.2 114 66.1 113.7 67.5 113.3 69.8 113.4 69.9 113.6 70.1 113.8 70.2 114 70.3 114.5 70.5 115.1 70.7 115.8 70.8 116.6 71 117.4 71.1 118.2 71.2 118.3 71.2 118.5 71.2 119 71.3 119.7 71.3 120.3 71.3 120.8 71.3 121.2 71.2 121.4 71.1 121.5 71 121.9 69.1 122.3 66.7 122.3 66.8 122 66.9"/><polygon class="cls-10" points="120 76.1 119.7 76.2 119.2 76.2 118.6 76.1 117.8 76.1 117.1 75.9 116.3 75.8 115.5 75.6 114.7 75.4 114 75.2 113.4 75 112.9 74.8 112.5 74.6 112.3 74.4 112.2 74.3 111.9 75.5 111.1 78.4 110.8 79.5 110.9 79.6 111.1 79.8 111.5 80 112 80.3 112.6 80.5 113.3 80.8 114.1 81 114.9 81.2 115.6 81.4 116.4 81.6 117.1 81.7 117.7 81.8 118.2 81.8 118.6 81.8 118.8 81.7 118.9 81.6 119.1 80.5 119.9 77.6 120.3 75.9 120.3 76 120 76.1"/><polygon class="cls-10" points="111.7 49.1 112 48.8 112.1 48.7 112.3 48.4 112.7 47.9 113.1 47.4 113.6 46.7 114.1 46.1 114.5 45.4 114.9 44.7 115.3 44.1 115.6 43.5 115.9 43.1 115.9 43 116 42.7 116.1 42.5 116 42.4 114.6 41.7 112.3 41 109.9 40.5 109.8 40.5 107.9 40.4 107.9 40.6 107.8 40.9 107.8 41.4 107.8 42 107.9 42.6 107.9 43.4 108 44.2 108 45 108.1 45.8 108.2 46.6 108.2 47.3 108.3 47.8 108.4 48.3 108.4 48.6 108.5 48.7 108.6 48.7 108.9 48.8 110.3 49 111.3 49.4 111.4 49.4 111.5 49.3 111.7 49.1"/><polygon class="cls-6" points="114.7 53.3 114.7 53.3 114.7 53.3 115 53.3 115.5 53.3 116.1 53.1 116.8 52.9 117.5 52.7 118.3 52.4 119 52.1 119.8 51.8 120.5 51.5 120.8 51.3 121.1 51.1 121.6 50.8 121.9 50.6 122.1 50.3 122.2 50.2 122.1 49.8 121.2 47.8 120.1 46 119.9 45.8 118.5 44.1 116.7 42.8 116 42.4 116.1 42.5 116 42.7 115.9 43 115.9 43.1 115.6 43.5 115.3 44.1 114.9 44.7 114.5 45.4 114.1 46.1 113.6 46.7 113.1 47.4 112.7 47.9 112.3 48.4 112.1 48.7 112 48.8 111.7 49.1 111.5 49.3 111.4 49.4 112.2 49.8 112.9 50.3 113.4 50.9 113.8 51.6 114.2 52.6 114.4 53.1 114.5 53.2 114.7 53.3"/><polygon class="cls-9" points="53.9 81.7 54 81.4 54.1 81 54 80.6 53.9 80.2 53.6 79.8 53.3 79.5 52.9 79.2 52.5 79.1 52 78.9 51.5 78.9 51.1 78.9 50.6 79.1 50.1 79.2 49.8 79.5 49.5 79.8 49.2 80.2 49.1 80.6 49 81 49.1 81.4 49.2 81.7 49.5 82.1 49.8 82.4 50.1 82.7 50.6 82.8 51.1 83 51.5 83 52 83 52.5 82.8 52.9 82.7 53.3 82.4 53.6 82.1 53.9 81.7"/><polygon class="cls-9" points="85.5 80.2 85.3 79.8 85 79.5 84.6 79.2 84.2 79.1 83.7 78.9 83.2 78.9 82.7 78.9 82.2 79.1 81.8 79.2 81.4 79.5 81.1 79.8 80.9 80.2 80.7 80.6 80.7 81 80.7 81.4 80.9 81.7 81.1 82.1 81.4 82.4 81.8 82.7 82.2 82.8 82.7 83 83.2 83 83.7 83 84.2 82.8 84.6 82.7 85 82.4 85.3 82.1 85.5 81.7 85.7 81.4 85.7 81 85.7 80.6 85.5 80.2"/><polygon class="cls-9" points="104.5 30.1 104.6 30.9 104.7 31.7 104.9 32.5 105 33.3 105.2 34.1 105.4 34.7 105.6 35.2 105.8 35.5 106 35.8 106.1 35.8 106.2 35.7 106.3 35.4 106.4 35 106.4 34.5 106.4 33.8 106.3 33.1 106.3 32.3 106.1 31.4 106 30.6 105.8 29.8 105.6 29.1 105.4 28.5 105.3 28 105.1 27.6 104.9 27.4 104.7 27.3 104.6 27.4 104.5 27.7 104.5 28.1 104.4 28.7 104.5 29.3 104.5 30.1"/><polygon class="cls-9" points="28.4 35.4 28.5 35.7 28.7 35.8 28.8 35.8 29 35.5 29.2 35.2 29.4 34.7 29.6 34.1 29.7 33.3 29.9 32.5 30 31.7 30.2 30.9 30.3 30.1 30.3 29.3 30.3 28.7 30.3 28.1 30.2 27.7 30.1 27.4 30 27.3 29.9 27.4 29.7 27.6 29.5 28 29.3 28.5 29.1 29.1 28.9 29.8 28.8 30.6 28.6 31.4 28.5 32.3 28.4 33.1 28.4 33.8 28.4 34.5 28.4 35 28.4 35.4"/><polygon class="cls-15" points="33 26.1 33.1 27 33.2 27.5 33.1 28.5 33.1 28.6 33.1 29.7 32.9 30.9 32.9 31.4 32.7 32.2 32.5 33.4 32.4 34.2 32.3 34.6 32.1 35.3 32.3 36 33.1 38 34.3 40 35.7 42 37.5 44 38.1 44.6 39.6 45.8 41.9 47.5 44.5 49.1 47.3 50.6 49.2 51.4 50.3 51.9 53.5 52.9 56.8 53.8 58.8 54.3 60.3 54.5 63.8 54.9 67.4 55.1 70.9 54.9 74.4 54.5 75.9 54.3 77.9 53.8 81.2 52.9 84.4 51.9 85.5 51.4 87.4 50.6 90.2 49.1 92.8 47.5 95.1 45.8 96.6 44.6 97.2 44 99 42 100.4 40 101.6 38 102.4 36 102.6 35.1 102.5 34.6 102.4 34.1 102.2 33.4 102 32.2 101.9 31.6 101.8 30.9 101.7 29.7 101.6 28.7 101.6 28.5 101.6 27.5 101.6 27.1 101.7 26.2 101.7 26 101.7 26 101.7 26 101.3 25 96.6 16.7 95.6 15.1 94.3 13.5 89.3 8.2 88 7 86.6 5.9 84.9 4.8 83.1 3.9 81.2 3 78.1 1.9 76.5 1.3 74.7 0.8 73 0.5 71.1 0.2 69.2 0.1 67.4 0 65.5 0.1 63.6 0.2 61.7 0.5 60 0.8 58.2 1.3 56.6 1.9 53.5 3 51.6 3.9 49.8 4.8 48.1 5.9 46.7 7 45.4 8.2 40.4 13.5 39.1 15.1 38.1 16.7 33.4 25 33 25.9 33 26 33 26.1"/></svg>