<svg id="Layer_1" data-name="Layer 1" xmlns="http://www.w3.org/2000/svg" viewBox="0 0 106.8 153.1"><defs><style>.cls-1{fill:#ededf4;}.cls-2{fill:none;}.cls-3{fill:#9399a8;}.cls-4{fill:#b5b5c1;}.cls-5{fill:#43434b;}.cls-6{fill:#d9d9df;}.cls-7{fill:#6d5c46;}.cls-8{fill:#7b7a88;}.cls-9{fill:#605e73;}.cls-10{fill:#4b3a2d;}.cls-11{fill:#9491a4;}.cls-12{fill:#46bbed;}.cls-13{fill:#2affff;}.cls-14{fill:#5e5c6a;}.cls-15{fill:#54d9ff;opacity:0.5;}</style></defs><rect class="cls-1" x="-469.1" y="-395.6" width="1000" height="800"/><polygon class="cls-2" points="69.6 100.8 69 96.9 66.2 97.1 63.4 96.9 62.9 100.8 69.6 100.8"/><polygon class="cls-2" points="97.3 37.3 97 36 97.3 37.3 98.8 37.4 97.3 37.3"/><polygon class="cls-2" points="37.6 61.4 37.4 61.3 37.6 61.4 37.5 61.8 37.6 61.4"/><polygon class="cls-2" points="35 60.5 35.3 60.7 35 60.5 34.1 59.8 34.3 60 35 60.5"/><polygon class="cls-2" points="37.9 48.2 37.2 48.1 36.8 48 37.5 48.1 37.9 48.2"/><polygon class="cls-2" points="30.7 58.8 30.6 58.8 30.7 58.8 30.7 58.8"/><polygon class="cls-2" points="28.2 59.9 28.2 59.9 28.2 59.9 28.2 59.9 28.3 59.9 28.2 59.9"/><polygon class="cls-2" points="40.9 60.1 40.8 60.2 40.9 60.1 40.9 60.1"/><polygon class="cls-3" points="8.1 84.7 8.3 85.1 8.6 85.5 9.1 85.9 9.7 86.2 10.4 86.5 11.2 86.7 12 86.9 12.8 87 13.7 87 14.4 86.9 15.1 86.7 15.7 86.5 16.1 86.2 16.4 85.8 16.6 85.5 16.8 84.1 17.2 80.6 17.1 81 16.8 81.4 16.3 81.6 15.7 81.9 15 82 14.3 82.1 13.5 82.1 12.6 82.1 11.8 81.9 11 81.7 10.3 81.4 9.7 81.1 9.3 80.7 8.9 80.3 8.7 79.9 8.7 79.5 8.3 83 8.1 84.3 8.1 84.7"/><polygon class="cls-4" points="87.6 4.7 87.8 4.7 88.1 4.6 88.2 4.5 88.4 4.5 88.7 4.5 88.9 4.4 89.1 4.3 89.1 4.3 89.5 3.8 89.6 3.7 89.9 3.2 90.1 2.6 90 2 89.9 1.4 89.6 0.9 89.1 0.5 88.6 0.2 88.5 0.1 87.9 0 87.8 0 87.6 0 87.3 0 87.1 0.1 86.9 0.1 86.8 0.2 86.3 0.5 85.9 0.9 85.8 1 85.5 1.5 85.4 2.1 85.4 2.7 85.6 3.3 85.9 3.8 86.3 4.3 86.5 4.3 87 4.6 87 4.6 87.4 4.7 87.6 4.7"/><polygon class="cls-5" points="40.4 30.3 41.4 30.6 45.8 4.6 45.8 4.6 45.8 4.5 45.6 4.5 45.3 4.5 45.1 4.4 44.9 4.2 44.7 4.3 44.5 4.4 44.3 4.4 44.1 4.4 43.8 4.3 43.8 4.3 43.8 4.3 39.4 30.3 40.4 30.3 40.4 30.3"/><polygon class="cls-6" points="40.4 30.3 41.2 30.7 41.9 31.3 42.4 32.1 42.8 33.1 43 34.2 43.1 35.5 43 36.8 42.6 38.1 44.4 38.6 44.7 37.3 44.7 37.3 44.9 36.2 44.9 36 44.8 35 44.8 34.8 44.6 33.6 44.4 33.1 44.2 32.6 43.9 32.1 43.8 32.1 43.6 31.8 43.5 31.7 43 31.2 42.2 30.8 41.4 30.6 40.4 30.3 40.4 30.3"/><polygon class="cls-7" points="88 126.1 87.6 126.2 87.4 126.2 87.6 128.3 87.2 133.1 86.2 137.8 84.6 142.1 82.4 145.8 79.8 148.9 76.7 151.2 73.4 152.6 74.1 152.5 77.4 151.1 78 150.7 81 148.5 83.6 145.5 85.7 141.8 85.9 141.4 87.4 137.3 88.4 132.9 88.7 128.3 88.6 125.9 88.4 126 88 126.1"/><path class="cls-8" d="M47.7,109.3v1l.2,1.2,1.3,9.5v8.2h0l.2.9.3.9.5.8.2.2.3.4.6.4.7.3h1.4l.7-.3.6-.4.5-.6.5-.8.3-.9.2-.9v-1h3.6V121H56.5l3.9-28-2,.6-5.5.5-5.5-.5-2-.6v.5l2.1,15.1v.7Zm7.4,19.6v.6l-.2.5-.3.5-.4.4-.3.3-.5.2H52l.4-.2.4-.3.3-.4.3-.5.2-.5v-2.4l-.2-.6-.3-.4-.3-.4-.4-.3-.4-.2h1.3l.5.2.3.3.4.4.3.4.2.6v1.8Z"/><polygon class="cls-4" points="47.6 108.6 46.4 110.1 46.1 110.6 47.6 108.8 47.6 108.6"/><polygon class="cls-5" points="47.4 93.6 52.9 94.1 58.4 93.6 60.4 93 63.8 94.6 63.7 95.1 63.5 96.4 66.2 96 66.7 95.9 67.1 95.8 67.4 95.6 67.5 95.5 67.4 95.3 67.2 95.2 66.7 95.1 66.2 95.1 60.6 92.7 58.7 91.3 58.1 90.9 57.4 90.7 56.7 90.5 56.1 90.5 55.9 90.5 55.2 90.4 54.7 90.4 48.6 91.5 41.2 90.2 40 89.6 38.8 88.6 35.9 86 35.1 83.9 34.4 82.1 33.8 82.1 34.9 86 38.2 89.6 43.3 92.7 45.5 93.5 45.4 93 47.4 93.6"/><polygon class="cls-9" points="81.7 105.3 83.1 106.4 84.9 108.6 87 93.5 83.2 94.8 81.7 105.3"/><polygon class="cls-4" points="81.7 105.3 79.7 103.7 79 103.3 75.3 101.5 74.5 101.4 70.6 100.8 69.6 100.8 62.9 100.8 62.9 100.9 62.8 101.2 62.8 101.8 62.6 102.7 63.4 102.8 67 104.4 70.3 107.1 73.2 110.6 75.5 115 77.3 119.9 78.1 123.8 78.9 124.1 79.1 124.2 79.4 124.3 79.7 124.4 80.5 124.7 80.6 124.8 81.1 125 81.3 125.1 81.6 125.3 82.4 125.6 82.8 125.8 83.6 126 84.4 126.2 84.8 126.2 86 126.3 86.6 126.3 87.4 126.2 87.6 126.2 88 126.1 88.4 126 88.6 125.9 89.1 125.8 90.3 125.3 90.5 125.1 90.6 125 90.9 124.8 91.3 124.3 91.3 124.2 91.3 123.8 90.5 119.9 88.7 115 88.5 114.5 86.1 110.1 84.9 108.6 83.1 106.4 81.7 105.3"/><polygon class="cls-10" points="65.8 127.2 65.9 128.3 65.8 130 65.4 131.7 64.8 133.2 64.1 134.5 63.1 135.6 62 136.4 60.9 136.9 59.6 137.1 59.1 137.1 57.8 136.9 56.7 136.4 55.6 135.6 54.6 134.5 53.9 133.3 52.9 133.3 52.2 133.2 51.5 132.9 50.9 132.5 50.6 132.1 50.9 133.4 51.8 135.7 53 137.7 54.4 139.4 56 140.6 57.8 141.4 59.6 141.7 61.5 141.4 63.3 140.6 64.9 139.4 66.3 137.7 67.5 135.7 68.4 133.4 68.9 130.9 69.1 128.3 68.9 125.7 68.4 123.2 68.3 122.9 68.1 122.9 65.8 127.2"/><polygon class="cls-8" points="56.5 133.3 53.9 133.3 54.6 134.5 55.6 135.6 56.7 136.4 57.8 136.9 59.1 137.1 60.3 136.9 61.4 136.4 62.5 135.6 63.5 134.5 64.2 133.2 64.8 131.7 65.2 130 65.3 128.3 65.2 128.3 64.8 129.1 64 130.2 63 131.2 62 132 60.9 132.6 59.8 132.9 58.7 133 57.8 133 57.2 133.2 56.5 133.3"/><polygon class="cls-11" points="60.9 127.7 60.8 127.1 60.5 126.5 60.3 126.1 60.1 125.8 60.1 126.1 60.1 126.5 60.1 127.1 60.1 127.7 60.1 128.3 60.9 128.3 60.9 127.7"/><polygon class="cls-9" points="56.5 133.3 57.2 133.2 57.8 133 57.9 132.9 58.5 132.5 59 131.9 59.4 131.3 59.5 131.2 59.9 130.9 60.3 130.5 60.5 130.1 60.8 129.5 60.9 128.9 60.9 128.3 60.1 128.3 56.5 128.3 56.4 129.3 56.2 130.2 55.9 131.1 55.4 131.9 54.9 132.5 54.3 132.9 53.6 133.2 52.9 133.3 53.9 133.3 56.5 133.3"/><polygon class="cls-9" points="63.8 94.6 60.4 93 56.5 121 60.1 121 62.1 106.2 62.3 104.9 62.4 104.6 62.5 103.7 62.6 102.7 62.8 101.8 62.8 101.2 62.9 100.9 62.9 100.8 63.4 96.9 63.4 96.9 63.4 96.8 63.5 96.6 63.5 96.6 63.5 96.4 63.7 95.1 63.8 94.6"/><polygon class="cls-3" points="62.4 104.6 62.3 104.9 62.1 106.2 60.1 121 60.1 125.8 60.3 126.1 60.5 126.5 60.8 127.1 60.9 127.7 60.9 128.3 60.9 128.9 60.8 129.5 60.5 130.1 60.3 130.5 59.9 130.9 59.5 131.2 59.4 131.3 59 131.9 58.5 132.5 57.9 132.9 57.8 133 58.7 133 59.8 132.9 60.9 132.6 62 132 63 131.2 64 130.2 64.8 129.1 65.2 128.3 65.3 128.2 65.8 127.2 68.1 122.9 68.3 122.9 73.8 122.9 74.6 122.9 74.6 122.9 75.4 123 75.6 123 75.7 123.1 76.8 123.3 77.6 123.6 77.9 123.7 78.1 123.8 77.3 119.9 75.5 115 73.2 110.6 70.3 107.1 67 104.4 63.4 102.8 62.6 102.7 62.5 103.7 62.4 104.6"/><polygon class="cls-8" points="70.6 100.8 74.5 101.4 75.3 101.5 79 103.3 79.7 103.7 81.7 105.3 83.2 94.8 82.5 95.1 77.6 96 74.6 96.6 69 96.9 69.6 100.8 70.6 100.8"/><polygon class="cls-4" points="43.8 4.3 44.1 4.4 44.3 4.4 44.5 4.4 44.7 4.3 44.9 4.2 45.1 4.4 45.3 4.5 45.6 4.5 45.8 4.5 45.8 4.6 45.8 4.6 45.9 4.6 46.4 4.3 46.5 4.3 47 3.8 47.3 3.3 47.5 2.7 47.5 2.1 47.3 1.5 47.1 1 46.6 0.6 46.5 0.5 46.1 0.2 45.9 0.1 45.7 0.1 45.5 0 45.3 0 45.1 0 44.9 0 44.4 0.1 43.9 0.4 43.8 0.5 43.3 0.9 43 1.4 42.8 2 42.8 2.6 42.9 3.2 43.2 3.7 43.6 4.2 43.7 4.3 43.8 4.3 43.8 4.3 43.8 4.3"/><polygon class="cls-9" points="53.7 128.9 53.6 129.5 53.4 130.1 53.1 130.5 52.8 130.9 52.4 131.2 52 131.4 51.5 131.5 52.9 131.5 53.3 131.4 53.8 131.2 54.1 130.9 54.5 130.5 54.8 130.1 55 129.5 55.1 128.9 55.1 128.3 53.8 128.3 53.7 128.9"/><polygon class="cls-11" points="55 127.1 54.8 126.5 54.5 126.1 54.1 125.7 53.8 125.4 53.3 125.2 52.9 125.1 51.5 125.1 52 125.2 52.4 125.4 52.8 125.7 53.1 126.1 53.4 126.5 53.6 127.1 53.7 127.7 53.8 128.3 55.1 128.3 55.1 127.7 55 127.1"/><polygon class="cls-6" points="27 70.5 27 70.3 26.9 69.6 26.8 68.9 26.7 68.4 26.6 67.9 26.6 67.5 26.5 67.3 26.5 67.3 26.5 67.3 26 67.3 25.5 67.5 25 67.9 24.6 68.4 24.3 68.9 24 69.6 23.9 70.3 23.8 71 27.2 71 27 70.5"/><polygon class="cls-3" points="28.4 74.5 28.2 74.2 28.1 73.7 27.9 73.1 27.7 72.5 27.4 71.8 27.2 71 23.8 71 23.9 71.8 24 72.5 24.3 73.1 24.6 73.7 25 74.2 25.5 74.5 26 74.7 26.5 74.8 28.5 74.8 28.4 74.7 28.4 74.5"/><polygon class="cls-8" points="102.8 39 102.3 39.2 101.9 39.2 100.8 39.4 99.2 39.7 98.2 39.8 97.4 39.8 97.2 39.8 95.2 39.9 92.7 40 91.1 39.9 90 39.9 87 39.8 87 39.8 86.3 39.8 85.7 39.8 84.3 39.7 83.9 39.7 81 39.5 80.5 39.4 77.1 39.2 76.8 39.2 75.8 39.2 73.5 39 71.7 38.8 69.9 38.6 66.2 38.4 62.6 38.2 60.7 38.1 60.1 38.1 59 38 56.5 37.8 55.5 37.7 55.4 37.7 52.1 37.5 50.8 37.5 48.8 37.4 47.4 37.4 45.8 37.3 45.1 37.3 44.7 37.3 44.7 37.3 44.4 38.6 44 39.9 43.6 40.5 45.3 40.5 48.5 40.6 51.8 40.8 55.3 41 58.9 41.2 60 41.3 62.5 41.4 66.2 41.7 70 41.9 73.7 42.2 75.9 42.5 77.3 42.5 80.8 42.7 84.2 42.9 85.6 43.1 86.1 43.1 87.5 43.1 90.5 43.1 93.3 43.1 95.8 43.1 98 43.1 98.8 43.1 99.1 43.1 99.9 42.9 101.4 42.7 102.7 42.5 103 42.5 103.5 42.2 104 41.9 104.1 41.7 103.4 38.4 103.2 38.6 102.8 39"/><path class="cls-8" d="M96.9,50.4v1.3l.6,10.1-.7,6.1V69h0v2.3l.3.9.4.8.4.5h.1l.5.4h1.3l.6-.4h.1l.6-.6.6-.8.2-.2.4-.7.4-.9v-.2l.2-1.2.2-1.2.8-6.1-.6-10.1V50.4l-.2-1v-.2l-.4-1.1-.2-.4-.3-.5-.6-.8-.6-.6-.6-.4H99.1l-.5.4h-.1l-.5.6-.4.8-.4.9v1.3l-.2,1Zm1.6-1,.3-.7.2-.4h0l.4-.4.3-.2H101l.4.4.4.5.3.7h.1v.7l.2.7v1l.6,10-.7,5.9-.2,1-.2.7-.2.8-.2.3-.2.3-.4.5-.4.3H99.4l-.4-.2-.3-.4h0l-.2-.4v-.6l-.2-.8V67.7l.7-5.9-.5-10V49.4Z"/><polygon class="cls-5" points="82.2 50.8 82.2 51.8 82.7 61.8 82 67.7 82 68.7 82.2 69.4 82.4 70.2 82.7 70.5 82.8 70.8 83.3 71.3 83.9 71.7 84 71.7 84.5 71.9 84.6 71.9 85.1 72 85.3 72 86 71.9 86.8 71.7 87.5 71.3 87.9 71 88.2 70.8 88.4 70.5 88.7 70.2 89.1 69.4 89.4 68.7 89.5 67.7 90.2 61.8 89.7 51.8 89.5 50.8 89.3 50.1 89 49.4 88.9 49.4 88.4 48.7 88.1 48.5 87.8 48.2 87.1 47.8 86.4 47.6 85.6 47.5 84.9 47.6 84.7 47.7 84.2 47.8 83.6 48.2 83.1 48.7 82.7 49.4 82.7 49.4 82.4 50.1 82.2 50.8"/><polygon class="cls-5" points="98.3 50.8 98.3 51.8 98.8 61.8 98.1 67.7 98.1 68.7 98.1 69.4 98.3 70.2 98.4 70.5 98.5 70.8 98.7 71.2 98.7 71.3 99 71.7 99.4 71.9 99.8 72 100 72 100.2 71.9 100.4 71.8 100.7 71.7 100.7 71.6 101.1 71.3 101.5 70.8 101.7 70.5 101.9 70.2 102.1 69.4 102.3 68.7 102.5 67.7 103.2 61.8 102.6 51.8 102.5 50.8 102.3 50.1 102.2 49.4 102.1 49.4 101.8 48.7 101.4 48.2 101 47.8 100.9 47.7 100.6 47.6 100.1 47.5 99.7 47.6 99.4 47.8 99 48.2 99 48.3 98.8 48.7 98.5 49.4 98.5 49.4 98.4 50.1 98.3 50.8"/><polygon class="cls-4" points="88.7 35 88.1 37.3 89.1 37.3 92.3 37.3 92.7 37.3 94.7 37.3 96.9 37.3 97.3 37.3 97 36 96.5 34.8 95.9 33.6 95.1 32.6 94.2 31.8 93.3 31.2 92.3 30.8 90.3 30.8 89.4 31.2 89 31.6 89 32.1 88.7 35"/><path class="cls-8" d="M80,51.7l.5,10.1-.7,6.1v1.2l.2,1.2v.2l.3.9.5.9H81l.7.7.9.6h.1l.9.3h2.3l1.1-.4.5-.2.6-.4.9-.8.9-.9.6-.9v-.2l.5-1.2.2-1.2.7-6.1-.6-10.1V50.4l-.3-1v-.2l-.7-1.1-.8-.9-.9-.8-.7-.4-.3-.2-1.1-.4H84.2l-1.1.4-1,.6-.8.8v.2l-.5.7-.4,1.1v.2l-.3,1Zm2.7-2.3.4-.7.5-.5.6-.4h2.2l.7.2.7.4.3.3.3.2.5.7H89l.3.7.2.7.2,1,.5,10-.7,5.9v1l-.3.7-.4.8-.3.3-.2.3-.3.2-.4.3-.7.4-.8.2H84.5l-.5-.2h-.1l-.6-.4-.5-.5v-.3l-.3-.3-.2-.8-.2-.7v-1l.7-5.9-.5-10v-1l.2-.7.3-.7Z"/><polygon class="cls-6" points="44.1 51.9 43.8 50.5 43.4 49.4 43.3 49.1 42.7 47.9 41.9 46.9 41.5 46.6 41 46.2 39.9 45.7 39.8 45.7 38.8 45.6 38.7 45.6 38.3 45.6 37.2 45.7 36.2 46.2 36.1 46.2 35.9 46.3 34.9 47 34 48 33.9 48.2 33.4 48.9 33.1 49.3 33.1 49.4 33.1 49.4 33.2 49.4 33.4 49.3 33.5 49.3 34 49.3 34.3 49.2 34.6 48.9 35.3 48.4 36 48.1 36.8 48 37.2 48.1 37.9 48.2 37.5 48.1 38.2 48.4 38.8 48.9 39.3 49.6 39.7 50.4 40 51.3 40.2 52.3 40.2 53.3 40.6 53.3 41.1 53.3 41.5 53.3 41.9 53.3 42.4 53.4 42.9 53.4 43.4 53.4 43.8 53.5 44.2 53.5 44.1 52 44.1 51.9"/><polygon class="cls-8" points="29 41.3 29.2 41.2 30.1 41 31.4 40.8 33 40.6 34 40.6 34 40.5 33.7 39.3 33.7 38.1 33.8 37.4 33.7 37.4 32.1 37.5 30.9 37.7 29.9 38 29.7 38.1 29.3 38.2 29.1 38.4 28.4 41.7 28.6 41.4 29 41.3"/><path class="cls-8" d="M29.7,77.4h-.4l5.3,1.8-.8,2.9H98.7l-.9-2.9,5.3-1.8Z"/><polygon class="cls-5" points="93.9 30.3 93.1 30.3 89.1 4.3 88.9 4.4 88.7 4.5 88.4 4.5 88.2 4.5 88.1 4.6 87.8 4.7 87.6 4.7 87.4 4.7 87 4.6 91 30.6 90.3 30.8 92.3 30.8 93.9 30.3"/><polygon class="cls-9" points="65.2 130 64.8 131.7 64.2 133.2 63.5 134.5 62.5 135.6 61.4 136.4 60.3 136.9 59.1 137.1 59.6 137.1 60.9 136.9 62 136.4 63.1 135.6 64.1 134.5 64.8 133.2 65.4 131.7 65.8 130 65.9 128.3 65.8 127.2 65.3 128.2 65.2 128.3 65.3 128.3 65.2 130"/><polygon class="cls-4" points="44.1 123.7 44.2 122.9 42.8 122.9 42.6 122.9 42.1 123 42 123 41.9 123.1 41.5 123.3 41.4 123.4 41.2 123.8 41.2 124.2 41.2 124.3 41.6 124.8 41.8 125 42 125.1 42.2 125.3 43.4 125.8 43.9 125.9 44 125 44.1 123.7"/><polygon class="cls-7" points="69.2 151.2 72.2 148.9 74.9 145.8 77 142.1 78.7 137.8 79.7 133.1 80 128.3 79.7 124.4 79.4 124.3 79.1 124.2 78.9 124.1 78.1 123.8 77.9 123.7 77.6 123.6 76.8 123.3 75.7 123.1 75.6 123 75.4 123 74.6 122.9 74.6 122.9 73.8 122.9 68.3 122.9 68.4 123.2 68.9 125.7 69.1 128.3 68.9 130.9 68.4 133.4 67.5 135.7 66.3 137.7 64.9 139.4 63.3 140.6 61.5 141.4 59.6 141.7 57.8 141.4 56 140.6 54.4 139.4 53 137.7 51.8 135.7 50.9 133.4 50.6 132.1 50.4 131.9 49.9 131.1 49.6 130.2 49.4 129.3 49.4 129.2 49.3 128.9 49.3 128.3 49.3 127.7 49.3 123 49.3 122.9 45.5 122.9 44.8 122.9 44.4 122.9 44.2 122.9 44.1 123.7 44 125 43.9 125.9 43.8 128.3 44.1 132.9 45 137.3 46.6 141.4 48.7 145 48.9 145.5 51.5 148.5 54.5 150.7 55.1 151.1 58.3 152.5 59 152.6 62.5 153.1 65.9 152.6 69.2 151.2"/><polygon class="cls-10" points="69.9 151.2 72.9 148.9 75.6 145.8 77.8 142.1 79.4 137.8 80.4 133.1 80.7 128.3 80.5 124.7 79.7 124.4 80 128.3 79.7 133.1 78.7 137.8 77 142.1 74.9 145.8 72.2 148.9 69.2 151.2 65.9 152.6 62.5 153.1 63.2 153.1 66.6 152.6 69.9 151.2"/><polygon class="cls-10" points="79.8 148.9 82.4 145.8 84.6 142.1 86.2 137.8 87.2 133.1 87.6 128.3 87.4 126.2 86.6 126.3 86.7 128.3 86.4 133.1 85.4 137.8 83.8 142.1 81.6 145.8 79 148.9 75.9 151.2 72.6 152.6 69.2 153.1 70 153.1 73.4 152.6 76.7 151.2 79.8 148.9"/><polygon class="cls-7" points="75.9 151.2 79 148.9 81.6 145.8 83.8 142.1 85.4 137.8 86.4 133.1 86.7 128.3 86.6 126.3 86 126.3 84.8 126.2 85 128.3 84.6 133.1 83.6 137.8 82 142.1 79.8 145.8 77.2 148.9 74.1 151.2 70.8 152.6 67.4 153.1 69.2 153.1 72.6 152.6 75.9 151.2"/><polygon class="cls-7" points="71.8 151.2 74.8 148.9 77.5 145.8 79.7 142.1 81.3 137.8 82.3 133.1 82.6 128.3 82.4 125.6 81.6 125.3 81.3 125.1 81.1 125 80.6 124.8 80.5 124.7 80.7 128.3 80.4 133.1 79.4 137.8 77.8 142.1 75.6 145.8 72.9 148.9 69.9 151.2 66.6 152.6 63.2 153.1 65.1 153.1 68.5 152.6 71.8 151.2"/><polygon class="cls-10" points="74.1 151.2 77.2 148.9 79.8 145.8 82 142.1 83.6 137.8 84.6 133.1 85 128.3 84.8 126.2 84.4 126.2 83.6 126 82.8 125.8 82.4 125.6 82.6 128.3 82.3 133.1 81.3 137.8 79.7 142.1 77.5 145.8 74.8 148.9 71.8 151.2 68.5 152.6 65.1 153.1 66.2 153.1 67.4 153.1 70.8 152.6 74.1 151.2"/><polygon class="cls-3" points="44.4 38.6 42.6 38.1 42.2 39.3 41.6 40.5 40.8 41.5 40 42.3 39.1 42.9 38.2 43.3 37.3 43.4 36.4 43.3 36.7 43.4 38.2 43.8 39 44 39.1 44 39.9 43.8 40.9 43.5 41.8 42.8 42.1 42.5 42.6 42 43.3 41 43.6 40.5 44 39.9 44.4 38.6"/><polygon class="cls-12" points="43.8 32.1 43.9 31.4 44 30.3 44 29.2 44 29.1 44.2 28 44.3 27 44.4 26.4 44.4 26.1 44.6 25.5 44.2 26.4 43.9 28 43.8 28.6 43.7 29.2 43.7 29.4 43.7 30.3 43.6 31.1 43.6 31.3 43.5 31.4 43.5 31.7 43.6 31.8 43.8 32.1"/><polygon class="cls-5" points="44.4 26.4 44.3 27 44.2 28 44 29.1 44 29.2 44 30.3 43.9 31.4 43.8 32.1 43.9 32.1 44.2 32.6 44.4 33.1 44.6 33.6 44.8 34.8 44.8 35 44.9 36 44.9 36.2 44.7 37.3 45.1 37.3 45.8 37.3 47.4 37.4 48.8 37.4 50.8 37.5 52.1 37.5 55.4 37.7 55.5 37.7 56.5 37.8 59 38 60.1 38.1 60.7 38.1 62.6 38.2 66.2 38.4 69.9 38.6 71.7 38.8 73.5 39 75.8 39.2 76.8 39.2 77.1 39.2 80.5 39.4 81 39.5 83.9 39.7 84.3 39.7 85.7 39.8 86.3 39.8 87 39.8 87.6 38.5 87.9 37.8 88.1 37.3 88.7 35 89 32.1 89 31.6 88.8 29.2 88.2 26.4 87.2 23.7 85.8 21.4 85 20.5 84.4 20.5 82.5 20.5 79.5 20.5 75.6 20.5 71.1 20.5 66.2 20.5 61.4 20.5 56.8 20.5 52.9 20.5 50 20.5 48.1 20.5 47.4 20.5 46.6 21.4 45.2 23.7 44.6 25.5 44.4 26.1 44.4 26.4"/><polygon class="cls-13" points="43.6 31.1 43.7 30.3 43.7 29.4 43.7 29.2 43.8 28.6 43.9 28 43.6 29.2 43.5 31.4 43.6 31.3 43.6 31.1"/><polygon class="cls-5" points="11 98.2 11.4 97.3 11.9 96.3 12.4 95.6 18.3 99.5 20.2 100.5 21 98.9 21.6 97.3 22 95.8 22 94.3 21.8 92.9 21.4 91.7 20.7 90.8 19.8 90.1 17.1 88.4 17.5 85.6 17.3 86 16.9 86.4 16.4 86.8 15.7 87.1 14.8 87.3 13.9 87.4 12.9 87.4 11.9 87.3 10.9 87.1 10 86.8 9.2 86.5 8.4 86.1 7.9 85.6 7.5 85.1 7.3 84.6 7.3 84.1 7.2 84.9 6.6 85.1 5.3 86 4 87.1 2.8 88.4 1.8 89.8 1 91.4 0.4 93 0.1 94.6 0 96.1 0.2 97.4 0.7 98.6 1.4 99.5 2.3 100.2 10.4 105.7 12.2 102.7 11.6 102.3 11.2 101.7 10.9 101 10.8 100.2 10.8 99.2 11 98.2"/><path class="cls-3" d="M34.4,82.1l.7,1.8.8,2.1,2.9,2.6,1.2,1,1.2.6,7.4,1.3,6.1-1.1h2l.7.2.7.2.6.4,1.9,1.4,5.6,2.4h1.2v.2h-.1l-.3.2h-.9l-2.7.4v.2h0v.2h0l2.8.2,2.8-.2,5.6-.3,3-.6h1l.7-.2H80l.7-.2h1.8l.7-.3L87,93.5l2.2-.8,5.1-3.1L97.6,86l1.1-3.9Z"/><polygon class="cls-5" points="82 95.1 81.4 95.2 80.7 95.3 80 95.5 79.3 95.6 78.6 95.8 78 95.9 77.6 96 82.5 95.1 82 95.1"/><polygon class="cls-14" points="7.5 85.1 7.9 85.6 8.4 86.1 9.2 86.5 10 86.8 10.9 87.1 11.9 87.3 12.9 87.4 13.9 87.4 14.8 87.3 15.7 87.1 16.4 86.8 16.9 86.4 17.3 86 17.5 85.6 17.4 85.1 17.2 84.6 16.8 84.1 16.8 84.1 16.6 85.5 16.4 85.8 16.1 86.2 15.7 86.5 15.1 86.7 14.4 86.9 13.7 87 12.8 87 12 86.9 11.2 86.7 10.4 86.5 9.7 86.2 9.1 85.9 8.6 85.5 8.3 85.1 8.1 84.7 8.1 84.3 8.3 83 7.8 83.3 7.4 83.7 7.3 84.1 7.3 84.6 7.5 85.1"/><polygon class="cls-3" points="41.5 123.3 41.9 123.1 42 123 42.1 123 42.6 122.9 42.8 122.9 44.2 122.9 44.4 122.9 44.8 122.9 45.5 122.9 49.3 122.9 49.3 123 49.3 121 48 111.5 47.8 110.3 47.7 109.3 47.6 108.8 46.1 110.6 43.7 115 42 119.9 41.2 123.8 41.4 123.4 41.5 123.3"/><polygon class="cls-6" points="93.3 31.2 94.2 31.8 95.1 32.6 95.9 33.6 96.5 34.8 97 36 97.3 37.3 98.8 37.4 97.3 37.3 96.9 37.3 94.7 37.3 92.7 37.3 92.3 37.3 89.1 37.3 88.1 37.3 87.9 37.8 87.6 38.5 87 39.8 87 39.8 90 39.9 91.1 39.9 92.7 40 95.2 39.9 97.2 39.8 97.4 39.8 98.2 39.8 99.2 39.7 100.8 39.4 101.9 39.2 102.3 39.2 102.8 39 103.2 38.6 103.4 38.4 103.1 38.2 102.7 38.1 102.6 38 101.6 37.7 100.4 37.5 99 37.4 98.9 36.8 98.6 35.5 98.1 34.2 97.5 33.1 96.7 32.1 95.8 31.3 94.9 30.7 93.9 30.3 92.3 30.8 93.3 31.2"/><polygon class="cls-4" points="66.2 16.1 64.5 16.1 68 16.1 66.2 16.1"/><polygon class="cls-4" points="50 20.5 52.9 20.5 56.8 20.5 61.4 20.5 66.2 20.5 71.1 20.5 75.6 20.5 79.5 20.5 82.5 20.5 84.4 20.5 85 20.5 84.1 19.4 82.7 18.4 82.2 18.4 80.5 18.4 77.9 18.4 74.5 18.4 70.5 18.4 66.2 18.4 62 18.4 58 18.4 54.6 18.4 52 18.4 50.3 18.4 49.7 18.4 48.4 19.4 47.4 20.5 48.1 20.5 50 20.5"/><polygon class="cls-6" points="52 18.4 54.6 18.4 58 18.4 62 18.4 66.2 18.4 70.5 18.4 74.5 18.4 77.9 18.4 80.5 18.4 82.2 18.4 82.7 18.4 82.1 17.9 79.9 16.9 76.9 16.3 72.8 16.1 71.1 16.1 68 16.1 64.5 16.1 61.4 16.1 59.6 16.1 55.6 16.3 52.6 16.9 50.4 17.9 49.7 18.4 50.3 18.4 52 18.4"/><polygon class="cls-4" points="40 51.3 39.7 50.4 39.3 49.6 38.8 48.9 38.2 48.4 37.5 48.1 36.8 48 36 48.1 35.3 48.4 34.6 48.9 34.3 49.2 35.2 49.1 36.6 49.1 36.4 49.1 37.2 49.1 37.7 49.3 38.3 49.6 38.7 50.1 39.1 50.7 39.4 51.4 39.5 52.2 39.6 53 39.5 53.9 39.3 54.7 39.1 55.5 38.7 56.2 38.2 56.8 37.7 57.2 37.1 57.5 36.5 57.7 36 57.7 34.6 57.8 34.4 57.9 34.7 58.1 35.4 58.4 36.1 58.5 36.9 58.4 37.6 58.1 38.3 57.7 38.9 57 39.4 56.2 39.8 55.3 40.1 54.3 40.2 53.3 40.2 52.3 40 51.3"/><polygon class="cls-8" points="36 57.7 36.5 57.7 37.1 57.5 37.7 57.2 38.2 56.8 38.7 56.2 39.1 55.5 39.3 54.7 39.5 53.9 39.6 53 39.5 52.2 39.4 51.4 39.1 50.7 38.7 50.1 38.3 49.6 37.7 49.3 37.2 49.1 36.4 49.1 36.6 49.1 35.2 49.1 34.3 49.2 34 49.3 33.5 49.3 33.4 49.3 33.2 49.4 33.1 49.4 33.1 49.4 32.9 49.4 31.5 49.7 31.2 49.7 29.6 50.2 29.6 50.2 29.3 50.3 29.7 50.3 29.9 50.3 30.2 50.4 30.7 50.7 31.3 51.2 31.9 51.7 32.5 52.4 33 53.1 33.5 53.8 33.9 54.6 34.1 55.2 34.2 55.3 34.4 56 34.5 56.6 34.5 57.2 34.3 57.6 34.1 57.9 33.8 58 33.9 58 34.4 57.9 34.6 57.8 36 57.7"/><polygon class="cls-3" points="20.5 55 20.7 55.2 21 55.4 21.5 55.7 22.1 56.1 22.6 56.5 22.7 56.6 22.7 56.6 23.5 57.1 24.3 57.6 25 58.1 25.8 58.5 26.5 59 27.1 59.3 27.1 59.3 27.2 59.4 27.6 59.6 28 59.8 28.2 59.9 28.2 59.9 28.3 59.9 28.9 59.6 29.4 59.3 30.6 58.8 30.7 58.8 30.7 58.8 31.9 58.4 32.7 58.2 33 58.1 33.3 58.8 34.1 59.8 35 60.5 35.3 60.7 36.3 61.1 36.5 61.2 37.6 61.4 37.4 61.3 37.6 61.4 38.7 61.2 39.8 60.8 40.6 60.3 40.8 60.2 40.9 60.1 40.9 60.1 42 59.1 42.8 57.9 43.5 56.6 43.9 55.1 44 54.8 44.2 53.5 43.8 53.5 43.4 53.4 42.9 53.4 42.4 53.4 41.9 53.3 41.5 53.3 41.1 53.3 40.6 53.3 40.2 53.3 40.1 54.3 39.8 55.3 39.4 56.2 38.9 57 38.3 57.7 37.6 58.1 36.9 58.4 36.1 58.5 35.4 58.4 34.7 58.1 34.4 57.9 33.9 58 33.8 58 34.1 57.9 34.3 57.6 34.5 57.2 34.5 56.6 34.4 56 34.2 55.3 34.1 55.3 34.1 55.2 33.9 54.6 33.5 53.8 33 53.1 32.5 52.4 31.9 51.7 31.3 51.2 30.7 50.7 30.2 50.4 29.9 50.3 29.7 50.3 29.3 50.3 28.2 50.6 27.7 50.8 27.2 51 26.6 51.2 26.4 51.3 25.8 51.6 24 52.5 22.2 53.6 20.6 54.8 20.4 54.9 20.5 55 20.5 55"/><polygon class="cls-8" points="8.9 80.3 9.3 80.7 9.7 81.1 10.3 81.4 11 81.7 11.8 81.9 12.6 82.1 13.5 82.1 14.3 82.1 15 82 15.7 81.9 16.3 81.6 16.8 81.4 17.1 81 17.2 80.6 17.3 79.7 17.7 77.1 18 75.8 17.9 76.1 17.6 76.5 17.1 76.7 16.6 76.9 15.9 77 15.1 77.1 14.3 77 13.5 76.9 12.7 76.7 11.9 76.5 11.2 76.2 10.6 75.9 10.1 75.5 9.8 75.1 9.6 74.7 9.6 74.3 9.3 75.6 8.9 78.4 8.7 79.5 8.7 79.9 8.9 80.3"/><polygon class="cls-3" points="9.8 75.1 10.1 75.5 10.6 75.9 11.2 76.2 11.9 76.5 12.7 76.7 13.5 76.9 14.3 77 15.1 77.1 15.9 77 16.6 76.9 17.1 76.7 17.6 76.5 17.9 76.1 18 75.8 18.2 74.8 18.8 72.6 18.7 73.1 19 72.2 18.7 72.5 18.3 72.7 17.7 72.9 17 73 16.3 73 15.5 72.9 14.7 72.8 13.8 72.6 13.1 72.3 12.4 72 11.8 71.7 11.3 71.3 10.9 70.9 10.7 70.5 10.7 70.1 10.6 70.4 9.9 72.9 9.6 74.3 9.6 74.7 9.8 75.1"/><polygon class="cls-8" points="15.4 61 15.7 61.4 16.1 61.7 16.1 61.8 16.2 61.7 16.8 62.1 17.4 62.5 18.2 62.9 19 63.3 19.8 63.6 20.6 63.9 21.3 64.1 22 64.2 22.5 64.3 23 64.2 23.3 64.1 23.4 64 23.7 63.6 24.8 62.5 25.7 61.7 25.9 61.6 25.9 61.5 26.5 61.1 27.1 60.6 27.5 60.4 28.2 59.9 28.2 59.9 28.2 59.9 28 59.8 27.6 59.6 27.2 59.4 27.1 59.3 27.1 59.3 26.5 59 25.8 58.5 25 58.1 24.3 57.6 23.5 57.1 22.7 56.6 22.7 56.6 22.6 56.5 22.1 56.1 21.5 55.7 21 55.4 20.7 55.2 20.5 55 20.5 55 20.4 54.9 19 56.1 17.6 57.6 17.3 57.9 17.3 58 16.2 59.2 16 59.6 15.3 60.5 15.3 60.7 15.4 61"/><polygon class="cls-3" points="12 67.1 12.2 67.4 12.6 67.8 13.1 68.2 13.7 68.5 13.7 68.5 13.8 68.6 14.4 68.9 15.2 69.2 16 69.4 16.9 69.6 17.6 69.7 18.4 69.7 19 69.7 19.6 69.6 19.9 69.4 20.2 69.1 21 67.5 22 65.9 22.9 64.5 23.3 64.1 23 64.2 22.5 64.3 22 64.2 21.3 64.1 20.6 63.9 19.8 63.6 19 63.3 18.2 62.9 17.4 62.5 16.8 62.1 16.2 61.7 16.1 61.8 16.1 61.7 15.7 61.4 15.4 61 15.3 60.7 15.3 60.5 14.7 61.4 13.5 63.3 12.5 65.4 12.1 66.4 12 66.7 12 67.1"/><polygon class="cls-4" points="34.1 55.3 34.2 55.3 34.1 55.2 34.1 55.3"/><path class="cls-4" d="M27.2,51l.5-.2.5-.2,1.1-.3h.3l1.6-.5h.3l1.4-.3h.2l.3-.4.5-.7V48l.9-1,1-.7h.3l1-.5h2.7l1.1.5.5.4.4.3.8,1,.6,1.2v.3l.4,1.1.3,1.4h0v1.5L44,54.8v.3l-.4,1.5-.7,1.3L42,59.1l-1.1,1h-.3l-.8.5-1.1.4-1.1.2v0l-1.1-.2h-.2l-1-.4-.3-.2-.7-.5-.2-.2-.8-1-.3-.7h-.3l-.8.2-1.2.4h-.1l-1.2.5-.5.3-.6.3h-.1l-.7.5-.4.2-.6.5-.6.4h-.2l.8,5.5h0v3.2l.2.5.2.8.3.7.2.6.2.6v.5l.2.3v.2h.1l.8,2.6h73.8l2.4-6.9,1.3-8.7-.9-12.4-1.8-7.7v.2l-.5.3-.5.3h-.3l-1.3.2-1.5.2-.8.2H85.6l-1.4-.2-3.4-.2-3.5-.2H75.9l-2.2-.3L70,41.9l-3.8-.2-3.7-.3H58.9L55.3,41l-3.5-.2-3.3-.2H43.6l-.3.5-.7,1-.5.5-.3.3-.9.7-1,.3-.8.2H39l-.8-.2-1.5-.4h1.5l.9-.4.9-.6.8-.8.8-1,.6-1.2.4-1.2.4-1.3V34.2l-.2-1.1-.4-1-.5-.8-.7-.6-.8-.4H38.6l-.9.4-.9.6-.8.8-.8,1-.6,1.1-.5,1.3-.3,1.3v2.5l.3,1.2H33l-1.6.2-1.3.2-.9.2h-.6l-.2.3-1.8,7.7-.2,1.9h.2Zm69.9-1.8V48.1l.4-.9.4-.8.5-.6h.1l.5-.4h1.3l.6.4.6.6.6.8.3.5.2.4.4,1.1v.2l.2,1v1.3l.6,10.1-.8,6.1-.2,1.2-.2,1.2v.2l-.4.9-.4.7-.2.2-.6.8-.6.6h-.1l-.6.4H98.6l-.5-.4H98l-.4-.5-.4-.8-.3-.9V69.1h0V67.9l.7-6.1-.6-10.1V50.4h0l.2-1Zm-16.8,0,.4-1.1.5-.7v-.2l.8-.8,1-.6,1.1-.4h2.2l1.1.4.3.2.7.4.9.8.8.9.7,1.1v.2l.3,1v1.3L92,61.8l-.7,6.1-.2,1.2-.5,1.2v.2l-.6.9-.9.9-.9.8-.6.4-.5.2-1.1.4H83.6l-.9-.3h-.1l-.9-.6-.7-.7h-.1l-.5-.9-.3-.9v-.2l-.2-1.2V67.9l.7-6.1L80,51.7V50.4l.3-1ZM35.4,36.8l.2-.9.3-.8.4-.7.5-.7.5-.5.6-.4.6-.2h1.2l.5.2.4.4.4.5.3.7v2.4l-.2.8-.3.8-.4.8-.5.6-.6.6-.6.4-.6.2H37.1l-.5-.2-.5-.4-.3-.6-.3-.6V36.8Z"/><polygon class="cls-8" points="10.9 70.9 11.3 71.3 11.8 71.7 12.4 72 13.1 72.3 13.8 72.6 14.7 72.8 15.5 72.9 16.3 73 17 73 17.7 72.9 18.3 72.7 18.7 72.5 19 72.2 19.4 71 19.4 70.9 20.2 69.2 20.2 69.1 19.9 69.4 19.6 69.6 19 69.7 18.4 69.7 17.6 69.7 16.9 69.6 16 69.4 15.2 69.2 14.4 68.9 13.8 68.6 13.7 68.5 13.7 68.5 13.1 68.2 12.6 67.8 12.2 67.4 12 67.1 12 66.7 12.1 66.4 11.6 67.6 11.4 68 10.7 70.1 10.7 70.5 10.9 70.9"/><polygon class="cls-13" points="35.5 39.2 35.8 39.8 36.1 40.4 36.6 40.8 37.1 41 37.7 41.1 38.2 41 38.8 40.8 39.4 40.4 40 39.8 40.5 39.2 40.9 38.4 41.2 37.6 41.4 36.8 41.4 35.9 41.4 35.1 41.3 34.4 41 33.7 40.6 33.2 40.2 32.8 39.7 32.6 39.1 32.5 38.5 32.6 37.9 32.8 37.3 33.2 36.8 33.7 36.3 34.4 35.9 35.1 35.6 35.9 35.4 36.8 35.3 37.6 35.4 38.4 35.5 39.2"/><polygon class="cls-15" points="44.4 13 44.3 13.6 44.2 14.4 44 15.6 43.9 15.9 43.5 18.4 42.7 22.9 42.4 24.6 41.4 30.6 42 30.8 42.2 30.8 43 31.2 43.6 31.8 44 32.4 44.2 32.6 44.6 33.6 44.8 34.8 44.9 36 44.9 36.1 44.7 37.3 45.8 37.3 48.8 37.4 52.1 37.5 55.5 37.7 59 38 60.1 38.1 62.6 38.2 66.2 38.4 69.9 38.6 73.5 39 75.8 39.2 77.1 39.2 80.5 39.4 83.9 39.7 85.7 39.8 87 39.8 90 39.9 92.7 40 95.2 39.9 97.4 39.8 98.2 39.8 99.2 39.7 100.8 39.4 101.9 39.2 102.3 39.2 102.8 39 103.2 38.6 103.4 38.4 102.8 36.1 97.8 24.6 91.9 15.9 90.7 14.9 89.6 14 88.3 12.9 86.2 11.1 80.8 8.7 76.1 7.5 76.1 7.5 75.9 7.5 72.9 7.2 75.7 7.5 71.8 7.1 72.9 7.2 76.1 7.5 74.9 7.4 72.1 7.1 66.2 6.9 60.4 7.1 57.6 7.4 56.4 7.5 59.6 7.2 60.6 7.1 56.8 7.5 59.6 7.2 56.6 7.5 56.4 7.5 56.4 7.5 51.6 8.7 46.3 11.1 44.5 12.6 44.5 12.7 44.4 13"/><polygon class="cls-15" points="29.7 38.1 29.9 38 30.9 37.7 32.1 37.5 33.7 37.4 33.8 37.4 33.8 36.9 33.8 36.8 33.9 36.5 34 36.1 34 36 34.1 35.5 34.6 34.2 34.9 33.7 35.2 33.1 36 32.1 36.8 31.3 37.7 30.7 37.8 30.6 38.6 30.3 39.4 30.3 40.3 24.6 40.5 23.7 41.1 20.1 41.5 17.5 41.8 15.9 41.8 15.8 41.9 15.2 42 14.8 42 14.7 40.6 15.9 34.7 24.6 29.6 36.1 29.1 38.4 29.3 38.2 29.7 38.1"/></svg>