<svg id="Layer_1" data-name="Layer 1" xmlns="http://www.w3.org/2000/svg" viewBox="0 0 90 142.1"><defs><style>.cls-1{fill:#ededf4;}.cls-2{fill:none;}.cls-3{fill:#5e5c6a;}.cls-4{fill:#43434b;}.cls-5{fill:#9399a8;}.cls-6{fill:#b5b5c1;}.cls-7{fill:#7b7a88;}.cls-8{fill:#d9d9df;}.cls-9{fill:#4b3a2d;}.cls-10{fill:#6d5c46;}.cls-11{fill:#2affff;}.cls-12{fill:#46bbed;}.cls-13{fill:#9491a4;}.cls-14{fill:#54d9ff;opacity:0.5;}</style></defs><rect class="cls-1" x="-204.6" y="-55.4" width="1000" height="800"/><polygon class="cls-2" points="33.6 103.2 33.6 103.2 33.6 103.2 33.6 103.2"/><polygon class="cls-2" points="26.7 117.6 27.3 118.1 26.7 117.6 24.5 116.7 26.7 117.6"/><polygon class="cls-2" points="26.6 101.6 26.6 101.6 26.6 101.7 26.6 101.6 26.6 101.6"/><polygon class="cls-2" points="32.6 105.9 31.1 107.3 31.5 106.9 32.7 105.8 32.6 105.9"/><polygon class="cls-2" points="53.2 35.5 53.1 35.2 52.9 34.7 53 35 53.2 35.5"/><polygon class="cls-2" points="52.8 37.4 52.8 37.4 52.3 37.6 52.8 37.4"/><polygon class="cls-2" points="57.3 67.6 57.2 68.5 57 69.7 57.1 68.8 57.3 67.6"/><polygon class="cls-2" points="52.4 90 53.1 88.8 53.3 88.6 53.5 88.2 52.6 89.6 52.4 90"/><polygon class="cls-2" points="53.5 88.2 53.5 88.2 53.5 88.2 53.5 88.2"/><polygon class="cls-2" points="53.6 88.1 53.6 88.1 53.6 88.1 53.6 88 53.6 88.1"/><polygon class="cls-2" points="86.8 80 87.1 79.5 87.6 78.2 87.1 79.5 86.8 80"/><polygon class="cls-3" points="10.3 123.3 10.9 122.8 11.6 122 12.4 120.9 13.1 119.6 13.8 118.1 14.5 116.5 15.1 114.9 15.6 113.3 16 111.8 16.3 110.4 16.4 109.2 16.3 108.3 16.1 107.6 15.8 107.2 15.4 107.1 14.8 107.4 14.2 107.9 13.5 108.7 12.8 109.8 12 111.1 11.3 112.6 11.8 113.7 12.2 112.7 12.7 111.9 13.1 111.3 13.6 110.8 14 110.4 14.3 110.3 14.6 110.3 14.7 110.4 14.8 110.5 14.8 110.7 14.9 111 14.9 111.3 14.9 111.6 14.9 111.9 14.8 112.3 14.8 112.7 14.7 113.2 14.6 113.7 14.4 114.1 14.3 114.6 14.1 115.1 13.8 116.1 13.3 117 12.9 117.9 12.4 118.8 12 119.4 11.6 119.9 11.2 120.3 10.9 120.4 10.8 120.4 10.5 120.4 10.4 120.2 9 123.1 9.3 123.5 9.7 123.6 10.3 123.3"/><polygon class="cls-4" points="14.6 113.7 14.7 113.2 14.8 112.7 14.8 112.3 14.9 111.9 14.9 111.6 14.9 111.3 14.9 111 14.8 110.7 14.8 110.5 14.7 110.4 14.6 110.3 14.3 110.3 14 110.4 13.6 110.8 13.1 111.3 12.7 111.9 12.2 112.7 11.8 113.7 14.3 114.6 14.4 114.1 14.6 113.7"/><polygon class="cls-4" points="10.8 120.4 10.9 120.4 10.4 120.2 10.5 120.4 10.8 120.4"/><polygon class="cls-5" points="19.3 109 19.2 109.6 19.1 110.2 19.3 110.9 19.5 111.6 19.9 112.2 20.5 112.8 21.1 113.4 21.7 113.8 22.5 114.2 23.2 114.4 23.9 114.5 24.6 114.4 25.2 114.3 25.8 114 26.2 113.6 27.4 112 27.9 111.3 28.5 110.6 28 111 27.5 111.3 26.9 111.4 26.2 111.5 25.5 111.4 24.7 111.2 24 110.8 23.3 110.4 22.7 109.8 22.2 109.2 21.8 108.6 21.5 107.9 21.4 107.2 21.4 106.6 21.6 106 21.9 105.5 20.8 107 19.6 108.5 19.3 109"/><polygon class="cls-3" points="2.2 47.8 3.5 46.9 4.8 45.9 6.1 44.8 7.4 43.6 8.5 42.4 9.5 41.3 10.4 40.2 11 39.2 11.4 38.4 11.5 37.8 11.3 37.4 11 37.2 10.3 37.2 9.5 37.5 8.5 38 7.3 38.7 6 39.5 4.7 40.5 3.4 41.7 2.2 42.8 1 44 0 45.2 1.8 44.4 2.4 43.7 3.2 43 3.9 42.3 4.7 41.6 5.6 40.9 6.3 40.4 7.1 40 7.7 39.7 8.2 39.5 8.6 39.5 8.8 39.6 8.9 39.8 8.9 39.9 8.8 40.2 8.8 40.3 8.6 40.7 8.6 40.8 8.2 41.3 8.2 41.3 7.7 42 7.7 42 7.1 42.7 7.1 42.7 6.4 43.4 6.4 43.5 5.6 44.2 5.6 44.2 4.8 44.8 4.8 44.9 4 45.5 4 45.5 3.2 46 3.2 46 2.5 46.5 1.8 46.8 1.6 47 0 48.9 1.1 48.5 2.2 47.8"/><polygon class="cls-5" points="14.6 38.4 14.6 38.8 14.6 39.3 14.8 39.9 15 40.5 15.3 41.2 15.7 41.9 16.1 42.4 16.9 41 17.2 40.5 18.4 38.9 18.8 38.5 19.2 38 19 37.6 18.8 37 18.6 36.4 18.6 35.9 18.6 35.5 18.8 35.2 15.7 37.5 14.8 38.1 14.6 38.4"/><polygon class="cls-5" points="19 85 18.4 83.4 17.1 80.8 16.5 79.8 16 78.8 15.2 77.5 14.8 77.2 14.5 76.9 14.2 77.1 14 78 14.2 79 14.1 79 14.1 79 14.1 79 12 79 12 79.1 12 79.3 12 79.6 12 80.1 12 80.7 12 81.3 12 82 12 82.7 12 83.4 12 84.1 12 84.7 12 85.3 12 85.7 12 86 12 86.2 17.5 86.2 17.5 86.2 17.6 86.2 17.6 86.2 18.4 86.2 19.3 88.2 21 90 19.1 85.3 19 85"/><polygon class="cls-6" points="51.7 4.5 51.8 4.4 51.8 4.4 52.4 4.1 52.8 3.6 53.1 3.3 53.1 2.9 53.3 2.2 53.2 1.8 53 1.2 52.8 0.9 52.3 0.4 52.1 0.3 51.5 0.1 50.9 0 50.3 0.1 50.1 0.2 49.5 0.5 49.1 1 48.9 1.3 48.8 2 48.7 2.4 48.8 2.7 49 3.4 49.2 3.7 49.6 4.1 50.3 4.4 50.4 4.5 51 4.6 51.7 4.5"/><polygon class="cls-5" points="24 103.5 24 104.1 24.1 104.7 24.4 105.4 24.8 106 25.4 106.6 26 107.1 26.7 107.6 27.4 107.9 28.1 108.1 28.9 108.2 29.6 108.2 30.2 108 30.7 107.8 31.1 107.4 31.2 107.2 31.5 106.9 31.1 107.3 32.6 105.9 32.7 105.8 33.4 105.2 32.9 105.4 32.3 105.6 31.6 105.6 30.9 105.5 30.1 105.2 29.4 104.9 28.7 104.5 28 103.9 27.5 103.4 27 102.7 26.7 102.1 26.6 101.7 26.6 101.6 26.6 101.6 26.5 101.5 26.5 100.9 26.6 100.4 26.8 99.9 25.3 101.4 24.4 102.4 24.1 102.9 24 103.5"/><polygon class="cls-7" points="21.4 106.6 21.4 107.2 21.5 107.9 21.8 108.6 22.2 109.2 22.7 109.8 23.3 110.4 24 110.8 24.7 111.2 25.5 111.4 26.2 111.5 26.9 111.4 27.5 111.3 28 111 28.5 110.6 28.9 110 29.1 109.7 30.2 108.4 31.1 107.4 30.7 107.8 30.2 108 29.6 108.2 28.9 108.2 28.1 108.1 27.4 107.9 26.7 107.6 26 107.1 25.4 106.6 24.8 106 24.4 105.4 24.1 104.7 24 104.1 24 103.5 24.1 102.9 24.4 102.4 23.8 103.1 22.3 104.9 21.9 105.5 21.6 106 21.4 106.6"/><polygon class="cls-3" points="18.4 109.3 18.4 110.1 18.5 110.9 18.9 111.7 19.4 112.5 20 113.2 20.7 113.8 21.5 114.4 22.4 114.8 23.3 115.1 24.1 115.2 25 115.1 25.7 114.9 26.4 114.6 26.9 114.1 27.2 113.5 27.2 113.4 27.4 112.8 27.4 112.8 27.4 112.7 27.4 112 27.4 112 26.2 113.6 25.8 114 25.2 114.3 24.6 114.4 23.9 114.5 23.2 114.4 22.5 114.2 21.7 113.8 21.1 113.4 20.5 112.8 19.9 112.2 19.5 111.6 19.3 110.9 19.1 110.2 19.2 109.6 19.3 109 19.6 108.5 20.8 107 20.1 107.2 19.5 107.5 19 108 18.6 108.6 18.4 109.3"/><polygon class="cls-7" points="26.5 100.9 26.5 101.5 26.6 101.6 26.6 101.6 26.6 101.7 26.7 102.1 27 102.7 27.5 103.4 28 103.9 28.7 104.5 29.4 104.9 30.1 105.2 30.9 105.5 31.6 105.6 32.3 105.6 32.9 105.4 33.4 105.2 34.1 104.5 35.4 103.5 35.7 103.2 36 103 35.6 103.2 35 103.3 34.3 103.3 33.6 103.2 33.6 103.2 32.8 103 32.1 102.6 31.3 102.2 30.7 101.7 30.1 101.1 29.6 100.5 29.2 99.9 29 99.3 28.9 98.8 29 98.3 29.2 97.9 29.6 97.5 29.3 97.7 29.3 97.8 29 98 27.3 99.5 26.9 99.8 26.8 99.9 26.6 100.4 26.5 100.9"/><polygon class="cls-4" points="12.4 54.2 12.9 52.4 13 52 13.4 50.4 14 48.6 14.4 47.2 14.5 46.8 14.5 46.7 14.7 46 15.1 44.7 15.1 44.6 15.4 43.9 15.9 42.8 15.9 42.7 15.4 42 14.9 41.1 14.5 40.3 14.2 39.6 14.1 38.9 14 38.3 14.1 37.8 14.3 37.4 12.6 38.7 11.3 37.4 11.5 37.8 11.4 38.4 11 39.2 10.4 40.2 9.5 41.3 8.5 42.4 7.4 43.6 6.1 44.8 4.8 45.9 3.5 46.9 2.2 47.8 1.1 48.5 0 48.9 8 57.9 9 57.4 10.2 56.7 11.4 55.8 12.4 55.1 12.4 54.4 12.4 54.2"/><polygon class="cls-7" points="87 48.9 86.8 50.9 86.3 52.9 86 53.7 85.4 54.7 84.2 56.5 82.6 58.2 81.9 58.8 80.7 59.7 78.6 61.1 76.1 62.3 73.5 63.5 71.5 64.3 70.6 64.6 67.6 65.4 64.4 66.1 61.1 66.6 57.7 67 57.2 67.1 57.3 67.6 57.1 68.8 57 69.7 56.9 70.1 57.8 70 61.3 69.6 64.7 69 67.9 68.3 71 67.5 71.9 67.2 74 66.4 76.7 65.2 79.1 63.9 81.3 62.5 82.5 61.6 83.2 60.9 84.8 59.2 86.1 57.4 86.5 56.7 86.7 56.4 87 55.5 87.6 53.5 87.7 51.4 87.6 49.3 87 47.2 86.3 44.7 86.8 46.8 87 48.9"/><polygon class="cls-4" points="17.6 86.2 17.6 86.2 17.7 86.5 19.3 88.2 18.4 86.2 17.6 86.2"/><polygon class="cls-6" points="88.7 74.3 88.5 75.4 88.4 75.7 88.5 75.2 89.8 68.4 88.9 73.2 88.7 74.3"/><polygon class="cls-5" points="76 93.2 74.2 94 72.9 95.1 62.7 99 50.7 100.4 41.1 99.3 41.8 98.8 41.4 99 40.9 99.1 40.2 99 39.5 98.9 38.7 98.7 37.9 98.4 37.8 98.4 37.7 98.3 37.1 98 36.4 97.5 35.7 97 35.1 96.4 34.6 95.9 34.3 95.4 34.1 94.9 34 94.5 34.1 94.1 34.4 93.9 34.2 94 34.1 94.1 33.4 94.6 32.5 95.3 31.6 95.9 31.3 96.2 31 96.1 31.2 96.3 30.7 96.6 29.6 97.5 29.2 97.9 29 98.3 28.9 98.8 29 99.3 29.2 99.9 29.6 100.5 30.1 101.1 30.7 101.7 31.3 102.2 32.1 102.6 32.8 103 33.6 103.2 33.6 103.2 33.6 103.2 34.3 103.3 35 103.3 35.6 103.2 36 103 37.3 102 37.7 101.7 37.9 101.6 38.9 102.2 39.7 102.5 40.2 102.7 40.3 102.7 40.8 102.8 50.7 103.9 60.6 102.8 61.1 102.7 61.2 102.7 61.6 102.5 66 100.8 68.9 99.7 69.3 99.5 69.4 99.5 70 99.3 72.2 97.7 78.8 92 79.1 90.9 78.2 91.6 76 93.2"/><polygon class="cls-8" points="49.9 61.4 49.9 61.1 49.9 60.5 45.5 60.2 40.7 59.1 39.2 58.4 36.6 57.3 35.2 56.2 33.5 55 33.5 55 33.5 54.9 31.5 52.2 31.4 52 30.4 50.3 30.1 49.4 29.7 48.2 29.2 46.3 28.9 45 28.6 42.7 28.7 41.7 28.8 40.4 29 39.4 29.5 37.1 30.1 35 31 33 31.6 32.3 33.1 30.2 34.2 28.7 34.1 28.8 33.8 28.9 31.8 29.7 30.8 30.1 30.2 30.4 29.9 30.5 29.4 30.7 27.9 31.4 27.2 31.8 27 32 26.9 32 25.2 33 24.6 33.4 23.1 34.4 22.8 34.6 22.2 35.2 21.1 36.1 20.7 36.5 20 37.2 19.5 37.8 19.2 38 18.8 38.5 18.4 38.9 17.2 40.5 16.9 41 16.1 42.4 16 42.6 15.9 42.7 15.9 42.8 15.4 43.9 15.1 44.6 15.1 44.7 14.5 46.8 14.3 48.9 14.5 50.9 15.1 52.9 15.4 53.7 16 54.7 17.2 56.5 18.8 58.2 19.5 58.8 20.7 59.7 22.8 61.1 25.2 62.3 27.9 63.5 29.9 64.3 30.8 64.6 33.8 65.4 37 66.1 40.3 66.6 43.7 67 44.1 67.1 44.1 67 44.5 65.8 45.1 64.8 46 63.9 47 63.2 48.1 62.6 49.4 62.3 49.5 61.4 49.9 61.4"/><polygon class="cls-7" points="40.3 66.6 37 66.1 33.8 65.4 30.8 64.6 29.9 64.3 27.9 63.5 25.2 62.3 22.8 61.1 20.7 59.7 19.5 58.8 18.8 58.2 17.2 56.5 16 54.7 15.4 53.7 15.1 52.9 14.5 50.9 14.3 48.9 14.5 46.8 15.1 44.7 14.7 46 14.5 46.7 14.5 46.8 14.4 47.2 13.8 49.3 13.7 51.4 13.8 53.5 14.4 55.5 14.7 56.4 14.9 56.7 15.3 57.4 16.6 59.2 18.1 60.9 18.8 61.6 20.1 62.5 22.3 63.9 24.7 65.2 27.4 66.4 29.5 67.2 30.3 67.5 33.5 68.3 36.7 69 40.1 69.6 43.6 70 44.3 70.1 44.1 69.4 44 68.2 44.1 67.1 43.7 67 40.3 66.6"/><polygon class="cls-7" points="34 94.5 34.1 94.9 34.3 95.4 34.6 95.9 35.1 96.4 35.7 97 36.4 97.5 37.1 98 37.7 98.3 37.8 98.4 37.9 98.4 38.7 98.7 39.5 98.9 40.2 99 40.9 99.1 41.4 99 41.8 98.8 41.1 99.3 50.7 100.4 62.7 99 72.9 95.1 74.2 94 73.3 94.4 72.8 94.6 70.6 95.7 67.5 96.7 64.4 97.6 62.6 97.9 61 98.2 57.7 98.8 54.2 99 50.7 99.2 47.2 99 43.7 98.8 42.2 98.5 42.2 98.5 43 98 43.6 97.6 43.9 97.4 45.5 96.3 46.5 95.5 47 95.1 47 95.1 47.1 95.1 47.2 94.9 48.3 94.1 48.1 94.1 47.7 94.1 47.2 94 46.5 93.9 45.8 93.6 45.7 93.7 45.7 93.6 45 93.4 44.1 93 43.3 92.6 42.4 92.2 41.7 91.8 41.4 91.6 41 91.4 40.5 91 40.1 90.7 39.8 90.4 39.8 90.2 39.8 90.1 39.4 90.4 39.1 90.6 37.5 91.7 36.1 92.7 35.9 92.8 35.4 93.2 34.4 93.9 34.1 94.1 34 94.5"/><polygon class="cls-3" points="14 38.3 14.1 38.9 14.2 39.6 14.5 40.3 14.9 41.1 15.4 42 15.9 42.7 16 42.6 16.1 42.4 15.7 41.9 15.3 41.2 15 40.5 14.8 39.9 14.6 39.3 14.6 38.8 14.6 38.4 14.8 38.1 15.7 37.5 15.6 37.4 15.1 37.2 14.6 37.3 14.3 37.4 14.1 37.8 14 38.3"/><path class="cls-4" d="M34.2,28.7l-1.1,1.5-1.5,2.1L31,33l-.9,2-.6,2.1L29,39.4l-.2,1v2.3l.3,2.3.3,1.3.5,1.9.4,1.2.3.9,1,1.7v.2l2,2.7h0l1.7,1.2,1.4,1.1,2.6,1.1,1.5.7,4.8,1.1,4.4.3v.9h-.4v.9h2.5l.2-.9h-.6v-1l4.4-.3,4.8-1.1,1.5-.7,2.6-1.1,1.4-1.1L67.9,55h0l2-2.7V52l1-1.7.3-.9.4-1.2.5-1.9.3-1.3.3-2.3V40.4l-.2-1-.5-2.3L71.3,35l-.9-2-.6-.7-1.5-2.1-1.1-1.5h0l-.7-.5,1.8,2.5.6,2.8-.6,2.7-1.8,2.5-2.9,2.2-3.8,1.7-4.4,1-3.7.3V38.2H50.2v5.7L46,43.6l-4.4-1-3.8-1.7-2.9-2.2-1.8-2.5-.6-2.7.6-2.8,1.8-2.5-.4.3-.3.2ZM29.6,46.3V43.9h0l.4-.7.4-.5.4-.2h1.4l.5.3h.1l.9.5.8.7.7.9.5,1v.2l.6.9v.2l.5.9.3,1.1v1h-.1v.9l-.2.8-.4.5v.2l-1.5-.5-3.5-2-1.3-1.3L30,47.8l-.3-1.1Z"/><polygon class="cls-8" points="36.8 27.2 35.3 29.4 34.7 31.8 35.3 34.2 36.8 36.4 39.4 38.3 42.7 39.8 46.6 40.7 50.2 41 50.2 40.3 50.2 38.2 50.2 38.1 50.1 38.1 49.9 38 49.8 37.9 49.8 37.9 49.8 37.9 49.4 37.7 49.1 37.3 49.1 37.2 48.9 36.8 48.8 36.5 48.7 36.1 48.7 35.9 48.8 35.4 48.8 35.3 49 34.9 49.2 34.6 49.5 34.2 50 34 50.2 33.8 50.5 33.8 50.6 33.7 50.7 33.7 50.8 33.7 51 33.7 51.1 33.7 51.2 33.7 51.3 33.7 51.5 33.8 51.9 33.9 52.1 34 52.2 34.1 52.5 34.3 52.9 34.7 53.1 35.2 53.2 35.5 53.2 35.8 53.3 35.9 53.3 36.1 53.2 36.6 53 37.1 52.8 37.4 52.8 37.4 52.8 37.4 52.8 37.4 52.4 37.8 52 38 51.8 38.1 51.8 38.2 51.8 40.2 51.8 41 54.8 40.7 58.7 39.8 62 38.3 64.5 36.4 66.1 34.2 66.7 31.8 66.1 29.4 64.5 27.2 62 25.3 58.7 23.8 58.4 23.7 57.1 23.4 57.1 23.4 56.7 22.6 56.1 21.8 55.3 21.2 54.3 20.7 53.2 20.3 51.9 20.1 52.1 21.8 53.3 22.1 54.4 22.4 55.4 23 55.5 23 54.7 22.8 50.7 22.5 46.7 22.8 47.1 22.6 48.2 22.2 49.5 21.9 49.4 20.1 48.1 20.4 47 20.9 46 21.4 45.1 22.1 44.5 22.9 44.3 23.4 43 23.7 42.7 23.8 39.4 25.3 36.8 27.2"/><polygon class="cls-6" points="64.5 27.2 66.1 29.4 66.7 31.8 66.1 34.2 64.5 36.4 62 38.3 58.7 39.8 54.8 40.7 51.8 41 51.7 42.5 51.7 43.9 55.4 43.6 59.8 42.6 63.6 40.9 66.5 38.7 68.3 36.2 68.9 33.5 68.3 30.7 66.5 28.2 65.7 27.6 62.9 25.6 59.4 24 58.7 23.8 62 25.3 64.5 27.2"/><polygon class="cls-6" points="32.5 33.5 33.1 36.2 34.9 38.7 37.8 40.9 41.6 42.6 46 43.6 50.1 43.9 50.1 42.6 50.2 41 46.6 40.7 42.7 39.8 39.4 38.3 36.8 36.4 35.3 34.2 34.7 31.8 35.3 29.4 36.8 27.2 39.4 25.3 42.7 23.8 42 24 38.5 25.6 35.7 27.6 34.9 28.2 33.1 30.7 32.5 33.5"/><path class="cls-7" d="M41.1,103.9l.2,1.1.3,1.1.3,1.2.2,1,3.7,15.3v4l-1.1-.5-1.2-.8-1.2-.9h-.1v.6l.5,1.3.8,1.2,1,1,1.3.9H46l.2.6.4.7.6.6.8.5.8.4.9.2h1.9l1-.2.8-.4.7-.5.6-.6.5-.7.2-.6h0l1.3-.9,1.1-1,.8-1.2.5-1.3v-.6h-.1l-1.2.9-1.2.8-1.1.5v-4l3.7-15.3.2-1,.3-1.2.3-1.1.2-1.1.3-1h0l-9.9,1.1-9.9-1.1h0Zm12.7,26.6V130l-.2-.5-.3-.4-.3-.4-.5-.3-.5-.2-.6-.2H50.1l-.6.2-.5.2-.5.3-.3.4-.3.4-.2.5v-1.1l.2-.5.3-.4.3-.4.5-.3.5-.2.6-.2h1.2l.6.2.5.2.5.3.3.4.3.4.2.5v1.6Z"/><polygon class="cls-9" points="58.6 127.2 57.8 128.4 56.7 129.4 55.4 130.3 55.4 130.3 55.2 130.9 54.8 131.6 54.1 132.2 53.4 132.7 52.6 133.1 51.6 133.3 50.7 133.4 49.7 133.3 48.8 133.1 48 132.7 47.2 132.2 46.6 131.6 46.2 130.9 46 130.3 45.9 130.3 44.6 129.4 43.6 128.4 42.8 127.2 42.3 125.9 42.2 125.3 38.3 121.1 38 122 37.7 124 38 126.1 38.7 128.1 39.9 129.9 41.5 131.5 43.5 132.8 45.7 133.8 48.2 134.4 50.7 134.6 53.2 134.4 55.7 133.8 57.9 132.8 59.9 131.5 61.5 129.9 62.7 128.1 63.4 126.1 63.7 124 63.4 122 63.1 121.1 59.2 125.3 59.1 125.9 58.6 127.2"/><polygon class="cls-6" points="35.4 103.5 34.1 104.5 33.4 105.2 32.7 105.8 31.5 106.9 31.2 107.2 31.1 107.4 30.2 108.4 29.1 109.7 28.9 110 28.5 110.6 27.9 111.3 27.4 112 27.4 112 27.4 112.7 27.4 112.8 27.4 112.8 27.4 113.5 27.4 114.2 27.3 114.7 27.1 116.1 26.9 116.7 28.9 113.5 32.2 110.1 36.1 107.2 40.7 105.1 41.3 105 41.1 103.9 40.8 102.9 40.8 102.8 40.3 102.7 40.2 102.7 39.7 102.5 38.9 102.2 37.7 101.7 37.3 102 36 103 35.7 103.2 35.4 103.5"/><polygon class="cls-7" points="31 96.1 31.3 96.2 31.6 95.9 30.8 95.7 28.6 94.6 28.1 94.4 27.2 94 28.5 95.1 31 96.1"/><polygon class="cls-4" points="29.6 97.5 30.7 96.6 31.2 96.3 31 96.1 28.5 95.1 27.2 94 25.4 93.2 23.8 92 22.7 90.5 22.4 90 21.2 88.3 20 86.5 19.3 85.4 19 85 19.1 85.3 21 90 22.3 90.9 22.6 92 29.2 97.7 29.3 97.8 29.3 97.7 29.6 97.5"/><polygon class="cls-4" points="37.9 101.6 37.7 101.7 38.9 102.2 37.9 101.6"/><polygon class="cls-6" points="55.4 81.3 54.9 80.5 54.3 79.9 53.5 79.3 52.6 78.9 51.7 78.7 50.7 78.6 49.7 78.7 48.7 78.9 47.8 79.3 47.1 79.9 46.4 80.5 46 81.3 45.7 82.1 45.6 83 45.7 83.9 45.9 84.7 46.2 84.3 46.6 83.5 46.7 83.2 46.7 82.7 46.9 82 47.2 81.3 47.7 80.8 48.3 80.3 48.9 79.9 49.7 79.6 50.5 79.5 51.3 79.5 52.1 79.7 52.9 79.9 53.5 80.3 54.1 80.8 54.5 81.4 54.8 82.1 55 82.8 55 83.5 54.9 84.5 54.5 86 54.9 85.5 55.4 84.7 55.7 83.9 55.8 83 55.7 82.1 55.4 81.3"/><polygon class="cls-8" points="43.2 82.3 43.5 82.5 43.9 82.6 44.4 82.7 44.9 82.7 45.6 82.7 45.6 83 45.7 82.1 46 81.3 46.4 80.5 47.1 79.9 47.8 79.3 48.7 78.9 49.7 78.7 50.7 78.6 51.7 78.7 52.6 78.9 53.5 79.3 54.3 79.9 54.9 80.5 55.4 81.3 55.7 82.1 55.8 83 55.8 82.7 56.5 82.7 57 82.7 57.5 82.6 57.8 82.5 58.1 82.3 58.3 82 58.4 81.8 58.4 81.5 58.2 80.3 58.2 80.2 57.8 79.1 57.3 78.2 57.1 78 56.1 76.9 55 76.1 54.4 75.9 53.6 75.5 52.2 75.1 50.7 75 50.7 75 49.2 75.1 47.7 75.5 47 75.9 46.4 76.1 45.2 76.9 44.3 78 44.1 78.2 43.6 79.1 43.2 80.2 43.1 80.3 43 81.5 43 81.8 43 82 43.2 82.3"/><polygon class="cls-6" points="52.4 37.8 52.8 37.4 52.3 37.6 52.8 37.4 52.8 37.4 52.8 37.4 53 37.1 53.2 36.6 53.3 36.1 53.3 35.9 53.2 35.8 53.2 35.5 53 35 52.9 34.7 52.5 34.3 52.2 34.1 52.1 34 51.9 33.9 51.5 33.8 51.3 33.7 51.2 33.7 51.1 33.7 51 33.7 50.8 33.7 50.7 33.7 50.6 33.7 50.5 33.8 50.2 33.8 50 34 49.5 34.2 49.2 34.6 49 34.9 48.8 35.3 48.8 35.4 48.7 35.9 48.7 36.1 48.8 36.5 48.9 36.8 49.1 37.2 49.1 37.3 49.4 37.7 49.8 37.9 49.8 37.9 49.8 37.9 49.9 38 50.1 38.1 50.2 38.1 50.5 38.2 50.9 38.3 50.9 38.3 51.2 38.3 51.3 38.2 51.7 38.2 51.8 38.1 52 38 52.4 37.8"/><polygon class="cls-4" points="14 78 14 78 14.1 79 14.2 79 14 78"/><polygon class="cls-8" points="69.8 32.3 70.4 33 71.3 35 71.9 37.1 72.4 39.4 72.6 40.4 72.7 41.7 72.8 42.7 72.5 45 72.2 46.3 71.7 48.2 71.3 49.4 71 50.3 70 52 69.9 52.2 67.9 54.9 67.9 55 67.9 55 66.2 56.2 64.8 57.3 62.2 58.4 60.7 59.1 55.9 60.2 51.5 60.5 51.5 61.1 51.5 61.5 52.1 61.5 51.9 62.4 53.2 62.8 54.3 63.4 55.3 64.2 56.1 65.1 56.7 66.2 57.1 67.3 57.2 68.5 57.3 67.6 57.2 67.1 57.7 67 61.1 66.6 64.4 66.1 67.6 65.4 70.6 64.6 71.5 64.3 73.5 63.5 76.1 62.3 78.6 61.1 80.7 59.7 81.9 58.8 82.6 58.2 84.2 56.5 85.4 54.7 86 53.7 86.3 52.9 86.8 50.9 87 48.9 86.8 46.8 86.3 44.7 86 43.9 85.4 42.6 84.2 40.5 82.6 38.5 81.9 37.8 80.7 36.5 78.6 34.6 76.1 33 73.5 31.4 71.5 30.5 70.6 30.1 67.6 28.9 67.2 28.7 68.3 30.2 69.8 32.3"/><polygon class="cls-4" points="52.1 21.8 51.9 20.1 51.5 20.1 51.8 4.4 51.7 4.5 51 4.6 50.4 4.5 50.3 4.4 50.2 4.4 49.9 20.1 49.4 20.1 49.5 21.9 52.1 21.8"/><polygon class="cls-6" points="48.2 22.2 47.1 22.6 46.7 22.8 50.7 22.5 54.7 22.8 55.5 23 55.4 23 54.4 22.4 53.3 22.1 52.1 21.8 49.5 21.9 48.2 22.2"/><polygon class="cls-10" points="74.4 120.5 73.9 120.5 73.7 120.5 73.5 120.5 73.3 120.5 72.5 120.5 72.4 120.5 71.6 120.5 71.4 120.5 70.4 120.5 63.5 120.5 63.1 121.1 63.4 122 63.7 124 63.4 126.1 62.7 128.1 61.5 129.9 59.9 131.5 57.9 132.8 55.7 133.8 53.2 134.4 50.7 134.6 48.2 134.4 45.7 133.8 43.5 132.8 41.5 131.5 39.9 129.9 38.7 128.1 38 126.1 37.7 124 38 122 38.3 121.1 37.9 120.5 31 120.5 30 120.5 29.8 120.5 29 120.5 28.9 120.5 28.1 120.5 27.8 120.5 27.7 120.5 27.5 120.5 27 120.5 26.8 120.5 26.7 121.8 27.1 125.6 27.2 126.2 28.6 129.9 30.8 133.2 31.1 133.6 34.1 136.5 37.6 138.9 41.7 140.7 46.1 141.8 50.7 142.1 55.3 141.8 59.7 140.7 63.8 138.9 67.3 136.5 70.3 133.6 70.6 133.2 72.8 129.9 74.1 126.2 74.3 125.6 74.7 121.8 74.6 120.5 74.4 120.5"/><polygon class="cls-10" points="74.7 121.2 74.7 120.5 74.7 120.5 74.7 121.2"/><polygon class="cls-5" points="72.5 113.5 69.2 110.1 65.3 107.2 60.7 105.1 60.1 105 59.8 106.1 59.5 107.3 59.3 108.3 55.6 123.6 55.6 127.6 56.7 127.1 57.9 126.3 59.1 125.4 59.2 125.3 63.1 121.1 63.5 120.5 70.4 120.5 71.4 120.5 71.6 120.5 72.4 120.5 72.5 120.5 73.3 120.5 73.5 120.5 73.7 120.5 73.9 120.5 74.4 120.5 74.6 120.5 74.7 120.5 74.7 120.5 74.9 120.5 76 120.4 74.9 117.4 72.5 113.5"/><polygon class="cls-5" points="26.8 120.5 27 120.5 27.5 120.5 27.7 120.5 27.8 120.5 28.1 120.5 28.9 120.5 29 120.5 29.8 120.5 30 120.5 31 120.5 37.9 120.5 38.3 121.1 42.2 125.3 42.3 125.4 43.5 126.3 44.7 127.1 45.8 127.6 45.8 123.6 42.1 108.3 41.9 107.3 41.6 106.1 41.3 105 40.7 105.1 36.1 107.2 32.2 110.1 28.9 113.5 26.9 116.7 26.7 117.6 27.3 118.1 26.7 117.6 26.2 119.2 25.7 120.5 26.5 120.5 26.7 120.5 26.7 120.5 26.8 120.5"/><polygon class="cls-9" points="26.7 120.5 26.7 121.2 26.7 121.8 26.8 120.5 26.7 120.5"/><polygon class="cls-6" points="68.9 99.7 66 100.8 61.6 102.5 61.2 102.7 61.1 102.7 60.6 102.8 60.6 102.9 60.3 103.9 60.1 105 60.7 105.1 65.3 107.2 69.2 110.1 72.5 113.5 74.9 117.4 76 120.4 76.7 120.4 76.9 120.3 77.5 120.1 77.6 120 77.6 120 77.7 119.8 77.8 119.3 77.8 118.4 77.8 117.3 77.8 115.9 77.8 114.4 77.7 113 77.7 112.8 77.6 112.5 77.5 112 76 107.7 73.4 103.6 70 100 69.7 99.7 69.4 99.5 69.3 99.5 68.9 99.7"/><polygon class="cls-9" points="74.6 120.5 74.7 121.8 74.7 121.2 74.7 120.5 74.6 120.5"/><polygon class="cls-7" points="55 83.5 55 82.8 54.8 82.1 54.5 81.4 54.1 80.8 53.5 80.3 52.9 79.9 52.1 79.7 51.3 79.5 50.5 79.5 49.7 79.6 48.9 79.9 48.3 80.3 47.7 80.8 47.2 81.3 46.9 82 46.7 82.7 46.7 83.2 46.6 83.5 46.2 84.3 45.9 84.7 45.8 84.8 45.6 85.1 45.5 85.3 45.8 85.1 46.2 84.9 46.8 84.8 47.5 84.8 48.3 84.9 49.1 85 49.4 85.1 50 85.3 50.8 85.5 51.5 85.9 52.2 86.2 52.7 86.6 53.2 87 53.5 87.4 53.6 87.8 53.6 88 53.6 88.1 53.6 88.1 53.7 87.8 53.9 87.4 54.1 87.1 54.2 86.7 54.3 86.6 54.4 86 54.5 86 54.9 84.5 55 83.5"/><polygon class="cls-4" points="26.7 117.6 24.5 116.7 26.7 117.6 26.9 116.7 27.1 116.1 27.3 114.7 27.4 114.2 27.4 113.5 27.4 112.8 27.2 113.4 27.2 113.5 26.9 114.1 26.4 114.6 25.7 114.9 25 115.1 24.1 115.2 23.3 115.1 22.4 114.8 21.5 114.4 20.7 113.8 20 113.2 19.4 112.5 18.9 111.7 18.5 110.9 18.4 110.1 18.4 109.3 18.6 108.6 19 108 18.7 108.3 15.8 107.2 16.1 107.6 16.3 108.3 16.4 109.2 16.3 110.4 16 111.8 15.6 113.3 15.1 114.9 14.5 116.5 13.8 118.1 13.1 119.6 12.4 120.9 11.6 122 10.9 122.8 10.3 123.3 9.7 123.6 9.3 123.5 20.4 127.8 20.8 127.9 21.4 127.6 22 127.1 22.7 126.2 23.4 125.1 24.2 123.8 24.9 122.4 25.6 120.8 25.7 120.5 26.2 119.2 26.7 117.6"/><polygon class="cls-10" points="26.7 120.5 26.7 121.2 26.7 120.5 26.7 120.5"/><path class="cls-6" d="M89,54.2V54h0l-.4-1.2-.3-1.3-.3-1.1-.3-1L87,47.2l.6,2.1v4.2l-.6,2-.3.9-.2.3-.4.7-1.3,1.8-1.6,1.7-.7.7-1.2.9-2.2,1.4-2.4,1.3L74,66.4l-2.1.8-.9.3-3.1.8-3.2.7-3.4.6-3.5.4h-.9v-.4l.2-1.2V67.3l-.4-1.1-.6-1.1-.8-.9-1-.8-1.1-.6-1.3-.4H49.4l-1.3.3-1.1.6-1,.7-.9.9-.6,1L44.1,67h0v2.3l.2.7h-.7l-3.5-.4L36.7,69l-3.2-.7-3.2-.8-.8-.3-2.1-.8-2.7-1.2-2.4-1.3-2.2-1.4-1.3-.9-.7-.7-1.5-1.7-1.3-1.8-.4-.7-.2-.3-.3-.9-.6-2V49.3l.6-2.1L14,48.6l-.6,1.8L13,52v.4l-.5,1.8v.9L11.5,64v4.4l1.4,6.8.5,2.2.7,1.6h0V78h0l.2-.9.3-.2.3.3.4.3.8,1.3.5,1,.6,1,1.3,2.6L19,85l.3.4.7,1.1,1.2,1.8L22.4,90l.3.5L23.8,92l1.6,1.2,1.8.8.9.4.5.2,2.2,1.1.8.2.8-.6,1-.7.7-.5h.3l1-.7.5-.4h.2l1.4-1,1.6-1.1.3-.2.4-.3.8-.6,1.4-1,.2-.2.8-.6.2-.2,1-.9.5-.5-.4-.4-.7-1.1-.4-1.3v-.2h0V80.3h.1l.4-1.1.5-.9.2-.2.9-1.1,1.2-.8.6-.2.7-.4,1.5-.4h3l1.4.4.8.4.6.2,1.1.8,1,1.1.2.2.5.9.4,1.1h0l.2,1.2v1.8l-.5,1.3L57,85.7l-.9,1H56l-1.2.8h-.3l-1,.5h0l-.2.4-.2.2L52.4,90l-1.2,1.3-.5.6-.8.8-1.4,1.2-.2.2-1.1.8v.2H47l-.5.4-1,.8-1.6,1.1-.3.2L43,98l-.8.5h0l1.5.3,3.5.2,3.5.2,3.5-.2,3.5-.2,3.3-.6,1.6-.3,1.8-.3,3.1-.9,3.1-1,2.2-1.1.5-.2.9-.4,1.8-.8,2.2-1.6.9-.7,1.3-.9,1.7-1.8,1.6-1.7,1.1-2,1-1.9.6-1.5-.4.7v.3l-.2.3-.2.3h-.3v-.7h0v-.8l.2-.9,1-4.8-.8-8V61.7l.3-1,.3-1v-.2l.2-.6.4-.6.3-.4h.7l.3.3.3.5v1.7l.7,8,.2-2.2L89.8,64ZM46.4,67.5l.2-.8L47,66l.6-.5.6-.5.8-.4.8-.2h1.7l.8.2.7.4.6.5.6.7.4.6.2.8v1.5l-.3.8-.4.7-.5.5-.7.5-.7.4-.8.2H49.7l-.8-.2-.7-.4-.7-.5-.5-.6-.4-.7-.2-.8V67.5Z"/><polygon class="cls-4" points="88.3 75.9 88.5 75.1 88.6 74.3 89.5 69.6 88.8 61.7 88.7 61 88.6 60.5 88.5 60.2 88.5 60.2 88.3 60 88.2 59.9 88 59.9 87.8 60 87.5 60.3 87.3 60.7 87.2 61.2 87.1 61.4 87 61.8 86.8 62.5 86.7 63.3 86.7 64 86.7 64.1 86.6 64.8 86.6 65.6 86.6 66.4 87.4 74.3 86.4 79 86.3 79.7 86.3 80.2 86.3 80.5 86.3 80.6 86.3 80.7 86.4 80.8 86.5 80.7 86.5 80.7 86.6 80.5 86.6 80.4 86.8 80.1 86.8 80 87.1 79.5 87.6 78.2 87.8 77.7 88 77.4 88.1 77.1 88.2 76.7 88.3 75.9"/><polygon class="cls-4" points="2.5 46.5 3.2 46 3.2 46 4 45.5 4 45.5 4.8 44.9 4.8 44.8 5.6 44.2 5.6 44.2 6.4 43.5 6.4 43.4 7.1 42.7 7.1 42.7 7.7 42 7.7 42 8.2 41.3 8.2 41.3 8.6 40.8 8.6 40.7 8.8 40.3 8.8 40.2 8.9 39.9 8.9 39.8 8.8 39.6 8.6 39.5 8.2 39.5 7.7 39.7 7.1 40 6.3 40.4 5.6 40.9 4.7 41.6 3.9 42.3 3.2 43 2.4 43.7 1.8 44.4 0 45.2 1.6 47 1.8 46.8 2.5 46.5"/><polygon class="cls-7" points="27.2 30.1 26.9 30.4 26.8 30.8 26.8 31.4 26.9 32 26.9 32 27 32 27.2 31.8 27.9 31.4 29.4 30.7 29.9 30.5 30.2 30.4 30.2 29.9 30.3 29.4 30.4 28.9 30.7 28.6 31.1 28.4 30 28.8 27.5 29.9 27.3 30 27.2 30.1 27.2 30.1"/><polygon class="cls-5" points="22.9 33 22.9 33.5 23 34.1 23.1 34.4 24.6 33.4 25.2 33 26.9 32 26.9 32 26.8 31.4 26.8 30.8 26.9 30.4 27.2 30.1 27.2 30.1 27.3 30 27.5 29.9 24.9 31.2 24.7 31.4 23.2 32.3 23 32.6 22.9 33"/><polygon class="cls-7" points="18.6 35.9 18.6 36.4 18.8 37 19 37.6 19.2 38 19.5 37.8 20 37.2 20.7 36.5 21.1 36.1 22.2 35.2 22.8 34.6 23.1 34.4 23 34.1 22.9 33.5 22.9 33 23 32.6 23.2 32.3 22.2 32.9 19.7 34.6 18.8 35.2 18.6 35.5 18.6 35.9"/><polygon class="cls-5" points="30.4 28.9 30.3 29.4 30.2 29.9 30.2 30.4 30.8 30.1 31.8 29.7 33.8 28.9 34.1 28.8 34.2 28.7 34.2 28.7 34.5 28.5 35.5 27.7 36.3 27.2 36.8 26.8 37 26.7 34.9 27.1 32.5 27.9 31.1 28.4 30.7 28.6 30.4 28.9"/><polygon class="cls-11" points="30.5 48 31.6 49.2 32.2 49.5 35.1 51.1 35.4 51.2 35.5 51 35.7 50.4 35.6 49.7 35.6 49.5 35.6 48.9 35.4 48.3 35.3 48 35.1 47.2 34.7 46.4 34.5 46 34.3 45.6 33.8 44.9 33.2 44.4 32.5 44 32.4 43.9 32 43.7 31.7 43.6 31.6 43.6 31.2 43.6 30.8 43.9 30.5 44.2 30.3 44.7 30.2 44.8 30.1 45.4 30.1 46.1 30.2 47 30.2 47.1 30.4 47.8 30.5 48"/><path class="cls-12" d="M30,47.8l.4,1.1,1.3,1.3,3.5,2,1.5.5v-.2l.4-.5.2-.8v-.9h.1v-1L37,48.1l-.5-.9V47l-.6-.9v-.2l-.5-1-.7-.9-.8-.7-.9-.5h-.1l-.5-.3H30.9l-.4.2-.4.5-.4.7h0v2.8Zm.2-.8V44.8h0l.3-.5.3-.3.4-.3H32l.4.2h.1l.7.4.6.5.5.7.2.4.2.4.4.8.2.8v.3l.2.6v1.5l-.2.6v.2h-.3l-2.9-1.6-.6-.3L30.5,48v-.2l-.2-.7Z"/><polygon class="cls-7" points="89 59.5 88.9 58.9 88.8 58.7 88.5 58.2 88.2 57.9 87.8 57.8 87.6 57.9 87.5 57.9 87.2 58.3 86.8 58.9 86.6 59.5 86.5 59.7 86.2 60.7 85.9 61.7 85.8 62.9 85.8 63.1 85.7 64.1 85.7 65.3 85.7 65.5 85.7 66.4 85.7 67.5 86.5 75.5 85.5 80.3 85.3 81.2 85.3 82 85.3 82.1 85.2 82.5 85.2 82.8 85.3 82.8 85.3 82.9 85.5 82.8 85.5 82.7 85.7 82.4 85.9 82.1 86 81.8 86.4 81.1 86.4 81 86.9 80 87 79.6 87.6 78.2 87.1 79.5 86.8 80 86.8 80.1 86.6 80.4 86.6 80.5 86.5 80.7 86.5 80.7 86.4 80.8 86.3 80.7 86.3 80.6 86.3 80.5 86.3 80.2 86.3 79.7 86.4 79 87.4 74.3 86.6 66.4 86.6 65.6 86.6 64.8 86.7 64.1 86.7 64 86.7 63.3 86.8 62.5 87 61.8 87.1 61.4 87.2 61.2 87.3 60.7 87.5 60.3 87.8 60 88 59.9 88.2 59.9 88.3 60 88.5 60.2 88.5 60.2 88.6 60.5 88.7 61 88.8 61.7 89.5 69.6 88.6 74.3 88.5 75.1 88.3 75.9 88.2 76.7 88.1 77.1 88.4 75.7 88.5 75.4 88.7 74.3 88.9 73.2 89.8 68.4 89.8 68.4 89.1 60.4 89 59.5"/><polygon class="cls-7" points="88.2 51.5 88.5 52.7 88.9 53.9 88.9 54 88.6 52.7 88.5 52.6 88.3 51.8 88.2 51.2 87.6 49.3 87.9 50.3 88.2 51.5"/><polygon class="cls-5" points="39.8 90.4 40.1 90.7 40.5 91 41 91.4 41.4 91.6 41.7 91.8 42.4 92.2 43.3 92.6 44.1 93 45 93.4 45.7 93.6 45.8 93.6 46.5 93.9 47.2 94 47.7 94.1 48.1 94.1 48.3 94.1 48.5 93.9 49.9 92.7 50.7 91.9 51.2 91.3 52.4 90 52.6 89.6 53.5 88.2 53.5 88.2 53.5 88.2 54.5 87.7 54.8 87.6 56 86.8 56.1 86.7 57 85.7 57.7 84.6 58.2 83.3 58.2 83.1 58.3 82.8 58.4 81.8 58.3 82 58.1 82.3 57.8 82.5 57.5 82.6 57 82.7 56.5 82.7 55.8 82.7 55.8 83 55.7 83.9 55.4 84.7 54.9 85.5 54.5 86 54.4 86 54.3 86.6 54.2 86.7 54.1 87.1 53.9 87.4 53.7 87.8 53.6 88.1 53.6 88.1 53.6 88.1 53.6 88.1 53.6 88 53.6 87.8 53.5 87.4 53.2 87 52.7 86.6 52.2 86.2 51.5 85.9 50.8 85.5 50 85.3 49.4 85.1 49.1 85 48.3 84.9 47.5 84.8 46.8 84.8 46.2 84.9 45.8 85.1 45.5 85.3 45.6 85.1 45.8 84.8 45.9 84.7 45.7 83.9 45.6 83 45.6 82.7 44.9 82.7 44.4 82.7 43.9 82.6 43.5 82.5 43.2 82.3 43 82 43 81.8 43.1 83 43.1 83.1 43.2 83.3 43.6 84.6 44.3 85.7 44.7 86.1 44.2 86.6 43.2 87.5 43 87.7 42.2 88.3 42 88.5 40.6 89.5 39.8 90.1 39.8 90.2 39.8 90.4"/><polygon class="cls-6" points="45.7 93.7 45.8 93.6 45.7 93.6 45.7 93.7"/><polygon class="cls-13" points="53.5 128.4 53.2 128 52.9 127.6 52.4 127.3 51.9 127.1 51.3 126.9 50.7 126.9 50.1 126.9 49.5 127.1 49 127.3 48.5 127.6 48.2 128 47.9 128.4 47.7 128.9 47.6 129.4 47.6 130.5 47.7 130 47.9 129.5 48.2 129.1 48.5 128.7 49 128.4 49.5 128.2 50.1 128 50.7 128 51.3 128 51.9 128.2 52.4 128.4 52.9 128.7 53.2 129.1 53.5 129.5 53.7 130 53.8 130.5 53.8 129.4 53.7 128.9 53.5 128.4"/><polygon class="cls-11" points="46.6 69.8 47 70.5 47.5 71.1 48.2 71.6 48.9 72 49.7 72.2 50.5 72.3 51.4 72.3 52.2 72.1 52.9 71.7 53.6 71.2 54.1 70.7 54.5 70 54.8 69.2 54.9 68.5 54.8 67.7 54.6 66.9 54.2 66.3 53.6 65.6 53 65.1 52.3 64.7 51.5 64.5 50.6 64.4 49.8 64.4 49 64.6 48.2 65 47.6 65.5 47 66 46.6 66.7 46.4 67.5 46.3 68.2 46.4 69 46.6 69.8"/><path class="cls-14" d="M19.5,35l-.2.4-.5.9v.2l-.6.9-.7,1.4-.7,1.1v.4l-.7,1.4h0v.6l-.2.7-.4,1.5h0l-.6,2.1-.2,2.1.2,2,.6,2,.3.8.6,1,1.2,1.8,1.6,1.7.7.6,1.2.9,2.1,1.4,2.4,1.2,2.7,1.2,2,.8.8.3,3.1.8,3.2.7,3.3.5,3.4.4h.4v-.9h.1l.3-1.1.7-1,.8-.9,1-.7.3-.2.8-.4,1.3-.3h.4c.1-9.5.1-7.7.2-17.2V38.1h-.4l-.4-.2-.3-.4v-.5h-.1V35.4l.2-.5h0l.2-.2.3-.4L50,34l.2-.2h2.1l.2.2.4.4.2.5v1.4l-.2.5h-.1v.3h-.2l-.2.3L52,38h-.2v6.1c-.1,9.5-.1,7.7-.2,17.3h.6l1.2.4.7.4.4.2,1,.8.8.9.6,1.1.2.7.2.4v.7h.5l3.4-.4,3.3-.5,3.2-.7,3-.8.9-.3,2-.8,2.6-1.2,2.5-1.2,2.1-1.4,1.2-.9.7-.6,1.6-1.7,1.2-1.8.6-1,.3-.8.5-2,.2-2-.2-2.1-.5-2.1-.8-2.9-.8-1.9L80,31.6,79,30l-1.3-1.6-5.1-5.3-1.2-1.2-1.5-1.2-1.6-1-1.8-1-2-.8-3.1-1.2-1.6-.5-1.7-.5-1.8-.4-1.8-.2-1.9-.2H48.8l-1.9.2-1.8.2-1.8.4-1.7.5-1.6.5-3.1,1.2-2,.8-1.8,1-1.6,1L30,21.9l-1.2,1.2-5.1,5.3L22.4,30l-1,1.6-1.6,2.9-.2.3Z"/></svg>