<svg id="Layer_1" data-name="Layer 1" xmlns="http://www.w3.org/2000/svg" viewBox="0 0 106.8 153.1"><defs><style>.cls-1{fill:#ededf4;}.cls-2{fill:none;}.cls-3{fill:#7b7a88;}.cls-4{fill:#b5b5c1;}.cls-5{fill:#9399a8;}.cls-6{fill:#5e5c6a;}.cls-7{fill:#43434b;}.cls-8{fill:#4b3a2d;}.cls-9{fill:#2affff;}.cls-10{fill:#46bbed;}.cls-11{fill:#605e73;}.cls-12{fill:#d9d9df;}.cls-13{fill:#9491a4;}.cls-14{fill:#6d5c46;}.cls-15{fill:#54d9ff;opacity:0.5;}</style></defs><rect class="cls-1" x="-85.7" y="-575.5" width="1000" height="800"/><polygon class="cls-2" points="24 70.7 24 70.7 24.8 70.3 24 70.7"/><polygon class="cls-2" points="40.6 97.1 37.8 96.9 37.2 100.8 43.9 100.8 43.4 96.9 40.6 97.1"/><polygon class="cls-2" points="13 45.6 14.1 45.7 14.3 45.7 13.2 45.6 13.4 43.9 13.2 45.6 13 45.6"/><polygon class="cls-2" points="1.1 54.5 1.1 54.4 1.1 54.5 1.1 54.5"/><polygon class="cls-2" points="9.3 52.5 9.3 52.5 8.7 52 9.4 52.6 9.6 52.7 9.4 52.6 9.3 52.5"/><polygon class="cls-2" points="10.2 53.2 10.2 53.2 10.2 53.2 10.2 53.2"/><polygon class="cls-2" points="96 82.3 96.3 84.3 97.2 84.3 96.3 84.3 96 82.3"/><polygon class="cls-2" points="12.2 48.2 11.5 48.1 11.1 48 11.8 48.1 12.2 48.2"/><polygon class="cls-2" points="10.1 49.2 10 49.2 10.5 49.2 10.7 49.2 10.8 49.2 10.1 49.2"/><polygon class="cls-2" points="13.1 55.6 13 55.5 12.7 55.2 14 56.4 14.4 56.7 14 56.4 13.8 56.2 13.7 56.1 13.2 55.7 13.1 55.6"/><polygon class="cls-2" points="5.9 49.4 5.7 49.4 5.7 49.4 5.7 49.4 5.9 49.4"/><polygon class="cls-2" points="4 59.2 4.5 59.6 4.8 59.8 4.3 59.4 4 59.2"/><polygon class="cls-2" points="6 60.8 6.5 61.2 6.9 61.5 7.2 61.8 7.2 61.8 6 60.8"/><polygon class="cls-2" points="7.9 61.1 7.9 61.2 7.9 61.1 7.9 61.1"/><polygon class="cls-2" points="1.7 56.9 2.1 57.3 2.2 57.5 2.6 58 2.1 57.3 1.7 56.9"/><polygon class="cls-2" points="4.4 49.7 3.9 49.9 3.6 50.1 3.1 50.3 3.9 50 4.4 49.7"/><polygon class="cls-2" points="1.1 55.2 1.3 56 1.4 56.1 1.1 55.3 1.1 55.2"/><polygon class="cls-2" points="95.4 69.3 95.5 69.4 95.4 69.3 95.4 69.3"/><polygon class="cls-2" points="86.5 68.7 86.6 69 86.5 68.8 86.5 68.7"/><path class="cls-3" d="M22.1,109.3v1l.2,1.2,1.3,9.5v8.2h0l.3.9.3.9.4.8.3.2.3.4.6.4.6.3h1.4l.7-.3.6-.4.5-.6.5-.8.3-.9.2-.9v-1h3.6V121H30.8l3.9-28-1.9.6-5.6.5-5.5-.5L19.8,93h0v.4L22,108.6v.7Zm7.3,19.6v.6l-.2.5-.3.5-.3.4-.4.3-.4.2H26.3l.4-.2.4-.3.3-.4.3-.5.2-.5.2-.6v-1.2l-.2-.6-.2-.6-.3-.4-.3-.4-.4-.3-.4-.2h1.4l.4.2.4.3.3.4.3.4.2.6v1.8Z"/><polygon class="cls-4" points="22 108.6 20.8 110.1 20.5 110.6 22 108.8 22 108.6"/><path class="cls-5" d="M18.8,92.7l-2-1.4-.4-.4-.3-.2v-.2h.8l6.1,1.1,4.4-.8-1.5-.4-1.6-.7h0l-1.5-.9-1.3-1.1-1.1-1.1-.4-.5-.4-.7L19,84.1l-.2-1.2v-.8H8.1L9.3,86l3.2,3.6,5.1,3.1,2.2.8v-.4Z"/><path class="cls-4" d="M81.1,61.3V59.1h-.1V51.3h0l-.2-1.9-1.8-7.7v.2l-.5.3-.5.3H77l-1.2.2-1.6.2-.7.2H59.9l-1.3-.2-3.4-.2-3.6-.2H50.3L48,42.2l-3.7-.3-3.7-.2-3.7-.3H33.2L29.6,41l-3.4-.2-3.4-.2H18.4l-.2.5-.8,1-.4.4-.5.4h-.1l-.9.5-1,.4-1,.2h-.1l-.2,1.7h1.1l1,.5.5.4.5.3.8,1,.6,1.2v.3l.4,1.1.2,1.4h.1v1.5L18.3,55h0l-.4,1.5-.7,1.3-.6.8,1,.9h0l.5.5,1.1,1.1.5.5.6.6.6.8.7.8,1.1,1.3.6.7,2.1,2.6H26l.5.2.4.3.4.4h2.2l1.6.3,1.7.5h.1l.5.2,1.1.5,1.5.9h0l.8.5.5.4,1.1,1.2.8,1.2.5,1.2v.9h3.4l1-1.7.3-.5,1.3-1.8L47,71.6l.9-1.1.3-.4,1-1.5,2-2.2,1-.7.9-.7,1.9-.4.9.2.7.2L58,66.4l1,1.8-.3-.3-.4-.4-.5-.2H56.7l-.5.2-.4.4-.4.5-.4.5-.2.7-.2.7v1.5l.2.7.2.6.4.6.4.5.4.3.5.2h1.1l.5-.2h.1l.3-.2.4-.5.4-.6.2-.5h0l.2-.7v3.4l-.2,2.2H71.9l.8-2.2.7-1.6.8-2,.5-1.1.7-1.9h0l1-2.2.9-1.4.3-.2.4-.2.6.4.2.7.2.7v.9h.8l-.5.2-.4.4-.4.5-.4.5-.2.7-.2.7v1.5l.2.7.2.6.4.6.4.5.4.3.5.2h1.1l.5-.2.4-.3.4-.5.4-.6.2-.6.2-.7V70.3l-.2-.7-.2-.7-.4-.5-.4-.5-.4-.4-.5-.2h-.6l.9-5.5h-.1Zm-.4,7.2H81l.4.3.2.3.3.4v2.9l-.3.4-.2.3-.4.2-.3.2H80l-.4-.2-.3-.2-.3-.3-.2-.4-.2-.5V70l.2-.4.2-.4.3-.3.3-.3h1.1Zm-21.6,3V72l-.2.5-.2.4-.3.3-.3.2-.4.2h-.7l-.3-.2-.4-.2-.2-.3-.3-.4V69.6l.3-.4.2-.3.4-.3H58l.3.3.3.3.2.4.2.4v1.5Z"/><polygon class="cls-5" points="80.4 51.5 80.4 51.9 80.4 52.2 80.5 52.5 80.5 53.2 80.6 54 80.6 54.5 80.6 55 80.7 56 80.8 56.6 80.8 57.1 80.9 58.1 80.9 58.3 81 58.2 81.6 57.8 81.6 57.7 81.7 57.7 82.4 57.3 83.1 56.8 83.9 56.4 84.5 55.9 85.1 55.6 85.6 55.3 86 55.1 86.3 55 86.4 54.9 86.2 54.8 84.6 53.6 82.9 52.5 81 51.6 80.4 51.3 80.4 51.3 80.4 51.5"/><polygon class="cls-4" points="18.4 123.7 18.6 122.9 17.1 122.9 17 122.9 16.5 123 16.4 123 16.2 123.1 15.8 123.3 15.7 123.4 15.5 123.8 15.5 124.2 15.6 124.3 15.9 124.8 16.2 125 16.3 125.1 16.6 125.3 17.7 125.8 18.3 125.9 18.3 125 18.4 123.7"/><polygon class="cls-5" points="90.3 83.8 90.6 83.6 90.7 83.6 91.1 83.3 91.3 83.2 91.8 83 92.1 82.9 92.5 82.8 93.1 82.6 93.2 82.6 94 82.4 94.1 82.4 94.9 82.3 95 82.3 95.7 82.3 96 82.3 96.5 82.4 96.9 82.4 97.1 82.5 97.7 82.6 97.8 82.6 98.2 82.8 98.4 82.9 98.5 82.9 98.5 83 98.1 79.5 97.9 79.1 97.6 78.7 97.2 78.4 96.6 78.2 95.9 78.1 95.1 78 94.3 78 93.5 78 92.7 78.2 91.9 78.4 91.2 78.7 90.6 79 90.1 79.4 89.8 79.8 89.6 80.2 89.6 80.6 90 84.1 90.1 84 90.3 83.8"/><polygon class="cls-4" points="78.1 74.8 78 74.8 77.9 75.2 77.7 75.7 77.2 77.4 77.5 77.4 78.4 74.8 78.3 74.8 78.1 74.8"/><polygon class="cls-6" points="106.7 94.6 106.4 93 105.8 91.4 105 89.8 104 88.4 102.8 87.1 101.6 86 100.2 85.1 99.7 84.9 99.5 84.8 99.2 84.7 98.8 84.5 98.7 84.5 98 84.4 97.5 84.3 97.2 84.3 96.3 84.3 95.3 84.6 95.2 84.7 94.3 85.3 93.6 86.3 93.1 87.4 92.9 88.8 93 90.3 93.3 91.9 93.9 93.5 94.7 95 96.7 94 96.6 93.8 96.2 93.1 96.1 92.9 95.8 92.1 95.8 91.9 95.6 91.1 95.6 90.9 95.6 90.2 95.6 90 95.7 89.3 95.8 89.2 96 88.6 96.1 88.5 96.4 88 97 87.6 97.7 87.4 98.4 87.4 99.2 87.6 100.1 87.9 100.9 88.4 101.7 89.1 102.4 89.9 103 90.8 103.6 91.8 103.9 92.8 104.1 93.8 104.2 94.7 104 95.5 103.8 96.2 103.3 96.8 102.8 97.2 104.5 100.2 105.5 99.5 106.2 98.6 106.6 97.4 106.8 96.1 106.7 94.6"/><polygon class="cls-7" points="98.4 82.9 98.2 82.8 97.8 82.6 97.7 82.6 97.1 82.5 96.9 82.4 96.5 82.4 96 82.3 96.3 84.3 97.2 84.3 97.5 84.3 98 84.4 98.7 84.5 98.8 84.5 99.2 84.7 99.5 84.8 99.7 84.9 99.6 84.1 99.4 83.7 99 83.3 98.5 83 98.5 82.9 98.4 82.9"/><polygon class="cls-8" points="40.1 127.2 40.2 128.3 40.1 130 39.7 131.7 39.2 133.2 38.4 134.5 37.4 135.6 36.4 136.4 35.2 136.9 34 137.1 33.4 137.1 32.2 136.9 31 136.4 29.9 135.6 29 134.5 28.3 133.3 27.2 133.3 26.5 133.2 25.9 132.9 25.3 132.5 25 132.1 25.2 133.4 26.1 135.7 27.3 137.7 28.7 139.4 30.4 140.6 32.1 141.4 34 141.7 35.8 141.4 37.6 140.6 39.2 139.4 40.7 137.7 41.8 135.7 42.7 133.4 43.3 130.9 43.4 128.3 43.3 125.7 42.7 123.2 42.6 122.9 42.4 122.9 40.1 127.2"/><polygon class="cls-4" points="63.3 32.8 63 35 62.4 37.3 64 37.3 66.7 37.3 69.1 37.3 71.2 37.3 70.9 36 70.4 34.8 69.8 33.6 69.1 32.6 68.3 31.8 67.4 31.2 66.4 30.8 64.7 30.8 63.9 31.2 63.3 31.7 63.3 32.1 63.3 32.8"/><polygon class="cls-9" points="62.6 27.1 62.4 26.6 62.3 26.4 62.2 26.1 62 25.9 61.8 25.8 61.7 25.9 61.7 25.9 61.5 26.1 61.3 26.4 61.2 26.6 61 27.1 60.9 27.8 60.9 28.6 60.9 29.2 60.9 29.4 60.9 30.3 60.9 31.1 61.1 32 61.1 32.1 61.2 32.7 61.2 32.9 62.5 32.3 62.7 32.1 63.3 31.4 63.2 29.2 62.9 28 62.9 27.8 62.6 27.1"/><polygon class="cls-10" points="61.9 24.9 61.6 24.6 61.3 24.4 61.2 24.6 61.2 24.6 60.9 24.9 60.6 25.4 60.5 26.1 60.4 26.4 60.3 27 60.3 28 60.3 29.1 60.3 29.2 60.3 30.3 60.4 31.4 60.5 32.1 60.5 32.5 60.7 33.5 60.9 34.4 62.4 33.7 63.3 32.8 63.3 32.1 63.3 31.7 63.3 31.4 62.7 32.1 62.5 32.3 61.2 32.9 61.2 32.7 61.1 32.1 61.1 32 60.9 31.1 60.9 30.3 60.9 29.4 60.9 29.2 60.9 28.6 60.9 27.8 61 27.1 61.2 26.6 61.3 26.4 61.5 26.1 61.7 25.9 61.7 25.9 61.8 25.8 62 25.9 62.2 26.1 62.3 26.4 62.4 26.6 62.6 27.1 62.9 27.8 62.9 28 62.6 26.4 62.3 25.5 62.2 25.4 61.9 24.9"/><polygon class="cls-11" points="56 105.3 57.4 106.4 59.2 108.6 61.3 93.5 57.5 94.8 56 105.3"/><path class="cls-3" d="M18.9,82.1v-.3L20,79.3l.2-.7.4-.9h0l-.2-.3H3.7L9,79.2l-.9,2.9Z"/><polygon class="cls-6" points="26.7 69.6 26.3 69.7 26.2 69.7 25.5 69.9 25 70.1 24.8 70.3 24 70.7 23.3 71.4 23.2 71.6 22.8 72.4 22.7 72.6 22.5 73.7 22.7 74.9 23.2 76.1 24 77.3 25.1 78.4 26.4 79.5 27.9 80.3 29.6 81.1 31.2 81.6 31.2 80.5 31.2 79.3 30.6 79.1 30.2 79 29.6 78.8 29.2 78.6 28.6 78.2 28.2 78 27.8 77.6 27.4 77.4 27 77 26.8 76.7 26.5 76.2 26.3 75.9 26.1 75.5 25.9 75.2 25.9 74.7 25.8 74.4 25.9 73.9 25.9 73.7 26.2 73.1 26.7 72.6 27.4 72.2 28.2 72 29.1 71.8 30.1 71.9 31.2 72 32.2 72.3 33.2 72.8 34.1 73.3 35 74 35.6 74.7 36.1 75.4 36.4 76.2 36.6 76.9 39.9 77.7 39.8 77.4 39.7 76.5 39.2 75.3 38.4 74.1 37.3 72.9 36.8 72.5 36 72 36 71.9 34.5 71 33.4 70.5 32.9 70.3 32.8 70.3 31.1 69.8 29.5 69.5 29.1 69.5 27.8 69.5 27.3 69.5 27.1 69.6 26.7 69.6"/><path class="cls-7" d="M25.2,68.6h-.7l-.6.2h-.2l-.5.2-.4.2-.2.2-.6.3h-.1l-.7.5h0l-.6.6h-.2l-.4.5-.2.2-.2.4-.3.4h-.1l-.2.5h-.1v.6h0v.6l.2.6.2.4,1,1.2.2.2.2.3.2.3h0l-.4.9-.2.7-1.1,2.5v1.1l.2,1.2.5,1.2.4.7.4.5,1.1,1.1,1.3,1.1,1.5.9h0l1.6.7,1.5.4-4.4.8-6.1-1.1H16v.2l.3.2.4.4,2,1.4,1,.4h0l1.9.6,5.5.5,5.6-.5,1.9-.6,3.4,1.6v.5l-.2,1.3,2.8-.4,4.2-.9,3.5-1.5.9-.4,1.1-.5L54,89.6l.7-1L56.2,86l.4-2.1.2-1.8H38.1l1.1-2.8.7-1.6-3.3-.8-.2-.7-.3-.8-.5-.7L35,74l-.9-.7-.9-.5-1-.5-1-.3H29.1l-.9.2-.8.2-.7.4-.5.5-.3.6v1.8l.2.4.2.3.3.5.2.3.4.4.4.2.4.4.4.2.6.4h.4l.6.3h.4l.6.2v2.3l-1.6-.5-1.7-.8-1.5-.8-1.3-1.1L24,77.3l-.8-1.2-.5-1.2-.2-1.2.2-1.1v-.2l.4-.8v-.2l.7-.7h0l.8-.4.2-.2.5-.2.7-.2h1.1l-.4-.4-.4-.3-.5-.2h-.8Zm5.5,14.2.5.4.7.7.5.7.3.8V86h0l2,.5-2.3,2-1,1-1.3.6-2.6.5.4-1.1,1-2.5.5-1.1Z"/><polygon class="cls-5" points="22.5 65.6 21.9 65.6 21.3 65.7 20.6 65.9 19.9 66.2 19.2 66.6 18.5 67.1 17.9 67.7 17.4 68.3 16.9 68.9 16.6 69.5 16.5 70.1 16.4 70.7 16.5 71.1 16.7 71.5 18.7 74 18.7 73.9 18.8 73.7 18.9 73.3 19 73.2 19.2 72.7 19.3 72.6 19.6 72.2 19.8 71.8 20 71.6 20.4 71.1 20.6 71 21.2 70.4 21.2 70.4 21.9 69.9 22 69.8 22.6 69.5 22.8 69.3 23.3 69.1 23.7 68.9 23.9 68.9 24.5 68.7 24.5 68.7 24.9 68.6 25.2 68.6 25.3 68.6 25.4 68.6 23.3 66 23 65.8 22.5 65.6"/><polygon class="cls-5" points="29 87.1 28 89.6 27.6 90.7 30.2 90.2 31.5 89.6 32.5 88.5 34.8 86.6 32.8 86.1 32.8 86 32.7 85.4 32.4 84.6 31.9 83.9 31.2 83.2 30.7 82.8 29.5 86 29 87.1"/><polygon class="cls-11" points="37.8 96.9 37.8 96.8 37.8 96.6 37.8 96.6 37.8 96.4 38 95.1 38.1 94.6 34.7 93 30.8 121 34.4 121 36.5 106.2 36.7 104.9 36.7 104.6 36.8 103.7 37 102.7 37.1 101.8 37.2 101.2 37.2 100.9 37.2 100.8 37.8 96.9 37.8 96.9"/><polygon class="cls-5" points="36.7 104.6 36.7 104.9 36.5 106.2 34.4 121 34.4 125.8 34.6 126.1 34.9 126.5 35.1 127.1 35.2 127.7 35.3 128.3 35.2 128.9 35.1 129.5 34.9 130.1 34.6 130.5 34.3 130.9 33.9 131.2 33.7 131.3 33.4 131.9 32.8 132.5 32.2 132.9 32.2 133 33 133 34.2 132.9 35.3 132.6 36.4 132 37.4 131.2 38.3 130.2 39.1 129.1 39.6 128.3 39.6 128.2 40.1 127.2 42.4 122.9 42.6 122.9 48.1 122.9 48.9 122.9 49 122.9 49.8 123 49.9 123 50 123.1 51.1 123.3 51.9 123.6 52.2 123.7 52.4 123.8 51.6 119.9 49.9 115 47.5 110.6 44.6 107.1 41.3 104.4 37.7 102.8 37 102.7 36.8 103.7 36.7 104.6"/><path class="cls-5" d="M56.2,86l-1.5,2.6-.7,1-3.7,3.1-1.1.5-.9.4-3.5,1.5-4.2.9-2.8.4v.2h0v.2h0l2.8.2,2.8-.2,5.6-.3,2.9-.6,4.1-.9,3.3-1.5.8-.4,1-.5,3.6-3.1.7-1L67.1,86l.4-2.1.5-1.8H56.8l-.2,1.8Z"/><path class="cls-7" d="M68,82.1l-.5,1.8L67.1,86l-1.7,2.6-.7,1-3.6,3.1-1,.5-.8.4L56,95.1l-4.1.9,4.9-.9.7-.3,3.8-1.3,2.2-.8,5.2-3.1L71.9,86,73,82.1Z"/><polygon class="cls-3" points="43.4 96.9 43.9 100.8 44.9 100.8 48.8 101.4 49.6 101.5 53.4 103.3 54 103.7 56 105.3 57.5 94.8 56.8 95.1 51.9 96 49 96.6 43.4 96.9"/><polygon class="cls-4" points="56 105.3 54 103.7 53.4 103.3 49.6 101.5 48.8 101.4 44.9 100.8 43.9 100.8 37.2 100.8 37.2 100.9 37.2 101.2 37.1 101.8 37 102.7 37.7 102.8 41.3 104.4 44.6 107.1 47.5 110.6 49.9 115 51.6 119.9 52.4 123.8 53.2 124.1 53.4 124.2 53.7 124.3 54.1 124.4 54.9 124.8 54.9 124.8 55.4 125 55.6 125.1 55.9 125.3 56.7 125.6 57.2 125.8 57.9 126 58.8 126.2 59.1 126.2 60.3 126.3 61 126.3 61.7 126.2 61.9 126.2 62.4 126.1 62.8 126 62.9 125.9 63.4 125.8 64.6 125.3 64.9 125.1 65 125 65.3 124.8 65.6 124.3 65.6 124.2 65.6 123.8 64.8 119.9 63.1 115 62.8 114.5 60.4 110.1 59.2 108.6 57.4 106.4 56 105.3"/><polygon class="cls-7" points="14.9 30.3 15.8 30.6 19.8 4.6 19.8 4.6 19.5 4.6 19.3 4.5 19.1 4.4 18.9 4.3 18.8 4.3 18.5 4.4 18.3 4.4 18.1 4.4 17.8 4.3 17.7 4.2 17.7 4.3 13.7 30.3 14.9 30.3 14.9 30.3"/><polygon class="cls-12" points="15.8 30.7 16.6 31.3 17.2 32.1 17.7 33.1 18 34.2 18.1 35.5 18 36.8 17.7 38.1 19.3 38.6 19.6 37.3 19.6 37.3 19.7 36 19.6 35 19.6 34.8 19.3 33.6 18.8 32.6 18.6 32.4 18.4 32.1 18.2 31.8 17.9 31.6 17.4 31.2 16.5 30.8 15.8 30.6 14.9 30.3 15.8 30.7"/><polygon class="cls-7" points="103.3 96.8 103.8 96.2 104 95.5 104.2 94.7 104.1 93.8 103.9 92.8 103.6 91.8 103 90.8 102.4 89.9 101.7 89.1 100.9 88.4 100.1 87.9 99.2 87.6 98.4 87.4 97.7 87.4 97 87.6 96.4 88 96.1 88.5 96 88.6 95.8 89.2 95.7 89.3 95.6 90 95.6 90.2 95.6 90.9 95.6 91.1 95.8 91.9 95.8 92.1 96.1 92.9 96.2 93.1 96.6 93.8 96.7 94 94.7 95 93.9 93.5 93.3 91.9 93 90.3 92.9 88.8 93.1 87.4 93.6 86.3 94.3 85.3 95.2 84.7 95.3 84.6 96.3 84.3 96 82.3 95.7 82.3 95 82.3 94.9 82.3 94.1 82.4 94 82.4 93.2 82.6 93.1 82.6 92.5 82.8 92.1 82.9 91.8 83 91.3 83.2 91.1 83.3 90.7 83.6 90.6 83.6 90.3 83.8 90.1 84 90 84.1 90 84.1 89.6 84.6 89.4 85.1 89.4 85.6 89.7 88.4 87.1 90.1 86.1 90.8 85.4 91.7 85 92.9 84.8 94.3 84.9 95.8 85.2 97.3 85.8 98.9 86.6 100.5 88.6 99.5 94.4 95.6 94.9 96.3 95.4 97.3 95.8 98.2 96 99.2 96 100.2 95.9 101 95.6 101.7 95.2 102.3 94.6 102.7 96.4 105.7 104.5 100.2 102.8 97.2 103.3 96.8"/><polygon class="cls-5" points="15.8 123.3 16.2 123.1 16.4 123 16.5 123 17 122.9 17.1 122.9 18.6 122.9 18.7 122.9 19.2 122.9 19.8 122.9 23.7 122.9 23.7 123 23.7 121 22.4 111.5 22.2 110.3 22.1 109.3 22 108.8 20.5 110.6 18.1 115 16.3 119.9 15.5 123.8 15.7 123.4 15.8 123.3"/><path class="cls-7" d="M18.4,32.1l.2.3.2.2.5,1,.3,1.2v2.5h6.8l3.3.2h1.1l2.6.2h3.5l3.7.2,3.6.2,1.9.2,1.7.2,2.3.2h1.3l3.5.2h.5l2.8.2h3.1l.6-1.3.4-.7v-.5L63,35l.2-2.2-.8.9-1.5.7-.2-.9-.2-1V29.2h0V25.4l.3-.5.3-.3h0v-.2l.3.2.3.3.3.5h.1l-.7-1.8-1.4-2.3-.8-.9H21.8l-.8.9-1.4,2.3-1,2.7L18,29.2v2.4l.3.2Zm32-5.1.7,1,.5,1.1h0v2.9l-.2.4-.6,1-.8.9-3.5-.7-5.8-1-2-.2v-.4l-.4-.7-.2-1.1V29.2h0l.2-1.1.7-1,.7-.6.2-.2.8-.6.2-.2,1.1-.5,1.3-.3,1.3-.2,1.5.2h.1l1.1.3,1.2.5,1.1.8.2.2Z"/><path class="cls-3" d="M77.1,77.4H39.8v.3l-.7,1.6-1.1,2.8H73l-.8-2.9,5.3-1.8h-.4Z"/><polygon class="cls-5" points="19.3 38.6 17.7 38.1 17.2 39.3 16.6 40.5 15.8 41.5 14.9 42.3 13.9 42.9 12.9 43.3 11.9 43.4 11 43.3 11 43.3 12.6 43.8 13 43.9 13.4 43.9 13.5 44 14.5 43.8 15.5 43.4 16.4 42.9 16.5 42.8 17 42.4 17.4 42 18.2 41 18.4 40.5 18.8 39.9 19.3 38.6"/><polygon class="cls-4" points="17.8 4.3 18.1 4.4 18.3 4.4 18.5 4.4 18.8 4.3 18.9 4.3 19.1 4.4 19.3 4.5 19.5 4.6 19.8 4.6 19.8 4.6 19.8 4.6 20 4.5 20.5 4.3 20.9 3.8 21.3 3.3 21.4 2.7 21.4 2.1 21.3 1.5 21 1 20.9 0.9 20.5 0.5 20 0.2 19.9 0.1 19.7 0.1 19.5 0 19.2 0 19 0 18.9 0 18.4 0.1 17.9 0.4 17.7 0.5 17.3 0.9 16.9 1.4 16.8 2 16.8 2.6 16.9 3.2 17.2 3.7 17.3 3.8 17.7 4.3 17.7 4.3 17.7 4.2 17.8 4.3"/><polygon class="cls-12" points="67.4 31.2 68.3 31.8 69.1 32.6 69.8 33.6 70.4 34.8 70.9 36 71.2 37.3 69.1 37.3 66.7 37.3 64 37.3 62.4 37.3 62.3 37.8 61.9 38.5 61.3 39.8 61.4 39.8 64.3 39.9 65.4 39.9 67.1 40 69.5 39.9 71.6 39.8 71.7 39.8 72.5 39.8 73.6 39.7 75.1 39.4 76.3 39.2 76.6 39.2 77.1 39 77.6 38.6 77.7 38.4 77.5 38.2 77.1 38.1 76.9 38 76 37.7 74.7 37.5 73.1 37.4 73.1 37.4 73 36.8 72.7 35.5 72.2 34.2 71.6 33.1 70.9 32.1 70 31.3 69.1 30.7 68.2 30.3 66.4 30.8 67.4 31.2"/><polygon class="cls-7" points="68.2 30.3 67.4 30.3 63 4.3 62.8 4.4 62.5 4.5 62.3 4.6 62 4.6 62 4.6 61.7 4.7 61.6 4.7 61.4 4.7 61 4.6 65.4 30.6 64.7 30.8 66.4 30.8 68.2 30.3"/><polygon class="cls-4" points="61.6 4.7 61.7 4.7 62 4.6 62 4.6 62.3 4.6 62.5 4.5 62.8 4.4 63 4.3 63.1 4.3 63.2 4.2 63.6 3.7 63.9 3.2 64 2.6 64 2 63.8 1.4 63.5 0.9 63 0.5 62.9 0.4 62.4 0.1 61.9 0 61.9 0 61.7 0 61.6 0 61.3 0 61.3 0.1 61.1 0.1 60.9 0.1 60.8 0.2 60.3 0.5 60.2 0.6 59.8 1 59.5 1.5 59.3 2.1 59.4 2.7 59.5 3.3 59.9 3.8 60.3 4.3 60.4 4.3 60.9 4.6 61 4.6 61.4 4.7 61.6 4.7"/><polygon class="cls-11" points="30.9 133.3 31.5 133.2 32.2 133 32.2 132.9 32.8 132.5 33.4 131.9 33.7 131.3 33.9 131.2 34.3 130.9 34.6 130.5 34.9 130.1 35.1 129.5 35.2 128.9 35.3 128.3 34.4 128.3 30.8 128.3 30.7 129.3 30.5 130.2 30.2 131.1 29.8 131.9 29.2 132.5 28.6 132.9 27.9 133.2 27.2 133.3 28.3 133.3 30.9 133.3"/><polygon class="cls-3" points="30.9 133.3 28.3 133.3 29 134.5 29.9 135.6 31 136.4 32.2 136.9 33.4 137.1 34.6 136.9 35.8 136.4 36.9 135.6 37.8 134.5 38.6 133.2 39.2 131.7 39.5 130 39.6 128.3 39.6 128.3 39.1 129.1 38.3 130.2 37.4 131.2 36.4 132 35.3 132.6 34.2 132.9 33 133 32.2 133 31.5 133.2 30.9 133.3"/><polygon class="cls-13" points="35.2 127.7 35.1 127.1 34.9 126.5 34.6 126.1 34.4 125.8 34.4 126.1 34.4 126.5 34.4 127.1 34.4 127.7 34.4 128.3 35.3 128.3 35.2 127.7"/><polygon class="cls-11" points="28.1 128.9 27.9 129.5 27.7 130.1 27.4 130.5 27.1 130.9 26.7 131.2 26.3 131.4 25.9 131.5 27.2 131.5 27.7 131.4 28.1 131.2 28.5 130.9 28.8 130.5 29.1 130.1 29.3 129.5 29.4 128.9 29.5 128.3 28.1 128.3 28.1 128.9"/><polygon class="cls-13" points="29.3 127.1 29.1 126.5 28.8 126.1 28.5 125.7 28.1 125.4 27.7 125.2 27.2 125.1 25.9 125.1 26.3 125.2 26.7 125.4 27.1 125.7 27.4 126.1 27.7 126.5 27.9 127.1 28.1 127.7 28.1 128.3 29.5 128.3 29.4 127.7 29.3 127.1"/><polygon class="cls-11" points="39.5 130 39.2 131.7 38.6 133.2 37.8 134.5 36.9 135.6 35.8 136.4 34.6 136.9 33.4 137.1 34 137.1 35.2 136.9 36.4 136.4 37.4 135.6 38.4 134.5 39.2 133.2 39.7 131.7 40.1 130 40.2 128.3 40.1 127.2 39.6 128.2 39.6 128.3 39.6 128.3 39.5 130"/><polygon class="cls-14" points="62.4 126.1 61.9 126.2 61.7 126.2 61.9 128.3 61.6 133.1 60.6 137.8 58.9 142.1 56.8 145.8 54.1 148.9 51.1 151.2 47.8 152.6 48.5 152.5 51.8 151.1 52.3 150.7 55.3 148.5 57.9 145.5 60 141.8 60.2 141.4 61.8 137.3 62.7 132.9 63.1 128.3 62.9 125.9 62.8 126 62.4 126.1"/><polygon class="cls-14" points="43.5 151.2 46.5 148.9 49.2 145.8 51.4 142.1 53 137.8 54 133.1 54.3 128.3 54.1 124.4 53.7 124.3 53.4 124.2 53.2 124.1 52.4 123.8 52.2 123.7 51.9 123.6 51.1 123.3 50 123.1 49.9 123 49.8 123 49 122.9 48.9 122.9 48.1 122.9 42.6 122.9 42.7 123.2 43.3 125.7 43.4 128.3 43.3 130.9 42.7 133.4 41.8 135.7 40.7 137.7 39.2 139.4 37.6 140.6 35.8 141.4 34 141.7 32.1 141.4 30.4 140.6 28.7 139.4 27.3 137.7 26.1 135.7 25.2 133.4 25 132.1 24.7 131.9 24.3 131.1 24 130.2 23.7 129.3 23.7 129.2 23.7 128.9 23.6 128.3 23.7 127.7 23.7 123 23.7 122.9 19.8 122.9 19.2 122.9 18.7 122.9 18.6 122.9 18.4 123.7 18.3 125 18.3 125.9 18.1 128.3 18.4 132.9 19.4 137.3 20.9 141.4 23 145 23.3 145.5 25.9 148.5 28.8 150.7 29.4 151.1 32.7 152.5 33.4 152.6 36.8 153.1 40.2 152.6 43.5 151.2"/><polygon class="cls-8" points="44.3 151.2 47.3 148.9 50 145.8 52.2 142.1 53.8 137.8 54.8 133.1 55.1 128.3 54.9 124.8 54.1 124.4 54.3 128.3 54 133.1 53 137.8 51.4 142.1 49.2 145.8 46.5 148.9 43.5 151.2 40.2 152.6 36.8 153.1 37.6 153.1 41 152.6 44.3 151.2"/><polygon class="cls-8" points="54.1 148.9 56.8 145.8 58.9 142.1 60.6 137.8 61.6 133.1 61.9 128.3 61.7 126.2 61 126.3 61.1 128.3 60.8 133.1 59.8 137.8 58.2 142.1 56 145.8 53.4 148.9 50.3 151.2 47 152.6 43.6 153.1 44.4 153.1 47.8 152.6 51.1 151.2 54.1 148.9"/><polygon class="cls-14" points="46.1 151.2 49.1 148.9 51.8 145.8 54 142.1 55.6 137.8 56.6 133.1 56.9 128.3 56.7 125.6 55.9 125.3 55.6 125.1 55.4 125 54.9 124.8 54.9 124.8 55.1 128.3 54.8 133.1 53.8 137.8 52.2 142.1 50 145.8 47.3 148.9 44.3 151.2 41 152.6 37.6 153.1 39.4 153.1 42.8 152.6 46.1 151.2"/><polygon class="cls-8" points="48.4 151.2 51.5 148.9 54.1 145.8 56.3 142.1 57.9 137.8 58.9 133.1 59.3 128.3 59.1 126.2 58.8 126.2 57.9 126 57.2 125.8 56.7 125.6 56.9 128.3 56.6 133.1 55.6 137.8 54 142.1 51.8 145.8 49.1 148.9 46.1 151.2 42.8 152.6 39.4 153.1 40.6 153.1 41.7 153.1 45.1 152.6 48.4 151.2"/><polygon class="cls-14" points="50.3 151.2 53.4 148.9 56 145.8 58.2 142.1 59.8 137.8 60.8 133.1 61.1 128.3 61 126.3 60.3 126.3 59.1 126.2 59.3 128.3 58.9 133.1 57.9 137.8 56.3 142.1 54.1 145.8 51.5 148.9 48.4 151.2 45.1 152.6 41.7 153.1 43.6 153.1 47 152.6 50.3 151.2"/><polygon class="cls-3" points="19.4 62 18.8 61.9 18.1 62 17.4 62.1 16.7 62.4 16 62.8 15.3 63.3 14.6 63.8 14.1 64.4 13.7 65.1 13.3 65.7 13.2 66.3 13.1 66.8 13.2 67.3 13.5 67.7 14.5 68.9 15.7 70.2 15.9 70.5 16.1 70.8 16.7 71.5 16.5 71.1 16.4 70.7 16.5 70.1 16.6 69.5 16.9 68.9 17.4 68.3 17.9 67.7 18.5 67.1 19.2 66.6 19.9 66.2 20.6 65.9 21.3 65.7 21.9 65.6 22.5 65.6 23 65.8 23.3 66 22.7 65.3 21.6 64 20.9 63.2 20.3 62.4 19.9 62.1 19.4 62"/><polygon class="cls-5" points="16.7 59.1 16.1 59.1 15.4 59.1 14.7 59.2 14.4 59.3 13.9 59.5 13.2 59.9 12.5 60.4 11.8 60.9 11.3 61.5 10.8 62.1 10.5 62.8 10.3 63.4 10.3 63.9 10.4 64.4 10.7 64.8 11.4 65.6 12.4 66.6 12.9 67.1 13.5 67.7 13.2 67.3 13.1 66.8 13.2 66.3 13.3 65.7 13.7 65.1 14.1 64.4 14.6 63.8 15.3 63.3 16 62.8 16.7 62.4 17.4 62.1 18.1 62 18.8 61.9 19.4 62 19.9 62.1 20.3 62.4 19.7 61.8 19.2 61.3 18.1 60.2 17.6 59.7 17.2 59.4 16.7 59.1"/><polygon class="cls-5" points="10.2 53.2 10.2 53.3 10.2 53.2 10.2 53.2 10.2 53.2"/><polygon class="cls-3" points="4 58.9 3.8 58.3 3.7 57.7 3.9 57 4.2 56.4 4.2 56.4 4.2 56.3 4.2 56.2 4.6 55.7 5.2 55.1 5.9 54.6 6.7 54.2 7.5 53.9 8.3 53.7 9.2 53.6 9.9 53.6 10.7 53.8 11.3 54.1 11.4 54.2 11.5 54.3 12.1 54.8 12.5 55.1 12.7 55.2 13 55.5 13.1 55.6 13.2 55.7 13.3 55.5 13.6 54.8 13.8 53.9 13.9 53.1 13.8 52.3 13.7 51.5 13.4 50.8 13 50.2 12.5 49.7 12 49.4 11.4 49.2 10.7 49.2 10.5 49.2 10 49.2 10.1 49.2 8.6 49.2 8.4 49.2 8.3 49.2 7.9 49.3 7.6 49.3 7.5 49.3 7 49.3 5.9 49.4 5.7 49.4 6.4 49.4 7.1 49.6 7.8 49.9 8.4 50.4 9 50.9 9.5 51.6 9.9 52.4 10.1 52.9 10.2 53.2 10.2 53.3 10.2 53.2 10.2 53.2 9.7 52.8 9.6 52.7 9.4 52.6 8.7 52 9.3 52.5 9 52.2 8.4 51.7 7.7 51.4 6.9 51.1 6.1 51 5.2 51 4.3 51.2 3.8 51.4 3.5 51.5 2.8 51.9 2.1 52.5 1.6 53.1 1.3 53.8 1.1 54.4 1.1 54.5 1.1 55.2 1.1 55.3 1.4 56.1 1.7 56.9 2.1 57.3 2.6 58 3.2 58.5 3.3 58.6 4 59.2 4.3 59.4 4 58.9"/><polygon class="cls-5" points="1.1 54.5 1.1 54.5 1.1 54.4 1.3 53.8 1.6 53.1 2.1 52.5 2.8 51.9 3.5 51.5 3.8 51.4 4.3 51.2 5.2 51 6.1 51 6.9 51.1 7.7 51.4 8.4 51.7 9 52.2 9.3 52.5 9.3 52.5 9.4 52.6 9.6 52.7 9.7 52.8 10.2 53.2 10.2 53.2 10.1 52.9 9.9 52.4 9.5 51.6 9 50.9 8.4 50.4 7.8 49.9 7.1 49.6 6.4 49.4 5.7 49.4 5.7 49.4 5.6 49.4 5.1 49.5 4.4 49.7 3.9 50 3.1 50.3 2.5 50.7 2.5 50.8 1.9 51.4 1.5 52.1 1.5 52.2 1.3 52.5 1.1 53.3 0.9 54.1 1 54.9 1.2 55.7 1.2 55.7 1.3 56 1.1 55.2 1.1 54.5"/><polygon class="cls-4" points="10.8 49.2 10.7 49.2 11.4 49.2 12 49.4 12.5 49.7 13 50.2 13.4 50.8 13.7 51.5 13.8 52.3 13.9 53.1 13.8 53.9 13.6 54.8 13.3 55.5 13.2 55.7 13.7 56.1 14.1 55.3 14.4 54.3 14.5 53.3 14.5 52.3 14.3 51.3 14 50.4 13.6 49.6 13.1 48.9 12.5 48.4 11.8 48.1 11.1 48 10.3 48.1 9.6 48.4 9 48.9 8.6 49.2 10.1 49.2 10.8 49.2"/><polygon class="cls-3" points="16.2 58.3 16 58.1 15.9 58 15.5 57.7 15.5 57.6 15 57.3 14.5 57.1 13.8 56.9 13.1 56.9 12.4 57.1 11.6 57.3 10.8 57.7 10.1 58.1 9.4 58.7 8.8 59.3 8.4 59.9 8 60.5 7.9 61.1 7.9 61.2 7.9 61.7 8 62.2 8.3 62.7 8.5 62.9 9.4 63.7 9.9 64.2 10.7 64.8 10.4 64.4 10.3 63.9 10.3 63.4 10.5 62.8 10.8 62.1 11.3 61.5 11.8 60.9 12.5 60.4 13.2 59.9 13.9 59.5 14.4 59.3 14.7 59.2 15.4 59.1 16.1 59.1 16.7 59.1 17.2 59.4 17.6 59.7 17.6 59.6 16.6 58.7 16.5 58.6 16.2 58.3"/><polygon class="cls-4" points="10.2 53.2 10.1 52.9 10.2 53.2 10.2 53.2"/><polygon class="cls-9" points="46.2 25.9 46.1 25.9 45 25.8 43.9 25.9 43 26.1 42.5 26.4 42.1 26.6 41.4 27.1 40.8 27.8 40.6 28.3 40.4 28.6 40.2 29.2 40.2 29.4 40.1 30.3 40.3 31.1 40.4 31.3 40.6 31.4 45.5 32.1 46.5 32.3 49.5 32.9 49.6 32.7 50 32.1 50.1 32 50.3 31.1 50.4 30.3 50.2 29.4 50.2 29.2 49.9 28.6 49.3 27.8 48.7 27.1 47.9 26.6 47.6 26.4 47.1 26.1 46.2 25.9"/><path class="cls-10" d="M48.4,25.4l-1.2-.5-1.1-.3H46l-1.5-.2-1.3.2-1.3.3-1.1.5-.2.2-.8.6-.2.2-.7.6-.7,1L38,29.1h0v1.1l.2,1.1.4.7v.4l2,.2,5.8,1,3.5.7.8-.9.6-1,.2-.4V29.2h0L51.1,28l-.7-1-.7-.6-.2-.2Zm-.5,1.2.8.5.6.7.6.8.3.6v.2l.2.9v.8l-.2.9H50l-.4.6v.2l-3-.6-1-.2-4.9-.7h-.2v-.2l-.2-.8V29.2l.2-.6.2-.3.2-.5.6-.7.7-.5.4-.2.5-.3.9-.2h2.3l.9.2.5.3Z"/><polygon class="cls-5" points="17.7 53.4 17.3 53.4 16.8 53.4 16.3 53.3 15.8 53.3 15.4 53.3 14.9 53.3 14.5 53.3 14.4 54.3 14.1 55.3 13.7 56.1 13.8 56.2 14 56.4 14.4 56.7 14 56.4 12.7 55.2 12.5 55.1 12.1 54.8 11.5 54.3 11.4 54.2 11.3 54.1 10.7 53.8 9.9 53.6 9.2 53.6 8.3 53.7 7.5 53.9 6.7 54.2 5.9 54.6 5.2 55.1 4.6 55.7 4.2 56.2 4.2 56.3 4.2 56.4 4.2 56.4 3.9 57 3.7 57.7 3.8 58.3 4 58.9 4.3 59.4 4.8 59.8 4.9 59.9 5.5 60.4 6.5 61.2 6 60.8 7.2 61.8 7.2 61.8 7.3 61.9 8.3 62.7 8 62.2 7.9 61.7 7.9 61.2 7.9 61.1 7.9 61.1 8 60.5 8.4 59.9 8.8 59.3 9.4 58.7 10.1 58.1 10.8 57.7 11.6 57.3 12.4 57.1 13.1 56.9 13.8 56.9 14.5 57.1 15 57.3 15.5 57.6 15.5 57.7 15.9 58 16 58.1 16.2 58.3 16.5 58.6 16.6 58.7 17.2 57.9 17.9 56.6 18.3 55.1 18.3 55 18.5 53.5 18.1 53.5 17.7 53.4"/><polygon class="cls-5" points="79.3 74.5 78.9 74.2 78.5 73.7 78.1 73.1 77.9 72.5 77.7 71.8 77.7 71 75.6 71 75.4 71.8 75.3 72.5 75.3 73.1 75.4 73.7 75.5 74.2 75.6 74.3 75.7 74.5 75.9 74.7 76 74.7 76.2 74.8 76.6 74.8 77.3 74.8 77.6 74.8 77.8 74.8 78 74.8 78.1 74.8 78.3 74.8 78.4 74.8 80.3 74.8 79.8 74.7 79.3 74.5"/><polygon class="cls-12" points="77.1 67.5 76.8 67.9 76.5 68.4 76.2 68.9 75.9 69.6 75.8 70.3 75.7 70.5 75.6 71 77.7 71 77.7 70.3 77.9 69.6 78.1 68.9 78.5 68.4 78.9 67.9 79.3 67.5 79.8 67.3 78 67.3 77.4 67.3 77.3 67.4 77.1 67.5"/><polygon class="cls-3" points="3.3 41.3 3.5 41.2 4.5 41 5.8 40.8 7.4 40.6 8.2 40.6 8.2 40.5 7.9 39.3 7.8 38.5 7.8 38.1 7.8 37.4 6.5 37.5 5.2 37.7 4.3 38 4.1 38.1 3.7 38.2 3.5 38.4 2.7 41.7 2.9 41.4 3.3 41.3"/><polygon class="cls-3" points="77.1 39 76.6 39.2 76.3 39.2 75.1 39.4 73.6 39.7 72.5 39.8 71.7 39.8 71.6 39.8 69.5 39.9 67.1 40 65.4 39.9 64.3 39.9 61.4 39.8 61.3 39.8 60.6 39.8 60.1 39.8 58.6 39.7 58.2 39.7 55.4 39.5 54.9 39.4 51.4 39.2 51.1 39.2 50.1 39.2 47.8 39 46.1 38.8 44.2 38.6 40.6 38.4 36.9 38.2 35 38.1 34.4 38.1 33.4 38 30.8 37.8 29.8 37.7 29.7 37.7 26.4 37.5 25.2 37.5 23.2 37.4 21.7 37.4 20.1 37.3 19.6 37.3 19.6 37.3 19.3 38.6 18.8 39.9 18.4 40.5 19.7 40.5 22.8 40.6 26.2 40.8 29.6 41 33.2 41.2 34.3 41.3 36.9 41.4 40.6 41.7 44.3 41.9 48 42.2 50.3 42.5 51.6 42.5 55.2 42.7 58.6 42.9 59.9 43.1 60.5 43.1 61.8 43.1 64.8 43.1 67.6 43.1 70.1 43.1 72.3 43.1 73.1 43.1 73.5 43.1 74.2 42.9 75.8 42.7 77 42.5 77.3 42.5 77.8 42.2 78.3 41.9 78.4 41.7 77.7 38.4 77.6 38.6 77.1 39"/><polygon class="cls-12" points="13 45.6 12.6 45.6 11.5 45.7 10.5 46.2 10.5 46.2 10.2 46.3 9.2 47 8.3 48 8.2 48.2 7.7 48.9 7.5 49.3 7.6 49.3 7.9 49.3 8.3 49.2 8.4 49.2 8.6 49.2 9 48.9 9.6 48.4 10.3 48.1 11.1 48 11.5 48.1 12.2 48.2 11.8 48.1 12.5 48.4 13.1 48.9 13.6 49.6 14 50.4 14.3 51.3 14.5 52.3 14.5 53.3 14.9 53.3 15.4 53.3 15.8 53.3 16.3 53.3 16.8 53.4 17.3 53.4 17.7 53.4 18.1 53.5 18.5 53.5 18.5 52 18.4 51.9 18.2 50.5 17.8 49.4 17.7 49.1 17.1 47.9 16.3 46.9 15.8 46.6 15.3 46.2 14.3 45.7 14.1 45.7 13 45.6"/><polygon class="cls-12" points="26.3 18.4 28.9 18.4 32.3 18.4 36.3 18.4 40.6 18.4 44.8 18.4 48.8 18.4 52.2 18.4 54.9 18.4 56.5 18.4 57.1 18.4 56.4 17.9 54.2 16.9 51.2 16.3 47.2 16.1 45.4 16.1 42.3 16.1 40.6 16.1 38.8 16.1 35.7 16.1 34 16.1 29.9 16.3 26.9 16.9 24.7 17.9 24.1 18.4 24.6 18.4 26.3 18.4"/><polygon class="cls-4" points="24.3 20.5 27.3 20.5 31.2 20.5 35.7 20.5 40.6 20.5 45.4 20.5 50 20.5 53.9 20.5 56.8 20.5 58.7 20.5 59.4 20.5 58.4 19.4 57.1 18.4 56.5 18.4 54.9 18.4 52.2 18.4 48.8 18.4 44.8 18.4 40.6 18.4 36.3 18.4 32.3 18.4 28.9 18.4 26.3 18.4 24.6 18.4 24.1 18.4 22.7 19.4 21.8 20.5 22.4 20.5 24.3 20.5"/><polygon class="cls-5" points="49.9 71.8 49.9 72.5 50.2 73.1 50.3 73.3 50.5 73.7 51 74.2 51.5 74.5 51.6 74.5 52.3 74.7 53.1 74.8 53.6 74.8 55 74.8 56.4 74.8 57.3 74.8 56.7 74.7 56.2 74.5 55.8 74.2 55.4 73.7 55 73.1 54.8 72.5 54.6 71.8 54.6 71 50 71 49.9 71.8"/><polygon class="cls-12" points="54.6 67.3 53.9 67.3 53.1 67.5 52.4 67.9 52.1 68.1 51.7 68.4 51.1 68.9 50.6 69.6 50.3 70.3 50.2 70.5 50 71 54.6 71 54.6 70.3 54.8 69.6 55 68.9 55.4 68.4 55.8 67.9 56.2 67.5 56.7 67.3 57.3 67.3 55.8 67.3 54.6 67.3"/><path class="cls-4" d="M20.1,77.4h.3l-.2-.3-.2-.2-1-1.2-.2-.4-.2-.6v-.6h0l-2-2.5-.6-.7-.2-.3-.2-.3-1.2-1.3-1-1.2-.6-.6-.5-.5-1-1-.7-.8-.8-.6-.5-.5-.9-.8-.2-.2-1-.8H7.2l-.3-.3-.4-.3-1-.8-.6-.5H4.8l-.3-.2L4,59.2l-.7-.6H3.2L2.6,58l-.4-.5v-.2l-.4-.4-.3-.8H1.3v-.3h0L1,54.9v-.8l.2-.8.2-.8.2-.3h0l.4-.7.6-.6h0l.6-.4.5-.2.3-.2.5-.2.7-.2H7.5l.2-.4.5-.7V48l.9-1,1-.7h.3l1-.5h1.7l.2-1.7h-.8L11,43.3h1.9l1-.4,1-.6.9-.8.8-1,.6-1.2.5-1.2.3-1.3V34.2l-.3-1.1-.5-1-.6-.8-.8-.6-.9-.4H13l-1.1.4-.9.6-.9.8-.8,1-.6,1.1-.5,1.3-.3,1.3v2.5l.3,1.2H7.4l-1.6.2L4.5,41l-1,.2H2.9l-.2.3L.9,49.4,0,61.8l1.4,8.7,2.3,6.9ZM9.7,36.8v-.9l.4-.8.4-.7.5-.7.6-.5.6-.4.6-.2h1.3l.6.2.5.4.4.5.3.7.2.7v1.7l-.2.8-.3.8-.4.8-.5.6-.6.6-.6.4-.7.2H11.6l-.5-.2-.5-.4-.5-.6-.3-.6V36.8Z"/><path class="cls-7" d="M59.8,77.4l.2-2.2V71.8l-.2.7h0l-.2.5-.4.6-.4.5-.3.2h-.1l-.5.2H52.3l-.7-.2h-.1l-.5-.3-.5-.5-.2-.4v-.2l-.3-.6V71l.2-.5v-.2l.3-.7.5-.7.6-.5.4-.3.3-.2.7-.4.8-.2h3.9l.5.2.4.4.3.3-1-1.8L56.6,65l-.7-.2-.9-.2-1.9.4-.9.7-1,.7-2,2.2-1,1.5-.3.4L47,71.6l-1.2,1.8-1.3,1.8-.3.5-1,1.7Z"/><path class="cls-7" d="M76.8,77.4h.4l.5-1.7.2-.5v-.4H75.9l-.2-.2v-.2h-.1V71.8l.2-.8V69.6l.3-.7.3-.5.3-.5.3-.4H79v-.9l-.2-.7-.2-.7-.6-.4-.4.2-.3.2-.9,1.4-1,2.2h0l-.7,1.9-.5,1.1-.8,2-.7,1.6-.8,2.2Z"/><polygon class="cls-5" points="86.5 68.8 86.6 68.5 86.8 68.1 87.2 67.7 87.7 67.4 88.3 67 89 66.7 89.8 66.4 90.6 66.2 91.4 66 92.2 65.9 92.9 65.8 93.6 65.9 94.1 66 94.5 66.2 94.8 66.4 94.3 65.4 93.3 63.3 92.1 61.4 91.5 60.5 91.3 60.3 91 60.2 90.6 60.2 90 60.3 89.3 60.4 88.6 60.6 87.8 60.9 87 61.2 86.3 61.6 85.5 61.9 84.9 62.3 84.3 62.7 83.9 63.1 83.7 63.3 83.6 63.4 83.4 63.7 83.4 64 83.5 64.1 83.9 64.5 84.9 65.9 85.8 67.5 86.6 69.1 86.6 69 86.5 68.7 86.5 68.8"/><polygon class="cls-3" points="88 71.2 88.3 70.8 88.8 70.4 89.4 70 90.1 69.7 90.6 69.6 90.9 69.5 91.7 69.3 92.5 69.1 93.3 69.1 94.1 69.1 94.7 69.2 95.3 69.3 95.4 69.3 95.4 69.3 95.5 69.4 95.7 69.5 96 69.8 95.2 67.6 94.8 66.4 94.5 66.2 94.1 66 93.6 65.9 92.9 65.8 92.2 65.9 91.4 66 90.6 66.2 89.8 66.4 89 66.7 88.3 67 87.7 67.4 87.2 67.7 86.8 68.1 86.6 68.5 86.5 68.8 86.6 69 86.7 69.2 87.4 70.9 87.7 71.9 87.8 71.5 88 71.2"/><polygon class="cls-3" points="83.6 63.4 83.7 63.3 83.9 63.1 84.3 62.7 84.9 62.3 85.5 61.9 86.3 61.6 87 61.2 87.8 60.9 88.6 60.6 89.3 60.4 90 60.3 90.6 60.2 91 60.2 91.3 60.3 91.5 60.5 90.9 59.6 90.6 59.2 89.5 58 89.2 57.6 87.8 56.1 86.4 54.9 86.3 55 86 55.1 85.6 55.3 85.1 55.6 84.5 55.9 83.9 56.4 83.1 56.8 82.4 57.3 81.7 57.7 81.6 57.7 81.6 57.8 81 58.2 80.9 58.3 80.9 59 81 59.1 81 60 81.1 60.8 81.1 61.3 81.1 61.6 81.1 61.7 82 62.5 83.1 63.6 83.1 63.6 83.4 64 83.4 63.7 83.6 63.4"/><polygon class="cls-3" points="89.8 79.8 90.1 79.4 90.6 79 91.2 78.7 91.9 78.4 92.7 78.2 93.5 78 94.3 78 95.1 78 95.9 78.1 96.6 78.2 97.2 78.4 97.6 78.7 97.9 79.1 98.1 79.5 97.9 78.4 97.5 75.6 97.2 74.3 97.1 74 96.8 73.7 96.3 73.4 95.8 73.2 95.1 73.1 94.3 73.1 93.5 73.1 92.7 73.2 91.9 73.4 91.1 73.6 90.4 73.9 89.8 74.3 89.3 74.6 89 75 88.8 75.4 88.8 75.8 89.1 77.1 89.5 79.7 89.6 80.6 89.6 80.2 89.8 79.8"/><polygon class="cls-5" points="89 75 89.3 74.6 89.8 74.3 90.4 73.9 91.1 73.6 91.9 73.4 92.7 73.2 93.5 73.1 94.3 73.1 95.1 73.1 95.8 73.2 96.3 73.4 96.8 73.7 97.1 74 97.2 74.3 96.9 72.9 96.2 70.4 96.1 70 96 69.8 95.7 69.5 95.5 69.4 95.4 69.3 95.3 69.3 94.7 69.2 94.1 69.1 93.3 69.1 92.5 69.1 91.7 69.3 90.9 69.5 90.6 69.6 90.1 69.7 89.4 70 88.8 70.4 88.3 70.8 88 71.2 87.8 71.5 87.7 71.9 88 72.6 88.6 74.8 88.8 75.8 88.8 75.4 89 75"/><polygon class="cls-9" points="80 68.5 79.6 68.6 79.3 68.9 79 69.2 78.8 69.6 78.6 70 78.5 70.5 78.5 71 78.5 71.5 78.6 72 78.8 72.5 79 72.9 79.3 73.2 79.6 73.4 80 73.6 80.3 73.6 80.7 73.6 81 73.4 81.4 73.2 81.6 72.9 81.9 72.5 82 72 82.1 71.5 82.2 71 82.1 70.5 82 70 81.9 69.6 81.6 69.2 81.4 68.9 81 68.6 80.7 68.5 80.3 68.4 80 68.5"/><polygon class="cls-9" points="59 70 58.8 69.6 58.6 69.2 58.3 68.9 58 68.6 57.6 68.5 57.3 68.4 56.9 68.5 56.6 68.6 56.2 68.9 56 69.2 55.7 69.6 55.6 70 55.5 70.5 55.4 71 55.5 71.5 55.6 72 55.7 72.5 56 72.9 56.2 73.2 56.6 73.4 56.9 73.6 57.3 73.6 57.6 73.6 58 73.4 58.3 73.2 58.6 72.9 58.8 72.5 59 72 59.1 71.5 59.1 71 59.1 70.5 59 70"/><polygon class="cls-9" points="9.8 39.2 10.1 39.8 10.6 40.4 11.1 40.8 11.6 41 12.3 41.1 12.9 41 13.6 40.8 14.2 40.4 14.8 39.8 15.3 39.2 15.7 38.4 16 37.6 16.2 36.8 16.3 35.9 16.2 35.1 16 34.4 15.7 33.7 15.3 33.2 14.8 32.8 14.2 32.6 13.6 32.5 12.9 32.6 12.3 32.8 11.7 33.2 11.1 33.7 10.6 34.4 10.2 35.1 9.8 35.9 9.7 36.8 9.6 37.6 9.7 38.4 9.8 39.2"/><polygon class="cls-15" points="4.1 38.1 4.3 38 5.2 37.7 6.5 37.5 7.8 37.4 7.9 36.8 8 36.1 8.2 35.5 8.7 34.2 9.3 33.1 9.6 32.7 10.1 32.1 11 31.3 11.9 30.7 12.2 30.6 13 30.3 13.7 30.3 14.6 24.6 14.7 23.9 15.2 20.4 15.6 17.9 15.9 16.1 15.9 15.9 16 15.4 16.1 15 16.1 14.9 14.9 15.9 9 24.6 4 36.1 3.5 38.4 3.7 38.2 4.1 38.1"/><polygon class="cls-15" points="18.5 13.3 18.4 13.8 18.2 14.7 18.1 15.8 18 15.9 17.6 18.8 16.9 23.1 16.7 24.6 15.8 30.6 16.3 30.8 16.5 30.8 17.4 31.2 18.2 31.8 18.5 32.2 18.8 32.6 19.3 33.6 19.6 34.8 19.7 36 19.7 36.1 19.6 37.3 20.1 37.3 23.2 37.4 26.4 37.5 29.8 37.7 33.4 38 34.4 38.1 36.9 38.2 40.6 38.4 44.2 38.6 47.8 39 50.1 39.2 51.4 39.2 54.9 39.4 58.2 39.7 60.1 39.8 61.4 39.8 64.3 39.9 67.1 40 69.5 39.9 71.7 39.8 72.5 39.8 73.6 39.7 75.1 39.4 76.3 39.2 76.6 39.2 77.1 39 77.6 38.6 77.7 38.4 77.2 36.1 72.1 24.6 66.2 15.9 64.8 14.7 63.6 13.7 62.3 12.6 60.5 11.1 55.2 8.7 50.5 7.5 50.4 7.5 50.3 7.5 47.2 7.2 50 7.5 46.2 7.1 47.2 7.2 50.4 7.5 49.2 7.4 46.4 7.1 40.6 6.9 34.7 7.1 32 7.4 30.7 7.5 33.9 7.2 35 7.1 31.1 7.5 33.9 7.2 30.9 7.5 30.7 7.5 30.7 7.5 26 8.7 20.6 11.1 18.5 12.9 18.5 13 18.5 13.3"/></svg>