<svg id="Layer_1" data-name="Layer 1" xmlns="http://www.w3.org/2000/svg" viewBox="0 0 127.1 153.1"><defs><style>.cls-1{fill:#ededf4;}.cls-2{fill:none;}.cls-3{fill:#7b7a88;}.cls-4{fill:#d9d9df;}.cls-5{fill:#43434b;}.cls-6{fill:#5e5c6a;}.cls-7{fill:#b5b5c1;}.cls-8{fill:#605e73;}.cls-9{fill:#9491a4;}.cls-10{fill:#6d5c46;}.cls-11{fill:#4b3a2d;}.cls-12{fill:#9399a8;}.cls-13{fill:#2affff;}.cls-14{fill:#46bbed;}.cls-15{fill:#54d9ff;opacity:0.5;}</style></defs><rect class="cls-1" x="-324.9" y="-575.5" width="1000" height="800"/><polygon class="cls-2" points="111.3 49.6 111.3 49.6 111.3 50 111.3 49.6"/><polygon class="cls-2" points="117.3 58.4 117.5 58.6 117.5 58.6 117.3 58.4"/><polygon class="cls-2" points="18.4 58.3 18.4 58.2 18.3 58.3 18.4 58.3"/><polygon class="cls-2" points="109.7 60.2 109.7 60.2 109.7 60.1 109.7 60.1 109.4 59.1 109.6 60.1 109.7 60.2"/><path class="cls-2" d="M69.5,97.1l-8.1-.5h-.3l-5.4-1.1v29.6h3.6v-1.7h0l-.4-.3h-.1V104.4l.5-1.2.7-1,1-.7,1.1-.5,1.1-.2H75.6l1.2.2,1.1.5.9.7.7,1,.5,1.2v18.5H80l-.4.3h0v1.7h3.6V95.5l-5.3,1.1h-.3Z"/><polygon class="cls-2" points="8.6 59.2 8.3 59.3 8.6 59.3 8.6 59.2"/><path class="cls-3" d="M50.6,128.3h5.1V121H50.6Z"/><polygon class="cls-4" points="27.6 49.6 27.6 49.7 27.6 50.2 27.5 50.4 27.5 50.8 27.5 51.3 27.4 51.5 27.4 52.3 27.4 52.3 27.3 53.1 27.3 53.3 27.8 53.3 27.9 53.3 28.1 53.3 28.4 53.4 28.8 53.4 29.3 53.4 29.7 53.5 30.3 53.5 30.4 52 30.4 51.9 30.4 50.5 30.4 49.4 30.5 49.1 30.6 47.9 30.7 46.9 30.6 46.6 30.7 46.2 30.7 45.7 30.7 45.6 30.4 45.6 29.9 45.6 29.4 45.7 29 46 28.7 46.4 28.4 46.8 28.3 47.3 28.3 47.4 28.3 47.8 28.3 48.1 27.7 48 27.7 48.1 27.7 48.4 27.7 48.9 27.6 49.2 27.6 49.2 27.6 49.4 27.6 49.6"/><polygon class="cls-5" points="121.3 84.8 121.2 84.6 121 84.5 120.6 84.2 120.6 84.1 120.1 83.9 119.8 83.7 119.4 83.5 118.9 83.3 118.7 83.2 118 82.9 117.9 82.9 117.1 82.7 117 82.6 116.3 82.5 116.1 82.4 115.6 82.4 115.1 82.3 114.9 82.3 114.3 82.3 114.3 82.3 113.8 82.4 113.5 82.4 113.4 82.5 113.3 82.5 112.9 82.6 112.4 82.9 112.1 83.2 111.8 84.5 112 84.5 112.4 84.4 112.8 84.3 113 84.3 113.7 84.3 114.6 84.3 114.6 84.3 115.5 84.4 116.3 84.5 116.5 84.6 117.4 84.9 118 85.1 118.3 85.3 119.2 85.8 119.5 86 119.9 86.3 120.5 86.8 120.8 87.1 121 87.3 121.3 87.7 121.5 87.9 121.5 87.9 121.9 86.5 122 86.1 121.9 85.6 121.6 85.1 121.4 84.9 121.4 84.9 121.3 84.8"/><polygon class="cls-5" points="33.7 30.7 39.6 4.7 39.6 4.7 39.6 4.6 39.6 4.6 39.2 4.6 38.9 4.5 38.6 4.4 38.3 4.3 38.3 4.3 38.2 4.4 38.2 4.4 38.2 4.4 32.2 30.4 32.3 30.4 33.7 30.7"/><polygon class="cls-6" points="121.3 87.7 121 87.3 120.8 87.1 120.5 86.8 119.9 86.3 119.5 86 119.2 85.8 118.3 85.3 118 85.1 117.4 84.9 116.5 84.6 116.3 84.5 115.5 84.4 114.6 84.3 114.6 84.3 113.7 84.3 113 84.3 112.8 84.3 112.4 84.4 112 84.5 111.8 84.5 111.1 84.7 109.5 85.3 108 86.3 106.8 87.4 105.9 88.8 105.2 90.3 104.9 91.9 105 93.5 105.4 95 108.7 94 108.5 93.5 108.4 93.1 108.4 92.1 108.6 91.1 109 90.2 109.5 89.3 110.3 88.6 111.2 88 112.2 87.6 113.3 87.4 114.4 87.4 115.4 87.6 116.5 87.9 117.4 88.4 118.2 89.1 118.8 89.9 119.3 90.8 119.5 91.8 119.6 92.8 119.5 93.1 119.4 93.8 119.2 94.1 119 94.7 118.8 95 118.6 95.2 118.4 95.5 117.7 96.2 116.8 96.8 115.8 97.2 116.9 100.2 118.5 99.5 120 98.6 121.2 97.4 122.1 96.1 122.8 94.6 123 93 123 91.4 122.6 89.8 121.8 88.4 121.5 87.9 121.5 87.9 121.3 87.7"/><polygon class="cls-5" points="119 94.7 119.2 94.1 119.4 93.8 119.5 93.1 119.6 92.8 119.5 91.8 119.3 90.8 118.8 89.9 118.2 89.1 117.4 88.4 116.5 87.9 115.4 87.6 114.4 87.4 113.3 87.4 112.2 87.6 111.2 88 110.3 88.6 109.5 89.3 109 90.2 108.6 91.1 108.4 92.1 108.4 93.1 108.5 93.5 108.7 94 105.4 95 105 93.5 104.9 91.9 104.9 97.3 104.9 98.9 105.3 100.5 108.6 99.5 108.6 96.2 108.9 95.7 109.5 94.8 110.2 94.1 111.1 93.5 112.1 93.1 113.2 92.9 114.3 92.9 115.4 93 116.4 93.4 117.3 93.9 118.1 94.6 118.6 95.2 118.8 95 119 94.7"/><polygon class="cls-7" points="38.2 4.4 38.3 4.3 38.3 4.3 38.6 4.4 38.9 4.5 39.2 4.6 39.6 4.6 39.6 4.6 39.6 4.7 39.6 4.7 40.1 4.6 40.6 4.4 41.1 4 41.5 3.5 41.7 2.9 41.7 2.3 41.6 1.7 41.4 1.1 41 0.6 40.5 0.3 40.5 0.3 40.3 0.2 39.9 0.1 39.5 0 39.4 0 39.3 0 38.7 0.1 38.1 0.4 37.7 0.8 37.3 1.3 37.1 1.8 37 2.4 37.1 3.1 37.4 3.6 37.8 4.1 38.2 4.4 38.2 4.4 38.2 4.4"/><path class="cls-7" d="M107.3,31.3v.8l.2,1,.2,1.1.3,1.3.3,1.3.3,1.3.3,1.2.3,1.2.3,1,.2.8.2.6.2.4h.1v-1l-.2-.8v-1l-.3-1.2-.2-1.2-.3-1.3-.3-1.3-.3-1.3-.3-1.1-.3-1-.2-.8-.2-.6-.2-.4h-.1v1Zm.4,1.2h.1v.6l.2.5.2.7.2.7.2.8.2.9v.8l.2.8.2.8V41h0v-.2l-.2-.4v-.6l-.2-.6-.2-.8-.2-.8-.2-.8-.2-.9v-.8l-.2-.7V32.6Z"/><polygon class="cls-4" points="106.3 38.6 108.7 38.1 108.4 36.8 108.1 35.5 107.8 34.2 107.6 33.1 107.4 32.1 107.3 31.3 107.2 30.7 107.2 30.3 106.8 30.4 106.7 30.4 105.3 30.7 104.8 30.8 104.8 31.2 104.9 31.8 105 32.6 105.2 33.6 105.5 34.8 105.7 36 106 37.3 106 37.3 106.3 38.6"/><polygon class="cls-5" points="106.8 30.4 100.8 4.4 100.8 4.4 100.8 4.4 100.7 4.3 100.7 4.3 100.4 4.4 100.1 4.5 99.8 4.6 99.4 4.6 99.4 4.6 99.4 4.7 99.4 4.7 105.3 30.7 106.7 30.4 106.8 30.4"/><polygon class="cls-7" points="99.4 4.6 99.4 4.6 99.8 4.6 100.1 4.5 100.4 4.4 100.7 4.3 100.7 4.3 100.8 4.4 100.8 4.4 100.8 4.4 101.2 4.1 101.6 3.6 101.9 3.1 102 2.4 101.9 1.8 101.7 1.3 101.3 0.8 100.9 0.4 100.3 0.1 99.7 0 99.6 0 99.5 0 99.1 0.1 98.7 0.2 98.5 0.3 98.5 0.3 98 0.6 97.6 1.1 97.3 1.7 97.2 2.3 97.3 2.9 97.5 3.5 97.9 4 98.3 4.4 98.9 4.6 99.4 4.7 99.4 4.7 99.4 4.6"/><polygon class="cls-8" points="55.7 95.5 55.7 95.3 55.7 95.1 55.7 94.6 50.6 93 50.6 93.6 50.6 94.1 50.6 121 55.7 121 55.7 95.5"/><path class="cls-8" d="M79.6,128.3v-4.9h-.2l-.6.4h0v13.3h.8v-5.6h3.6v1.8h5.1v-1.8h2v-3.2Z"/><path class="cls-3" d="M83.2,128.3h5.1V121H83.2Z"/><polygon class="cls-8" points="88.3 93 83.2 94.6 83.2 95.1 83.2 95.3 83.2 95.5 83.2 121 88.3 121 88.3 94.1 88.3 93.6 88.3 93"/><path class="cls-5" d="M50.6,93l5.1,1.6v.9l5.4,1.1h.3V95.1l.2-1.5V82.1H44.8l-.2,1.8v7.6l2,1.2,4.1,1.4V93Z"/><polygon class="cls-3" points="32.7 38.6 32.4 39.9 32.2 40.5 32.6 40.5 33.5 40.6 34.7 40.8 36.2 41 38.1 41.2 38.7 41.3 40.2 41.4 42.7 41.7 45.4 41.9 48.4 42.2 50.3 42.5 51.5 42.5 54.9 42.7 58.4 42.9 59.9 43.1 60.5 43.1 62 43.1 65.7 43.1 69.5 43.1 73.2 43.1 76.9 43.1 78.4 43.1 79.1 43.1 80.5 42.9 84 42.7 87.4 42.5 88.6 42.5 90.6 42.2 93.5 41.9 96.2 41.7 98.7 41.4 100.2 41.3 100.9 41.2 102.7 41 104.3 40.8 105.5 40.6 106.4 40.5 106.8 40.5 106.6 39.9 106.3 38.6 106 37.3 106 37.3 105.6 37.3 104.8 37.4 103.6 37.5 102.1 37.7 100.3 38 99.6 38.1 98.1 38.2 95.7 38.4 93.1 38.6 90.7 38.9 90.2 39 89.9 39 88.2 39.2 87.7 39.2 87.1 39.2 84.3 39.4 83.8 39.4 80.3 39.7 79.9 39.7 78.2 39.8 76.8 39.8 74.8 39.9 73.1 39.9 69.5 40 65.8 39.9 64.1 39.9 62.2 39.8 60.7 39.8 59 39.7 58.6 39.7 55.2 39.4 54.6 39.4 51.9 39.2 51.2 39.2 50.7 39.2 49 39 48.8 39 48.3 38.9 45.9 38.6 43.2 38.4 40.8 38.2 39.3 38.1 38.7 38 36.9 37.7 35.4 37.5 34.2 37.4 33.3 37.3 33 37.3 33 37.3 32.7 38.6"/><path class="cls-9" d="M79.6,125.1v3.2h3.6v-3.2Z"/><path class="cls-9" d="M50.6,125.1H48.7v3.2h1.9Z"/><path class="cls-9" d="M55.7,125.1v3.2h3.6v-3.2Z"/><path class="cls-9" d="M88.3,128.3h2v-3.2h-2Z"/><path class="cls-10" d="M78.8,124.2v-.4h-.1l-.2.2h-.9l-.8.4h0l-.6.2h-.6l-.8.2v27.6h1l1-.4.8-.7.7-.8.4-1V124.2Z"/><polygon class="cls-6" points="14.1 69.9 13.7 69.8 13.7 69.8 12.9 69.6 12.1 69.5 12 69.5 11 69.5 10.5 69.5 10 69.5 9 69.6 8.8 69.7 8.1 69.8 7.2 70.1 7 70.1 6.4 70.3 5.8 70.6 5.7 70.6 5.4 70.7 3.9 71.6 2.5 72.6 1.4 73.7 0.6 74.9 0.2 76.1 0 77.3 0.2 78.4 0.7 79.5 1.5 80.3 2.6 81.1 4 81.6 5.8 79.3 5.8 79.3 5 79 5 79 4.3 78.6 4.3 78.5 3.8 78 3.8 78 3.5 77.4 3.4 76.7 3.5 75.9 3.8 75.2 4.3 74.4 4.9 73.7 5.8 73.1 6.7 72.6 7.7 72.2 8.8 72 9.9 71.8 10.9 71.9 11.8 72 12.7 72.3 13.3 72.8 13.9 73.3 14.2 74 14.3 74.7 14.3 74.7 14.2 75.4 14.2 75.5 13.9 76.2 13.9 76.2 13.4 76.9 16.2 77.7 17 76.5 17.5 75.3 17.7 74.1 17.5 72.9 17 71.9 16.1 71 15 70.3 14.4 70.1 14.3 70 14.1 69.9"/><path class="cls-8" d="M60.1,123.8h0l-.6-.4h-.2v4.9H48.7v3.2h1.9v1.8h5.1v-1.8h3.6v5.6h.8Z"/><polygon class="cls-5" points="6.4 70.3 7 70.1 7.2 70.1 8.1 69.8 8.8 69.7 9 69.6 10 69.5 10.5 69.5 11 69.5 12 69.5 12.1 69.5 12.9 69.6 13.7 69.8 13.7 69.8 14.1 69.9 14.1 69.9 13.7 69.6 13.6 69.6 13.1 69.3 12.9 69.1 12.4 69 12 68.8 11.7 68.8 11 68.6 10.9 68.6 10 68.6 10 68.6 9.2 68.7 9 68.7 8.4 68.8 8.1 68.9 7.7 69.1 7.2 69.3 7 69.4 6.5 69.8 6.4 69.8 6.2 70.1 5.9 70.3 5.9 70.4 5.8 70.4 5.7 70.6 5.8 70.6 6.4 70.3"/><path class="cls-10" d="M64.1,125.5l-.8-.2h-.6l-.5-.2h-.1l-.8-.4h-.8l-.2-.2h-.2v25.3l.2,1,.4,1,.6.8.8.7,1,.4h1Z"/><path class="cls-11" d="M65.3,125.8H65l-.9-.3v27.6h1.2Z"/><path class="cls-11" d="M74.8,125.5l-.9.3h-.1v27.3h1Z"/><path class="cls-10" d="M67.8,126.2h-.6l-1.9-.4v27.3h2.5Z"/><path class="cls-11" d="M71.1,126.2H67.8v26.9h3.3Z"/><path class="cls-10" d="M73.8,125.8l-2.1.4h-.6v26.9h2.7Z"/><polygon class="cls-12" points="14 67.4 13.6 66.9 13.1 66.4 12.4 66 11.6 65.8 10.8 65.6 10 65.6 9.2 65.7 8.4 65.9 7.6 66.2 7 66.6 6.5 67.1 6.1 67.7 5.9 68.3 5.9 68.9 5.9 70.4 5.9 70.3 6.2 70.1 6.4 69.8 6.5 69.8 7 69.4 7.2 69.3 7.7 69.1 8.1 68.9 8.4 68.8 9 68.7 9.2 68.7 10 68.6 10 68.6 10.9 68.6 11 68.6 11.7 68.8 12 68.8 12.4 69 12.9 69.1 13.1 69.3 13.6 69.6 13.7 69.6 14.1 69.9 14.1 69.9 14.3 70 14.4 70.1 14.4 68.6 14.3 68 14 67.4"/><polygon class="cls-5" points="17.5 75.3 17 76.5 16.2 77.7 13.4 76.9 13.9 76.2 13.9 76.2 14.2 75.5 14.2 75.4 14.3 74.7 14.3 74.7 14.2 74 13.9 73.3 13.3 72.8 12.7 72.3 11.8 72 10.9 71.9 9.9 71.8 8.8 72 7.7 72.2 6.7 72.6 5.8 73.1 4.9 73.7 4.3 74.4 3.8 75.2 3.5 75.9 3.4 76.7 3.5 77.4 3.8 78 3.8 78 4.3 78.5 4.3 78.6 5 79 5 79 5.8 79.3 5.8 79.3 4 81.6 2.6 81.1 1.5 80.3 0.7 79.5 0.2 78.4 3.1 87.6 3.6 88.7 4.4 89.6 5.5 90.3 6.9 90.8 8.7 88.5 7.2 83.6 7.8 83 8.7 82.4 9.6 81.8 10.6 81.4 11.7 81.2 12.7 81.1 13.8 81.1 14.7 81.3 14.8 81.3 16.3 86.1 19.1 86.9 19.9 85.7 20.4 84.5 20.6 83.3 20.4 82.1 17.5 72.9 17.7 74.1 17.5 75.3"/><polygon class="cls-12" points="110 42.9 109.8 42.3 109.6 41.5 109.3 40.5 109 39.3 108.7 38.1 106.3 38.6 106.6 39.9 106.8 40.5 106.9 41 107.2 42 107.4 42.8 107.4 42.9 107.6 43.5 107.8 43.8 107.9 44 110.3 43.4 110.2 43.3 110 42.9"/><path class="cls-5" d="M94.5,89.6V83.9l-.2-1.8H77.4l-.2,1.8v9.7l.2,1.5v1.4h.4l5.3-1.1v-.9L88.3,93v1.1l4.1-1.4,2-1.2V89.6Z"/><path class="cls-12" d="M94.2,82.1l.2,1.8v7.6l3.1-1.9,3.3-3.6,1.1-3.9Z"/><path class="cls-12" d="M61.8,86v7.6l-.2,1.5v1.4h0l8.1.5,8.1-.5h-.1V95.1l-.2-1.5V83.9l.2-1.8H61.6V86Z"/><path class="cls-12" d="M44.4,89.6V83.9l.2-1.8H37L38.1,86l3.3,3.6,3.1,1.9V89.6Z"/><polygon class="cls-5" points="122.1 96.1 121.2 97.4 120 98.6 118.5 99.5 116.9 100.2 115.8 97.2 115.7 102.7 116.8 105.7 118.4 105 119.9 104.1 121.1 102.9 122 101.5 122.7 100 123 98.5 123 93 122.8 94.6 122.1 96.1"/><polygon class="cls-12" points="122.5 80.7 122.3 80.3 121.9 79.9 121.4 79.5 120.8 79.1 120 78.7 119.3 78.4 118.5 78.2 117.7 78.1 116.9 78 116.2 78 115.5 78 115 78.2 114.6 78.4 114.4 78.7 113.3 82.5 113.4 82.5 113.5 82.4 113.8 82.4 114.3 82.3 114.3 82.3 114.9 82.3 115.1 82.3 115.6 82.4 116.1 82.4 116.3 82.5 117 82.6 117.1 82.7 117.9 82.9 118 82.9 118.7 83.2 118.9 83.3 119.4 83.5 119.8 83.7 120.1 83.9 120.6 84.1 120.6 84.2 121 84.5 121.2 84.6 121.3 84.8 121.4 84.9 121.4 84.9 122.5 81.4 122.6 81.1 122.5 80.7"/><polygon class="cls-4" points="108.2 46.2 108.3 46.6 108.3 46.9 108.3 47.9 108.4 49.1 108.5 49.4 108.5 50.5 108.5 51.9 108.5 52 108.6 53.5 109.1 53.5 109.6 53.4 110.1 53.4 110.5 53.4 110.8 53.3 111 53.3 111 53.3 111.6 53.3 111.5 52.9 111.5 52.3 111.5 52.1 111.4 51.3 111.4 51.3 111.3 50.6 111.3 50.4 111.3 50 111.3 49.6 111.2 49.3 111.2 49.1 111.2 48.9 111.2 48.4 111.1 48.1 111.1 48 110.6 48.1 110.6 47.8 110.5 47.4 110.5 47.3 110.4 46.8 110.2 46.4 109.8 46 109.4 45.7 108.9 45.6 108.4 45.6 108.2 45.6 108.2 45.7 108.2 46.2"/><path class="cls-7" d="M29,42.9l.2-.6.2-.8.3-1,.3-1.2.3-1.2.3-1.3.3-1.3.2-1.3.3-1.1.2-1V30.3h-.1l-.2.4-.2.6-.2.8-.3,1-.3,1.1-.3,1.3-.3,1.3-.3,1.3-.2,1.2-.3,1.2-.2,1v1.8h.1Zm.3-2.1V39.2l.2-.8.2-.8v-.8l.2-.9.2-.8.2-.7.2-.7.2-.5v-.6h.1v1.8l-.2.7v.8l-.2.9-.2.8-.2.8-.2.8-.2.6v.6l-.2.4V41h-.1Z"/><polygon class="cls-4" points="31.7 31.3 31.6 32.1 31.4 33.1 31.1 34.2 30.9 35.5 30.6 36.8 30.3 38.1 32.7 38.6 33 37.3 33 37.3 33.3 36 33.5 34.8 33.8 33.6 34 32.6 34.1 31.8 34.2 31.2 34.2 30.8 33.7 30.7 32.3 30.4 32.2 30.4 31.8 30.3 31.8 30.7 31.7 31.3"/><polygon class="cls-12" points="31.3 43.4 31.5 42.9 31.5 42.8 31.7 42.4 31.8 42 32.1 41 32.2 40.5 32.4 39.9 32.7 38.6 30.3 38.1 30 39.3 29.7 40.5 29.4 41.5 29.2 42.3 29 42.9 28.8 43.3 28.7 43.4 31.1 44 31.2 43.8 31.3 43.4"/><polygon class="cls-12" points="80 123 80.1 122.9 80.1 121.2 80.1 116.9 80.1 113 80.1 109.9 80.1 107.6 80.1 106.1 80.1 105.7 80 104.4 79.5 103.2 78.8 102.2 78.8 102.8 78.8 104.4 78.8 107.1 78.8 110.6 78.8 115 78.8 119.9 78.8 123.8 79.4 123.4 79.5 123.3 79.6 123.3 80 123 80 123"/><polygon class="cls-7" points="78.8 115 78.8 110.6 78.8 107.1 78.8 104.4 78.8 102.8 78.8 102.2 77.9 101.5 76.8 101 75.6 100.8 63.3 100.8 62.2 101 61.1 101.5 60.1 102.2 60.1 102.8 60.1 104.4 60.1 107.1 60.1 110.6 60.1 115 60.1 119.9 60.1 123.8 60.1 123.8 60.3 123.8 60.5 124 60.7 124.1 60.9 124.2 61.1 124.3 61.3 124.4 62.1 124.8 62.2 124.8 62.7 125 62.9 125.1 63.1 125.2 63.3 125.3 64.1 125.5 65 125.8 65.3 125.8 67.2 126.2 67.8 126.2 69.5 126.3 71.1 126.2 71.7 126.2 73.8 125.8 73.9 125.8 74.8 125.5 75.6 125.3 75.8 125.2 76 125.1 76.2 125 76.8 124.8 76.8 124.8 77.6 124.4 77.9 124.3 78.1 124.2 78.3 124.1 78.5 124 78.7 123.8 78.8 123.8 78.8 123.8 78.8 119.9 78.8 115"/><polygon class="cls-12" points="23.9 57.3 23.8 56.9 23.6 56.3 23.4 55.7 23.4 55.6 23.2 54.8 22.8 54 22.5 53.2 22.4 53.2 22.4 53.1 22.4 52.9 22.2 52.4 21.8 51.6 21.5 50.9 21.2 50.4 20.9 49.9 20.7 49.6 20.5 49.4 20.4 49.4 19.1 49.5 17.5 49.8 16 50.1 14.7 50.4 14.1 50.7 12.9 51.2 12.8 51.2 13.3 51 13.9 51 14.5 51.1 15.2 51.4 15.9 51.7 16.6 52.2 17.2 52.8 17.8 53.4 18.2 54.1 18.3 54.1 18.3 54.2 18.6 54.8 18.9 55.5 19.1 56.2 19.1 56.4 19.1 56.9 19.1 57.4 18.9 57.9 18.5 58.2 18.4 58.2 18.4 58.3 18.1 58.4 19.1 58.2 20.3 58 21.7 57.9 23.2 57.8 23.9 57.8 23.9 57.6 23.9 57.3"/><polygon class="cls-12" points="111.9 57.5 111.9 57.1 111.9 57 111.9 56.7 111.8 56.2 111.8 56.1 111.8 55.3 111.8 55.3 111.7 54.6 111.7 54.3 111.6 53.7 111.6 53.3 111 53.3 111 53.3 110.8 53.3 110.5 53.4 110.1 53.4 109.6 53.4 109.1 53.5 108.6 53.5 108.8 55 108.8 55.1 108.9 56.6 109.2 57.9 109.4 59.1 109.7 60.1 109.7 60.1 109.7 60.2 109.7 60.2 109.7 60.3 109.8 60.8 109.9 61.2 110 61.4 110.3 61.3 110.7 61.1 111.1 60.7 111.4 60.3 111.5 59.8 111.6 59.3 111.5 59.2 111.5 58.9 111.5 58.6 112 58.5 112 58.4 112 58.1 112 57.7 112 57.7 111.9 57.5"/><path class="cls-7" d="M109.8,60.8v-.5h-.1l-.2-1-.2-1.2-.3-1.3V55.1h0l-.2-1.5V45.7h0l-.3-1.6v-.2l-.2-.3-.2-.6h0l-.2-.8-.3-1v-.5h-1.3l-1.2.2-1.6.2-1.8.2H98.7l-2.5.3-2.7.2-2.9.3-2,.3H87.4l-3.4.2-3.5.2-1.4.2H59.9l-1.5-.2-3.5-.2-3.4-.2H50.3l-1.9-.3-3-.3-2.7-.2-2.5-.3H38.1L36.2,41l-1.5-.2-1.2-.2H32.2V41l-.3,1v.4l-.2.4h0l-.2.5V44l-.4,1.6h0v6.2h0v3h0L30,56.6l-.2,1.3-.3,1.2-.2,1v.6h0v1l1.4,8.7,2.3,6.9H45.4l.4-1.7v-.5l.5-1.8.6-1.8.4-1.1.2-.4.7-1.5,1.5-2.2.8-.7.9-.7,1.7-.4.9.2.8.2,1.6,1.4L58,68.6h0l.9,1.9.5,1.1.6,2,.4,1.6.5,2.2H78.1l.4-2.2.5-1.6.6-2,.4-1.1.9-1.9h0l1.5-2.2L84.1,65l.7-.2,1-.2,1.7.4.8.7.8.7,1.5,2.2.7,1.5.2.4.5,1.1.5,1.8.6,1.8v.5l.4,1.7h12.9l2.3-6.9,1.3-8.7v-1Z"/><path class="cls-5" d="M49,39l1.7.2h1.2l2.7.2h.6l3.4.3H80.3l3.5-.3h.5l2.8-.2h1.1l1.7-.2h.8l.5-1.1.7-2.8.3-2.9V29.2l-.6-2.8-1-2.7-1.4-2.3-.8-.9H50.7l-.8.9-1.4,2.3-1.1,2.7-.5,2.8-.2,2.9L47,35l.8,2.8.5,1.1H49Zm2.9-7.6V29.2h0l.3-1.1.6-1,.5-.6.2-.2.6-.6.3-.2,1-.5,1.1-.3,1.1-.2,1.1.2h.1l1,.3,1,.5.9.8.2.2.5.6.6,1,.3,1.1h0v2.2l-.2.7v.4l-.6,1-.7.9-3.5-.7-4.8-1-1.2-.2v-.4Zm32.9-5.9.7.7.2.2.6.6.5,1,.3,1.1h0v2.2l-.2.7v.4l-1.3.3-4.7.9-3.5.7-.7-.9-.6-1v-.4l-.2-.7V29.2h0L76,28l.6-1,.5-.6.2-.2.9-.8,1-.5.9-.3h.2l1.1-.2,1.2.2,1.1.3,1,.5Z"/><polygon class="cls-13" points="53.1 30.3 53.2 31.1 53.3 31.3 53.4 31.4 57.3 32.1 58.1 32.3 61.2 32.9 61.3 32.7 61.6 32.1 61.7 32 62 31.1 62.1 30.3 62 29.4 61.9 29.2 61.7 28.6 61.3 27.8 60.8 27.1 60.1 26.6 59.8 26.4 59.3 26.1 58.5 25.9 58.5 25.9 57.6 25.8 56.7 25.9 55.9 26.1 55.4 26.4 55.1 26.6 54.4 27.1 53.9 27.8 53.6 28.3 53.5 28.6 53.3 29.2 53.2 29.4 53.1 30.3"/><polygon class="cls-4" points="55.2 18.4 57.8 18.4 61.2 18.4 65.2 18.4 69.5 18.4 73.7 18.4 77.7 18.4 81.1 18.4 83.8 18.4 85.4 18.4 86 18.4 85.3 17.9 83.1 16.9 80.7 16.4 79.8 16.3 76.3 16.1 75.4 16.1 72.9 16.1 69.5 16.1 66.1 16.1 63.6 16.1 62.6 16.1 59.2 16.3 58.2 16.4 55.8 16.9 53.6 17.9 53 18.4 53.5 18.4 55.2 18.4"/><polygon class="cls-7" points="53.2 20.5 56.2 20.5 60.1 20.5 64.6 20.5 69.5 20.5 74.3 20.5 78.9 20.5 82.8 20.5 85.7 20.5 87.6 20.5 88.3 20.5 87.3 19.4 86 18.4 85.4 18.4 83.8 18.4 81.1 18.4 77.7 18.4 73.7 18.4 69.5 18.4 65.2 18.4 61.2 18.4 57.8 18.4 55.2 18.4 53.5 18.4 53 18.4 51.6 19.4 50.7 20.5 51.3 20.5 53.2 20.5"/><path class="cls-14" d="M53.4,32.7l4.8,1,3.5.7.7-.9.6-1v-.4l.2-.7V29.2h0L63,28l-.6-1-.5-.6-.2-.2-.9-.8-1-.5-1-.3h-.1l-1.1-.2-1.1.2-1.1.3-1,.5-.3.2-.6.6-.2.2-.5.6-.6,1-.3,1.1h0v2.2l.2.7v.4Zm.1-4.1v-.3l.3-.5.5-.7.7-.5.3-.2.5-.3.8-.2h1.8l.8.2.5.3.3.2.7.5.5.7.4.8.2.6v1.9l-.3.9h-.1l-.3.6v.2l-3.1-.6-.8-.2-3.9-.7h-.1V29.2Z"/><path class="cls-14" d="M82.6,24.6l-1.2-.2-1.1.2h-.2l-.9.3-1,.5-.9.8-.2.2-.5.6L76,28l-.3,1.1h0v2.2l.2.7v.4l.6,1,.7.9,3.5-.7,4.7-.9,1.3-.3v-.4l.2-.7V29.2h0L86.8,28l-.5-1-.6-.6-.2-.2-.7-.7h-.1l-1-.5Zm3.1,4.6v2.1h-.2l-3.8.7-.9.2-3,.6v-.2l-.3-.6h-.1l-.3-.9V29.2l.2-.6.4-.8.6-.7.6-.5.4-.2.4-.3.7-.2h1.9l.8.2.5.3.3.2.7.5.5.7.2.2.2.6Z"/><polygon class="cls-13" points="85.3 28 85.1 27.8 84.6 27.1 83.9 26.6 83.6 26.4 83.1 26.1 82.3 25.9 81.4 25.8 80.6 25.9 80.4 25.9 79.7 26.1 79.3 26.4 78.9 26.6 78.3 27.1 77.7 27.8 77.3 28.6 77.1 29.2 77 29.4 77 30.3 77 31.1 77.3 32 77.4 32.1 77.7 32.7 77.8 32.9 80.8 32.3 81.7 32.1 85.5 31.4 85.7 31.3 85.8 31.1 85.9 30.3 85.8 29.4 85.7 29.2 85.5 28.6 85.3 28"/><polygon class="cls-3" points="18.3 58.3 18.4 58.2 18.5 58.2 18.9 57.9 19.1 57.4 19.1 56.9 19.1 56.4 19.1 56.2 18.9 55.5 18.6 54.8 18.3 54.2 18.3 54.1 18.2 54.1 17.8 53.4 17.2 52.8 16.6 52.2 15.9 51.7 15.2 51.4 14.5 51.1 13.9 51 13.3 51 12.8 51.2 11.8 51.8 11.2 52.2 10.3 52.9 9.5 53.7 9 54.3 8.7 54.6 9.1 54.2 9.7 53.9 10.4 53.7 11.1 53.6 11.9 53.6 12.7 53.8 13.4 54.1 14.2 54.5 14.9 55 15.4 55.6 15.9 56.2 16.2 56.8 16.4 57.5 16.4 58.1 16.3 58.4 16.2 58.7 16 59.3 16.4 58.8 15.9 59.3 16.2 59.1 16.8 58.8 17.1 58.6 18 58.4 18 58.4 18.1 58.4 18.4 58.3 18.3 58.3"/><polygon class="cls-3" points="26.9 57.6 26.9 57.3 27 57 27 56.8 27 56.2 27 56.2 27.1 55.5 27.1 55.3 27.2 54.8 27.2 54.3 27.2 53.9 27.3 53.3 27.3 53.1 27.4 52.3 27.4 52.3 27.4 51.5 27.5 51.3 27.5 50.8 27.5 50.4 27.6 50.2 27.6 49.7 27.6 49.6 27.6 49.4 27.6 49.2 26.9 49.2 26.7 49.2 24.8 49.2 24.7 49.2 22.9 49.3 21.1 49.4 20.9 49.4 20.9 49.4 20.4 49.4 20.5 49.4 20.7 49.6 20.9 49.9 21.2 50.4 21.5 50.9 21.8 51.6 22.2 52.4 22.4 52.9 22.4 53.1 22.4 53.2 22.5 53.2 22.8 54 23.2 54.8 23.4 55.6 23.4 55.7 23.6 56.3 23.8 56.9 23.9 57.3 23.9 57.6 23.9 57.8 24.9 57.8 26.8 57.8 26.9 57.8 26.9 57.7 26.9 57.6"/><polygon class="cls-3" points="14.1 63.9 13.6 63.3 13.1 62.8 12.4 62.4 11.7 62.1 10.9 62 10 61.9 9.2 62 8.4 62.1 7.7 62.4 7 62.8 6.5 63.3 6.2 63.8 5.9 64.4 5.9 65.1 5.9 66.1 5.8 68.1 5.9 68.9 5.9 68.3 6.1 67.7 6.5 67.1 7 66.6 7.6 66.2 8.4 65.9 9.2 65.7 10 65.6 10.8 65.6 11.6 65.8 12.4 66 13.1 66.4 13.6 66.9 14 67.4 14.3 68 14.4 68.6 14.4 67.9 14.4 65.9 14.5 65.1 14.3 64.5 14.1 63.9"/><polygon class="cls-12" points="16.3 58.4 16.4 58.1 16.4 57.5 16.2 56.8 15.9 56.2 15.4 55.6 14.9 55 14.2 54.5 13.4 54.1 12.7 53.8 11.9 53.6 11.1 53.6 10.4 53.7 9.7 53.9 9.1 54.2 8.7 54.6 8.3 55.2 7.9 55.9 7.4 57 6.9 58.2 6.7 58.9 6.6 59.3 6.8 58.7 7.2 58.1 7.7 57.7 8.3 57.3 9 57.1 9.8 56.9 10.6 56.9 11.4 57.1 12.2 57.3 13 57.6 13.6 58.1 14.2 58.6 14.6 59.2 14.9 59.8 15 60.4 15 61 15 61 15.2 60.4 15.5 59.9 15.8 59.5 15.8 59.4 16 59.3 16.2 58.7 16.3 58.4"/><polygon class="cls-3" points="14.9 59.8 14.6 59.2 14.2 58.6 13.6 58.1 13 57.6 12.2 57.3 11.4 57.1 10.6 56.9 9.8 56.9 9 57.1 8.3 57.3 7.7 57.7 7.2 58.1 6.8 58.7 6.6 59.3 6.4 60.3 6.2 61.5 6.4 60.9 6.8 60.4 7.3 59.9 7.9 59.5 8.3 59.3 8.6 59.2 8.6 59.3 8.6 59.2 9.4 59.1 10.2 59.1 11.1 59.1 11.9 59.4 12.6 59.7 13.3 60.1 13.5 60.3 13.8 60.6 14.3 61.1 14.6 61.8 14.7 62.4 14.6 63 14.8 62 15 61 15 60.4 14.9 59.8"/><polygon class="cls-12" points="14.6 61.8 14.3 61.1 13.8 60.6 13.5 60.3 13.3 60.1 12.6 59.7 11.9 59.4 11.1 59.1 10.2 59.1 9.4 59.1 8.6 59.2 8.6 59.3 8.3 59.3 7.9 59.5 7.3 59.9 6.8 60.4 6.4 60.9 6.2 61.5 6.1 61.8 6 63.5 5.9 64.2 5.9 65.1 5.9 64.4 6.2 63.8 6.5 63.3 7 62.8 7.7 62.4 8.4 62.1 9.2 62 10 61.9 10.9 62 11.7 62.1 12.4 62.4 13.1 62.8 13.6 63.3 14.1 63.9 14.3 64.5 14.5 65.1 14.5 64.4 14.5 64.2 14.6 62.6 14.6 63.3 14.6 63 14.7 62.4 14.6 61.8"/><polygon class="cls-3" points="125.9 67.4 125.5 67.1 125 66.7 124.3 66.4 123.6 66.2 122.8 66 122 65.9 121.1 65.8 120.3 65.9 119.6 66 118.9 66.2 118.4 66.4 117.9 66.7 117.7 67 117.6 67.4 117.3 68.4 117.3 68.5 116.9 70 117.2 69.7 117.4 69.6 117.6 69.5 118.1 69.3 118.7 69.1 119.5 69.1 120.3 69.1 121.1 69.2 121.9 69.3 122.2 69.4 122.7 69.5 123.5 69.8 124.1 70.1 124.6 70.5 125 70.9 125.2 71.3 125.3 71.7 125.6 70.6 125.7 70.1 126.2 68.2 126.1 67.8 125.9 67.4"/><polygon class="cls-3" points="124 75.5 123.8 75.1 123.4 74.7 122.9 74.3 122.3 74 121.5 73.7 120.8 73.4 119.9 73.2 119.1 73.1 118.3 73.1 117.6 73.1 117 73.2 116.4 73.4 116 73.6 115.8 73.9 115.5 75 114.7 77.7 114.4 78.7 114.6 78.4 115 78.2 115.5 78 116.2 78 116.9 78 117.7 78.1 118.5 78.2 119.3 78.4 120 78.7 120.8 79.1 121.4 79.5 121.9 79.9 122.3 80.3 122.5 80.7 122.6 81.1 122.5 81.4 122.8 80.4 123.6 77.7 124 76.2 124.1 75.9 124 75.5"/><polygon class="cls-12" points="125 70.9 124.6 70.5 124.1 70.1 123.5 69.8 122.7 69.5 122.2 69.4 121.9 69.3 121.1 69.2 120.3 69.1 119.5 69.1 118.7 69.1 118.1 69.3 117.6 69.5 117.4 69.6 117.2 69.7 116.9 70 116.9 70.2 116.2 72.5 115.8 73.9 116 73.6 116.4 73.4 117 73.2 117.6 73.1 118.3 73.1 119.1 73.1 119.9 73.2 120.8 73.4 121.5 73.7 122.3 74 122.9 74.3 123.4 74.7 123.8 75.1 124 75.5 124.1 75.9 124 76.2 124.3 75.2 125 72.8 125.1 72.4 125.2 72 125.3 71.7 125.2 71.3 125 70.9"/><polygon class="cls-12" points="126.9 61.4 126.5 61 126 60.7 125.4 60.5 124.7 60.3 123.9 60.2 123 60.2 122.2 60.3 121.4 60.4 120.6 60.6 119.9 60.9 119.3 61.2 118.9 61.6 118.6 61.9 118.5 62.3 118.4 63.2 118.1 64.8 117.8 66.6 117.6 67.4 117.7 67 117.9 66.7 118.4 66.4 118.9 66.2 119.6 66 120.3 65.9 121.1 65.8 122 65.9 122.8 66 123.6 66.2 124.3 66.4 125 66.7 125.5 67.1 125.9 67.4 126.1 67.8 126.2 68.2 126.2 68 126.6 66 126.9 64.1 127.1 62.4 127 61.8 127 61.7 126.9 61.4"/><path class="cls-7" d="M49.5,71.8l.2.7.3.6.2.2.3.4.6.5.6.3h0l.7.2h1.5l.7-.2.3-.2h.4l.5-.5.5-.6.3-.6.3-.7V70.3l-.3-.7-.3-.7-.5-.5-.5-.5-.7-.4H52.4l-.7.2-.6.4-.3.2-.3.3-.5.5-.3.7-.2.7v1.5Zm1.1-1.3.2-.5.2-.4.3-.4.4-.3.5-.3h2l.4.3.4.3.3.4.3.4v2l-.3.5-.3.4-.4.3-.4.2-.5.2h-1l-.5-.2-.5-.2-.4-.3-.3-.4-.2-.5-.2-.5v-1Z"/><path class="cls-3" d="M32.6,77.4l5.3,1.8L37,82.1h64.9l-.8-2.9,5.3-1.8Z"/><path class="cls-7" d="M82.1,71.8l.2.7.4.6.4.6.6.5H84l.4.2.7.2h1.4l.7-.2h.1l.6-.3.6-.5.3-.4v-.2l.4-.6.2-.7V70.3l-.2-.7-.4-.7-.4-.5-.4-.3-.2-.2-.7-.4-.7-.2H84.4l-.7.4-.6.5-.4.5-.4.7-.2.7v1.5Zm1.2-1.3V70l.2-.4.4-.4.4-.3.4-.3h2l.4.3.4.3.4.4.2.4v2l-.2.5-.4.4-.4.3-.4.2-.5.2h-1l-.5-.2-.4-.2-.4-.3-.4-.4-.2-.5V70.5Z"/><path class="cls-5" d="M93.5,77.4l-.4-1.7v-.5l-.6-1.8L92,71.6l-.5-1.1-.2-.4-.7-1.5-1.5-2.2-.8-.7-.8-.7-1.7-.4-1,.2-.7.2-1.7,1.4-1.5,2.2h0L80,70.5l-.4,1.1-.6,2-.5,1.6-.4,2.2ZM82.1,70.3l.2-.7.4-.7.4-.5.6-.5.7-.4h2.1l.7.2.7.4.2.2.4.3.4.5.4.7.2.7v1.5l-.2.7-.4.6v.2l-.3.4-.6.5-.6.3h-.1l-.7.2H85.1l-.7-.2-.4-.2h-.3l-.6-.5-.4-.6-.4-.6-.2-.7V70.3Z"/><path class="cls-5" d="M60.9,77.4l-.5-2.2L60,73.6l-.6-2-.5-1.1L58,68.6h0l-1.5-2.2L54.9,65l-.8-.2-.9-.2-1.7.4-.9.7-.8.7-1.5,2.2-.7,1.5-.2.4L47,71.6l-.6,1.8-.5,1.8v.5l-.4,1.7ZM49.5,70.3l.2-.7.3-.7.5-.5.3-.3.3-.2.6-.4.7-.2h2.2l.7.4.5.5.5.5.3.7.3.7v1.5l-.3.7-.3.6-.5.6-.5.5h-.4l-.3.2-.7.2H52.4l-.7-.2h0l-.6-.3-.6-.5-.3-.4-.2-.2-.3-.6-.2-.7V70.3Z"/><polygon class="cls-12" points="29.1 60.8 29.1 60.7 29.2 60.3 29.3 60.1 29.5 59.1 29.8 57.9 30 56.6 30.2 55.1 30.2 55 30.3 53.5 29.7 53.5 29.3 53.4 28.8 53.4 28.4 53.4 28.1 53.3 27.9 53.3 27.8 53.3 27.3 53.3 27.2 53.9 27.2 54.3 27.2 54.8 27.1 55.3 27.1 55.5 27 56.2 27 56.2 27 56.8 27 57 26.9 57.3 26.9 57.6 26.9 57.7 26.9 57.8 26.9 58.1 26.8 58.4 26.8 58.5 27.4 58.6 27.4 58.9 27.3 59.2 27.3 59.3 27.3 59.8 27.5 60.3 27.8 60.7 28.1 61.1 28.6 61.3 28.9 61.4 29 61.2 29.1 60.8"/><polygon class="cls-3" points="117.9 58.9 117.7 58.7 117.5 58.6 117.5 58.6 117.6 58.7 117.7 58.8 117.7 58.9 118 59.1 117.9 58.9 117.9 58.9"/><polygon class="cls-3" points="114.8 57.4 114.9 57 114.9 57 115 56.4 115.2 55.8 115.5 55.1 115.6 54.8 115.9 54.4 116.3 53.6 116.7 52.9 117.2 52.2 117.6 51.6 118.1 51.1 118.5 50.7 118.9 50.4 119.3 50.3 119.5 50.3 119.4 50.2 117.5 49.7 117.2 49.7 115.2 49.3 113 49.1 111.2 49.1 111.2 49.3 111.3 49.6 111.3 49.6 111.3 50 111.3 50.4 111.3 50.6 111.4 51.3 111.4 51.3 111.5 52.1 111.5 52.3 111.5 52.9 111.6 53.3 111.6 53.7 111.7 54.3 111.7 54.6 111.8 55.3 111.8 55.3 111.8 56.1 111.8 56.2 111.9 56.7 111.9 57 111.9 57.1 111.9 57.5 112 57.7 112 57.7 112.6 57.7 112.5 57.7 114.2 57.8 114.3 57.8 115 57.9 114.8 57.8 114.8 57.4"/><polygon class="cls-3" points="126.9 58.6 126.5 57.2 126.3 56.6 126 55.7 125.7 55.4 125.4 55.2 124.9 55 124.6 55 124.3 54.9 123.5 55 122.8 55.1 122 55.3 121.2 55.6 120.4 55.9 119.7 56.4 119.1 56.8 118.7 57.3 118.3 57.7 118.3 57.7 118.3 57.8 118.1 58.2 118 58.7 118 59 118.2 59.3 118.3 59.7 118.4 60 118.5 61 118.5 61.7 118.5 62.3 118.6 61.9 118.9 61.6 119.3 61.2 119.9 60.9 120.6 60.6 121.4 60.4 122.2 60.3 123 60.2 123.9 60.2 124.7 60.3 125.4 60.5 126 60.7 126.5 61 126.9 61.4 127 61.7 127 61.8 127.1 62.1 127.1 60.8 127.1 60.1 126.9 58.6"/><polygon class="cls-12" points="118 58.7 118.1 58.2 118.3 57.8 118.3 57.7 118.3 57.7 118.7 57.3 119.1 56.8 119.7 56.4 120.4 55.9 121.2 55.6 122 55.3 122.8 55.1 123.5 55 124.3 54.9 124.6 55 124.9 55 125.4 55.2 125.7 55.4 126 55.7 125.7 55.3 125.4 54.7 124.5 53.5 124.1 53.1 123 52 121.5 51.2 121.1 50.9 119.5 50.3 119.3 50.3 118.9 50.4 118.5 50.7 118.1 51.1 117.6 51.6 117.2 52.2 116.7 52.9 116.3 53.6 115.9 54.4 115.6 54.8 115.5 55.1 115.2 55.8 115 56.4 114.9 57 114.9 57 114.8 57.4 114.8 57.8 115 57.9 115.5 58 116.6 58.3 117.4 58.7 117.7 58.9 117.7 58.8 117.6 58.7 117.5 58.6 117.3 58.4 117.5 58.6 117.7 58.7 117.9 58.9 117.9 58.9 118 59.1 118.2 59.3 118 59 118 58.7"/><polygon class="cls-12" points="60.1 115 60.1 110.6 60.1 107.1 60.1 104.4 60.1 102.8 60.1 102.2 59.4 103.2 58.9 104.4 58.8 105.7 58.8 106.1 58.8 107.6 58.8 109.9 58.8 113 58.8 116.9 58.8 121.2 58.8 122.9 58.9 123 58.9 123 59.3 123.3 59.4 123.3 59.5 123.4 60.1 123.8 60.1 119.9 60.1 115"/><polygon class="cls-13" points="83.4 72 83.6 72.5 84 72.9 84.4 73.2 84.8 73.4 85.3 73.6 85.8 73.6 86.3 73.6 86.8 73.4 87.2 73.2 87.6 72.9 88 72.5 88.2 72 88.3 71.5 88.4 71 88.3 70.5 88.2 70 88 69.6 87.6 69.2 87.2 68.9 86.8 68.6 86.3 68.5 85.8 68.4 85.3 68.5 84.8 68.6 84.4 68.9 84 69.2 83.6 69.6 83.4 70 83.3 70.5 83.2 71 83.3 71.5 83.4 72"/><polygon class="cls-13" points="50.8 72 51 72.5 51.3 72.9 51.7 73.2 52.2 73.4 52.7 73.6 53.2 73.6 53.7 73.6 54.2 73.4 54.6 73.2 55 72.9 55.3 72.5 55.6 72 55.7 71.5 55.8 71 55.7 70.5 55.6 70 55.3 69.6 55 69.2 54.6 68.9 54.2 68.6 53.7 68.5 53.2 68.4 52.7 68.5 52.2 68.6 51.7 68.9 51.3 69.2 51 69.6 50.8 70 50.6 70.5 50.6 71 50.6 71.5 50.8 72"/><polygon class="cls-13" points="29.3 41 29.4 40.8 29.6 40.4 29.7 39.8 29.9 39.2 30.1 38.4 30.3 37.6 30.5 36.8 30.7 35.9 30.8 35.1 31 34.4 31.1 33.7 31.2 33.2 31.3 32.8 31.3 32.6 31.2 32.5 31.2 32.6 31.1 32.8 31 33.2 30.8 33.7 30.6 34.4 30.4 35.1 30.2 35.9 30 36.8 29.9 37.6 29.7 38.4 29.5 39.2 29.4 39.8 29.3 40.4 29.3 40.8 29.2 41 29.3 41.1 29.3 41"/><polygon class="cls-13" points="107.8 33.2 107.9 33.7 108 34.4 108.2 35.1 108.3 35.9 108.5 36.8 108.7 37.6 108.9 38.4 109.1 39.2 109.3 39.8 109.4 40.4 109.6 40.8 109.7 41 109.7 41.1 109.7 41 109.7 40.8 109.7 40.4 109.6 39.8 109.5 39.2 109.3 38.4 109.1 37.6 109 36.8 108.8 35.9 108.6 35.1 108.4 34.4 108.2 33.7 108 33.2 107.9 32.8 107.8 32.6 107.7 32.5 107.7 32.6 107.7 32.8 107.8 33.2"/><polygon class="cls-15" points="33.5 35.1 33.3 36 33.3 36.1 33 37.3 33.3 37.3 34.2 37.4 35.4 37.5 36.9 37.7 38.7 38 39.3 38.1 40.8 38.2 43.2 38.4 45.9 38.6 48.8 39 50.7 39.2 51.9 39.2 55.2 39.4 58.6 39.7 60.7 39.8 62.2 39.8 65.8 39.9 69.5 40 73.1 39.9 76.8 39.8 78.2 39.8 80.3 39.7 83.8 39.4 87.1 39.2 88.2 39.2 90.2 39 93.1 38.6 95.7 38.4 98.1 38.2 99.6 38.1 100.3 38 102.1 37.7 103.6 37.5 104.8 37.4 105.6 37.3 106 37.3 105.7 36.1 105.7 36 105.6 35.4 105.5 34.8 105.4 34.6 101 24.6 95.1 15.9 89.4 11.1 84.1 8.7 79.3 7.5 79.3 7.5 79.2 7.5 76.1 7.2 78.9 7.5 75.1 7.1 76.1 7.2 79.3 7.5 78.1 7.4 75.3 7.1 69.5 6.9 63.6 7.1 60.8 7.4 59.6 7.5 62.8 7.2 63.9 7.1 60 7.5 62.8 7.2 59.8 7.5 59.6 7.5 59.6 7.5 54.9 8.7 49.5 11.1 43.8 15.9 37.9 24.6 33.6 34.4 33.5 34.8 33.5 35.1"/></svg>