<svg id="Layer_1" data-name="Layer 1" xmlns="http://www.w3.org/2000/svg" viewBox="0 0 124.1 153.1"><defs><style>.cls-1{fill:#ededf4;}.cls-2{fill:none;}.cls-3{fill:#9399a8;}.cls-4{fill:#605e73;}.cls-5{fill:#7b7a88;}.cls-6{fill:#9491a4;}.cls-7{fill:#4b3a2d;}.cls-8{fill:#b5b5c1;}.cls-9{fill:#d9d9df;}.cls-10{fill:#43434b;}.cls-11{fill:#5e5c6a;}.cls-12{fill:#2affff;}.cls-13{fill:#46bbed;}.cls-14{fill:#6d5c46;}.cls-15{fill:#54d9ff;opacity:0.5;}</style></defs><rect class="cls-1" x="-44" y="-395.6" width="1000" height="800"/><polygon class="cls-2" points="109.1 72.8 108.3 73.9 108.2 74 108.8 73.2 109 72.9 109.7 71.9 109.8 71.7 109.1 72.8"/><polygon class="cls-2" points="19.5 76.3 21.5 73.8 23.7 70.9 21.5 73.8 19.5 76.3"/><polygon class="cls-2" points="52.9 37.3 52.8 37.3 51.1 36.8 52.8 37.3 52.9 37.3"/><polygon class="cls-2" points="104.6 4.6 104.3 4.6 104.1 4.5 104.3 4.6 104.6 4.6"/><polygon class="cls-2" points="117.6 62.2 117.9 61.8 118.5 60.9 118.9 60.5 117.9 61.7 117.6 62.2"/><polygon class="cls-2" points="120.3 52 120.3 52 120.6 52.7 120.3 52"/><polygon class="cls-2" points="98.6 73.1 99.6 71.5 99.5 71.6 98.5 73.2 98 74 97.9 74.2 98 74.1 98.6 73.1"/><polygon class="cls-2" points="86.6 100.2 86.7 99.5 86.7 99.5 86.6 99.5 83.1 97 80.7 96.9 80.1 100.8 86.8 100.8 86.8 100.3 86.6 100.2"/><polygon class="cls-2" points="112.6 48.1 111.8 48.2 112.2 48.1 112.9 48 112.6 48.1"/><polygon class="cls-2" points="113.5 49.1 113.5 49.1 112.9 49.1 113.5 49.1"/><polygon class="cls-3" points="87.4 104.9 87.4 104.6 87.2 103.7 87.1 102.7 86.4 102.8 82.8 104.4 79.5 107.1 76.6 110.6 74.2 115 72.4 119.9 71.7 123.8 71.8 123.7 72.1 123.6 73 123.3 74.1 123.1 74.1 123 74.3 123 75.1 122.9 75.1 122.9 75.9 122.9 81.4 122.9 81.7 122.9 83.9 127.2 84.4 128.2 84.5 128.3 84.9 129.1 85.8 130.2 86.7 131.2 87.7 132 88.8 132.6 89.9 132.9 91 133 91.9 133 91.8 132.9 91.2 132.5 90.7 131.9 90.4 131.3 90.2 131.2 89.8 130.9 89.5 130.5 89.2 130.1 89 129.5 88.8 128.9 88.8 128.3 88.8 127.7 89 127.1 89.2 126.5 89.5 126.1 89.7 125.8 89.7 121 87.6 106.2 87.4 104.9"/><polygon class="cls-4" points="88.8 128.9 89 129.5 89.2 130.1 89.5 130.5 89.8 130.9 90.2 131.2 90.4 131.3 90.7 131.9 91.2 132.5 91.8 132.9 91.9 133 92.5 133.2 93.2 133.3 95.8 133.3 96.8 133.3 96.1 133.2 95.5 132.9 94.9 132.5 94.3 131.9 93.9 131.1 93.5 130.2 93.3 129.3 93.3 128.3 89.7 128.3 88.8 128.3 88.8 128.9"/><polygon class="cls-5" points="84.6 130 84.9 131.7 85.5 133.2 86.3 134.5 87.2 135.6 88.3 136.4 89.5 136.9 90.7 137.1 91.9 136.9 93.1 136.4 94.1 135.6 95.1 134.5 95.8 133.3 93.2 133.3 92.5 133.2 91.9 133 91 133 89.9 132.9 88.8 132.6 87.7 132 86.7 131.2 85.8 130.2 84.9 129.1 84.5 128.3 84.4 128.3 84.6 130"/><polygon class="cls-6" points="89.2 126.5 89 127.1 88.8 127.7 88.8 128.3 89.7 128.3 89.7 127.7 89.7 127.1 89.7 126.5 89.7 126.1 89.7 125.8 89.5 126.1 89.2 126.5"/><polygon class="cls-4" points="86.8 100.8 86.9 100.9 86.9 101.2 87 101.8 87.1 102.7 87.2 103.7 87.4 104.6 87.4 104.9 87.6 106.2 89.7 121 93.3 121 90.8 103 86.8 100.3 86.8 100.8"/><path class="cls-5" d="M104.3,93l-1.9.6h-.3v1.7l-.3,1.6-.5,1.6-.7,1.5-1,1.5-1.1,1.4-1.3,1.2L96,105l-1.4.7L90.8,103l2.5,18H89.7v7.3h3.6v1l.2.9.4.9.4.8.6.6.6.4.6.3h1.4l.7-.3.6-.4.3-.4.2-.2.5-.8.3-.9.2-.9h0V121l1.3-9.5.2-1.2v-1.7l2.1-15.1v-.4Zm-7.5,38.5h-.4l-.4-.2-.4-.3-.4-.4L95,130l-.2-.5-.2-.6v-1.2l.2-.6.2-.6.2-.4.4-.4.4-.3.4-.2h1.4l-.5.2-.3.3-.4.4-.3.4-.2.6v2.4l.2.5.3.5.4.4.3.3.5.2h-1Z"/><polygon class="cls-7" points="95.1 134.5 94.1 135.6 93.1 136.4 91.9 136.9 90.7 137.1 90.1 137.1 88.9 136.9 87.7 136.4 86.6 135.6 85.7 134.5 84.9 133.2 84.3 131.7 84 130 83.8 128.3 83.9 127.2 81.7 122.9 81.4 122.9 81.3 123.2 80.8 125.7 80.6 128.3 80.8 130.9 81.3 133.4 82.2 135.7 83.4 137.7 84.8 139.4 86.5 140.6 88.2 141.4 90.1 141.7 91.9 141.4 93.7 140.6 95.3 139.4 96.8 137.7 97.9 135.7 98.8 133.4 99.1 132.1 98.8 132.5 98.2 132.9 97.5 133.2 96.8 133.3 95.8 133.3 95.1 134.5"/><polygon class="cls-6" points="96 127.7 96.1 127.1 96.3 126.5 96.6 126.1 97 125.7 97.3 125.4 97.8 125.2 98.2 125.1 96.8 125.1 96.4 125.2 96 125.4 95.6 125.7 95.2 126.1 95 126.5 94.8 127.1 94.6 127.7 94.6 128.3 96 128.3 96 127.7"/><polygon class="cls-4" points="97.3 131.2 97 130.9 96.6 130.5 96.3 130.1 96.1 129.5 96 128.9 96 128.3 94.6 128.3 94.6 128.9 94.8 129.5 95 130.1 95.2 130.5 95.6 130.9 96 131.2 96.4 131.4 96.8 131.5 98.2 131.5 97.8 131.4 97.3 131.2"/><polygon class="cls-3" points="102 109.3 101.9 110.3 101.7 111.5 100.4 121 100.4 123 100.4 122.9 104.2 122.9 104.9 122.9 105.3 122.9 105.5 122.9 106.9 122.9 107.1 122.9 107.6 123 107.7 123 107.8 123.1 108.3 123.3 108.3 123.4 108.5 123.8 107.8 119.9 106 115 103.6 110.6 102.1 108.8 102 109.3"/><polygon class="cls-5" points="75.1 96.6 72.1 96 67.3 95.1 66.6 94.8 68 105.3 70 103.7 70.7 103.3 74.4 101.5 75.2 101.4 79.2 100.8 80.1 100.8 80.7 96.9 75.1 96.6"/><polygon class="cls-4" points="68 105.3 66.6 94.8 62.7 93.5 64.9 108.6 66.6 106.4 68 105.3"/><polygon class="cls-8" points="61.7 126.1 62.2 126.2 62.3 126.2 63.1 126.3 63.7 126.3 64.9 126.2 65.3 126.2 66.1 126 66.9 125.8 67.3 125.6 68.1 125.3 68.5 125.1 68.6 125 69.1 124.8 69.2 124.7 70 124.4 70.3 124.3 70.6 124.2 70.8 124.1 71.7 123.8 72.4 119.9 74.2 115 76.6 110.6 79.5 107.1 82.8 104.4 86.4 102.8 87.1 102.7 87 101.8 86.9 101.2 86.9 100.9 86.8 100.8 80.1 100.8 79.2 100.8 75.2 101.4 74.4 101.5 70.7 103.3 70 103.7 68 105.3 66.6 106.4 64.9 108.6 63.7 110.1 61.2 114.5 61 115 59.2 119.9 58.4 123.8 58.5 124.2 58.5 124.3 58.8 124.8 59.1 125 59.2 125.1 59.5 125.3 60.6 125.8 61.2 125.9 61.3 126 61.7 126.1"/><polygon class="cls-9" points="47 39 47.5 39.2 47.8 39.2 49 39.4 50.5 39.7 51.6 39.8 52.3 39.8 52.5 39.8 54.5 39.9 57 40 58.7 39.9 59.7 39.9 62.7 39.8 62.7 39.8 62.1 38.5 61.8 37.8 61.7 37.3 60.1 37.3 57.9 37.3 57.5 37.3 54.6 37.3 52.9 37.3 52.8 37.3 51.1 36.8 51 37.4 51 37.4 49.4 37.5 48.1 37.7 47.2 38 47 38.1 46.6 38.2 46.4 38.4 46.5 38.6 47 39"/><polygon class="cls-9" points="52.9 37.3 53.2 36 53.7 34.8 54.3 33.6 55 32.6 55.9 31.8 56.7 31.2 57.7 30.8 55.9 30.3 55 30.7 54.1 31.3 53.2 32.1 52.5 33.1 51.9 34.2 51.4 35.5 51.1 36.8 52.8 37.3 52.9 37.3"/><polygon class="cls-5" points="116.3 38.6 116.2 39.3 115.9 40.5 115.9 40.6 116.7 40.6 118.3 40.8 119.6 41 120.5 41.2 120.7 41.3 121.1 41.4 121.4 41.7 120.6 38.4 120.4 38.2 120 38.1 119.8 38 118.9 37.7 117.6 37.5 116.3 37.4 116.3 38.1 116.3 38.6"/><polygon class="cls-8" points="104.1 4.5 104.3 4.6 104.3 4.6 104.3 4.6 104.1 4.5"/><polygon class="cls-8" points="104.6 4.6 104.8 4.5 105 4.4 105.2 4.3 105.3 4.3 105.6 4.4 105.8 4.4 106 4.4 106.3 4.3 106.4 4.2 106.4 4.3 106.4 4.3 106.8 3.8 106.9 3.7 107.2 3.2 107.3 2.6 107.3 2 107.2 1.4 106.8 0.9 106.4 0.5 106.2 0.4 105.7 0.1 105.2 0 105.1 0 104.9 0 104.6 0 104.4 0.1 104.2 0.1 104.1 0.2 103.6 0.5 103.2 0.9 103.1 1 102.8 1.5 102.7 2.1 102.7 2.7 102.8 3.3 103.2 3.8 103.6 4.3 104.1 4.5 104.3 4.6 104.6 4.6"/><polygon class="cls-8" points="56.7 31.2 55.9 31.8 55 32.6 54.3 33.6 53.7 34.8 53.2 36 52.9 37.3 54.6 37.3 57.5 37.3 57.9 37.3 60.1 37.3 61.7 37.3 61.1 35 60.8 32.7 60.7 32.1 60.8 31.7 60.2 31.2 59.5 30.8 57.7 30.8 56.7 31.2"/><polygon class="cls-5" points="46.2 42.2 46.7 42.5 47.1 42.5 48.3 42.7 49.8 42.9 50.6 43.1 50.9 43.1 51.7 43.1 54 43.1 56.5 43.1 59.3 43.1 62.3 43.1 63.6 43.1 64.2 43.1 65.5 42.9 68.9 42.7 72.4 42.5 73.8 42.5 76.1 42.2 79.8 41.9 83.5 41.7 87.2 41.4 89.8 41.3 90.9 41.2 94.4 41 97.9 40.8 101.2 40.6 104.4 40.5 105.7 40.5 105.3 39.9 104.8 38.6 104.5 37.3 104.5 37.3 104 37.3 102.4 37.4 100.9 37.4 98.9 37.5 97.6 37.5 94.3 37.7 94.2 37.7 93.2 37.8 90.7 38 89.6 38.1 89.1 38.1 87.1 38.2 83.5 38.4 79.8 38.6 78 38.8 76.2 39 74 39.2 73 39.2 72.7 39.2 69.2 39.4 68.7 39.5 65.9 39.7 65.5 39.7 64 39.8 63.4 39.8 62.7 39.8 62.7 39.8 59.7 39.9 58.7 39.9 57 40 54.5 39.9 52.5 39.8 52.3 39.8 51.6 39.8 50.5 39.7 49 39.4 47.8 39.2 47.5 39.2 47 39 46.5 38.6 46.4 38.4 45.6 41.7 45.7 41.9 46.2 42.2"/><path class="cls-10" d="M47,67.5l.3.4.3.5.3.5.2.7.2.7V71l.2.8v1.9l-.2.5h-.1v.2l-.2.2H46.1v.9l.6,1.7h5.2l-.8-2.2-.6-1.6-.9-2-.5-1.1-.6-1.9h-.1l-.9-2.2L46.8,65l-.4-.2-.4-.2-.5.4-.3.7v1.6h2Z"/><polygon class="cls-9" points="48.4 70.5 48.3 70.3 48.1 69.6 47.9 68.9 47.6 68.4 47.3 67.9 47 67.5 46.8 67.4 46.7 67.3 46.1 67.3 44.3 67.3 44.8 67.5 45.2 67.9 45.6 68.4 46 68.9 46.2 69.6 46.4 70.3 46.4 71 48.5 71 48.4 70.5"/><polygon class="cls-3" points="46 74.8 46.1 74.8 46.2 74.8 46.4 74.8 46.8 74.8 47.4 74.8 47.9 74.8 48.1 74.8 48.2 74.7 48.4 74.5 48.4 74.3 48.5 74.2 48.7 73.7 48.7 73.1 48.7 72.5 48.7 71.8 48.5 71 46.4 71 46.4 71.8 46.2 72.5 46 73.1 45.6 73.7 45.2 74.2 44.8 74.5 44.3 74.7 43.7 74.8 45.7 74.8 45.8 74.8 46 74.8"/><path class="cls-10" d="M80.8,77.4l-1-1.7-.3-.5-1.3-1.8L77,71.6l-.9-1.1-.3-.4-.9-1.5-2-2.2-1-.7-1-.7-1.8-.4-1,.2-.7.2L66,66.4l-1,1.9.3-.4.5-.4.5-.2h3.9l.8.2.7.4.3.2.4.3.6.5.5.7.3.7v.2l.2.5v1.5l-.3.6v.2l-.2.4-.5.5-.6.3h0l-.7.2H66.3l-.5-.2h-.1l-.4-.2-.4-.5-.3-.6-.2-.5h0l-.2-.7v3.4l.2,2.2Z"/><polygon class="cls-3" points="69 74.8 70.4 74.8 71 74.8 71.8 74.7 72.5 74.5 72.5 74.5 73.1 74.2 73.6 73.7 73.8 73.3 73.9 73.1 74.2 72.5 74.2 71.8 74.1 71 69.5 71 69.4 71.8 69.3 72.5 69 73.1 68.7 73.7 68.3 74.2 67.8 74.5 67.3 74.7 66.8 74.8 67.7 74.8 69 74.8"/><polygon class="cls-9" points="73.9 70.5 73.8 70.3 73.5 69.6 73 68.9 72.4 68.4 72 68.1 71.7 67.9 71 67.5 70.2 67.3 69.5 67.3 68.3 67.3 66.8 67.3 67.3 67.3 67.8 67.5 68.3 67.9 68.7 68.4 69 68.9 69.3 69.6 69.4 70.3 69.5 71 74.1 71 73.9 70.5"/><polygon class="cls-5" points="101.8 69.1 102.3 69.2 103 69.3 103 69.3 103.2 69.4 103.6 69.5 104.4 69.8 105.2 70.1 106 70.5 106.7 70.9 107.4 71.3 108 71.7 108.4 72 108.8 72.3 109 72.6 109.1 72.8 109.8 71.7 109.7 71.9 110.8 70.5 111.2 70 111.3 69.8 111.5 69.6 111.6 69.4 111.6 69.2 111.4 68.9 111.1 68.6 111 68.5 111 68.5 110.5 68.2 109.9 67.8 109.3 67.4 108.5 67.1 107.7 66.7 106.9 66.4 106.1 66.2 105.4 66 104.7 65.9 104.2 65.8 103.8 65.9 103.5 66 103 66.7 102.2 67.8 101.3 69 101.2 69.1 101.5 69.1 101.8 69.1"/><polygon class="cls-3" points="104.2 65.8 104.7 65.9 105.4 66 106.1 66.2 106.9 66.4 107.7 66.7 108.5 67.1 109.3 67.4 109.9 67.8 110.5 68.2 111 68.5 111 68.5 111.1 68.6 111.4 68.9 111.6 69.2 111.6 69.4 111.5 69.6 112.6 68.2 114 66.5 114.3 66.1 115.3 64.9 116.2 63.9 116.4 63.6 116.4 63.3 116.2 62.9 115.9 62.5 115.5 62.1 114.9 61.7 114.8 61.8 114.7 61.7 114.2 61.4 113.4 61 112.5 60.7 111.6 60.5 110.8 60.3 110 60.2 109.2 60.2 108.6 60.3 108.1 60.4 107.8 60.6 107.6 60.8 106.8 61.8 106.1 62.6 105.9 62.8 104.6 64.6 103.5 66 103.8 65.9 104.2 65.8"/><polygon class="cls-8" points="114.4 48.4 113.7 48.1 112.9 48 112.2 48.1 111.5 48.4 110.9 48.9 110.4 49.6 110 50.4 109.7 51.3 109.5 52.3 109.5 53.3 109.7 54.3 109.9 55.3 110.3 56.2 110.8 56.9 111.2 56.5 111.3 56.3 111.1 56.1 110.8 55.3 110.5 54.6 110.4 53.7 110.3 52.9 110.4 52.1 110.6 51.3 110.9 50.6 111.3 50 111.8 49.6 112.3 49.3 112.9 49.1 113.5 49.1 114.7 49.2 115.4 49.3 115.1 48.9 114.4 48.4"/><path class="cls-5" d="M115.9,77.4H106l.3-.5v-.2l-.2-.2-.4-.3-.5-.3-.5-.4-.7-.4-.7-.4-.8-.4-.7-.3-.8-.3-.6-.3-.6-.2H98.6l-.6,1h-.1L97,75.8,96.3,77l-.2.4H46.6l5.3,1.8-.8,2.9H93.5l1.6-2.9.6-1.2h1.1l.5.2.7.3.7.4.7.4.7.4.8.4.6.4.6.4.5.3.3.3.3.2v.2h12.6l-.8-2.9,5.3-1.8Z"/><path class="cls-8" d="M121.4,41.7l-.3-.3h-.6l-.9-.2-1.3-.2-1.6-.2h-.8l.3-1.2V36.8l-.3-1.3-.5-1.3-.6-1.1-.8-1-.9-.8-.9-.6-1-.4h-2l-.9.4-.8.6-.6.8-.5,1-.3,1.1v2.6l.3,1.3.5,1.2.6,1.2.8,1,.9.8,1,.6,1,.4h1.9l-1.6.5-.9.2h0l-1-.2-1-.3-.9-.6h-.1l-.9-.8-.8-1-.2-.5h-4.5l-3.3.2-3.5.2-3.5.2H87.2l-3.7.3-3.7.2-3.7.3-2.3.3H72.4l-3.5.2-3.4.2-1.3.2H50.6l-.8-.2-1.5-.2-1.2-.2h-.4l-.5-.3-.5-.3v-.2l-1.8,7.7V50h0v4.5h-.1v4.1h0l-.2,2.9.9,5.5h-.6l-.5.2-.4.4-.4.5-.4.5-.2.7-.2.7v1.5l.2.7.2.6.4.6.4.5.4.3.5.2h1.1l.5-.2.4-.3.4-.5.4-.6.2-.6.2-.7V70.3l-.2-.7-.2-.7-.4-.5-.4-.5-.4-.4-.5-.2H45V65.7l.3-.7.5-.4.4.2.4.2.9,1.4.9,2.2h.1l.6,1.9.5,1.1.9,2,.6,1.6.8,2.2H64.3l-.2-2.2V71.8l.2.7h0l.2.5.3.6.4.5.4.2h.1l.5.2h1l.5-.2.5-.3.4-.5.3-.6.3-.6V69.6l-.3-.7-.3-.5-.4-.5-.5-.4-.5-.2h-1l-.5.2-.5.4-.3.4,1-1.9L67.4,65l.7-.2,1-.2,1.8.4,1,.7,1,.7,2,2.2.9,1.5.3.4.9,1.1,1.2,1.8,1.3,1.8.3.5,1,1.7H96.1l.2-.4.7-1.2.9-1.6V74l.5-.8,1-1.6h.1l.7-1,.9-1.3h.1l.9-1.2.8-1.1.5-.7,1.1-1.4,1.3-1.8.2-.2.7-.8.8-1,.2-.2.7-.8-.8-.7-.8-1.2-.7-1.3-.4-1.5h-.1l-.2-1.5V51.8l.3-1.3.4-1.1v-.3l.6-1.2.8-1,.4-.3.5-.4,1.1-.5h2.7l1.1.5h.2l1,.7.9,1,.2.2.5.8.2.3h.2l1,.3.7.4h0l.6.4h.1l.6.5.5.7h0l.3.7.4.7v3.2l-.3.8v.2l-.3.7-.2.2-.4.8-.5.8-.3.4-.4.4-.6.9-.3.4-.5.5-.6.8-.3.4-.9,1-1,1.2-.3.4-1.4,1.7-1.1,1.4-.2.2V70l-.4.5-1.1,1.4-.7,1-.2.3-.6.8-1,1.5a13.2,13.2,0,0,0-1.2,1.9h14.4l2.3-6.9,1.4-8.7-1-12.4Zm-77,26.9.4.3.2.3.3.4v2.9l-.3.4-.2.3-.4.2-.3.2h-.7l-.4-.2-.3-.2-.3-.3-.2-.4V72l-.2-.5v-1l.2-.5v-.4l.2-.4.3-.3.3-.3h1.4ZM65,70.5V70l.2-.4.2-.4.3-.3.3-.3h1.4l.3.3.3.3.2.4.2.4v2l-.2.5-.2.4-.3.3-.3.2-.3.2h-.7l-.4-.2-.3-.2-.3-.3-.2-.4-.2-.5V70.5Zm48-29.7-.5.2h-1.3l-.7-.2-.6-.4-.6-.6-.5-.6-.4-.8-.3-.8-.2-.8V35.1l.2-.7.3-.7.4-.5.5-.4.6-.2h1.3l.6.2.6.4.6.5.5.7.4.7.4.8.2.9v1.6l-.2.8-.3.6-.5.6Z"/><polygon class="cls-3" points="118 50.3 117.7 50.3 117 50.3 116.2 50.4 115.4 50.7 114.6 51.1 114 51.6 113.4 52.2 113 52.9 112.7 53.6 112.5 54.4 112.5 54.7 112.5 54.7 112.3 54.9 112.3 55 112.3 55 111.9 55.5 111.9 55.5 111.8 55.7 111.6 55.9 112.1 55.6 112.7 55.3 113.4 55.1 114.3 55 115.2 54.9 115.7 55 116.1 55 117 55.2 117.9 55.4 118.6 55.7 119.3 56.1 119.8 56.5 119.8 56.6 120.1 57.1 120.3 57.6 120.3 58.1 120.1 58.5 120.3 58.3 120.6 57.6 120.7 57.4 121 56.6 121.1 55.9 121.2 55 121.1 54.2 121 53.4 120.6 52.7 120.3 52 120.6 52.7 120.3 52 120.3 52 119.8 51.3 119.2 50.8 119.1 50.7 118.4 50.4 118 50.3"/><polygon class="cls-8" points="46.3 75.7 46.2 75.2 46.1 74.8 46 74.8 45.8 74.8 45.7 74.8 46.6 77.4 46.9 77.4 46.3 75.7"/><polygon class="cls-3" points="29.9 64.6 29.9 64.1 29.8 63.6 29.5 63 29.1 62.4 28.6 61.8 28 61.1 27.4 60.6 27 60.3 26.7 60.1 26 59.7 25.4 59.4 24.7 59.1 24.2 59.1 23.7 59.1 23.3 59.2 21.4 61 20.3 62.1 20.7 62 21.2 61.9 21.8 62 22.4 62.1 23.1 62.4 23.8 62.8 24.5 63.3 25.1 63.9 25.7 64.5 26.2 65.1 26.6 65.7 26.8 66.3 26.9 66.9 26.9 67.3 26.7 67.7 27.1 67.4 28.7 65.9 29.5 65.3 29.8 65 29.9 64.6"/><polygon class="cls-5" points="32.7 62.6 32.6 62.4 32.6 62.2 32.5 61.6 32.2 61 31.8 60.4 31.3 59.8 30.7 59.2 30 58.6 29.4 58.1 28.7 57.6 28.1 57.3 27.5 57.1 26.9 56.9 26.5 56.9 26.2 57.1 25.3 57.7 23.3 59.2 23.3 59.2 23.7 59.1 24.2 59.1 24.7 59.1 25.4 59.4 26 59.7 26.7 60.1 27 60.3 27.4 60.6 28 61.1 28.6 61.8 29.1 62.4 29.5 63 29.8 63.6 29.9 64.1 29.9 64.6 29.8 65 29.5 65.3 30.4 64.6 32.1 63.4 32.4 63.2 32.6 63 32.7 62.6"/><path class="cls-3" d="M98.8,73.1h.9l.6.2.6.3.8.3.7.3.8.4.7.4.7.4.5.4.5.3.4.3.2.2v.2l.9-1.4,1-1.5h.1l.8-1.1v-.2l-.2-.3-.4-.3-.4-.3-.6-.4-.7-.4-.7-.4-.8-.4-.8-.3-.8-.3h-2.4l-.9,1.3-.7,1-1,1.6Z"/><polygon class="cls-5" points="108.6 60.3 109.2 60.2 110 60.2 110.8 60.3 111.6 60.5 112.5 60.7 113.4 61 114.2 61.4 114.7 61.7 114.8 61.8 114.9 61.7 115.5 62.1 115.9 62.5 116.2 62.9 116.4 63.3 116.4 63.6 116.2 63.9 116.5 63.5 117.1 62.7 117.6 62.2 117.9 61.7 118.9 60.5 119.2 60.1 119.7 59.3 120.1 58.5 120.3 58.1 120.3 57.6 120.1 57.1 119.8 56.6 119.8 56.5 119.3 56.1 118.6 55.7 117.9 55.4 117 55.2 116.1 55 115.7 55 115.2 54.9 114.3 55 113.4 55.1 112.7 55.3 112.1 55.6 111.6 55.9 111.8 55.7 111.9 55.5 111.9 55.5 112.3 55 112.3 55 112.3 54.9 112.5 54.7 112.5 54.7 112.5 54.4 112.7 53.6 113 52.9 113.4 52.2 114 51.6 114.6 51.1 115.4 50.7 116.2 50.4 117 50.3 117.7 50.3 118 50.3 118.4 50.4 119.1 50.7 118.5 50.3 118.5 50.3 117.8 49.9 116.8 49.6 116.7 49.5 116.6 49.5 116.6 49.5 116.2 49.4 116.1 49.4 115.8 49.3 115.4 49.3 114.7 49.2 113.5 49.1 113.5 49.1 112.9 49.1 112.3 49.3 111.8 49.6 111.3 50 110.9 50.6 110.6 51.3 110.4 52.1 110.3 52.9 110.4 53.7 110.5 54.6 110.8 55.3 111.1 56.1 111.3 56.3 111.2 56.5 110.8 56.9 110.8 57 110.6 57.2 110.2 57.7 110.1 57.8 109.9 58 109.6 58.4 109.3 58.8 109 59.1 108.9 59.2 108.7 59.5 108.5 59.7 108.5 59.8 107.8 60.6 108.1 60.4 108.6 60.3"/><polygon class="cls-3" points="108.7 59.5 108.9 59.2 109 59.1 109.3 58.8 109.6 58.4 109.9 58 110.1 57.8 110.2 57.7 110.6 57.2 110.8 57 110.8 56.9 110.3 56.2 109.9 55.3 109.7 54.3 109.5 53.3 109.1 53.3 108.6 53.3 108.2 53.3 107.8 53.3 107.3 53.4 106.8 53.4 106.3 53.4 105.9 53.5 105.5 53.5 105.7 55 105.8 55.1 106.2 56.6 106.9 57.9 107.7 59.1 108.5 59.8 108.5 59.7 108.7 59.5"/><polygon class="cls-11" points="86.3 85.3 85.4 86 85 86.3 83.7 87.4 83.5 87.7 82.6 88.8 82.1 89.6 81.6 90.3 80.9 91.9 80.7 92.7 80.4 93.5 80.2 95 82.8 94 83 93.1 83.3 92.1 83.8 91.1 84.3 90.2 85 89.3 85.8 88.6 86.7 88 87.5 87.6 88.3 87.4 89.1 87.4 89.8 87.6 90.5 87.9 90.6 88.1 90.9 88.4 91.1 88.7 91.3 89.1 91.4 89.5 91.5 89.9 91.5 90.4 91.5 90.8 91.4 91.3 91.3 91.8 91.2 92.3 91 92.8 90.8 93.3 90.6 93.8 90.3 94.2 90 94.7 89.6 95.1 89.3 95.5 88.9 95.9 88.5 96.2 88.1 96.5 87.7 96.8 87.2 97 86.8 97.2 86.7 99.5 86.7 99.5 86.6 100.2 88 99.5 89.3 98.6 90.6 97.4 91.7 96.1 92.7 94.6 93.4 93 93.9 91.4 94.2 89.8 94.1 88.4 93.8 87.1 93.3 86 92.5 85.1 92.3 85 91.8 84.7 91.5 84.5 91.4 84.5 91.2 84.5 91.2 84.5 90.3 84.3 89.1 84.3 87.9 84.6 87.7 84.7 86.3 85.3"/><polygon class="cls-10" points="91.4 84.5 91.5 84.5 91.8 84.7 92.3 85 92.5 85.1 93.3 86 93.8 87.1 94.1 88.4 94.2 89.8 93.9 91.4 93.4 93 92.7 94.6 91.7 96.1 90.6 97.4 89.3 98.6 88 99.5 86.6 100.2 86.8 100.3 90.8 103 94.6 105.7 96 105 97.3 104.1 98.6 102.9 99.7 101.5 100.7 100 101.4 98.5 101.9 96.9 102.2 95.3 102.2 93.8 102.1 93.6 102.4 93.6 104.3 93 104.3 93.1 105.3 92.7 107.2 91.3 107.7 90.9 108 90.7 108.1 90.5 108 90.5 108 90.5 107.7 90.4 107.3 90.4 101.3 91.4 101.3 91.4 101.2 91.4 100.5 90.6 99.8 90.1 100.1 89.6 101.4 87.3 101.3 87.1 101 86.8 100.7 86.6 100.6 86.5 100.5 86.5 100.4 86.4 100 86.1 100 86.1 99.5 85.8 99.3 85.6 98.9 85.4 98.5 85.1 98.3 85 97.6 84.6 97.5 84.6 96.8 84.2 96.8 84.1 96.1 83.8 95.9 83.7 95.4 83.4 95 83.3 94.7 83.1 94.3 82.9 94.2 82.9 93.8 82.7 93.6 82.6 93.4 82.6 93.3 82.5 93.3 82.5 93 82.4 92.6 82.3 92.4 82.3 92.3 82.4 91.2 84.5 91.2 84.5 91.4 84.5"/><polygon class="cls-10" points="109.2 30.3 110.4 30.3 106.4 4.3 106.4 4.2 106.3 4.3 106 4.4 105.8 4.4 105.6 4.4 105.3 4.3 105.2 4.3 105 4.4 104.8 4.5 104.6 4.6 104.3 4.6 104.3 4.6 108.3 30.6 109.2 30.3 109.2 30.3"/><polygon class="cls-11" points="2.7 79 2.8 78.6 3 78 3.3 77.4 3.8 76.7 4.5 75.9 5.2 75.2 6 74.4 6.9 73.7 7.7 73.1 8.6 72.6 9.4 72.2 10.1 72 10.6 71.8 11.1 71.9 11.4 72 11.5 72.3 11.5 72.4 11.5 72.8 11.5 72.8 11.3 73.3 11.3 73.4 10.9 74 10.9 74 10.4 74.7 10.4 74.7 9.8 75.4 9.7 75.5 9 76.2 9 76.2 8.2 76.9 8.9 77.7 10.2 76.5 11.4 75.3 12.4 74.1 13.3 72.9 13.8 71.9 14.2 71 14.2 70.3 14 69.8 13.8 69.7 13.5 69.5 13.4 69.5 13.1 69.5 13 69.5 12.8 69.5 11.9 69.7 10.7 70.1 9.5 70.7 8.1 71.6 6.7 72.6 5.3 73.7 4 74.9 2.8 76.1 1.8 77.3 1 78.4 0.4 79.5 0.1 80.3 0 81.1 0.2 81.6 2.9 79.3 2.7 79"/><polygon class="cls-8" points="103.6 110.6 103.3 110.1 102.1 108.6 102.1 108.8 103.6 110.6"/><polygon class="cls-5" points="26.9 66.9 26.8 66.3 26.6 65.7 26.2 65.1 25.7 64.5 25.1 63.9 24.5 63.3 23.8 62.8 23.1 62.4 22.4 62.1 21.8 62 21.2 61.9 20.7 62 20.3 62.1 19.5 62.9 19.1 63.3 17.4 65.4 16.7 66.2 17 65.9 17.5 65.7 18 65.6 18.6 65.6 19.3 65.8 20 66 20.7 66.4 21.4 66.9 22.1 67.4 22.6 68 23.1 68.6 23.5 69.3 23.7 69.9 23.8 70.4 23.7 70.9 23.6 71.4 24.1 70.7 25.7 68.8 26.7 67.7 26.9 67.3 26.9 66.9"/><polygon class="cls-3" points="15.1 68.6 15.4 68.6 15.6 68.7 16.1 68.8 16.3 68.8 16.8 69 17.1 69.1 17.4 69.3 18 69.6 18.1 69.7 18.8 70.2 18.8 70.2 19.5 70.7 19.6 70.8 20 71.3 20.3 71.5 20.5 71.9 20.8 72.3 20.9 72.5 21.2 73 21.2 73 21.4 73.5 21.5 73.8 23.7 70.9 23.8 70.4 23.7 69.9 23.5 69.3 23.1 68.6 22.6 68 22.1 67.4 21.4 66.9 20.7 66.4 20 66 19.3 65.8 18.6 65.6 18 65.6 17.5 65.7 17 65.9 16.7 66.2 14.8 68.6 14.9 68.6 15.1 68.6"/><polygon class="cls-10" points="19.5 76.3 21.5 73.8 21.4 73.5 21.2 73 21.2 73 20.9 72.5 20.8 72.3 20.5 71.9 20.3 71.5 20 71.3 19.6 70.8 19.5 70.7 18.8 70.2 18.8 70.2 18.1 69.7 18 69.6 17.4 69.3 17.1 69.1 16.8 69 16.3 68.8 16.1 68.8 15.6 68.7 15.4 68.6 15.1 68.6 14.9 68.6 14.8 68.6 14.7 68.6 14.1 68.7 13.5 68.9 13.1 69.3 13 69.5 13.1 69.5 13.4 69.5 13.5 69.5 13.8 69.7 14 69.8 14.2 70.3 14.2 71 13.8 71.9 13.3 72.9 12.4 74.1 11.4 75.3 10.2 76.5 8.9 77.7 8.2 76.9 9 76.2 9 76.2 9.7 75.5 9.8 75.4 10.4 74.7 10.4 74.7 10.9 74 10.9 74 11.3 73.4 11.3 73.3 11.5 72.8 11.5 72.8 11.5 72.4 11.5 72.3 11.4 72 11.1 71.9 10.6 71.8 10.1 72 9.4 72.2 8.6 72.6 7.7 73.1 6.9 73.7 6 74.4 5.2 75.2 4.5 75.9 3.8 76.7 3.3 77.4 3 78 2.8 78.6 2.7 79 2.9 79.3 0.2 81.6 8 90.8 10.7 88.5 10.6 88.2 10.6 87.8 10.8 87.2 11.2 86.6 11.7 85.9 12.3 85.1 13 84.4 13.9 83.7 13.9 83.6 16 86.1 16.7 86.9 18 85.7 19.2 84.5 20.3 83.3 21.1 82.1 21.7 81.1 22 80.2 22.1 79.5 21.9 79 20.2 77 21.3 75.6 21.6 75 21.6 74.4 21.5 73.9 21.5 73.8 19.5 76.3"/><polygon class="cls-3" points="21.5 73.8 21.5 73.9 23.6 71.4 23.7 70.9 21.5 73.8"/><polygon class="cls-3" points="38.5 60 38.5 59.7 38.3 59.3 38 58.7 37.8 58.4 37.6 58.1 37.1 57.5 36.6 56.8 36 56.2 35.4 55.6 34.7 55 34.1 54.5 33.6 54.1 33.1 53.8 32.7 53.6 32.3 53.6 31.9 53.8 31.5 53.9 29.4 55 27.4 56.3 26.2 57.1 26.5 56.9 26.9 56.9 27.5 57.1 28.1 57.3 28.7 57.6 29.4 58.1 30 58.6 30.7 59.2 31.3 59.8 31.8 60.4 32.2 61 32.5 61.6 32.6 62.2 32.6 62.4 32.7 62.6 32.6 63 32.4 63.2 33.8 62.4 35.5 61.5 37 60.8 38.3 60.3 38.5 60.2 38.5 60"/><polygon class="cls-5" points="43.1 58.6 43.2 58.2 43.2 57.7 43.3 57 43.3 56.3 43.3 56 43 55.5 42.4 54.8 41.9 54.2 41.9 54.1 41.8 54.1 41.2 53.4 40.7 52.8 40.2 52.2 39.9 51.7 39.6 51.4 39.4 51.1 39.3 51 38.1 51.4 36 52 34 52.8 32.3 53.6 32.7 53.6 33.1 53.8 33.6 54.1 34.1 54.5 34.7 55 35.4 55.6 36 56.2 36.6 56.8 37.1 57.5 37.6 58.1 37.8 58.4 38 58.7 38.3 59.3 38.5 59.7 38.5 60 38.5 60.2 38.3 60.3 38.7 60.2 40.4 59.6 42.1 59.1 43.1 58.9 43.1 58.8 43.1 58.6"/><polygon class="cls-9" points="105.7 32.1 105.4 32.4 105.3 32.6 104.8 33.6 104.5 34.8 104.5 35 104.4 36 104.5 37.3 104.5 37.3 104.8 38.6 106.4 38.1 106.1 36.8 106 35.5 106.1 34.2 106.4 33.1 106.9 32.1 107.5 31.3 108.3 30.7 109.2 30.3 108.3 30.6 107.6 30.8 106.7 31.2 106.2 31.6 105.9 31.8 105.7 32.1"/><polygon class="cls-9" points="69.2 18.4 71.8 18.4 75.2 18.4 79.2 18.4 83.5 18.4 87.8 18.4 91.7 18.4 95.2 18.4 97.8 18.4 99.4 18.4 100 18.4 99.3 17.9 97.1 16.9 94.1 16.3 90.1 16.1 88.3 16.1 85.3 16.1 83.5 16.1 81.7 16.1 78.7 16.1 76.9 16.1 72.8 16.3 69.8 16.9 67.6 17.9 67 18.4 67.5 18.4 69.2 18.4"/><polygon class="cls-12" points="61.5 32.3 62.9 32.9 62.9 32.7 63 32.1 63 32 63.2 31.1 63.2 30.3 63.2 29.4 63.2 29.2 63.2 28.6 63.2 27.8 63.1 27.1 62.9 26.6 62.8 26.4 62.6 26.1 62.4 25.9 62.4 25.9 62.3 25.8 62.1 25.9 61.9 26.1 61.7 26.4 61.6 26.6 61.4 27.1 61.2 27.8 61.1 28.3 60.9 29.2 60.8 31.4 61.4 32.1 61.5 32.3"/><polygon class="cls-13" points="60.8 32.7 61.7 33.7 63.2 34.4 63.4 33.5 63.6 32.5 63.6 32.1 63.7 31.4 63.8 30.3 63.8 29.2 63.8 29.1 63.8 28 63.8 27 63.7 26.4 63.6 26.1 63.5 25.4 63.2 24.9 62.9 24.6 62.9 24.6 62.7 24.4 62.5 24.6 62.2 24.9 61.9 25.4 61.8 25.6 61.5 26.4 61.1 28.3 61.2 27.8 61.4 27.1 61.6 26.6 61.7 26.4 61.9 26.1 62.1 25.9 62.3 25.8 62.4 25.9 62.4 25.9 62.6 26.1 62.8 26.4 62.9 26.6 63.1 27.1 63.2 27.8 63.2 28.6 63.2 29.2 63.2 29.4 63.2 30.3 63.2 31.1 63 32 63 32.1 62.9 32.7 62.9 32.9 61.5 32.3 61.4 32.1 60.8 31.4 60.8 31.7 60.7 32.1 60.8 32.7"/><path class="cls-13" d="M83.5,25.5h-.1l-1.1-.5L81,24.6l-1.4-.2-1.4.2H78l-1.1.3-1.1.5-1.1.8-.3.2-.6.6-.7,1-.5,1.1h0l-.2,1.1v1.1l.2.7v.4l.7,1,.8.9,3.3-.7,5.9-.9,2.1-.3v-.4l.4-.7.3-1.1V29.2h0L86,28l-.7-1-.7-.6-.2-.2Zm.6,3.9v.9l-.2.8v.2h-.4l-4.8.7-1.1.2-2.9.6-.2-.2-.4-.6h0l-.3-.9V29.2l.3-.6.5-.8.7-.7.7-.5.4-.2.5-.3.7-.2h2.4l1,.2.5.3.4.2.7.5.6.7V28l.3.6.2.6Z"/><polygon class="cls-3" points="39.6 51.4 39.9 51.7 40.2 52.2 40.7 52.8 41.2 53.4 41.8 54.1 41.9 54.1 41.9 54.2 42.4 54.8 43 55.5 43.3 56 43.4 55.5 43.4 54.7 43.5 54.6 43.5 53.7 43.6 52.9 43.6 52.1 43.7 51.4 43.7 50.8 43.8 50.4 43.8 50.1 43.8 50 42 50.4 40.1 50.8 39.3 51 39.4 51.1 39.6 51.4"/><polygon class="cls-8" points="61.6 4.5 61.8 4.6 62.1 4.6 62.1 4.6 62.4 4.7 62.6 4.7 62.8 4.7 63.1 4.6 63.2 4.6 63.7 4.3 63.8 4.3 64.3 3.8 64.6 3.3 64.8 2.7 64.8 2.1 64.6 1.5 64.4 1 63.9 0.6 63.8 0.5 63.4 0.2 63.2 0.1 63 0.1 62.8 0.1 62.8 0 62.6 0 62.4 0 62.2 0 62.2 0 61.7 0.1 61.2 0.4 61.1 0.5 60.6 0.9 60.3 1.4 60.1 2 60.1 2.6 60.2 3.2 60.5 3.7 60.9 4.2 61 4.3 61.1 4.3 61.3 4.4 61.6 4.5"/><polygon class="cls-14" points="105.6 123.7 105.5 122.9 105.3 122.9 104.9 122.9 104.2 122.9 100.4 122.9 100.4 123 100.4 127.7 100.4 128.3 100.4 128.9 100.3 129.2 100.3 129.3 100.1 130.2 99.8 131.1 99.3 131.9 99.1 132.1 98.8 133.4 97.9 135.7 96.8 137.7 95.3 139.4 93.7 140.6 91.9 141.4 90.1 141.7 88.2 141.4 86.5 140.6 84.8 139.4 83.4 137.7 82.2 135.7 81.3 133.4 80.8 130.9 80.6 128.3 80.8 125.7 81.3 123.2 81.4 122.9 75.9 122.9 75.1 122.9 75.1 122.9 74.3 123 74.1 123 74.1 123.1 73 123.3 72.1 123.6 71.8 123.7 71.7 123.8 70.8 124.1 70.6 124.2 70.3 124.3 70 124.4 69.7 128.3 70.1 133.1 71.1 137.8 72.7 142.1 74.9 145.8 77.5 148.9 80.6 151.2 83.8 152.6 87.3 153.1 90.7 152.6 91.4 152.5 94.7 151.1 95.2 150.7 98.2 148.5 100.8 145.5 101.1 145 103.1 141.4 104.7 137.3 105.6 132.9 106 128.3 105.8 125.9 105.7 125 105.6 123.7"/><polygon class="cls-4" points="84 130 84.3 131.7 84.9 133.2 85.7 134.5 86.6 135.6 87.7 136.4 88.9 136.9 90.1 137.1 90.7 137.1 89.5 136.9 88.3 136.4 87.2 135.6 86.3 134.5 85.5 133.2 84.9 131.7 84.6 130 84.4 128.3 84.5 128.3 84.4 128.2 83.9 127.2 83.8 128.3 84 130"/><polygon class="cls-7" points="73.8 151.2 70.8 148.9 68.1 145.8 65.9 142.1 64.3 137.8 63.3 133.1 63 128.3 63.1 126.3 62.3 126.2 62.2 128.3 62.5 133.1 63.5 137.8 65.1 142.1 67.3 145.8 70 148.9 73 151.2 76.3 152.6 79.7 153.1 80.5 153.1 77.1 152.6 73.8 151.2"/><polygon class="cls-14" points="70 148.9 67.3 145.8 65.1 142.1 63.5 137.8 62.5 133.1 62.2 128.3 62.3 126.2 62.2 126.2 61.7 126.1 61.3 126 61.2 125.9 61 128.3 61.3 132.9 62.3 137.3 63.8 141.4 64 141.8 66.2 145.5 68.8 148.5 71.7 150.7 72.3 151.1 75.6 152.5 76.3 152.6 73 151.2 70 148.9"/><polygon class="cls-7" points="80.6 151.2 77.5 148.9 74.9 145.8 72.7 142.1 71.1 137.8 70.1 133.1 69.7 128.3 70 124.4 69.2 124.7 69 128.3 69.3 133.1 70.3 137.8 71.9 142.1 74.1 145.8 76.8 148.9 79.8 151.2 83.1 152.6 86.5 153.1 87.3 153.1 83.8 152.6 80.6 151.2"/><polygon class="cls-14" points="75.6 151.2 72.6 148.9 69.9 145.8 67.7 142.1 66.1 137.8 65.1 133.1 64.8 128.3 64.9 126.2 63.7 126.3 63.1 126.3 63 128.3 63.3 133.1 64.3 137.8 65.9 142.1 68.1 145.8 70.8 148.9 73.8 151.2 77.1 152.6 80.5 153.1 82.3 153.1 78.9 152.6 75.6 151.2"/><polygon class="cls-7" points="77.9 151.2 74.9 148.9 72.2 145.8 70.1 142.1 68.4 137.8 67.4 133.1 67.1 128.3 67.3 125.6 66.9 125.8 66.1 126 65.3 126.2 64.9 126.2 64.8 128.3 65.1 133.1 66.1 137.8 67.7 142.1 69.9 145.8 72.6 148.9 75.6 151.2 78.9 152.6 82.3 153.1 83.5 153.1 84.6 153.1 81.2 152.6 77.9 151.2"/><polygon class="cls-14" points="79.8 151.2 76.8 148.9 74.1 145.8 71.9 142.1 70.3 137.8 69.3 133.1 69 128.3 69.2 124.7 69.1 124.8 68.6 125 68.5 125.1 68.1 125.3 67.3 125.6 67.1 128.3 67.4 133.1 68.4 137.8 70.1 142.1 72.2 145.8 74.9 148.9 77.9 151.2 81.2 152.6 84.6 153.1 86.5 153.1 83.1 152.6 79.8 151.2"/><polygon class="cls-3" points="105.3 39.9 105.7 40.5 105.9 41 106.7 42 107.6 42.8 107.7 42.9 108.6 43.5 109.6 43.8 110.6 44 110.6 44 111.5 43.8 113.1 43.3 113.2 43.3 112.2 43.4 111.2 43.3 110.2 42.9 109.2 42.3 108.3 41.5 107.5 40.5 106.9 39.3 106.4 38.1 104.8 38.6 105.3 39.9"/><polygon class="cls-12" points="83.5 28 83.4 27.8 82.8 27.1 82.1 26.6 81.7 26.4 81.2 26.1 80.2 25.9 79.2 25.8 78.1 25.9 77.8 25.9 77.1 26.1 76.6 26.4 76.2 26.6 75.5 27.1 74.8 27.8 74.3 28.6 74 29.2 73.9 29.4 73.8 30.3 73.8 31.1 74.1 32 74.2 32.1 74.5 32.7 74.7 32.9 77.6 32.3 78.7 32.1 83.5 31.4 83.9 31.3 84 31.1 84.2 30.3 84.1 29.4 84 29.2 83.8 28.6 83.5 28"/><path class="cls-10" d="M62.2,24.9l.3-.3.2-.2.2.2h0l.3.3.3.5v3.7h0v3.3l-.2,1-.2.9-1.5-.7-.9-1,.3,2.3.6,2.3v.5l.3.7.6,1.3h3.2l2.8-.2h.5l3.5-.2H74l2.2-.2,1.8-.2,1.8-.2,3.7-.2,3.6-.2h3.6l2.5-.2h1.1l3.3-.2h6.9V34.8l.3-1.2.5-1v-.2l.3-.3.2-.3.3-.2V29.2l-.6-2.8-1-2.7-1.4-2.3-.8-.9H64.7l-.8.9-1.4,2.3-.7,1.9v-.2ZM85.3,27l.7,1,.3,1.1h0v1.1l-.3,1.1-.4.7v.4l-2.1.3-5.9.9-3.3.7-.8-.9-.7-1v-.4l-.2-.7V30.3l.2-1.1h0l.5-1.1.7-1,.6-.6.3-.2,1.1-.8,1.1-.5,1.1-.3h.2l1.4-.2,1.4.2,1.3.3,1.1.5h.1l.9.7.2.2Z"/><path class="cls-3" d="M103.2,82.1h.1v-.2l-.3-.2-.3-.3-.5-.3-.6-.4-.6-.4-.8-.4-.7-.4-.7-.4-.7-.4-.7-.3-.5-.2H95.7l-.6,1.2-1.6,2.9H86.6l1,1.8.3.7,1.2-.3h1.2l.9.2,1.1-2.1h1.5l.4.2h.1l.4.2.3.2h.4l.5.3h.2l.7.3h0l.7.4h.1l.7.4h.2l.4.3.4.2.2.2.5.3h0l.4.3h.3l.3.2.3.3v.2l-1.3,2.3-.3.5.7.5.7.8h.1l6-1h.8v.2l-.3.2-.5.4-1.9,1.4-1,.4v.4l2.2-.8,5.2-3.1,3.2-3.6,1.1-3.9Z"/><path class="cls-10" d="M67.3,95.1l4.8.9-4-.9-3.3-1.5-.8-.4-1.1-.5-3.6-3.1-.6-1L57,86l-.5-2.1-.4-1.8h-5L52.2,86l3.2,3.6,5.2,3.1,2.1.8,3.9,1.3Z"/><polygon class="cls-8" points="67.2 20.5 70.2 20.5 74.1 20.5 78.6 20.5 83.5 20.5 88.4 20.5 92.9 20.5 96.8 20.5 99.8 20.5 101.6 20.5 102.3 20.5 101.3 19.4 100 18.4 99.4 18.4 97.8 18.4 95.2 18.4 91.7 18.4 87.8 18.4 83.5 18.4 79.2 18.4 75.2 18.4 71.8 18.4 69.2 18.4 67.5 18.4 67 18.4 65.6 19.4 64.7 20.5 65.3 20.5 67.2 20.5"/><path class="cls-3" d="M57,86l1.7,2.6.6,1,3.6,3.1,1.1.5.8.4,3.3,1.5,4,.9,3,.6,5.6.3H83l-.6-.4-1.8-1.2-1.3-.3-3.6-1.5-.8-.4-1.1-.5-3.7-3.1-.7-1L67.8,86l-.3-2.1-.2-1.8H56.1l.4,1.8Z"/><path class="cls-10" d="M67.8,86l1.6,2.6.7,1,3.7,3.1,1.1.5.8.4,3.6,1.5,1.3.3,1.8,1.2.6.4h.1l3.5,2.5h.1V97.2l.4-.2.5-.2.4-.3.4-.3.4-.3.4-.4.3-.4.4-.4.3-.5.3-.4.2-.5.2-.5.2-.5V89.1l-.2-.4-.2-.3-.3-.3v-.2l-.7-.3-.7-.2h-.8l-.8.2-.8.4-.9.6-.8.7-.7.9-.5.9-.5,1-.3,1-.2.9-2.6,1,.2-1.5.2-.8.3-.8.7-1.6.5-.7.5-.8.9-1.1.2-.3L85,86.3l.4-.3.9-.7,1.4-.6h.2l-.3-.7-1-1.8H67.3l.2,1.8Z"/><polygon class="cls-10" points="59.5 30.8 58.7 30.6 63.1 4.6 62.8 4.7 62.6 4.7 62.4 4.7 62.1 4.6 62.1 4.6 61.8 4.6 61.6 4.5 61.3 4.4 61.1 4.3 56.7 30.3 55.9 30.3 57.7 30.8 59.5 30.8"/><polygon class="cls-8" points="108.3 123.3 107.8 123.1 107.7 123 107.6 123 107.1 122.9 106.9 122.9 105.5 122.9 105.6 123.7 105.7 125 105.8 125.9 106.3 125.8 107.5 125.3 107.8 125.1 107.9 125 108.2 124.8 108.5 124.3 108.5 124.2 108.5 123.8 108.3 123.4 108.3 123.3"/><polygon class="cls-9" points="106.3 53.4 106.8 53.4 107.3 53.4 107.8 53.3 108.2 53.3 108.6 53.3 109.1 53.3 109.5 53.3 109.5 52.3 109.7 51.3 110 50.4 110.4 49.6 110.9 48.9 111.5 48.4 112.2 48.1 111.8 48.2 112.6 48.1 112.9 48 113.7 48.1 114.4 48.4 115.1 48.9 115.4 49.3 115.8 49.3 116.1 49.4 116.2 49.4 116.6 49.5 116.6 49.5 116.7 49.5 116.6 49.4 116.6 49.3 116.4 49 115.9 48.2 115.7 48 114.8 47 113.8 46.3 113.6 46.2 113.6 46.2 112.5 45.7 111.4 45.6 111 45.6 110.9 45.6 109.9 45.7 109.8 45.7 108.7 46.2 108.2 46.6 107.8 46.9 107 47.9 106.4 49.1 106.3 49.4 105.9 50.5 105.6 51.9 105.6 52 105.5 53.5 105.9 53.5 106.3 53.4"/><polygon class="cls-12" points="65 71.5 65.1 72 65.3 72.5 65.5 72.9 65.8 73.2 66.1 73.4 66.5 73.6 66.8 73.6 67.2 73.6 67.5 73.4 67.8 73.2 68.1 72.9 68.3 72.5 68.5 72 68.6 71.5 68.7 71 68.6 70.5 68.5 70 68.3 69.6 68.1 69.2 67.8 68.9 67.5 68.6 67.2 68.5 66.8 68.4 66.5 68.5 66.1 68.6 65.8 68.9 65.5 69.2 65.3 69.6 65.1 70 65 70.5 65 71 65 71.5"/><polygon class="cls-12" points="43.7 68.4 43.4 68.5 43 68.6 42.7 68.9 42.4 69.2 42.2 69.6 42.1 70 41.9 70.5 41.9 71 41.9 71.5 42.1 72 42.2 72.5 42.4 72.9 42.7 73.2 43 73.4 43.4 73.6 43.7 73.6 44.1 73.6 44.4 73.4 44.8 73.2 45 72.9 45.3 72.5 45.4 72 45.5 71.5 45.6 71 45.5 70.5 45.4 70 45.3 69.6 45 69.2 44.8 68.9 44.4 68.6 44.1 68.5 43.7 68.4"/><polygon class="cls-12" points="114 39.8 114.3 39.2 114.5 38.4 114.5 37.6 114.5 36.8 114.3 35.9 113.9 35.1 113.5 34.4 113 33.7 112.4 33.2 111.8 32.8 111.2 32.6 110.5 32.5 109.9 32.6 109.3 32.8 108.8 33.2 108.4 33.7 108.1 34.4 107.9 35.1 107.8 35.9 107.9 36.8 108.1 37.6 108.4 38.4 108.8 39.2 109.3 39.8 109.9 40.4 110.5 40.8 111.2 41 111.8 41.1 112.5 41 113 40.8 113.5 40.4 114 39.8"/><polygon class="cls-15" points="108.1 15.4 108.2 15.9 108.2 16.2 108.5 18 108.9 20.5 109.4 24 109.5 24.6 110.4 30.3 111.2 30.3 111.9 30.6 112.2 30.7 113.1 31.3 114 32.1 114.4 32.6 114.8 33.1 115.4 34.2 115.9 35.5 116.1 36.1 116.2 36.8 116.3 37.4 117.6 37.5 118.9 37.7 119.8 38 120 38.1 120.4 38.2 120.6 38.4 120.1 36.1 115.1 24.6 109.1 15.9 108 15 108 15.1 108.1 15.4"/><polygon class="cls-15" points="47 39 47.5 39.2 47.8 39.2 49 39.4 50.5 39.7 51.6 39.8 52.3 39.8 54.5 39.9 57 40 59.7 39.9 62.7 39.8 64 39.8 65.9 39.7 69.2 39.4 72.7 39.2 74 39.2 76.2 39 79.8 38.6 83.5 38.4 87.1 38.2 89.6 38.1 90.7 38 94.2 37.7 97.6 37.5 100.9 37.4 104 37.3 104.5 37.3 104.4 36.1 104.4 36 104.5 34.8 104.8 33.6 105.3 32.6 105.6 32.2 105.9 31.8 106.7 31.2 107.6 30.8 107.7 30.8 108.3 30.6 107.4 24.6 107.2 23.3 106.5 18.9 106.1 15.9 106 15.8 105.9 14.7 105.7 13.9 105.7 13.3 105.6 13 105.6 12.9 103.4 11.1 98.1 8.7 93.4 7.5 93.3 7.5 93.2 7.5 90.2 7.2 92.9 7.5 89.1 7.1 90.2 7.2 93.3 7.5 92.1 7.4 89.3 7.1 83.5 6.9 77.7 7.1 74.9 7.4 73.7 7.5 76.8 7.2 77.9 7.1 74 7.5 76.8 7.2 73.8 7.5 73.7 7.5 73.6 7.5 68.9 8.7 63.6 11.1 61.8 12.6 60.5 13.6 59.3 14.7 57.8 15.9 51.9 24.6 46.9 36.1 46.4 38.4 46.5 38.6 47 39"/></svg>