<svg id="Layer_1" data-name="Layer 1" xmlns="http://www.w3.org/2000/svg" viewBox="0 0 120.3 138.3"><defs><style>.cls-1{fill:#ededf4;}.cls-2{fill:none;}.cls-3{fill:#605e73;}.cls-4{fill:#43434b;}.cls-5{fill:#b5b5c1;}.cls-6{fill:#d9d9df;}.cls-7{fill:#9399a8;}.cls-8{fill:#7b7a88;}.cls-9{fill:#6d5c46;}.cls-10{fill:#2affff;}.cls-11{fill:#46bbed;}.cls-12{fill:#5e5c6a;}.cls-13{fill:#4b3a2d;}.cls-14{fill:#9491a4;}.cls-15{fill:#54d9ff;opacity:0.5;}</style></defs><rect class="cls-1" x="-46" y="-59.3" width="1000" height="800"/><polygon class="cls-2" points="117.3 74.6 117.2 74.8 117.3 74.8 117.3 74.6"/><polygon class="cls-2" points="59.5 40.6 59.7 41.3 59.6 41.2 59.5 40.6"/><polygon class="cls-2" points="105.8 77.8 105.8 77.8 105 77.4 105.8 77.8"/><polygon class="cls-2" points="109.2 77.1 108.5 77.4 108.2 77.6 108.8 77.3 109.2 77.2 109.2 77 109.2 77.1"/><polygon class="cls-2" points="107.7 96.1 107.6 96.1 107.7 96.1 107.7 96.1"/><polygon class="cls-2" points="59.1 35.4 59 35.6 59.2 34.9 59.1 35.4"/><polygon class="cls-3" points="83.9 99.5 83.9 99.9 84.1 100.8 84.3 102 84.5 103 85.8 110 87.9 109.9 88.7 108.7 86.8 98.4 83.7 98.8 83.9 99.5"/><polygon class="cls-4" points="68.9 94.2 67.4 93.6 66.6 94.1 66.2 94.2 65.8 94.3 65.5 94.2 65.8 95.3 67.3 96.4 67.9 96.9 68.4 97 70.5 97.9 73.2 98.2 79.6 98.9 80.9 99.1 80.9 99.1 82.8 98.9 83.1 98.8 83.7 98.8 86.8 98.4 89.8 98.1 88.7 97.9 85.8 97.5 84.9 96.2 84 95.2 80.9 95.6 68.9 94.2"/><path class="cls-5" d="M66.2,94.2h.4l.3-.3.3-.4V91.2l-.3-.7-.3-.6-.4-.6-.4-.6-.5-.4-.5-.4-.5-.2H62.9l-.3.2-.2.4v.5h-.1v1.8l.2.6h.1l.2.5H63l.4.6.4.5.5.5.5.3.5.2h.9Zm-.7-1h-.7l-.4-.3-.3-.3-.3-.3-.3-.5-.2-.4v-.4l-.2-.5v-.8l.2-.3v-.3l.2-.2h.9l.4.2.3.2.4.3.3.4.2.4.3.4v2.3l-.3.2h-.5Z"/><polygon class="cls-4" points="62.6 91.3 62.4 90.7 62.3 90 62.2 89.4 62.2 88.9 62.3 88.9 62.4 88.4 62.6 88 62.9 87.8 63 87.7 63 87.7 63.1 87.7 63.1 87.7 64.9 86.6 65.4 86.4 65.9 86.3 66.2 86.4 66.6 86.4 67.3 86.5 68.1 86.7 68.8 87 69.5 87.3 69.8 87.5 70.2 87.8 70.8 88.3 71.3 88.8 71.6 89.3 71.6 89.5 71.8 89.8 71.9 90.3 71.9 90.7 71.7 91.1 71.6 91.2 71.3 91.4 70.4 91.9 68.5 93 69 93.1 70.6 93.4 74 94 77.5 94.2 78.4 94.2 77.4 93.2 77.1 92.9 75.9 91.7 74.7 90.5 73.8 89.8 73.5 89.5 72.6 88.3 70.7 86.5 69.7 85.9 68.8 85.2 67 84.5 66.1 84.5 65.4 84.5 64 85 62.9 86.2 62.9 86.2 62.3 87.4 62.2 87.9 62.1 89.1 62.1 90 62.3 91.3 62.7 91.4 62.6 91.3"/><polygon class="cls-6" points="63.8 87.6 64.3 87.7 64.8 87.9 65.3 88.3 65.8 88.7 66.2 89.3 66.6 89.9 66.9 90.5 67.2 91.2 67.3 91.8 67.4 92.4 71.8 89.8 71.6 89.5 71.6 89.3 71.3 88.8 70.8 88.3 70.2 87.8 69.8 87.5 69.5 87.3 68.8 87 68.1 86.7 67.3 86.5 66.6 86.4 66.2 86.4 65.9 86.3 65.4 86.4 64.9 86.6 63.1 87.7 63.1 87.7 63 87.7 63 87.7 63.4 87.6 63.8 87.6"/><polygon class="cls-7" points="67.3 93 67.2 93.4 66.9 93.8 66.6 94.1 67.4 93.6 68.5 93 70.4 91.9 71.3 91.4 71.6 91.2 71.7 91.1 71.9 90.7 71.9 90.3 71.8 89.8 67.4 92.4 67.3 93"/><polygon class="cls-8" points="62.9 91.9 62.7 91.4 62.3 91.3 61.1 90.9 58.8 89.8 58.4 89.6 57.5 89.2 58.7 90.3 62.9 91.9"/><polygon class="cls-7" points="66.7 96.4 67 96.5 67.6 96.7 67.9 96.9 67.3 96.4 65.8 95.3 65.5 94.2 65.3 94.1 64.8 93.9 64.3 93.6 63.8 93.1 63.4 92.6 63 92 62.9 91.9 58.7 90.3 57.5 89.2 55.7 88.3 54.8 87.7 54.8 87.8 55.3 89.3 59.5 92.9 61.7 94.5 63.1 95 66.5 96.3 66.7 96.4"/><polygon class="cls-3" points="64.2 99.4 66.5 96.6 66.5 96.3 63.1 95 64 99.8 64.1 99.6 64.2 99.4"/><polygon class="cls-5" points="99.6 26.4 99.7 26.7 99.7 26.9 99.7 27 99.8 27.2 99.8 27.2 100.1 27.7 100.3 27.8 100.4 27.9 100.5 28 100.9 28.2 101.2 28.3 101.3 28.3 101.6 28.4 102 28.4 102 28.4 102.5 28.3 102.9 28.2 103.1 28 103.2 27.9 103.5 27.7 103.5 27.6 103.7 27.3 103.9 26.9 104.1 26.4 104.1 25.9 103.9 25.3 103.8 25 103.5 24.6 103.1 24.2 102.8 24 102.4 23.9 102 23.8 101.6 23.8 101.1 23.9 100.8 24.1 100.5 24.3 100.1 24.6 99.9 25 99.7 25.3 99.5 25.8 99.5 26 99.5 26.4 99.6 26.4"/><polygon class="cls-5" points="59.7 4.4 60.2 4.5 60.3 4.6 60.9 4.5 61 4.5 61.2 4.4 61.8 4.2 62 3.9 62.2 3.8 62.5 3.5 62.6 3.1 62.8 2.5 62.8 2.1 62.7 1.7 62.6 1.5 62.5 1.1 62.2 0.8 62 0.6 61.9 0.4 61.4 0.1 60.7 0 60.1 0 59.6 0.2 59.3 0.4 59 0.6 58.9 0.8 58.6 1.1 58.4 1.5 58.3 2.1 58.3 2.5 58.4 2.9 58.4 3.1 58.6 3.5 58.8 3.7 59 3.9 59.1 4.1 59.2 4.1 59.7 4.4"/><polygon class="cls-9" points="60.6 125.3 60.4 122.6 60.3 122.5 59.7 122.1 59.4 121.8 59.3 121.7 59.5 123.6 59.6 124.3 60.5 127.3 61 128 61 128 62.1 129.8 62.5 130.4 63.1 130.9 61.6 128.5 60.6 125.3"/><path class="cls-5" d="M44.8,80.5,45,80V78.9l-.2-.7-.2-.6-.4-.7-.3-.6-.5-.5-.5-.4-.5-.4-.5-.2H40.6l-.3.3-.3.4v2.3l.3.6.3.7.4.6.4.5.5.4.5.4.5.2h1.3l.4-.3Zm-.6-1.1v.3l-.2.3-.2.2h-.9l-.4-.2-.3-.2-.4-.3-.3-.4-.2-.4-.3-.4V76l.3-.2h1.2l.4.3.3.3.3.4.3.4.2.4.2.5v1.2Z"/><polygon class="cls-6" points="41.4 74.7 41.9 74.8 42.4 75 42.9 75.4 43.4 75.8 43.9 76.3 44.2 76.9 44.6 77.6 44.8 78.2 45 78.9 45 79.5 47 78.3 46.9 78 46.8 77.8 46.7 77.2 46.4 76.5 46.2 75.8 45.9 75.2 45.5 74.6 45.4 74.3 45.2 74 45 73.5 44.7 73.2 44.5 72.9 44.3 72.8 44.2 72.8 44.2 72.8 43.8 73 40.6 74.8 41 74.7 41.4 74.7"/><polygon class="cls-7" points="47 79.6 47.2 79.5 47.3 79.3 47.3 79.1 47.2 78.8 47 78.3 45 79.5 45 80 44.8 80.5 44.6 80.9 44.2 81.2 46.9 79.7 46.9 79.6 47 79.6"/><polygon class="cls-6" points="99.7 27 99.7 26.9 99.7 26.7 99.6 26.4 99.5 26.4 99.5 26 98.8 25.7 99.4 26.6 99.7 27"/><polygon class="cls-6" points="57 21.8 57.6 22.3 58.4 22 59.1 22 59.6 22.1 57.9 20.8 57.4 20.6 57.3 20.6 57.2 21.1 57 21.8"/><polygon class="cls-6" points="100.5 28 100.4 27.9 100.6 28.2 101.4 29.9 101.2 28.3 100.9 28.2 100.5 28"/><polygon class="cls-6" points="49.5 32.2 49.4 32.3 49.2 32.6 48.9 33 48.5 33.5 48 34.1 47.9 34.2 47.6 34.8 47.1 35.5 46.7 36.2 46.6 36.3 46.4 36.9 46.1 37.6 46.1 37.7 46 37.9 45.9 38.2 45.7 38.5 45.6 39.1 45.2 40.6 45 42.8 45.1 45.1 45.5 47.3 46 48.8 46.3 49.6 47.5 51.6 49 53.7 50 54.9 50.8 55.6 52.9 57.3 55.2 58.9 57.9 60.2 60.8 61.4 62 61.8 63.8 62.3 67.1 63 70.4 63.5 71.7 63.6 73.9 63.7 77.4 63.7 80.9 63.6 84.5 63.3 86.9 63 88 62.8 91.4 62.1 94.6 61.2 97.8 60.2 100.8 59.1 101.3 58.9 101.3 59.1 101.6 60.2 103.2 60.8 102.9 59.7 102.8 58.5 102.9 57.3 103.2 56 103.6 54.8 104.2 53.7 105 52.7 105.9 51.9 104.3 51.3 105 51 104.3 46.6 104.2 46.4 103.3 40.9 102.9 38.6 102.7 40.2 102.5 41.1 102 43.4 101.3 45.5 100.9 46.2 100.3 47.2 98.3 49.9 95.1 52.3 91 54.2 86.1 55.4 84.2 55.6 80.9 55.8 78.6 55.7 75.9 55.5 75.8 55.5 71.1 54.4 70.7 54.2 67 52.6 64.1 50.5 63.8 50.2 63.7 50.1 61.7 47.4 61.7 47.4 60.6 45.5 59.9 43.4 59.6 42.1 59.3 40.4 59.2 40.2 59 38.3 58.9 37.9 58.9 37.3 59 35.6 59.1 35.4 59.4 34.1 59.4 34 59.8 32.3 60.1 30.9 60.3 30.1 61.3 28.2 63.3 25.4 64.5 23.9 64.8 23.6 64.1 23.8 61.1 24.8 59.9 25.3 58.3 26 56.1 27.1 55.7 27.4 52.9 29.2 51.2 30.5 51.3 30.2 51.6 29.3 52 28.2 52.6 27.2 53.3 26.1 54.2 25.1 55 24.2 55.9 23.4 54.2 22 53.3 22.8 52.4 23.8 51.6 24.8 50.9 25.8 50.3 26.9 49.9 27.9 49.6 28.9 49.4 29.8 50.9 30.9 50.5 31.2 50.3 31.5 50.2 31.5 49.7 32 49.6 32.1 49.5 32.2"/><polygon class="cls-5" points="58.4 22 57.6 22.3 55.9 23.4 55 24.2 54.2 25.1 53.3 26.1 52.6 27.2 52 28.2 51.6 29.3 51.3 30.2 51.2 30.5 52.9 29.2 55.7 27.4 56.1 27.1 58.3 26 59.9 25.3 60.1 24.6 60.3 23.7 60.2 23 60 22.5 59.6 22.1 59.1 22 58.4 22"/><polygon class="cls-8" points="114 69.3 113.9 69.1 113.6 68.8 113.5 68.8 113.4 68.6 113.3 68.6 112.1 67.8 111.6 67.5 111.1 67.4 110.6 67.4 110 67.6 109.4 67.9 108.9 68.4 108.4 68.9 107.9 69.6 107.5 70.3 107.2 71.1 107 71.8 107 72.6 107 73.3 107.1 73.9 107.4 74.5 107.8 74.9 108.1 75.1 108.7 75.6 109 76 109 76.1 109.1 76.3 109.1 76.2 109.1 76 109.2 75.6 109.5 75.2 110 74.8 110.5 74.4 111.1 73.9 111.9 73.5 112.6 73.2 113.4 72.9 114.2 72.7 114.4 72.6 114.8 72.5 115.4 72.5 115.9 72.5 116.3 72.6 116.6 72.8 116.3 72 116 71.6 115.6 71 115.2 70.4 114.8 70 114.1 69.3 114.1 69.3 114 69.3"/><polygon class="cls-7" points="113.9 68.5 113.6 68.7 113.5 68.8 113.6 68.8 113.9 69.1 114 69.3 114.1 69.3 114.1 69.3 114.1 69.2 114.1 68 114 68.3 113.9 68.5"/><polygon class="cls-6" points="103.1 73.8 103.5 73.8 104 73.8 104.5 73.8 104.9 73.7 105.3 73.5 105.8 73.2 106.2 73.4 106.2 72.5 106.3 71.6 106.6 70.6 107 69.7 107.5 68.8 108.1 68.1 108.8 67.4 109.5 66.9 110.2 66.6 110.9 66.5 111.6 66.5 112.2 66.7 112.6 67.1 113 67.7 113.3 68.4 113.3 68.6 113.4 68.6 113.5 68.8 113.6 68.7 113.9 68.5 114 68.3 114.1 68 113.9 66.9 113.9 66.6 113.5 65.6 113.3 65.3 113 64.8 112.9 64.8 112.9 64.7 112.9 64.7 112.7 64.4 112.5 64.2 112 63.8 111.6 63.6 111.4 63.5 110.6 63.2 110.2 63.2 109.6 63.1 108.6 63.4 107.5 63.9 107.5 63.9 106.4 64.6 105.4 65.6 104.9 66.2 104.5 66.7 103.7 68 103.1 69.4 103 69.7 102.7 70.8 102.4 72 102.4 72.1 102.3 73.5 102.7 73.6 103.1 73.8"/><polygon class="cls-7" points="102.4 61.5 102.7 62 103.5 62.6 104.3 62.9 104.4 62.9 105.9 63.5 105 63.1 104.3 62.5 103.6 61.8 103.2 60.8 101.6 60.2 102.1 61.2 102.4 61.5"/><polygon class="cls-6" points="103.2 27.9 103.2 28.4 103.7 31.1 104.5 36 105.3 40.5 106 44.5 106.3 46.4 106.9 50.2 107 50.6 107.8 50.9 108.7 50.7 109.7 50.8 110.5 51.2 111.3 51.7 111.8 52.4 112.5 51.8 114 50.1 115.2 48.3 116.2 46.6 116.3 46 116.7 44.7 116.9 42.8 116.8 41 116.4 39.2 115.9 38.1 115.6 37.4 114.4 35.6 112.9 34 111.9 33 111.1 32.3 109 30.7 106.7 29.3 104 27.8 103.5 27.6 103.5 27.7 103.2 27.9"/><polygon class="cls-4" points="57.6 22.3 57 21.8 57.2 21.1 57.3 20.6 61 4.5 60.9 4.5 60.3 4.6 60.2 4.5 59.7 4.4 59.2 4.1 59.1 4.1 55.1 21.5 54.2 22 55.9 23.4 57.6 22.3"/><polygon class="cls-7" points="50.5 31.2 50.9 30.9 49.4 29.8 49.5 30.5 49.7 31 50.1 31.4 50.2 31.5 50.3 31.5 50.5 31.2"/><path class="cls-4" d="M63.3,25.4l-2,2.8-1,1.9-.2.8-.3,1.4L59.4,34l.2-.7v-.4H60l.3.2.3.4.2.7.2.9h0l.3.8.3,1.1v4.7h0v2.9l-.2.3-1.5-2.5L59,38.3l.2,1.9v.2l.3,1.7.3,1.3.7,2.1,1.1,1.9h0l2,2.7h.1l.3.3L67,52.6l3.7,1.6.4.2,4.7,1.1h.1l2.7.2h2.3l3.3-.2,1.9-.2L91,54.2l4.1-1.9,3.2-2.4,2-2.7.6-1,.4-.7.7-2.1.5-2.3.2-.9.2-1.6.4,2.3.9,5.5v.2L105,51l-.7.3,1.6.6,1.9-1-.8-.3v-.4l-.6-3.8-.3-1.9-.7-4-.8-4.5-.8-4.9-.5-2.7v-.5h-.1l-.2.2h-1.7l.2,1.6-.8-1.7-.2-.3h-.3l-.3-.5h0V27l-.3-.4-.6-.9-.2-.3-1.2-1.5-3-2.3-.6-.4,2.9,2.2,1.9,2.5.6,2.7-.6,2.8-1.9,2.5-2.9,2.2-3.7,1.7-4.4,1-4.8.4-4.7-.4-4.4-1-3.7-1.7-2.9-2.2-1.9-2.5-.6-2.8.6-2.7,1.9-2.5,2.9-2.2-.6.4-2.7,2-.3.3ZM82.7,46.1l.7.9.2.9h0v.9l-.2.9-.4.6v.3l-2.1.4-5.6.2L72,51l-.8-.8-.6-.9V49l-.2-.6v-1l.2-.8h0l.5-.9.7-.7.6-.5h.2l1.1-.5,1.1-.3h2.6l1.4.2,1.2.4,1,.7h.1l1,.5.2.3Z"/><polygon class="cls-10" points="59.6 41.2 59.7 41.3 60.9 43.5 61 43.4 61.1 43.2 61.1 43.1 61.2 42.5 61.3 41.9 61.3 41.1 61.3 40.9 61.3 40.2 61.3 39.3 61.1 38.4 61 37.6 60.9 37.2 60.7 36.8 60.5 36.1 60.5 36 60.4 35.3 60.2 34.8 60 34.5 59.9 34.4 59.8 34.3 59.6 34.3 59.4 34.6 59.2 34.8 59.2 34.9 59 35.6 58.9 37.3 59.5 40.6 59.6 41.2"/><polygon class="cls-10" points="80.9 47.1 80.8 46.9 80.3 46.2 79.6 45.7 79.2 45.5 78.7 45.2 77.8 44.9 76.8 44.7 75.7 44.7 75.5 44.8 74.8 44.8 74.2 44.9 73.9 45 73.2 45.4 72.5 45.8 72 46.4 71.7 46.9 71.7 47.1 71.5 47.8 71.6 48.5 71.8 49.2 71.9 49.4 72.3 49.9 72.4 50 75.2 50.3 76.3 50.3 80.9 50 81.3 49.9 81.4 49.7 81.6 49 81.5 48.3 81.4 48.2 81.3 47.6 80.9 47.1"/><polygon class="cls-11" points="61.3 44.9 61.5 44.6 61.6 44.2 61.7 44 61.8 43.5 61.9 42.6 61.9 41.7 61.9 41.6 61.9 40.5 61.8 39.3 61.7 38.4 61.7 38.1 61.6 36.9 61.3 35.8 61 35 61 34.9 60.8 34 60.6 33.3 60.3 32.9 60 32.7 59.9 32.7 59.8 32.7 59.7 32.8 59.7 32.9 59.6 33.3 59.4 34 59.4 34.1 59.1 35.4 59.2 34.9 59.2 34.8 59.4 34.6 59.6 34.3 59.8 34.3 59.9 34.4 60 34.5 60.2 34.8 60.4 35.3 60.5 36 60.5 36.1 60.7 36.8 60.9 37.2 61 37.6 61.1 38.4 61.3 39.3 61.3 40.2 61.3 40.9 61.3 41.1 61.3 41.9 61.2 42.5 61.1 43.1 61.1 43.2 61 43.4 60.9 43.5 59.7 41.3 59.5 40.6 58.9 37.3 58.9 37.9 59 38.3 59.8 42.4 61.3 44.9"/><path class="cls-11" d="M80.9,44.8h-.1l-1-.7-1.2-.4-1.4-.2H74.6l-1.1.3-1.1.5h-.2l-.6.5-.7.7-.5.9h0l-.2.8v1l.2.6v.3l.6.9.8.8,3.3.3,5.6-.2,2.1-.4v-.3l.4-.6.2-.9V48h0l-.2-.9-.7-.9-.6-.5-.2-.3Zm.6,3.5V49l-.2.7v.2h-.4l-4.6.3H75.2L72.4,50h-.1l-.4-.5v-.2l-.2-.7V46.9l.3-.5.5-.6.7-.4.7-.4h2.9l1,.2.9.3.5.3.4.2.7.5.5.7v.2l.4.5v.6Z"/><polygon class="cls-6" points="67.1 22.4 65.5 24.6 65 27 65.5 29.4 67.1 31.6 69.6 33.5 73 35 76.8 35.9 80.9 36.2 85.1 35.9 88.9 35 92.3 33.5 94.8 31.6 96.4 29.4 96.9 27 96.4 24.6 94.8 22.4 92.3 20.4 88.9 19 88.6 18.9 84.9 18 80.9 17.7 77 18 73.3 18.9 73 19 69.6 20.4 67.1 22.4"/><polygon class="cls-5" points="63.3 25.9 62.7 28.6 63.3 31.4 65.2 33.9 68.1 36.1 71.8 37.8 76.2 38.8 80.9 39.2 85.7 38.8 90.1 37.8 93.8 36.1 96.7 33.9 98.6 31.4 99.2 28.6 98.6 25.9 96.7 23.4 93.8 21.2 93.2 20.7 89.6 19.1 88.9 19 92.3 20.4 94.8 22.4 96.4 24.6 96.9 27 96.4 29.4 94.8 31.6 92.3 33.5 88.9 35 85.1 35.9 80.9 36.2 76.8 35.9 73 35 69.6 33.5 67.1 31.6 65.5 29.4 65 27 65.5 24.6 67.1 22.4 69.6 20.4 73 19 72.3 19.1 68.7 20.7 68.1 21.2 65.2 23.4 63.3 25.9"/><polygon class="cls-4" points="54.8 87.7 53.4 86.8 52.5 86.1 52.9 87.2 55.3 89.3 54.8 87.8 54.8 87.7"/><polygon class="cls-8" points="74 94 70.6 93.4 69 93.1 68.5 93 67.4 93.6 68.9 94.2 80.9 95.6 84 95.2 93 94.2 101.4 90.9 101.8 90.5 100.8 90.9 97.7 91.9 94.6 92.8 92.9 93.1 91.3 93.4 87.9 94 84.4 94.2 80.9 94.4 78.4 94.2 77.5 94.2 74 94"/><polygon class="cls-7" points="90.2 108 90.3 108.4 90.5 108.8 90.8 109.3 91.3 109.8 91.8 110.4 92.4 110.8 93.1 111.3 93.8 111.7 94.5 112 95.2 112.2 95.9 112.4 96.4 112.4 96.9 112.3 97.2 112.2 97.5 111.9 98 111 100 107.7 99.8 108 99.5 108.2 99 108.2 98.4 108.2 97.8 108.1 97.1 107.8 96.4 107.5 95.7 107.1 95 106.7 94.4 106.2 93.8 105.7 93.4 105.2 93.1 104.7 92.9 104.2 92.8 103.8 92.9 103.5 91 106.6 90.3 107.6 90.2 108"/><polygon class="cls-5" points="108.1 75.1 107.8 74.9 107.4 74.5 107.1 73.9 107 73.3 107 72.6 107 71.8 107.2 71.1 107.5 70.3 107.9 69.6 108.4 68.9 108.9 68.4 109.4 67.9 110 67.6 110.6 67.4 111.1 67.4 111.6 67.5 112.1 67.8 113.3 68.6 113.3 68.4 113 67.7 112.6 67.1 112.2 66.7 111.6 66.5 110.9 66.5 110.2 66.6 109.5 66.9 108.8 67.4 108.1 68.1 107.5 68.8 107 69.7 106.6 70.6 106.3 71.6 106.2 72.5 106.2 73.4 106.3 74.2 106.6 74.9 107 75.4 107.5 75.8 108.1 76.1 108.7 76.1 109 76 108.7 75.6 108.1 75.1"/><polygon class="cls-8" points="44.2 45.4 44.3 47.7 44.8 50 45.3 51.5 45.6 52.3 46.8 54.4 48.3 56.5 49.1 57.3 49.4 57.7 50.2 58.4 52.3 60.1 54.8 61.7 57.5 63.1 60.4 64.3 61.7 64.7 62.2 64.9 63.5 65.3 66.8 65.9 70.2 66.5 71.5 66.6 73.8 66.7 77.3 66.7 80.9 66.6 84.5 66.3 87 66 88.1 65.8 91.6 65.1 94.9 64.2 98.1 63.2 101.2 62 102.4 61.5 102.1 61.2 101.6 60.2 101.3 59.1 101.3 58.9 100.8 59.1 97.8 60.2 94.6 61.2 91.4 62.1 88 62.8 86.9 63 84.5 63.3 80.9 63.6 77.4 63.7 73.9 63.7 71.7 63.6 70.4 63.5 67.1 63 63.8 62.3 62 61.8 60.8 61.4 57.9 60.2 55.2 58.9 52.9 57.3 50.8 55.6 50 54.9 49 53.7 47.5 51.6 46.3 49.6 46 48.8 45.5 47.3 45.1 45.1 45 42.8 45.2 40.6 45.6 39.1 45.7 38.5 45.7 38.7 45.5 39.1 45.5 39.2 45.5 39.4 45.4 39.6 45 41 44.5 43.2 44.2 45.4"/><polygon class="cls-4" points="49.1 81.6 48.3 79.9 47.8 79 47.2 77.2 47.2 77.1 46.3 74.8 45.4 72.9 45 72.3 44.6 71.6 44.1 70.9 43.9 71 43.7 70.9 43.6 71.6 43.6 72.2 43.6 72.4 43.7 72.6 43.8 73 44.2 72.8 44.2 72.8 44.3 72.8 44.5 72.9 44.7 73.2 45 73.5 45.2 74 45.4 74.3 45.5 74.6 45.9 75.2 46.2 75.8 46.4 76.5 46.7 77.2 46.8 77.8 46.9 78 47 78.3 47.2 78.8 47.3 79.1 47.3 79.3 47.2 79.5 47 79.6 46.9 79.6 46.9 79.7 46.9 79.7 47.9 81.6 49.6 83.4 50.5 84.5 49.8 82.8 49.1 81.6"/><polygon class="cls-7" points="117.2 74.8 117.2 74.8 117.2 74.2 117 73.8 116.7 73.2 116.7 73.1 116.6 72.8 116.3 72.6 115.9 72.5 115.4 72.5 114.8 72.5 114.4 72.6 114.2 72.7 113.4 72.9 112.6 73.2 111.9 73.5 111.1 73.9 110.5 74.4 110 74.8 109.5 75.2 109.2 75.6 109.1 76 109.1 76.2 109.1 76.3 109 76.1 109 76 108.7 76.1 108.1 76.1 107.5 75.8 107 75.4 106.6 74.9 106.3 74.2 106.2 73.4 105.8 73.2 105.3 73.5 104.9 73.7 104.5 73.8 104 73.8 103.5 73.8 103.1 73.8 102.7 73.6 102.3 73.5 102.5 74.6 102.5 74.7 103 75.7 103.6 76.6 104.5 77.3 104.6 77.3 105.5 77.7 105.8 77.8 105 77.4 105.8 77.8 105.8 77.8 106.8 77.8 107.2 77.8 108.2 77.6 108.5 77.4 109.2 77.1 109.2 77 109.2 77.2 109.2 77.2 109.1 77.5 109 78.4 108.6 79.4 108.4 79.9 108.1 80.7 107.8 81.2 107.9 81.3 108.2 81.3 108.7 81.4 109.3 81.4 110 81.5 110.8 81.5 111.7 81.6 112.2 81.6 112.6 81.6 113.4 81.6 114.3 81.6 115 81.6 115.7 81.6 116.1 81.6 116.2 81.6 116.5 81.6 116.7 81.5 117 80.4 117.4 78.4 117.5 76.6 117.5 76.1 117.3 74.9 117.3 74.8 117.2 74.8"/><path class="cls-5" d="M117.7,45.4l-.3,1.9-.4,1.4v.5l-1,1.8-1.2,1.8-1.6,1.7-.4.4v-.3l-.3-1.1-.5-1h-.1l-.5-.7-.8-.5-.8-.4h-1l-.9.2-1.9,1-.9.8-.8,1-.6,1.1-.4,1.2-.3,1.3v2.4l.3,1.1.4,1,.7.7.7.6.9.4-1.5-.6h-.1l-.8-.3-.8-.6-.3-.5-1.2.5-3.1,1.2-3.2,1-3.3.9-3.5.7L87,66l-2.5.3-3.6.3H70.2l-3.4-.6-3.3-.6-1.3-.4-.5-.2-1.3-.4-3-1.2-2.6-1.4-2.5-1.6-2.1-1.7-.8-.7-.3-.4-.8-.8-1.5-2.1-1.2-2.1-.3-.8L44.8,50l-.5-2.3V45.4l.3-2.2L45,41l-1.8,6.2-.5,2.2-.9,9.7-.2,2.3.2,2.2,1.3,6.8.5,2V70.9h.4l.5.7.4.7.4.6.9,1.9.9,2.3h0l.6,1.8.5.9.8,1.7.7,1.2.7,1.7.7.7,1.3.9.9.7,1.4.9.9.6,1.8.9.9.4.4.2,2.3,1.1,1.2.4L62.1,90V87.4l.6-1.2h0L64,85l1.4-.5H67l1.8.7.9.7,1,.6,1.9,1.8.9,1.2.3.3.9.7,1.2,1.2,1.2,1.2.3.3,1,1,2.5.2,3.5-.2,3.5-.2,3.4-.6,1.6-.3,1.7-.3,3.1-.9,3.1-1,1-.4.8-1.3,1.4-1.9.3-.4.4-.7.5-.6h0l.4-.5.8-1.3.9-1.6.5-.9.3-.5.3-.8.2-.5.4-1V77.2h0l-.4.2-.6.3-1,.2h-1.7l-.9-.4h-.1l-.9-.7-.6-.9-.5-1h0l-.2-1.1V72.1h0l.3-1.2.3-1.1v-.3l.6-1.4.8-1.3.4-.5.5-.6,1-1,1.1-.7h0l1.1-.5,1-.3h1l.8.3h.2l.4.2.5.4.2.2.2.3h.1l.3.5.2.3.4,1v.3l.2,1.1v1.2h0l.7.7.4.4.4.6.4.6.3.4.3.8v.3h0l.3.6.2.4v.6h0v0h0l.9-2.3.6-2.2,1.3-6.8.2-2.2-.2-2.3-.9-9.7-.5-2.2-1.6-5.5.4,1.8ZM105.5,60.7l-.4-.6-.3-.6-.2-.7V57.2l.2-.8.3-.8.4-.7.5-.7.5-.5.6-.4.7-.2H109l.6.3.5.3.4.5.3.7.2.7v1.6l-.2.8-.3.8-.4.7-.5.6-.6.6-.6.4-.6.2h-1.2L106,61Z"/><polygon class="cls-8" points="116.9 42.8 116.7 44.7 116.3 46 116.2 46.6 115.2 48.3 114 50.1 112.5 51.8 111.8 52.4 111.9 52.5 112.4 53.5 112.7 54.6 112.7 54.9 113.1 54.5 114.7 52.8 115.9 51 116.9 49.2 117 48.7 117.4 47.3 117.7 45.4 117.5 43.5 117.1 41.7 116.4 39.2 116.8 41 116.9 42.8"/><polygon class="cls-12" points="2.6 69.2 2.7 68.2 2.9 67.3 3.2 66.3 3.7 65.4 4.3 64.5 5 63.8 5.8 63.1 6.7 62.6 7.5 62.3 8.3 62.2 9.1 62.2 9.7 62.5 10.3 62.9 10.6 63.3 10.7 63.5 10.9 64 11 64.2 11.1 64.8 11.2 65 11.1 65.7 11.1 65.9 11 66.6 10.9 66.9 10.7 67.6 10.6 67.9 10.2 68.5 10.1 68.8 9.6 69.4 9.5 69.7 8.9 70.2 8.8 70.4 8.2 70.9 8 71.1 8.2 72 8.5 73.2 8.6 73.5 9.9 72.5 11.1 71.2 12.1 69.8 12.9 68.3 13.4 66.8 13.7 65.2 13.8 63.7 13.6 62.4 13.1 61.2 12.4 60.3 11.5 59.6 11.4 59.6 11.2 59.5 11.1 59.5 10.4 59.2 9.2 59.1 7.9 59.3 6.5 59.9 5.2 60.6 3.9 61.7 2.7 62.9 1.8 64.3 0.9 65.8 0.4 67.4 0.1 69 0 70.4 0.2 71.8 2.8 70 2.6 69.2"/><polygon class="cls-4" points="20.2 61.9 20 61.7 19.6 61.5 19.2 61.2 19 61 18.6 60.8 18.2 60.6 18 60.4 17.4 60.1 17.3 60 16.6 59.6 16.6 59.5 15.9 59.1 15.8 59 15.3 58.8 15 58.6 14.7 58.4 14.3 58.2 14.2 58.1 13.8 57.9 13.6 57.8 13.5 57.7 13.3 57.6 13.3 57.6 13.1 57.6 12.7 57.4 12.5 57.3 12.5 57.3 11.1 59.5 11.2 59.5 11.4 59.6 11.5 59.6 12.4 60.3 13.1 61.2 13.6 62.4 13.8 63.7 13.7 65.2 13.4 66.8 12.9 68.3 12.1 69.8 11.1 71.2 9.9 72.5 8.6 73.5 8.5 73.2 8.2 72 8 71.1 8.2 70.9 8.8 70.4 8.9 70.2 9.5 69.7 9.6 69.4 10.1 68.8 10.2 68.5 10.6 67.9 10.7 67.6 10.9 66.9 11 66.6 11.1 65.9 11.1 65.7 11.2 65 11.1 64.8 11 64.2 10.9 64 10.7 63.5 10.6 63.3 10.3 62.9 9.7 62.5 9.1 62.2 8.3 62.2 7.5 62.3 6.7 62.6 5.8 63.1 5 63.8 4.3 64.5 3.7 65.4 3.2 66.3 2.9 67.3 2.7 68.2 2.6 69.2 2.8 70 0.2 71.8 7.8 77 10.4 75.2 10.3 74.7 16.2 78.7 17.5 77.7 18.6 76.4 19.6 75 20.4 73.5 21 72 21.3 70.4 21.4 69 21.2 67.6 20.7 66.4 20 65.5 19.4 65 21 62.5 20.9 62.4 20.6 62.2 20.3 62 20.2 61.9 20.2 61.9"/><polygon class="cls-7" points="22.8 57.2 22.4 57 22 56.7 21.4 56.3 20.8 55.9 20.1 55.5 19.4 55.1 18.7 54.6 18.1 54.3 17.5 53.9 16.9 53.6 16.5 53.4 16.2 53.3 16 53.2 16 53.2 13.3 57.6 13.3 57.6 13.5 57.7 13.6 57.8 13.8 57.9 14.2 58.1 14.3 58.2 14.7 58.4 15 58.6 15.3 58.8 15.8 59 15.9 59.1 16.6 59.5 16.6 59.6 17.3 60 17.4 60.1 18 60.4 18.2 60.6 18.6 60.8 19 61 19.2 61.2 19.6 61.5 20 61.7 20.2 61.9 20.2 61.9 20.3 62 23.1 57.5 23 57.4 22.8 57.2"/><polygon class="cls-7" points="33.4 45 35 43.7 34.9 43.8 36.6 42.7 37.3 42.2 37.1 42.3 36.8 42.3 36.6 42.2 36.5 42.1 36 41.9 35.5 41.5 34.9 41.1 34.3 40.6 33.7 40 33.1 39.4 32.5 38.8 32.1 38.3 31.7 37.7 31.4 37.3 31.2 36.9 31.1 36.5 31.1 36.3 30.1 37.1 28.1 38.7 28 38.8 26 40.5 25.1 41.4 25.2 41.6 25.4 41.8 25.7 42.1 26.1 42.5 26.6 43 27.2 43.5 27.8 44 28.5 44.5 29.1 45 29.7 45.4 30.3 45.8 30.8 46.1 31.2 46.4 31.5 46.5 31.6 46.6 31.7 46.5 33.3 45.1 33.4 45"/><polygon class="cls-7" points="28.6 49.1 28.2 48.9 27.7 48.6 27.2 48.2 26.6 47.8 26.2 47.5 25.9 47.3 25.3 46.8 24.6 46.3 24 45.9 23.4 45.5 23 45.1 22.6 44.8 22.5 44.8 22.5 44.8 22.3 44.6 22.2 44.5 22.2 44.5 22 44.7 20.1 47.1 19.2 48.4 19.2 48.4 19.4 48.5 19.6 48.7 20 48.9 20.5 49.2 21.1 49.6 21.8 50 22.4 50.5 23.1 50.9 23.8 51.4 24.4 51.8 24.9 52.2 25.4 52.5 25.7 52.7 26 52.9 26.1 53 26.8 52 28.4 50 29 49.4 28.9 49.3 28.6 49.1"/><polygon class="cls-8" points="31.2 36.9 31.4 37.3 31.7 37.7 32.1 38.3 32.5 38.8 33.1 39.4 33.7 40 34.3 40.6 34.9 41.1 35.5 41.5 36 41.9 36.5 42.1 36.6 42.2 36.8 42.3 37.1 42.3 37.3 42.2 38.2 41.7 39.7 40.9 41.2 40.4 42.6 39.9 43.6 39.7 43.2 39.8 42.8 39.7 42.4 39.5 42.2 39.4 41.7 39.1 41.1 38.6 40.6 38.1 40.6 38 40.5 38.1 40 37.5 39.5 36.8 39 36.1 38.7 35.4 38.4 34.7 38.2 34.1 38.1 33.5 38.2 33 38.4 32.7 38.5 32.5 38.6 32.5 38.5 32.5 36.4 33.3 34.3 34.4 32.2 35.6 31.1 36.3 31.1 36.5 31.2 36.9"/><polygon class="cls-8" points="31.2 46.4 30.8 46.1 30.3 45.8 29.7 45.4 29.1 45 28.5 44.5 27.8 44 27.2 43.5 26.6 43 26.1 42.5 25.7 42.1 25.4 41.8 25.2 41.6 25.1 41.4 24 42.5 24 42.6 22.2 44.5 22.2 44.5 22.3 44.6 22.5 44.8 22.5 44.8 22.6 44.8 23 45.1 23.4 45.5 24 45.9 24.6 46.3 25.3 46.8 25.9 47.3 26.2 47.5 26.6 47.8 27.2 48.2 27.7 48.6 28.2 48.9 28.6 49.1 28.9 49.3 29 49.4 30 48.2 31.6 46.6 31.5 46.5 31.2 46.4"/><polygon class="cls-8" points="116.2 81.6 116.1 81.6 115.7 81.6 115 81.6 114.3 81.6 113.4 81.6 112.6 81.6 112.2 81.6 111.7 81.6 110.8 81.5 110 81.5 109.3 81.4 108.7 81.4 108.2 81.3 107.9 81.3 107.8 81.2 107.3 82.1 106.4 83.7 105.6 85 105.2 85.5 105.2 85.6 104.7 86.2 104.3 86.9 104.3 87.1 104.5 87.3 104.8 87.6 105.3 87.8 105.9 88.1 106.6 88.4 107.4 88.6 108.2 88.8 109.1 89 109.9 89.2 110.7 89.3 111.2 89.3 111.3 89.4 111.4 89.3 112 89.3 112.4 89.3 112.7 89.1 112.8 89 113.4 88.1 114.5 86.3 115.5 84.4 116.3 82.5 116.4 82.3 116.7 81.5 116.5 81.6 116.2 81.6"/><polygon class="cls-12" points="89.6 108.1 89.8 108.7 90.2 109.2 90.7 109.9 91.4 110.5 92.1 111.1 93 111.6 93.8 112.1 94.7 112.4 95.5 112.7 96.3 112.9 96.9 112.9 97.5 112.8 97.9 112.6 98.2 112.3 98.3 111.9 98.2 111.4 98 111 97.5 111.9 97.2 112.2 96.9 112.3 96.4 112.4 95.9 112.4 95.2 112.2 94.5 112 93.8 111.7 93.1 111.3 92.4 110.8 91.8 110.4 91.3 109.8 90.8 109.3 90.5 108.8 90.3 108.4 90.2 108 90.3 107.6 91 106.6 90.9 106.6 90.3 106.7 89.9 106.9 89.6 107.2 89.5 107.6 89.6 108.1"/><polygon class="cls-8" points="107.7 96.1 107.6 96.1 107.2 96.2 106.6 96.1 105.9 96 105.2 95.9 104.4 95.6 103.6 95.3 102.9 95 102.2 94.6 101.5 94.3 101 93.9 100.6 93.5 100.4 93.1 100.2 92.8 100.3 92.5 99.7 93.4 99.1 94.2 98.4 95.2 91.4 97.9 89.8 98.1 86.8 98.4 88.7 108.7 89.6 107.2 89.9 106.9 90.3 106.7 90.9 106.6 91 106.6 92.9 103.5 92.8 103.8 92.9 104.2 93.1 104.7 93.4 105.2 93.8 105.7 94.4 106.2 95 106.7 95.7 107.1 96.4 107.5 97.1 107.8 97.8 108.1 98.4 108.2 99 108.2 99.5 108.2 99.8 108 100 107.7 100.5 106.9 100.6 106.9 102 104.6 102.9 103.2 103 103.2 102.8 103.4 102.4 103.6 101.9 103.6 101.4 103.6 100.7 103.5 100 103.3 99.3 103 98.6 102.6 97.9 102.2 97.2 101.8 96.6 101.3 96.2 100.8 95.8 100.4 95.6 99.9 95.5 99.6 95.6 99.2 96.6 97.8 98.1 95.6 98 95.9 98.1 96.2 98.4 96.6 98.7 97.1 99.2 97.5 99.8 97.9 100.1 98.1 100.5 98.4 101.2 98.7 102 99.1 102.7 99.3 103.4 99.5 104.1 99.6 104.7 99.7 105.1 99.6 105.5 99.4 105.7 99.2 106.5 98.1 108 96 108.2 95.7 108 96 107.7 96.1"/><polygon class="cls-7" points="105.1 99.6 104.7 99.7 104.1 99.6 103.4 99.5 102.7 99.3 102 99.1 101.2 98.7 100.5 98.4 100.1 98.1 99.8 97.9 99.2 97.5 98.7 97.1 98.4 96.6 98.1 96.2 98 95.9 98.1 95.6 96.6 97.8 95.6 99.2 95.5 99.6 95.6 99.9 95.8 100.4 96.2 100.8 96.6 101.3 97.2 101.8 97.9 102.2 98.6 102.6 99.3 103 100 103.3 100.7 103.5 101.4 103.6 101.9 103.6 102.4 103.6 102.8 103.4 103 103.2 102.9 103.2 102 104.6 100.6 106.9 101.3 106.4 102 106.1 102.4 105.8 102.5 105.7 103.7 105.1 104.3 104.7 104.4 104.6 105 104.2 105.2 103.8 104.5 101.2 104.4 101.1 104.4 101 104.5 101 105 100.2 105.7 99.2 105.5 99.4 105.1 99.6"/><polygon class="cls-7" points="112.4 89.3 112 89.3 111.4 89.3 111.3 89.4 111.2 89.3 110.7 89.3 109.9 89.2 109.1 89 108.2 88.8 107.4 88.6 106.6 88.4 105.9 88.1 105.3 87.8 104.8 87.6 104.5 87.3 104.3 87.1 104.3 86.9 104 87.3 102.6 89.2 101.8 90.5 101.4 90.9 93 94.2 84 95.2 84.9 96.2 85.8 97.5 88.7 97.9 89.8 98.1 91.4 97.9 98.4 95.2 99.1 94.2 99.7 93.4 100.3 92.5 100.2 92.8 100.4 93.1 100.6 93.5 101 93.9 101.5 94.3 102.2 94.6 102.9 95 103.6 95.3 104.4 95.6 105.2 95.9 105.9 96 106.6 96.1 107.2 96.2 107.6 96.1 107.7 96.1 107.7 96.1 108 96 108.2 95.7 109.4 94 110.8 92 112.2 90.1 112.8 89 112.7 89.1 112.4 89.3"/><polygon class="cls-8" points="48.7 31.7 48.7 31.7 48.1 31.8 47.5 32 47 32.4 46.6 32.9 46.2 33.6 45.9 34.3 45.8 35.1 45.7 35.9 45.8 36.7 45.9 37.3 46 37.5 46.1 37.7 46.1 37.6 46.4 36.9 46.6 36.3 46.7 36.2 47.1 35.5 47.6 34.8 47.9 34.2 48 34.1 48.5 33.5 48.9 33 49.2 32.6 49.4 32.3 49.5 32.2 49.6 32.1 49.7 32 49.2 31.8 48.8 31.8 48.7 31.7"/><polygon class="cls-8" points="66.5 96.6 66.7 96.4 66.5 96.3 66.5 96.6"/><polygon class="cls-9" points="102 106.1 101.3 106.4 100.6 106.9 100.5 106.9 100 107.7 98 111 98.2 111.4 98.3 111.9 98.2 112.3 97.6 113.3 98.2 114.4 98.8 116 99 117.7 99.1 119.4 98.9 120.6 98.8 121.1 98.3 122.7 97.8 123.7 97.8 123.9 97.6 124.1 97.3 124.5 96.7 125.3 95.6 126.3 95.6 126.3 94.4 127 93.1 127.3 88.5 127.5 87.3 128.3 85.6 129.1 83.8 129.5 82.3 129.4 80.9 128.9 79.7 128 78.9 126.6 78.4 124.9 78.2 123 78.4 120.8 78.6 119.5 73.4 122.6 72.9 122.9 72.5 123 72 123.3 71.9 123.4 71.6 123.5 70.7 123.9 70.6 124 69.5 124.4 69.5 124.4 68.5 124.7 68.5 124.8 68.2 124.8 67.7 124.9 67.6 125.9 67.9 129.6 68.9 132.7 70.5 135.2 72.6 136.9 73.4 137.2 75.9 138.2 76.7 138.2 78.8 138.3 79.6 138.3 82.7 137.6 83.4 137.4 86.5 135.9 89.7 133.7 92.7 130.9 93 130.7 95.7 127.5 98 123.9 100 120 101.4 116 101.5 115.7 102.4 111.7 102.7 107.9 102.5 105.7 102.4 105.8 102 106.1"/><polygon class="cls-7" points="81.3 121.3 81.9 121.8 82.3 122.3 83.1 122.7 84 123 85 123 86.1 122.9 87.1 122.5 87 122.2 86.9 121.4 86.9 121 86.7 120.9 86.5 120.7 86.3 120.3 86.1 119.9 86.1 119.5 86.1 119 86.3 118.4 86.4 118.1 80.3 118.3 77.7 118 78 116.3 78.4 114.7 79.2 113.3 80.1 112 81.2 111.1 82.4 110.4 83.7 110 85.8 110 84.5 103 84.3 102 84.1 100.8 83.9 99.9 83.9 99.5 83.7 99.6 80.3 102.9 77.1 106.8 74.2 111.3 71.9 116 70.2 121 69.5 124.4 69.5 124.4 70.6 124 70.7 123.9 71.6 123.5 71.9 123.4 72 123.3 72.5 123 72.9 122.9 73.4 122.6 78.6 119.5 79.2 119.2 81.3 121.3"/><polygon class="cls-4" points="85.8 110 83.7 110 85 110 86.4 110.4 87.6 111 88.7 112 89.7 113.2 90.4 114.6 91 116.2 91.3 117.9 91.3 119.6 91.1 121.3 90.6 122.9 89.9 124.3 88.9 125.6 87.8 126.5 86.6 127.2 85.3 127.5 88.5 127.5 93.1 127.3 94.4 127 95.6 126.3 95.6 126.3 96.7 125.3 97.3 124.5 97.6 124.1 97.8 123.9 97.8 123.7 98.3 122.7 98.8 121.1 98.9 120.6 99.1 119.4 99 117.7 98.8 116 98.2 114.4 97.6 113.3 98.2 112.3 97.9 112.6 97.5 112.8 96.9 112.9 96.3 112.9 95.5 112.7 94.7 112.4 93.8 112.1 93 111.6 92.1 111.1 91.4 110.5 90.7 109.9 90.2 109.2 89.8 108.7 89.6 108.1 89.5 107.6 89.6 107.2 88.7 108.7 87.9 109.9 85.8 110"/><polygon class="cls-4" points="86.9 118.1 88.1 118.1 88.2 117 88.3 116.7 88.2 116.2 88.1 116 87.7 115.3 87.6 115.2 87.1 114.6 87 114.5 86.4 114 86.3 113.9 85.7 113.6 85.5 113.5 84.8 113.4 84 113.4 83.2 113.6 82.5 114 81.8 114.6 81.2 115.4 80.8 116.3 80.5 117.2 80.3 118.3 86.4 118.1 86.9 118.1 86.9 118.1"/><polygon class="cls-8" points="88.3 121.3 88.6 120.3 88.7 119.3 88.7 118.2 88.5 117.2 88.3 116.7 88.2 117 88.1 118.1 86.9 118.1 86.9 118.1 86.9 118.8 86.9 119.4 86.9 119.9 86.9 120.4 86.9 120.7 86.9 120.9 86.9 121 86.9 121.4 87.9 122 88.3 121.3"/><polygon class="cls-12" points="81.2 111.1 80.1 112 79.2 113.3 78.4 114.7 78 116.3 77.7 118 80.3 118.3 80.5 117.2 80.8 116.3 81.2 115.4 81.8 114.6 82.5 114 83.2 113.6 84 113.4 84.8 113.4 85.5 113.5 85.7 113.6 86.3 113.9 86.4 114 87 114.5 87.1 114.6 87.6 115.2 87.7 115.3 88.1 116 88.2 116.2 88.3 116.7 88.5 117.2 88.7 118.2 88.7 119.3 88.6 120.3 88.3 121.3 87.9 122 87.8 122.2 87.6 122.5 87.3 122.9 87.3 122.9 87.2 123 86.6 123.6 85.8 124 85.1 124.2 85 124.2 84.2 124.2 84.1 125.6 84 127.6 85.3 127.5 86.6 127.2 87.8 126.5 88.9 125.6 89.9 124.3 90.6 122.9 91.1 121.3 91.3 119.6 91.3 117.9 91 116.2 90.4 114.6 89.7 113.2 88.7 112 87.6 111 86.4 110.4 85 110 83.7 110 82.4 110.4 81.2 111.1"/><polygon class="cls-13" points="84 127.6 84.1 125.6 83.6 125.4 83.1 125.1 82.3 124.5 81.8 123.6 81.4 122.5 81.3 121.3 79.2 119.2 78.6 119.5 78.4 120.8 78.2 123 78.4 124.9 78.9 126.6 79.7 128 80.9 128.9 82.3 129.4 83.8 129.5 85.6 129.1 87.3 128.3 88.5 127.5 85.3 127.5 84 127.6"/><polygon class="cls-4" points="85 124.2 85.1 124.2 84.2 124.2 85 124.2"/><polygon class="cls-8" points="85.1 124.2 85.8 124 86.6 123.6 87.2 123 87.3 122.9 87.2 122.8 87.1 122.5 86.1 122.9 85 123 84 123 83.1 122.7 82.3 122.3 81.9 121.8 82 122.8 82.3 123.9 82.9 124.8 83.6 125.4 84.1 125.6 84.2 124.2 85.1 124.2"/><polygon class="cls-3" points="87.3 122.9 87.3 122.9 87.6 122.5 87.8 122.2 87.9 122 86.9 121.4 87 122.2 87.1 122.5 87.2 122.8 87.3 122.9"/><polygon class="cls-5" points="104.4 101.1 104.5 101.2 105.2 103.8 105.2 103.6 105.2 103.5 104.5 101 104.4 101 104.4 101.1"/><polygon class="cls-14" points="86.9 119.4 86.9 118.8 86.9 118.1 86.9 118.1 86.9 118.1 86.4 118.1 86.3 118.4 86.1 119 86.1 119.5 86.9 119.9 86.9 119.4"/><polygon class="cls-3" points="86.9 120.7 86.9 120.4 86.9 119.9 86.1 119.5 86.1 119.9 86.3 120.3 86.5 120.7 86.7 120.9 86.9 121 86.9 120.9 86.9 120.7"/><polygon class="cls-8" points="25.7 52.7 25.4 52.5 24.9 52.2 24.4 51.8 23.8 51.4 23.1 50.9 22.4 50.5 21.8 50 21.1 49.6 20.5 49.2 20 48.9 19.6 48.7 19.4 48.5 19.2 48.4 19.2 48.4 18.3 49.6 16.6 52.2 16 53.2 16 53.2 16.2 53.3 16.5 53.4 16.9 53.6 17.5 53.9 18.1 54.3 18.7 54.6 19.4 55.1 20.1 55.5 20.8 55.9 21.4 56.3 22 56.7 22.4 57 22.8 57.2 23 57.4 23.1 57.5 23.6 56.6 25.2 54.2 26.1 53 26 52.9 25.7 52.7"/><polygon class="cls-7" points="38.4 32.7 38.2 33 38.1 33.5 38.2 34.1 38.4 34.7 38.7 35.4 39 36.1 39.5 36.8 40 37.5 40.5 38.1 40.6 38 40.6 38.1 41.1 38.6 41.7 39.1 42.2 39.4 42.4 39.5 42.8 39.7 43.2 39.8 43.8 39.7 43.9 39.7 45 39.6 44.9 39.6 45.4 39.6 45.5 39.4 45.5 39.2 45.5 39.1 45.7 38.7 45.7 38.5 45.9 38.2 46 37.9 46.1 37.7 46 37.5 45.9 37.3 45.8 36.7 45.7 35.9 45.8 35.1 45.9 34.3 46.2 33.6 46.6 32.9 47 32.4 47.5 32 48.1 31.8 48.7 31.7 48.7 31.7 48.8 31.8 49.2 31.8 49.1 31.8 47.1 31.4 46.8 31.4 44.8 31.3 42.7 31.5 40.6 31.9 38.6 32.5 38.5 32.5 38.4 32.7"/><polygon class="cls-7" points="61.4 103.9 64.2 99.4 64.1 99.6 64 99.8 61.4 103.9 59.2 108.5 57.5 113.2 57.4 113.6 59.1 108.6 61.4 103.9"/><polygon class="cls-5" points="59.7 122.1 60.3 122.5 60.4 122.6 61.1 123.1 61.8 123.5 62.9 124.1 63.3 124.3 64 124.5 64.8 124.8 65.1 124.9 66 125 66.1 125 66.4 125.1 66.5 125.1 66.9 125 67 125 67.7 124.9 68.2 124.8 68.5 124.8 68.5 124.7 69.5 124.4 70.2 121 71.9 116 74.2 111.3 77.1 106.8 80.3 102.9 83.7 99.6 83.9 99.5 83.7 98.8 83.1 98.8 82.8 98.9 80.9 99.1 80.9 99.1 79.6 98.9 73.2 98.2 70.5 97.9 68.4 97 67.9 96.9 67.6 96.7 67 96.5 66.7 96.4 66.5 96.6 64.2 99.4 61.4 103.9 59.1 108.6 57.4 113.6 56.7 117 56.7 118 56.7 118.2 57 119.3 57.3 119.7 57.4 119.9 57.7 120.2 58.8 121.3 59.3 121.7 59.4 121.8 59.7 122.1"/><polygon class="cls-13" points="62.4 128.9 61.4 125.8 61.1 123.1 60.4 122.6 60.6 125.3 61.6 128.5 63.1 130.9 65.3 132.7 66 133.2 63.9 131.4 62.4 128.9"/><polygon class="cls-13" points="68.9 132.7 67.9 129.6 67.6 125.9 67.7 124.9 67 125 66.9 125 66.9 125.5 67.2 129.2 68.2 132.3 69.8 134.8 71.9 136.5 72.6 136.9 70.5 135.2 68.9 132.7"/><polygon class="cls-13" points="66.4 131.2 65.4 128.1 65.1 124.9 64.8 124.8 64 124.5 63.3 124.3 62.9 124.1 63.1 126.8 64.1 129.9 65.7 132.4 67.8 134.2 68.9 134.8 70 135.5 67.9 133.7 66.4 131.2"/><polygon class="cls-9" points="68.2 132.3 67.2 129.2 66.9 125.5 66.9 125 66.5 125.1 66.4 125.1 66.1 125 66 125 65.1 124.9 65.4 128.1 66.4 131.2 67.9 133.7 70 135.5 71.9 136.5 69.8 134.8 68.2 132.3"/><polygon class="cls-9" points="64.1 129.9 63.1 126.8 62.9 124.1 61.8 123.5 61.1 123.1 61.4 125.8 62.4 128.9 63.9 131.4 66 133.2 67.8 134.2 65.7 132.4 64.1 129.9"/><polygon class="cls-3" points="82.3 123.9 82 122.8 81.9 121.8 81.3 121.3 81.4 122.5 81.8 123.6 82.3 124.5 83.1 125.1 83.6 125.4 82.9 124.8 82.3 123.9"/><polygon class="cls-10" points="44.1 78.2 43.9 77.7 43.7 77.3 43.4 76.9 43.1 76.5 42.8 76.2 42.4 75.9 42.1 75.8 41.7 75.7 41.4 75.7 41.2 75.8 40.9 76 40.8 76.3 40.7 76.6 40.6 77 40.7 77.4 40.8 77.8 40.9 78.3 41.2 78.7 41.4 79.1 41.7 79.5 42.1 79.8 42.4 80 42.8 80.2 43.1 80.3 43.4 80.3 43.7 80.2 43.9 80 44.1 79.7 44.2 79.4 44.2 79 44.2 78.6 44.1 78.2"/><polygon class="cls-10" points="66.3 92.9 66.4 92.7 66.5 92.3 66.6 91.9 66.5 91.5 66.4 91.1 66.3 90.6 66 90.2 65.8 89.8 65.5 89.4 65.1 89.1 64.8 88.9 64.4 88.7 64.1 88.6 63.8 88.6 63.5 88.7 63.3 88.9 63.2 89.2 63 89.5 63 89.9 63 90.3 63.2 90.8 63.3 91.2 63.5 91.6 63.8 92.1 64.1 92.4 64.4 92.7 64.8 93 65.1 93.1 65.5 93.2 65.8 93.2 66 93.1 66.3 92.9"/><polygon class="cls-10" points="106.6 61.2 107.2 61.3 107.8 61.2 108.4 61 109 60.6 109.6 60 110.1 59.4 110.5 58.7 110.8 57.9 111 57.1 111 56.3 111 55.5 110.8 54.8 110.5 54.1 110.1 53.6 109.6 53.3 109 53 108.4 53 107.8 53.1 107.1 53.3 106.5 53.7 106 54.2 105.5 54.9 105.1 55.6 104.8 56.4 104.6 57.2 104.5 58 104.6 58.8 104.8 59.5 105.1 60.1 105.5 60.7 106 61 106.6 61.2"/><polygon class="cls-15" points="48.8 31.8 48.7 32 48.5 32.3 48.3 32.8 48 33.3 47.6 34 47.2 34.7 47 35.1 46.9 35.4 46.5 36.1 46.2 36.9 46.1 37 46 37.5 46 37.5 45.9 37.7 45.8 38.2 45.7 38.5 45.2 40.6 45 42.8 45.1 45.1 45.5 47.3 46 48.8 46.3 49.6 47.5 51.6 49 53.7 50 54.9 50.8 55.6 52.9 57.3 55.2 58.9 57.9 60.2 60.8 61.4 62 61.8 63.8 62.3 67.1 63 70.4 63.5 71.7 63.6 73.9 63.7 77.4 63.7 80.9 63.6 84.5 63.3 86.9 63 88 62.8 91.4 62.1 94.6 61.2 97.8 60.2 100.8 59.1 101.3 58.9 101.2 57.9 101.3 57.8 101.3 56.7 101.6 55.4 102.1 54.2 102.5 53.4 102.7 53.1 103.4 52.1 104.3 51.3 104.7 51.1 105 51 103.8 43.7 103.2 40.2 102.1 33.9 101.9 32.7 101.5 30.3 101.2 28.3 100.9 28.2 100.5 28 100.1 27.7 99.8 27.2 99.7 26.9 99.7 26.7 99.5 26.4 99.5 26.2 99.5 25.8 99.7 25.3 99.9 25 99.9 24.9 100.1 24.6 100.5 24.3 100.8 24.1 101.1 23.9 101.6 23.8 102 23.8 102.3 23.9 102.4 23.9 102.8 24 103.1 24.2 103.5 24.6 103.8 25 103.8 25 103.9 25.3 104.1 25.9 104.1 26.4 104 26.7 103.9 26.9 103.7 27.3 103.5 27.7 103.3 27.9 103.2 27.9 103.5 30.1 103.7 30.8 104.2 34 105.1 39.3 105.6 42.3 106.8 49.4 106.9 50.2 107.1 50.2 107.2 50.2 108.1 50.3 109.7 50.8 109.9 50.9 110.5 51.2 111.2 51.7 111.3 51.7 111.8 52.4 112.5 51.8 114 50.1 115.2 48.3 116.2 46.6 116.3 46 116.7 44.7 116.9 42.8 116.8 41 116.4 39.2 115.7 37 114.9 35.1 110.2 26.8 109.2 25.1 107.9 23.6 102.9 18.3 101.6 17 100.2 15.9 98.5 14.9 96.7 13.9 94.8 13.1 91.7 11.9 90.1 11.4 88.3 10.9 86.6 10.5 84.7 10.3 82.8 10.1 80.9 10 79.1 10.1 77.2 10.3 75.3 10.5 73.5 10.9 71.8 11.4 70.2 11.9 67.1 13.1 65.2 13.9 63.4 14.9 61.7 15.9 60.3 17 59 18.3 57.4 19.9 56.3 21.1 55.2 22.3 54.9 22.6 54.1 23.4 54 23.6 53.3 24.4 52.7 25.1 52.5 25.4 51.8 26.5 51.7 26.8 51.2 27.6 50.7 28.6 50.2 29.4 49.8 30.1 49.5 30.5 49.5 30.6 48.9 31.7 48.9 31.8 48.8 31.8"/></svg>