<svg id="Layer_1" data-name="Layer 1" xmlns="http://www.w3.org/2000/svg" viewBox="0 0 92.9 153.1"><defs><style>.cls-1{fill:#ededf4;}.cls-2{fill:none;}.cls-3{fill:#b5b5c1;}.cls-4{fill:#7b7a88;}.cls-5{fill:#4b3a2d;}.cls-6{fill:#5e5c6a;}.cls-7{fill:#43434b;}.cls-8{fill:#d9d9df;}.cls-9{fill:#9399a8;}.cls-10{fill:#6d5c46;}.cls-11{fill:#2affff;}.cls-12{fill:#46bbed;}.cls-13{fill:#54d9ff;opacity:0.5;}</style></defs><rect class="cls-1" x="-215.1" y="-575.5" width="1000" height="800"/><polygon class="cls-2" points="35.3 53.3 35.4 54.3 35.4 54.3 35.3 53.3 35.3 53.3"/><polygon class="cls-2" points="72.9 77.5 68.9 79.3 72.9 77.5 72.9 77.4 72.9 77.5"/><polygon class="cls-2" points="30.5 95.6 30.6 96.1 30.5 95.6 29.9 95.5 30.5 95.6"/><polygon class="cls-2" points="36.4 55.6 36.4 55.6 36.1 54.8 36.4 55.6"/><polygon class="cls-2" points="73.4 77.9 73.6 78.1 73.5 78.3 73.6 78.1 73.4 77.9"/><polygon class="cls-2" points="0.9 51.7 0.2 61.8 1.3 69 0.2 61.8 0.9 51.7"/><polygon class="cls-2" points="41.7 49.5 40.9 49.4 41.2 49.4 41.6 49.5 42.3 49.7 42 49.6 41.7 49.5"/><polygon class="cls-2" points="41.4 58.1 41.4 58.1 41.3 58.1 41.4 58.1"/><polygon class="cls-2" points="44.5 60.3 45 60.1 45 60.1 44.5 60.3"/><polygon class="cls-2" points="32.6 53.5 32.6 53.5 32.8 54.8 32.8 55.1 32.8 55 32.6 53.5"/><polygon class="cls-2" points="35 59.1 36.2 60.1 36.6 60.3 36.2 60.1 35 59.1"/><polygon class="cls-3" points="49.1 103 49 103.8 50.9 104.4 55.6 107.1 59.7 110.6 63.1 115 65.6 119.9 66.7 123.8 67.4 124.2 67.6 124.3 68.2 124.8 68.3 125 68.4 125.1 68.4 125.3 68.4 125 66.8 119.4 64.2 114.2 60.6 109.6 56.3 105.9 51.4 103.1 49.3 102.4 49.2 102.6 49.1 103"/><polygon class="cls-4" points="50.6 95.7 50.6 95.4 50.7 95.1 51.1 93 48.4 93.6 40.6 94.1 32.8 93.6 30 93 30.4 95.1 30.5 95.4 30.5 95.6 30.6 96.1 30.7 96.3 31.9 102.4 31.9 102.6 32 103 32.2 103.8 32.3 104.8 32.6 105.9 32.8 107.1 35.5 121 35.5 128.3 35.6 129.3 35.9 130.2 36.4 131.1 37 131.9 37.8 132.5 38.4 132.8 37.4 132.6 35.9 132 34.4 131.2 33.1 130.2 31.9 129.1 31.8 128.9 31.9 130 32.4 131.7 33.2 133.2 34.3 134.5 35.7 135.6 37.2 136.4 38.9 136.9 40.6 137.1 42.3 136.9 44 136.4 45.5 135.6 46.8 134.5 47.9 133.2 48.7 131.7 49.2 130 49.3 128.9 49.2 129.1 48 130.2 46.7 131.2 45.3 132 43.8 132.6 42.8 132.8 43.4 132.5 44.1 131.9 44.8 131.1 45.2 130.2 45.5 129.3 45.6 128.3 45.6 121 48.3 107.1 48.6 105.9 48.8 104.8 49 103.8 49.1 103 49.2 102.6 49.3 102.4 50.5 96.3 50.5 96.1 50.6 95.7"/><polygon class="cls-5" points="27.5 125.7 27.2 128.3 27.5 130.9 28.2 133.4 29.5 135.7 31.1 137.7 33.1 139.4 35.5 140.6 38 141.4 40.6 141.7 43.2 141.4 45.7 140.6 48 139.4 50 137.7 51.7 135.7 52.9 133.4 53.7 130.9 53.9 128.3 53.7 125.7 53.1 123.8 49.3 128.9 49.2 130 48.7 131.7 47.9 133.2 46.8 134.5 45.5 135.6 44 136.4 42.3 136.9 40.6 137.1 38.9 136.9 37.2 136.4 35.7 135.6 34.3 134.5 33.2 133.2 32.4 131.7 31.9 130 31.8 128.9 28 123.8 27.5 125.7"/><polygon class="cls-6" points="81.2 70.7 81.6 71.6 82.2 72.6 83.1 73.7 84.1 74.9 85.3 76.1 86.6 77.3 88 78.4 89.3 79.5 90.6 80.3 91.8 81.1 92.9 81.6 91.2 79.5 91 79.3 90.3 79 89.6 78.6 89.5 78.5 88.8 78 88.7 78 88 77.4 87.9 77.3 87.1 76.7 87.1 76.6 86.3 75.9 86.3 75.9 85.6 75.2 85.5 75.1 84.9 74.4 84.9 74.4 84.4 73.7 84.4 73.7 84 73.1 84 73.1 83.8 72.6 83.7 72.6 83.7 72.2 83.7 72.2 83.7 72 84 71.8 84.4 71.9 84.9 72 85.6 72.3 86.3 72.8 87.1 73.3 87.9 74 88.8 74.7 89.6 75.4 90.3 76.2 91 76.9 92.8 77.7 91.8 76.5 90.6 75.3 89.3 74.1 87.9 72.9 86.6 71.9 85.3 71 84.1 70.3 83 69.8 82.2 69.5 81.5 69.5 81.1 69.7 81 70.1 81.2 70.7"/><polygon class="cls-7" points="90.3 76.2 89.6 75.4 88.8 74.7 87.9 74 87.1 73.3 86.3 72.8 85.6 72.3 84.9 72 84.4 71.9 84 71.8 83.7 72 83.7 72.2 83.7 72.2 83.7 72.6 83.8 72.6 84 73.1 84 73.1 84.4 73.7 84.4 73.7 84.9 74.4 84.9 74.4 85.5 75.1 85.6 75.2 86.3 75.9 86.3 75.9 87.1 76.6 87.1 76.7 87.9 77.3 88 77.4 88.7 78 88.8 78 89.5 78.5 89.6 78.6 90.3 79 91 79.3 91.2 79.5 92.8 77.7 91 76.9 90.3 76.2"/><polygon class="cls-6" points="77.8 69.3 77.6 69.5 77.3 69.8 76.9 70.3 76.5 70.8 76 71.3 75.5 71.9 74.9 72.6 74.4 73.2 73.8 73.8 73.3 74.3 72.9 74.8 72.6 75.2 72.3 75.5 72.2 75.6 72.1 75.6 72.1 75.6 71.9 75.9 71.7 76.2 71.6 76.3 71.6 76.2 71.8 76.1 72.1 75.7 72.5 75.3 73 74.7 73.6 74.1 74.2 73.3 74.9 72.6 75.6 71.8 76.2 71.1 76.8 70.4 77.3 69.8 77.8 69.3 78.1 68.9 78.3 68.7 78.4 68.6 78.3 68.6 78.2 68.8 78.1 68.9 77.9 69.1 77.8 69.2 77.8 69.2 77.8 69.3"/><polygon class="cls-8" points="41.2 16.1 41.2 16.4 41.2 16.5 41.2 16.9 41.2 17.9 41.2 18.4 44.8 18.4 48.8 18.4 52.2 18.4 54.9 18.4 56.5 18.4 57.1 18.4 56.4 17.9 54.2 16.9 51.8 16.4 50.9 16.3 47.4 16.1 46.5 16.1 44 16.1 41.2 16.1 41.2 16.1 41.2 16.1"/><path class="cls-3" d="M34,38.1l.4,1.2.7,1.2.8,1,1.1.8,1.2.6,1.2.4h2.7l1.3-.4,1.1-.6,1.1-.8.8-1,.6-1.2.4-1.2V36.8l-.2-1.3V35l-.3-.8-.5-.9v-.2l-.8-1h-.1l-1-.8-1.2-.6-1.3-.4H39.3l-1.3.4-1.1.6-1.1.8h0l-.8,1-.3.5-.3.6-.3.8v3.1Zm2.3-2.2.3-.8.4-.7.5-.7.7-.5.8-.4.8-.2h1.7l.8.2.8.4.7.5.5.7.5.7.2.8v1.7l-.2.8-.4.8-.5.6-.7.6-.8.4-.8.2H39.9l-.9-.2-.7-.4-.7-.6-.6-.6-.4-.8-.2-.8V35.9Z"/><polygon class="cls-3" points="39.5 4.4 39.5 4.2 39.7 4.3 40.1 4.4 40.3 4.4 40.6 4.4 41 4.3 41.1 4.3 41.1 4.4 41.1 4.5 41.1 4.6 41.4 4.5 41.8 4.1 42 4 42.3 3.5 42.6 3 42.6 2.4 42.6 1.8 42.3 1.2 42.2 1 41.8 0.6 41.4 0.3 41.1 0.2 40.7 0 40.5 0 40.3 0 40 0 39.8 0 39.7 0.1 39.2 0.3 38.8 0.6 38.6 0.7 38.2 1.2 38 1.8 37.9 2.4 38 3 38.3 3.5 38.4 3.7 38.7 4.1 39.2 4.5 39.5 4.5 39.5 4.5 39.5 4.4"/><polygon class="cls-7" points="72.6 83.4 72.3 84.6 71.9 85.8 71.9 86 71.3 86.7 70.6 87.4 69.4 88.7 68.7 89.6 65.5 91.5 65.4 91.5 65.9 92.5 66.5 93.8 67.2 95.3 68.7 98.5 70.2 101.5 70.8 102.9 71.4 104.1 71.9 105 72.2 105.7 83.6 100.2 82.2 97.2 82 96.8 81.7 96.2 81.4 95.5 81.1 95.1 81.2 95 80.5 93.5 79.7 91.9 78.9 90.3 78.2 88.8 77.6 87.4 77 86.3 76.5 85.3 76.2 84.7 76 84.3 76 84.3 74.9 84.8 73.9 82.6 73.7 82.4 73.3 82.3 72.9 82.3 72.9 82.5 72.6 83.4"/><polygon class="cls-9" points="71 83.9 70.4 86 68.1 88.5 67.1 89.6 62 92.7 60.4 93.2 59.3 93.6 54.4 95.1 50.6 95.7 50.5 96.1 50.5 96.3 56.8 95.1 63.5 92.7 65.4 91.5 65.5 91.5 68.7 89.6 69.4 88.7 70.6 87.4 71.3 86.7 71.9 86 71.9 85.8 72.3 84.6 72.6 83.4 72.9 82.5 72.9 82.3 73 82.1 71.4 82.1 71 83.9"/><polygon class="cls-10" points="64.3 123 64.2 123 64.1 123 63.5 123 63 122.9 62.7 122.9 61.6 122.9 60.6 122.9 53.8 122.9 53.1 123.8 53.7 125.7 53.9 128.3 53.7 130.9 52.9 133.4 51.7 135.7 50 137.7 48 139.4 45.7 140.6 43.2 141.4 40.6 141.7 38 141.4 35.5 140.6 33.1 139.4 31.1 137.7 29.5 135.7 28.2 133.4 27.5 130.9 27.2 128.3 27.5 125.7 28 123.8 27.3 122.9 20.6 122.9 19.5 122.9 18.5 122.9 18.1 122.9 17.6 123 17 123 16.9 123 16.8 123 16.5 123.1 16.3 123.1 16.3 123.5 15.8 128.3 16.3 133.1 17.7 137.8 20 142.1 23 145.8 26.8 148.9 31.1 151.2 35.7 152.6 40.6 153.1 45.4 152.6 50.1 151.2 54.4 148.9 58.1 145.8 61.2 142.1 63.5 137.8 64.9 133.1 65.4 128.3 64.9 123.5 64.8 123.1 64.7 123.1 64.3 123"/><polygon class="cls-9" points="16.8 123 16.9 123 17 123 17.6 123 18.1 122.9 18.5 122.9 19.5 122.9 20.6 122.9 27.3 122.9 28 123.8 31.8 128.9 31.9 129.1 33.1 130.2 34.4 131.2 35.9 132 37.4 132.6 38.4 132.8 37.8 132.5 37 131.9 36.4 131.1 35.9 130.2 35.6 129.3 35.5 128.3 35.5 121 32.8 107.1 32.6 105.9 32.3 104.8 32.2 103.8 30.2 104.4 25.6 107.1 21.5 110.6 18.1 115 15.6 119.9 14.5 123.8 15.6 123.3 16.3 123.1 16.5 123.1 16.8 123"/><path class="cls-7" d="M79.5,69.6l-.7-.7-.4-.3h-.1l-.2.2-.3.4-.5.5-.5.6-.6.7-.6.7-.7.8-.7.7-.6.8-.6.6-.5.6-.4.4-.3.4h-.1l.2-.3.2-.3-.3-.2-.7-.7-.6-.5-.8,1-.3.5-1,1.7h4.5l.5.4.2.2v.2l-.4.4h-.2v.3l.2.7.4.8.6,1,.9,1.1,1,1.2,1.2,1.2,1.3,1.2,1.4,1.1,1.3,1.1,1.3.9,1.2.7,1.1.5,8.2-9.2-1.1-.5-1.2-.8-1.3-.8L88,78.4l-1.4-1.1-1.3-1.2-1.2-1.2-1-1.2-.9-1.1-.6-1-.4-.9-.2-.6v-.4l-.6.7h-.2Z"/><polygon class="cls-9" points="71.8 75.4 72.1 75.6 72.1 75.6 72.2 75.6 72.3 75.5 72.6 75.2 72.9 74.8 73.3 74.3 73.8 73.8 74.4 73.2 74.9 72.6 75.5 71.9 76 71.3 76.5 70.8 76.9 70.3 77.3 69.8 77.6 69.5 77.8 69.3 77.8 69.2 77.8 69.2 77.5 68.9 76.8 68.4 76.3 67.9 76 67.6 75.6 67.3 75 66.7 73.8 65.7 73.7 65.6 73.6 65.7 73.5 65.9 73.2 66.2 72.8 66.6 72.4 67.1 71.9 67.7 71.3 68.3 70.8 68.9 70.2 69.5 69.7 70.1 69.2 70.7 68.8 71.1 68.4 71.5 68.2 71.8 68 71.9 68 72 69.3 73.1 70 73.7 70.5 74.2 71.1 74.7 71.8 75.4"/><polygon class="cls-3" points="54.9 18.4 52.2 18.4 48.8 18.4 44.8 18.4 41.2 18.4 41.3 19.4 41.3 20.5 45.4 20.5 50 20.5 53.9 20.5 56.9 20.5 58.7 20.5 59.4 20.5 58.4 19.4 57.1 18.4 56.5 18.4 54.9 18.4"/><polygon class="cls-3" points="24.3 20.5 27.3 20.5 31.2 20.5 35.7 20.5 39.6 20.5 39.6 19.4 39.6 18.4 36.3 18.4 32.3 18.4 28.9 18.4 26.3 18.4 24.6 18.4 24.1 18.4 22.7 19.4 21.8 20.5 22.4 20.5 24.3 20.5"/><polygon class="cls-8" points="26.3 18.4 28.9 18.4 32.3 18.4 36.3 18.4 39.6 18.4 39.6 17.9 39.6 16.9 39.6 16.5 39.6 16.3 39.6 16.2 39.6 16.1 39.6 16.1 37.2 16.1 34.7 16.1 33.7 16.1 30.3 16.3 29.4 16.4 26.9 16.9 24.7 17.9 24.1 18.4 24.6 18.4 26.3 18.4"/><polygon class="cls-8" points="79.5 67.3 78.6 67.3 78.3 67.3 77.3 67.3 76.8 67.3 76.4 67.3 76 67.5 76 67.6 76.3 67.9 76.8 68.4 77.5 68.9 77.8 69.2 77.9 69.1 78.1 68.9 78.2 68.8 78.3 68.6 78.4 68.6 78.8 68.9 79.5 69.6 80.3 70.3 80.5 70.4 80.5 70.3 80.5 69.6 80.5 68.9 80.5 68.4 80.5 67.9 80.5 67.5 80.5 67.3 80.5 67.3 80.3 67.3 80.1 67.3 79.5 67.3"/><polygon class="cls-7" points="76 67.6 76 67.5 76.4 67.3 76.8 67.3 77.3 67.3 78.3 67.3 78.2 66.4 77.9 65 77.6 64.8 77.2 64.6 76.3 65 75.8 65.7 75.2 66.4 75 66.7 75.6 67.3 76 67.6"/><path class="cls-7" d="M19.7,38H20l1.8-.2h12V35l.3-.8.3-.6.3-.5.8-1h0l1.1-.8,1.1-.6,1.3-.4h2.6l1.3.4,1.2.6,1,.8h.1l.8,1v.2l.5.9.3.8v.5l.2,1.3v.5h12l1.7.2h1l.2-.3L63,35l.3-2.9V29.2l-.6-2.8-1-2.7-1.4-2.3-.8-.9H41.3v-4h0v-.3h0V4.6H39.5v.2h-.1l.2,11.6h0v4.2H21.8l-.8.9-1.4,2.3-1,2.7L18,29.2l-.2,2.9.3,2.9.8,2.8v.3h.7ZM61.1,26.4l.3.6.5,1,.4,1.1h0v3.3l-.4,1-.4.9-1.4-.7-3.5-1-1.5-.2v-.4l-.3-.7-.3-1.1V29.2h0V28l.4-1,.4-.6v-.2l.5-.6v-.2l.5-.5.7-.3.9-.2.9.2h0l.6.3.6.5.7.8Z"/><polygon class="cls-11" points="59.5 25.9 59.4 25.9 58.7 25.8 58.1 25.9 57.6 26.1 57.3 26.4 57.1 26.6 56.7 27.1 56.5 27.8 56.4 28.3 56.3 28.6 56.3 29.2 56.2 29.4 56.2 30.3 56.4 31.1 56.5 31.3 56.6 31.4 59.7 32.1 60.3 32.3 61.5 32.9 61.5 32.7 61.7 32.1 61.8 32 61.8 31.1 61.8 30.3 61.7 29.4 61.7 29.2 61.5 28.6 61.1 27.8 60.8 27.1 60.4 26.6 60.2 26.4 59.9 26.1 59.5 25.9"/><path class="cls-12" d="M59.6,24.9l-.6-.3h0l-.9-.2-.9.2-.7.3-.5.5v.2l-.5.6v.2l-.4.6-.4,1v1.1h0v1.1l.3,1.1.3.7v.4l1.5.2,3.5,1,1.4.7.4-.9.4-1V29.2h0L61.9,28l-.5-1-.3-.6-.2-.2-.7-.8Zm.8,1.7.4.5.3.7.4.8.2.6V32h-.1l-.2.6v.2l-1.2-.6-.6-.2-3.1-.7h-.1v-.2l-.2-.8V27.8l.2-.7.4-.5.2-.2.3-.3.5-.2h1.4l.4.2.3.3Z"/><path class="cls-4" d="M8.1,82.1H73l-.8-2.9.7-.2h.2l.4-.4v-.2l-.2-.2-.5-.4-4,1.8,4-1.8H3.7L9,79.2Z"/><path class="cls-9" d="M30.5,95.6h-.6l-.4-.2h-.4V90.9l.3-.2.4-.2H32l8.6,1.1,10.3-1.3,1.8-.6,1.6-1L58.5,86l1.2-2.1,1.2-1.8H8.1L9.3,86l3.2,3.6,5.1,3.1,6.8,2.4,6.3,1.2v-.7Z"/><path class="cls-7" d="M58.5,86l-4.2,2.6-1.6,1-1.8.6L40.6,91.5,32,90.4H29.9l-.4.2-.3.2v4.2h.4l.4.2h.6v-.5L30,93l2.8.6,7.8.5,7.8-.5,2.7-.6-.4,2.1v.6l3.8-.6,4.9-1.5,1.1-.4,1.6-.5,5.1-3.1,1-1L70.4,86l.6-2.1.4-1.8H60.9l-1.2,1.8Z"/><polygon class="cls-9" points="47.3 38.6 47.4 38.1 47 39.3 46.4 40.5 45.6 41.5 44.5 42.3 43.4 42.9 42.1 43.3 40.8 43.4 39.4 43.3 38.2 42.9 37 42.3 35.9 41.5 35.1 40.5 34.4 39.3 34 38.1 33.9 38.6 34.3 39.9 34.7 40.5 35 41 35.8 42 36.8 42.8 36.9 42.8 38 43.5 39.3 43.8 39.9 43.9 40.6 43.9 40.7 44 42 43.8 43.2 43.4 44.3 42.9 44.4 42.8 44.9 42.4 45.4 42 46.3 41 46.5 40.5 46.9 39.9 47.3 38.6"/><polygon class="cls-8" points="33.9 36.8 34 35.5 33.9 36 33.8 37.3 33.8 37.3 33.9 38.6 34 38.1 33.9 36.8"/><polygon class="cls-4" points="68.2 71.8 68.4 71.5 68.8 71.1 69.2 70.7 69.7 70.1 70.2 69.5 70.8 68.9 71.3 68.3 71.9 67.7 72.4 67.1 72.8 66.6 73.2 66.2 73.5 65.9 73.6 65.7 73.7 65.6 72.8 64.8 71.7 63.9 70.3 62.7 69.3 61.9 69.2 61.9 69.1 62 68.9 62.1 68.6 62.4 68.2 62.8 67.7 63.3 67.2 63.8 66.6 64.4 66.1 65.1 65.5 65.7 65 66.3 64.5 66.8 64.1 67.3 63.8 67.7 63.6 68 63.4 68.2 63.4 68.2 64.9 69.4 65.5 69.9 66.3 70.5 67.2 71.3 68 72 68 72 68 71.9 68.2 71.8"/><polygon class="cls-9" points="63.6 68 63.8 67.7 64.1 67.3 64.5 66.8 65 66.3 65.5 65.7 66.1 65.1 66.6 64.4 67.2 63.8 67.7 63.3 68.2 62.8 68.6 62.4 68.9 62.1 69.1 62 69.2 61.9 69.1 61.8 67.7 60.7 66.2 59.7 65.2 59.1 65.1 59.1 64.8 59.2 64.7 59.3 64.5 59.5 64 59.9 63.5 60.4 63 60.9 62.4 61.5 61.8 62.1 61.2 62.8 60.7 63.4 60.2 63.9 59.8 64.4 59.5 64.8 59.3 65.2 59.2 65.4 59.3 65.5 59.4 65.6 60.5 66.2 62.6 67.6 62.7 67.7 63.4 68.2 63.4 68.2 63.6 68"/><polygon class="cls-9" points="45.7 59.4 45.4 59.3 45 59.2 44.6 59.1 44.6 59 44.4 59 43.9 58.9 43.2 58.7 43.2 58.7 42 58.4 41.9 58.3 41.6 58.4 40.6 58.5 39.6 58.4 38.6 58.1 37.7 57.7 36.9 57 36.2 56.2 35.7 55.3 35.4 54.3 35.4 54.3 35.3 53.3 34.6 53.3 34.1 53.3 33.6 53.3 33.2 53.4 32.9 53.4 32.7 53.4 32.6 53.5 32.8 55 32.8 55.1 33.2 56.6 34 57.9 35 59.1 36.2 60.1 36.6 60.3 37.4 60.7 37.5 60.8 39 61.2 40.6 61.4 40.6 61.4 42.1 61.2 43.6 60.8 43.8 60.7 44.5 60.3 45 60.1 45 60.1 45.8 59.4 45.8 59.4 45.7 59.4"/><polygon class="cls-4" points="48.1 59.8 48.2 59.4 48.4 58.9 48.7 58.3 49.1 57.7 49.6 57 50.2 56.4 50.3 56.4 50.4 56.2 50.9 55.7 51.6 55.1 52.3 54.6 52.9 54.2 53.5 53.9 54.1 53.7 54.5 53.6 54.9 53.6 53 52.9 52.2 52.5 50.9 52.1 48.9 51.4 48.3 51.2 48.2 51.2 48.1 51.2 48 51.1 47.4 51 46.7 51 46 51.2 45.5 51.4 45.2 51.5 44.4 51.9 43.6 52.5 42.9 53.1 42.3 53.8 41.8 54.4 41.7 54.5 41.7 54.5 41.3 55.2 41 56 40.9 56.6 40.9 57.2 41 57.7 41.4 58.1 41.4 58.1 41.8 58.3 41.9 58.3 41.9 58.3 42 58.4 43.2 58.7 43.2 58.7 43.9 58.9 44.4 59 44.6 59 44.6 59.1 45 59.2 45.4 59.3 45.7 59.4 45.8 59.4 45.8 59.4 46.2 59.6 48 60.1 48.4 60.3 48.2 60.1 48.1 59.8"/><polygon class="cls-9" points="47.5 51 47.2 50.9 47.1 50.9 46.8 50.8 46.5 50.7 45.9 50.5 45.6 50.4 44.9 50.3 44.2 50.1 43.1 49.9 42.9 49.8 42.5 49.7 42.3 49.7 41.6 49.5 41.2 49.4 40.3 49.4 39.4 49.6 38.6 49.9 38.4 50 37.9 50.3 37.2 50.9 36.7 51.6 36.3 52.4 36.1 53.2 36.1 54 36.2 54.8 36.4 55.6 36.7 56.1 36.8 56.1 36.8 56.2 36.8 56.3 37.4 56.9 38.1 57.3 38.9 57.7 39.3 57.7 39.9 57.9 40.8 58.1 41.8 58.3 41.4 58.1 41.3 58.1 41.4 58.1 41 57.7 40.9 57.2 40.9 56.6 41 56 41.3 55.2 41.7 54.5 41.8 54.4 42.3 53.8 42.9 53.1 43.6 52.5 44.4 51.9 45.2 51.5 45.5 51.4 46 51.2 46.7 51 47.4 51 48 51.1 47.9 51.1 47.5 51"/><polygon class="cls-3" points="39.9 57.9 39.3 57.7 38.9 57.7 38.1 57.3 37.4 56.9 36.8 56.3 36.8 56.2 36.8 56.1 36.7 56.1 36.4 55.6 36.4 55.6 36.4 55.6 36.3 55.5 36 54.7 35.9 53.9 35.9 53.1 36 52.2 36.4 51.5 36.8 50.8 37.4 50.2 38.1 49.7 38.9 49.4 39.7 49.2 40 49.2 40.2 49.2 40.1 49.2 40.6 49.2 40.9 49.2 41.1 49.2 42 49.4 42.8 49.7 42.9 49.8 43.1 49.9 44.2 50.1 44.9 50.3 44.3 49.6 43.5 48.9 42.6 48.4 41.6 48.1 40.6 48 39.6 48.1 38.6 48.4 37.7 48.9 36.9 49.6 36.2 50.4 35.7 51.3 35.4 52.3 35.3 53.3 35.4 54.3 35.7 55.3 36.2 56.2 36.9 57 37.7 57.7 38.6 58.1 39.6 58.4 40.6 58.5 41.6 58.4 41.9 58.3 41.9 58.3 41.8 58.3 40.8 58.1 39.9 57.9"/><polygon class="cls-3" points="40.1 49.4 40.3 49.4 41.2 49.4 40.9 49.4 40.1 49.4"/><polygon class="cls-4" points="42 49.4 41.1 49.2 40.9 49.2 40.6 49.2 40.1 49.2 40.2 49.2 40 49.2 39.7 49.2 38.9 49.4 38.1 49.7 37.4 50.2 36.8 50.8 36.4 51.5 36 52.2 35.9 53.1 35.9 53.9 36 54.7 36.3 55.5 36.4 55.6 36.1 54.8 36.4 55.6 36.4 55.6 36.7 56.1 36.4 55.6 36.2 54.8 36.1 54 36.1 53.2 36.3 52.4 36.7 51.6 37.2 50.9 37.9 50.3 38.4 50 38.6 49.9 39.4 49.6 40.3 49.4 40.1 49.4 40.9 49.4 41.7 49.5 42 49.6 42.3 49.7 42.5 49.7 42.9 49.8 42.8 49.7 42 49.4"/><polygon class="cls-3" points="41.7 54.5 41.8 54.4 41.7 54.5 41.7 54.5"/><polygon class="cls-9" points="55.5 63 55.7 62.7 55.9 62.2 56.3 61.7 56.7 61.2 56.8 61.1 56.8 61.1 57.3 60.5 57.9 59.9 58.5 59.3 59.1 58.7 59.7 58.1 60.3 57.7 60.7 57.3 61.2 57.1 61.5 56.9 61.7 56.9 60 56 59.5 55.8 57.6 54.8 55.9 54.1 55.2 53.8 54.9 53.6 54.5 53.6 54.1 53.7 53.5 53.9 52.9 54.2 52.3 54.6 51.6 55.1 50.9 55.7 50.4 56.2 50.3 56.4 50.2 56.4 49.6 57 49.1 57.7 48.7 58.3 48.4 58.9 48.2 59.4 48.1 59.8 48.2 60.1 48.4 60.3 48.5 60.3 49.9 60.8 51.9 61.6 52.2 61.8 52.4 61.9 53.9 62.6 55.5 63.4 55.5 63.3 55.5 63"/><polygon class="cls-4" points="61.4 38 61.1 38 59.4 37.8 58.9 37.8 58 37.7 55.9 37.6 54.7 37.5 51.5 37.4 51.3 37.4 47.8 37.3 47.4 37.3 47.4 38.1 47.3 38.6 46.9 39.9 46.5 40.5 47.9 40.5 51.5 40.6 55 40.8 58.4 41 61.6 41.2 62.5 41.3 64.6 41.4 67.4 41.7 69.9 41.9 72.2 42.2 73.4 42.5 74.1 42.5 75.8 42.7 77.1 42.9 77.5 43.1 77.7 43.1 78 43.1 78.6 43.1 78.8 43.1 78.1 40 77.9 39.9 77.3 39.8 76.9 39.8 76.4 39.7 75.1 39.4 73.5 39.2 72.8 39.2 71.5 39 69.3 38.6 66.8 38.4 64.1 38.2 62.1 38.1 62 38.1 61.4 38"/><polygon class="cls-8" points="32.9 53.4 33.2 53.4 33.6 53.3 34.1 53.3 34.6 53.3 35.3 53.3 35.3 53.3 35.4 52.3 35.7 51.3 36.2 50.4 36.9 49.6 37.7 48.9 38.6 48.4 39.6 48.1 40.6 48 41.6 48.1 42.6 48.4 43.5 48.9 44.3 49.6 44.9 50.3 45.6 50.4 45.9 50.5 46.5 50.7 46.8 50.8 47.1 50.9 47.2 50.9 47.5 51 47.9 51.1 48 51.1 48.1 51.2 48.2 51.2 47.9 50.5 47.4 49.4 47.2 49.1 46.2 47.9 45 46.9 44.4 46.6 43.6 46.2 42.1 45.7 40.6 45.6 40.6 45.6 39 45.7 37.5 46.2 36.8 46.6 36.2 46.9 35 47.9 34 49.1 33.8 49.4 33.2 50.5 32.8 51.9 32.8 51.9 32.6 53.5 32.7 53.4 32.9 53.4"/><polygon class="cls-4" points="3.1 43.1 3.5 43.1 3.7 43.1 4.1 42.9 5.4 42.7 7 42.5 7.7 42.5 9 42.2 11.3 41.9 13.8 41.7 16.6 41.4 18.7 41.3 19.6 41.2 22.8 41 26.2 40.8 29.7 40.6 33.2 40.5 34.7 40.5 34.3 39.9 33.9 38.6 33.8 37.3 33.8 37.3 33.4 37.3 29.9 37.4 29.7 37.4 26.4 37.5 25.2 37.6 23.1 37.7 22.3 37.8 21.8 37.8 20 38 19.7 38 19.1 38.1 19 38.1 17.1 38.2 14.3 38.4 11.8 38.6 9.6 39 8.4 39.2 7.7 39.2 6.1 39.4 4.8 39.7 4.2 39.8 3.8 39.8 3.3 39.9 3.1 40 2.4 43.1 2.6 43.1 3.1 43.1"/><polygon class="cls-7" points="1.7 69.4 1.9 70.2 2 70.5 2.1 70.8 2.3 71.2 2.4 71.3 2.7 71.7 3 71.9 3.2 72 3.3 72 3.4 71.9 3.5 71.8 3.6 71.7 3.6 71.6 3.7 71.3 3.7 70.8 3.7 70.5 3.8 70.2 3.8 69.4 3.7 68.7 3.6 67.7 2.6 61.8 3.4 51.8 3.5 50.8 3.5 50.1 3.4 49.4 3.4 49.4 3.4 48.7 3.3 48.2 3.1 47.8 3 47.7 2.9 47.6 2.7 47.5 2.5 47.6 2.3 47.8 2 48.2 1.9 48.3 1.8 48.7 1.5 49.4 1.5 49.4 1.4 50.1 1.3 50.8 1.2 51.8 0.5 61.8 1.4 67.7 1.6 68.7 1.7 69.4"/><polygon class="cls-4" points="59.3 65.2 59.5 64.8 59.8 64.4 60.2 63.9 60.7 63.4 61.2 62.8 61.8 62.1 62.4 61.5 63 60.9 63.5 60.4 64 59.9 64.5 59.5 64.7 59.3 64.8 59.2 65.1 59.1 65.2 59.1 65.1 59 62.9 57.7 62.5 57.4 61.7 56.9 61.5 56.9 61.2 57.1 60.7 57.3 60.3 57.7 59.7 58.1 59.1 58.7 58.5 59.3 57.9 59.9 57.3 60.5 56.8 61.1 56.8 61.1 56.7 61.2 56.3 61.7 55.9 62.2 55.7 62.7 55.5 63 55.5 63.3 55.5 63.4 56 63.6 56.1 63.6 58.2 64.8 59.3 65.5 59.2 65.4 59.3 65.2"/><polygon class="cls-3" points="18.1 115 21.5 110.6 25.6 107.1 30.2 104.4 32.2 103.8 32 103 31.9 102.6 31.9 102.4 29.7 103.1 24.8 105.9 20.5 109.6 17 114.2 14.4 119.4 12.7 125 12.7 125.3 12.8 125.1 12.8 125 13 124.8 13.6 124.3 13.8 124.2 14.5 123.8 15.6 119.9 18.1 115"/><polygon class="cls-9" points="63.1 115 59.7 110.6 55.6 107.1 50.9 104.4 49 103.8 48.8 104.8 48.6 105.9 48.3 107.1 45.6 121 45.6 128.3 45.5 129.3 45.2 130.2 44.8 131.1 44.1 131.9 43.4 132.5 42.8 132.8 43.8 132.6 45.3 132 46.7 131.2 48 130.2 49.2 129.1 49.3 128.9 53.1 123.8 53.8 122.9 60.6 122.9 61.6 122.9 62.7 122.9 63 122.9 63.5 123 64.1 123 64.2 123 64.3 123 64.7 123.1 64.8 123.1 65.5 123.3 66.7 123.8 65.6 119.9 63.1 115"/><path class="cls-3" d="M68.4,77.4l1-1.7.3-.5.8-1-.5-.5-.7-.6L68,72h0l-.8-.6-.9-.8-.8-.6-.6-.5-1.5-1.2-.7-.5h-.1l-2.1-1.4-1.1-.6h-.1l-1.1-.7-2.1-1.2H56l-.5-.2-1.6-.8-1.5-.7h-.2l-.3-.2-2-.8-1.4-.5h-.1l-.4-.2-1.8-.5-.4-.2-.8.7-.5.2-.7.4h-.2l-1.5.4-1.5.2h0L39,61.2l-1.5-.4h-.1l-.8-.4-.4-.2-1.2-1-1-1.2-.8-1.3-.4-1.5v-.3l-.2-1.3h0l.2-1.6h0l.4-1.4.6-1.1.2-.3,1-1.2,1.2-1,.6-.3.7-.4,1.5-.5h3.1l1.5.5.8.4.6.3,1.2,1,1,1.2.2.3.5,1.1.3.7h.1l.6.2,2,.7,1.3.4.8.3,1.9.8.3.2.7.3,1.7.7,1.9,1,.5.2,1.7.9.8.5.4.3L65.1,59h.1l1,.6,1.5,1,1.4,1.1h.2l1,.8,1.4,1.2,1.1.9.9.8h.1l1.2,1,.2-.3.6-.7.5-.7.9-.4.4.2.3.2.3,1.4v.9h2l.9-5.5-1-12.4-1.4-6.3H77.5l-.4-.2-1.3-.2-1.7-.2h-.7l-1.2-.3-2.3-.3-2.5-.2-2.8-.3h-3L58.4,41,55,40.8l-3.5-.2h-5l-.2.5-.9,1-.5.4-.5.4h-.1l-1.1.5-1.2.4-1.3.2H39.3L38,43.5l-1.1-.7h-.1l-1-.8L35,41l-.3-.5h-5l-3.5.2-3.4.2-3.2.2h-3l-2.8.3-2.5.2L9,42.2l-1.3.3H7l-1.6.2-1.3.2-.4.2H2.4L.9,49.4,0,61.8l1.4,8.7,2.3,6.9ZM1.3,69l-.2-1.1L.2,61.8.9,51.7V50.4H1l.2-1v-.2l.4-1.1.3-.9.3-.8.3-.6h0l.4-.4h.6l.4.4.2.6.2.8v4.5L3.5,61.8l1.1,6.1v5.2l-.2.6h0l-.2.4H3.7l-.5-.4H3.1l-.3-.5-.4-.8L2,71.4l-.4-.9v-.2l-.3-1.2Z"/><polygon class="cls-4" points="1.1 67.9 1.3 69 0.2 61.8 1.1 67.9"/><path class="cls-4" d="M1.6,70.5l.4.9.4.9.4.8.3.5h.1l.5.4h.7l.2-.4h0l.2-.6V67.9L3.5,61.8l.9-10.1V47.2l-.2-.8-.2-.6-.4-.4H2.9l-.4.4h0l-.3.6-.3.8-.3.9-.4,1.1v.2l-.2,1H1v1.3L.2,61.8,1.3,69h0l.3,1.2ZM.5,61.8l.7-10V49.4h0l.3-.7v-.4H2l.3-.4.2-.2h.6l.2.4v1.2h0v2.4l-.8,10,1,5.9v3.9H3l-.3-.2-.3-.4H2.3l-.2-.4v-.6l-.2-.8v-.7l-.2-1Z"/><polygon class="cls-11" points="36.6 38.4 37 39.2 37.6 39.8 38.3 40.4 39 40.8 39.9 41 40.7 41.1 41.6 41 42.4 40.8 43.2 40.4 43.9 39.8 44.4 39.2 44.8 38.4 45 37.6 45.1 36.8 45 35.9 44.8 35.1 44.3 34.4 43.8 33.7 43.1 33.2 42.3 32.8 41.5 32.6 40.6 32.5 39.8 32.6 39 32.8 38.2 33.2 37.5 33.7 37 34.4 36.6 35.1 36.3 35.9 36.3 36.8 36.4 37.6 36.6 38.4"/><polygon class="cls-13" points="41.1 6.9 41.1 6.9 41.1 6.9 45.1 7.1 41.1 6.9 44.3 7.1 41.1 6.9 41.1 7 41.1 7 41.1 7.1 41.1 7.1 41.1 7.4 41.1 7.5 41.1 8.7 41.2 11.1 41.2 15.9 41.3 24.6 41.4 30.3 41.9 30.3 43.2 30.7 43.9 31 44.4 31.3 45.4 32.1 46.3 33.1 46.9 34.2 47.3 35.5 47.4 36.1 47.5 36.8 47.4 37.3 47.8 37.3 51.3 37.4 54.7 37.5 58 37.7 61.1 38 62 38.1 64.1 38.2 66.8 38.4 69.3 38.6 71.5 39 72.8 39.2 73.5 39.2 75.1 39.4 76.4 39.7 76.9 39.8 77.3 39.8 77.9 39.9 78.1 40 77.2 36.1 72.1 24.6 66.2 15.9 60.5 11.1 55.2 8.7 50.5 7.5 50.4 7.5 50.3 7.5 47.2 7.2 50 7.5 46.2 7.1 47.2 7.2 50.4 7.5 49.2 7.4 46.4 7.1 41.1 6.9 45.7 7.1 41.1 6.9"/><polygon class="cls-13" points="3.8 39.8 4.2 39.8 4.8 39.7 6.1 39.4 7.7 39.2 8.4 39.2 9.6 39 11.8 38.6 14.3 38.4 17.1 38.2 19.1 38.1 20 38 23.1 37.7 26.4 37.5 29.9 37.4 33.4 37.3 33.8 37.3 33.9 36.1 33.9 36 34 35.5 34.4 34.2 35 33.1 35.8 32.1 36.9 31.3 37.2 31.1 38 30.7 39.3 30.3 39.7 30.3 39.7 24.6 39.6 15.9 39.5 11.1 39.5 8.7 39.5 7.9 39.5 7.5 39.5 7.4 39.5 7.2 39.3 7.2 39.5 7.1 39.5 7 39.5 7 39.5 7 36.9 7.1 39.5 6.9 39.5 6.9 39.5 6.9 36 7.1 39.5 6.9 34.7 7.1 32 7.4 30.7 7.5 33.9 7.2 35 7.1 31.1 7.5 33.9 7.2 30.9 7.5 30.7 7.5 30.7 7.5 26 8.7 20.6 11.1 14.9 15.9 9 24.6 4 36.1 3.1 40 3.3 39.9 3.8 39.8"/></svg>