<svg id="Layer_1" data-name="Layer 1" xmlns="http://www.w3.org/2000/svg" viewBox="0 0 120.3 138.1"><defs><style>.cls-1{fill:#ededf4;}.cls-2{fill:none;}.cls-3{fill:#5e5c6a;}.cls-4{fill:#7b7a88;}.cls-5{fill:#43434b;}.cls-6{fill:#b5b5c1;}.cls-7{fill:#9399a8;}.cls-8{fill:#d9d9df;}.cls-9{fill:#6d5c46;}.cls-10{fill:#605e73;}.cls-11{fill:#4b3a2d;}.cls-12{fill:#9491a4;}.cls-13{fill:#2affff;}.cls-14{fill:#54d9ff;opacity:0.5;}</style></defs><rect class="cls-1" x="-496.2" y="-230.8" width="1000" height="800"/><polygon class="cls-2" points="93.2 79 93.3 78.9 93.3 78.9 93.2 79"/><polygon class="cls-2" points="79.2 77.5 79.2 77.4 79.2 77.5 79.2 77.5"/><polygon class="cls-2" points="117.4 80.9 117.7 80.6 117.4 80.9 117.4 80.9"/><polygon class="cls-2" points="69.2 76.9 68.8 76.7 68.8 76.7 68.8 76.7 69.2 76.9"/><polygon class="cls-2" points="53.2 124.7 53 124.8 52.3 125.2 52.9 124.8 53.2 124.7"/><polygon class="cls-2" points="8.7 31.2 8.7 31.2 8.3 31 8.7 31.2"/><polygon class="cls-2" points="4.1 37.9 4.1 38 4.2 38.1 4.2 38.1 4.2 38.1 4.2 38 4.1 37.9"/><polygon class="cls-2" points="5.4 35.4 5.5 35.4 5.5 35.2 5.5 35.4 5.4 35.4"/><polygon class="cls-2" points="66.7 77.4 67.2 77.2 67.5 77 67.7 76.9 67.9 76.8 66.9 77.2 66.7 77.4"/><polygon class="cls-3" points="105.6 75.8 106.1 76.2 106.6 76.8 106.9 77.4 107.1 78.2 107.1 78.9 107 79.7 106.8 80.5 106.5 81.2 106 81.9 105.5 82.5 104.8 82.9 104.2 83.2 103.5 83.4 102.8 83.4 102.1 83.3 99.8 82.3 99.9 82.4 100 82.6 100.5 83.2 100.6 83.3 101.1 83.7 101.7 84 101.8 84.1 102.6 84.3 103.5 84.2 104.3 84 105.1 83.6 105.8 83.1 106.5 82.4 107 81.6 107.5 80.7 107.7 79.8 107.8 78.8 107.8 77.9 107.5 77 107.2 76.2 106.7 75.6 106 75.1 105.3 74.7 105.1 74.7 104.6 74.6 104.5 74.6 104.3 74.6 103.7 74.6 103.2 74.7 105 75.5 105.6 75.8"/><polygon class="cls-4" points="99.3 82.1 100 82.2 100.7 82.2 101.4 82 102 81.7 102.6 81.2 103.2 80.7 103.7 80 104 79.3 104.2 78.5 104.3 77.7 104.3 76.9 104.1 76.2 103.8 75.5 103.3 75 102.8 74.6 102.2 74.3 101.6 74 99.9 73.3 99.2 73.1 99.7 73.4 100.2 73.8 100.6 74.4 100.9 75 101.1 75.7 101.1 76.5 101 77.3 100.8 78 100.4 78.8 99.9 79.5 99.4 80 98.8 80.5 98.1 80.8 97.4 81 96.8 81 96.1 80.9 97.2 81.2 98.8 81.8 99 81.9 99.2 82 99.3 82.1"/><polygon class="cls-3" points="117.5 80.2 117.7 80.6 117.6 80.8 117.4 80.9 117.4 80.9 117.4 80.9 117.1 80.8 117.1 80.8 116.6 80.6 116 80.3 115.2 79.9 114.5 79.4 113.6 78.8 112.8 78.1 112 77.5 111.2 76.8 111.2 76.8 110.5 76.1 110.5 76.1 110 75.5 110 75.5 109.5 75 109.5 74.9 109.3 74.5 109.2 74.5 109.1 74.2 109.1 74.2 109.2 74 109.4 73.9 109.7 73.9 110.2 74.1 110.8 74.4 111.5 74.8 112.3 75.4 111.7 74.1 110.4 73.3 109.2 72.6 108.2 72.1 107.4 71.8 106.9 71.7 106.5 71.8 106.5 72.2 106.7 72.7 107.2 73.5 107.9 74.3 108.8 75.3 109.9 76.4 111.1 77.5 112.4 78.6 113.8 79.7 115.1 80.6 116.4 81.5 117.5 82.2 118.5 82.7 119.3 83 119.9 83 120.2 82.9 120.3 82.6 120.1 82 117.5 80.2"/><polygon class="cls-5" points="110.8 74.4 110.2 74.1 109.7 73.9 109.4 73.9 109.2 74 109.1 74.2 109.1 74.2 109.2 74.5 109.3 74.5 109.5 74.9 109.5 75 110 75.5 110 75.5 110.5 76.1 110.5 76.1 111.2 76.8 112.3 75.4 111.5 74.8 110.8 74.4"/><polygon class="cls-5" points="117.4 80.9 117.6 80.8 117.7 80.6 117.4 80.9 117.4 80.9"/><polygon class="cls-5" points="117.4 80.9 117.7 80.6 117.5 80.2 117.1 80.8 117.1 80.8 117.4 80.9"/><polygon class="cls-6" points="18 4.5 18.1 4.5 18.8 4.5 19 4.5 19.3 4.4 19.6 4.3 20.1 3.9 20.4 3.6 20.5 3.2 20.7 2.6 20.8 2.2 20.6 1.6 20.5 1.2 20.1 0.7 19.9 0.5 19.4 0.2 18.8 0 18.2 0 17.7 0.2 17.4 0.3 16.9 0.7 16.6 1 16.4 1.5 16.2 1.9 16.2 2.4 16.3 3 16.4 3.3 16.8 3.8 17 4 17.1 4 17.5 4.4 18 4.5"/><polygon class="cls-6" points="57.5 25.9 57.5 26 57.5 26.1 57.5 26.5 57.7 27 57.9 27.3 58 27.5 58.2 27.8 58.6 28.1 58.9 28.2 59.1 28.3 59.1 28.3 59.3 28.3 59.7 28.4 60 28.4 60.1 28.4 60.6 28.3 60.9 28.1 61.1 27.9 61.2 27.9 61.5 27.6 61.7 27.3 61.8 27.1 61.9 26.8 62 26.3 62 25.7 61.8 25.2 61.6 24.9 61.3 24.5 60.9 24.2 60.6 24 60.2 23.9 59.8 23.8 59.4 23.9 59 24 58.6 24.1 58.4 24.3 58 24.6 57.7 25.1 57.6 25.4 57.6 25.6 57.5 25.9 57.5 25.9"/><polygon class="cls-7" points="4.1 38 4.1 37.9 3.8 37.3 3.7 36.5 3.6 35.6 3.7 34.8 4 33.9 4.3 33.2 4.8 32.5 5.4 32 5.9 31.7 6.1 31.6 6.9 31.3 7.7 31.2 8.4 31.3 8.5 31.4 8.7 31.2 8.3 31 8.7 31.2 8.7 31.2 8.9 31 9.1 30.8 9.1 30.6 7.5 29.2 7.6 29.9 7.7 30 6.9 30.1 6.3 30.2 5.5 30.5 4.9 30.9 4.5 31.2 3.9 31.7 3.4 32.4 3.1 33.1 2.9 33.9 2.8 34.4 2.8 35.2 2.9 35.9 3.2 36.7 3.5 37.3 3.9 37.9 4.2 38.2 4.2 38.1 4.1 38"/><polygon class="cls-8" points="57.6 25.6 57.2 25.4 57.5 25.9 57.6 25.6"/><polygon class="cls-6" points="17.6 21.9 16.8 21.9 16 22.1 14.1 23.1 13.1 23.9 12.2 24.8 11.3 25.7 10.5 26.7 9.9 27.8 9.5 28.8 9.2 29.7 9.1 30.6 9.1 30.8 9.6 30.3 11.7 28.6 14.1 27.2 16.7 25.8 18.9 24.8 18.9 24.6 19 23.8 19 23 18.7 22.5 18.2 22.1 17.6 21.9"/><polygon class="cls-8" points="15.3 21.6 16 22.1 16.8 21.9 17.6 21.9 18.2 22.1 18.7 22.5 17.1 21.1 16.7 20.7 16 20.5 15.6 20.5 15.5 20.7 15.3 21.6"/><polygon class="cls-7" points="78.6 62.2 78.6 62.6 78.5 62.9 78.5 63 79.7 62.3 80 62 80.3 61.6 80.4 61.2 80.5 60.6 78.6 61.6 78.6 62.2"/><polygon class="cls-9" points="60.3 105.8 59.7 106.2 56.6 108 55.7 113.5 55.7 119.3 55.7 120.1 55.7 120.1 55.7 120.3 55.8 120.8 55.7 121.3 55.6 121.8 55.4 122.4 55.1 122.9 54.8 123.4 54.4 123.8 54 124.2 53.6 124.5 53.2 124.7 52.9 124.8 52.3 125.2 51.6 125.5 51 125.7 50.4 125.7 49.8 125.5 49.3 125.2 49.2 125.2 47.5 126.8 45.7 128.1 43.9 128.9 42.2 129.3 40.6 129.2 39.3 128.7 38.1 127.8 37.3 126.4 36.7 124.7 36.6 122.8 36.7 120.6 37 119.3 31.7 122.4 31.3 122.6 30.9 122.8 30.4 123.1 30.3 123.2 30 123.3 29.1 123.7 28.9 123.8 27.9 124.2 27.9 124.2 26.9 124.5 26.9 124.5 26.6 124.6 26.1 124.7 26 125.7 26.3 129.4 27.3 132.5 28.9 135 31 136.7 31.8 137 34.3 138 35.1 138 37.2 138.1 38 138.1 41.1 137.4 41.8 137.2 44.9 135.7 48.1 133.5 51.1 130.7 51.4 130.5 54.1 127.3 56.4 123.6 58.4 119.8 59.8 115.8 59.9 115.5 60.8 111.5 61.1 107.7 60.9 105.5 60.8 105.6 60.3 105.8"/><polygon class="cls-4" points="7.7 31.2 6.9 31.3 6.1 31.6 5.9 31.7 5.4 32 4.8 32.5 4.3 33.2 4 33.9 3.7 34.8 3.6 35.6 3.7 36.5 3.8 37.3 4.1 37.9 4.2 38 4.2 38.1 4.3 37.7 4.5 37.3 4.8 36.7 5 36.1 5.1 36 5.4 35.4 5.5 35.4 5.5 35.2 5.9 34.7 6.3 34 6.3 34 6.8 33.3 7.3 32.8 7.7 32.2 7.8 32.1 7.8 32.1 8.1 31.8 8.4 31.5 8.5 31.4 8.5 31.4 8.4 31.3 7.7 31.2"/><path class="cls-4" d="M49.8,97.7l-4.6.5,3.6,19.3-3.5-2.1v5.3h0v.4l3.5,2v.8l.2.6.3.5.4.4.6.2H51l.6-.2.7-.3.7-.4h.2l.4-.2.4-.3.4-.4.4-.4.3-.5.3-.5.2-.6v-1.7h0v-6.6l.9-5.5,1.3-8.8.2-1.2.2-1.2.2-1V95h0v-.8h-.1Zm5,21.5H54l-.4.2-.4.3-.4.4-.4.4-.3.5-.3.6-.2.5v1.9l.2.3.3.3-1.4-.8-.2-.2-.2-.3v-2l.2-.5.2-.5.4-.5.3-.5.5-.4.4-.2.4-.2h1.1l1.3.8Z"/><polygon class="cls-10" points="42.3 99.7 42.5 100.6 42.7 101.8 42.9 102.8 45.3 115.4 48.8 117.5 45.2 98.2 42.1 98.5 42.3 99.3 42.3 99.7"/><polygon class="cls-10" points="45.5 122.3 45.6 122.6 45.9 123.1 46.3 123.4 47.4 124 49.3 125.2 49.8 125.5 49.4 125.1 49.1 124.6 48.9 124 48.8 123.2 45.3 121.2 45.4 122 45.5 122.3"/><polygon class="cls-4" points="40.7 123.7 41.3 124.6 42 125.2 42.9 125.5 44 125.6 45.1 125.3 46.3 124.8 47.4 124 46.3 123.4 45.9 123.1 45.6 122.6 45.5 122.3 44.5 122.7 43.4 122.8 42.4 122.8 41.5 122.5 40.7 122 40.3 121.6 40.4 122.6 40.7 123.7"/><polygon class="cls-11" points="46.3 124.8 45.1 125.3 44 125.6 42.9 125.5 42 125.2 41.5 124.9 40.7 124.3 40.1 123.4 39.8 122.3 39.7 121 37.6 119 37 119.3 36.7 120.6 36.6 122.8 36.7 124.7 37.3 126.4 38.1 127.8 39.3 128.7 40.6 129.2 42.2 129.3 43.9 128.9 45.7 128.1 47.5 126.8 49.2 125.2 49.3 125.2 47.4 124 46.3 124.8"/><polygon class="cls-6" points="58.6 95 58.5 95.8 58.9 95.9 61.2 98 62.9 101 63.6 103.6 63.6 103.3 63.6 103.3 62.7 100.1 60.9 97.1 60.4 96.3 58.7 94.6 58.6 95 58.6 95"/><polygon class="cls-10" points="44.5 119.7 44.7 120.1 44.9 120.4 45.1 120.7 45.3 120.8 45.3 120.7 45.3 120.5 45.3 120.2 45.3 119.7 44.5 119.3 44.5 119.7"/><polygon class="cls-12" points="44.9 117.7 44.7 118.2 44.5 118.7 44.5 119.3 45.3 119.7 45.3 119.2 45.3 118.6 45.3 117.9 45.3 117.2 45.3 116.8 45.1 117.1 44.9 117.7"/><polygon class="cls-10" points="50.2 123 50.3 123.4 50.5 123.7 50.7 123.9 52.1 124.7 51.8 124.4 51.6 124.1 51.5 123.7 51.4 123.3 50.1 122.5 50.2 123"/><polygon class="cls-12" points="53.5 118.5 53.1 118.5 52.7 118.6 52.3 118.8 51.9 119 51.4 119.4 51.1 119.9 50.7 120.4 50.5 120.9 50.3 121.4 50.2 122 50.1 122.5 51.4 123.3 51.5 122.8 51.6 122.2 51.8 121.7 52.1 121.1 52.4 120.6 52.8 120.2 53.2 119.8 53.6 119.5 54 119.3 54.4 119.2 54.8 119.2 55.1 119.4 53.8 118.6 53.5 118.5"/><polygon class="cls-5" points="16 22.1 15.3 21.6 15.5 20.7 15.6 20.5 19 4.5 18.8 4.5 18.1 4.5 18 4.5 17.5 4.4 17.1 4 13.4 21.3 12.5 21.7 14.1 23.1 16 22.1"/><polygon class="cls-5" points="21.7 25.1 19.7 28 18.7 29.9 18.5 30.7 18.2 32.1 17.4 35.3 17.3 37.7 17.6 40 17.7 40.2 18 41.9 18.3 43.2 19 45.3 20.1 47.1 20.1 47.1 22.1 49.9 22.2 50 22.5 50.3 25.4 52.4 29.1 54 29.5 54.2 34.2 55.3 34.3 55.3 37 55.5 39.3 55.6 42.6 55.3 44.5 55.2 49.3 54 53.5 52.1 56.7 49.7 58.7 47 59.3 46 59.7 45.3 60.4 43.2 60.9 40.9 61.1 40 61.2 39.3 61.4 40.8 62.5 46.2 62.5 46.5 63.3 50.8 62.6 51.2 64.4 51.6 66.1 50.5 65.3 50.3 65.2 49.9 64.5 46.1 64.2 44.5 63.4 40.4 62.6 35.9 61.7 31.1 61.1 28 61.1 27.9 60.9 28.1 60.6 28.3 60.1 28.4 60 28.4 59.7 28.4 59.3 28.3 59.1 28.3 59.1 28.3 58.9 28.2 58.6 28.1 58.2 27.8 58 27.5 57.9 27.3 57.7 27 57.5 26.5 57.5 26.1 57.5 26 57.5 25.9 57.5 25.9 57.2 25.4 57 25.1 55.8 23.7 52.8 21.4 52.2 21 55.1 23.2 57 25.7 57.6 28.4 57 31.2 55.1 33.7 52.2 35.9 48.5 37.5 44.1 38.6 39.3 39 34.6 38.6 30.2 37.5 26.4 35.9 23.6 33.7 21.7 31.2 21.1 28.4 21.7 25.7 23.6 23.2 26.4 21 25.9 21.4 23.2 23.4 22.9 23.7 21.7 25.1"/><polygon class="cls-10" points="22.6 99.2 24.9 96.4 24.9 96.1 21.5 94.8 22.4 99.6 22.5 99.4 22.6 99.2"/><polygon class="cls-4" points="25.1 96.2 24.9 96.1 24.9 96.4 25.1 96.2"/><polygon class="cls-8" points="25.5 22.1 23.9 24.4 23.4 26.8 23.9 29.2 25.5 31.4 28 33.3 31.3 34.8 35.2 35.7 39.3 36 43.5 35.7 47.3 34.8 50.7 33.3 53.2 31.4 54.8 29.2 55.3 26.8 54.8 24.4 53.2 22.1 50.7 20.2 47.3 18.8 47 18.7 43.3 17.8 39.3 17.5 35.4 17.8 31.7 18.7 31.3 18.8 28 20.2 25.5 22.1"/><polygon class="cls-6" points="21.7 25.7 21.1 28.4 21.7 31.2 23.6 33.7 26.4 35.9 30.2 37.5 34.6 38.6 39.3 39 44.1 38.6 48.5 37.5 52.2 35.9 55.1 33.7 57 31.2 57.6 28.4 57 25.7 55.1 23.2 52.2 21 51.6 20.5 48 18.9 47.3 18.8 50.7 20.2 53.2 22.1 54.8 24.4 55.3 26.8 54.8 29.2 53.2 31.4 50.7 33.3 47.3 34.8 43.5 35.7 39.3 36 35.2 35.7 31.3 34.8 28 33.3 25.5 31.4 23.9 29.2 23.4 26.8 23.9 24.4 25.5 22.1 28 20.2 31.3 18.8 30.7 18.9 27.1 20.5 26.4 21 23.6 23.2 21.7 25.7"/><polygon class="cls-4" points="27.3 94 39.3 95.4 51.4 94 61.6 90 62.8 89 61.9 89.4 61.5 89.6 59.2 90.7 56.1 91.6 53 92.6 51.3 92.9 49.7 93.2 46.3 93.8 42.8 94 39.3 94.2 35.9 94 32.4 93.8 29 93.2 27.4 92.9 25.7 92.6 22.6 91.6 19.5 90.7 17.2 89.6 16.8 89.4 15.9 89 17.1 90 27.3 94"/><polygon class="cls-7" points="64.6 88.1 62.8 89 61.6 90 51.4 94 39.3 95.4 27.3 94 17.1 90 15.9 89 14.1 88.1 11.8 86.6 10.9 85.9 11.3 87 17.9 92.7 20.1 94.2 21.5 94.8 24.9 96.1 25.1 96.2 25.4 96.3 26 96.5 26.8 96.8 28.9 97.7 31.6 98 38 98.7 39.3 98.9 39.3 98.9 41.2 98.6 41.5 98.6 42.1 98.5 45.2 98.2 49.8 97.7 58.6 94.2 58.7 94.2 60.8 92.7 67.4 87 67.8 85.9 66.9 86.6 64.6 88.1"/><polygon class="cls-8" points="78.3 57.2 78.4 58 78.5 58.8 78.5 58.9 78.5 59.5 78.6 60.3 78.7 61 78.7 61.1 78.6 61.6 80.5 60.6 80.4 60 80.3 59.3 80 58.7 79.7 58 79.3 57.4 78.9 56.9 78.4 56.5 78.3 56.4 78.3 56.5 78.3 57.2"/><polygon class="cls-8" points="3.6 40.4 3.3 42.6 3.5 44.9 3.9 47.1 4.4 48.6 4.7 49.3 5.9 51.4 7.4 53.5 8.4 54.7 9.1 55.4 11.3 57.1 13.6 58.7 16.3 60 19.2 61.2 20.4 61.6 22.2 62.1 25.5 62.7 28.8 63.3 30.1 63.4 32.3 63.5 35.8 63.5 39.3 63.4 42.9 63.1 45.3 62.8 46.3 62.6 49.7 61.9 53 61 56.2 60 59.2 58.9 60.1 58.5 60.1 59.2 60.4 60.2 62.2 60.7 61.9 59.6 61.7 58.4 61.8 57.2 62 55.9 62.4 54.7 62.9 53.5 63.6 52.5 64.4 51.6 62.6 51.2 63.3 50.8 62.5 46.5 62.5 46.2 61.4 40.8 61.2 39.3 61.1 40 60.9 40.9 60.4 43.2 59.7 45.3 59.3 46 58.7 47 56.7 49.7 53.5 52.1 49.3 54 44.5 55.2 42.6 55.3 39.3 55.6 37 55.5 34.3 55.3 34.2 55.3 29.5 54.2 29.1 54 25.4 52.4 22.5 50.3 22.2 50 22.1 49.9 20.1 47.1 20.1 47.1 19 45.3 18.3 43.2 18 41.9 17.7 40.2 17.6 40 17.3 37.7 17.4 35.3 18.2 32.1 18.5 30.7 18.7 29.9 19.7 28 21.7 25.1 22.9 23.7 23.2 23.4 22.5 23.6 19.5 24.6 18.9 24.8 16.7 25.8 14.1 27.2 11.7 28.6 9.6 30.3 9.1 30.8 8.9 31 8.7 31.2 8.7 31.2 8.7 31.2 8.5 31.4 8.5 31.4 8.4 31.5 8.1 31.8 7.8 32.1 7.8 32.1 7.7 32.2 7.3 32.8 6.8 33.3 6.3 34 6.3 34 5.9 34.7 5.5 35.2 5.5 35.4 5.4 35.4 5.1 36 5 36.1 4.8 36.7 4.5 37.3 4.3 37.7 4.2 38.1 4.2 38.1 4.2 38.1 4.2 38.2 4.1 38.2 4 38.9 3.6 40.4"/><polygon class="cls-8" points="61.2 27.9 61.1 27.9 61.1 28 61.7 31.1 62.6 35.9 63.4 40.4 64.2 44.5 64.5 46.1 65.2 49.9 65.3 50.3 66.1 50.5 67 50.3 67.9 50.4 68.7 50.7 69.4 51.2 70 52 70.1 52.3 70.9 51.6 72.4 49.8 73.6 48.1 74.6 46.3 74.7 45.8 75.1 44.5 75.3 42.6 75.2 40.8 74.8 39 74.3 37.9 74 37.2 72.8 35.4 71.3 33.7 70.3 32.8 69.5 32.1 67.4 30.5 65 29 62.4 27.6 61.7 27.3 61.5 27.6 61.2 27.9"/><polygon class="cls-8" points="9.2 29.7 9.5 28.8 9.9 27.8 10.5 26.7 11.3 25.7 12.2 24.8 13.1 23.9 14.1 23.1 12.5 21.7 11.5 22.5 10.6 23.3 9.7 24.3 9 25.3 8.4 26.3 7.9 27.4 7.6 28.3 7.5 29.2 9.1 30.6 9.2 29.7"/><polygon class="cls-7" points="60.9 61.2 61 61.2 61.5 61.9 62.2 62.5 62.8 62.7 63 62.8 64.7 63.2 63.9 62.9 63.2 62.4 62.6 61.6 62.2 60.7 60.4 60.2 60.9 61.2"/><polygon class="cls-9" points="19 125.1 18.8 122.4 18.7 122.3 18.1 121.9 17.8 121.6 17.7 121.5 17.9 123.4 18 124 18.9 127.1 19.3 127.7 20.9 130.2 21.5 130.7 20 128.2 19 125.1"/><polygon class="cls-6" points="18.1 121.9 18.7 122.3 18.8 122.4 19.5 122.8 20.2 123.3 21.3 123.9 21.7 124.1 22.4 124.3 23.2 124.6 23.5 124.6 24.4 124.8 24.5 124.8 24.8 124.9 24.9 124.9 25.3 124.8 25.4 124.8 26.1 124.7 26.6 124.6 26.9 124.5 26.9 124.5 27.9 124.2 28.6 120.7 30.3 115.8 32.6 111.1 35.4 106.6 38.6 102.7 42.1 99.4 42.3 99.3 42.1 98.5 41.5 98.6 41.2 98.6 39.3 98.9 39.3 98.9 38 98.7 31.6 98 28.9 97.7 26.8 96.8 26 96.5 25.4 96.3 25.1 96.2 24.9 96.4 22.6 99.2 19.8 103.7 17.5 108.4 15.8 113.3 15.1 116.8 15.1 117.7 15.1 118 15.4 119 15.7 119.5 15.8 119.7 16 120 17.2 121.1 17.7 121.5 17.8 121.6 18.1 121.9"/><polygon class="cls-11" points="24.8 131 23.8 127.9 23.5 124.6 23.2 124.6 22.4 124.3 21.7 124.1 21.3 123.9 21.5 126.6 22.5 129.7 24.1 132.2 26.2 134 27.3 134.6 28.5 135.3 26.4 133.5 24.8 131"/><polygon class="cls-9" points="22.5 129.7 21.5 126.6 21.3 123.9 20.2 123.3 19.5 122.8 19.7 125.5 20.7 128.7 22.3 131.1 24.4 132.9 26.2 134 24.1 132.2 22.5 129.7"/><polygon class="cls-11" points="20.7 128.7 19.7 125.5 19.5 122.8 18.8 122.4 19 125.1 20 128.2 21.5 130.7 23.7 132.5 24.4 132.9 22.3 131.1 20.7 128.7"/><polygon class="cls-9" points="26.5 132 25.5 128.9 25.2 125.3 25.3 124.8 24.9 124.9 24.8 124.9 24.5 124.8 24.4 124.8 23.5 124.6 23.8 127.9 24.8 131 26.4 133.5 28.5 135.3 30.2 136.3 28.1 134.5 26.5 132"/><polygon class="cls-11" points="27.3 132.5 26.3 129.4 26 125.7 26.1 124.7 25.4 124.8 25.3 124.8 25.2 125.3 25.5 128.9 26.5 132 28.1 134.5 30.2 136.3 31 136.7 28.9 135 27.3 132.5"/><polygon class="cls-10" points="40.1 123.4 40.7 124.3 41.5 124.9 42 125.2 41.3 124.6 40.7 123.7 40.4 122.6 40.3 121.6 39.7 121 39.8 122.3 40.1 123.4"/><polygon class="cls-7" points="42.7 101.8 42.5 100.6 42.3 99.7 42.3 99.3 42.1 99.4 38.6 102.7 35.4 106.6 32.6 111.1 30.3 115.8 28.6 120.7 27.9 124.2 27.9 124.2 28.9 123.8 29.1 123.7 30 123.3 30.3 123.2 30.4 123.1 30.9 122.8 31.3 122.6 31.7 122.4 37 119.3 37.6 119 39.7 121 40.3 121.6 40.7 122 41.5 122.5 42.4 122.8 43.4 122.8 44.5 122.7 45.5 122.3 45.4 122 45.3 121.2 45.3 120.8 45.1 120.7 44.9 120.4 44.7 120.1 44.5 119.7 44.5 119.3 44.5 118.7 44.7 118.2 44.9 117.7 45.1 117.1 45.3 116.8 45.3 115.4 42.9 102.8 42.7 101.8"/><polygon class="cls-8" points="61.5 73.6 62 73.6 62.5 73.6 62.9 73.6 63.4 73.5 63.8 73.3 64.3 73 64.6 73.2 64.7 72.3 64.8 71.3 65.1 70.4 65.5 69.5 66 68.6 66.6 67.9 67.3 67.2 68 66.7 68.7 66.4 69.4 66.3 70 66.3 70.6 66.5 71.1 66.9 71.5 67.5 71.8 68.2 71.8 68.6 72 68.5 72.3 68.3 72.5 68.1 72.6 67.8 72.4 66.7 72.3 66.4 71.9 65.4 71.7 65.1 71.4 64.5 71.2 64.2 70.9 64 70.4 63.6 70.1 63.4 69.8 63.3 69 63 68.6 63 68 62.9 67 63.1 65.9 63.6 65.9 63.7 64.8 64.4 63.8 65.3 63.3 66 62.9 66.5 62.1 67.8 61.5 69.1 61.5 69.5 61.1 70.5 60.8 71.9 60.8 71.9 60.7 73.2 61.1 73.4 61.5 73.6"/><polygon class="cls-6" points="71.8 68.2 71.5 67.5 71.1 66.9 70.6 66.5 70 66.3 69.4 66.3 68.7 66.4 68 66.7 67.3 67.2 66.6 67.9 66 68.6 65.5 69.5 65.1 70.4 64.8 71.3 64.7 72.3 64.6 73.2 64.8 74 65 74.7 65.4 75.2 65.9 75.6 66.5 75.9 67.2 75.9 67.3 75.9 67.2 75.8 66 74.9 65.7 74.5 65.4 74 65.3 73.3 65.2 72.6 65.3 71.9 65.5 71.1 65.8 70.3 65.8 70.3 66.3 69.7 66.2 69.6 66.7 68.9 67.2 68.3 67.8 67.9 68.4 67.5 69 67.3 69.5 67.3 70.1 67.4 70.5 67.6 71.2 68.3 71.9 68.9 71.8 68.6 71.8 68.2"/><polygon class="cls-7" points="68.2 76.4 68.1 76.3 67.7 76.1 67.6 76 67.3 75.9 67.2 75.9 66.5 75.9 65.9 75.6 65.4 75.2 65 74.7 64.8 74 64.6 73.2 64.3 73 63.8 73.3 63.4 73.5 62.9 73.6 62.5 73.6 62 73.6 61.5 73.6 61.1 73.4 60.7 73.2 60.9 74.2 61 74.5 61.4 75.5 62 76.4 62.9 77 63.1 77.1 63.9 77.5 64.2 77.5 64.3 77.6 65.3 77.6 65.6 77.6 66.7 77.4 66.9 77.2 67.9 76.8 68.4 76.5 68.3 76.4 68.2 76.4"/><polygon class="cls-7" points="72.3 68.3 72 68.5 71.8 68.6 71.9 68.9 72 69 72.1 69.1 72.3 69.2 72.4 69.3 72.5 69.3 72.5 69.3 72.6 69 72.6 67.8 72.5 68.1 72.3 68.3"/><polygon class="cls-7" points="19.8 103.7 22.6 99.2 22.5 99.4 22.4 99.6 19.8 103.7 17.6 108.3 15.9 113 15.8 113.3 17.5 108.4 19.8 103.7"/><polygon class="cls-7" points="61.2 98 58.9 95.9 58.5 95.8 58.3 96.8 58.1 98 57.9 99.2 56.6 108 59.7 106.2 60.3 105.8 60.8 105.6 60.9 105.5 62.1 104.9 62.7 104.5 62.8 104.4 63.4 103.9 63.6 103.6 62.9 101 61.2 98"/><path class="cls-6" d="M73.8,78.5h-.2l-.7-.2h-.2l-1.3-.5h-.5l-1.4-.6-.3-.2-.4-.2h0l-.4-.2-.5.3h-.4l-.3.2-.5.2-1.1.2H63.9l-.8-.4h-.2l-.9-.6-.6-.9-.4-1v-.3l-.2-1V71.9h0l.3-1.4.4-1v-.4l.6-1.3.8-1.3.4-.5.5-.7,1-.9,1.1-.7h0l1.1-.5,1-.2h1l.8.3h.3l.3.2.5.4.3.2.2.3.3.6.2.3.4,1v.3l.2,1.1v1.5h.2l1.1.5h.1l.5.2.5.2h.7l.6.2H77l.2-.5,1.3-6.8V63h0V61.1h0V58.9h0V56.5h0l-.7-7.2L77,47l-1.5-5.5.4,1.8.2,1.9-.3,1.9-.4,1.4V49l-1,1.8-1.2,1.8-1.6,1.7-.7.6V54l-.3-1.1-.3-.6V52l-.6-.8-.7-.5-.8-.3H67l-.9.2-1.7,1.1-.8.9-.7,1-.5,1.2L62,55.9l-.2,1.3v1.2l.2,1.2.3,1.1.4.9.6.8.7.5.8.3L63,62.8h-.2l-.6-.2-.7-.6-.5-.7-1.4.6L56.5,63l-3.2,1-3.3.9-3.5.7-1.1.2-2.5.3-3.6.3H28.6l-3.4-.6-3.3-.6-1.3-.4-.6-.2-1.2-.4-3-1.2-2.7-1.4-2.4-1.6L8.5,58.2l-.7-.7-.4-.4-.7-.8L5.2,54.2,4,52.1l-.3-.8-.5-1.5-.5-2.3V45.2L2.8,43l.6-2.3L1.6,47l-.5,2.2L.2,58.9,0,61.1l.2,2.3,1.3,6.8L2,72.3l2.3,5.2,1,2,1,1.9,1.6,1.8L9.6,85l1.3.9.9.7L14,88.1l1.9.9.9.4.4.2,2.3,1.1,3.1.9,3.1,1,1.7.3,1.6.3,3.4.6,3.5.2,3.4.2,3.5-.2,3.5-.2,3.4-.6,1.6-.3,1.7-.3,3.1-1,3.1-.9,2.3-1.1.4-.2.9-.4,1.8-.9,2.3-1.5.9-.7,1.3-.9,1.6-1.8,1.7-1.8,1-1.9.5-.9ZM64.3,60.4l-.4-.4-.3-.7-.2-.7V56.2l.3-.8.3-.7.4-.7.5-.5.6-.5.6-.3h1.1l.5.2.5.4.4.5.3.6.2.7v2.4l-.3.8-.3.7-.4.7-.5.6-.6.4-.6.3H65.3l-.5-.2ZM8.3,82.2l-.5-.3h0l-.5-.5-.4-.4-.3-.3L6,79.8H6l-.7-.9-.5-1H4.7l-.5-1.1-.4-.8v-.2l-.2-1.1-.2-1-.7-4.3.5-8.4.2-1v-.6h.1l.4-.7.3-.3h.1l.6-.2h.6l.6.3v.2l.5.3.6.8.6.9v.3l.4.7.4,1.1.3,1.2L9.3,65v2.2l-.5,8.4L9.6,80v1.5H9.5V82l-.2.3H8.3Zm16.6,7.2-.7.3H22l-.8-.2-.8-.3h-.3L19,88.4h-.2l-.8-.6-1-.9-.8-.9-.6-.7V85l-.4-1h0l-.2-.9-.7-4.4.5-8.3.2-1h0l.3-.7v-.2l.6-.7.8-.6.9-.4h2l1.1.3.9.4h.1l1.1.7.9.8.8.9.3.6.3.4.4,1.1V72l.2.9V74l-.6,8.3.7,4.4v.9l-.3.8h-.1l-.2.5-.4.3Z"/><polygon class="cls-7" points="103.3 75 103.8 75.5 104.1 76.2 104.3 76.9 104.3 77.7 104.2 78.5 104 79.3 103.7 80 103.2 80.7 102.6 81.2 102 81.7 101.4 82 100.7 82.2 100 82.2 99.3 82.1 99.8 82.3 102.1 83.3 102.8 83.4 103.5 83.4 104.2 83.2 104.8 82.9 105.5 82.5 106 81.9 106.5 81.2 106.8 80.5 107 79.7 107.1 78.9 107.1 78.2 106.9 77.4 106.6 76.8 106.1 76.2 105.6 75.8 105 75.5 103.2 74.7 102.2 74.3 102.8 74.6 103.3 75"/><polygon class="cls-7" points="92 79.7 92.7 79.4 93.2 79 93.3 78.9 93.3 78.9 93.8 78.3 94.3 77.6 94.7 76.9 95 76.1 95.2 75.3 95.2 74.6 95.1 73.8 94.9 73.2 94.6 72.7 94.2 72.3 93.6 72 93.1 71.9 91.8 71.7 89.9 71.6 88 71.4 87.7 71.4 88.2 71.5 88.6 71.8 88.9 72.2 89.1 72.7 89.2 73.4 89.2 74.1 89 74.9 88.7 75.7 88.4 76.5 88 77.1 88 77.2 88 77.2 87.9 77.2 87.3 77.9 86.8 78.5 86.1 79 85.5 79.4 84.9 79.6 84.4 79.6 85.7 79.7 87.5 79.7 89.3 79.8 90.7 80 91.4 79.9 92 79.7"/><polygon class="cls-7" points="77.5 78.8 78 78.5 78.6 78 79.2 77.5 79.2 77.4 79.8 76.8 80.3 76.1 80.8 75.3 81.3 74.5 81.7 73.8 81.8 73.5 81.9 73.1 82.1 72.4 82.1 71.9 82.1 71.5 81.9 71.3 81.6 71.2 80.7 71.1 79.1 71 77.6 70.8 77 70.7 76.9 70.7 76.4 70.6 76.2 70.6 75.6 70.4 75.3 70.3 74.9 70.3 74.4 70.1 74.1 70.1 73.7 70.2 73.3 70.5 72.8 70.9 72.2 71.3 71.6 71.9 71.5 72.1 71.1 72.5 70.5 73.2 70 73.8 69.6 74.5 69.2 75.1 68.9 75.6 68.8 76.1 68.7 76.5 68.8 76.7 68.8 76.7 69.2 76.9 69.5 77.1 70.9 77.7 71.4 77.8 72.7 78.3 72.9 78.3 72.9 78.3 73.6 78.5 73.8 78.5 73.8 78.5 73.9 78.6 74.5 78.7 76.4 79 76.7 79.1 77 79 77.5 78.8"/><polygon class="cls-7" points="97.4 81 98.1 80.8 98.8 80.5 99.4 80 99.9 79.5 100.4 78.8 100.8 78 101 77.3 101.1 76.5 101.1 75.7 100.9 75 100.6 74.4 100.2 73.8 99.7 73.4 99.2 73.1 98.1 72.8 96.3 72.4 96.8 72.7 97.3 73.1 97.7 73.6 97.8 73.8 97.9 74.3 98.1 75 98.1 75.7 97.9 76.5 97.7 77.3 97.3 78.1 96.8 78.7 96.3 79.3 95.6 79.8 95 80.1 94.3 80.3 93.7 80.3 94.4 80.4 95.6 80.7 96.1 80.9 96.8 81 97.4 81"/><polygon class="cls-4" points="95 80.1 95.6 79.8 96.3 79.3 96.8 78.7 97.3 78.1 97.7 77.3 97.9 76.5 98.1 75.7 98.1 75 97.9 74.3 97.8 73.8 97.7 73.6 97.3 73.1 96.8 72.7 96.3 72.4 96.2 72.4 96.2 72.4 96.1 72.4 95.7 72.3 95.6 72.3 93.7 71.9 93.1 71.9 93.6 72 94.2 72.3 94.6 72.7 94.9 73.2 95.1 73.8 95.2 74.6 95.2 75.3 95 76.1 94.7 76.9 94.3 77.6 93.8 78.3 93.3 78.9 93.2 79 92.7 79.4 92 79.7 91.4 79.9 90.7 80 91.1 80 92.9 80.2 93.7 80.3 94.3 80.3 95 80.1"/><polygon class="cls-4" points="73.8 69.9 72.7 69.4 72.5 69.3 72.5 69.3 72.4 69.3 72.3 69.2 72.1 69.1 72 69 71.9 68.9 71.2 68.3 70.5 67.6 70.1 67.4 69.5 67.3 69 67.3 68.4 67.5 67.8 67.9 67.2 68.3 66.7 68.9 66.2 69.6 66.3 69.7 65.8 70.3 65.8 70.3 65.5 71.1 65.3 71.9 65.2 72.6 65.3 73.3 65.4 74 65.7 74.5 66 74.9 67.2 75.8 67.3 75.9 67.6 76 67.7 76.1 68.1 76.3 68.2 76.4 68.3 76.4 68.4 76.5 68.8 76.7 68.8 76.7 68.8 76.7 68.7 76.5 68.8 76.1 68.9 75.6 69.2 75.1 69.6 74.5 70 73.8 70.5 73.2 71.1 72.5 71.5 72.1 71.6 71.9 72.2 71.3 72.8 70.9 73.3 70.5 73.7 70.2 74.1 70.1 74.4 70.1 73.9 69.9 73.8 69.9"/><polygon class="cls-4" points="85.5 79.4 86.1 79 86.8 78.5 87.3 77.9 87.9 77.2 88 77.2 88 77.2 88 77.1 88.4 76.5 88.7 75.7 89 74.9 89.2 74.1 89.2 73.4 89.1 72.7 88.9 72.2 88.6 71.8 88.2 71.5 87.7 71.4 86.1 71.4 84.3 71.3 82.5 71.2 81.6 71.2 81.9 71.3 82.1 71.5 82.1 71.9 82.1 72.4 81.9 73.1 81.8 73.5 81.7 73.8 81.3 74.5 80.8 75.3 80.3 76.1 79.8 76.8 79.2 77.4 79.2 77.5 79.2 77.5 78.6 78 78 78.5 77.5 78.8 77 79 76.7 79.1 78.3 79.3 80.2 79.4 82 79.5 83.9 79.6 84.4 79.6 84.9 79.6 85.5 79.4"/><polygon class="cls-5" points="119.3 83 118.5 82.7 117.5 82.2 116.4 81.5 115.1 80.6 113.8 79.7 112.4 78.6 111.1 77.5 109.9 76.4 108.8 75.3 107.9 74.3 107.2 73.5 106.7 72.7 106.5 72.2 106.5 71.8 104.3 74.6 104.5 74.6 104.6 74.6 105.1 74.7 105.3 74.7 106 75.1 106.7 75.6 107.2 76.2 107.5 77 107.8 77.9 107.8 78.8 107.7 79.8 107.5 80.7 107 81.6 106.5 82.4 105.8 83.1 105.1 83.6 104.3 84 103.5 84.2 102.6 84.3 101.8 84.1 101.7 84 101.1 83.7 100.6 83.3 100.5 83.2 100 82.6 99.9 82.4 99.8 82.3 99.3 82.1 99.2 82 99 81.9 99.1 82.1 99.6 82.9 100.3 83.7 101.2 84.7 102.3 85.8 103.5 86.9 104.8 88 106.2 89.1 107.5 90 108.8 90.9 109.9 91.5 110.9 92 111.7 92.3 112.3 92.4 112.6 92.3 120.2 82.9 119.9 83 119.3 83"/><polygon class="cls-4" points="2.6 45.2 2.7 47.5 3.2 49.8 3.7 51.3 4 52.1 5.2 54.2 6.7 56.3 7.4 57.1 7.8 57.5 8.5 58.2 10.7 59.9 13.1 61.5 15.8 62.9 18.8 64.1 20 64.5 20.6 64.7 21.9 65 25.2 65.7 28.6 66.3 29.9 66.4 32.2 66.5 35.7 66.5 39.3 66.4 42.9 66.1 45.4 65.8 46.5 65.6 50 64.9 53.3 64 56.5 63 59.6 61.8 61 61.2 60.9 61.2 60.4 60.2 60.1 59.2 60.1 58.5 59.2 58.9 56.2 60 53 61 49.7 61.9 46.3 62.6 45.3 62.8 42.9 63.1 39.3 63.4 35.8 63.5 32.3 63.5 30.1 63.4 28.8 63.3 25.5 62.7 22.2 62.1 20.4 61.6 19.2 61.2 16.3 60 13.6 58.7 11.3 57.1 9.1 55.4 8.4 54.7 7.4 53.5 5.9 51.4 4.7 49.3 4.4 48.6 3.9 47.1 3.5 44.9 3.3 42.6 3.6 40.4 4 38.9 4.1 38.2 3.4 40.7 2.8 43 2.6 45.2"/><polygon class="cls-4" points="75.3 42.6 75.1 44.5 74.7 45.8 74.6 46.3 73.6 48.1 72.4 49.8 70.9 51.6 70.1 52.3 70.4 52.9 70.7 54 70.8 54.9 71.5 54.3 73.1 52.6 74.3 50.8 75.3 49 75.4 48.5 75.8 47.1 76.1 45.2 75.9 43.3 75.5 41.5 74.8 39 75.2 40.8 75.3 42.6"/><path class="cls-4" d="M9.2,82.3l.2-.3v-.4h.1V80l-.7-4.4.5-8.4V65l-.2-1.3-.3-1.2-.4-1.1L8,60.7v-.3l-.6-.9-.6-.8-.5-.3v-.2l-.6-.3H4.9l-.6.2H4.2l-.3.3-.4.7H3.4v.6l-.2,1-.5,8.4.7,4.3.2,1,.2,1.1v.2l.4.8.5,1.1h.1l.5,1,.7.9H6l.6.8.3.3.4.4.5.5h0l.5.3h.9ZM7.7,80.6H7.4l-.3-.3-.4-.3H6.6l-.3-.4H6.2l-.3-.5H5.8l-.4-.7L5,77.5v-.2l-.2-.5-.2-.7-.2-.7-.2-.7-.7-4.3L4,62.1V60.9l.2-.3h0l.4-.3H5.9l.4.3.4.5.4.6.3.6v.5l.2.3.2.8h0l.2.7v1.5l-.6,8.3.7,4.3V80l-.2.3v.2H7.7Z"/><polygon class="cls-5" points="8 80.5 8.1 80.3 8.3 80 8.3 79.5 8.3 78.9 7.6 74.6 8.2 66.3 8.2 65.5 8.1 64.8 7.9 64.1 7.9 64 7.7 63.2 7.5 62.9 7.4 62.4 7.1 61.8 6.7 61.2 6.3 60.7 5.9 60.4 5.8 60.3 5.5 60.2 5.1 60.1 4.8 60.2 4.4 60.5 4.4 60.6 4.2 60.9 4.1 61.4 4 62.1 3.4 70.4 4.1 74.7 4.3 75.4 4.5 76.1 4.7 76.8 4.9 77.3 5 77.5 5.4 78.2 5.8 78.9 5.9 78.9 6.2 79.4 6.3 79.4 6.6 79.8 6.7 79.9 7.1 80.2 7.4 80.5 7.7 80.6 7.8 80.5 7.9 80.5 8 80.5"/><path class="cls-4" d="M25.6,88.5h.1l.3-.8v-.9l-.7-4.4.6-8.3V72.9l-.2-.9v-.2l-.4-1.1-.3-.4-.3-.6-.8-.9-.9-.8-1.1-.7h-.1l-.9-.4-1.1-.3h-2l-.9.4-.8.6-.6.7v.2l-.3.7h0l-.2,1-.5,8.3.7,4.4.2.9h0l.4,1v.2l.6.7.8.9,1,.9.8.6H19l1.1.6h.3l.8.3.8.2h2.2l.7-.3H25l.4-.3ZM22,88.2H20.7l-.7-.3-.8-.4-.7-.4-.2-.2-.4-.4-.2-.2-.3-.4L17,85l-.3-.6v-.7l-.7-4.3.5-8.3.2-.7.2-.6.3-.4h0l.5-.4.5-.2h1.5l.7.2.7.3.4.3h.3l.6.6.5.6.3.7h.1l.2.7.2.7v.7l-.6,8.3.7,4.3v1.2l-.3.4-.2.2H23l-.4.2H22Z"/><polygon class="cls-5" points="23 88 23.2 87.9 23.4 87.7 23.7 87.3 23.8 86.8 23.8 86.1 23.1 81.8 23.7 73.5 23.6 72.8 23.4 72.1 23.2 71.4 23.1 71.4 22.8 70.7 22.3 70.1 21.7 69.5 21.4 69.4 21 69.1 20.3 68.8 19.6 68.6 18.9 68.6 18.2 68.7 18.1 68.8 17.6 69 17.1 69.4 17.1 69.4 16.8 69.8 16.6 70.4 16.4 71.1 15.9 79.4 16.6 83.7 16.7 84.4 17 85 17.4 85.7 17.7 86.1 17.9 86.3 18.3 86.7 18.5 86.9 19.2 87.3 20 87.7 20.7 88 21 88.1 21.4 88.2 21.6 88.2 22 88.2 22.1 88.2 22.6 88.2 23 88"/><polygon class="cls-13" points="65.3 61 65.9 61 66.4 60.9 67 60.6 67.6 60.2 68.1 59.6 68.5 58.9 68.8 58.2 69.1 57.4 69.2 56.6 69.3 55.7 69.2 55 69 54.3 68.7 53.7 68.3 53.2 67.8 52.8 67.3 52.6 66.7 52.6 66.2 52.7 65.6 53 65 53.5 64.5 54 64.1 54.7 63.8 55.4 63.5 56.2 63.4 57.1 63.3 57.9 63.4 58.6 63.6 59.3 63.9 60 64.3 60.4 64.8 60.8 65.3 61"/><polygon class="cls-14" points="3.3 42.6 3.5 44.9 3.9 47.1 4.4 48.6 4.7 49.3 5.9 51.4 7.4 53.5 8.4 54.7 9.1 55.4 11.3 57.1 13.6 58.7 16.3 60 19.2 61.2 20.4 61.6 22.2 62.1 25.5 62.7 28.8 63.3 30.1 63.4 32.3 63.5 35.8 63.5 39.3 63.4 42.9 63.1 45.3 62.8 46.3 62.6 49.7 61.9 53 61 56.2 60 59.2 58.9 60.1 58.5 60 58 60 57.4 60.1 56.7 60.3 55.5 60.7 54.2 61 53.5 61.2 53.1 61.9 52 62.6 51.2 63.1 50.9 63.3 50.8 62 43.6 61.1 39.1 60 32.8 59.9 32.7 59.3 29.4 59.1 28.3 58.9 28.2 58.6 28.1 58.2 27.8 57.9 27.3 57.7 27 57.5 26.5 57.5 25.9 57.6 25.6 57.6 25.4 57.7 25.1 58 24.6 58.2 24.5 58.3 24.4 58.6 24.1 59 24 59.2 23.9 59.4 23.9 59.8 23.8 60.2 23.9 60.6 24 60.9 24.2 61.3 24.5 61.6 24.9 61.8 25.2 62 25.7 62 26.2 62 26.3 61.9 26.8 61.8 27.1 61.5 27.5 61.5 27.6 61.2 27.9 61.1 27.9 61.4 29.4 61.7 31.1 62 32.8 63 38.3 63.8 42.3 65 48.6 65.2 49.9 65.3 49.9 65.4 49.9 66.1 49.9 67.9 50.4 68.2 50.5 68.7 50.7 69.4 51.2 69.6 51.5 70 52 70.1 52.3 70.9 51.6 72.4 49.8 73.6 48.1 74.6 46.3 74.7 45.8 75.1 44.5 75.3 42.6 75.2 40.8 74.8 39 74.1 36.8 73.3 34.9 68.6 26.6 67.6 24.9 66.3 23.4 61.3 18 60 16.8 58.6 15.7 56.9 14.7 55.1 13.7 53.2 12.9 50.1 11.7 48.5 11.1 46.7 10.7 45 10.3 43.1 10 41.2 9.9 39.3 9.8 37.4 9.9 35.6 10 33.7 10.3 31.9 10.7 30.2 11.1 28.6 11.7 25.5 12.9 23.6 13.7 21.8 14.7 20.1 15.7 18.7 16.8 17.4 18 15.7 19.8 14.4 21.2 13.5 22.1 13.3 22.4 12.4 23.3 12.3 23.4 11.6 24.2 11.1 24.9 10.8 25.3 10.2 26.4 10 26.6 9.6 27.4 9 28.4 8.6 29.2 8.2 29.8 8 30.2 7.9 30.4 7.8 30.5 7.6 30.9 7.6 31 7.4 31.3 7.3 31.4 7.2 31.7 6.8 32.3 6.8 32.3 6.4 33 6 33.7 5.6 34.4 5.4 34.9 5.2 35.2 4.9 35.9 4.6 36.6 4.5 36.8 4.4 37.2 4.3 37.7 4.2 38.1 4.2 38.1 4.2 38.1 4.1 38.2 4.1 38.2 3.6 40.4 3.3 42.6"/></svg>