<svg id="Layer_1" data-name="Layer 1" xmlns="http://www.w3.org/2000/svg" viewBox="0 0 90 142.2"><defs><style>.cls-1{fill:#ededf4;}.cls-2{fill:none;}.cls-3{fill:#5e5c6a;}.cls-4{fill:#43434b;}.cls-5{fill:#b5b5c1;}.cls-6{fill:#d9d9df;}.cls-7{fill:#9399a8;}.cls-8{fill:#7b7a88;}.cls-9{fill:#6d5c46;}.cls-10{fill:#4b3a2d;}.cls-11{fill:#2affff;}.cls-12{fill:#46bbed;}.cls-13{fill:#9491a4;}.cls-14{fill:#54d9ff;opacity:0.5;}</style></defs><rect class="cls-1" x="-215.7" y="-226.7" width="1000" height="800"/><polygon class="cls-2" points="3.5 80.6 3.5 80.6 3 79.5 3.4 80.4 3.5 80.6"/><polygon class="cls-2" points="32.9 68.8 33 69.7 32.9 68.5 32.7 67.6 32.9 68.8"/><polygon class="cls-2" points="39.2 33.7 39.2 33.7 39 33.7 39.2 33.7 39.2 33.7"/><polygon class="cls-2" points="37.2 34.7 37 35.2 36.8 35.5 37.1 35 37.2 34.7"/><polygon class="cls-2" points="35.3 82.2 35.1 82.9 34.8 84.1 34.9 83.5 35.3 82.2"/><polygon class="cls-3" points="78.2 69.8 77.9 71.3 78 71.4 78.7 72.4 78.5 71.1 78.3 69.8 78.2 69.8"/><polygon class="cls-3" points="79.1 105.3 78.7 106.4 78.6 107.7 78.7 109.2 79.1 110.7 79.7 112.2 80.5 113.7 81.6 115.1 82.7 116.3 84 117.3 85.3 118.1 86.6 118.7 87.9 118.9 89 118.9 90 118.5 88.2 115.7 87.6 115.9 86.9 115.9 86.1 115.8 85.3 115.5 84.5 115 83.7 114.3 83 113.6 83 113.6 82.8 113.4 82.3 112.7 82.2 112.5 81.8 111.8 81.7 111.6 81.4 110.8 81.4 110.6 81.2 109.9 81.2 109.7 81.1 109 81.1 108.8 81.2 108.2 81.3 108 81.4 107.5 81.5 107.4 81.8 107 82.3 106.6 82.9 106.4 83.7 106.3 84.4 106.5 85.3 106.8 86.1 107.3 86.8 107.9 87.6 108.7 88.2 109.6 90 108.6 89 107.2 87.8 106 86.5 104.9 85.2 104.1 83.9 103.6 82.7 103.4 81.5 103.4 80.5 103.8 79.7 104.4 79.1 105.3"/><polygon class="cls-4" points="87.6 108.7 86.8 107.9 86.1 107.3 85.3 106.8 84.4 106.5 83.7 106.3 82.9 106.4 82.3 106.6 81.8 107 81.5 107.4 81.4 107.5 81.3 108 81.2 108.2 81.1 108.8 81.1 109 81.2 109.7 81.2 109.9 81.4 110.6 81.4 110.8 81.7 111.6 81.8 111.8 82.2 112.5 82.3 112.7 82.8 113.4 83 113.6 83 113.6 90 108.6 88.2 109.6 87.6 108.7"/><polygon class="cls-5" points="63.3 106.3 62.2 105.6 61.8 105.3 61.1 104.9 58.8 103.5 58.8 103.5 57.7 102.9 56.6 102.3 54.6 101.3 54.4 101.1 54.2 101 51.1 102.2 50.3 102.5 49.8 102.7 49.8 102.7 49.3 102.8 49.2 103 49 103.9 48.7 105 49.4 105.2 53.9 107.3 57.9 110.1 61.1 113.5 63.6 117.5 64.6 120.5 65.3 120.4 65.5 120.4 66.1 120.2 66.3 120 66.3 120 66.3 119.9 66.4 119.3 66.4 118.4 66.4 117.3 66.4 115.9 66.4 114.4 66.3 113 66.3 112.8 66.3 112.5 66.1 112 64.6 107.8 64 106.7 63.6 106.4 63.3 106.3"/><polygon class="cls-6" points="75.9 79 75.8 79 75.2 79 75 79.1 74.9 79.2 74.7 79.3 74.4 79.7 74.1 80.1 73.7 80.7 73.4 81.3 73.2 81.6 73 82 72.6 82.7 72.3 83.5 72 84.1 72 84.3 71.8 84.8 78 84.8 78 84.1 78 83.5 78 82.7 78 82 78 81.3 78 80.7 78 80.1 78 79.7 78 79.3 78 79.1 78 79 76 79 75.9 79 75.9 79"/><polygon class="cls-5" points="39 4.6 39.6 4.5 39.7 4.4 40.4 4.1 40.9 3.7 41.1 3.4 41.3 2.7 41.3 2.4 41.3 2 41.1 1.3 40.9 1 40.5 0.5 39.9 0.2 39.7 0.1 39.1 0 38.5 0.1 37.9 0.3 37.7 0.4 37.2 0.9 37 1.2 36.8 1.8 36.8 2.2 36.9 2.9 37 3.3 37.2 3.6 37.6 4.1 38.2 4.4 38.3 4.4 38.4 4.5 39 4.6"/><polygon class="cls-7" points="15.5 120.6 15.7 120.6 16.1 120.6 16.3 120.6 16.5 120.6 16.8 120.6 17.6 120.6 17.6 120.6 18.4 120.6 18.6 120.6 19.7 120.6 26.5 120.6 27 121.1 30.9 125.4 31 125.4 32.1 126.4 33.4 127.1 34.5 127.6 34.5 123.6 30.8 108.4 30.5 107.3 30.2 106.2 30 105 29.3 105.2 24.8 107.3 20.8 110.1 17.5 113.5 15.1 117.5 14.1 120.5 15.1 120.5 15.3 120.5 15.4 120.6 15.5 120.6"/><polygon class="cls-8" points="61.1 95.3 61.6 95.1 62.8 94.1 61.9 94.5 61.5 94.7 60.7 95.1 60.5 95 60 94.7 59.7 94.5 59.8 94.7 59.9 94.9 59.8 95.3 59.6 95.8 59.3 96.3 58.9 96.9 58.4 97.5 57.9 98.2 57.3 98.8 56.7 99.4 56.1 99.9 55.6 100.3 55.1 100.6 55 100.6 55 100.7 54.6 100.9 54.2 101 54 100.9 54.2 101 54.4 101.1 54.6 101.3 56.6 102.3 57.7 102.9 58 103 58.4 102.9 58.8 102.7 59.4 102.3 59.9 101.9 60.5 101.4 61.1 100.8 61.6 100.2 62.1 99.5 62.5 98.9 62.7 98.5 62.8 98.3 63.1 97.7 63.2 97.2 63.3 96.8 63.2 96.5 63 96.3 62.9 96.3 62.7 96.2 61.5 95.5 61.1 95.3"/><polygon class="cls-9" points="15.3 120.5 15.3 121.2 15.4 120.6 15.3 120.5"/><polygon class="cls-4" points="77.9 71.3 77.9 71.4 77.6 72.8 78.7 72.4 78 71.4 77.9 71.3"/><polygon class="cls-5" points="36.8 22.1 35.6 22.4 34.6 23 34.4 23.1 35.4 22.9 39.3 22.6 43.3 22.9 43.4 22.9 42.9 22.6 41.8 22.2 40.6 21.9 38 21.8 36.8 22.1"/><polygon class="cls-10" points="15.4 120.6 15.3 121.2 15.3 121.8 15.5 120.6 15.4 120.6"/><polygon class="cls-4" points="79.5 67.4 79.2 66.5 78.9 65.5 78.5 64.7 78.6 65.6 78.7 66.2 78.6 66.7 78.5 67.8 78.5 68.4 78.4 68.8 78.2 69.8 78.3 69.8 78.5 71.1 81.1 70 79.7 68.3 79.5 67.4"/><polygon class="cls-3" points="78.5 64.7 78.9 65.5 79.2 66.5 79.5 67.4 79.7 68.3 81.1 70 80.7 68.6 80.3 67.1 79.7 65.5 79.1 63.9 78.4 62.3 78.3 62.2 78.5 64 78.5 64.7"/><polygon class="cls-9" points="63.4 121.2 63.4 120.5 63.3 120.6 63.4 121.2"/><polygon class="cls-10" points="63.2 120.6 63.4 121.8 63.4 121.2 63.3 120.6 63.2 120.6"/><polygon class="cls-7" points="71.5 85.3 71.4 85.7 71.3 86.1 71.3 86.1 71.4 86.2 71.6 86.2 72.4 86.2 72.5 86.2 72.5 86.2 72.5 86.2 78 86.2 78 86.1 78 85.7 78 85.3 78 84.8 71.8 84.8 71.5 85.3"/><polygon class="cls-10" points="47.7 125.9 47.2 127.2 46.5 128.4 45.4 129.5 44.1 130.3 44.1 130.4 43.8 130.9 43.4 131.6 42.8 132.2 42 132.7 41.2 133.1 40.3 133.3 39.3 133.4 38.4 133.3 37.5 133.1 36.6 132.7 35.9 132.2 35.3 131.6 34.8 130.9 34.6 130.4 34.6 130.3 33.3 129.5 32.2 128.4 31.4 127.2 31 125.9 30.9 125.4 27 121.1 26.6 122 26.4 124.1 26.6 126.1 27.4 128.1 28.6 130 30.2 131.6 32.1 132.9 34.4 133.9 36.8 134.5 39.3 134.7 41.9 134.5 44.3 133.9 46.5 132.9 48.5 131.6 50.1 130 51.3 128.1 52.1 126.1 52.3 124.1 52.1 122 51.7 121.1 47.8 125.4 47.7 125.9"/><path class="cls-8" d="M31.4,127.2l.8,1.2,1.1,1.1,1.3.8h0l.2.5.5.7.6.6.7.5.9.4.9.2h1.9l.9-.2.8-.4.8-.5.6-.6.4-.7.3-.5h0l1.3-.8,1.1-1.1.7-1.2.5-1.3v-.5h-.1l-1.1,1-1.3.7-1.1.5v-4l3.7-15.2.3-1.1.2-1.1.3-1.2.3-1.1.2-.9v-.2l-10,1.1-9.9-1.1v.2l.2.9L30,105l.2,1.2.3,1.1.3,1.1,3.7,15.2v4l-1.1-.5-1.3-.7-1.1-1h-.1v.5Zm11,3.3v-1l-.3-.4-.4-.4-.5-.3-.5-.2-.6-.2H38.7l-.5.2-.6.2-.4.3-.4.4-.3.4-.2.5v-1.1l.2-.4.3-.5.4-.4.4-.3.6-.2h2.3l.5.2.5.3.4.4.3.5v2Z"/><polygon class="cls-7" points="21.2 99.7 24.1 100.8 28.4 102.5 28.8 102.7 28.9 102.7 29.4 102.8 39.3 103.9 49.3 102.8 49.8 102.7 49.8 102.7 50.3 102.5 51.1 102.2 52.6 101.4 53.8 100.8 54 100.9 54.2 101 54.6 100.9 55 100.7 55 100.6 55.1 100.6 55.6 100.3 56.1 99.9 56.7 99.4 57.3 98.8 57.9 98.2 58.4 97.5 58.9 96.9 59.3 96.3 59.6 95.8 59.8 95.3 59.9 94.9 59.8 94.7 59.7 94.5 59.6 94.5 58.2 93.7 57.9 93.6 57.1 93.2 56.8 93.1 56.2 92.8 55.9 92.6 54 91.7 53.8 91.5 53.4 91.4 53.5 91.5 53.4 91.7 53.2 92 52.9 92.4 52.4 92.9 51.9 93.4 51.3 94 50.7 94.5 50 95.1 49.3 95.7 48.8 96.1 48.8 96.2 48.7 96.2 48.1 96.6 47.6 96.9 47.2 97.2 46.9 97.3 46.7 97.3 47.4 97.6 48 98 48.9 98.4 50.1 99 50.4 99.2 39.3 100.4 27.3 99.1 17.1 95.1 15.9 94.1 14.1 93.2 11.8 91.6 10.9 91 11.3 92.1 17.9 97.7 20.1 99.3 20.6 99.5 20.7 99.6 21.2 99.7"/><polygon class="cls-4" points="54 100.9 53.8 100.8 52.6 101.4 51.1 102.2 54.2 101 54 100.9"/><polygon class="cls-7" points="61.1 113.5 57.9 110.1 53.9 107.3 49.4 105.2 48.7 105 48.4 106.2 48.2 107.3 47.9 108.4 44.2 123.6 44.2 127.6 45.3 127.1 46.6 126.4 47.7 125.4 47.8 125.4 51.7 121.1 52.2 120.6 59 120.6 60.1 120.6 60.2 120.6 61.1 120.6 61.1 120.6 61.9 120.6 62.2 120.6 62.4 120.6 62.6 120.6 63 120.6 63.2 120.6 63.3 120.6 63.4 120.5 63.5 120.5 64.6 120.5 63.6 117.5 61.1 113.5"/><polygon class="cls-5" points="17.5 113.5 20.8 110.1 24.8 107.3 29.3 105.2 30 105 29.7 103.9 29.5 103 29.4 102.8 28.9 102.7 28.8 102.7 28.4 102.5 24.1 100.8 21.2 99.7 20.7 99.6 20.6 99.5 20.3 99.7 20 100.1 16.6 103.7 14.1 107.8 12.6 112 12.4 112.5 12.4 112.8 12.3 113 12.3 114.4 12.2 115.9 12.2 117.3 12.2 118.4 12.3 119.3 12.3 119.9 12.4 120 12.4 120 12.6 120.2 13.2 120.4 13.4 120.4 14.1 120.5 15.1 117.5 17.5 113.5"/><polygon class="cls-9" points="56 136.5 58.9 133.6 59.2 133.3 61.4 129.9 62.8 126.2 62.9 125.7 63.4 121.8 63.2 120.6 63 120.6 62.6 120.6 62.4 120.6 62.2 120.6 61.9 120.6 61.1 120.6 61.1 120.6 60.2 120.6 60.1 120.6 59 120.6 52.2 120.6 51.7 121.1 52.1 122 52.3 124.1 52.1 126.1 51.3 128.1 50.1 130 48.5 131.6 46.5 132.9 44.3 133.9 41.9 134.5 39.3 134.7 36.8 134.5 34.4 133.9 32.1 132.9 30.2 131.6 28.6 130 27.4 128.1 26.6 126.1 26.4 124.1 26.6 122 27 121.1 26.5 120.6 19.7 120.6 18.6 120.6 18.4 120.6 17.6 120.6 17.6 120.6 16.8 120.6 16.5 120.6 16.3 120.6 16.1 120.6 15.7 120.6 15.5 120.6 15.3 121.8 15.8 125.7 15.9 126.2 17.3 129.9 19.5 133.3 19.8 133.6 22.7 136.5 26.3 138.9 30.3 140.7 34.8 141.8 39.3 142.2 43.9 141.8 48.3 140.7 52.4 138.9 56 136.5"/><polygon class="cls-8" points="67.1 99.1 67.1 99.6 67 100.1 66.8 100.7 66.5 101.3 66.1 102 65.7 102.6 65.2 103.3 64.6 103.9 64.1 104.4 63.5 104.8 63 105.1 62.5 105.3 62.1 105.4 61.8 105.3 62.2 105.6 63.3 106.3 63.6 106.4 64 106.7 65.6 107.8 66.3 108.4 66.7 108.4 67.1 108.4 67.6 108.2 68.1 107.9 68.6 107.5 69.2 106.9 69.7 106.3 70.2 105.7 70.6 105 71 104.3 71.2 103.6 71.4 103 71.5 102.5 71.4 102.1 71.3 101.7 71 101.5 70.2 100.9 67.8 99.3 66.8 98.7 67 98.8 67.1 99.1"/><polygon class="cls-3" points="75.3 104.6 75.4 104.9 75.5 105.4 75.4 105.9 75.2 106.5 75 107.2 74.6 107.9 74.2 108.5 73.7 109.2 73.2 109.8 72.6 110.3 72.1 110.8 71.6 111.1 71.1 111.3 70.7 111.3 70.4 111.3 69.4 110.6 69.4 110.8 69.4 111.3 69.6 111.7 69.9 111.9 70.3 112 70.8 112 71.4 111.7 72 111.3 72.6 110.8 73.3 110.2 73.9 109.5 74.5 108.7 75 107.9 75.4 107 75.7 106.2 75.9 105.5 76 104.9 76 104.3 75.8 103.9 75.5 103.7 75.1 103.6 74.6 103.7 74.2 103.8 75 104.4 75.3 104.6"/><polygon class="cls-7" points="71.4 102.1 71.5 102.5 71.4 103 71.2 103.6 71 104.3 70.6 105 70.2 105.7 69.7 106.3 69.2 106.9 68.6 107.5 68.1 107.9 67.6 108.2 67.1 108.4 66.7 108.4 66.3 108.4 69.4 110.6 70.4 111.3 70.7 111.3 71.1 111.3 71.6 111.1 72.1 110.8 72.6 110.3 73.2 109.8 73.7 109.2 74.2 108.5 74.6 107.9 75 107.2 75.2 106.5 75.4 105.9 75.5 105.4 75.4 104.9 75.3 104.6 75 104.4 74.2 103.8 71 101.5 71.3 101.7 71.4 102.1"/><polygon class="cls-8" points="42.8 99 39.3 99.2 35.9 99 32.4 98.8 29 98.3 27.4 98 25.7 97.7 22.6 96.7 19.5 95.8 17.2 94.7 16.8 94.5 15.9 94.1 17.1 95.1 27.3 99.1 39.3 100.4 50.4 99.2 50.1 99 48.9 98.4 46.3 98.8 42.8 99"/><polygon class="cls-8" points="50.6 90 49.8 89.6 48.1 88.7 47.6 88.4 47.3 88.2 47.2 88.2 46.9 88.3 46.5 88.5 45.9 88.8 45.3 89.2 44.6 89.6 44.2 89.8 43.8 90 43.1 90.5 42.3 91 41.6 91.5 41 91.9 40.5 92.3 40.5 92.4 40.4 92.3 40 92.7 39.8 92.9 39.6 93.1 39.6 93.2 40.7 94 42.4 95 42.4 95 42.8 95.2 43 95.4 43.7 95.7 44.1 96 46 97 46.5 97.2 46.7 97.3 46.9 97.3 47.2 97.2 47.6 96.9 48.1 96.6 48.7 96.2 48.8 96.2 48.8 96.1 49.3 95.7 50 95.1 50.7 94.5 51.3 94 51.9 93.4 52.4 92.9 52.9 92.4 53.2 92 53.4 91.7 53.5 91.5 53.4 91.4 51.7 90.5 50.6 90"/><polygon class="cls-5" points="40.5 92.4 40.5 92.3 40.4 92.3 40.5 92.4"/><polygon class="cls-7" points="39.8 92.9 40 92.7 40.4 92.3 40.5 92.3 41 91.9 41.6 91.5 42.3 91 43.1 90.5 43.8 90 44.2 89.8 44.6 89.6 45.3 89.2 45.9 88.8 46.5 88.5 46.9 88.3 47.2 88.2 47.3 88.2 47 88.1 46.6 87.8 45.3 87 44.8 86.7 45.7 85.8 46.4 84.6 46.9 83.4 46.9 83.2 46.9 83.1 47.1 81.9 47 82.1 46.8 82.3 46.5 82.5 46.1 82.7 45.7 82.8 45.2 82.8 44.5 82.8 44.5 83.1 44.4 83.9 44.1 84.8 43.6 85.5 43.5 85.6 43.2 85.2 43.1 85 42.9 84.8 42.6 84.5 42.1 84.2 41.4 84 40.7 83.8 39.9 83.8 39.1 83.9 38.2 84 37.4 84.3 37.2 84.4 36.7 84.6 36.1 84.9 35.6 85.4 35.2 85.8 35 86.3 35 86.7 35.1 87.2 35 87.2 35 86.9 34.9 86.6 34.9 86.6 34.8 86.3 34.8 85.9 34.8 85 34.6 84.8 34.3 83.9 34.2 83.1 34.2 82.8 33.5 82.8 33 82.8 32.6 82.7 32.2 82.5 31.9 82.3 31.7 82.1 31.6 81.9 31.8 82.9 31.8 83.2 31.9 83.4 32.3 84.6 33 85.8 33.9 86.8 34.1 86.9 35.2 87.7 35.4 88.3 35.5 88.5 35.7 88.8 35.7 88.9 36.5 90.2 37.6 91.4 38 91.8 39.2 92.9 39.3 93 39.6 93.2 39.6 93.1 39.8 92.9"/><polygon class="cls-5" points="44.1 81.4 43.6 80.6 43 80 42.2 79.4 41.3 79 40.4 78.7 39.4 78.7 38.4 78.7 37.4 79 36.5 79.4 35.7 80 35.1 80.6 34.6 81.4 34.3 82.2 34.2 83.1 34.3 83.9 34.6 84.8 34.8 85 34.8 84.8 34.8 84.1 35.1 82.9 35.3 82.2 35.6 81.5 36.1 80.9 36.1 80.9 36.6 80.5 36.7 80.5 37.4 80.1 38.2 79.8 39 79.7 39.9 79.7 40.7 79.8 41.5 80.1 42.2 80.5 42.7 81 43.2 81.6 43.5 82.2 43.6 82.9 43.6 83.6 43.4 84.3 43.1 84.9 43.1 85 43.1 85 43.2 85.2 43.5 85.6 43.6 85.5 44.1 84.8 44.4 83.9 44.5 83.1 44.4 82.2 44.1 81.4"/><polygon class="cls-8" points="43.1 84.9 43.4 84.3 43.6 83.6 43.6 82.9 43.5 82.2 43.2 81.6 42.7 81 42.2 80.5 41.5 80.1 40.7 79.8 39.9 79.7 39 79.7 38.2 79.8 37.4 80.1 36.7 80.5 36.6 80.5 36.1 80.9 36.1 80.9 35.6 81.5 35.3 82.2 34.9 83.5 34.8 84.1 34.8 84.8 34.8 85 34.8 85.9 34.8 86.3 34.9 86.6 34.9 86.6 35 86.9 35 87.2 35.1 87.2 35 86.7 35 86.3 35.2 85.8 35.6 85.4 36.1 84.9 36.7 84.6 37.2 84.4 37.4 84.3 38.2 84 39.1 83.9 39.9 83.8 40.7 83.8 41.4 84 42.1 84.2 42.6 84.5 42.9 84.8 43.1 85 43.1 85 43.1 84.9"/><polygon class="cls-6" points="31.9 82.3 32.2 82.5 32.6 82.7 33 82.8 33.5 82.8 34.2 82.8 34.2 83.1 34.3 82.2 34.6 81.4 35.1 80.6 35.7 80 36.5 79.4 37.4 79 38.4 78.7 39.4 78.7 40.4 78.7 41.3 79 42.2 79.4 43 80 43.6 80.6 44.1 81.4 44.4 82.2 44.5 83.1 44.5 82.8 45.2 82.8 45.7 82.8 46.1 82.7 46.5 82.5 46.8 82.3 47 82.1 47.1 81.9 47.1 81.6 46.9 80.3 46.9 80.2 46.5 79.1 45.9 78.3 45.8 78 44.8 77 43.6 76.2 43 75.9 42.3 75.6 40.9 75.2 39.4 75.1 39.3 75.1 37.9 75.2 36.4 75.6 35.6 75.9 35.1 76.2 33.9 77 32.9 78 32.8 78.3 32.2 79.1 31.8 80.3 31.8 80.3 31.6 81.6 31.6 81.9 31.7 82.1 31.9 82.3"/><polygon class="cls-7" points="63.3 96.8 63.2 97.2 63.1 97.7 62.8 98.3 62.7 98.5 62.5 98.9 62.1 99.5 61.6 100.2 61.1 100.8 60.5 101.4 59.9 101.9 59.4 102.3 58.8 102.7 58.4 102.9 58 103 57.7 102.9 58.8 103.5 58.8 103.5 61.1 104.9 61.8 105.3 62.1 105.4 62.5 105.3 63 105.1 63.5 104.8 64.1 104.4 64.6 103.9 65.2 103.3 65.7 102.6 66.1 102 66.5 101.3 66.8 100.7 67 100.1 67.1 99.6 67.1 99.1 67 98.8 66.8 98.7 65.3 97.7 63 96.3 63.2 96.5 63.3 96.8"/><polygon class="cls-4" points="40.6 21.9 40.7 20.1 40.1 20.1 39.9 4.4 39.8 4.4 39.6 4.5 39 4.6 38.4 4.5 38.3 4.4 38.5 20.1 38.1 20.1 38 21.8 40.6 21.9"/><path class="cls-4" d="M20.2,32.3l-.5.7-1,2-.5,2.1-.6,2.4-.2.9v2.3l.3,2.3.3,1.3.4,2,.4,1.1.3,1,1,1.7h.1l2,2.8h.1l1.6,1.2,1.4,1,2.7,1.2,1.4.6,4.9,1.1,4.3.3v1H38v.9h2.6v-.9h-.5v-.9l4.4-.3,4.8-1.1,1.5-.6,2.6-1.2,1.5-1,1.6-1.2h.1l2-2.8h0l1.1-1.7.3-1,.3-1.1.5-2,.3-1.3.3-2.3V40.4l-.3-.9-.5-2.4L60,35l-1-2-.5-.7L57,30.2l-1.2-1.4h0l-.7-.5,1.8,2.6.7,2.7-.7,2.7-1.8,2.6-2.9,2.1-3.7,1.7-4.4,1.1-4.2.3V38.2H38.3v5.7l-3.7-.2-4.4-1.1-3.7-1.7-2.9-2.1-1.9-2.6-.6-2.7.6-2.7,1.9-2.6-.7.5h-.1l-1.1,1.4ZM60,47.7l-.4,1.1-1.3,1.5-3.4,1.9-1.5.5v-.3L53,52l-.2-.9v-.8h0V49.1l.3-1.1.5-.8v-.3l.4-.7v-.3l.5-1,.7-.9.8-.7.9-.6h0l.6-.3.6-.2h.8l.4.2.4.5.4.7h0v2.7Z"/><polygon class="cls-6" points="3 49 3.2 50.9 3.7 52.9 4.1 53.7 4.6 54.8 5.9 56.5 7.4 58.2 8.1 58.8 9.3 59.7 11.5 61.1 13.9 62.4 16.5 63.6 18.5 64.3 19.4 64.6 22.4 65.4 25.6 66.1 29 66.7 32.4 67.1 32.8 67.1 32.7 67.6 32.9 68.5 33 67.3 33.3 66.2 33.9 65.1 34.7 64.2 35.7 63.4 36.9 62.8 38.1 62.4 38 61.5 38.5 61.5 38.5 61.1 38.5 60.5 34.2 60.2 29.3 59.1 27.9 58.5 25.2 57.3 23.8 56.3 22.2 55.1 22.1 55 22.1 55 20.1 52.2 20 52.1 19 50.4 18.7 49.4 18.3 48.3 17.9 46.3 17.6 45 17.3 42.7 17.3 41.7 17.4 40.4 17.6 39.5 18.2 37.1 18.7 35 19.7 33 20.2 32.3 21.7 30.2 22.8 28.8 22.4 28.9 19.4 30.1 18.5 30.6 16.5 31.5 13.9 33 11.5 34.7 9.3 36.5 8.1 37.8 7.4 38.5 5.9 40.5 4.6 42.6 4.1 43.9 3.7 44.7 3.2 46.8 3 49"/><polygon class="cls-5" points="40.3 37.9 40.6 37.7 40.9 37.3 41 37.2 41.1 36.8 41.3 36.5 41.3 36.1 41.3 35.9 41.3 35.4 41.2 35.3 41 34.9 40.8 34.6 40.5 34.2 40.1 34 39.8 33.8 39.7 33.8 39.4 33.7 39.3 33.7 39.2 33.7 39.2 33.7 39 33.7 39 33.7 39 33.7 38.8 33.7 38.7 33.8 38.5 33.8 38.2 33.9 38 34 37.8 34.1 37.5 34.3 37.2 34.7 37.1 35 36.8 35.5 36.8 35.8 36.8 36 36.8 36.1 36.9 36.6 37.1 37.1 37.3 37.4 37.3 37.4 37.6 37.8 38 38 38.3 38.1 38.3 38.2 38.7 38.2 38.8 38.3 39.1 38.3 39.1 38.3 39.6 38.2 39.8 38.1 39.9 38.1 40.3 37.9"/><polygon class="cls-6" points="58.5 32.3 59 33 60 35 60.5 37.1 61 39.5 61.3 40.4 61.3 41.7 61.4 42.7 61.1 45 60.8 46.3 60.3 48.3 60 49.4 59.7 50.4 58.6 52.1 58.6 52.2 56.6 55 56.5 55 56.5 55.1 54.9 56.3 53.4 57.3 50.8 58.5 49.3 59.1 44.5 60.2 40.1 60.5 40.1 61.1 40.1 61.4 40.6 61.4 40.7 62.3 41.9 62.6 43.1 63.2 44.1 63.9 44.9 64.8 45.5 65.8 45.9 67 45.9 67.1 46.3 67.1 49.7 66.7 53 66.1 56.2 65.4 59.3 64.6 60.1 64.3 62.1 63.6 64.8 62.4 67.2 61.1 69.4 59.7 70.6 58.8 71.2 58.2 72.8 56.5 74.1 54.8 74.6 53.7 75 52.9 75.5 50.9 75.7 49 75.5 46.8 75 44.7 74.6 43.9 74.1 42.6 72.8 40.5 71.2 38.5 70.6 37.8 69.4 36.5 67.2 34.7 64.8 33 62.1 31.5 60.1 30.6 59.3 30.1 56.2 28.9 55.8 28.8 57 30.2 58.5 32.3"/><polygon class="cls-6" points="25.5 27.2 23.9 29.4 23.3 31.8 23.9 34.2 25.5 36.5 28 38.4 31.3 39.8 35.2 40.8 38.3 41 38.3 40.2 38.3 38.2 38.3 38.1 38 38 37.6 37.8 37.3 37.4 37.3 37.4 37.1 37.1 36.9 36.6 36.8 36.1 36.8 36 36.8 35.8 36.8 35.5 37 35.2 37.2 34.7 37.5 34.3 37.8 34.1 38 34 38.2 33.9 38.5 33.8 38.7 33.8 38.8 33.7 39 33.7 39 33.7 39 33.7 39.2 33.7 39.2 33.7 39.3 33.7 39.4 33.7 39.7 33.8 39.8 33.8 40.1 34 40.5 34.2 40.8 34.6 41 34.9 41.2 35.3 41.3 35.4 41.3 35.9 41.3 36.1 41.3 36.5 41.1 36.8 41 37.2 40.9 37.3 40.6 37.7 40.3 37.9 39.9 38.1 39.8 38.1 39.8 38.2 39.9 40.3 39.9 41 43.5 40.8 47.3 39.8 50.6 38.4 53.2 36.5 54.8 34.2 55.3 31.8 54.8 29.4 53.2 27.2 50.6 25.3 47.3 23.8 47 23.8 45.8 23.5 45.5 22.9 44.9 22.1 44.1 21.4 43.1 20.9 41.9 20.4 40.7 20.1 40.6 21.9 41.8 22.2 42.9 22.6 43.4 22.9 43.3 22.9 39.3 22.6 35.4 22.9 34.4 23.1 34.6 23 35.6 22.4 36.8 22.1 38 21.8 38.1 20.1 36.9 20.3 35.7 20.7 34.7 21.2 33.9 21.8 33.3 22.6 33 23.4 33 23.4 33.3 23.4 33 23.4 31.7 23.8 31.3 23.8 28 25.3 25.5 27.2"/><polygon class="cls-5" points="53.2 27.2 54.8 29.4 55.3 31.8 54.8 34.2 53.2 36.5 50.6 38.4 47.3 39.8 43.5 40.8 39.9 41 39.9 42.6 39.9 44 44.1 43.7 48.5 42.6 52.2 40.9 55.1 38.8 56.9 36.2 57.6 33.5 56.9 30.8 55.1 28.2 54.3 27.7 51.6 25.6 48 24 47.3 23.8 50.6 25.3 53.2 27.2"/><polygon class="cls-5" points="21.1 33.5 21.7 36.2 23.6 38.8 26.5 40.9 30.2 42.6 34.6 43.7 38.3 44 38.3 42.6 38.3 41 35.2 40.8 31.3 39.8 28 38.4 25.5 36.5 23.9 34.2 23.3 31.8 23.9 29.4 25.5 27.2 28 25.3 31.3 23.8 30.7 24 27.1 25.6 24.3 27.7 23.6 28.2 21.7 30.8 21.1 33.5"/><polygon class="cls-11" points="59.9 46.1 59.9 45.4 59.9 44.7 59.8 44.6 59.6 44.2 59.3 43.8 58.9 43.6 58.5 43.6 58.4 43.6 58.1 43.7 57.7 43.9 57.6 43.9 56.9 44.4 56.3 44.9 55.8 45.6 55.6 46 55.4 46.3 55 47.2 54.8 48 54.7 48.5 54.6 48.8 54.6 49.5 54.5 49.6 54.5 50.4 54.7 51 54.7 51.1 54.9 51.1 57.9 49.5 58.4 49.2 59.6 48 59.7 47.8 59.9 47.1 59.9 46.9 59.9 46.1"/><path class="cls-12" d="M60.4,46.3V43.9h0l-.4-.7-.4-.5-.4-.2h-.8l-.6.2-.6.3h0l-.9.6-.8.7-.7.9-.5,1v.3l-.4.7v.3l-.5.8-.3,1.1v1.1h0v.8l.2.9.3.4v.3l1.5-.5,3.4-1.9,1.3-1.5.4-1.1.4-1.1Zm-.7,1.5V48l-1.2,1.2-.5.3-3,1.6h-.2l-.2-.6V48l.2-.8.4-.9.2-.3.2-.4.5-.7.6-.5.7-.5h.1l.4-.2h.8l.4.2.3.4.2.4h.1v2.4Z"/><polygon class="cls-4" points="72.4 86.2 71.6 86.2 71.4 86.2 71.3 86.1 71.3 86.1 71.4 85.7 71.5 85.3 71.8 84.8 72 84.3 72 84.1 72.3 83.5 72.6 82.7 73 82 73.2 81.6 73.4 81.3 73.7 80.7 74.1 80.1 74.4 79.7 74.7 79.3 74.9 79.2 75 79.1 75.2 79 75.8 79 75.9 79 76 78 76 78 75.8 77.1 75.5 76.9 75.3 77.2 74.9 77.5 74 78.9 73.5 79.9 72.9 80.9 71.7 83.5 71 85 70.8 85.5 70 86.6 68.9 88.3 67.6 90 67.3 90.5 66.3 92 64.6 93.2 62.8 94.1 61.6 95.1 61.1 95.3 61.5 95.5 62.7 96.2 67.4 92.1 67.8 91 69.1 90.1 70.7 88.3 72.4 86.5 72.5 86.2 72.5 86.2 72.4 86.2"/><polygon class="cls-8" points="75.7 49 75.5 50.9 75 52.9 74.6 53.7 74.1 54.8 72.8 56.5 71.2 58.2 70.6 58.8 69.4 59.7 67.2 61.1 64.8 62.4 62.1 63.6 60.1 64.3 59.3 64.6 56.2 65.4 53 66.1 49.7 66.7 46.3 67.1 45.9 67.1 46 68.2 45.9 69.4 45.7 70.1 46.5 70 49.9 69.6 53.3 69 56.6 68.3 59.7 67.5 60.6 67.2 62.6 66.5 65.3 65.3 67.8 63.9 70 62.5 71.2 61.6 71.9 61 73.5 59.3 74.8 57.5 75.1 56.7 75.3 56.4 75.7 55.6 76.2 53.5 76.4 51.4 76.2 49.3 75.7 47.2 75 44.7 75.5 46.8 75.7 49"/><polygon class="cls-8" points="2.3 51.4 2.5 53.5 3 55.6 3.4 56.4 3.5 56.7 3.9 57.5 5.2 59.3 6.8 61 7.5 61.6 8.7 62.5 10.9 63.9 13.4 65.3 16.1 66.5 18.1 67.2 19 67.5 22.1 68.3 25.4 69 28.7 69.6 32.2 70 33.1 70.1 33 69.7 32.9 68.8 32.7 67.6 32.8 67.1 32.4 67.1 29 66.7 25.6 66.1 22.4 65.4 19.4 64.6 18.5 64.3 16.5 63.6 13.9 62.4 11.5 61.1 9.3 59.7 8.1 58.8 7.4 58.2 5.9 56.5 4.6 54.8 4.1 53.7 3.7 52.9 3.2 50.9 3 49 3.2 46.8 3.7 44.7 3 47.2 2.5 49.3 2.3 51.4"/><polygon class="cls-8" points="1.5 52.6 1.9 51.4 2.2 50.2 2.4 49.4 1.8 51.4 1.7 51.7 1.5 52.5 1.5 52.6 1.2 53.9 1.2 53.8 1.5 52.6"/><polygon class="cls-8" points="4.2 82.1 4.3 82.3 4.5 82.7 4.5 82.7 4.6 82.8 4.7 82.7 4.7 82.6 4.7 82.4 4.6 82 4.6 81.9 4.6 81.1 4.4 80.2 3.4 75.4 4.2 67.4 4.3 66.3 4.2 65.4 4.2 65.2 4.2 64 4.2 63.4 4.2 62.8 4 61.6 3.8 60.6 3.4 59.6 3.4 59.5 3.2 58.8 2.8 58.2 2.5 57.8 2.4 57.8 2.2 57.7 1.8 57.8 1.5 58.1 1.2 58.6 1.1 58.8 1 59.3 1 59.4 0.9 60.3 0.2 68.3 0.2 68.4 1.3 74.1 1.3 74.2 1.5 75.3 1.6 75.6 2 77 1.8 76.6 1.7 75.8 1.5 75 1.4 74.2 0.5 69.5 1.2 61.6 1.3 60.9 1.4 60.4 1.5 60.1 1.5 60.1 1.7 59.9 1.9 59.8 1.9 59.8 2.2 59.9 2.4 60.2 2.6 60.6 2.8 61.1 2.9 61.5 3 61.7 3.2 62.4 3.2 63.2 3.3 63.9 3.3 64 3.3 64.7 3.4 65.5 3.3 66.3 2.6 74.2 3.5 78.9 3.6 79.6 3.7 80.1 3.6 80.4 3.6 80.5 3.6 80.6 3.6 80.7 3.5 80.6 3.5 80.6 3.4 80.4 3.3 80.3 3.2 80.1 3.1 79.9 2.6 78.8 2.3 78.1 3 79.7 3.1 79.9 3.5 80.9 3.6 81.1 3.9 81.7 4.2 82.1"/><polygon class="cls-4" points="3.6 80.7 3.6 80.6 3.6 80.5 3.6 80.4 3.7 80.1 3.6 79.6 3.5 78.9 2.6 74.2 3.3 66.3 3.4 65.5 3.3 64.7 3.3 64 3.3 63.9 3.2 63.2 3.2 62.4 3 61.7 2.9 61.5 2.8 61.1 2.6 60.6 2.4 60.2 2.2 59.9 1.9 59.8 1.9 59.8 1.7 59.9 1.5 60.1 1.5 60.1 1.4 60.4 1.3 60.9 1.2 61.6 0.5 69.5 1.4 74.2 1.5 75 1.7 75.8 1.8 76.6 2 77 2 77.4 3 79.5 3.5 80.6 3.6 80.7"/><polygon class="cls-4" points="3.3 80.3 3.4 80.4 3 79.5 3.1 79.9 3.2 80.1 3.3 80.3"/><polygon class="cls-4" points="76 104.3 76 104.9 75.9 105.5 75.7 106.2 75.4 107 75 107.9 74.5 108.7 73.9 109.5 73.3 110.2 72.6 110.8 72 111.3 71.4 111.7 70.8 112 70.3 112 69.9 111.9 70.7 112.5 70.6 113.4 70.8 114.8 71.1 116.3 71.8 117.9 72.6 119.4 73.6 120.7 74.8 122 76.1 123 77.4 123.8 78.7 124.4 79.9 124.6 81.1 124.5 82.1 124.2 90 118.5 89 118.9 87.9 118.9 86.6 118.7 85.3 118.1 84 117.3 82.7 116.3 81.6 115.1 80.5 113.7 79.7 112.2 79.1 110.7 78.7 109.2 78.6 107.7 78.7 106.4 79.1 105.3 79.7 104.4 80.5 103.8 78 105.5 75.5 103.7 75.8 103.9 76 104.3"/><path class="cls-5" d="M14,93.2l1.9.9.9.4.4.2,2.3,1.1,3.1.9,3.1,1,1.7.3,1.6.3,3.4.5,3.5.2,3.4.2,3.5-.2,3.5-.2,2.6-.4L48,98l-.6-.4-.7-.3h-.2L46,97l-1.9-1-.4-.3-.7-.3-.2-.2-.4-.2h0l-1.7-1-1.1-.8-.3-.2h-.1l-1.3-1.1-.3-.4-1.1-1.2-.8-1.3h0l-.2-.3v-.2l-.2-.6-1.1-.8h-.2l-.9-1-.7-1.2-.4-1.2v-.5l-.2-1v-.3l.2-1.3h0l.4-1.2.6-.8V78l1-1,1.2-.8.5-.3.8-.3,1.5-.4h3l1.4.4.7.3.6.3,1.2.8,1,1v.3l.6.8.4,1.1h0l.2,1.3v.3l-.2,1.2h0v.2l-.5,1.2-.7,1.2-.9.9.5.3,1.3.8.4.3h.3l.3.2.5.3,1.7.9.8.4,1.1.5,1.7.9h.3l.3.2,1.9.9.3.2.6.3h.3l.8.4h.3l1.4.8h.1l.3.2.5.3h.2l.8-.4.4-.2.9-.4,1.8-.9L66.3,92l1-1.5.3-.5,1.3-1.7L70,86.6l.8-1.1L71,85l.7-1.5,1.2-2.6.6-1,.5-1,.9-1.4.4-.3.2-.3.3.2.2.9h0v1H76l.6-1.6.6-2.1.4-2.5.3-1.4h0l.3-1.5.2-1V64l-.2-1.8-.7-8L77,52.1l-1.3-4.9.5,2.1.2,2.1-.2,2.1-.5,2.1-.4.8-.2.3-.4.8-1.2,1.8L71.9,61l-.7.6-1.2.9-2.2,1.4-2.5,1.4-2.7,1.2-2,.7-.9.3-3.1.8-3.3.7-3.4.6-3.4.4h-.8l.2-.7V67.1h0l-.4-1.2-.6-1-.8-.9-1-.7-1.2-.6-1.2-.3H38.1l-1.2.4-1.2.6-1,.8-.8.9-.6,1.1L33,67.3v2.8h-.9l-3.5-.4L25.4,69l-3.3-.7L19,67.5l-.9-.3-2-.7-2.7-1.2-2.5-1.4L8.7,62.5l-1.2-.9L6.8,61,5.2,59.3,3.9,57.5l-.4-.8v-.3L3,55.6l-.5-2.1-.2-2.1.2-2.1L3,47.2l-.6,2.2-.2.8-.3,1.2-.4,1.2-.3,1.2h0v.3L.2,64h0L0,66.2l.2,2.1.7-8v-.9H1v-.7l.3-.5.3-.3h.7l.3.4.4.6.2.7h0l.4,1,.2,1,.2,1.2v4.6l-.8,8,1,4.8.2.9v.8h0v.6H4.5l-.3-.4v-.2l-.3-.4-.3-.6.7,1.5,1,2,1,1.9,1.6,1.8,1.7,1.8,1.3.9.9.6ZM35.2,67.7l.3-.8.4-.6.5-.7.6-.5.8-.4.8-.2h1.6l.9.2.7.4.7.5.5.5.4.7.3.8V69l-.3.8-.4.7-.5.6-.6.5-.8.4-.8.2H38.7l-.8-.2-.8-.4-.6-.5-.6-.5-.4-.7-.2-.8V67.7Z"/><polygon class="cls-13" points="42.2 128.5 41.9 128 41.5 127.6 41 127.3 40.5 127.1 39.9 127 39.3 126.9 38.7 127 38.2 127.1 37.6 127.3 37.2 127.6 36.8 128 36.5 128.5 36.3 128.9 36.3 129.4 36.3 130.5 36.3 130 36.5 129.5 36.8 129.1 37.2 128.7 37.6 128.4 38.2 128.2 38.7 128 39.3 128 39.9 128 40.5 128.2 41 128.4 41.5 128.7 41.9 129.1 42.2 129.5 42.3 130 42.4 130.5 42.4 129.4 42.3 128.9 42.2 128.5"/><polygon class="cls-11" points="35.5 70 35.9 70.7 36.5 71.2 37.1 71.7 37.9 72.1 38.7 72.3 39.5 72.3 40.3 72.2 41.1 72 41.9 71.6 42.5 71.1 43 70.5 43.4 69.8 43.7 69 43.7 68.2 43.6 67.5 43.4 66.7 43 66 42.5 65.5 41.8 65 41.1 64.6 40.2 64.4 39.4 64.4 38.6 64.5 37.8 64.7 37 65.1 36.4 65.6 35.9 66.3 35.5 66.9 35.2 67.7 35.2 68.5 35.3 69.2 35.5 70"/><path class="cls-14" d="M3,49l.2,1.9.5,2,.4.8.5,1.1,1.3,1.7,1.5,1.7.7.6,1.2.9,2.2,1.4,2.4,1.3,2.6,1.2,2,.7.9.3,3,.8,3.2.7,3.4.6,3.4.4h.4V66l.2-.7.6-1.1.8-.9,1-.8.4-.2.8-.4,1.2-.4h.5c-.1-9.8,0-6.1-.2-17.3V38.1H38l-.4-.2-.2-.2v-.2l-.2-.3h0l-.2-.5V35.5l.2-.3.2-.5.3-.4.3-.2h2l.3.2.4.2.3.4.2.2h0l.3.5v1.3h-.1v.4h-.1l-.3.4-.3.2-.4.2h-.1v6.1c.2,13,.1,11.6.2,17.2h.5l1.2.3.9.4.2.2L44,63l.8.9.6,1,.4,1.1h0V67h.4l3.4-.4,3.3-.6,3.2-.7,3.1-.8.8-.3,2-.7,2.7-1.2,2.4-1.3,2.2-1.4,1.2-.9.6-.6,1.6-1.7,1.3-1.7.5-1.1.4-.8.5-2,.2-1.9-.2-2.2L75,44.7l-.9-2.8-.8-2-4.7-8.3-1-1.6-1.3-1.6-5-5.3L60,21.9l-1.4-1.1-1.7-1.1-1.8-.9-1.9-.9-3.1-1.1-1.6-.6-1.8-.5L45,15.4l-1.9-.3-1.9-.2H37.4l-1.8.2-1.9.3-1.8.3-1.7.5-1.6.6-3.1,1.1-1.9.9-1.8.9-1.7,1.1-1.4,1.1-1.3,1.2-5.1,5.3L11.1,30,10,31.6,5.4,39.9l-.9,2-.8,2.8-.5,2.1Z"/></svg>