<svg id="Layer_1" data-name="Layer 1" xmlns="http://www.w3.org/2000/svg" viewBox="0 0 103.6 138.3"><defs><style>.cls-1{fill:#ededf4;}.cls-2{fill:none;}.cls-3{fill:#d9d9df;}.cls-4{fill:#5e5c6a;}.cls-5{fill:#43434b;}.cls-6{fill:#7b7a88;}.cls-7{fill:#b5b5c1;}.cls-8{fill:#6d5c46;}.cls-9{fill:#9399a8;}.cls-10{fill:#605e73;}.cls-11{fill:#4b3a2d;}.cls-12{fill:#9491a4;}.cls-13{fill:#46bbed;}.cls-14{fill:#2affff;}.cls-15{fill:#54d9ff;opacity:0.5;}</style></defs><rect class="cls-1" x="-87.1" y="-230.5" width="1000" height="800"/><polygon class="cls-2" points="93.1 83.6 93.1 82.6 92.9 81.8 92.8 82.3 92.7 83.4 92.7 84.4 92.9 85.2 93 84.7 93.1 83.6"/><polygon class="cls-2" points="10.8 77 11 77.2 11.2 77.3 11.5 77.4 12 77.6 11.8 77.5 10.8 77"/><polygon class="cls-2" points="79.1 42.5 79.2 42.5 79.2 42.5 79.1 42.5"/><polygon class="cls-2" points="20.4 113 18.1 109.5 20.4 113 20.4 113"/><polygon class="cls-2" points="61 34.6 61.2 35.6 61.2 35.3 61.1 34.9 61 34.6"/><polygon class="cls-2" points="19.9 27.9 19.9 27.9 19.7 28.2 19.9 27.9"/><polygon class="cls-2" points="3 70.1 3.6 70.8 3.6 70.8 3 70.1"/><polygon class="cls-2" points="60.6 41.3 60.8 40.6 60.6 41.2 60.6 41.3"/><polygon class="cls-2" points="9.3 77.6 9.3 77.6 9.2 77.2 9.2 76.7 9.3 77.6"/><polygon class="cls-2" points="7.6 92 7.6 92 7.6 92 7.6 92"/><polygon class="cls-2" points="19 94.2 19.7 95.2 20 94.9 20 94.4 18.5 93.4 19 94.2"/><polygon class="cls-2" points="20 95.6 20 95.6 19.9 95.4 20 95.6"/><polygon class="cls-3" points="76.1 72.8 76 72.8 75.8 72.9 75.6 73.2 75.3 73.5 75.1 74 74.9 74.4 74.8 74.6 74.4 75.2 74.1 75.8 73.9 76.5 73.6 77.2 73.5 77.8 73.4 78 73.3 78.3 75.3 79.5 75.4 78.9 75.5 78.2 75.7 77.6 76.1 77 76.5 76.4 76.9 75.8 77.4 75.4 77.9 75 78.4 74.8 78.9 74.7 79.3 74.7 79.7 74.8 76.5 73 76.1 72.8 76.1 72.8"/><polygon class="cls-4" points="103.2 80.5 102.6 79 101.8 77.6 100.8 76.4 99.7 75.6 98.5 75 97.2 74.8 95.8 74.9 94.6 75.3 93.4 76.1 92.3 77.1 91.4 78.4 90.7 79.9 90.3 81.5 90.1 83.2 90.2 85 90.5 86.6 91 88.2 91.8 89.6 92.6 88.6 93.6 87.4 93.7 87.3 93.4 86.6 93.3 86.4 93 85.7 92.9 85.5 92.9 85.2 92.7 84.4 92.7 83.4 92.8 82.3 92.9 81.8 93 81.5 93.1 81.3 93.4 80.6 93.5 80.4 93.9 79.8 94 79.6 94.5 79.1 94.7 78.9 95.3 78.6 95.4 78.5 96.1 78.3 96.2 78.2 97 78.1 97.8 78.3 98.6 78.6 99.3 79.2 99.9 79.9 100.4 80.7 100.8 81.7 100.9 82.7 101 83.8 100.9 84.8 100.6 85.8 100.2 86.8 99.6 87.6 101.4 90 102.2 88.7 102.9 87.2 103.4 85.6 103.6 83.9 103.5 82.2 103.2 80.5"/><polygon class="cls-5" points="100.2 86.8 100.6 85.8 100.9 84.8 101 83.8 100.9 82.7 100.8 81.7 100.4 80.7 99.9 79.9 99.3 79.2 98.6 78.6 97.8 78.3 97 78.1 96.2 78.2 96.1 78.3 95.4 78.5 95.3 78.6 94.7 78.9 94.5 79.1 94 79.6 93.9 79.8 93.5 80.4 93.4 80.6 93.1 81.3 93 81.5 92.9 81.8 93.1 82.6 93.1 83.6 93 84.7 92.9 85.2 92.9 85.5 93 85.7 93.3 86.4 93.4 86.6 93.7 87.3 93.6 87.4 92.6 88.6 93.5 89.9 101.4 90 99.6 87.6 100.2 86.8"/><polygon class="cls-4" points="87.2 72.9 87.8 73 88.5 72.9 89.3 72.9 90.2 72.9 91.2 72.8 92.2 72.7 93.1 72.5 94 72.4 94.8 72.2 95.5 72.1 96 71.9 96.4 71.8 96.5 71.6 96.5 71.5 96.3 71.5 95.9 71.4 95.7 71.4 95.7 71.7 95.6 71.8 95.3 72 94.8 72.1 94.3 72.2 93.6 72.3 92.8 72.5 92.1 72.6 91.2 72.7 90.5 72.7 89.7 72.8 89 72.8 88.4 72.8 88 72.8 87.7 72.7 87.5 72.7 87.5 72.6 87.4 72.3 87.2 72.4 86.8 72.5 86.6 72.7 86.7 72.8 86.9 72.9 87.2 72.9"/><polygon class="cls-3" points="57 25.4 59 28.2 60 30.2 60.2 30.9 60.5 32.3 60.9 34 60.9 34 61.2 35.3 61.2 35.6 61.4 37.3 61.4 37.9 61.3 38.4 61.1 40.2 61 40.5 60.6 42.2 60.4 43.4 59.7 45.5 58.6 47.4 58.6 47.4 56.6 50.1 56.5 50.3 56.2 50.5 53.3 52.6 49.6 54.3 49.2 54.4 44.5 55.5 44.4 55.5 41.7 55.7 39.3 55.9 36 55.6 34.2 55.4 29.3 54.2 25.2 52.4 22 50 20 47.2 19.4 46.2 19 45.5 18.3 43.4 17.8 41.1 17.6 40.2 17.4 38.7 17 41 16.1 46.4 16.1 46.7 15.3 51 16 51.3 14.5 51.9 15.3 52.7 16.1 53.7 16.7 54.8 17.2 56 17.4 57.3 17.5 58.5 17.4 59.7 17.1 60.8 18.7 60.2 19 59.1 19 59 19.5 59.2 22.5 60.3 25.6 61.3 28.9 62.1 32.3 62.9 33.4 63 35.8 63.3 39.3 63.6 42.9 63.8 46.4 63.7 48.6 63.6 49.8 63.5 53.2 63 56.4 62.3 58.3 61.8 59.5 61.4 62.4 60.3 65 59 67.4 57.4 69.5 55.6 70.3 54.9 71.3 53.7 72.8 51.7 74 49.6 74.3 48.8 74.8 47.4 75.2 45.1 75.3 42.9 75.1 40.7 74.7 39.2 74.6 38.5 74.6 38.5 74.2 37.7 73.9 37 73.9 36.9 73.6 36.3 73.5 36.1 73.1 35.4 72.7 34.7 72.4 34.3 72.3 34.1 71.9 33.6 71.6 33.2 71.3 32.9 71.2 32.8 70.9 32.3 70.1 31.5 70 31.5 69.8 31.3 69.4 30.9 70.9 29.8 70.8 28.9 70.5 27.9 70 26.9 69.4 25.8 68.7 24.8 67.9 23.8 67 22.8 66.1 22 64.4 23.4 65.3 24.2 66.2 25.1 67 26.1 67.7 27.2 68.3 28.2 68.8 29.3 69.1 30.2 69.1 30.6 69.1 30.5 67 28.9 64.6 27.4 62 26 60.4 25.4 59.2 24.8 56.2 23.8 55.5 23.7 55.8 23.9 57 25.4"/><polygon class="cls-6" points="15.3 103.7 15.4 103.8 15.9 104.5 15.9 104.6 15.9 104.5 16.1 104.4 16.4 104.1 16.9 103.8 17.4 103.5 18 103.1 18.6 102.7 19.3 102.2 20 101.8 20.7 101.4 21.3 101 21.8 100.7 22.3 100.4 22.6 100.3 22.8 100.2 22.9 100.1 25.7 104.6 26.1 104.3 26.4 104.2 26.5 104.2 28.1 106.7 28.6 106.6 30.2 106.6 31.8 106.9 31.9 106.9 33.5 98.4 30.5 98.1 28.9 97.9 20.1 94.5 20 94.4 20 94.9 20.1 95.2 20.1 95.3 20.2 95.9 20 95.6 20 95.6 19.9 95.6 19.6 95.7 19.3 95.8 18.8 96 18.2 96.3 17.6 96.7 16.9 97 16.2 97.4 15.5 97.8 14.8 98.2 14.2 98.6 13.7 98.9 13.2 99.2 12.9 99.4 12.8 99.6 12.7 99.7 13.7 101.2 15.1 103.4 15.2 103.4 15.3 103.7"/><path class="cls-5" d="M20.6,26.9v.2h0l-.3.5-.3.2-.2.3-.8,1.6.3-1.5H17.5l-.3-.2h0v.5l-.5,2.7L15.8,36,15,40.6l-.6,4-.3,1.8-.7,3.8v.4l-.8.3,1.9,1,1.5-.6-.7-.3.8-4.3v-.3L17,41l.4-2.3.2,1.5.2.9.5,2.3.7,2.1.4.7.6,1L22,50l3.2,2.4,4.1,1.8,4.9,1.2,1.8.2,3.3.3,2.4-.2,2.7-.2h.1l4.7-1.1h.4l3.7-1.7,2.9-2.1.3-.2v-.2l2-2.7h0l1.1-1.9.7-2.1.2-1.2.4-1.7v-.3l.2-1.8-.8,4L59,44.8l-.2-.2V41.7h0V38.1l.2-1.2.2-1.1.3-.8h0l.2-.9.2-.7.3-.5h.6v.5l.2.7-.4-1.7-.3-1.4-.2-.7-1-2-2-2.8-1.2-1.5-.3-.2-2.7-2.1-.6-.4,2.9,2.2,1.8,2.5.7,2.8-.7,2.7-1.8,2.5-2.9,2.2-3.7,1.7-4.4,1-4.8.4-4.7-.4-4.4-1-3.8-1.7-2.8-2.2-1.9-2.5-.6-2.7.6-2.8,1.9-2.5,2.8-2.2-.5.4-3,2.3-1.2,1.5-.2.3-.7.9Zm28.2,18,.7.8.5.8h0v1.8l-.2.6v.3l-.6.9-.8.8-3.4.3-5.7-.2-1.8-.4-.2-.2-.3-.7-.3-.9V48h0l.3-1,.6-.9.7-.5.2-.2.7-.5.3-.2,1-.6,1.2-.5,1.4-.2h2.6l1.1.3,1.1.5h.2Z"/><polygon class="cls-5" points="63.3 21.8 62.7 22.3 64.4 23.4 66.1 22 65.3 21.5 61.2 4.1 61.2 4.1 60.6 4.4 60.2 4.5 60 4.6 59.4 4.5 59.3 4.5 63.1 20.6 63.2 21.1 63.3 21.8"/><polygon class="cls-7" points="60 4.6 60.2 4.5 60.6 4.4 61.2 4.1 61.2 4.1 61.3 3.9 61.8 3.5 61.9 3.1 62.1 2.5 62.1 2.1 61.9 1.5 61.7 1.1 61.4 0.8 61 0.4 60.7 0.2 60.2 0 59.6 0 59 0.1 58.4 0.4 58.3 0.6 58.1 0.8 57.8 1.1 57.7 1.5 57.7 1.7 57.5 2.1 57.5 2.5 57.7 3.1 57.9 3.5 58.2 3.8 58.3 3.9 58.6 4.2 59.2 4.4 59.3 4.5 59.4 4.5 60 4.6"/><polygon class="cls-6" points="71.6 33.2 71.9 33.6 72.3 34.1 72.4 34.3 72.7 34.7 73.1 35.4 73.5 36.1 73.6 36.3 73.9 36.9 73.9 37 74.2 37.7 74.6 38.5 74.6 38.5 74.7 39.2 75.1 40.7 75.3 42.9 75.2 45.1 74.8 47.4 74.3 48.8 74 49.6 72.8 51.7 71.3 53.7 70.3 54.9 69.5 55.6 67.4 57.4 65 59 62.4 60.3 59.5 61.4 58.3 61.8 56.4 62.3 53.2 63 49.8 63.5 48.6 63.6 46.4 63.7 42.9 63.8 39.3 63.6 35.8 63.3 33.4 63 32.3 62.9 28.9 62.1 25.6 61.3 22.5 60.3 19.5 59.2 19 59 19 59.1 18.7 60.2 18.2 61.2 17.9 61.6 19.1 62.1 22.1 63.2 25.4 64.2 28.7 65.1 32.2 65.8 33.3 66 35.7 66.3 39.3 66.6 42.9 66.8 46.5 66.7 48.7 66.6 50.1 66.5 53.5 66 56.8 65.3 58.1 65 58.6 64.8 59.9 64.3 62.8 63.1 65.5 61.7 68 60.1 70.1 58.4 70.9 57.7 71.2 57.4 72 56.5 73.5 54.4 74.7 52.3 75 51.5 75.5 50 75.9 47.7 76.1 45.4 75.8 43.2 75.4 41.7 75.3 41.1 75.1 40.5 75.1 40.4 75 39.9 74.8 39.3 74.8 39.2 75.2 38.6 75.5 37.8 75.7 37 75.8 36.2 75.8 35.5 75.7 34.7 75.5 34.1 75.2 33.5 74.7 33.1 74.6 33 74.3 32.8 73.8 32.7 72 32.7 71.2 32.8 71.3 32.9 71.6 33.2"/><polygon class="cls-8" points="18.8 114.4 18.8 114.2 19.1 113.7 19.6 112.8 19.9 112.4 18.8 110.7 18.1 109.6 18.1 109.6 18.1 109.5 18.1 109.5 18.3 109.3 18.4 109.3 18.7 109 18.7 109 18.2 108.1 17.8 107.5 17.6 107.3 17.5 107.9 17.9 111.7 18.6 115 18.6 115 18.8 114.4"/><polygon class="cls-9" points="18.2 108.1 18.7 109 18.8 109 19 108.8 19.2 108.7 19.3 108.6 19.7 108.3 19.8 108.2 20.2 108 20.5 107.8 20.8 107.6 21.3 107.2 21.5 107.2 22.1 106.7 22.1 106.7 22.1 106.7 22.8 106.3 23 106.2 23.5 105.9 23.8 105.7 24.1 105.5 24.5 105.3 24.7 105.2 25.1 104.9 25.2 104.9 25.4 104.7 25.7 104.6 25.7 104.6 25.7 104.6 22.9 100.1 22.8 100.2 22.6 100.3 22.3 100.4 21.8 100.7 21.3 101 20.7 101.4 20 101.8 19.3 102.2 18.6 102.7 18 103.1 17.4 103.5 16.9 103.8 16.4 104.1 16.1 104.4 15.9 104.5 15.9 104.6 15.9 104.5 15.4 103.8 15.3 103.7 15.2 103.4 15.1 103.8 15.3 104.2 15.9 104.6 16 104.7 16 104.7 17.6 107.3 17.8 107.5 18.2 108.1"/><polygon class="cls-7" points="15.1 103.4 15.1 103.5 15.1 103.6 15.1 103.8 15.2 103.4 15.1 103.4"/><polygon class="cls-3" points="20.7 26.5 20.7 26.7 20.6 26.9 20.6 26.9 20.8 26.6 21.5 25.7 20.8 26 20.8 26.4 20.7 26.5"/><polygon class="cls-3" points="61.9 22 62.7 22.3 63.3 21.8 63.2 21.1 63.1 20.6 63 20.6 62.4 20.8 60.7 22.1 61.3 22 61.9 22"/><path class="cls-7" d="M75.4,41.4v.3l.4,1.5.3,2.2-.2,2.3L75.5,50,75,51.5l-.3.8-1.2,2.1L72,56.5l-.8.9-.3.3-.8.7L68,60.1l-2.5,1.6-2.7,1.4-2.9,1.2-1.3.5-.5.2-1.3.3-3.3.7-3.4.5H42.9l-3.6-.2-3.6-.3L33.3,66l-1.1-.2-3.5-.7-3.3-.9-3.3-1-3-1.1-1.2-.5-.3.4-.7.6h-.5l-.4.2h-.1l-1.5.6.9-.4.8-.6.6-.7.4-1,.3-1.1V57.3L17.2,56l-.5-1.2-.6-1.1-.8-1-.8-.8-1.9-1-1-.2h-1l-.8.4-.8.5-.5.7H8.4l-.5,1-.2,1.1V55l-.4-.4L5.6,52.8,4.3,51l-.9-1.8-.2-.5-.4-1.4-.2-1.9V43.6l.5-1.9L1.6,47.3l-.5,2.1L.2,59.2,0,61.4l.2,2.2,1.3,6.9L2,72.6h.1l.4-.6.5-.7.2-.2V71l.3-.2L3,70.1l.6.7,1-1h.2l1.3-.8v-.8l.2-1.2v-.3l.4-1,.2-.3.3-.5h0l.2-.3.3-.2.5-.4.3-.2h.3l.8-.4h1l1,.2,1.1.5h0l1.1.7,1,1,.4.6.5.5.8,1.3.6,1.4v.3l.4,1.1.3,1.2v1.5l-.2,1.2h-.1l-.4,1.1-.6.8-.9.7h-.2l-.8.3H13.1L12,77.6l-.5-.2H11l-.2-.2-1-.6h0l-.4.3H9.3v.8l.2,1h0l.4,1,.5,1.1.8,1.5.7,1.2H12l.2.4.6.9.5.9,1.1,1.6.2.3.8,1.2.2.3h.3l.9.4.4.3,2.3,1,3.1,1,3.1.9,1.7.3,1.6.3,3.4.6,3.5.2,3.4.2h2.6l1-1.1.3-.3,1.2-1.1,1.2-1.2.9-.7.3-.4.9-1.2,1.9-1.8,1-.6.9-.7,1.8-.7h1.6l1.4.6,1.1,1.1h0l.5,1.1.2.6v2L58,91.3l1.2-.4,2.3-1,.4-.3.9-.4,1.8-.8.9-.6,1.4-1,.9-.7,1.3-.9.6-.7.8-1.6.7-1.3L72,80l.5-1,.6-1.8h0l.9-2.4.9-1.9.4-.5.3-.8.6-.6h.4v1.5l.5-1.9,1.3-6.9.2-2.2-.2-2.2-.9-9.8L77,47.3l-1.5-5.6h0v-.3ZM9.4,55.5v-.7l.3-.7.5-.5.4-.3.6-.3h1.3l.6.2.6.4.6.5.4.7.4.7.3.8.2.8v1.6l-.2.7-.3.6-.4.6-.5.3-.5.2H12.5l-.6-.2-.6-.4-.6-.6-.5-.6-.4-.7-.3-.8V55.5Z"/><polygon class="cls-7" points="64.6 27.4 67 28.9 69.1 30.5 69.1 30.6 69.1 30.2 68.8 29.3 68.3 28.2 67.7 27.2 67 26.1 66.2 25.1 65.3 24.2 64.4 23.4 62.7 22.3 61.9 22 61.3 22 60.7 22.1 60.3 22.5 60.1 23 60.1 23.7 60.2 24.6 60.4 25.4 62 26 64.6 27.4"/><polygon class="cls-6" points="53.8 96.3 53.6 96.4 53.8 96.6 53.8 96.3"/><polygon class="cls-10" points="53.8 96.6 56 99.5 56.2 99.6 56.3 99.8 57.2 95 53.8 96.3 53.8 96.6"/><polygon class="cls-9" points="56 99.5 58.9 103.9 61.2 108.7 62.9 113.6 62.8 113.3 61.1 108.5 58.9 103.9 56.3 99.8 56.2 99.6 56 99.5"/><polygon class="cls-5" points="76.7 71.6 76.6 70.9 76.4 71 76.2 71 75.6 71.6 75.3 72.4 74.9 72.9 74 74.8 73.1 77.2 73.1 77.2 72.5 79 72 80 71.2 81.6 70.5 82.9 69.7 84.5 70.7 83.4 72.4 81.7 73.4 79.7 73.4 79.7 73.4 79.6 73.3 79.6 73.1 79.5 73 79.4 73 79.1 73.1 78.8 73.3 78.3 73.4 78 73.5 77.8 73.6 77.2 73.9 76.5 74.1 75.8 74.4 75.2 74.8 74.6 74.9 74.4 75.1 74 75.3 73.5 75.6 73.2 75.8 72.9 76 72.8 76.1 72.8 76.1 72.8 76.5 73 76.6 72.6 76.7 72.4 76.7 72.2 76.7 71.6"/><polygon class="cls-9" points="75.5 80.5 75.4 80.1 75.3 79.5 73.3 78.3 73.1 78.8 73 79.1 73 79.4 73.1 79.5 73.3 79.6 73.4 79.6 73.4 79.7 76.1 81.2 75.7 80.9 75.5 80.5"/><polygon class="cls-4" points="30.3 120.4 29.9 120.3 29.3 120.2 28.3 119.8 27.4 119.3 26.6 118.6 25.9 117.7 25.5 116.8 25.2 115.8 25.1 114.9 25.1 114.7 25.1 113.7 25.4 112.8 25.4 112.8 25.8 112 25.9 111.9 26.5 111.2 26.6 111.1 27.3 110.5 28.2 110.1 29.2 109.9 30.2 109.8 31.2 110 32.2 110.4 33.1 110.9 33.9 111.7 34.5 112.5 35 113.4 35.3 114.4 35.4 115.5 38.7 115.7 38.5 114 38 112.4 37.2 110.9 36.2 109.5 34.9 108.4 34.8 108.3 33.4 107.5 31.9 106.9 31.8 106.9 30.2 106.6 28.6 106.6 28.1 106.7 28 106.8 27.7 106.8 27.2 107 27 107 26.6 107.2 25.9 107.5 25.5 107.7 25.2 108 24.4 108.5 24.3 108.7 23.2 109.9 22.5 111.3 22 112.9 21.8 114.5 22 116.2 22.5 117.8 23.3 119.4 24.3 120.7 25.6 121.9 27.1 122.8 28.7 123.4 30.3 123.6 30.3 123.2 30.3 120.4"/><polygon class="cls-10" points="31.9 106.9 33.4 107.5 34.8 108.3 35.8 103.1 35.9 102.1 36.2 100.8 36.4 99.9 36.4 99.5 36.6 98.8 33.5 98.4 31.9 106.9"/><polygon class="cls-6" points="33.4 120.7 33.4 120.4 33.4 120 33.4 119.4 33.4 118.8 33.4 118.5 31.8 118.4 31.7 117.4 31.5 116.7 29.9 117.7 30.4 114.7 30.3 114.6 29.5 113.9 28.6 113.3 27.6 112.9 26.6 112.8 25.6 112.8 25.4 112.8 25.1 113.7 25.1 114.7 25.1 114.9 25.2 115.8 25.5 116.8 25.9 117.7 26.6 118.6 27.4 119.3 28.3 119.8 29.3 120.2 29.9 120.3 30.3 120.4 30.3 123.2 33.4 121.5 33.4 121 33.4 120.9 33.4 120.7"/><polygon class="cls-11" points="39 121.3 38.9 122.5 38.5 123.6 38 124.5 37.2 125.1 36.7 125.5 35.7 125.8 34.7 125.8 33.6 125.6 32.4 125 31.3 124.3 29.4 125.4 29.4 125.5 31.2 127.1 32.9 128.3 34.7 129.1 36.5 129.5 38 129.5 39.4 128.9 40.6 128 41.4 126.7 41.9 125 42.1 123 41.9 120.8 41.6 119.5 41.1 119.2 39 121.3"/><polygon class="cls-10" points="32.4 123.7 32.8 123.3 33.1 122.8 33.2 122.6 33.3 122.2 33.4 121.5 30.3 123.2 30.3 123.6 29.8 124 29.8 124.2 29.6 124.9 29.3 125.4 28.8 125.7 29.4 125.4 31.3 124.3 32.4 123.7"/><polygon class="cls-5" points="23.8 125.8 24.5 126.1 25 126.3 26.7 126.6 27.5 125.9 29.8 124 30.3 123.6 28.7 123.4 27.1 122.8 25.6 121.9 24.3 120.7 23.3 119.4 22.5 117.8 22 116.2 21.8 114.5 22 112.9 22.5 111.3 23.2 109.9 24.3 108.7 24.4 108.5 25.2 108 25.5 107.7 25.9 107.5 26.6 107.2 27 107 27.2 107 27.7 106.8 28 106.8 28.1 106.7 26.5 104.2 26.4 104.2 26.1 104.3 25.7 104.6 25.7 104.6 25.7 104.6 25.4 104.7 25.2 104.9 25.1 104.9 24.7 105.2 24.5 105.3 24.1 105.5 23.8 105.7 23.5 105.9 23 106.2 22.8 106.3 22.1 106.7 22.1 106.7 22.1 106.7 21.5 107.2 21.3 107.2 20.8 107.6 20.5 107.8 20.2 108 19.8 108.2 19.7 108.3 19.3 108.6 19.2 108.7 19 108.8 18.8 109 18.7 109 18.7 109 18.4 109.3 18.3 109.3 18.1 109.5 20.4 113 20.4 113 18.1 109.5 18.1 109.5 18.1 109.6 18.1 109.6 18.8 110.7 19.9 112.4 19.6 112.8 19.1 113.7 18.8 114.2 18.8 114.4 18.6 115 18.6 115 18.4 115.8 18.2 117.4 18.4 119.1 18.9 120.7 19.7 122.3 20.7 123.6 22 124.8 23.4 125.7 23.5 125.7 23.8 125.8"/><polygon class="cls-7" points="19.9 95.4 20 95.6 20.2 95.9 20.1 95.3 20.1 95.2 20 94.9 19.7 95.2 19.9 95.4"/><polygon class="cls-6" points="32.8 123.3 32.4 123.7 31.3 124.3 32.4 125 33.6 125.6 34.7 125.8 35.7 125.8 36.7 125.5 37.4 124.8 38 123.9 38.3 122.8 38.4 121.9 38 122.3 37.1 122.7 36.2 123 35.3 123.1 34.2 122.9 33.2 122.6 33.1 122.8 32.8 123.3"/><polygon class="cls-12" points="33.4 118.5 33.4 118.8 33.4 119.4 33.4 120 34.2 119.5 34.1 119 34 118.6 33.9 118.5 33.4 118.5"/><polygon class="cls-10" points="33.4 120.4 33.4 120.7 33.4 120.9 33.4 121 33.6 120.9 33.8 120.7 34 120.4 34.1 120 34.2 119.5 33.4 120 33.4 120.4"/><polygon class="cls-9" points="36.2 100.8 35.9 102.1 35.8 103.1 34.8 108.3 34.9 108.4 36.2 109.5 37.2 110.9 38 112.4 38.5 114 38.7 115.7 35 118.6 34 118.6 34.1 119 34.2 119.5 34.1 120 34 120.4 33.8 120.7 33.6 120.9 33.4 121 33.4 121.5 33.3 122.2 33.2 122.6 34.2 122.9 35.3 123.1 36.2 123 37.1 122.7 38 122.3 38.4 121.9 39 121.3 41.1 119.2 41.6 119.5 46.9 122.6 47.4 122.9 47.7 123.1 48.3 123.4 48.4 123.4 48.7 123.6 49.6 123.9 49.7 124 50.8 124.4 50.8 124.4 50.1 121 48.4 116.1 46 111.3 43.2 106.9 40 102.9 36.6 99.6 36.4 99.5 36.4 99.9 36.2 100.8"/><polygon class="cls-9" points="1.6 78.2 2.1 78 2.7 77.8 3.4 77.7 3.7 77.6 4.2 77.6 5 77.5 5.9 77.6 6.7 77.6 7.5 77.7 8.2 77.8 8.7 78 9.2 78.2 9.4 78.4 9.5 78.6 9.5 78.6 9.3 77.6 9.3 77.6 9.2 76.7 9.2 77.2 9.3 77 9.3 76.8 9.4 76.7 9.8 76.4 9.8 76.4 10.8 77 11.8 77.5 12 77.6 13.1 77.8 13.4 77.9 14.4 77.8 14.4 77.8 14.8 77.7 15.6 77.4 15.8 77.3 16.7 76.6 17.3 75.8 17.7 74.7 17.8 74.7 18 73.5 17.6 73.7 17.2 73.8 16.7 73.9 16.3 73.9 15.8 73.8 15.3 73.7 14.9 73.5 14.4 73.2 14.1 73.4 13.9 74.2 13.7 74.9 13.3 75.5 12.8 75.9 12.2 76.1 11.5 76.1 10.8 76 10.6 75.9 10.4 76 10.3 76 10 76.2 9.9 76.3 10 76 10.1 76 10.1 75.7 10.1 75.2 9.9 74.7 9.8 74.5 9.6 74.2 9.2 73.7 8.7 73.1 8.2 72.5 7.5 72 6.9 71.6 6.2 71.2 5.5 70.9 4.9 70.7 4.3 70.6 4.2 70.6 3.9 70.6 3.6 70.8 3.6 70.8 3.3 71 3.2 71.2 3 71.4 2.5 72.1 2.1 72.7 2 72.8 1.8 73.3 1.2 74.8 1.1 75.4 0.9 77 1.1 78.6 1.1 78.6 1.2 78.4 1.6 78.2"/><polygon class="cls-9" points="7.6 92 7.6 92 7.8 91.8 8.1 91.6 8.6 91.3 9.1 91 9.8 90.7 10.5 90.4 11.2 90 12 89.7 12.7 89.4 13.4 89.2 14.1 89 14.6 88.8 15 88.7 15.3 88.7 15.4 88.8 14.6 87.6 14.4 87.3 13.3 85.7 12.8 84.8 12.2 83.9 12 83.5 11.9 83.4 11.7 83.3 11.4 83.2 10.9 83.2 10.3 83.3 9.6 83.4 8.9 83.5 8.1 83.7 7.3 83.9 6.5 84.1 5.7 84.4 5 84.6 4.5 84.9 4.1 85.1 4.1 85.2 4 85.1 3.7 85.3 3.6 85.5 3.6 85.7 4.1 86.5 5.2 88.3 6.4 90.2 7.6 92.1 7.6 92 7.6 92"/><polygon class="cls-9" points="12.9 99.4 13.2 99.2 13.7 98.9 14.2 98.6 14.8 98.2 15.5 97.8 16.2 97.4 16.9 97 17.6 96.7 18.2 96.3 18.8 96 19.3 95.8 19.6 95.7 19.9 95.6 20 95.6 19.9 95.4 19.7 95.2 19 94.2 18.5 93.4 20 94.4 20.1 94.5 28.9 97.9 30.5 98.1 31.6 97.9 34.5 97.5 35.4 96.3 36.3 95.3 27.3 94.2 17.1 90.3 15.9 89.2 15.6 89.1 16 89.7 17.4 91.8 17.4 91.8 17.3 91.8 17.1 91.8 16.7 92 16.2 92.2 15.6 92.4 14.9 92.7 14.2 93 14 93.2 13.5 93.4 12.8 93.8 12.1 94.2 11.5 94.5 10.9 94.8 10.5 95.1 10.2 95.3 10 95.5 10 95.6 10.6 96.5 12.1 98.8 12.7 99.7 12.8 99.6 12.9 99.4"/><polygon class="cls-6" points="10.2 95.3 10.5 95.1 10.9 94.8 11.5 94.5 12.1 94.2 12.8 93.8 13.5 93.4 14 93.2 14.2 93 14.9 92.7 15.6 92.4 16.2 92.2 16.7 92 17.1 91.8 17.3 91.8 17.4 91.8 17.4 91.8 16 89.7 15.6 89.1 15.4 88.8 15.3 88.7 15 88.7 14.6 88.8 14.1 89 13.4 89.2 12.7 89.4 12 89.7 11.2 90 10.5 90.4 9.8 90.7 9.1 91 8.6 91.3 8.1 91.6 7.8 91.8 7.6 92 7.6 92 7.6 92.1 7.7 92.2 9.1 94.3 10 95.6 10 95.5 10.2 95.3"/><polygon class="cls-6" points="3.7 85.3 4 85.1 4.1 85.2 4.1 85.1 4.5 84.9 5 84.6 5.7 84.4 6.5 84.1 7.3 83.9 8.1 83.7 8.9 83.5 9.6 83.4 10.3 83.3 10.9 83.2 11.4 83.2 11.7 83.3 11.9 83.4 11.2 82.2 10.4 80.7 9.9 79.6 9.5 78.6 9.4 78.4 9.2 78.2 8.7 78 8.2 77.8 7.5 77.7 6.7 77.6 5.9 77.6 5 77.5 4.2 77.6 3.7 77.6 3.4 77.7 2.7 77.8 2.1 78 1.6 78.2 1.2 78.4 1.1 78.6 1.1 78.6 1.1 78.6 1.1 79.2 1.5 80.8 2.1 82.5 2.3 83 3.1 84.7 3.6 85.7 3.6 85.5 3.7 85.3"/><polygon class="cls-7" points="13.9 71.6 13.6 70.7 13.2 69.7 12.7 68.9 12.1 68.1 11.4 67.5 10.7 67 10 66.7 9.3 66.5 8.7 66.6 8.1 66.8 7.6 67.2 7.2 67.7 6.9 68.4 8.6 67.7 8.7 67.7 9.3 67.6 9.8 67.6 10.4 67.8 11 68.2 11.6 68.7 12.1 69.3 12.6 69.9 13 70.7 13.2 71.4 13.4 72.2 13.5 72.9 13.4 73.6 13.2 74.2 12.9 74.7 12.5 75.1 12.1 75.3 11.4 75.5 10.6 75.9 10.8 76 11.5 76.1 12.2 76.1 12.8 75.9 13.3 75.5 13.7 74.9 13.9 74.2 14.1 73.4 14 72.5 13.9 71.6"/><polygon class="cls-6" points="4.2 70.6 4.3 70.6 4.9 70.7 5.5 70.9 6.2 71.2 6.9 71.6 7.5 72 8.2 72.5 8.7 73.1 9.2 73.7 9.6 74.2 9.8 74.5 9.9 74.7 10.1 75.2 10.1 75.7 10.1 76 10 76 9.9 76.3 10 76.2 10.3 76 10.4 76 10.6 75.9 11.4 75.5 12.1 75.3 12.5 75.1 12.9 74.7 13.2 74.2 13.4 73.6 13.5 72.9 13.4 72.2 13.2 71.4 13 70.7 12.6 69.9 12.1 69.3 11.6 68.7 11 68.2 10.4 67.8 9.8 67.6 9.3 67.6 8.7 67.7 8.6 67.7 6.9 68.4 6.7 68.5 6.7 68.6 6.5 68.6 6.4 68.7 6.3 68.8 6.2 68.8 6.1 68.9 4.8 69.7 4.6 69.8 3.6 70.8 3.9 70.6 4.2 70.6"/><polygon class="cls-3" points="19.7 28.2 19.9 27.9 19.8 28 19.5 28.2 19.2 28.3 18.9 29.8 19.7 28.2"/><polygon class="cls-9" points="6.3 68.8 6.4 68.7 6.5 68.6 6.4 68.6 6.2 68.3 6.1 68 6.1 68.9 6.2 68.8 6.3 68.8"/><polygon class="cls-3" points="6.4 68.6 6.5 68.6 6.7 68.6 6.7 68.5 6.9 68.4 7.2 67.7 7.6 67.2 8.1 66.8 8.7 66.6 9.3 66.5 10 66.7 10.7 67 11.4 67.5 12.1 68.1 12.7 68.9 13.2 69.7 13.6 70.7 13.9 71.6 14 72.5 14.1 73.4 14.4 73.2 14.9 73.5 15.3 73.7 15.8 73.8 16.3 73.9 16.7 73.9 17.2 73.8 17.6 73.7 18 73.5 17.9 72.2 17.9 72 17.6 70.8 17.2 69.7 17.2 69.4 16.6 68 15.8 66.7 15.3 66.2 14.9 65.6 13.9 64.6 12.8 63.9 12.8 63.9 11.7 63.4 10.7 63.2 10.1 63.2 9.7 63.2 8.9 63.6 8.6 63.7 8.3 63.9 7.8 64.3 7.5 64.5 7.3 64.8 7.3 64.8 7.3 64.8 7 65.3 6.8 65.6 6.4 66.6 6.3 66.9 6.1 68 6.2 68.3 6.4 68.6"/><polygon class="cls-7" points="58.9 103.9 56 99.5 53.8 96.6 53.6 96.4 53.3 96.5 52.7 96.8 52.4 96.9 51.9 97.1 49.8 97.9 47.1 98.2 40.6 98.9 39.4 99.1 39.3 99.1 37.5 98.9 37.2 98.8 36.6 98.8 36.4 99.5 36.6 99.6 40 102.9 43.2 106.9 46 111.3 48.4 116.1 50.1 121 50.8 124.4 51.8 124.8 51.8 124.8 52.1 124.9 52.6 124.9 53.3 125.1 53.4 125.1 53.7 125.1 53.9 125.1 54.2 125.1 54.2 125.1 55.2 124.9 55.4 124.8 56.3 124.5 57 124.3 57.4 124.1 58.5 123.5 59.2 123.1 59.9 122.6 60 122.5 60.5 122.1 60.9 121.8 61 121.8 61.5 121.3 62.6 120.2 62.9 119.9 63 119.8 63.3 119.3 63.6 118.2 63.6 118 63.6 117 62.9 113.6 61.2 108.7 58.9 103.9"/><polygon class="cls-8" points="60.5 122.1 60 122.5 59.9 122.6 59.7 125.4 58.7 128.5 57.1 131 57.8 130.5 59.3 128 59.7 127.3 60.7 124.3 60.8 123.6 61 121.8 60.9 121.8 60.5 122.1"/><polygon class="cls-8" points="51.4 132.7 52.4 129.6 52.7 126 52.6 124.9 52.1 124.9 51.8 124.8 51.8 124.8 50.8 124.4 50.8 124.4 49.7 124 49.6 123.9 48.7 123.6 48.4 123.4 48.3 123.4 47.7 123.1 47.4 122.9 46.9 122.6 41.6 119.5 41.9 120.8 42.1 123 41.9 125 41.4 126.7 40.6 128 39.4 128.9 38 129.5 36.5 129.5 34.7 129.1 32.9 128.3 31.2 127.1 29.4 125.5 29.4 125.4 28.8 125.7 28.3 125.9 27.7 125.9 27.5 125.9 26.7 126.6 25 126.3 24.5 126.1 23.8 125.8 23.5 125.7 23.4 125.7 24.6 127.5 27.3 130.7 27.5 131 30.6 133.8 33.7 136 36.9 137.4 37.6 137.6 40.7 138.3 41.4 138.3 43.6 138.2 44.4 138.2 46.9 137.3 47.7 137 49.8 135.2 51.4 132.7"/><polygon class="cls-11" points="52.2 132.3 53.1 129.1 53.5 125.5 53.4 125.1 53.3 125.1 52.6 124.9 52.7 126 52.4 129.6 51.4 132.7 49.8 135.2 47.7 137 48.5 136.5 50.6 134.8 52.2 132.3"/><polygon class="cls-11" points="59.7 125.4 59.9 122.6 59.2 123.1 59 125.8 58 128.9 56.4 131.4 54.3 133.1 55 132.7 57.1 131 58.7 128.5 59.7 125.4"/><polygon class="cls-11" points="56.2 130 57.1 126.8 57.4 124.1 57 124.3 56.3 124.5 55.4 124.8 55.2 124.9 54.9 128.1 53.9 131.3 52.3 133.8 50.2 135.5 51.4 134.8 52.5 134.2 54.6 132.4 56.2 130"/><polygon class="cls-8" points="58 128.9 59 125.8 59.2 123.1 58.5 123.5 57.4 124.1 57.1 126.8 56.2 130 54.6 132.4 52.5 134.2 54.3 133.1 56.4 131.4 58 128.9"/><polygon class="cls-8" points="53.9 131.3 54.9 128.1 55.2 124.9 54.2 125.1 54.2 125.1 53.9 125.1 53.7 125.1 53.4 125.1 53.5 125.5 53.1 129.1 52.2 132.3 50.6 134.8 48.5 136.5 50.2 135.5 52.3 133.8 53.9 131.3"/><polygon class="cls-10" points="38 123.9 37.4 124.8 36.7 125.5 37.2 125.1 38 124.5 38.5 123.6 38.9 122.5 39 121.3 38.4 121.9 38.3 122.8 38 123.9"/><polygon class="cls-6" points="29.6 124.9 29.8 124.2 29.8 124 27.5 125.9 27.7 125.9 28.3 125.9 28.8 125.7 29.3 125.4 29.6 124.9"/><polygon class="cls-10" points="31.5 116.7 31.4 116.4 30.9 115.4 30.4 114.7 29.9 117.7 31.5 116.7"/><polygon class="cls-9" points="18.7 60.2 17.1 60.8 16.7 61.8 16.1 62.5 15.3 63.1 14.4 63.5 15.9 62.9 16 62.9 16.4 62.7 16.9 62.6 17.6 62 17.9 61.6 18.2 61.2 18.7 60.2"/><polygon class="cls-3" points="3.3 42.9 3.6 44.7 4 46.1 4.1 46.6 5 48.3 6.3 50.1 7.8 51.8 8.5 52.4 9 51.7 9.8 51.2 10.6 50.8 11.6 50.7 12.6 50.9 13.4 50.6 13.4 50.2 14.1 46.4 14.4 44.6 15 40.6 15.8 36 16.6 31.1 17.1 28.4 17.2 27.9 16.8 27.7 16.8 27.6 16.3 27.8 13.6 29.3 11.3 30.7 9.1 32.3 8.4 33.1 7.4 34 5.9 35.7 4.7 37.5 4.4 38.1 3.9 39.2 3.5 41 3.3 42.9"/><polygon class="cls-7" points="17.2 27.9 17.2 28 17.5 28.2 17.9 28.3 18.3 28.4 18.3 28.4 18.7 28.4 19.1 28.3 19.2 28.3 19.5 28.2 19.8 28 19.9 27.9 19.9 27.9 20.2 27.7 20.5 27.2 20.5 27.1 20.6 26.9 20.6 26.9 20.7 26.7 20.7 26.5 20.8 26.4 20.8 26 20.8 25.8 20.6 25.3 20.5 25 20.2 24.6 19.8 24.3 19.6 24.1 19.2 23.9 18.7 23.8 18.3 23.8 18 23.9 17.6 24 17.2 24.2 16.8 24.6 16.5 25 16.4 25.3 16.4 25.3 16.4 25.5 16.3 25.9 16.2 26.4 16.4 26.9 16.6 27.3 16.8 27.6 16.8 27.7 17.2 27.9"/><polygon class="cls-7" points="21.7 25.9 21.1 28.7 21.7 31.4 23.6 33.9 26.4 36.1 30.2 37.8 34.6 38.8 39.3 39.2 44.1 38.8 48.5 37.8 52.2 36.1 55.1 33.9 57 31.4 57.6 28.7 57 25.9 55.1 23.4 52.2 21.2 51.6 20.8 48 19.2 47.3 19 50.7 20.5 53.2 22.4 54.8 24.6 55.3 27 54.8 29.4 53.2 31.6 50.7 33.5 47.3 35 43.5 35.9 39.3 36.2 35.2 35.9 31.3 35 28 33.5 25.5 31.6 23.9 29.4 23.4 27 23.9 24.6 25.5 22.4 28 20.5 31.3 19 30.7 19.2 27.1 20.8 26.4 21.2 23.6 23.4 21.7 25.9"/><polygon class="cls-13" points="61.4 37.3 60.8 40.6 60.6 41.3 59.4 43.4 59.3 43.4 59.3 43.1 59.2 43 59.1 42.5 59 41.8 59 41.1 59 40.9 59 40.2 59.1 39.3 59.2 38.4 59.4 37.5 59.5 37.2 59.6 36.7 59.8 36.2 59.8 36 59.9 35.3 60.1 34.8 60.3 34.4 60.5 34.4 60.5 34.3 60.7 34.3 60.9 34.5 61 34.6 61.1 34.9 61.2 35.3 60.9 34 60.9 34 60.7 33.3 60.6 32.8 60.5 32.7 60.5 32.6 60.4 32.7 60.3 32.7 60 32.8 59.7 33.3 59.5 34 59.3 34.9 59.3 35 59 35.8 58.8 36.9 58.6 38.1 58.6 38.4 58.5 39.3 58.4 40.5 58.5 41.6 58.5 41.7 58.5 42.6 58.6 43.5 58.7 43.9 58.7 44.1 58.8 44.6 59 44.8 60.5 42.4 61.3 38.4 61.4 37.9 61.4 37.3"/><polygon class="cls-3" points="25.5 22.4 23.9 24.6 23.4 27 23.9 29.4 25.5 31.6 28 33.5 31.3 35 35.2 35.9 39.3 36.2 43.5 35.9 47.3 35 50.7 33.5 53.2 31.6 54.8 29.4 55.3 27 54.8 24.6 53.2 22.4 50.7 20.5 47.3 19 47 18.9 43.3 18 39.3 17.7 35.4 18 31.7 18.9 31.3 19 28 20.5 25.5 22.4"/><path class="cls-13" d="M46.9,43.8l-1.1-.3H43.2l-1.4.2-1.2.5-1,.6-.3.2-.7.5-.2.2-.7.5-.6.9-.3,1h0v.9l.3.9.3.7.2.2,1.8.4,5.7.2,3.4-.3.8-.8.6-.9V49l.2-.6V46.6h0l-.5-.8-.7-.8-.6-.5H48ZM46.5,45l.7.4.6.4.6.6.3.5v1.6l-.2.7v.2l-.4.5H48l-3,.3h-.9L39.3,50H39l-.2-.7v-.9l.2-.6v-.2l.3-.5.5-.6.8-.6.3-.2.5-.3.9-.3h3.9Z"/><polygon class="cls-14" points="44.8 44.8 44.7 44.8 43.6 44.8 42.6 44.9 41.7 45.2 41.2 45.5 40.9 45.7 40.1 46.3 39.6 46.9 39.3 47.4 39.2 47.6 39 48.2 38.9 48.4 38.8 49.1 39 49.8 39.1 49.9 39.3 50 44.1 50.3 45 50.3 48 50 48.1 49.9 48.5 49.4 48.6 49.2 48.8 48.5 48.8 47.8 48.7 47.1 48.7 46.9 48.4 46.4 47.8 45.8 47.2 45.4 46.5 45 46.1 44.9 45.6 44.8 44.8 44.8"/><polygon class="cls-14" points="60.9 34.5 60.7 34.3 60.5 34.3 60.5 34.4 60.3 34.4 60.1 34.8 59.9 35.3 59.8 36 59.8 36.2 59.6 36.7 59.5 37.2 59.4 37.5 59.2 38.4 59.1 39.3 59 40.2 59 40.9 59 41.1 59 41.8 59.1 42.5 59.2 43 59.3 43.1 59.3 43.4 59.4 43.4 60.6 41.3 60.6 41.2 60.8 40.6 61.4 37.3 61.2 35.6 61 34.6 60.9 34.5"/><polygon class="cls-6" points="27.3 94.2 36.3 95.3 39.3 95.6 51.4 94.2 52.9 93.6 51.9 93 51.3 93.1 49.7 93.4 46.3 94 42.8 94.2 41.9 94.3 39.3 94.4 35.9 94.2 32.4 94 29 93.4 27.4 93.1 25.7 92.8 22.6 91.9 19.5 90.9 17.2 89.9 16.8 89.6 15.9 89.2 17.1 90.3 27.3 94.2"/><polygon class="cls-9" points="53.4 93.8 53.1 93.5 53 93 52.9 92.4 48.5 89.9 48.4 90.3 48.4 90.7 48.6 91.1 48.7 91.2 49 91.4 49.9 91.9 51.9 93 52.9 93.6 53.7 94.1 53.4 93.8"/><polygon class="cls-5" points="54.1 94.2 53.7 94.1 52.9 93.6 51.4 94.2 39.3 95.6 36.3 95.3 35.4 96.3 34.5 97.5 31.6 97.9 30.5 98.1 33.5 98.4 36.6 98.8 37.2 98.8 37.5 98.9 39.3 99.1 39.4 99.1 40.6 98.9 47.1 98.2 49.8 97.9 51.9 97.1 52.4 96.9 53 96.4 54.5 95.3 54.8 94.2 54.5 94.3 54.1 94.2"/><path class="cls-7" d="M57.7,91.3l.2-.6.2-.7V89h0l-.2-.5-.2-.4-.4-.2-.3-.2H56l-.5.2-.5.4-.5.4-.4.6-.4.6-.3.6-.3.7v2.3l.3.3.3.3H55l.5-.3.5-.3.5-.5.5-.5.3-.6h.1l.2-.5Zm-.4-1v.5l-.2.4-.2.5-.3.4-.3.3-.3.3-.4.3H54.3l-.3-.2V90.6l.3-.4.2-.4.3-.4.4-.3.3-.2.4-.2H57l.2.3v1.1Z"/><polygon class="cls-3" points="53 91.8 53.1 91.2 53.4 90.5 53.7 89.9 54.1 89.3 54.5 88.7 55 88.3 55.5 87.9 56 87.7 56.5 87.6 57 87.6 57.3 87.8 57.3 87.7 57.3 87.7 57.2 87.7 57.2 87.7 55.4 86.6 54.9 86.5 54.4 86.4 54.1 86.4 53.7 86.4 53 86.5 52.2 86.7 51.5 87 50.8 87.4 50.5 87.6 50.1 87.8 49.5 88.3 49.1 88.8 48.7 89.4 48.7 89.5 48.5 89.9 52.9 92.4 53 91.8"/><polygon class="cls-9" points="65.5 87.8 64.6 88.4 62.8 89.2 61.6 90.3 57.4 91.9 57.3 92 57 92.6 56.5 93.1 56 93.6 55.5 93.9 55 94.2 54.8 94.2 54.5 95.3 53 96.4 52.4 96.9 52.7 96.8 53.3 96.5 53.6 96.4 53.8 96.3 57.2 95 58.6 94.5 60.8 92.9 65 89.3 65.5 87.8 65.5 87.8"/><polygon class="cls-6" points="57.4 91.9 61.6 90.3 62.8 89.2 61.9 89.6 61.5 89.9 59.2 90.9 58 91.3 57.6 91.4 57.4 91.9"/><polygon class="cls-5" points="65.5 87.8 65.5 87.8 65 89.3 67.4 87.2 67.8 86.1 66.9 86.8 65.5 87.8"/><path class="cls-7" d="M78.9,74.7h-.5l-.5.2-.5.4-.5.4-.4.6-.4.6-.4.6-.2.6v2.3l.2.4.4.3h1.3l.5-.2.5-.4.5-.4.4-.5.4-.6.3-.7.3-.6V75.5l-.3-.4-.3-.3h-.8Zm.6,1.6v2l-.2.4-.3.4-.3.4-.4.3-.3.3H76.6l-.2-.2V77.7l.2-.4.3-.4.3-.4.3-.3.4-.2.3-.2h1l.2.2Z"/><polygon class="cls-9" points="69.8 31.3 70 31.5 70.1 31.5 70.2 31.4 70.6 31 70.9 30.5 70.9 29.8 69.4 30.9 69.8 31.3"/><polygon class="cls-5" points="90.5 86.6 90.2 85 90.1 83.2 90.3 81.5 90.7 79.9 91.4 78.4 92.3 77.1 93.4 76.1 94.6 75.3 95.8 74.9 97.2 74.8 96.9 74.8 96.5 71.6 96.4 71.8 96 71.9 95.5 72.1 94.8 72.2 94 72.4 93.1 72.5 92.2 72.7 91.2 72.8 90.2 72.9 89.3 72.9 88.5 72.9 87.8 73 87.2 72.9 86.9 72.9 86.7 72.8 86.9 75.1 86.7 75.2 85.5 75.9 84.4 77 83.5 78.3 82.8 79.7 82.4 81.4 82.2 83.1 82.3 84.8 82.6 86.5 83.2 88 84 89.4 91.8 89.6 91 88.2 90.5 86.6"/><polygon class="cls-9" points="87.5 72.7 87.7 72.7 88 72.8 88.4 72.8 89 72.8 89.7 72.8 90.5 72.7 91.2 72.7 92.1 72.6 92.8 72.5 93.6 72.3 94.3 72.2 94.8 72.1 95.3 72 95.6 71.8 95.7 71.7 95.7 71.4 95.1 66.5 95 66.6 94.7 66.7 94.2 66.8 93.7 66.9 93 67.1 92.2 67.2 91.5 67.3 90.6 67.4 89.8 67.5 89.1 67.5 88.4 67.5 87.8 67.5 87.4 67.5 87 67.4 86.9 67.4 87.4 72.3 87.5 72.6 87.5 72.7"/><polygon class="cls-6" points="81.3 47.7 81.8 47.8 82.3 47.8 82.9 47.8 83.6 47.6 84.4 47.4 85.2 47.2 85.9 46.9 86.6 46.5 87.3 46.1 87.8 45.7 88.3 45.3 88.6 45 88.7 44.6 88.7 44.3 88.3 43.4 86.9 41.4 85.5 39.5 83.9 37.7 83.5 37.4 83.7 37.7 83.7 37.9 83.7 38.2 83.6 38.7 83.4 39.3 83 39.9 82.5 40.5 82 41 81.3 41.5 80.6 41.9 79.9 42.3 79.2 42.5 79.1 42.5 78.5 42.7 77.9 42.7 77.3 42.7 77.2 42.6 76.8 42.5 76.5 42.3 77 42.7 78.1 43.6 79.1 44.8 80.2 46.1 80.1 46.1 81 47.5 81.2 47.6 81.3 47.7"/><polygon class="cls-6" points="85.6 57.7 86.1 57.7 86.7 57.7 87.4 57.6 87.8 57.6 88.1 57.5 88.9 57.4 89.7 57.2 90.5 57.1 91.2 56.9 91.9 56.6 92.4 56.4 92.4 56.4 92.6 56.4 92.8 56.2 93.1 56 93.2 55.8 92.5 53.3 92 51.7 91.9 51.9 91.6 52.2 91.2 52.5 90.7 52.7 90.1 53 89.4 53.2 88.6 53.5 87.8 53.7 87 53.9 86.3 54 85.6 54 85 54.1 84.5 54 84.2 53.9 84 53.8 84.6 55.8 85.1 57.5 85.3 57.6 85.6 57.7"/><polygon class="cls-9" points="86.6 62.2 87.1 62.2 87.7 62.2 88.3 62.1 89.1 62.1 89.9 62 90.7 61.8 91.5 61.7 92.2 61.5 92.9 61.4 93.4 61.2 93.8 61 94.1 60.8 94.3 60.7 94.2 60.6 94 59.1 93.3 56.2 93.2 55.8 93.1 56 92.8 56.2 92.6 56.4 92.4 56.4 92.4 56.4 91.9 56.6 91.2 56.9 90.5 57.1 89.7 57.2 88.9 57.4 88.1 57.5 87.8 57.6 87.4 57.6 86.7 57.7 86.1 57.7 85.6 57.7 85.3 57.6 85.1 57.5 85.3 58.2 85.9 60.8 86.1 61.9 86.1 62 86.3 62.1 86.6 62.2"/><polygon class="cls-6" points="2.6 45.4 2.8 47.3 3.2 48.7 3.4 49.2 4.3 51 5.6 52.8 7.2 54.6 7.6 55 7.7 54.6 7.9 53.5 8.4 52.5 8.5 52.4 7.8 51.8 6.3 50.1 5 48.3 4.1 46.6 4 46.1 3.6 44.7 3.3 42.9 3.5 41 3.9 39.2 3.2 41.7 2.7 43.6 2.6 45.4"/><polygon class="cls-5" points="46.3 94 49.7 93.4 51.3 93.1 51.9 93 49.9 91.9 49 91.4 48.7 91.2 48.6 91.1 48.4 90.7 48.4 90.3 48.5 89.9 48.7 89.5 48.7 89.4 49.1 88.8 49.5 88.3 50.1 87.8 50.5 87.6 50.8 87.4 51.5 87 52.2 86.7 53 86.5 53.7 86.4 54.1 86.4 54.4 86.4 54.9 86.5 55.4 86.6 57.2 87.7 57.2 87.7 57.3 87.7 57.3 87.7 57.3 87.8 57.7 88 57.9 88.4 58.1 88.9 58.1 89 58.1 89.4 58.1 90 57.9 90.7 57.7 91.3 57.6 91.4 58 91.3 58.2 90 58.1 89.1 58.1 88 57.9 87.4 57.4 86.3 57.4 86.2 56.3 85.1 54.9 84.5 54.2 84.5 53.3 84.5 51.5 85.2 50.6 85.9 49.6 86.5 47.7 88.3 46.8 89.5 46.5 89.9 45.6 90.6 44.4 91.8 43.2 92.9 42.9 93.2 41.9 94.3 42.8 94.2 46.3 94"/><polygon class="cls-5" points="35.3 114.4 35 113.4 34.5 112.5 33.9 111.7 33.1 110.9 32.2 110.4 31.2 110 30.2 109.8 29.2 109.9 28.2 110.1 27.3 110.5 26.6 111.1 26.5 111.2 25.9 111.9 25.8 112 25.4 112.8 25.4 112.8 25.6 112.8 26.6 112.8 27.6 112.9 28.6 113.3 29.5 113.9 30.3 114.6 30.4 114.7 30.9 115.4 31.4 116.4 31.5 116.7 31.7 117.4 31.8 118.4 33.4 118.5 33.9 118.5 34 118.6 35 118.6 38.7 115.7 35.4 115.5 35.3 114.4"/><polygon class="cls-9" points="77.2 42.6 77.3 42.7 77.9 42.7 78.5 42.7 79.1 42.5 79.2 42.5 79.2 42.5 79.9 42.3 80.6 41.9 81.3 41.5 82 41 82.5 40.5 83 39.9 83.4 39.3 83.6 38.7 83.7 38.2 83.7 37.9 83.7 37.7 83.5 37.4 82.3 36.2 80.5 35 78.5 33.9 78.4 33.9 76.3 33.1 74.2 32.7 73.8 32.7 74.3 32.8 74.6 33 74.7 33.1 75.2 33.5 75.5 34.1 75.7 34.7 75.8 35.5 75.8 36.2 75.7 37 75.5 37.8 75.2 38.6 74.8 39.2 74.8 39.3 75 39.9 75.1 40.4 75.1 40.5 75.3 41.1 75.4 41.4 75.4 41.4 75.5 41.7 76.1 42 76 42 76.5 42.3 76.8 42.5 77.2 42.6"/><polygon class="cls-6" points="87.4 67.5 87.8 67.5 88.4 67.5 89.1 67.5 89.8 67.5 90.6 67.4 91.5 67.3 92.2 67.2 93 67.1 93.7 66.9 94.2 66.8 94.7 66.7 95 66.6 95.1 66.5 95 65.3 95 65.2 94.5 62.2 94.5 62.1 94.3 60.7 94.1 60.8 93.8 61 93.4 61.2 92.9 61.4 92.2 61.5 91.5 61.7 90.7 61.8 89.9 62 89.1 62.1 88.3 62.1 87.7 62.2 87.1 62.2 86.6 62.2 86.3 62.1 86.1 62 86.4 63.4 86.4 63.5 86.7 66.3 86.8 66.3 86.9 67.3 86.9 67.4 87 67.4 87.4 67.5"/><polygon class="cls-9" points="84.5 54 85 54.1 85.6 54 86.3 54 87 53.9 87.8 53.7 88.6 53.5 89.4 53.2 90.1 53 90.7 52.7 91.2 52.5 91.6 52.2 91.9 51.9 92 51.7 91.9 51.5 91.6 50.7 91.6 50.6 90.6 48.1 90.6 48.1 89.5 45.7 88.7 44.3 88.7 44.6 88.6 45 88.3 45.3 87.8 45.7 87.3 46.1 86.6 46.5 85.9 46.9 85.2 47.2 84.4 47.4 83.6 47.6 82.9 47.8 82.3 47.8 81.8 47.8 81.3 47.7 81.2 47.6 81 47.5 81.1 47.6 82.1 49.4 82.1 49.5 83 51.4 83 51.4 83.8 53.5 83.9 53.5 83.9 53.6 83.9 53.8 84 53.8 84.2 53.9 84.5 54"/><polygon class="cls-14" points="57.2 89.2 57 88.9 56.8 88.8 56.5 88.7 56.2 88.6 55.9 88.7 55.5 88.9 55.2 89.1 54.8 89.4 54.5 89.8 54.3 90.2 54 90.6 53.9 91.1 53.8 91.5 53.7 92 53.8 92.3 53.9 92.7 54 92.9 54.3 93.1 54.5 93.2 54.8 93.2 55.2 93.1 55.5 93 55.9 92.7 56.2 92.4 56.5 92.1 56.8 91.7 57 91.2 57.2 90.8 57.3 90.3 57.3 89.9 57.3 89.5 57.2 89.2"/><polygon class="cls-14" points="78.9 75.7 78.6 75.7 78.2 75.8 77.9 76 77.5 76.2 77.2 76.5 76.9 76.9 76.6 77.3 76.4 77.7 76.3 78.2 76.2 78.6 76.1 79 76.2 79.4 76.3 79.7 76.4 80 76.6 80.2 76.9 80.3 77.2 80.3 77.5 80.2 77.9 80.1 78.2 79.8 78.6 79.5 78.9 79.1 79.2 78.7 79.4 78.3 79.5 77.8 79.6 77.4 79.7 77 79.6 76.6 79.5 76.3 79.4 76 79.2 75.8 78.9 75.7"/><polygon class="cls-14" points="9.5 57.9 9.8 58.7 10.2 59.4 10.7 60 11.3 60.6 11.9 61 12.5 61.2 13.2 61.3 13.8 61.2 14.3 61 14.8 60.7 15.2 60.1 15.5 59.5 15.7 58.8 15.8 58 15.7 57.2 15.5 56.4 15.2 55.6 14.8 54.9 14.4 54.2 13.8 53.7 13.2 53.3 12.6 53.1 11.9 53 11.3 53 10.7 53.3 10.3 53.6 9.8 54.1 9.5 54.8 9.4 55.5 9.3 56.3 9.4 57.1 9.5 57.9"/><polygon class="cls-15" points="3.3 42.9 3.6 44.7 4 46.1 4.1 46.6 5 48.3 6.3 50.1 7.8 51.8 8.5 52.4 9 51.7 9.1 51.7 9.8 51.2 10.4 50.9 10.6 50.8 12.2 50.3 13.1 50.2 13.2 50.2 13.4 50.2 13.6 49.2 14.7 42.4 15.3 39.2 16.2 33.9 16.7 30.9 16.8 30.1 17.2 27.9 17.1 27.9 16.8 27.7 16.6 27.3 16.4 26.9 16.3 26.7 16.2 26.4 16.3 25.9 16.4 25.5 16.4 25.3 16.4 25.3 16.5 25 16.8 24.6 17.2 24.2 17.6 24 18 23.9 18 23.9 18.3 23.8 18.7 23.8 19.2 23.9 19.6 24.1 19.6 24.1 19.8 24.3 20.2 24.6 20.4 24.9 20.5 25 20.6 25.3 20.8 25.8 20.8 26.2 20.8 26.4 20.7 26.7 20.6 26.9 20.5 27.2 20.2 27.7 19.8 28 19.5 28.2 19.2 28.3 18.8 30.3 18.4 32.8 18.2 33.8 17.2 40.1 16.6 43.7 15.3 51 15.6 51.1 16 51.3 16.9 52.1 17.6 53.1 17.8 53.4 18.3 54.2 18.7 55.4 19 56.7 19.1 57.8 19.1 57.9 19 59 19.5 59.2 22.5 60.3 25.6 61.3 28.9 62.1 32.3 62.9 33.4 63 35.8 63.3 39.3 63.6 42.9 63.8 46.4 63.7 48.6 63.6 49.8 63.5 53.2 63 56.4 62.3 58.3 61.8 59.5 61.4 62.4 60.3 65 59 67.4 57.4 69.5 55.6 70.3 54.9 71.3 53.7 72.8 51.7 74 49.6 74.3 48.8 74.8 47.4 75.2 45.1 75.3 42.9 75.1 40.7 74.6 38.5 74.3 37.7 74.1 37 74.1 36.9 73.9 36.5 73.7 36.1 73.4 35.4 73.3 35.1 73 34.6 72.7 34 72.4 33.5 72.2 33.1 72 32.8 71.9 32.7 70.8 30.6 70.7 30.6 70.5 30.1 70.1 29.4 69.6 28.6 69.1 27.6 68.6 26.8 68.5 26.6 67.8 25.5 67.6 25.2 67 24.4 66.3 23.6 66.2 23.5 65.4 22.6 65.1 22.3 64.1 21.2 62.9 20 61.3 18.3 60 17.1 58.6 15.9 56.9 14.9 55.1 14 53.2 13.1 50.1 11.9 48.5 11.4 46.7 10.9 45 10.5 43.1 10.3 41.2 10.1 39.3 10.1 37.4 10.1 35.6 10.3 33.7 10.5 31.9 10.9 30.2 11.4 28.6 11.9 25.5 13.1 23.6 14 21.8 14.9 20.1 15.9 18.7 17.1 17.4 18.3 12.3 23.6 11.1 25.2 10 26.8 5.4 35.1 4.5 37 3.9 39.2 3.5 41 3.3 42.9"/></svg>