<svg id="Layer_1" data-name="Layer 1" xmlns="http://www.w3.org/2000/svg" viewBox="0 0 123.2 128"><defs><style>.cls-1{fill:#ededf4;}.cls-2{fill:none;}.cls-3{fill:#9399a8;}.cls-4{fill:#d9d9df;}.cls-5{fill:#b5b5c1;}.cls-6{fill:#43434b;}.cls-7{fill:#7b7a88;}.cls-8{fill:#605e73;}.cls-9{fill:#4b3a2d;}.cls-10{fill:#6d5c46;}.cls-11{fill:#9491a4;}.cls-12{fill:#5e5c6a;}.cls-13{fill:#2affff;}.cls-14{fill:#54d9ff;opacity:0.5;}</style></defs><rect class="cls-1" x="-338.5" y="-69.6" width="1000" height="800"/><polygon class="cls-2" points="114 44.4 114 44.6 114 44.4 114 44.4"/><polygon class="cls-2" points="94.9 52.4 94.8 52.4 94.9 52.4 94.9 52.4"/><polygon class="cls-2" points="116.7 41 116.4 41.7 116.7 40.9 116.7 41"/><polygon class="cls-2" points="109.5 37.3 108.9 37.8 108.8 37.9 109.5 37.4 109.5 37.3"/><polygon class="cls-2" points="109 37.8 108.4 38.3 108.1 38.5 108.3 38.3 109 37.8"/><polygon class="cls-2" points="15.1 49.9 15.1 50.4 15.1 50.7 15.1 50.3 15.1 49.9"/><polygon class="cls-2" points="14.6 48.9 13.7 48.9 11.9 48.8 12.1 49.1 12.1 49.3 13.8 49.3 14.6 49.4 14.6 49.2 14.6 48.9"/><polygon class="cls-2" points="111.7 35.6 111.7 35.6 112.5 35.4 111.7 35.6"/><polygon class="cls-2" points="113.3 35.4 113.3 35.4 114.1 35.5 114.9 35.7 114.1 35.5 113.3 35.4"/><polygon class="cls-2" points="117.4 40.7 117.4 40.8 117.5 40 117.5 39.9 117.4 40.7"/><polygon class="cls-2" points="116.4 41.8 116 42.4 116 42.4 116.4 41.8"/><polygon class="cls-2" points="115.1 35.9 115.6 36.1 115.6 36.1 115.1 35.9"/><polygon class="cls-2" points="115.5 43 115.5 43 116 42.4 115.4 43.1 115.5 43 115.5 43"/><polygon class="cls-2" points="116.4 36.7 116.4 36.7 116.3 36.6 116.8 37.3 116.9 37.3 116.9 37.3 116.4 36.7"/><path class="cls-2" d="M45.5,100.9V87.8h-.1l-2.9-1.1v14.2Z"/><path class="cls-2" d="M69.2,86.7l-2.9,1.1h-.1v13.1h3Z"/><polygon class="cls-2" points="1.1 44.3 1.1 44.2 1.1 44.3 1.1 44.3"/><polygon class="cls-2" points="4.9 48.1 4.8 48.1 4.4 48 4.8 48.1 4.9 48.1"/><polygon class="cls-2" points="2.7 40.3 2.7 40.3 2.4 40.5 2.7 40.3"/><polygon class="cls-2" points="5.1 48.2 5.2 48.2 5 48.2 4.9 48.2 5 48.2 5.1 48.2"/><polygon class="cls-2" points="86 6.4 86 6.4 85.4 6.6 86 6.4"/><polygon class="cls-3" points="16.9 49.1 16.5 49 16.1 48.8 15.8 48.5 15.6 48.2 15.5 48 15.5 47.6 15 47.5 14.9 48.3 14.9 48.9 14.8 49.3 14.7 49.6 14.7 49.7 15 49.7 15.1 49.9 15.1 50.3 15.1 50.7 15.2 50.9 15.3 51.4 15.5 51.7 15.6 51.8 15.9 52.1 16.4 52.3 16.6 52.4 16.8 52.4 16.9 52.4 16.9 52.4 17.1 52.3 17.4 51.9 17.6 51.3 17.7 50.3 17.8 50.1 17.9 49.2 17.4 49.2 16.9 49.1"/><polygon class="cls-4" points="21.3 26 21.6 26.1 21.5 27.6 19.2 27.1 19 28.1 18.8 29.2 18.6 30.5 18.3 31.7 18 33 17.7 34.2 17.4 35.3 17.2 36.2 19.5 36.7 19.6 36.5 19.8 35.8 20.1 34.7 20.3 33.8 20.3 33.9 20.8 36 21.6 38 22.8 40 24.2 42 26 44 26.6 44.6 28.1 45.8 30.4 47.5 33 49.1 35.8 50.6 37.7 51.4 38.8 51.9 42 52.9 45.3 53.8 47.3 54.3 48.8 54.5 52.3 54.9 55.8 55.1 59.4 54.9 62.9 54.5 64.4 54.3 66.4 53.8 69.7 52.9 72.9 51.9 74 51.4 75.9 50.6 78.7 49.1 81.3 47.5 83.6 45.8 85.1 44.6 85.7 44 87.5 42 88.9 40 90.1 38 90.9 36 91.4 34 91.6 34.7 91.9 35.8 92.1 36.6 92.1 36.7 94.5 36.2 94.2 35.3 93.9 34.2 93.6 33 93.3 31.7 93.1 30.5 92.8 29.2 92.6 28.1 92.5 27.1 90.2 27.6 90 26.1 90.3 26 90.2 25.6 90.2 25.5 90.1 25.5 90.1 25.7 90 25.9 88.9 24.2 87.5 22.5 85.7 21 85.1 20.5 83.6 19.5 81.3 18.1 78.7 16.9 75.9 15.9 74 15.4 73.4 15.2 73.5 15.3 73.8 15.7 75.5 18.1 76.5 20.1 77 22.2 77.6 24.8 77.8 25.5 77.9 27.8 77.6 30.1 76.9 33.4 76.8 33.5 76.6 34.1 76.2 35.5 75.2 37.1 73.2 40 72 40.9 69.9 42.4 68 43.3 65.8 44.3 65.8 44.3 61 45.5 60.5 45.6 55.8 45.9 51.2 45.6 50.7 45.5 45.9 44.3 45.9 44.3 43.7 43.3 41.8 42.4 39.7 40.9 38.5 40 36.5 37.1 35.5 35.5 35.1 34.1 34.9 33.5 34.8 33.4 34.1 30.1 33.8 27.8 33.9 25.5 34.1 24.8 34.7 22.2 35.2 20.1 36.2 18.1 37.9 15.7 38.2 15.3 38.3 15.2 37.7 15.4 35.8 15.9 33 16.9 30.4 18.1 28.1 19.5 26.6 20.5 26 21 24.2 22.5 22.8 24.2 21.6 26 21.6 26.1 21.6 25.7 21.5 25.5 21.5 25.5 21.4 25.6 21.3 26"/><path class="cls-5" d="M16.5,37.8l.2-.3.2-.5.3-.8.2-.9.3-1.1L18,33l.3-1.3.3-1.2.2-1.3.2-1.1.2-1V25H19v.3l-.3.5-.2.8-.3.9-.3,1.1-.3,1.2-.3,1.3L17,32.4l-.3,1.3-.2,1.1v2.9h.2Zm.3-3V32.1l.2-.8.2-.8.2-.8L18,29l.2-.6v-.5l.2-.4v-.2h.1V30l-.2.8-.2.8-.2.8v.8l-.2.7-.2.6-.2.5v.4l-.2.2h-.1v-.7Z"/><polygon class="cls-4" points="19.3 25.6 19.8 25.7 20 25.3 20 25.2 19.2 25 19.3 25.2 19.3 25.6"/><polygon class="cls-3" points="16.9 37 16.7 37.5 16.5 37.8 16.4 37.9 16.4 37.9 16.7 38 16.9 38 17.1 38 17.6 38.2 18.1 38.3 18.3 38.3 18.3 38.3 18.7 38.4 18.8 38.3 19 38 19.2 37.5 19.5 36.7 17.2 36.2 16.9 37"/><polygon class="cls-6" points="19.8 25.7 19.3 25.6 19.2 27.1 21.5 27.6 21.6 26.1 21.3 26 21.4 25.6 21.5 25.5 26.8 6.7 26.6 6.7 26.1 6.7 25.7 6.5 25.6 6.4 25.5 6.4 25.4 6.3 25.3 6.3 20 25.2 20 25.3 19.8 25.7"/><polygon class="cls-5" points="25.5 6.4 25.6 6.4 25.7 6.5 26.1 6.7 26.6 6.7 26.8 6.7 26.8 6.7 27.3 6.6 27.7 6.4 28.1 6.2 28.4 5.8 28.6 5.4 28.9 4.9 28.9 4.4 28.8 3.9 28.7 3.5 28.5 3.1 28.2 2.7 27.9 2.6 27.7 2.4 27.5 2.3 27.1 2.2 26.7 2.2 26.5 2.2 25.9 2.2 25.6 2.4 25.1 2.7 24.8 3 24.6 3.5 24.6 3.5 24.4 3.9 24.3 4.4 24.5 5 24.6 5.4 24.8 5.7 25.1 6.1 25.3 6.3 25.4 6.3 25.5 6.4"/><path class="cls-5" d="M92.4,25.6v2.5l.2,1.1.3,1.3.2,1.2.3,1.3.3,1.2.3,1.1.3.9.2.8.2.5.2.3h.2v-.2h0V34.8l-.2-1.1-.2-1.3-.3-1.2-.3-1.3-.3-1.2-.3-1.1-.2-.9-.3-.8-.2-.5-.2-.3h-.1v.6Zm.5,1.8H93l.2.2v.4l.2.5.2.6v.7l.2.8.2.8.2.8v.8l.2.7v1.9h-.1v-.2l-.2-.4v-.5l-.2-.6-.2-.7-.2-.8-.2-.8-.2-.8V27.4Z"/><polygon class="cls-4" points="91.8 25.7 92.4 25.6 92.4 25.2 92.5 25 91.6 25.2 91.7 25.3 91.8 25.7"/><polygon class="cls-7" points="91.6 34.7 91.4 34 90.9 36 90.1 38 88.9 40 87.5 42 85.7 44 85.1 44.6 83.6 45.8 81.3 47.5 78.7 49.1 75.9 50.6 74 51.4 72.9 51.9 69.7 52.9 66.4 53.8 64.4 54.3 62.9 54.5 59.4 54.9 55.8 55.1 52.3 54.9 48.8 54.5 47.3 54.3 45.3 53.8 42 52.9 38.8 51.9 37.7 51.4 35.8 50.6 33 49.1 30.4 47.5 28.1 45.8 26.6 44.6 26 44 24.2 42 22.8 40 21.6 38 20.8 36 20.3 33.9 20.3 33.8 20.1 34.7 19.8 35.8 19.6 36.5 19.6 36.5 20.1 38.6 20.9 40.7 22.1 42.7 23.6 44.8 25.4 46.8 26 47.4 27.5 48.6 29.9 50.4 32.5 52 35.4 53.5 37.3 54.4 38.5 54.8 41.7 55.9 45.1 56.8 46.5 57.1 47.2 57.2 48.6 57.5 52.2 57.8 55.8 57.9 59.5 57.8 63.1 57.5 64.5 57.2 65.2 57.1 66.6 56.8 70 55.9 73.2 54.8 74.4 54.4 76.3 53.5 79.2 52 81.8 50.4 84.2 48.6 85.7 47.4 86.3 46.8 88.1 44.8 89.6 42.7 90.8 40.7 91.6 38.6 92.1 36.6 91.9 35.8 91.6 34.7"/><polygon class="cls-4" points="95.3 37.9 95.3 37.9 95.1 37.9 94.8 38 94.7 38 94.2 38.1 93.7 38.2 93.4 38.3 93.4 38.5 93.4 38.5 93.4 39.5 93.4 40.7 93.5 41.4 93.5 42 93.5 43.5 93.6 45 93.7 45.3 93.7 46.5 93.7 47.9 93.7 47.9 93.8 49.2 94.4 49.2 94.8 49.1 95.3 49 95.7 48.8 96 48.5 96.2 48.2 96.2 48 96.2 47.6 96.7 47.5 96.7 46.6 96.6 45.7 96.5 44.7 96.4 43.7 96.4 42.7 96.3 41.8 96.3 41.1 96.3 40.4 96.3 39.9 96.3 39.6 96.4 39.5 96 39.5 95.9 39.2 95.9 38.7 95.8 38.4 95.6 38 95.5 37.9 95.3 37.7 95.3 37.7 95.3 37.9"/><polygon class="cls-3" points="94.2 38.1 94.7 38 94.8 38 95.1 37.9 95.3 37.9 95.1 37.8 94.9 37.5 94.7 37 94.5 36.2 92.1 36.7 92.3 37.2 92.4 37.5 92.6 38 92.8 38.3 92.9 38.4 93.4 38.3 93.4 38.3 93.7 38.2 94.2 38.1"/><polygon class="cls-6" points="90.3 26 90 26.1 90.2 27.6 92.5 27.1 92.4 25.6 91.8 25.7 91.7 25.3 91.6 25.2 86.3 6.3 86.3 6.3 86.2 6.4 86 6.4 86 6.4 86 6.4 85.9 6.5 85.5 6.7 85.1 6.7 84.9 6.7 90.2 25.5 90.2 25.6 90.3 26"/><polygon class="cls-5" points="85.5 6.7 85.9 6.5 86 6.4 85.4 6.6 86 6.4 86 6.4 86.2 6.4 86.3 6.3 86.3 6.3 86.5 6.1 86.9 5.7 87.1 5.4 87.2 5 87.3 4.4 87.2 3.9 87 3.5 87 3.5 86.8 3 86.5 2.7 86 2.4 85.7 2.2 85.2 2.2 84.9 2.2 84.5 2.2 84.1 2.3 84 2.4 83.7 2.6 83.5 2.7 83.2 3.1 82.9 3.5 82.8 3.9 82.7 4.4 82.8 4.9 83 5.4 82.9 4.9 83 5.4 83 5.4 83 5.4 83.2 5.8 83.5 6.2 84 6.4 84.3 6.6 84.8 6.7 84.9 6.7 85.1 6.7 85.5 6.7"/><polygon class="cls-3" points="97 49.3 96.9 48.9 96.8 48.3 96.7 47.5 96.2 47.6 96.2 48 96.2 48.2 96 48.5 95.7 48.8 95.3 49 94.8 49.1 94.4 49.2 93.8 49.2 93.9 50.1 94 50.4 94.1 51.3 94.3 51.9 94.6 52.3 94.8 52.4 94.9 52.4 94.9 52.4 94.9 52.4 95.1 52.4 95.4 52.3 95.8 52.1 96.2 51.8 96.5 51.4 96.5 51.2 96.6 50.9 96.5 50.8 96.6 50.9 96.7 50.7 96.7 50.3 96.7 49.9 96.7 49.7 97.1 49.7 97.1 49.6 97 49.3"/><polygon class="cls-5" points="97 48.8 96.9 48.5 96.9 48.1 96.8 47.5 96.7 46.8 96.7 46.1 96.6 45.3 96.5 44.5 96.5 44.4 96.7 43.7 96.5 43.6 96.4 42.9 96.4 42.1 96.4 41.5 96.4 41.1 96.4 40.7 96.4 40.5 96.5 40.5 96.6 40.5 96.6 40.2 96.5 39.8 96.4 39.5 96.4 39.5 96.3 39.6 96.3 39.9 96.3 40.4 96.3 41.1 96.3 41.8 96.4 42.7 96.4 43.7 96.5 44.7 96.6 45.7 96.7 46.6 96.7 47.5 96.8 48.3 96.9 48.9 97 49.3 97.1 49.6 97.1 49.7 97.1 49.5 97.2 49.2 97.2 49 97 49 97 48.8"/><path class="cls-5" d="M94.9,52.4h-.3l-.3-.4-.2-.6V47.9h0V38.5h0v-.2h-.6l-.2-.3-.2-.5v-.3l-.2-.5h0l-.5,2-.8,2.1-1.2,2-1.5,2.1-1.8,2-.6.6-1.5,1.2-2.4,1.8L79.2,52l-2.9,1.5-1.9.9-1.2.4L70,55.9l-3.4.9-1.4.3h-.7l-1.4.3-3.6.3H52.2l-3.6-.3-1.4-.3h-.7l-1.4-.3-3.4-.9-3.2-1.1-1.2-.4-1.9-.9L32.5,52l-2.6-1.6-2.4-1.8L26,47.4l-.6-.6-1.8-2-1.5-2.1-1.2-2-.8-2.1-.5-2.1h0v.2l-.3.8L19,38l-.2.3h-.5v.2h0v5L18,45v2.9h0v3.4l-.2.6-.3.4h-.5v1.2l.4,2.2.9,4.6v.5l.5,1.6,1.2,2.9,1,2.3,1,2,1,1.9,1.7,1.8,1.6,1.8,1.3.9.9.6,2.3,1.6,1.8.9.9.4.4.2L36,80.9l3.1.9,3.1,1,1.7.3,1.6.3,3.4.5,3.5.2,3.4.2,3.5-.2,3.5-.2,3.4-.5,1.6-.3,1.7-.3,3.1-1,3.1-.9L78,79.8l.4-.2.9-.4,1.8-.9,2.3-1.6.9-.6,1.3-.9,1.6-1.8,1.7-1.8,1-1.9,1-2,2.2-5.2.6-2.1L95,53.6V52.4ZM48.6,81.5H46.9l-1.1-.2H44.6l-1-.4h-.1l-1.1-.5-.9-.6h0l-.8-.8-.4-.6-.2-.2-.3-.9V62.5l.3-.8h0l.6-.9.6-.6h.2l.9-.5,1.1-.4h2.3l1.2.3,1.2.5.3.2.7.5,1,.8.7.9.6,1.1v.2l.3.8V79l-.4.8V80l-.5.5-.7.5-1,.4ZM70,79.7l-.9.6-1,.5H68l-1.2.4h-.3l-.9.2H63.1l-.9-.2-.9-.4-.8-.5-.4-.5H60l-.4-.8h0V64.4h0l.3-.8v-.2l.5-1.1.8-.9.9-.8,1-.6h.1l1.1-.5,1.2-.2H68l1.1.3.9.5.4.4.4.4.5.8v.2l.3.8V77.2l-.4.9v.2l-.4.6-.6.6Z"/><path class="cls-5" d="M64.9,88H61.8l-6,.7-5.9-.7H46.8v27h.1l.4.4.2.2.2.2.2.2.8.5h.1l.5.3h.6l.8.2.9.3h.1l1.4.2h5.5l1.3-.2h.2l.9-.3.8-.2h.6l.5-.3H63l.8-.5.2-.2.2-.2.2-.2.4-.4h.1Z"/><path class="cls-8" d="M45.5,105.7h-3v1.1H37.6v-1.1H35.7V107h1.9v1.8h4.9V107h3Z"/><path class="cls-9" d="M51.7,117.8v-.2h-.1l-.9-.3V128h1Z"/><path class="cls-10" d="M50.7,117.3l-.8-.2h-.6l-.5-.3h-.1l-.8-.5-.2-.2-.2-.2-.2-.2-.4-.4h-.1v10.1l.4,1,.6.8.8.6,1,.4h1Z"/><path class="cls-10" d="M64.4,115.5l-.2.2-.2.2-.2.2-.8.5h-.1l-.5.3h-.6l-.8.2V128h1l1-.4.8-.6.6-.8.4-1V115h-.1Z"/><path class="cls-8" d="M37.6,101h4.9V86.7l-4.9-1.9Z"/><path class="cls-9" d="M61,117.3l-.9.3h-.2V128H61Z"/><path class="cls-7" d="M42.5,101H37.6v5.8h4.9Z"/><path class="cls-11" d="M37.6,100.9H35.7v4.8h1.9Z"/><path class="cls-9" d="M57.5,118H54.3v10h3.2Z"/><path class="cls-10" d="M54.3,118H53.1l-1.4-.2V128h2.6Z"/><path class="cls-10" d="M59.9,117.8v-.2l-1.3.2H57.5v10h2.4Z"/><path class="cls-11" d="M42.5,105.7h3v-4.8h-3Z"/><path class="cls-11" d="M74.1,105.7H76v-4.8H74.1Z"/><path class="cls-8" d="M74.1,106.8H69.2v-1.1h-3V107h3v1.8h4.9V107H76v-1.3H74.1Z"/><path class="cls-7" d="M69.2,106.8h4.9V101H69.2Z"/><path class="cls-11" d="M69.2,100.9h-3v4.8h3Z"/><path class="cls-8" d="M69.2,101h4.9V84.8l-4.9,1.9Z"/><polygon class="cls-3" points="4.7 51.8 5.4 52.1 6.2 52.2 7 52.2 7.8 52 8.5 51.7 9.2 51.3 9.8 50.8 10.3 50.2 10.7 49.5 10.9 48.8 10.9 48.8 10.9 48.8 10.4 48.7 10.4 48.7 10 48.6 9.5 48.3 9 47.8 8.9 47.8 8.9 47.8 8.9 47.7 8.5 47.3 8.1 46.6 7.8 45.8 7.5 45 7.3 44.2 7.2 43.4 7.1 42.6 7.2 41.9 7.3 41.5 7.3 41.3 7.6 40.8 7.9 40.5 8.3 40.3 8.7 40.3 8 40.2 7 40.1 6.2 40 5.6 39.9 5.1 39.9 4.3 39.9 3.5 40 3.4 40 2.7 40.3 2.7 40.3 2.4 40.5 2.1 40.7 1.6 41.3 1.3 42 1.1 42.7 1 43.5 1.1 44.2 1.1 44.3 1.1 44.3 1.4 45.2 1.8 45.9 2.3 46.6 3 47.2 3.7 47.7 4.4 48 4.4 48 4.8 48.1 4.9 48.1 4.9 48.2 5 48.2 5.2 48.2 5.1 48.2 5.1 48.2 4.5 48.3 4.4 48.3 3.7 48.3 2.9 48.1 2.1 47.8 1.5 47.4 0.9 46.8 0.4 46.1 0.1 45.4 0.1 45.5 0.4 46.2 0.6 46.5 0.9 47 1 47.2 1.3 47.6 1.6 48.1 2.1 48.6 2.8 49 3.5 49.3 4.3 49.5 5.1 49.5 5.9 49.3 6.7 49 7.4 48.6 7.6 48.5 7.6 48.5 8.3 48.6 8.3 48.6 8.5 48.6 9.2 48.6 8.8 49.2 8.1 49.7 7.4 50.1 6.7 50.4 5.9 50.5 5.1 50.5 4.3 50.4 3.6 50.1 2.9 49.7 2.4 49.2 2.7 49.6 3 50.1 3.3 50.6 3.6 50.9 4.1 51.4 4.7 51.8"/><polygon class="cls-7" points="4.4 52.4 4.7 52.9 5 53.5 5.5 54 6.2 54.3 6.8 54.6 7.6 54.7 8.4 54.6 9.2 54.5 9.9 54.1 10.6 53.7 11.2 53.2 11.7 52.6 12.1 51.9 12.3 51.2 12.4 50.5 12.3 49.8 12.1 49.1 11.9 48.8 13.7 48.9 14.6 48.9 14.7 48.9 14.8 48.7 14.8 48.5 14.9 48 15 47.5 15 46.8 15.1 46.1 15.2 45.3 15.2 44.5 15.3 43.7 15.3 42.9 15.3 42.2 15.4 41.6 15.4 41.2 15.4 40.8 15.3 40.6 15.3 40.6 15.1 40.6 13.9 40.6 12.1 40.5 10.6 40.4 9.2 40.3 8.7 40.3 8.3 40.3 7.9 40.5 7.6 40.8 7.3 41.3 7.3 41.5 7.2 41.9 7.1 42.6 7.2 43.4 7.3 44.2 7.5 45 7.8 45.8 8.1 46.6 8.5 47.3 8.9 47.7 8.9 47.8 8.9 47.8 9 47.8 9.5 48.3 10 48.6 10.4 48.7 10.4 48.7 10.9 48.8 10.9 48.8 10.9 48.8 10.7 49.5 10.3 50.2 9.8 50.8 9.2 51.3 8.5 51.7 7.8 52 7 52.2 6.2 52.2 5.4 52.1 4.7 51.8 4.1 51.4 3.6 50.9 4 51.7 3.6 51.1 4.3 52.3 4.4 52.3 4.4 52.4"/><polygon class="cls-3" points="12.3 49.8 12.4 50.5 12.3 51.2 12.1 51.9 11.7 52.6 11.2 53.2 10.6 53.7 9.9 54.1 9.2 54.5 8.4 54.6 7.6 54.7 6.8 54.6 6.2 54.3 5.5 54 5 53.5 4.7 52.9 5 53.5 6.1 55.4 6.4 56 6.9 56.5 7.5 56.8 8.2 57.1 9 57.2 9.8 57.2 10.6 57 11.3 56.7 12 56.2 12.6 55.7 13.1 55.1 13.5 54.4 13.7 53.7 13.8 53 13.7 52.3 13.4 51.6 12.3 49.5 12.1 49.3 12.1 49.1 12.3 49.8"/><polygon class="cls-12" points="13.7 52.3 13.8 53 13.7 53.7 13.5 54.4 13.1 55.1 12.6 55.7 12 56.2 11.3 56.7 10.6 57 9.8 57.2 9 57.2 8.2 57.1 7.5 56.8 6.9 56.5 6.4 56 6.1 55.4 5 53.5 4.9 54.2 5 55 5.1 55.2 5.3 55.8 5.8 56.5 6.4 57.1 7.1 57.5 7.9 57.8 8.8 57.9 9.8 57.9 10.7 57.7 11.6 57.3 12.5 56.8 13.2 56.1 13.8 55.4 14.2 54.6 14.5 53.7 14.6 52.9 14.5 52 14.2 51.3 13.8 50.7 13.7 50.6 13.1 50 12.4 49.5 12.3 49.5 13.4 51.6 13.7 52.3"/><polygon class="cls-7" points="3.6 50.1 4.3 50.4 5.1 50.5 5.9 50.5 6.7 50.4 7.4 50.1 8.1 49.7 8.8 49.2 9.2 48.6 8.5 48.6 8.3 48.6 8.3 48.6 7.6 48.5 7.6 48.5 7.4 48.6 6.7 49 5.9 49.3 5.1 49.5 4.3 49.5 3.5 49.3 2.8 49 2.1 48.6 1.6 48.1 1.7 48.1 2.1 48.8 2.4 49.2 2.9 49.7 3.6 50.1"/><polygon class="cls-7" points="0.9 46.8 1.5 47.4 2.1 47.8 2.9 48.1 3.7 48.3 4.4 48.3 4.5 48.3 5.1 48.2 5.1 48.2 5 48.2 4.9 48.2 4.9 48.1 4.8 48.1 4.4 48 4.4 48 3.7 47.7 3 47.2 2.3 46.6 1.8 45.9 1.4 45.2 1.1 44.3 1.1 44.3 1.1 44.3 1.1 44.2 1 43.5 1.1 42.7 1.3 42 1.6 41.3 2.1 40.7 2.4 40.5 2.7 40.3 3.4 40 4.2 39.9 4 39.9 3.2 40 2.4 40.3 1.7 40.8 1.6 40.9 1 41.5 0.5 42.1 0.2 42.9 0 43.7 0 44.5 0 44.6 0.1 45.4 0.4 46.1 0.9 46.8"/><polygon class="cls-6" points="18.1 60.9 18 60.4 17.1 55.8 16.7 53.6 16.6 52.4 16.4 52.3 15.9 52.1 15.6 51.8 15.5 51.7 15.3 51.4 15.2 50.9 15.1 50.7 15.1 50.4 15.1 49.9 15 49.7 14.7 49.7 14.6 49.5 14.6 49.4 13.8 49.3 12.1 49.3 12.3 49.5 12.4 49.5 13.1 50 13.7 50.6 13.8 50.7 14.2 51.3 14.5 52 14.6 52.9 14.5 53.7 14.2 54.6 13.8 55.4 13.2 56.1 12.5 56.8 11.6 57.3 10.7 57.7 9.8 57.9 8.8 57.9 7.9 57.8 7.1 57.5 6.4 57.1 5.8 56.5 5.3 55.8 5.1 55.2 5 55 4.9 54.2 5 53.5 4.7 52.9 4.4 52.4 4.4 52.3 4.3 52.3 4 53 3.9 53.9 4 64.6 4.3 65.4 4.9 66.2 5.8 66.9 7 67.5 8.4 68 9.9 68.3 11 66.8 11 61.8 11.4 61.7 12.4 61.6 13.5 61.6 14.5 61.8 15.5 62 16.3 62.3 17.1 62.6 17.6 63.1 17.9 63.4 17.9 65.1 19.8 65.4 18.6 62.5 18.1 60.9"/><polygon class="cls-7" points="43.8 84.2 55.8 85.5 67.9 84.2 78.1 80.2 79.3 79.2 78.4 79.6 78 79.8 75.7 80.9 72.6 81.8 69.5 82.8 67.8 83.1 66.2 83.4 62.8 83.9 59.3 84.1 55.8 84.3 52.4 84.1 48.9 83.9 45.5 83.4 43.9 83.1 42.2 82.8 39.1 81.8 36 80.9 33.7 79.8 33.3 79.6 32.4 79.2 33.6 80.2 43.8 84.2"/><path class="cls-3" d="M81.1,78.3l-1.8.9-1.2,1-10.2,4L55.8,85.5l-12-1.3-10.2-4-1.2-1-1.8-.9-2.3-1.6-.9-.6.4,1.1,6.6,5.6,2.2,1.6,1,.4,4.9,1.9,2.9,1.1h.1V113h0l.5.9.7,1V88h3.1l5.9.7,6-.7h3.1v27l.7-1,.4-.9h.1V87.8h.1l2.9-1.1,4.9-1.9,1-.4,2.2-1.6,6.6-5.6.4-1.1-.9.6Z"/><path class="cls-7" d="M50.2,81l.7-.5.5-.5v-.2l.4-.8V64.4l-.3-.8v-.2l-.6-1.1-.7-.9-1-.8-.7-.5-.3-.2L47,59.4l-1.2-.3H43.5l-1.1.4-.9.5h-.2l-.6.6-.6.9h0l-.3.8V77.1l.3.9.2.2.4.6.8.8h0l.9.6,1.1.5h.1l1,.4h1.2l1.1.2h2.3Zm-1.5-1.1h-.2l-.4.2H45l-.6-.3h-.1l-.7-.4L43,79l-.2-.2-.3-.3-.4-.6-.2-.6V63.4l.2-.6.3-.5h.1l.5-.4.6-.4.7-.2h2.3l.8.4.7.4.3.3.3.3.5.6h0l.3.5.3.7v14l-.3.5-.3.5-.3.2Z"/><polygon class="cls-6" points="49.5 79.1 49.8 78.6 49.9 77.9 49.9 73.7 49.9 65.4 49.8 64.6 49.5 63.9 49.2 63.4 49.2 63.3 48.7 62.7 48.4 62.4 48.1 62.1 47.4 61.7 46.6 61.3 45.8 61.1 45 61.1 44.8 61.1 44.3 61.2 43.6 61.4 43 61.8 42.5 62.2 42.4 62.3 42.1 62.8 41.9 63.4 41.8 64.1 41.8 72.5 41.8 76.7 41.9 77.3 42.1 77.9 42.5 78.5 42.8 78.8 43 79 43.6 79.4 44.3 79.8 44.4 79.8 45 80.1 45 80.1 45.7 80.2 45.8 80.3 46.6 80.3 47.4 80.3 48.1 80.2 48.5 80 48.7 79.9 48.9 79.8 49.2 79.6 49.5 79.1"/><path class="cls-7" d="M71.2,78.3v-.2l.4-.9V62.6l-.3-.8v-.2l-.5-.8-.4-.4L70,60l-.9-.5L68,59.2H65.6l-1.2.2-1.1.5h-.1l-1,.6-.9.8-.8.9L60,63.4v.2l-.3.8h0V79h0l.4.8h.1l.4.5.8.5.9.4.9.2h2.5l.9-.2h.3l1.2-.4h.1l1-.5.9-.6.2-.2.6-.6Zm-2.7.8-.6.4-.6.3H62.8l-.2-.2-.3-.2-.4-.5-.2-.5v-14l.2-.7.4-.5h0l.5-.6.5-.4h.1l.7-.5.8-.3.7-.2h1.6l.7.2.6.4.5.5h0l.4.5.2.6v14l-.2.6-.4.5-.3.4Z"/><polygon class="cls-6" points="69.4 78 69.6 77.4 69.7 76.7 69.7 72.6 69.7 64.2 69.6 63.4 69.4 62.8 69 62.3 69 62.3 68.5 61.8 67.9 61.4 67.2 61.2 66.9 61.2 66.4 61.1 65.6 61.2 64.9 61.4 64.1 61.7 63.4 62.2 63.3 62.3 62.8 62.7 62.3 63.3 62.3 63.4 61.9 63.9 61.7 64.6 61.6 65.4 61.6 73.8 61.6 77.9 61.7 78.6 61.9 79.1 62.3 79.6 62.6 79.8 62.8 80 63.2 80.1 63.4 80.2 64.1 80.3 64.9 80.4 65.6 80.3 66 80.2 66.4 80.1 66.8 80 67.2 79.9 67.3 79.8 67.9 79.5 68.5 79.1 68.7 78.9 69 78.5 69.4 78"/><polygon class="cls-6" points="123 37.6 122.6 37.3 121.8 36.9 120.7 36.5 119.5 36.1 118 35.7 116.4 35.2 114.7 34.8 113 34.5 111.4 34.1 109.9 33.9 108.6 33.7 107.6 33.6 106.8 33.6 106.3 33.6 106.1 33.8 104.5 40.3 104.7 40.2 105.2 40 105.4 40 106 39.8 106.1 39.7 106.7 39.3 107.1 39.1 107.4 39 107.6 38.9 108.1 38.5 108.4 38.3 108.8 37.9 108.9 37.8 109 37.7 109.4 37.3 109.8 37 110 36.8 110.1 36.7 110.3 36.5 110.9 36 111 36 111 36 111.7 35.6 111.7 35.6 111.7 35.6 111.8 35.6 112.6 35.3 112.8 35.3 113.4 35.3 114.2 35.4 114.5 35.5 115 35.7 115.7 36.1 116 36.3 116.1 36.4 116.2 36.4 117 37.1 117.5 37.8 117.6 37.9 118 38.7 118.3 39.7 118.3 40.7 118.2 41.6 117.9 42.5 117.4 43.4 116.7 44.1 116 44.7 115.1 45.1 114.1 45.4 113.2 45.4 112.7 45.4 112.7 45.4 112.4 45.6 112.1 45.8 111.9 45.9 111 46.5 110.9 46.5 110.5 46.8 110.8 46.8 111.9 47.1 112.9 47.3 113.9 47.6 114.8 47.9 115 47.9 114.7 48.8 116.5 49.6 117.8 49.8 118.9 49.9 119.7 49.9 120.2 49.8 120.4 49.7 123.2 37.8 123 37.6"/><polygon class="cls-12" points="116.4 36.7 116.4 36.7 116.9 37.3 117.3 38.1 117.5 38.9 117.5 39.7 117.5 39.9 117.5 40 117.5 40.6 117.4 41.4 117.1 42.2 116.7 42.9 116.2 43.5 115.5 44 114.8 44.3 114 44.6 113.8 44.6 113.6 44.7 113.3 44.9 112.7 45.4 112.7 45.4 113.2 45.4 114.1 45.4 115.1 45.1 116 44.7 116.7 44.1 117.4 43.4 117.9 42.5 118.2 41.6 118.3 40.7 118.3 39.7 118 38.7 117.6 37.9 117.5 37.8 117 37.1 116.2 36.4 116.1 36.4 116 36.3 116.3 36.6 116.4 36.7"/><polygon class="cls-7" points="111.3 35.9 112.1 35.7 112.9 35.7 113.7 35.8 114.5 36.1 115.2 36.5 115.8 37 116.2 37.7 116.6 38.5 116.8 39.3 116.8 40.1 116.7 40.9 116.4 41.7 116.4 41.8 116 42.4 116 42.4 115.5 43 115.6 42.9 115.8 42.7 115.9 42.6 116.4 42 116.9 41.3 117.1 40.5 117.2 39.7 117.2 38.9 117 38.1 116.6 37.3 116.2 36.7 115.6 36.1 115.1 35.9 114.9 35.7 114.1 35.5 113.3 35.4 112.5 35.4 112.5 35.4 111.7 35.6 111.7 35.6 111 36 111 36 110.9 36 110.3 36.5 110.1 36.7 110 36.8 110.6 36.3 111.3 35.9"/><polygon class="cls-3" points="112.5 35.4 113.3 35.4 113.3 35.4 114.1 35.5 114.9 35.7 115.1 35.9 115.6 36.1 115.6 36.1 116.2 36.7 116.6 37.3 117 38.1 117.2 38.9 117.2 39.7 117.1 40.5 116.9 41.3 116.4 42 115.9 42.6 115.8 42.7 115.6 42.9 115.5 43 115.5 43 115.5 43 115.5 43 116.2 42.5 116.7 41.9 117.1 41.2 117.4 40.4 117.5 39.6 117.4 38.8 117.2 38 116.9 37.3 116.8 37.3 116.3 36.6 116 36.3 115.7 36.1 115 35.7 114.5 35.5 114.2 35.4 113.4 35.3 112.8 35.3 112.6 35.3 111.8 35.6 111.7 35.6 112.5 35.4 112.5 35.4"/><polygon class="cls-7" points="111 46.5 111.9 45.9 112.1 45.8 112.4 45.6 112.7 45.4 112.7 45.4 112.7 45.4 113.3 44.9 113.6 44.7 114.2 44 114.6 43.3 115 42.5 115.2 41.6 115.2 41.4 115.2 40.7 115 39.9 114.8 39.1 114.3 38.4 113.8 37.8 113.2 37.3 112.5 37 111.7 36.8 110.9 36.9 110.2 37 109.5 37.4 108.8 37.9 108.4 38.3 109 37.8 108.3 38.3 108.1 38.5 107.6 38.9 107.4 39 107.1 39.1 107.8 38.8 108.5 38.7 109.1 38.7 109.8 39 110.3 39.4 110.8 39.9 111 40.3 111.2 40.6 111.4 41.4 111.5 42.2 111.5 43.1 111.4 44 111.1 44.8 111.1 44.9 110.7 45.7 110.1 46.4 109.5 47 108.8 47.5 109.8 47.1 110.5 46.8 110.9 46.5 111 46.5"/><polygon class="cls-3" points="109.5 37.4 110.2 37 110.9 36.9 111.7 36.8 112.5 37 113.2 37.3 113.8 37.8 114.3 38.4 114.8 39.1 115 39.9 115.2 40.7 115.2 41.4 115.2 41.6 115.2 41.6 115 42.5 114.6 43.3 114.2 44 113.6 44.7 113.8 44.6 114 44.6 114 44.4 114 44.4 114 44.6 114.8 44.3 115.5 44 116.2 43.5 116.7 42.9 117.1 42.2 117.4 41.4 117.5 40.6 117.5 40 117.4 40.8 117.2 41.6 116.7 42.3 116.2 42.9 115.6 43.4 114.8 43.8 114.6 43.8 114.8 43.7 114.8 43.6 115.1 43.4 115.3 43.2 115.4 43.1 116 42.4 116.4 41.8 116.4 41.7 116.7 41 116.7 40.9 116.8 40.1 116.8 39.3 116.6 38.5 116.2 37.7 115.8 37 115.2 36.5 114.5 36.1 113.7 35.8 112.9 35.7 112.1 35.7 111.3 35.9 110.6 36.3 110 36.8 109.8 37 109.4 37.3 109 37.7 108.9 37.8 109.5 37.3 109.5 37.4"/><polygon class="cls-6" points="115.2 41.4 115.2 41.6 115.2 41.6 115.2 41.4"/><polygon class="cls-7" points="101.2 49 101.2 49 101.4 48.7 101.8 48.3 102.1 47.7 102.4 47 102.7 46.2 103 45.4 103.2 44.6 103.3 43.8 103.4 43.2 103.4 43 103.4 42.3 103.4 41.7 103.3 41.2 103.1 40.9 102.9 40.7 102.6 40.7 102 40.8 100.8 40.9 99.3 40.9 97.8 40.7 96.6 40.5 96.5 40.5 96.4 40.5 96.4 40.7 96.4 41.1 96.4 41.5 96.4 42.1 96.4 42.9 96.5 43.6 96.7 43.7 96.5 44.4 96.5 44.5 96.6 45.3 96.7 46.1 96.7 46.8 96.8 47.5 96.9 48.1 96.9 48.5 97 48.8 97 49 97.2 49 98.9 49.1 100.8 49.2 101.1 49 101.2 49"/><polygon class="cls-3" points="110.1 46.4 110.7 45.7 111.1 44.9 111.1 44.8 111.4 44 111.5 43.1 111.5 42.2 111.4 41.4 111.2 40.6 111 40.3 110.8 39.9 110.3 39.4 109.8 39 109.1 38.7 108.5 38.7 107.8 38.8 107.1 39.1 106.7 39.3 106.1 39.7 106 39.8 105.4 40 105.2 40 104.7 40.2 104.5 40.3 104.4 40.3 103.2 40.6 102.6 40.7 102.9 40.7 103.1 40.9 103.3 41.2 103.4 41.7 103.4 42.3 103.4 43 103.4 43.2 103.3 43.8 103.2 44.6 103 45.4 102.7 46.2 102.4 47 102.1 47.7 101.8 48.3 101.4 48.7 101.2 49 101.2 49 101.1 49 100.8 49.2 101.1 49.2 103.1 49 104.9 48.7 106.6 48.3 108 47.9 108.2 47.8 108.5 47.7 108.8 47.5 109.5 47 110.1 46.4"/><polygon class="cls-7" points="117.5 39.9 117.5 39.7 117.5 38.9 117.3 38.1 116.9 37.3 116.9 37.3 117.2 38 117.4 38.8 117.5 39.6 117.4 40.4 117.1 41.2 116.7 41.9 116.2 42.5 115.5 43 115.5 43 115.4 43.1 115.3 43.2 115.1 43.4 114.8 43.6 114.8 43.7 114.6 43.8 114.8 43.8 115.6 43.4 116.2 42.9 116.7 42.3 117.2 41.6 117.4 40.8 117.4 40.7 117.5 39.9"/><polygon class="cls-6" points="37.9 15.7 36.2 18.1 35.2 20.1 34.7 22.2 34.1 24.8 33.9 25.5 33.8 27.8 34.1 30.1 34.8 33.4 34.9 33.5 35.1 34.1 35.5 35.5 36.5 37.1 38.5 40 39.7 40.9 41.8 42.4 43.7 43.3 45.9 44.3 45.9 44.3 50.7 45.5 51.2 45.6 55.8 45.9 60.5 45.6 61 45.5 65.8 44.3 65.8 44.3 68 43.3 69.9 42.4 72 40.9 73.2 40 75.2 37.1 76.2 35.5 76.6 34.1 76.8 33.5 76.9 33.4 77.6 30.1 77.9 27.8 77.8 25.5 77.6 24.8 77 22.2 76.5 20.1 75.5 18.1 73.8 15.7 73.5 15.3 73.4 15.2 72.3 13.8 71.6 13.3 73.4 15.9 74.1 18.6 73.4 21.3 71.6 23.9 68.7 26 65 27.7 60.6 28.8 55.8 29.1 51.1 28.8 46.7 27.7 43 26 40.1 23.9 38.3 21.3 37.6 18.6 38.3 15.9 40.1 13.3 39.4 13.8 38.3 15.2 38.2 15.3 37.9 15.7"/><polygon class="cls-4" points="42 12.3 40.4 14.6 39.9 16.9 40.4 19.3 42 21.6 44.5 23.5 47.9 24.9 51.7 25.9 55.8 26.2 60 25.9 63.8 24.9 67.2 23.5 69.7 21.6 71.3 19.3 71.8 16.9 71.3 14.6 69.7 12.3 67.2 10.4 63.8 8.9 63.5 8.9 59.8 8 55.8 7.7 51.9 8 48.2 8.9 47.9 8.9 44.5 10.4 42 12.3"/><polygon class="cls-5" points="37.6 18.6 38.3 21.3 40.1 23.9 43 26 46.7 27.7 51.1 28.8 55.8 29.1 60.6 28.8 65 27.7 68.7 26 71.6 23.9 73.4 21.3 74.1 18.6 73.4 15.9 71.6 13.3 70.9 12.8 68.1 10.7 64.5 9.1 63.8 8.9 67.2 10.4 69.7 12.3 71.3 14.6 71.8 16.9 71.3 19.3 69.7 21.6 67.2 23.5 63.8 24.9 60 25.9 55.8 26.2 51.7 25.9 47.9 24.9 44.5 23.5 42 21.6 40.4 19.3 39.9 16.9 40.4 14.6 42 12.3 44.5 10.4 47.9 8.9 47.2 9.1 43.6 10.7 40.8 12.8 40.1 13.3 38.3 15.9 37.6 18.6"/><polygon class="cls-5" points="15.3 40.6 15.4 40.8 15.4 41.2 15.4 41.6 15.3 42.2 15.3 42.9 15.3 43.7 15.2 44.5 15.2 45.3 15.1 46.1 15 46.8 15 47.5 14.9 48 14.8 48.5 14.8 48.7 14.7 48.9 14.6 48.9 14.6 49.2 14.6 49.4 14.6 49.5 14.7 49.7 14.7 49.6 14.8 49.3 14.9 48.9 14.9 48.3 15 47.5 15.1 46.6 15.2 45.7 15.3 44.7 15.3 43.7 15.4 42.7 15.4 41.8 15.4 41.1 15.5 40.4 15.4 39.9 15.4 39.6 15.4 39.5 15.3 39.5 15.3 39.8 15.2 40.2 15.1 40.6 15.3 40.6 15.3 40.6"/><polygon class="cls-4" points="15.4 39.9 15.5 40.4 15.4 41.1 15.4 41.8 15.4 42.7 15.3 43.7 15.3 44.7 15.2 45.7 15.1 46.6 15 47.5 15.5 47.6 15.5 48 15.6 48.2 15.8 48.5 16.1 48.8 16.5 49 16.9 49.1 17.4 49.2 17.9 49.2 18 47.9 18 47.9 18 46.5 18 45.3 18 45 18.2 43.5 18.2 42 18.2 41.4 18.3 40.7 18.3 39.5 18.3 38.5 18.3 38.5 18.3 38.3 18.1 38.3 17.6 38.2 17.1 38 16.9 38 16.7 38 16.4 37.9 16.4 37.9 16.3 37.8 16.3 37.9 16.2 38 16 38.4 15.9 38.7 15.8 39.2 15.8 39.5 15.4 39.5 15.4 39.6 15.4 39.9"/><polygon class="cls-13" points="16.9 35.6 16.9 35.6 17.1 35.4 17.2 35 17.4 34.5 17.6 33.9 17.8 33.2 17.9 32.4 18.1 31.6 18.3 30.8 18.5 30 18.6 29.3 18.7 28.6 18.7 28.1 18.8 27.6 18.7 27.4 18.7 27.3 18.6 27.3 18.5 27.5 18.3 27.9 18.2 28.4 18 29 17.8 29.7 17.6 30.5 17.4 31.3 17.2 32.1 17.1 32.9 17 33.6 16.9 34.3 16.8 34.8 16.8 35.3 16.8 35.5 16.9 35.6"/><polygon class="cls-13" points="93 28.6 93.1 29.3 93.2 30 93.3 30.8 93.5 31.6 93.7 32.4 93.9 33.2 94.1 33.9 94.3 34.5 94.4 35 94.6 35.4 94.7 35.6 94.8 35.6 94.8 35.5 94.8 35.3 94.8 34.8 94.8 34.3 94.7 33.6 94.5 32.9 94.4 32.1 94.2 31.3 94 30.5 93.8 29.7 93.7 29 93.5 28.4 93.3 27.9 93.2 27.5 93 27.3 92.9 27.3 92.9 27.4 92.9 27.6 92.9 28.1 93 28.6"/><polygon class="cls-14" points="21.6 26.1 21.5 27.2 21.5 27.6 21.3 28.6 21.2 29.4 21.1 29.7 20.9 31 20.6 32.2 20.5 32.8 20.4 33.5 20.3 33.8 20.3 33.9 20.8 36 21.6 38 22.8 40 24.2 42 26 44 26.6 44.6 28.1 45.8 30.4 47.5 33 49.1 35.8 50.6 37.7 51.4 38.8 51.9 42 52.9 45.3 53.8 47.3 54.3 48.8 54.5 52.3 54.9 55.8 55.1 59.4 54.9 62.9 54.5 64.4 54.3 66.4 53.8 69.7 52.9 72.9 51.9 74 51.4 75.9 50.6 78.7 49.1 81.3 47.5 83.6 45.8 85.1 44.6 85.7 44 87.5 42 88.9 40 90.1 38 90.9 36 91.4 34 91.3 33.5 91.2 33.2 91.2 33 91.2 33 91 32.2 90.7 31 90.5 29.7 90.4 29.3 90.3 28.6 90.2 27.6 90.1 27.1 90 26.1 90 25.9 90.1 25.7 90.1 25.6 89.8 25 85.1 16.7 84.1 15.1 82.8 13.5 77.8 8.2 76.5 7 75.1 5.9 73.4 4.8 71.6 3.9 69.7 3 66.6 1.9 65 1.3 63.2 0.8 61.5 0.5 59.6 0.2 57.7 0.1 55.8 0 54 0.1 52.1 0.2 50.2 0.5 48.5 0.8 46.7 1.3 45.1 1.9 42 3 40.1 3.9 38.3 4.8 36.6 5.9 35.2 7 33.9 8.2 28.9 13.5 27.6 15.1 26.6 16.7 21.9 25 21.6 25.8 21.6 26 21.6 26.1"/></svg>